<svg width="260" height="120" fill="none" xmlns="http://www.w3.org/2000/svg"><path fill="#F1F1F1" d="M0 0h260v120H0z"/><path fill="#F1F1F1" d="M0 29h260v63H0z"/><path d="M233.518 66.277c0-.064-.032.368-.096 1.296a78.197 78.197 0 0 0-.192 5.376c0 .192.032.592.096 1.2.064.576.096 1.28.096 2.112v.432c0 .416-.128.624-.384.624s-.48-.24-.672-.72c-.448-1.056-.896-1.744-1.344-2.064-2.304 2.016-5.072 3.024-8.304 3.024-4.704 0-8.608-1.632-11.712-4.896-3.072-3.296-4.608-7.44-4.608-12.432 0-5.024 1.408-9.12 4.224-12.288 2.848-3.2 6.512-4.8 10.992-4.8 1.632 0 2.928.144 3.888.432.992.256 2.208.8 3.648 1.632.704.416 1.232.624 1.584.624.288 0 .56-.256.816-.768.416-.896.752-1.344 1.008-1.344s.384.128.384.384c0 .128-.032.336-.096.624-.352 1.536-.528 4.416-.528 8.64 0 .608-.048.96-.144 1.056a.519.519 0 0 1-.384.144c-.32 0-.528-.304-.624-.912-.416-2.56-1.008-4.464-1.776-5.712-1.568-2.56-4.032-3.84-7.392-3.84-2.592 0-4.64.864-6.144 2.592-2.72 3.104-4.08 7.648-4.08 13.632 0 5.344 1.12 9.488 3.36 12.432 1.952 2.56 4.544 3.84 7.776 3.84 1.664 0 3.184-.4 4.56-1.2a8.42 8.42 0 0 0 3.168-3.36c.832-1.632 1.424-3.408 1.776-5.328.128-.768.336-1.152.624-1.152.32 0 .48.24.48.72ZM203.399 56.966c0 .192-.112.304-.336.336-.192.032-.928.08-2.208.144-.992.032-1.632.144-1.92.336-.288.192-.496.688-.624 1.488-.736 4-2.128 7.6-4.176 10.8.64 1.024 1.104 1.824 1.392 2.4.768 1.536 1.504 2.496 2.208 2.88.736.384 2.192.624 4.368.72.672.032 1.008.208 1.008.528 0 .256-.224.384-.672.384-.8 0-2.272-.048-4.416-.144a42.134 42.134 0 0 0-1.488-.048 34.05 34.05 0 0 0-3.456.192c-.128-.352-.672-1.376-1.632-3.072l-.24-.384c-2.56 2.72-5.904 4.08-10.032 4.08-3.168 0-5.744-.848-7.728-2.544-1.984-1.696-2.976-3.904-2.976-6.624 0-4.544 2.816-8.128 8.448-10.752-.064-.096-.272-.32-.624-.672-1.632-1.696-2.656-2.88-3.072-3.552-.384-.704-.576-1.616-.576-2.736 0-2.272.736-4.112 2.208-5.52 1.504-1.408 3.44-2.112 5.808-2.112 2.272 0 4.096.592 5.472 1.776 1.408 1.152 2.112 2.672 2.112 4.56 0 3.04-2.224 5.456-6.672 7.248l2.4 2.784c2.816 3.232 5.296 6.4 7.44 9.504 2.272-3.648 3.408-7.04 3.408-10.176 0-.704-.144-1.104-.432-1.2-.288-.128-1.312-.192-3.072-.192-.96 0-1.44-.16-1.44-.48 0-.256.272-.384.816-.384h7.776c1.472 0 2.272.016 2.4.048.352.096.528.224.528.384Zm-16.848-7.056c0-1.792-.4-3.248-1.2-4.368-.768-1.12-1.776-1.68-3.024-1.68-1.28 0-2.336.432-3.168 1.296-.832.832-1.248 1.888-1.248 3.168 0 2.368 1.728 4.944 5.184 7.728 2.304-1.248 3.456-3.296 3.456-6.144Zm4.08 22.656c-1.952-3.392-5.68-8.16-11.184-14.304-1.568 1.184-2.688 2.4-3.36 3.648-.64 1.248-.96 2.752-.96 4.512 0 2.72.752 4.992 2.256 6.816 1.536 1.824 3.44 2.736 5.712 2.736 2.848 0 5.36-1.136 7.536-3.408ZM164.375 46.793c0 1.44-.72 2.16-2.16 2.16-.608 0-1.12-.192-1.536-.576a2.031 2.031 0 0 1-.624-1.488c0-1.504.72-2.256 2.16-2.256 1.44 0 2.16.72 2.16 2.16Zm3.6 29.904c0 .288-.272.432-.816.432.032 0-.352-.032-1.152-.096a37.22 37.22 0 0 0-2.4-.096l-4.992.096c-.16.032-.352.048-.576.048-.352 0-.528-.112-.528-.336 0-.32.32-.48.96-.48 1.216-.032 1.872-.112 1.968-.24.128-.16.192-.832.192-2.016l-.048-14.544c-.032-.8-.08-1.264-.144-1.392-.032-.16-.224-.24-.576-.24l-1.392.048a2.02 2.02 0 0 1-.48.048c-.352 0-.528-.128-.528-.384 0-.224.272-.352.816-.384 2.144-.096 3.984-.608 5.52-1.536l.48-.288c.256.48.384 1.36.384 2.64v.48c-.032.384-.048 1.008-.048 1.872v13.104c0 1.28.016 2.032.048 2.256.064.224.24.368.528.432.48.128 1.184.192 2.112.192.448 0 .672.128.672.384ZM155.676 76.693c0 .256-.24.384-.72.384h-.576c-.576-.064-1.36-.096-2.352-.096-3.136 0-4.992.032-5.568.096h-.336c-.416 0-.624-.112-.624-.336 0-.16.08-.256.24-.288.192-.032.816-.064 1.872-.096.608-.032.96-.112 1.056-.24.096-.16.144-.688.144-1.584v-9.216c0-3.488-.128-5.568-.384-6.24-.544-1.44-1.632-2.16-3.264-2.16-1.6 0-2.944.704-4.032 2.112-.32.416-.48.992-.48 1.728l.048 14.976c0 .384.336.592 1.008.624l1.44.048c.32 0 .48.112.48.336 0 .224-.192.336-.576.336h-.768c-.704-.064-1.824-.096-3.36-.096-.352 0-1.12.016-2.304.048a129.38 129.38 0 0 1-2.016.048h-.288c-.48 0-.72-.112-.72-.336 0-.224.288-.368.864-.432h1.2c.48 0 .768-.112.864-.336l.144-.72V64.789c0-3.648-.032-5.664-.096-6.048-.064-.384-.464-.576-1.2-.576-.224 0-.608.032-1.152.096h-.24c-.64 0-.96-.112-.96-.336 0-.288.336-.432 1.008-.432.96-.032 2-.208 3.12-.528 1.12-.32 1.904-.688 2.352-1.104.288-.256.512-.384.672-.384.224 0 .336.304.336.912v2.304c1.664-2.144 3.808-3.216 6.432-3.216 2.304 0 3.968.848 4.992 2.544.576.96.864 2.784.864 5.472v10.944c0 1.024.048 1.584.144 1.68.192.192.656.288 1.392.288.096 0 .272-.016.528-.048h.336c.32 0 .48.112.48.336ZM130.683 71.749c0 .32-.256.896-.768 1.728-.48.8-.976 1.456-1.488 1.968-1.376 1.408-3.216 2.112-5.52 2.112-2.88 0-5.296-1.04-7.248-3.12-1.92-2.08-2.88-4.656-2.88-7.728 0-3.2.912-5.872 2.736-8.016 1.856-2.144 4.16-3.216 6.912-3.216 2.272 0 4.176.672 5.712 2.016 1.536 1.312 2.352 3.008 2.448 5.088-1.024.16-2.384.224-4.08.192l-3.36-.048c-.224 0-2.144.048-5.76.144a20.207 20.207 0 0 0-.24 3.024c0 3.232.608 5.728 1.824 7.488 1.248 1.728 2.992 2.592 5.232 2.592 1.28 0 2.304-.288 3.072-.864.768-.576 1.6-1.68 2.496-3.312.128-.256.304-.384.528-.384.256 0 .384.112.384.336Zm-4.176-9.792c-.128-3.84-1.504-5.76-4.128-5.76-2.592 0-4.208 1.92-4.848 5.76h8.976ZM111.713 74.15c0 .288-.4.8-1.2 1.536-1.376 1.248-3.008 1.872-4.896 1.872-1.76 0-3.088-.448-3.984-1.344-.512-.512-.768-2.016-.768-4.512V57.398c-.032-.32-.208-.496-.528-.528h-1.824c-.704 0-1.056-.112-1.056-.336 0-.224.176-.352.528-.384 2.496-.224 4.448-1.44 5.856-3.648.192-.288.432-.432.72-.432.224 0 .336.112.336.336v.192c-.032.16-.048.432-.048.816 0 1.344.064 2.208.192 2.592.288.064.768.096 1.44.096 1.76 0 2.928-.08 3.504-.24a1.41 1.41 0 0 1 .336-.048c.256 0 .384.144.384.432 0 .48-1.296.72-3.888.72-.448 0-1.104-.016-1.968-.048v8.88c0 4.48.112 7.296.336 8.448.224 1.12.96 1.68 2.208 1.68 1.056 0 2.24-.592 3.552-1.776.128-.16.272-.24.432-.24.224 0 .336.08.336.24ZM96.241 76.648c0 .288-.208.432-.624.432h-.576c-.064 0-.912-.032-2.544-.096l-1.488-.048c-.256 0-1.536.048-3.84.144a3.498 3.498 0 0 1-.576.048c-.48.032-.72-.112-.72-.432 0-.224.176-.336.528-.336h1.248c.896 0 1.344-.192 1.344-.576.032-.192.048-1.44.048-3.744V47.608c0-1.056-.032-1.632-.096-1.728-.096-.256-.352-.384-.768-.384h-.384l-1.344.048c-.448 0-.672-.144-.672-.432 0-.256.4-.4 1.2-.432 1.536-.096 2.96-.448 4.272-1.056l1.008-.48.384-.144c.256.928.368 2.336.336 4.224l-.048 3.408.048 23.52c0 .96.016 1.536.048 1.728.032.16.144.272.336.336.032.032.624.064 1.776.096.736 0 1.104.112 1.104.336ZM83.45 66.613c0 3.104-.944 5.712-2.832 7.824-1.888 2.08-4.24 3.12-7.056 3.12-2.912 0-5.344-1.04-7.296-3.12-1.952-2.112-2.928-4.72-2.928-7.824 0-3.2.944-5.856 2.832-7.968 1.92-2.112 4.304-3.168 7.152-3.168 2.88 0 5.28 1.072 7.2 3.216 1.952 2.112 2.928 4.752 2.928 7.92Zm-4.368-.048c0-3.52-.544-6.256-1.632-8.208-.8-1.44-2.144-2.16-4.032-2.16-1.792 0-3.2.928-4.224 2.784-.992 1.824-1.488 4.368-1.488 7.632 0 3.232.528 5.76 1.584 7.584 1.088 1.792 2.592 2.688 4.512 2.688 1.472 0 2.56-.56 3.264-1.68 1.344-2.112 2.016-4.992 2.016-8.64ZM60.992 76.602c0 .32-.336.48-1.008.48h-.528c-.448 0-1.264-.016-2.448-.048a108.696 108.696 0 0 0-2.736-.048c-.96 0-2.08.016-3.36.048h-2.928c-.672 0-1.008-.144-1.008-.432 0-.32.464-.48 1.392-.48 1.632 0 2.624-.176 2.976-.528.16-.16.24-1.232.24-3.216V47.514c0 .032-.176.592-.528 1.68-1.28 3.872-3.136 9.696-5.568 17.472l-2.256 7.632c-.448 1.504-.768 2.256-.96 2.256-.224 0-.464-.384-.72-1.152C40.624 72.49 38 65.226 33.68 53.61l-1.92-5.136c.032.608.048 1.44.048 2.496v15.6c0 5.856.048 8.816.144 8.88.224.416.992.624 2.304.624 1.056 0 1.584.144 1.584.432 0 .32-.336.48-1.008.48-.416 0-.8-.016-1.152-.048a17.029 17.029 0 0 0-1.2-.048l-5.52.144c-.576 0-.864-.144-.864-.432 0-.32.912-.496 2.736-.528.768 0 1.216-.128 1.344-.384.128-.256.192-1.088.192-2.496V50.202c0-2.656-.032-4.096-.096-4.32-.128-.448-.4-.752-.816-.912-.416-.16-1.312-.288-2.688-.384-.512-.032-.768-.176-.768-.432 0-.352.464-.528 1.392-.528.128 0 .4.016.816.048h2.496c1.888 0 3.216-.016 3.984-.048.16.416 1.104 2.928 2.832 7.536.736 1.92 2.8 7.52 6.192 16.8.608-2.08 1.232-4.128 1.872-6.144l5.088-15.888c.288-.928.544-1.696.768-2.304l7.2-.048c1.056 0 1.664.048 1.824.144.16.096.24.24.24.432 0 .32-.272.48-.816.48-.896 0-1.504.032-1.824.096-.768.128-1.296.384-1.584.768-.16.224-.24 2.096-.24 5.616v22.32c0 1.28.128 2.032.384 2.256.416.288 1.456.432 3.12.432h.288c.64 0 .96.16.96.48Z" fill="#000"/></svg>