<svg width="260" height="120" fill="none" xmlns="http://www.w3.org/2000/svg"><path fill="#F1F1F1" d="M0 0h260v120H0z"/><g clip-path="url(#a)"><path d="M190 0H70v120h120V0Z" fill="#E30613"/><path d="M134.121 49.18c-3.278 0-5.359 1.487-5.359 4.928v12.747c0 3.441 2.148 4.928 5.426 4.928s5.39-1.487 5.39-4.928V54.108c0-3.441-2.149-4.928-5.457-4.928Zm1.026 19.714a.911.911 0 0 1-.276.642.899.899 0 0 1-.653.25.942.942 0 0 1-.977-.892V51.9a.91.91 0 0 1 .269-.638.908.908 0 0 1 .642-.26.966.966 0 0 1 .995.922v16.971ZM126.565 49.178a1.135 1.135 0 0 0-1.044 1.08l-2.549 14.756-2.513-13.954c-.327-1.154-1.092-1.882-2.215-1.882a2.092 2.092 0 0 0-2.252 2.051c.007.204.029.407.067.607l3.405 18.082a2.35 2.35 0 0 0 2.318 1.821 2.305 2.305 0 0 0 2.35-1.82c3.338-18.495 3.441-19.023 3.441-19.023s.061-.559.097-.662a1.066 1.066 0 0 0-.332-.759 1.072 1.072 0 0 0-.773-.297ZM148.603 69.677h-2.082V51.091a2.08 2.08 0 0 0-.702-1.436 2.087 2.087 0 0 0-1.513-.518 2.056 2.056 0 0 0-2.185 1.954v18.652a2.078 2.078 0 0 0 .676 1.489 2.07 2.07 0 0 0 1.545.533h4.249a1.029 1.029 0 0 0 .743-.313 1.02 1.02 0 0 0 .223-.345 1.02 1.02 0 0 0 .072-.404 1.052 1.052 0 0 0-1.026-1.026ZM101.868 62.806a2.198 2.198 0 0 0-1.551.655 2.194 2.194 0 0 0-.628 1.56v3.873a.984.984 0 0 1-1.955 0V51.9a.903.903 0 0 1 .91-.898.923.923 0 0 1 .675.259.927.927 0 0 1 .285.663v3.642a2.187 2.187 0 0 0 2.185 2.216 2.224 2.224 0 0 0 2.246-2.216v-1.457c.018-3.441-2.1-4.928-5.39-4.928-3.29 0-5.36 1.487-5.36 4.928v12.747c0 3.441 2.155 4.928 5.427 4.928 3.271 0 5.395-1.493 5.395-4.91V65.02a2.223 2.223 0 0 0-1.384-2.054 2.214 2.214 0 0 0-.855-.16ZM113.083 51.001a2.423 2.423 0 0 0-2.349-1.813A2.43 2.43 0 0 0 108.385 51l-3.411 19.047s-.097.564-.097.662a1.047 1.047 0 0 0 1.05 1.062 1.134 1.134 0 0 0 1.056-1.062l.334-1.487h4.558l.17.661c.364 1.13 1.093 1.888 2.216 1.888a2.138 2.138 0 0 0 2.282-2.052c0-.133-.067-.46-.067-.607l-3.393-18.112Zm-5.462 16.34 1.887-11.01 2.082 11.016-3.969-.006ZM85.795 49.18c-3.278 0-5.196 1.487-5.196 4.928v3.035c0 1.426.431 2.35 1.821 3.345l3.375 2.428c.692.497.96.795.96 1.42v4.497a.873.873 0 0 1-.93.892.905.905 0 0 1-.959-.867v-3.77a2.192 2.192 0 0 0-2.215-2.215 2.206 2.206 0 0 0-2.215 2.215v1.488c0 3.44 2.118 5.195 5.39 5.195 3.271 0 5.329-1.487 5.329-4.929v-3.508a3.435 3.435 0 0 0-1.615-3.108l-2.713-1.754c-1.851-1.213-1.985-1.323-1.985-3.338v-3.21a.93.93 0 0 1 .984-.923.924.924 0 0 1 .883.562.93.93 0 0 1 .075.36v3.642a2.185 2.185 0 0 0 2.186 2.216 2.246 2.246 0 0 0 2.251-2.216v-1.457c0-3.441-2.154-4.928-5.426-4.928ZM152.664 49.137a2.118 2.118 0 0 0-2.246 1.954v18.653a2.237 2.237 0 0 0 2.231 2.038 2.24 2.24 0 0 0 2.23-2.038s.037-.923 0-18.653a2.107 2.107 0 0 0-2.215-1.954ZM177.879 49.078a1.682 1.682 0 0 0-1.682 1.65 1.688 1.688 0 0 0 3.369 0 1.684 1.684 0 0 0-1.687-1.65Zm0 3.035a1.403 1.403 0 0 1-1.421-1.39 1.43 1.43 0 0 1 1.423-1.333 1.429 1.429 0 0 1 1.424 1.333c-.002.185-.04.369-.112.54a1.416 1.416 0 0 1-1.314.856v-.006Z" fill="#F1F1F1"/><path d="M178.71 50.3a.459.459 0 0 0-.2-.364.974.974 0 0 0-.431-.066h-.759v1.687h.261v-.759h.298l.497.76h.298l-.516-.76c.285-.036.552-.133.552-.497Zm-.862.268h-.267v-.498h.431c.231 0 .431.037.431.23 0 .335-.328.268-.595.268ZM173.016 49.137a2.112 2.112 0 0 0-2.215 1.955v18.652a2.058 2.058 0 0 0 .672 1.488 2.074 2.074 0 0 0 1.543.534c1.063 0 2.252-.608 2.252-2.022V51.092a2.118 2.118 0 0 0-2.252-1.955ZM167.528 49.047a.99.99 0 0 0-.965.995v14.319l-5.402-13.924a2.057 2.057 0 0 0-1.07-1.158 2.05 2.05 0 0 0-1.576-.056 2.105 2.105 0 0 0-1.323 1.985v19.69a.978.978 0 0 0 1.668.69.978.978 0 0 0 .286-.69v-14.24l5.39 13.821a2.012 2.012 0 0 0 1.851 1.355c.272.007.542-.04.795-.141a2.08 2.08 0 0 0 1.336-2.009V50.042a.993.993 0 0 0-.99-.995Z" fill="#F1F1F1"/></g><defs><clipPath id="a"><path fill="#fff" transform="translate(70)" d="M0 0h120v120H0z"/></clipPath></defs></svg>