<svg width="260" height="120" fill="none" xmlns="http://www.w3.org/2000/svg"><path fill="#F1F1F1" d="M0 0h260v120H0z"/><path d="M83.643 42.133c0 .043-.882.061-2.524.061h-2.523v28.76h5.168V56.511c0-9.586-.018-14.44-.06-14.44-.03 0-.061.024-.061.06ZM92.948 42.133c0 .043-.882.061-2.524.061H87.9v28.76H93.07V56.511c0-9.586-.018-14.44-.06-14.44-.031 0-.061.024-.061.06ZM99.211 42.256c0 .03-.121.062-.273.062-.152 0-.274.024-.274.06 0 .032-.055.062-.122.062s-.121.025-.121.062c0 .03-.067.061-.152.061-.085 0-.152.025-.152.062 0 .03-.043.061-.098.061-.109 0-.267.142-.267.24 0 .037-.055.067-.122.067-.146 0-.425.258-.425.4 0 .049-.025.092-.061.092-.03 0-.061.043-.061.092 0 .05-.024.092-.06.092-.031 0-.062.056-.062.123 0 .068-.024.123-.06.123-.03 0-.061.056-.061.123 0 .068-.043.123-.091.123-.055 0-.092.055-.092.154 0 .086-.024.153-.06.153-.03 0-.061.11-.061.246 0 .135-.025.246-.061.246-.037 0-.06.246-.06.614 0 .37.023.615.06.615.036 0 .06.123.06.276 0 .154.031.277.062.277.036 0 .06.055.06.123 0 .067.043.123.092.123.054 0 .09.055.09.153 0 .086.031.154.061.154.037 0 .061.043.061.098 0 .056.085.178.183.27.103.093.182.191.182.216 0 .049.164.215.213.215.024 0 .122.08.213.184.091.099.213.185.267.185.055 0 .098.043.098.092 0 .055.054.092.152.092.085 0 .152.025.152.061 0 .031.054.062.121.062s.122.024.122.061c0 .031.152.062.335.062.182 0 .334.024.334.061s.225.062.547.062c.323 0 .547-.025.547-.062s.11-.061.244-.061.243-.031.243-.062c0-.037.097-.061.213-.061.115 0 .213-.03.213-.062 0-.036.054-.061.121-.061s.122-.03.122-.068c0-.098.158-.24.274-.24.103 0 .516-.386.516-.49 0-.032.043-.062.092-.062.048 0 .091-.05.091-.111 0-.062.055-.148.121-.197a.327.327 0 0 0 .122-.227c0-.08.03-.141.061-.141.036 0 .061-.056.061-.123 0-.068.03-.123.06-.123.037 0 .061-.123.061-.277 0-.203.025-.276.092-.276.079 0 .091-.13.091-.8 0-.669-.012-.798-.091-.798-.061 0-.092-.061-.092-.184 0-.105-.024-.185-.061-.185-.03 0-.06-.067-.06-.153s-.025-.154-.061-.154c-.031 0-.061-.055-.061-.123 0-.067-.024-.123-.061-.123-.03 0-.061-.055-.061-.129 0-.116-.127-.3-.212-.3-.049 0-.456-.413-.456-.462 0-.086-.183-.215-.298-.215-.073 0-.128-.03-.128-.061 0-.037-.055-.062-.122-.062s-.121-.03-.121-.061c0-.037-.055-.062-.122-.062s-.122-.03-.122-.061c0-.037-.121-.061-.273-.061-.152 0-.274-.031-.274-.062 0-.037-.261-.061-.669-.061-.407 0-.669.024-.669.061ZM168.778 42.256c0 .03-.121.062-.273.062-.152 0-.274.024-.274.06 0 .032-.079.062-.182.062-.098 0-.183.025-.183.062 0 .03-.067.061-.152.061-.085 0-.152.025-.152.062 0 .03-.043.061-.097.061-.091 0-.268.142-.268.215 0 .05-.164.215-.213.215-.085 0-.456.437-.456.535 0 .061-.054.154-.121.203-.067.049-.122.135-.122.196 0 .062-.043.111-.091.111-.061 0-.091.068-.091.215 0 .117-.025.215-.061.215-.031 0-.061.154-.061.338 0 .184-.024.338-.061.338-.03 0-.061.154-.061.338 0 .184.031.338.061.338.037 0 .061.154.061.338 0 .184.03.338.061.338.036 0 .061.08.061.184 0 .123.03.185.091.185.055 0 .091.055.091.141 0 .074.055.178.122.227.067.05.121.13.121.185 0 .055.055.135.122.184.067.05.122.11.122.142 0 .067.158.227.225.227.03 0 .091.055.139.123.049.067.122.123.171.123.097 0 .255.147.255.24 0 .036.067.067.152.067.085 0 .152.025.152.061 0 .031.085.062.183.062.103 0 .182.024.182.061 0 .031.122.062.274.062.152 0 .273.024.273.061s.243.062.608.062.608-.025.608-.062.122-.061.274-.061c.152 0 .274-.031.274-.062 0-.037.054-.061.121-.061s.122-.03.122-.062c0-.036.055-.061.122-.061.066 0 .121-.043.121-.092 0-.05.043-.092.091-.092.049 0 .092-.031.092-.062 0-.037.042-.061.091-.061.103 0 .517-.394.517-.492 0-.03.03-.061.067-.061.091 0 .237-.16.237-.258 0-.05.054-.123.121-.173.079-.055.122-.16.122-.288 0-.111.03-.203.061-.203.036 0 .061-.056.061-.123 0-.068.042-.123.091-.123.073 0 .091-.086.091-.4 0-.227.024-.399.061-.399.036 0 .061-.098.061-.215 0-.117-.025-.215-.061-.215-.037 0-.061-.172-.061-.4 0-.313-.018-.399-.091-.399-.061 0-.091-.067-.091-.215 0-.117-.025-.215-.061-.215-.031 0-.061-.05-.061-.11 0-.062-.055-.148-.122-.197-.067-.05-.121-.142-.121-.203 0-.11-.134-.289-.213-.289-.018 0-.128-.098-.243-.215-.116-.117-.213-.227-.213-.246 0-.086-.183-.215-.298-.215-.073 0-.128-.03-.128-.061 0-.037-.055-.062-.121-.062-.067 0-.122-.03-.122-.061 0-.037-.055-.062-.122-.062s-.121-.03-.121-.061c0-.037-.122-.061-.274-.061-.152 0-.274-.031-.274-.062 0-.037-.243-.061-.608-.061s-.608.024-.608.061ZM210.98 46.407c0 .073-.085.092-.395.092-.225 0-.395.024-.395.061s-.183.062-.426.062-.425.024-.425.061c0 .03-.11.062-.244.062-.133 0-.243.024-.243.061 0 .03-.122.062-.274.062-.152 0-.273.024-.273.061 0 .03-.097.061-.213.061-.116 0-.213.025-.213.062 0 .03-.055.061-.121.061-.067 0-.122.043-.122.093 0 .061-.067.092-.213.092-.115 0-.213.024-.213.061 0 .03-.079.062-.182.062-.097 0-.183.024-.183.061 0 .03-.067.062-.152.062-.085 0-.152.024-.152.061 0 .03-.054.061-.121.061s-.122.025-.122.062c0 .03-.055.061-.122.061-.066 0-.121.043-.121.093 0 .055-.055.092-.152.092-.085 0-.152.024-.152.061 0 .03-.049.062-.11.062-.06 0-.146.055-.194.122a.322.322 0 0 1-.225.123c-.079 0-.14.025-.14.062 0 .03-.055.061-.122.061s-.121.031-.121.068c0 .104-.165.24-.286.24-.061 0-.152.055-.201.122-.048.068-.121.123-.17.123-.091 0-.377.277-.377.369 0 .03-.055.062-.128.062-.067 0-.231.11-.359.245-.127.136-.261.246-.298.246-.036 0-.066.03-.066.062 0 .086-.523.614-.609.614-.03 0-.06.03-.06.062 0 .086-.645.737-.73.737-.03 0-.061.043-.061.092 0 .05-.024.092-.061.092-.03 0-.06.043-.06.099 0 .055-.08.178-.183.27-.097.092-.182.227-.182.301 0 .074-.031.13-.067.13-.098 0-.237.159-.237.27 0 .055-.025.098-.061.098-.031 0-.061.043-.061.092 0 .05-.024.092-.061.092-.03 0-.061.043-.061.099 0 .11-.139.27-.237.27-.036 0-.067.055-.067.123 0 .067-.024.123-.06.123-.031 0-.061.067-.061.153s-.025.154-.061.154c-.031 0-.061.055-.061.123 0 .067-.024.123-.061.123-.03 0-.061.067-.061.153s-.024.154-.06.154c-.031 0-.061.055-.061.123s-.024.123-.061.123c-.03 0-.061.055-.061.123 0 .067-.042.123-.091.123-.061 0-.091.067-.091.215 0 .116-.025.215-.061.215-.03 0-.061.055-.061.123 0 .067-.024.123-.061.123-.03 0-.06.098-.06.215 0 .116-.025.215-.061.215-.031 0-.061.08-.061.184 0 .098-.024.184-.061.184-.03 0-.061.099-.061.215 0 .148-.03.216-.091.216-.067 0-.091.073-.091.276 0 .154-.024.277-.061.277-.03 0-.061.153-.061.338 0 .184-.024.338-.061.338-.036 0-.06.172-.06.399 0 .227-.025.4-.061.4-.037 0-.061.688-.061 1.935 0 1.248.024 1.936.061 1.936.036 0 .061.172.061.4 0 .227.024.399.06.399.037 0 .061.153.061.338 0 .184.031.338.061.338.037 0 .061.123.061.276 0 .203.024.277.091.277.061 0 .091.067.091.215 0 .117.031.215.061.215.037 0 .061.08.061.184 0 .099.03.185.061.185.036 0 .061.098.061.215 0 .116.03.215.06.215.037 0 .061.055.061.123 0 .067.031.123.061.123.036 0 .061.098.061.215 0 .147.03.215.091.215.049 0 .091.055.091.123 0 .067.031.122.061.122.037 0 .061.056.061.123 0 .068.03.123.061.123.036 0 .06.068.06.154s.031.154.061.154c.037 0 .061.055.061.123 0 .067.03.122.061.122.036 0 .061.068.061.154s.03.154.061.154c.036 0 .06.055.06.122 0 .068.031.123.067.123.104 0 .237.166.237.29 0 .06.055.153.122.202.067.05.122.123.122.172 0 .098.146.258.237.258.036 0 .067.055.067.13 0 .067.109.233.243.362.134.129.243.295.243.362 0 .074.031.13.061.13.067 0 .608.522.608.583 0 .05.164.215.213.215.061 0 .578.547.578.615 0 .03.03.061.066.061.037 0 .146.08.238.185.091.098.212.184.267.184.055 0 .097.024.097.061 0 .031.043.062.092.062.048 0 .091.03.091.061 0 .092.286.369.377.369.049 0 .122.055.17.123a.322.322 0 0 0 .225.123c.079 0 .14.03.14.067 0 .099.158.24.268.24.054 0 .097.025.097.061 0 .031.061.062.14.062.073 0 .176.055.225.123.048.067.134.123.194.123.061 0 .11.024.11.061 0 .03.067.062.152.062.097 0 .152.036.152.092 0 .049.055.092.121.092.067 0 .122.025.122.061 0 .031.055.062.122.062s.121.024.121.061c0 .031.067.062.152.062.085 0 .152.024.152.061 0 .031.086.062.183.062.103 0 .182.024.182.061 0 .03.067.062.152.062.098 0 .152.036.152.092 0 .061.061.092.183.092.103 0 .182.025.182.061 0 .031.091.062.207.062.115 0 .219.037.231.074.036.104.231-.093.231-.228 0-.117.14-.276.237-.276.037 0 .067-.05.067-.11 0-.062.055-.148.122-.198a.313.313 0 0 0 .121-.215c0-.067.055-.166.122-.215.067-.049.122-.135.122-.196 0-.062.042-.111.091-.111.067 0 .091-.074.091-.276 0-.203-.024-.277-.091-.277-.061 0-.091-.068-.091-.215 0-.117-.025-.215-.061-.215-.031 0-.061-.086-.061-.184 0-.105-.024-.185-.061-.185-.03 0-.061-.098-.061-.215 0-.117-.024-.215-.06-.215-.031 0-.061-.086-.061-.184 0-.105-.025-.185-.061-.185-.031 0-.061-.123-.061-.276 0-.203-.024-.277-.091-.277-.061 0-.091-.067-.091-.215 0-.117-.025-.215-.061-.215-.031 0-.061-.11-.061-.246 0-.135-.024-.246-.061-.246-.03 0-.061-.122-.061-.276 0-.154-.024-.277-.06-.277-.031 0-.061-.098-.061-.215 0-.116-.025-.215-.061-.215-.03 0-.061-.11-.061-.246 0-.135-.024-.245-.061-.245-.03 0-.06-.154-.06-.338 0-.258-.019-.338-.092-.338-.067 0-.091-.074-.091-.277 0-.154-.024-.276-.061-.276-.036 0-.06-.172-.06-.4 0-.227-.025-.4-.061-.4-.037 0-.061-.675-.061-1.904 0-1.23.024-1.905.061-1.905.036 0 .061-.172.061-.4 0-.227.024-.4.06-.4.037 0 .061-.153.061-.337 0-.258.018-.338.091-.338.061 0 .092-.062.092-.184 0-.105.03-.185.06-.185.037 0 .061-.123.061-.276 0-.154.031-.277.061-.277.036 0 .061-.086.061-.184 0-.105.03-.184.061-.184.036 0 .06-.099.06-.216 0-.116.031-.215.061-.215.037 0 .061-.055.061-.123 0-.067.03-.123.061-.123.036 0 .061-.098.061-.214 0-.148.03-.216.091-.216.049 0 .091-.055.091-.122 0-.068.03-.123.061-.123.036 0 .061-.068.061-.154s.03-.154.061-.154c.036 0 .06-.055.06-.123 0-.067.031-.123.061-.123.037 0 .061-.055.061-.122 0-.068.03-.123.061-.123.036 0 .061-.068.061-.154 0-.098.036-.153.091-.153.048 0 .091-.05.091-.111 0-.062.055-.148.122-.197a.326.326 0 0 0 .121-.227c0-.08.031-.142.061-.142.037 0 .061-.042.061-.098 0-.11.14-.27.237-.27.036 0 .067-.062.067-.142 0-.073.055-.178.122-.227.066-.05.121-.129.121-.184 0-.056.055-.135.122-.185.067-.049.121-.14.121-.202 0-.111.134-.29.213-.29.079 0 .213-.177.213-.276 0-.055.091-.19.201-.295.121-.117.164-.196.121-.209-.048-.018-.079-.135-.079-.3 0-.148-.024-.271-.061-.271-.03 0-.06-.05-.06-.11 0-.062-.055-.148-.122-.197a.327.327 0 0 1-.122-.228c0-.104-.036-.141-.139-.141a.32.32 0 0 1-.225-.123c-.049-.074-.159-.123-.256-.123-.091 0-.17-.03-.17-.061 0-.037-.122-.062-.274-.062-.2 0-.273-.024-.273-.092 0-.08-.256-.092-1.946-.092-1.259 0-1.946-.025-1.946-.062s.067-.061.152-.061c.085 0 .152-.03.152-.062 0-.036.085-.06.182-.06.104 0 .183-.032.183-.062 0-.037.067-.062.152-.062.085 0 .152-.03.152-.061 0-.037.085-.062.182-.062.122 0 .183-.03.183-.092 0-.061.067-.092.212-.092.116 0 .213-.03.213-.062 0-.036.085-.061.183-.061.103 0 .182-.03.182-.062 0-.036.067-.06.152-.06.085 0 .152-.032.152-.062 0-.037.085-.062.183-.062.103 0 .182-.03.182-.061 0-.037.097-.062.213-.062.115 0 .213-.03.213-.061 0-.037.054-.062.121-.062s.122-.043.122-.092c0-.061.067-.092.213-.092.115 0 .213-.03.213-.061 0-.037.054-.062.121-.062s.122-.03.122-.061c0-.037.055-.062.121-.062.134 0 .426-.252.426-.368 0-.031.049-.062.11-.062.06 0 .146-.055.194-.123.049-.067.122-.123.164-.123.043 0 .079-.03.079-.061 0-.037.055-.062.122-.062s.122-.03.122-.061c0-.037.054-.061.121-.061s.122-.043.122-.093c0-.055.055-.092.152-.092.085 0 .152-.03.152-.061 0-.037.055-.062.122-.062.066 0 .121-.03.121-.061 0-.037.067-.062.152-.062.085 0 .152-.03.152-.061 0-.037.11-.062.243-.062.134 0 .244-.03.244-.061 0-.037.152-.062.334-.062.183 0 .335-.03.335-.06 0-.038.243-.062.608-.062s.608.024.608.061.17.062.395.062.395.024.395.061c0 .03.122.061.274.061.152 0 .274.025.274.062 0 .03.085.061.182.061.103 0 .182.025.182.062 0 .03.098.061.213.061.116 0 .213.025.213.062 0 .03.055.061.122.061s.121.043.121.092c0 .062.067.093.213.093.116 0 .213.024.213.06 0 .032.055.062.122.062.079 0 .121.043.121.123s-.042.123-.121.123c-.067 0-.122-.03-.122-.061 0-.037-.067-.062-.152-.062-.085 0-.152.025-.152.062 0 .03-.134.061-.304.061-.164 0-.304.025-.304.062 0 .03-.067.061-.152.061-.085 0-.152.03-.152.068 0 .036-.079.147-.183.24-.097.092-.182.214-.182.27 0 .055-.043.098-.091.098-.079 0-.091.178-.091 1.23 0 .78-.025 1.228-.061 1.228-.037 0-.061.289-.061.738 0 .448.024.737.061.737.036 0 .061.197.061.46 0 .37.018.462.091.462.067 0 .091.073.091.276 0 .154.03.277.061.277.036 0 .061.123.061.276 0 .154.03.277.06.277.037 0 .061.11.061.246 0 .135.031.245.061.245.037 0 .061.099.061.215 0 .117.03.215.061.215.036 0 .06.123.06.277 0 .203.025.277.092.277s.091.067.091.245c0 .136.03.246.061.246.036 0 .061.154.061.338 0 .184.03.338.06.338.037 0 .061.51.061 1.413 0 .904-.024 1.414-.061 1.414-.036 0-.06.172-.06.4 0 .227-.025.399-.061.399-.037 0-.061.184-.061.43 0 .344-.018.43-.091.43-.067 0-.092.074-.092.307 0 .166-.024.308-.06.308-.031 0-.061.123-.061.276 0 .154-.024.277-.061.277-.03 0-.061.123-.061.276 0 .154-.024.277-.061.277-.03 0-.06.123-.06.276 0 .154-.025.277-.061.277-.031 0-.061.08-.061.184 0 .123-.03.184-.091.184s-.091.068-.091.216c0 .116-.025.215-.061.215-.031 0-.061.08-.061.184 0 .098-.024.184-.061.184-.03 0-.061.099-.061.215 0 .117-.024.215-.06.215-.031 0-.061.099-.061.216 0 .116-.025.215-.061.215-.03 0-.061.08-.061.184 0 .123-.03.184-.091.184-.055 0-.091.056-.091.154 0 .086-.025.154-.061.154-.031 0-.061.08-.061.184 0 .098-.024.184-.061.184-.03 0-.061.099-.061.215 0 .117-.024.215-.06.215-.031 0-.061.056-.061.123 0 .068-.025.123-.061.123-.03 0-.061.099-.061.215 0 .117-.024.215-.061.215-.03 0-.06.056-.06.123 0 .068-.043.123-.092.123-.048 0-.091.055-.091.123s-.024.123-.061.123c-.03 0-.06.098-.06.215 0 .117-.025.215-.061.215-.031 0-.061.056-.061.123 0 .068-.024.123-.061.123-.03 0-.061.068-.061.154s-.024.153-.061.153c-.03 0-.06.08-.06.185 0 .123-.031.184-.092.184-.054 0-.091.055-.091.153 0 .087-.024.154-.061.154-.03 0-.06.055-.06.123s-.025.123-.061.123c-.031 0-.061.055-.061.123 0 .067-.024.123-.061.123-.03 0-.061.086-.061.19 0 .166-.115.363-.212.363-.098 0-.213-.197-.213-.363 0-.104-.025-.19-.061-.19-.03 0-.061-.055-.061-.123s-.024-.123-.061-.123c-.03 0-.061-.098-.061-.215 0-.117-.024-.215-.06-.215-.031 0-.061-.055-.061-.123s-.024-.123-.061-.123c-.03 0-.061-.098-.061-.215 0-.147-.03-.215-.091-.215s-.091-.062-.091-.184c0-.105-.025-.185-.061-.185-.03 0-.061-.055-.061-.123 0-.067-.024-.123-.061-.123-.03 0-.06-.123-.06-.276 0-.154-.025-.277-.061-.277-.031 0-.061-.067-.061-.153s-.024-.154-.061-.154c-.03 0-.061-.11-.061-.246 0-.178-.024-.246-.091-.246s-.091-.073-.091-.276c0-.154-.024-.277-.061-.277-.03 0-.061-.098-.061-.215 0-.116-.024-.215-.061-.215-.03 0-.06-.153-.06-.338 0-.184-.025-.338-.061-.338-.031 0-.061-.153-.061-.338 0-.184-.024-.338-.061-.338-.036 0-.061-.172-.061-.4 0-.313-.018-.399-.091-.399-.079 0-.091-.288-.091-2.212 0-1.923.012-2.212.091-2.212.073 0 .091-.086.091-.4 0-.227.025-.399.061-.399.037 0 .061-.123.061-.276 0-.154.03-.277.061-.277.036 0 .061-.123.061-.276 0-.154.03-.277.06-.277.037 0 .061-.086.061-.184 0-.105.031-.185.061-.185.037 0 .061-.098.061-.215 0-.147.03-.215.091-.215.049 0 .091-.055.091-.123 0-.067.031-.123.061-.123.037 0 .061-.055.061-.123 0-.067.03-.123.061-.123.036 0 .061-.067.061-.153s.03-.154.06-.154c.037 0 .061-.055.061-.123 0-.067.031-.122.061-.122.036 0 .061-.068.061-.154 0-.099.036-.154.091-.154.049 0 .091-.055.091-.123 0-.098-.042-.123-.213-.123-.115 0-.212-.03-.212-.061 0-.092-.487-.074-.584.025a.315.315 0 0 0-.085.184c0 .055-.025.098-.061.098-.031 0-.061.068-.061.154s-.024.154-.061.154c-.03 0-.061.055-.061.122 0 .068-.042.123-.091.123-.055 0-.091.056-.091.154 0 .086-.024.154-.061.154-.03 0-.061.055-.061.122 0 .068-.024.123-.06.123-.031 0-.061.099-.061.215 0 .117-.025.215-.061.215-.03 0-.061.08-.061.185 0 .098-.024.184-.061.184-.03 0-.06.099-.06.215 0 .117-.025.215-.061.215-.031 0-.061.111-.061.246 0 .178-.024.246-.091.246-.073 0-.092.086-.092.43 0 .246-.024.43-.06.43-.037 0-.061.215-.061.523 0 .307-.024.522-.061.522-.036 0-.061.51-.061 1.413 0 .904.025 1.414.061 1.414.037 0 .061.227.061.553 0 .325.024.553.061.553.036 0 .06.196.06.46 0 .37.019.462.092.462s.091.08.091.338c0 .184.03.337.061.337.036 0 .061.123.061.277 0 .154.03.277.06.277.037 0 .061.11.061.245 0 .136.031.246.061.246.036 0 .061.098.061.215 0 .117.03.215.061.215.036 0 .06.08.06.185 0 .098.031.184.061.184.037 0 .061.123.061.277 0 .202.024.276.091.276.055 0 .091.055.091.154 0 .086.031.153.061.153.037 0 .061.08.061.185 0 .098.03.184.061.184.036 0 .061.098.061.215 0 .117.03.215.06.215.037 0 .061.055.061.123s.031.123.061.123c.037 0 .061.098.061.215 0 .148.03.215.091.215.049 0 .091.055.091.123s-.042.123-.091.123c-.049 0-.091.055-.091.123 0 .067-.024.123-.061.123-.03 0-.061.061-.061.141a.326.326 0 0 1-.121.227c-.067.05-.122.136-.122.197 0 .062-.024.11-.061.11-.03 0-.061.068-.061.154s-.03.154-.066.154c-.098 0-.238.16-.238.27 0 .056-.024.099-.06.099-.031 0-.061.061-.061.141a.327.327 0 0 1-.122.227c-.067.05-.121.136-.121.197s-.025.11-.061.11c-.031 0-.061.068-.061.154 0 .148.012.154.456.154.261 0 .456.024.456.061s.505.062 1.399.062 1.398-.025 1.398-.062.213-.061.517-.061c.42 0 .517-.019.517-.092 0-.074.079-.092.335-.092.182 0 .334-.031.334-.062 0-.037.122-.061.274-.061.152 0 .273-.031.273-.062 0-.037.098-.061.213-.061.116 0 .213-.031.213-.062 0-.037.109-.061.243-.061s.243-.03.243-.062c0-.036.067-.061.152-.061.098 0 .152-.037.152-.092 0-.062.061-.092.183-.092.103 0 .182-.031.182-.062 0-.037.098-.061.213-.061.116 0 .213-.031.213-.062 0-.037.055-.061.122-.061.066 0 .121-.03.121-.062 0-.037.067-.061.152-.061.085 0 .152-.03.152-.062 0-.036.055-.061.122-.061s.121-.043.121-.092c0-.05.055-.092.122-.092s.122-.031.122-.062c0-.037.061-.061.14-.061a.322.322 0 0 0 .225-.123c.048-.068.133-.123.194-.123s.11-.03.11-.062c0-.036.054-.061.127-.061.134 0 .298-.135.298-.24 0-.037.049-.067.11-.067s.146-.055.194-.123c.049-.068.14-.123.201-.123.116 0 .407-.258.407-.369 0-.03.055-.061.122-.061s.122-.03.122-.062a.06.06 0 0 1 .06-.061c.067 0 .487-.4.487-.461 0-.05.164-.215.213-.215.061 0 .577-.547.577-.615 0-.03.031-.061.061-.061.085 0 .608-.528.608-.615 0-.03.043-.061.092-.061.048 0 .091-.043.091-.098 0-.056.085-.178.182-.27.104-.093.183-.222.183-.29 0-.06.054-.153.121-.202.067-.05.122-.135.122-.197 0-.061.03-.11.067-.11.103 0 .237-.166.237-.29 0-.06.055-.153.122-.202.066-.05.121-.135.121-.197 0-.061.031-.11.061-.11.037 0 .061-.068.061-.154 0-.098.036-.154.091-.154.049 0 .091-.055.091-.123 0-.067.031-.122.061-.122.037 0 .061-.068.061-.154s.03-.154.061-.154c.036 0 .06-.055.06-.123 0-.067.031-.123.061-.123.037 0 .061-.055.061-.122 0-.068.031-.123.061-.123.036 0 .061-.099.061-.215 0-.148.03-.215.091-.215.049 0 .091-.056.091-.123 0-.068.031-.123.061-.123.036 0 .061-.099.061-.215 0-.117.03-.215.061-.215.036 0 .06-.086.06-.185 0-.104.031-.184.061-.184.037 0 .061-.098.061-.215 0-.117.03-.215.061-.215.036 0 .061-.123.061-.277 0-.153.03-.276.06-.276.037 0 .061-.154.061-.338 0-.258.018-.338.091-.338s.092-.093.092-.461c0-.264.024-.461.06-.461.037 0 .061-.215.061-.522 0-.308.025-.523.061-.523.037 0 .061-.043.061-.092 0-.05-.024-.092-.061-.092-.036 0-.061-.234-.061-.584s.025-.584.061-.584c.037 0 .061-.043.061-.092s-.024-.092-.061-.092c-.036 0-.061-.233-.061-.584 0-.35-.024-.584-.061-.584-.036 0-.06-.172-.06-.399 0-.313-.019-.4-.092-.4s-.091-.08-.091-.337c0-.185-.024-.338-.061-.338-.03 0-.06-.099-.06-.215 0-.117-.025-.215-.061-.215-.031 0-.061-.123-.061-.277 0-.154-.024-.277-.061-.277-.03 0-.061-.086-.061-.184 0-.104-.024-.184-.06-.184-.031 0-.061-.099-.061-.215 0-.117-.025-.215-.061-.215-.03 0-.061-.087-.061-.185 0-.123-.03-.184-.091-.184-.055 0-.091-.056-.091-.154 0-.086-.025-.153-.061-.153-.03 0-.061-.056-.061-.123 0-.068-.024-.123-.061-.123-.03 0-.061-.055-.061-.123s-.024-.123-.06-.123c-.031 0-.061-.068-.061-.154s-.024-.153-.061-.153c-.03 0-.061-.056-.061-.123 0-.068-.042-.123-.091-.123-.055 0-.091-.055-.091-.154 0-.086-.024-.153-.061-.153-.03 0-.061-.05-.061-.11 0-.062-.055-.148-.121-.198-.067-.049-.122-.135-.122-.196 0-.062-.024-.11-.061-.11-.03 0-.061-.044-.061-.093a.094.094 0 0 0-.091-.092c-.049 0-.091-.05-.091-.11 0-.062-.055-.148-.122-.197-.067-.05-.121-.142-.121-.203 0-.068-.079-.197-.183-.289-.097-.092-.182-.215-.182-.27 0-.056-.043-.099-.091-.099-.049 0-.092-.03-.092-.061 0-.068-.516-.615-.577-.615-.049 0-.213-.166-.213-.215 0-.049-.408-.46-.456-.46-.049 0-.213-.167-.213-.216 0-.08-.426-.46-.517-.46-.097 0-.274-.142-.274-.216 0-.086-.304-.338-.407-.338-.061 0-.152-.055-.201-.123-.048-.067-.121-.123-.17-.123-.097 0-.255-.147-.255-.24 0-.036-.067-.067-.152-.067-.085 0-.152-.03-.152-.061 0-.037-.049-.062-.11-.062s-.146-.055-.194-.123a.322.322 0 0 0-.225-.122c-.079 0-.14-.031-.14-.062 0-.037-.055-.061-.122-.061s-.122-.043-.122-.092c0-.05-.054-.093-.121-.093s-.122-.03-.122-.061c0-.037-.067-.062-.152-.062-.085 0-.152-.03-.152-.061 0-.037-.055-.061-.121-.061-.067 0-.122-.031-.122-.062 0-.037-.097-.061-.213-.061-.115 0-.213-.031-.213-.062 0-.037-.079-.061-.182-.061-.122 0-.183-.031-.183-.093 0-.055-.054-.092-.152-.092-.085 0-.152-.03-.152-.061 0-.037-.109-.062-.243-.062s-.243-.03-.243-.061c0-.037-.097-.062-.213-.062-.115 0-.213-.03-.213-.06 0-.038-.121-.062-.273-.062-.152 0-.274-.031-.274-.062 0-.037-.17-.061-.395-.061s-.396-.025-.396-.062-.17-.061-.395-.061c-.31 0-.395-.019-.395-.092 0-.08-.207-.092-1.52-.092-1.314 0-1.521.012-1.521.092Z" fill="#000"/><path d="M212.317 50.03c0 .054-.055.091-.128.091-.146 0-.298.136-.298.27 0 .056-.024.1-.061.1-.03 0-.06.085-.06.184 0 .135.06.251.212.399.28.289.572.295.821.03.092-.104.201-.184.237-.184.037 0 .067-.098.067-.215 0-.147-.03-.215-.091-.215-.049 0-.091-.043-.091-.098 0-.123-.146-.27-.268-.27a.096.096 0 0 1-.097-.093c0-.049-.055-.092-.122-.092-.066 0-.121.043-.121.092ZM41.746 50.556c0 .037-.17.061-.395.061-.31 0-.395.019-.395.092 0 .068-.073.092-.274.092-.152 0-.274.025-.274.062 0 .03-.121.061-.273.061-.152 0-.274.025-.274.062 0 .03-.079.061-.182.061-.098 0-.183.025-.183.062 0 .03-.067.061-.152.061-.085 0-.152.025-.152.062 0 .03-.079.061-.182.061-.097 0-.183.025-.183.062 0 .03-.067.061-.152.061-.097 0-.152.037-.152.092 0 .05-.055.092-.121.092-.067 0-.122.025-.122.062 0 .03-.055.061-.122.061-.066 0-.121.025-.121.062 0 .03-.067.061-.152.061-.085 0-.152.025-.152.062 0 .03-.043.061-.098.061-.109 0-.267.141-.267.24 0 .037-.06.067-.14.067a.322.322 0 0 0-.225.123c-.049.068-.134.123-.195.123-.06 0-.109.025-.109.062 0 .03-.03.061-.067.061-.067 0-.237.154-.237.215 0 .074-.304.338-.395.338-.049 0-.092.025-.092.062 0 .03-.03.06-.06.06-.08 0-.365.277-.365.351 0 .03-.055.092-.122.142-.067.049-.121.135-.121.196 0 .062-.03.11-.067.11-.073 0-.238.154-.238.228 0 .03-.054.092-.121.142-.067.049-.122.122-.122.172 0 .098-.146.258-.237.258-.036 0-.067.061-.067.141a.327.327 0 0 1-.121.227c-.067.05-.122.136-.122.197s-.024.11-.06.11c-.031 0-.062.068-.062.154s-.024.154-.06.154c-.03 0-.061.055-.061.123 0 .067-.025.123-.061.123-.03 0-.06.055-.06.123 0 .067-.043.123-.092.123-.055 0-.091.055-.091.153 0 .086-.025.154-.061.154-.03 0-.06.055-.06.123 0 .067-.025.123-.062.123-.03 0-.06.098-.06.215 0 .116-.025.215-.061.215-.03 0-.061.08-.061.184 0 .098-.024.184-.061.184-.03 0-.06.123-.06.277 0 .203-.025.276-.092.276-.073 0-.091.08-.091.338 0 .185-.025.338-.061.338-.037 0-.06.173-.06.4 0 .227-.025.4-.062.4-.036 0-.06.399-.06 1.075 0 .676.024 1.075.06 1.075.037 0 .061.172.061.4 0 .227.024.399.061.399.036 0 .06.172.06.4 0 .313.019.399.092.399.06 0 .091.067.091.215 0 .117.03.215.061.215.037 0 .06.08.06.184 0 .099.031.185.062.185.036 0 .06.098.06.215 0 .117.03.215.061.215.037 0 .061.098.061.215 0 .117.03.215.06.215.037 0 .062.055.062.123 0 .067.042.123.09.123.05 0 .092.055.092.123 0 .067.03.123.06.123.037 0 .062.067.062.153s.03.154.06.154c.037 0 .061.049.061.11 0 .062.055.148.122.197.067.05.122.141.122.203 0 .123.133.289.237.289.036 0 .067.049.067.11 0 .062.054.148.121.197.067.05.122.123.122.166 0 .043.03.08.06.08.037 0 .061.043.061.098 0 .092.14.27.213.27.049 0 .213.166.213.215 0 .05.408.461.456.461.049 0 .213.166.213.215 0 .074.304.338.395.338.049 0 .092.025.092.062 0 .03.036.061.079.061.042 0 .115.056.164.123.048.068.134.123.194.123.061 0 .11.03.11.068 0 .104.164.24.286.24.06 0 .152.055.2.122.049.068.134.123.195.123.06 0 .11.025.11.062 0 .03.066.061.151.061.098 0 .152.037.152.092 0 .05.055.093.122.093s.122.024.122.06c0 .032.054.062.121.062s.122.025.122.062c0 .03.097.061.213.061.115 0 .213.025.213.062 0 .03.054.061.121.061s.122.025.122.062c0 .03.121.061.273.061.201 0 .274.025.274.092 0 .068.073.092.274.092.152 0 .273.025.273.062 0 .03.122.061.274.061.152 0 .274.025.274.062s.23.061.577.061.578.025.578.062.316.061.821.061c.505 0 .82-.025.82-.061 0-.037.232-.062.579-.062.346 0 .577-.024.577-.061s.122-.062.274-.062c.152 0 .274-.03.274-.061 0-.037.121-.062.273-.062.2 0 .274-.024.274-.092 0-.061.06-.092.182-.092.104 0 .183-.03.183-.061 0-.037.067-.062.152-.062.085 0 .152-.03.152-.061 0-.037.085-.062.182-.062.104 0 .183-.03.183-.061 0-.037.066-.062.152-.062.085 0 .152-.03.152-.061 0-.037.054-.061.121-.061s.122-.044.122-.093.055-.092.121-.092c.067 0 .122-.03.122-.061 0-.037.06-.062.14-.062a.322.322 0 0 0 .225-.123c.049-.067.134-.123.195-.123.06 0 .109-.03.109-.061 0-.037.067-.061.152-.061.085 0 .152-.031.152-.062 0-.104.286-.369.395-.369.049 0 .092-.03.092-.061 0-.037.03-.062.06-.062.067 0 .365-.276.365-.338 0-.049.286-.337.335-.337.048 0 .334-.29.334-.339 0-.06.298-.338.365-.338.03 0 .06-.055.06-.122 0-.068.031-.123.062-.123.036 0 .06-.037.06-.08 0-.043.055-.117.122-.166.067-.05.122-.13.122-.184 0-.056.054-.136.121-.185a.327.327 0 0 0 .122-.227c0-.086.036-.141.091-.141.049 0 .091-.056.091-.123 0-.068.03-.123.061-.123.037 0 .061-.056.061-.123 0-.068.03-.123.06-.123.037 0 .062-.068.062-.154s.03-.153.06-.153c.037 0 .061-.056.061-.123 0-.068.03-.123.061-.123.036 0 .06-.068.06-.154 0-.098.037-.153.092-.153.06 0 .091-.062.091-.185 0-.104.03-.184.061-.184.037 0 .06-.098.06-.215 0-.117.031-.215.062-.215.036 0 .06-.086.06-.185v-.184h-5.418l-.146.154c-.085.08-.152.19-.152.245 0 .05-.024.093-.06.093-.03 0-.061.03-.061.067 0 .068-.152.24-.213.24-.049 0-.456.412-.456.46 0 .056-.164.216-.225.216-.03 0-.091.055-.14.123-.049.067-.134.123-.195.123-.06 0-.11.024-.11.061 0 .03-.066.062-.151.062-.097 0-.152.036-.152.092 0 .049-.055.092-.122.092s-.121.025-.121.061c0 .031-.08.062-.183.062-.097 0-.182.024-.182.061 0 .031-.097.062-.213.062-.116 0-.213.024-.213.061s-.395.062-1.064.062-1.064-.025-1.064-.062-.122-.061-.274-.061c-.152 0-.273-.031-.273-.062 0-.037-.08-.061-.183-.061-.097 0-.182-.03-.182-.062 0-.037-.067-.061-.152-.061-.086 0-.152-.03-.152-.068 0-.092-.159-.24-.256-.24-.048 0-.121-.055-.17-.122-.049-.068-.14-.123-.2-.123-.11 0-.287-.135-.287-.215 0-.05-.285-.338-.334-.338-.06 0-.334-.301-.334-.369a.061.061 0 0 0-.061-.061c-.03 0-.061-.043-.061-.099 0-.11-.14-.27-.237-.27-.037 0-.067-.055-.067-.123s-.024-.123-.06-.123c-.031 0-.062-.068-.062-.154 0-.085-.024-.153-.06-.153-.03 0-.061-.055-.061-.123s-.025-.123-.061-.123c-.03 0-.061-.067-.061-.154 0-.086-.024-.153-.06-.153-.031 0-.062-.11-.062-.246 0-.135-.024-.246-.06-.246-.03 0-.061-.153-.061-.338 0-.258-.018-.338-.091-.338-.08 0-.092-.135-.092-.83 0-.694.013-.829.092-.829.073 0 .09-.086.09-.4 0-.227.025-.399.062-.399.036 0 .06-.086.06-.184 0-.105.03-.184.061-.184.037 0 .061-.068.061-.154s.03-.154.06-.154c.037 0 .062-.08.062-.172 0-.098.048-.209.121-.258a.327.327 0 0 0 .122-.227c0-.086.036-.142.091-.142.049 0 .091-.043.091-.098 0-.055.086-.178.183-.27.103-.093.182-.19.182-.215 0-.05.158-.215.213-.215.049 0 .456-.412.456-.461 0-.08.176-.215.286-.215.06 0 .152-.056.2-.123.05-.068.134-.123.195-.123s.11-.03.11-.062c0-.037.066-.061.152-.061.097 0 .152-.037.152-.092 0-.05.054-.093.121-.093s.122-.03.122-.06c0-.038.122-.062.273-.062.153 0 .274-.031.274-.062 0-.037.152-.061.335-.061.182 0 .334-.031.334-.062 0-.037.213-.061.517-.061.304 0 .517.024.517.061 0 .031.152.062.334.062.183 0 .335.024.335.061 0 .03.097.062.213.062.115 0 .212.024.212.061 0 .03.086.062.183.062.121 0 .182.03.182.092 0 .055.055.092.14.092.073 0 .176.055.225.123.049.067.128.123.183.123.054 0 .133.055.182.123a.322.322 0 0 0 .225.123c.079 0 .14.03.14.06 0 .069.395.492.456.492.079 0 .213.179.213.29 0 .06.055.153.121.202.067.05.122.13.122.184 0 .056.055.136.122.185.066.049.121.154.121.227v.142H52.631v-.215c0-.117-.024-.216-.06-.216-.031 0-.061-.086-.061-.184 0-.104-.025-.184-.061-.184-.03 0-.061-.099-.061-.215 0-.117-.024-.215-.06-.215-.031 0-.062-.087-.062-.185 0-.123-.03-.184-.091-.184-.055 0-.091-.056-.091-.154 0-.086-.025-.153-.061-.153-.03 0-.06-.056-.06-.123 0-.068-.025-.123-.062-.123-.03 0-.06-.068-.06-.154s-.025-.154-.061-.154c-.03 0-.061-.055-.061-.122 0-.068-.024-.123-.06-.123-.031 0-.062-.056-.062-.123 0-.068-.042-.123-.09-.123-.056 0-.092-.055-.092-.141a.327.327 0 0 0-.122-.228c-.067-.049-.121-.129-.121-.184 0-.055-.055-.135-.122-.184-.067-.05-.122-.123-.122-.166 0-.043-.024-.08-.06-.08-.03 0-.061-.056-.061-.123 0-.068-.03-.123-.061-.123-.067 0-.365-.277-.365-.338 0-.05-.286-.338-.334-.338-.049 0-.456-.418-.456-.46 0-.08-.177-.216-.274-.216-.055 0-.182-.086-.274-.184-.09-.105-.212-.185-.267-.185a.095.095 0 0 1-.098-.092.094.094 0 0 0-.09-.092c-.05 0-.092-.03-.092-.061 0-.037-.049-.062-.11-.062-.06 0-.145-.055-.194-.123a.322.322 0 0 0-.225-.123c-.08 0-.14-.03-.14-.061 0-.037-.055-.062-.121-.062-.067 0-.122-.043-.122-.092s-.055-.092-.122-.092-.121-.03-.121-.061c0-.037-.098-.062-.213-.062-.116 0-.213-.03-.213-.061 0-.037-.055-.062-.122-.062-.066 0-.121-.03-.121-.061 0-.037-.097-.062-.213-.062-.116 0-.213-.03-.213-.061 0-.037-.122-.062-.274-.062-.152 0-.273-.03-.273-.061 0-.037-.11-.062-.243-.062-.177 0-.244-.024-.244-.092 0-.074-.097-.092-.486-.092-.286 0-.487-.024-.487-.061s-.456-.062-1.246-.062-1.247.025-1.247.062ZM62.91 50.556c0 .037-.17.061-.395.061-.31 0-.395.019-.395.092 0 .062-.067.092-.213.092-.116 0-.213.025-.213.062 0 .03-.122.061-.274.061-.152 0-.273.025-.273.062 0 .03-.08.061-.183.061-.097 0-.182.025-.182.062 0 .03-.067.061-.152.061-.085 0-.152.025-.152.062 0 .03-.055.061-.122.061s-.121.025-.121.062c0 .03-.055.061-.122.061s-.122.043-.122.092c0 .055-.054.092-.152.092-.085 0-.152.025-.152.062 0 .03-.054.061-.121.061s-.122.025-.122.062c0 .03-.055.061-.122.061-.133 0-.425.252-.425.369 0 .03-.055.061-.122.061s-.121.025-.121.062c0 .03-.037.061-.08.061-.042 0-.115.056-.164.123-.048.068-.121.123-.17.123-.097 0-.255.147-.255.24 0 .037-.03.067-.061.067-.116 0-.73.67-.73.8 0 .067-.03.122-.06.122-.104 0-.366.289-.366.4 0 .11-.261.399-.364.399-.03 0-.061.055-.061.123 0 .067-.025.123-.061.123-.03 0-.06.067-.06.153s-.025.154-.062.154c-.03 0-.06.055-.06.123 0 .067-.025.123-.061.123-.03 0-.061.055-.061.123 0 .067-.024.123-.06.123-.031 0-.062.067-.062.153 0 .098-.036.154-.09.154-.05 0-.092.055-.092.123 0 .067-.024.123-.06.123-.031 0-.062.067-.062.153s-.024.154-.06.154c-.031 0-.061.08-.061.184 0 .099-.025.184-.061.184-.03 0-.061.099-.061.216 0 .116-.024.215-.06.215-.031 0-.062.11-.062.245 0 .136-.024.246-.06.246-.03 0-.061.123-.061.277 0 .203-.025.276-.091.276-.073 0-.092.086-.092.4 0 .227-.024.4-.06.4-.037 0-.061.565-.061 1.566 0 1.002.024 1.567.06 1.567.037 0 .061.197.061.461 0 .369.019.461.092.461.066 0 .09.074.09.276 0 .154.031.277.062.277.036 0 .06.08.06.184 0 .099.03.185.061.185.037 0 .061.123.061.276 0 .154.03.277.06.277.037 0 .062.098.062.215 0 .117.03.215.06.215.037 0 .061.055.061.123 0 .067.03.123.061.123.037 0 .06.055.06.123 0 .067.043.123.092.123.055 0 .091.055.091.153 0 .086.03.154.061.154.037 0 .06.055.06.123 0 .067.031.123.062.123.036 0 .06.067.06.153s.03.154.061.154c.037 0 .061.043.061.098 0 .11.14.27.237.27.037 0 .067.056.067.124 0 .067.03.122.061.122.037 0 .06.037.06.08 0 .043.056.117.122.166.067.05.122.123.122.172 0 .099.146.258.237.258.037 0 .067.031.067.068 0 .037.14.197.304.362.17.166.304.326.304.363 0 .037.03.068.067.068.037 0 .195.135.359.307.164.172.353.307.42.307.072 0 .127.03.127.062 0 .116.292.368.426.368.067 0 .121.025.121.062 0 .03.043.061.098.061.11 0 .267.142.267.24 0 .037.067.068.152.068.086 0 .152.024.152.06 0 .032.055.062.122.062s.122.025.122.062c0 .03.085.061.182.061.103 0 .182.025.182.062 0 .03.067.061.153.061.085 0 .151.025.151.062 0 .03.086.061.183.061.122 0 .182.03.182.092s.067.092.213.092c.116 0 .213.025.213.062 0 .03.122.061.274.061.152 0 .273.025.273.062s.231.061.578.061.578.025.578.062.285.061.73.061c.443 0 .73-.025.73-.061 0-.037.2-.062.486-.062.285 0 .486-.024.486-.061s.122-.062.274-.062c.152 0 .273-.03.273-.061 0-.037.085-.062.183-.062.121 0 .182-.03.182-.092 0-.049.055-.092.122-.092s.121-.03.121-.061c0-.037.092-.062.201-.062.128 0 .231-.043.286-.123a.322.322 0 0 1 .225-.123c.079 0 .14-.03.14-.061 0-.037.055-.061.121-.061.067 0 .122-.031.122-.062 0-.104.286-.369.395-.369.091 0 .395-.258.395-.338 0-.018.067-.104.153-.184.115-.123.206-.154.456-.154.261 0 .304.019.304.123 0 .068.042.123.09.123.062 0 .092.068.092.215 0 .117.03.215.06.215.037 0 .062.123.062.277 0 .154.03.276.06.276.037 0 .061.08.061.185 0 .098.03.184.061.184.037 0 .061.068.061.154v.153h4.013V60.88c0-6.68-.018-10.078-.06-10.078-.03 0-.061-.043-.061-.092 0-.08-.316-.092-2.463-.092h-2.463v.953c0 .915-.006.952-.121.952-.116 0-.426-.246-.426-.338 0-.061-.298-.338-.365-.338-.03 0-.06-.03-.06-.061 0-.037-.043-.062-.098-.062-.11 0-.268-.141-.268-.24 0-.036-.066-.067-.152-.067-.085 0-.152-.03-.152-.061 0-.037-.054-.062-.121-.062s-.122-.03-.122-.061c0-.037-.055-.062-.121-.062-.067 0-.122-.03-.122-.061 0-.037-.067-.062-.152-.062-.085 0-.152-.03-.152-.061 0-.037-.08-.062-.183-.062-.097 0-.182-.03-.182-.061 0-.037-.122-.062-.274-.062-.2 0-.273-.024-.273-.092 0-.074-.085-.092-.396-.092-.225 0-.395-.024-.395-.061s-.413-.062-1.125-.062c-.711 0-1.125.025-1.125.062Zm2.797 4.977c0 .03.11.062.244.062s.243.024.243.061c0 .03.097.062.213.062.146 0 .213.03.213.092 0 .049.054.092.121.092s.122.024.122.061c0 .031.06.062.14.062.073 0 .176.055.225.123.048.067.121.123.17.123.097 0 .255.147.255.24 0 .036.03.067.061.067.103 0 .487.418.487.522 0 .117.14.277.237.277.036 0 .067.055.067.123 0 .067.03.123.06.123.037 0 .061.055.061.122 0 .068.03.123.061.123.037 0 .06.068.06.154s.031.154.062.154c.036 0 .06.08.06.184 0 .098.031.184.061.184.037 0 .061.099.061.215 0 .117.03.215.061.215.036 0 .06.173.06.4 0 .313.019.4.092.4.08 0 .091.159.091 1.075 0 .915-.012 1.075-.091 1.075-.073 0-.091.086-.091.4 0 .227-.025.399-.061.399-.03 0-.06.098-.06.215 0 .117-.025.215-.062.215-.03 0-.06.08-.06.184 0 .099-.025.185-.061.185-.03 0-.061.067-.061.153s-.024.154-.06.154c-.031 0-.062.043-.062.098 0 .111-.14.27-.237.27-.036 0-.067.056-.067.124 0 .129-.492.676-.608.676-.03 0-.06.03-.06.061 0 .117-.42.492-.548.492-.067 0-.122.024-.122.061 0 .03-.054.062-.121.062s-.122.043-.122.092-.055.092-.121.092c-.067 0-.122.025-.122.061 0 .031-.097.062-.213.062-.115 0-.213.024-.213.061 0 .031-.121.062-.273.062-.152 0-.274.024-.274.061s-.255.062-.639.062c-.383 0-.638-.025-.638-.062s-.152-.061-.334-.061c-.183 0-.335-.031-.335-.062 0-.037-.097-.061-.213-.061-.115 0-.213-.03-.213-.062 0-.037-.054-.061-.121-.061s-.122-.043-.122-.092c0-.062-.06-.092-.2-.092-.128 0-.232-.044-.286-.123-.049-.068-.134-.123-.195-.123-.06 0-.11-.031-.11-.062 0-.037-.03-.061-.066-.061-.085 0-.237-.154-.237-.24 0-.037-.049-.067-.11-.067-.06 0-.146-.056-.194-.123-.05-.068-.11-.123-.14-.123-.085 0-.225-.172-.225-.277 0-.055-.08-.184-.183-.276-.097-.092-.182-.215-.182-.27 0-.056-.043-.099-.091-.099-.055 0-.092-.055-.092-.154 0-.086-.024-.153-.06-.153-.03 0-.061-.055-.061-.123s-.025-.123-.061-.123c-.03 0-.06-.055-.06-.123 0-.067-.025-.123-.062-.123-.03 0-.06-.123-.06-.276 0-.154-.025-.277-.061-.277-.03 0-.061-.153-.061-.338 0-.184-.024-.338-.06-.338-.037 0-.062-.38-.062-1.014 0-.633.025-1.014.061-1.014.037 0 .061-.153.061-.338 0-.184.03-.338.06-.338.037 0 .062-.086.062-.184 0-.104.03-.184.06-.184.037 0 .061-.068.061-.154s.03-.154.061-.154c.036 0 .06-.055.06-.123 0-.067.031-.122.062-.122.036 0 .06-.068.06-.154 0-.098.037-.154.092-.154.048 0 .09-.049.09-.11 0-.062.056-.148.123-.197.066-.05.121-.135.121-.197 0-.061.03-.11.06-.11.037 0 .062-.03.062-.068 0-.074.152-.24.213-.24.024 0 .121-.085.212-.184.092-.104.213-.184.268-.184a.095.095 0 0 0 .097-.092c0-.05.037-.092.08-.092.042 0 .115-.056.163-.123.05-.068.134-.123.195-.123.06 0 .11-.031.11-.062 0-.037.054-.061.121-.061s.122-.03.122-.062c0-.037.067-.061.152-.061.097 0 .152-.037.152-.092 0-.062.06-.093.182-.093.104 0 .183-.03.183-.06 0-.038.152-.062.334-.062.183 0 .335-.031.335-.062 0-.037.316-.061.82-.061.505 0 .821.024.821.061ZM113.442 50.553c0 .036-.17.06-.395.06-.31 0-.395.02-.395.093 0 .062-.067.092-.213.092-.116 0-.213.025-.213.062 0 .03-.079.061-.183.061-.097 0-.182.025-.182.062 0 .03-.097.061-.213.061-.115 0-.213.025-.213.062 0 .03-.054.061-.121.061s-.122.025-.122.061c0 .031-.067.062-.152.062-.085 0-.152.025-.152.061 0 .031-.055.062-.122.062-.066 0-.121.043-.121.092 0 .05-.055.092-.122.092s-.121.025-.121.062c0 .03-.061.061-.14.061a.32.32 0 0 0-.225.123c-.049.067-.122.123-.171.123-.097 0-.255.147-.255.24 0 .036-.042.067-.091.067-.049 0-.091.025-.091.061 0 .031-.043.062-.098.062-.054 0-.176.08-.267.184-.091.099-.201.185-.237.185-.037 0-.067.03-.067.061 0 .068-.517.615-.578.615-.055 0-.213.166-.213.227 0 .03-.054.092-.121.141-.067.05-.122.13-.122.185 0 .055-.055.135-.122.184a.326.326 0 0 0-.121.227c0 .08-.031.142-.067.142-.097 0-.237.16-.237.27 0 .056-.025.099-.061.099-.031 0-.061.043-.061.092s-.024.092-.061.092c-.03 0-.061.055-.061.123 0 .067-.024.123-.06.123-.031 0-.061.055-.061.123 0 .067-.043.122-.091.122-.055 0-.092.056-.092.154 0 .086-.024.154-.06.154-.031 0-.061.055-.061.123 0 .067-.025.123-.061.123-.03 0-.061.098-.061.215 0 .116-.024.215-.061.215-.03 0-.06.055-.06.123 0 .067-.025.123-.061.123-.031 0-.061.098-.061.215 0 .147-.03.215-.091.215-.067 0-.091.067-.091.245 0 .136-.025.246-.061.246-.031 0-.061.123-.061.277 0 .153-.024.276-.061.276-.036 0-.061.197-.061.461s-.024.461-.061.461c-.036 0-.06.565-.06 1.567s.024 1.567.06 1.567c.037 0 .061.197.061.46 0 .265.025.462.061.462.037 0 .061.123.061.276 0 .154.03.277.061.277.036 0 .061.11.061.246 0 .178.024.245.091.245.061 0 .091.068.091.216 0 .116.03.215.061.215.036 0 .061.055.061.123 0 .067.03.122.06.122.037 0 .061.099.061.216 0 .116.031.215.061.215.036 0 .061.055.061.122 0 .068.03.123.061.123.036 0 .06.068.06.154 0 .098.037.154.092.154.048 0 .091.055.091.123 0 .067.03.122.061.122.036 0 .06.062.06.142 0 .073.055.178.122.227.067.05.122.135.122.197 0 .061.03.11.061.11.036 0 .06.056.06.123 0 .068.043.123.092.123.048 0 .091.037.091.08 0 .043.054.117.121.166.067.05.122.129.122.184 0 .056.055.136.122.185.067.049.121.11.121.141 0 .061.158.227.213.227.049 0 .456.412.456.461 0 .056.164.215.213.215.024 0 .122.08.213.185.091.098.213.184.267.184.055 0 .098.025.098.062 0 .03.042.061.091.061.049 0 .091.03.091.068 0 .092.158.24.255.24.049 0 .122.055.171.122a.32.32 0 0 0 .225.123c.079 0 .14.025.14.061 0 .031.054.062.121.062s.122.043.122.092c0 .05.055.092.121.092.067 0 .122.025.122.062 0 .03.067.061.152.061.085 0 .152.025.152.062 0 .03.055.061.122.061s.121.025.121.062c0 .03.098.061.213.061.116 0 .213.025.213.061 0 .031.085.062.182.062.122 0 .183.03.183.092 0 .068.073.092.274.092.152 0 .273.025.273.062 0 .03.122.061.274.061.152 0 .273.025.273.062 0 .036.548.061 1.521.061.973 0 1.52-.025 1.52-.061 0-.037.122-.062.274-.062.152 0 .273-.03.273-.061 0-.037.122-.062.274-.062.201 0 .274-.024.274-.092 0-.05.054-.092.121-.092s.122-.03.122-.062c0-.036.097-.061.213-.061.115 0 .212-.03.212-.061 0-.037.055-.062.122-.062s.122-.03.122-.061c0-.037.054-.062.121-.062s.122-.03.122-.061c0-.037.042-.062.091-.062a.094.094 0 0 0 .091-.092c0-.05.043-.092.098-.092.054 0 .176-.086.267-.184.091-.105.219-.185.274-.185.097 0 .273-.135.273-.215 0-.043.286-.338.335-.338.018 0 .03.357.03.799 0 .492-.024.799-.06.799-.031 0-.061.153-.061.338 0 .184-.025.338-.061.338-.03 0-.061.098-.061.215 0 .117-.024.215-.061.215-.03 0-.061.08-.061.184 0 .099-.024.185-.06.185-.031 0-.061.067-.061.153 0 .099-.037.154-.091.154-.049 0-.092.05-.092.11 0 .062-.054.148-.121.197-.067.05-.122.11-.122.142 0 .061-.407.473-.468.473-.03 0-.091.055-.14.123-.049.067-.134.123-.194.123-.061 0-.11.03-.11.067 0 .105-.164.24-.298.24-.073 0-.128.024-.128.061 0 .031-.079.062-.182.062-.097 0-.182.024-.182.061 0 .03-.098.062-.213.062-.116 0-.213.024-.213.061 0 .03-.152.061-.335.061-.255 0-.334.019-.334.093 0 .08-.158.092-1.064.092s-1.064-.012-1.064-.092c0-.074-.079-.093-.335-.093-.182 0-.334-.03-.334-.061 0-.037-.122-.061-.274-.061-.152 0-.274-.031-.274-.062 0-.037-.054-.061-.121-.061s-.122-.031-.122-.062c0-.037-.055-.061-.121-.061-.067 0-.122-.03-.122-.062 0-.037-.067-.061-.152-.061-.097 0-.152-.037-.152-.092a.096.096 0 0 0-.097-.092c-.055 0-.177-.087-.268-.185-.091-.104-.213-.184-.268-.184-.133 0-.401-.27-.401-.4 0-.098-.14-.276-.213-.276-.085 0-.213-.184-.213-.301 0-.074-.024-.13-.06-.13-.031 0-.061-.042-.061-.098 0-.264-.049-.27-2.609-.27h-2.438v.522c0 .308.024.523.06.523.037 0 .061.123.061.276 0 .154.031.277.061.277.037 0 .061.098.061.215 0 .117.03.215.061.215.036 0 .061.055.061.123 0 .067.042.123.091.123.048 0 .091.055.091.123 0 .067.03.122.061.122.036 0 .061.068.061.154s.03.154.06.154c.037 0 .061.049.061.11 0 .062.055.148.122.197.067.05.121.154.121.227 0 .08.031.142.061.142.104 0 .365.288.365.4 0 .048.03.091.061.091.036 0 .061.031.061.068 0 .067.152.24.213.24.042 0 .456.411.456.46 0 .08.304.338.395.338.109 0 .395.265.395.37 0 .03.055.06.128.06.073 0 .207.08.298.185.091.098.213.184.267.184.055 0 .098.025.098.062 0 .03.067.061.152.061.085 0 .152.025.152.062 0 .03.054.061.121.061s.122.043.122.092c0 .05.055.092.122.092.066 0 .121.025.121.062 0 .03.067.061.152.061.085 0 .152.025.152.062 0 .03.055.061.122.061s.121.025.121.062c0 .03.098.061.213.061.116 0 .213.025.213.062 0 .03.085.061.183.061.121 0 .182.03.182.092s.067.092.213.092c.115 0 .213.025.213.062 0 .03.121.061.273.061.152 0 .274.025.274.062s.17.061.395.061.395.025.395.062.171.061.396.061.395.025.395.062c0 .036.486.061 1.338.061.851 0 1.338-.025 1.338-.061 0-.037.17-.062.395-.062s.395-.024.395-.061.152-.062.335-.062c.182 0 .334-.03.334-.061 0-.037.122-.062.274-.062.152 0 .273-.03.273-.061 0-.037.085-.062.183-.062.121 0 .182-.03.182-.092 0-.061.067-.092.213-.092.116 0 .213-.03.213-.061 0-.037.085-.062.182-.062.104 0 .183-.03.183-.061 0-.037.067-.062.152-.062.085 0 .152-.03.152-.061 0-.037.054-.062.121-.062s.122-.03.122-.061c0-.037.055-.062.122-.062s.121-.043.121-.092.043-.092.091-.092c.049 0 .092-.03.092-.061 0-.037.042-.062.097-.062s.176-.086.268-.184c.091-.105.218-.184.273-.184.097 0 .274-.136.274-.216 0-.049.407-.46.456-.46.049 0 .213-.166.213-.216 0-.061.419-.46.486-.46.031 0 .061-.056.061-.13 0-.073.085-.208.182-.3.104-.093.183-.21.183-.259 0-.043.055-.123.121-.172a.327.327 0 0 0 .122-.227c0-.086.037-.141.091-.141.049 0 .092-.056.092-.123 0-.068.03-.123.06-.123.037 0 .061-.068.061-.154s.031-.154.061-.154c.036 0 .061-.055.061-.122 0-.068.03-.123.061-.123.036 0 .06-.099.06-.215 0-.117.031-.215.061-.215.037 0 .061-.087.061-.185 0-.123.03-.184.091-.184.049 0 .091-.055.091-.123s.031-.123.061-.123c.037 0 .061-.123.061-.276 0-.154.03-.277.061-.277.036 0 .061-.123.061-.277 0-.153.03-.276.06-.276.037 0 .061-.172.061-.4 0-.227.025-.399.061-.399.037 0 .061-.307.061-.799 0-.67.012-.799.091-.799a.094.094 0 0 0 .091-.092.094.094 0 0 0-.091-.092c-.079 0-.091-1.063-.091-9.187 0-8.124.012-9.187.091-9.187.049 0 .091-.03.091-.061 0-.037-.042-.062-.091-.062a.094.094 0 0 1-.091-.092c0-.08-.255-.092-1.916-.092h-1.915v.154c0 .086-.024.153-.061.153-.03 0-.061.11-.061.246 0 .135-.024.246-.061.246-.03 0-.06.098-.06.215 0 .147-.031.215-.092.215-.06 0-.091.067-.091.215 0 .117-.024.215-.061.215-.03 0-.06.08-.06.184 0 .179-.013.185-.274.185-.152 0-.274-.03-.274-.062 0-.036-.042-.061-.091-.061-.109 0-.395-.264-.395-.369 0-.03-.031-.061-.067-.061-.037 0-.146-.086-.237-.185-.091-.104-.201-.184-.243-.184-.086 0-.244-.154-.244-.24 0-.036-.06-.067-.14-.067a.324.324 0 0 1-.225-.123c-.048-.068-.133-.123-.194-.123s-.11-.03-.11-.062c0-.036-.097-.06-.212-.06-.116 0-.213-.032-.213-.062 0-.037-.055-.062-.122-.062s-.121-.03-.121-.061c0-.037-.098-.062-.213-.062-.146 0-.213-.03-.213-.092 0-.074-.079-.092-.335-.092-.182 0-.334-.03-.334-.061 0-.037-.529-.062-1.459-.062-.931 0-1.46.025-1.46.062Zm2.372 4.854c0 .037.2.062.486.062s.487.024.487.061c0 .03.085.061.182.061.103 0 .182.025.182.062 0 .03.098.061.213.061.146 0 .213.031.213.093 0 .049.049.092.11.092.06 0 .146.055.194.123.049.067.14.123.201.123.103 0 .407.251.407.337 0 .05.164.216.213.216.085 0 .335.307.335.411 0 .062.054.154.121.203.067.05.122.135.122.197 0 .061.03.11.061.11.036 0 .06.056.06.123 0 .068.043.123.092.123.054 0 .091.055.091.154 0 .086.03.153.061.153.036 0 .06.08.06.185 0 .098.031.184.061.184.037 0 .061.098.061.215 0 .117.031.215.061.215.036 0 .061.172.061.4 0 .227.024.4.061.4.036 0 .06.38.06 1.013 0 .633-.024 1.014-.06 1.014-.037 0-.061.172-.061.4 0 .227-.025.399-.061.399-.03 0-.061.098-.061.215 0 .117-.024.215-.061.215-.03 0-.061.08-.061.184 0 .099-.024.185-.06.185-.031 0-.061.067-.061.153 0 .099-.037.154-.091.154-.049 0-.092.055-.092.123 0 .067-.024.123-.06.123-.031 0-.061.049-.061.11 0 .062-.055.148-.122.197-.067.05-.121.141-.121.203 0 .104-.25.412-.335.412-.049 0-.213.165-.213.215 0 .086-.304.338-.407.338-.061 0-.152.055-.201.122-.048.068-.134.123-.194.123-.061 0-.11.043-.11.093 0 .061-.067.092-.213.092-.115 0-.213.024-.213.061 0 .03-.079.062-.182.062-.097 0-.182.024-.182.061s-.396.062-1.065.062c-.668 0-1.064-.025-1.064-.062s-.121-.061-.273-.061c-.152 0-.274-.031-.274-.062 0-.037-.097-.061-.213-.061-.146 0-.213-.031-.213-.093 0-.049-.054-.092-.121-.092s-.122-.03-.122-.061c0-.037-.055-.062-.122-.062-.066 0-.121-.03-.121-.061 0-.037-.043-.061-.091-.061-.049 0-.092-.031-.092-.062 0-.037-.042-.061-.097-.061-.091 0-.267-.142-.267-.215 0-.05-.165-.215-.213-.215-.055 0-.456-.418-.456-.474 0-.03-.055-.092-.122-.141-.067-.05-.122-.135-.122-.197 0-.061-.03-.11-.066-.11-.104 0-.238-.166-.238-.301 0-.074-.024-.13-.06-.13-.031 0-.061-.055-.061-.122 0-.068-.025-.123-.061-.123-.03 0-.061-.099-.061-.215 0-.117-.024-.215-.061-.215-.03 0-.06-.086-.06-.185 0-.123-.031-.184-.092-.184-.067 0-.091-.074-.091-.277 0-.153-.024-.276-.061-.276-.036 0-.061-.418-.061-1.137 0-.719.025-1.137.061-1.137.037 0 .061-.123.061-.276 0-.203.024-.277.091-.277s.092-.074.092-.276c0-.154.03-.277.06-.277.037 0 .061-.055.061-.123 0-.067.031-.123.061-.123.036 0 .061-.055.061-.123 0-.067.03-.122.061-.122.036 0 .06-.056.06-.13 0-.135.134-.3.238-.3.036 0 .066-.05.066-.111 0-.062.055-.148.122-.197.067-.05.122-.11.122-.141 0-.056.401-.473.456-.473.048 0 .213-.166.213-.215 0-.074.176-.216.267-.216.055 0 .097-.03.097-.061 0-.037.043-.062.092-.062.048 0 .091-.03.091-.061 0-.037.055-.061.121-.061.067 0 .122-.031.122-.062 0-.037.055-.061.122-.061s.121-.043.121-.093c0-.06.067-.092.213-.092.116 0 .213-.03.213-.061 0-.037.122-.062.274-.062.152 0 .273-.03.273-.061 0-.037.171-.062.396-.062s.395-.024.395-.06c0-.038.085-.062.182-.062.104 0 .183.024.183.061ZM135.82 50.554c0 .03-.152.061-.334.061-.255 0-.334.018-.334.092 0 .062-.067.092-.213.092-.116 0-.213.025-.213.062 0 .03-.097.061-.213.061-.115 0-.213.025-.213.062 0 .03-.079.061-.182.061-.097 0-.183.025-.183.062 0 .03-.054.061-.121.061s-.122.025-.122.062c0 .03-.067.061-.152.061-.085 0-.152.025-.152.061 0 .031-.055.062-.122.062-.066 0-.121.043-.121.092 0 .055-.055.092-.152.092-.085 0-.152.025-.152.062 0 .03-.049.061-.11.061-.06 0-.146.055-.194.123-.049.068-.14.123-.201.123-.122 0-.286.135-.286.24 0 .036-.042.067-.097.067s-.176.08-.268.184c-.091.099-.188.185-.212.185-.049 0-.213.16-.213.215 0 .043-.408.46-.456.46-.049 0-.335.29-.335.339 0 .061-.298.338-.365.338-.03 0-.06.055-.06.123 0 .067-.025.123-.061.123-.031 0-.061.043-.061.092s-.024.092-.061.092c-.03 0-.061.05-.061.11 0 .062-.054.148-.121.197a.327.327 0 0 0-.122.228c0 .08-.024.14-.061.14-.03 0-.061.056-.061.124 0 .067-.03.123-.066.123-.098 0-.238.16-.238.27 0 .055-.024.098-.06.098-.031 0-.061.099-.061.215 0 .117-.025.216-.061.216-.03 0-.061.055-.061.123 0 .067-.024.122-.061.122-.03 0-.06.099-.06.215 0 .148-.031.215-.092.215-.048 0-.091.056-.091.123 0 .068-.024.123-.061.123-.03 0-.06.123-.06.277 0 .154-.025.276-.061.276-.031 0-.061.123-.061.277 0 .154-.024.276-.061.276-.03 0-.061.154-.061.338 0 .185-.024.338-.061.338-.036 0-.06.689-.06 1.936 0 1.248.024 1.936.06 1.936.037 0 .061.153.061.338 0 .184.031.338.061.338.037 0 .061.123.061.276 0 .154.03.277.061.277.036 0 .061.123.061.276 0 .154.03.277.06.277.037 0 .061.08.061.184 0 .123.031.185.091.185.055 0 .092.055.092.153 0 .086.03.154.06.154.037 0 .061.08.061.184 0 .099.031.185.061.185.036 0 .061.067.061.153s.03.154.061.154c.036 0 .06.043.06.098 0 .11.14.27.238.27.036 0 .066.068.066.154s.031.154.061.154c.037 0 .061.055.061.123 0 .067.03.123.061.123.036 0 .061.049.061.11 0 .062.054.148.121.197.067.049.122.123.122.166 0 .043.03.08.061.08.036 0 .061.055.061.123 0 .067.03.122.06.122.079 0 .365.277.365.35 0 .031.055.093.122.142.067.05.121.135.121.197 0 .061.031.11.067.11.085 0 .238.154.238.24 0 .037.048.067.109.067s.146.056.195.123c.048.068.109.123.139.123.031 0 .134.08.225.185.092.098.213.184.268.184.055 0 .097.03.097.068 0 .104.164.24.286.24.061 0 .152.055.201.122.048.068.134.123.194.123.061 0 .11.025.11.062 0 .03.067.061.152.061.097 0 .152.037.152.092 0 .05.055.092.121.092.067 0 .122.025.122.062 0 .03.067.061.152.061.085 0 .152.025.152.062 0 .03.055.061.122.061s.121.025.121.062c0 .03.086.061.183.061.103 0 .182.025.182.061 0 .031.098.062.213.062.146 0 .213.03.213.092 0 .068.073.092.274.092.152 0 .273.025.273.062 0 .03.122.061.274.061.152 0 .273.025.273.062s.548.061 1.521.061c.973 0 1.52-.025 1.52-.061 0-.037.122-.062.274-.062.152 0 .273-.03.273-.061 0-.037.085-.062.183-.062.121 0 .182-.03.182-.092 0-.061.067-.092.213-.092.115 0 .213-.03.213-.061 0-.037.054-.062.121-.062s.122-.03.122-.061c0-.037.055-.062.122-.062s.121-.03.121-.061c0-.037.067-.062.152-.062.085 0 .152-.03.152-.061 0-.037.055-.062.122-.062s.122-.03.122-.067c0-.099.158-.24.273-.24.104 0 .517-.387.517-.492 0-.03.03-.06.067-.06.036 0 .146-.087.237-.185.128-.142.225-.185.395-.185.268 0 .396.117.396.363 0 .104.03.19.06.19.037 0 .061.08.061.185 0 .098.031.184.061.184.037 0 .061.123.061.277 0 .153.03.276.061.276.036 0 .06.099.06.215 0 .148.031.215.092.215.048 0 .091.025.091.062s.681.061 1.915.061h1.916v-20.34h-4.926v.953c0 .872-.012.952-.109.952-.061 0-.146-.055-.195-.123-.048-.067-.121-.123-.164-.123-.042 0-.079-.03-.079-.061 0-.117-.541-.615-.669-.615-.067 0-.121-.043-.121-.092 0-.05-.055-.092-.122-.092s-.122-.03-.122-.062c0-.036-.067-.061-.152-.061-.085 0-.152-.03-.152-.061 0-.037-.054-.062-.121-.062s-.122-.03-.122-.061c0-.037-.055-.062-.122-.062s-.121-.03-.121-.061c0-.037-.098-.062-.213-.062-.116 0-.213-.03-.213-.061 0-.037-.079-.062-.182-.062-.122 0-.183-.03-.183-.092 0-.074-.079-.092-.334-.092-.183 0-.335-.03-.335-.061 0-.037-.529-.062-1.459-.062s-1.46.025-1.46.062Zm2.494 4.854c0 .037.17.062.395.062s.395.024.395.061c0 .03.122.062.274.062.152 0 .273.024.273.061 0 .03.055.061.122.061s.122.043.122.093c0 .055.054.092.152.092.085 0 .152.024.152.061 0 .031.048.062.109.062s.146.055.195.123c.048.067.14.123.2.123.11 0 .286.135.286.215 0 .024.085.122.183.215.103.092.182.215.182.27 0 .055.043.098.091.098.049 0 .092.043.092.093 0 .049.03.092.06.092.037 0 .061.049.061.11 0 .062.055.148.122.197.067.05.121.135.121.197 0 .061.031.11.061.11.037 0 .061.099.061.215 0 .148.03.215.091.215s.091.068.091.215c0 .117.031.215.061.215.037 0 .061.111.061.246 0 .136.031.246.061.246.036 0 .061.172.061.4 0 .227.024.399.061.399.036 0 .06.295.06.768 0 .473-.024.768-.06.768-.037 0-.061.172-.061.4 0 .227-.025.4-.061.4-.03 0-.061.153-.061.337 0 .184-.024.338-.061.338-.03 0-.061.055-.061.123s-.042.123-.091.123c-.061 0-.091.068-.091.215 0 .117-.024.215-.061.215-.03 0-.061.05-.061.11 0 .062-.054.148-.121.197-.067.05-.122.136-.122.197s-.024.11-.061.11c-.03 0-.06.044-.06.093s-.043.092-.092.092c-.048 0-.091.043-.091.098 0 .055-.079.178-.182.27-.098.093-.183.191-.183.216 0 .08-.176.215-.286.215-.06 0-.152.055-.2.123-.049.067-.134.123-.195.123s-.109.024-.109.061c0 .03-.067.062-.152.062-.098 0-.152.036-.152.092 0 .049-.055.092-.122.092s-.122.024-.122.061c0 .031-.121.062-.273.062-.152 0-.274.024-.274.061s-.395.062-1.064.062-1.064-.025-1.064-.062-.122-.061-.274-.061c-.152 0-.273-.031-.273-.062 0-.037-.055-.061-.122-.061s-.122-.043-.122-.092c0-.05-.054-.093-.121-.093s-.122-.03-.122-.061c0-.037-.067-.061-.152-.061-.085 0-.152-.031-.152-.062 0-.037-.043-.061-.091-.061-.11 0-.395-.265-.395-.37 0-.03-.055-.06-.128-.06-.067 0-.231-.111-.359-.246-.128-.135-.261-.246-.298-.246-.036 0-.067-.062-.067-.141a.326.326 0 0 0-.121-.228c-.067-.049-.122-.129-.122-.184 0-.056-.055-.135-.122-.184a.326.326 0 0 1-.121-.228c0-.08-.025-.141-.061-.141-.03 0-.061-.086-.061-.185 0-.123-.03-.184-.091-.184s-.091-.067-.091-.215c0-.117-.025-.215-.061-.215-.031 0-.061-.098-.061-.215 0-.117-.024-.215-.061-.215-.036 0-.061-.234-.061-.584s-.024-.584-.06-.584c-.031 0-.061-.098-.061-.215 0-.117.03-.215.061-.215.036 0 .06-.215.06-.522 0-.308.025-.523.061-.523.037 0 .061-.122.061-.276 0-.154.03-.277.061-.277.036 0 .061-.098.061-.215 0-.147.03-.215.091-.215s.091-.061.091-.184c0-.105.031-.184.061-.184.036 0 .061-.062.061-.142 0-.074.054-.178.121-.227.067-.05.122-.123.122-.172 0-.093.274-.381.365-.381.03 0 .061-.056.061-.123 0-.166.383-.553.547-.553.067 0 .122-.031.122-.062 0-.104.285-.368.395-.368.048 0 .091-.031.091-.062 0-.037.067-.061.152-.061.085 0 .152-.031.152-.062 0-.037.055-.061.122-.061s.121-.043.121-.092c0-.062.067-.093.213-.093.116 0 .213-.03.213-.061 0-.037.085-.062.182-.062.104 0 .183-.03.183-.06 0-.038.201-.062.486-.062.286 0 .487-.025.487-.062s.085-.061.182-.061c.104 0 .183.024.183.061ZM161.055 50.551c0 .031-.152.062-.334.062-.256 0-.335.018-.335.092 0 .068-.066.092-.243.092-.134 0-.243.025-.243.062 0 .03-.097.061-.213.061-.115 0-.213.025-.213.062 0 .03-.097.061-.213.061-.115 0-.212.025-.212.062 0 .03-.055.061-.122.061s-.122.025-.122.061c0 .031-.054.062-.121.062s-.122.024-.122.061c0 .031-.067.062-.152.062-.097 0-.152.037-.152.092 0 .05-.049.092-.109.092-.061 0-.146.055-.195.123-.049.068-.146.123-.213.123s-.164.055-.213.123c-.048.067-.133.123-.194.123s-.11.03-.11.067c0 .074-.152.24-.213.24-.024 0-.121.08-.212.184-.092.099-.213.185-.268.185a.095.095 0 0 0-.097.092c0 .067-.073.092-.274.092s-.273-.025-.273-.092c0-.05-.025-.092-.061-.092-.031 0-.061-.086-.061-.185 0-.104-.024-.184-.061-.184-.03 0-.061-.098-.061-.215 0-.148-.03-.215-.091-.215s-.091-.062-.091-.184c0-.105-.024-.185-.061-.185-.03 0-.061-.098-.061-.215 0-.117-.024-.215-.061-.215-.03 0-.06-.086-.06-.184 0-.105-.025-.185-.061-.185-.031 0-.061-.043-.061-.092 0-.08-.268-.092-2.068-.092s-2.067.012-2.067.092c0 .05.03.092.061.092.042 0 .061 3.38.061 10.017 0 6.636-.019 10.016-.061 10.016a.061.061 0 0 0-.061.062c0 .043.924.061 2.645.061h2.645V65.7c0-4.627.013-5.254.092-5.254.073 0 .091-.098.091-.522 0-.308.024-.523.061-.523.036 0 .06-.098.06-.215 0-.117.031-.215.061-.215.037 0 .061-.098.061-.215 0-.117.03-.215.061-.215.036 0 .061-.074.061-.16 0-.16.121-.332.237-.332.036 0 .067-.061.067-.14 0-.075.054-.18.121-.228.067-.05.122-.13.122-.185 0-.055.055-.135.122-.184.066-.05.121-.123.121-.166 0-.043.037-.08.079-.08.043 0 .116-.055.164-.123.049-.067.122-.123.171-.123.091 0 .377-.276.377-.368 0-.031.067-.062.152-.062.085 0 .152-.03.152-.061 0-.037.054-.062.121-.062s.122-.03.122-.061c0-.037.067-.061.152-.061.085 0 .152-.031.152-.062 0-.037.055-.061.122-.061s.121-.031.121-.062c0-.037.098-.061.213-.061.146 0 .213-.031.213-.093 0-.06.061-.092.182-.092.104 0 .183-.03.183-.061 0-.037.17-.062.395-.062s.395-.024.395-.061.414-.062 1.125-.062c.712 0 1.125.025 1.125.062 0 .03.122.061.274.061h.274v-5.1h-1.399c-.894 0-1.399.025-1.399.061ZM180.877 50.554c0 .036-.17.061-.395.061-.311 0-.396.018-.396.092 0 .062-.06.092-.182.092-.097 0-.183.025-.183.062 0 .03-.121.061-.273.061-.152 0-.274.025-.274.062 0 .03-.067.061-.152.061-.085 0-.152.025-.152.062 0 .03-.079.061-.182.061-.098 0-.183.025-.183.062 0 .03-.067.061-.152.061-.085 0-.152.025-.152.061 0 .031-.054.062-.121.062s-.122.043-.122.092c0 .05-.055.092-.122.092s-.121.025-.121.062c0 .03-.055.061-.128.061-.073 0-.207.08-.298.185-.091.098-.213.184-.267.184-.055 0-.098.043-.098.092 0 .05-.03.092-.061.092-.085 0-.608.529-.608.615 0 .03-.03.061-.06.061-.092 0-.365.289-.365.381 0 .05-.055.123-.122.172a.327.327 0 0 0-.122.228c0 .08-.024.14-.06.14-.031 0-.061.056-.061.124 0 .067-.043.123-.091.123-.055 0-.092.055-.092.153 0 .086-.024.154-.06.154-.031 0-.061.08-.061.184 0 .099-.025.185-.061.185-.03 0-.061.123-.061.276 0 .154-.024.277-.061.277-.036 0-.06.4-.06 1.075 0 .676.024 1.076.06 1.076.037 0 .061.122.061.276 0 .154.031.277.061.277.036 0 .061.08.061.184 0 .098.03.184.061.184.036 0 .06.068.06.154 0 .098.037.154.092.154.048 0 .091.049.091.11 0 .062.055.148.121.197.067.049.122.141.122.203 0 .067.085.196.182.288.104.093.183.215.183.27 0 .056.03.1.067.1.085 0 .237.153.237.239 0 .037.049.067.109.067.061 0 .146.056.195.123.049.068.122.123.164.123.043 0 .079.025.079.062 0 .03.043.061.098.061.109 0 .267.141.267.24 0 .037.061.067.14.067.073 0 .176.056.225.123.049.068.134.123.195.123.06 0 .109.025.109.062 0 .03.055.061.122.061s.121.025.121.061c0 .031.067.062.152.062.098 0 .152.037.152.092 0 .062.061.092.183.092.103 0 .182.025.182.062 0 .03.067.061.152.061.085 0 .152.025.152.062 0 .03.085.061.183.061.103 0 .182.025.182.062 0 .03.097.061.213.061.115 0 .213.025.213.061 0 .031.121.062.273.062.152 0 .274.024.274.061 0 .031.109.062.243.062.177 0 .243.024.243.092s.073.092.274.092c.152 0 .274.025.274.062 0 .03.152.061.334.061.183 0 .335.025.335.061 0 .031.121.062.273.062.152 0 .274.025.274.061 0 .031.085.062.182.062.104 0 .183.024.183.061 0 .031.097.062.213.062.146 0 .212.03.212.092 0 .061.061.092.201.092.128 0 .231.043.286.123.049.068.122.123.17.123.091 0 .377.276.377.369 0 .03.031.061.067.061.097 0 .237.16.237.27 0 .056.031.099.061.099.037 0 .061.055.061.123 0 .067.03.123.061.123.036 0 .061.202.061.491s-.025.492-.061.492c-.031 0-.061.08-.061.184 0 .098-.024.184-.061.184-.03 0-.061.043-.061.093 0 .049-.024.092-.061.092-.03 0-.06.055-.06.123 0 .067-.037.123-.079.123-.043 0-.116.055-.165.123-.048.067-.133.122-.194.122s-.11.043-.11.093c0 .049-.054.092-.121.092s-.122.024-.122.061c0 .03-.097.062-.213.062-.115 0-.213.024-.213.061s-.377.062-1.003.062c-.626 0-1.003-.025-1.003-.062s-.079-.061-.183-.061c-.097 0-.182-.031-.182-.062 0-.037-.097-.061-.213-.061-.115 0-.213-.031-.213-.068 0-.098-.158-.24-.273-.24-.098 0-.517-.387-.517-.473 0-.03-.055-.092-.122-.141-.067-.05-.122-.135-.122-.197 0-.061-.042-.11-.091-.11-.054 0-.091-.056-.091-.154 0-.086-.024-.153-.061-.153-.03 0-.061-.056-.061-.123 0-.068-.024-.123-.06-.123-.031 0-.061-.142-.061-.314 0-.184-.037-.344-.085-.4-.134-.128-4.743-.128-4.877 0-.098.105-.116.284-.025.284.037 0 .061.184.061.43s.025.43.061.43c.037 0 .061.11.061.246 0 .135.03.246.061.246.036 0 .06.098.06.214 0 .148.031.216.092.216.06 0 .091.067.091.215 0 .116.03.215.061.215.036 0 .061.055.061.123 0 .067.03.123.06.123.037 0 .061.055.061.123 0 .067.031.122.061.122.036 0 .061.056.061.13 0 .135.134.3.237.3.036 0 .067.05.067.111 0 .062.055.148.121.197.067.049.122.141.122.203 0 .116.377.534.487.534.03 0 .06.03.06.062 0 .086.523.614.608.614.031 0 .061.025.061.062 0 .03.055.061.122.061s.121.03.121.068c0 .104.165.24.286.24.061 0 .152.055.201.122.049.068.122.123.17.123.098 0 .256.148.256.24 0 .037.067.067.152.067.085 0 .152.025.152.062 0 .03.085.061.182.061.103 0 .183.025.183.062 0 .03.066.061.152.061.085 0 .152.025.152.062 0 .03.085.061.182.061.103 0 .182.025.182.061 0 .031.098.062.213.062.146 0 .213.03.213.092 0 .068.067.092.243.092.134 0 .244.025.244.062 0 .03.152.061.334.061.182 0 .334.025.334.062s.596.061 1.673.061c1.076 0 1.672-.025 1.672-.061 0-.037.152-.062.334-.062.183 0 .335-.03.335-.061 0-.037.122-.062.274-.062.2 0 .273-.024.273-.092 0-.061.061-.092.183-.092.103 0 .182-.03.182-.061 0-.037.097-.062.213-.062.115 0 .213-.03.213-.061 0-.037.054-.062.121-.062s.122-.03.122-.061c0-.037.067-.062.152-.062.085 0 .152-.03.152-.061 0-.037.055-.062.122-.062s.121-.043.121-.092.055-.092.122-.092.121-.03.121-.061c0-.037.043-.062.092-.062.048 0 .091-.03.091-.061 0-.037.042-.062.091-.062.11 0 .395-.264.395-.368 0-.031.055-.062.122-.062.164 0 .669-.51.669-.676 0-.068.03-.123.061-.123.103 0 .365-.289.365-.4 0-.048.03-.091.06-.091.037 0 .061-.043.061-.093 0-.049.031-.092.061-.092.037 0 .061-.055.061-.123 0-.067.042-.123.091-.123.049 0 .091-.055.091-.123 0-.067.031-.122.061-.122.037 0 .061-.099.061-.215 0-.117.03-.215.061-.215.036 0 .06-.087.06-.185 0-.104.031-.184.061-.184.037 0 .061-.123.061-.277 0-.153.031-.276.061-.276.036 0 .061-.474.061-1.29 0-.818-.025-1.291-.061-1.291-.03 0-.061-.123-.061-.277 0-.153-.024-.276-.061-.276-.03 0-.061-.086-.061-.185 0-.104-.024-.184-.06-.184-.031 0-.061-.068-.061-.154s-.024-.153-.061-.153c-.03 0-.061-.056-.061-.123 0-.068-.042-.123-.091-.123-.049 0-.091-.05-.091-.11 0-.062-.055-.148-.122-.197-.067-.05-.121-.123-.121-.166 0-.043-.025-.08-.061-.08-.031 0-.061-.043-.061-.098 0-.093-.14-.27-.213-.27-.049 0-.213-.167-.213-.216 0-.074-.17-.215-.255-.215-.049 0-.122-.055-.17-.123-.049-.068-.122-.123-.165-.123-.042 0-.079-.03-.079-.061 0-.037-.054-.062-.121-.062s-.122-.043-.122-.092-.055-.092-.121-.092c-.067 0-.122-.03-.122-.062 0-.036-.043-.06-.091-.06-.049 0-.092-.032-.092-.062 0-.037-.054-.062-.121-.062s-.122-.03-.122-.061c0-.037-.097-.062-.213-.062-.115 0-.212-.03-.212-.061 0-.037-.055-.062-.122-.062s-.122-.03-.122-.061c0-.037-.079-.061-.182-.061-.122 0-.183-.031-.183-.093 0-.055-.054-.092-.152-.092-.085 0-.152-.03-.152-.061 0-.037-.121-.062-.273-.062-.152 0-.274-.03-.274-.061 0-.037-.079-.062-.182-.062-.098 0-.183-.03-.183-.061 0-.037-.121-.062-.273-.062-.152 0-.274-.03-.274-.061 0-.037-.122-.061-.274-.061-.2 0-.273-.025-.273-.093 0-.073-.079-.092-.335-.092-.182 0-.334-.03-.334-.061 0-.037-.152-.062-.335-.062-.182 0-.334-.03-.334-.061 0-.037-.079-.062-.183-.062-.097 0-.182-.03-.182-.061 0-.037-.122-.062-.274-.062-.152 0-.273-.03-.273-.061 0-.037-.055-.061-.122-.061s-.121-.044-.121-.093c0-.055-.055-.092-.152-.092-.086 0-.153-.03-.153-.061 0-.037-.042-.062-.097-.062s-.176-.086-.267-.184c-.092-.104-.189-.184-.213-.184-.085 0-.213-.179-.213-.301 0-.074-.024-.13-.061-.13-.036 0-.061-.215-.061-.522 0-.307.025-.522.061-.522.037 0 .061-.056.061-.13 0-.122.128-.3.213-.3.024 0 .121-.086.213-.185.091-.104.212-.184.267-.184a.095.095 0 0 0 .097-.092c0-.062.067-.092.213-.092.116 0 .213-.031.213-.062 0-.037.152-.061.335-.061.182 0 .334-.031.334-.062 0-.037.17-.061.395-.061s.396.024.396.061c0 .03.152.062.334.062.182 0 .334.024.334.061 0 .03.098.062.213.062.146 0 .213.03.213.092 0 .049.055.092.122.092s.121.025.121.061c0 .031.049.062.11.062s.146.055.194.123c.049.067.11.123.14.123.098 0 .347.307.347.43 0 .067.03.123.061.123.036 0 .061.055.061.123 0 .067.03.123.06.123.037 0 .061.067.061.153v.154h4.926v-.43c0-.246-.025-.43-.061-.43-.03 0-.061-.111-.061-.246 0-.136-.024-.246-.061-.246-.03 0-.061-.098-.061-.215 0-.117-.024-.215-.06-.215-.031 0-.061-.056-.061-.123 0-.068-.024-.123-.061-.123-.03 0-.061-.068-.061-.154 0-.098-.036-.153-.091-.153-.049 0-.091-.056-.091-.123 0-.068-.024-.123-.061-.123-.03 0-.061-.055-.061-.123s-.024-.123-.061-.123c-.03 0-.06-.043-.06-.092 0-.05-.025-.092-.061-.092-.031 0-.061-.043-.061-.099 0-.092-.14-.27-.213-.27-.049 0-.334-.289-.334-.338 0-.05-.414-.46-.456-.46-.049 0-.213-.167-.213-.216 0-.074-.177-.215-.268-.215-.055 0-.097-.03-.097-.061 0-.037-.043-.062-.091-.062-.049 0-.092-.03-.092-.061 0-.037-.042-.062-.097-.062-.109 0-.267-.141-.267-.24 0-.036-.067-.067-.152-.067-.086 0-.152-.03-.152-.062 0-.036-.055-.061-.122-.061s-.122-.03-.122-.061c0-.037-.079-.062-.182-.062-.097 0-.183-.03-.183-.061 0-.037-.066-.062-.152-.062-.085 0-.152-.03-.152-.061 0-.037-.121-.062-.273-.062-.152 0-.274-.03-.274-.061 0-.037-.079-.062-.182-.062-.122 0-.183-.03-.183-.092 0-.074-.085-.092-.395-.092-.225 0-.395-.025-.395-.061 0-.037-.578-.062-1.612-.062-1.033 0-1.611.025-1.611.062ZM97.328 60.783v10.17H102.375v-20.34H97.328v10.17ZM166.77 60.783v10.17H171.817v-20.34H166.77v10.17Z" fill="#000"/></svg>