<svg width="260" height="120" fill="none" xmlns="http://www.w3.org/2000/svg"><path fill="#F1F1F1" d="M0 0h260v120H0z"/><g clip-path="url(#a)"><path fill="#050505" d="M70 0h120v120H70z"/><path d="M70 60v60h120V0H70v60Zm22.813-19.667c.214.587.814 2.32 1.32 3.867.52 1.533 1 2.92 1.067 3.067.067.146.72 2.04 1.44 4.2.733 2.16 1.64 4.826 2.027 5.933.373 1.093.973 2.867 1.333 3.933.36 1.067 1.107 3.227 1.64 4.8l.987 2.867 1.106.04 1.094.04-.04-2.707-.054-2.706h.32c.294 0 .347.093.547.866.773 3.04 2.2 4.534 4.747 4.934 1.92.306 3.746-.494 4.466-1.96.254-.534.307-.854.307-1.907.013-1.44-.147-1.867-.92-2.507-.68-.546-1.147-.666-4.333-1.106-2.16-.28-3.134-.72-3.92-1.76-.6-.787-.787-1.494-.8-3.094-.014-2.133.413-3.253 1.706-4.44.747-.68 1.427-1.013 2.587-1.24 1.187-.226 2.387.014 3.893.76 1.294.654 1.4.68 1.52.387.04-.107.214-.2.4-.2h.32l.094 2.08c.106 2.093.04 2.44-.36 2.28-.107-.027-.267-.387-.36-.773-.547-2.174-1.694-3.32-3.734-3.707-1.373-.267-2.946.12-3.84.947-.893.826-1.146 2.786-.493 3.8.36.533.88.933 1.52 1.146.64.214 2.467.494 3.28.494 2.4 0 3.973.786 4.867 2.426.453.84.453.84.453 2.64 0 1.2-.067 1.96-.187 2.267-.466 1.227-.826 1.853-1.386 2.467-2.027 2.253-5.227 2.533-8.187.72-1.213-.747-1.467-.747-1.587.026-.053.347-.173.574-.333.627-.133.053-2.8.08-5.92.053l-5.68-.026.04-.374.04-.36 1.973-.04c1.08-.013 1.96-.08 1.96-.133 0-.053-.653-2.013-1.44-4.36l-1.426-4.267-4.48-.04-4.48-.026-.147.36c-.08.213-.547 1.626-1.027 3.173a511.897 511.897 0 0 0-1.013 3.187c-.067.213-.12.64-.12.96 0 .88.333 1.04 2.333 1.12l1.6.066v.667h-8.666v-.333c0-.32.026-.334 1.213-.4.8-.04 1.307-.147 1.533-.294.494-.32.88-1.226 2.12-4.973.6-1.84 1.8-5.467 2.667-8.067.867-2.6 2.387-7.226 3.387-10.266 2.2-6.68 2.053-6.294 2.386-6.24.2.026.36.306.64 1.106Zm30.654 9.08.066 2.92 2.867.067 2.867.067v.666l-2.867.067-2.867.067v7.466c0 8.387-.013 8.28.92 8.667 1.467.613 3.174-.147 4.014-1.8.133-.253.306-.507.373-.56.093-.053-.027-.467-.333-1.133-.774-1.654-.947-2.52-.96-4.64 0-1.574.04-2.027.306-2.867.84-2.76 2.8-5.24 4.894-6.227.92-.426 1.213-.493 2.293-.546 2.6-.12 4.72 1.053 6.413 3.546 1.08 1.587 1.814 3.867 1.334 4.174-.107.066-2.667.12-5.707.12h-5.507l.054 3.293c.053 3.013.093 3.387.373 4.213.387 1.134 1.08 1.947 2.027 2.374.586.253.933.306 1.973.293 2.253 0 4.04-.893 5.24-2.6.613-.893 1.16-2.08 1.16-2.56 0-.347.24-.613.547-.613.373 0 .4.173.173 1.013-.68 2.64-2.773 4.76-5.387 5.453-.92.254-2.76.254-3.8 0-1.24-.293-2.866-1.173-3.68-2.013-.4-.387-.76-.72-.813-.72-.053 0-.213.227-.36.493-.587 1.134-2.04 2.107-3.44 2.28-1.107.134-2.787-.04-3.573-.373-.96-.413-1.454-.84-1.814-1.56l-.32-.64-.04-7.307-.04-7.293h-1.786c-1.054 0-1.814-.053-1.867-.133a.545.545 0 0 1 0-.387c.053-.2.267-.253 1.107-.32 3.133-.267 4.773-1.773 5.426-5.027.134-.626.32-.96.507-.893.12.04.173.893.227 2.973Zm57.56 1.867c.053.147-.707.747-4.56 3.653-4.16 3.134-5.08 3.72-6.454 4.067-.826.213-.893.213-1.733-.067-.653-.213-1.48-.706-3.213-1.92l-2.334-1.64-.04-2.08c-.026-1.893-.013-2.08.2-2.133.534-.133 18.08-.027 18.134.12Zm-31.96 4.773c.093.094.133.054.133-.106 0-.547.88-2.04 1.653-2.814 1.08-1.08 1.84-1.44 3.227-1.506 1.707-.08 2.64.48 3.133 1.88.16.44.147.586-.08 1.266-.36 1.014-.866 1.36-1.96 1.36-.733 0-.84-.04-1.24-.44-.733-.733-.786-1.853-.133-2.813l.32-.48h-.44c-1.2 0-2.733 1.387-3.613 3.227-.987 2.093-1.067 2.746-1.067 8.506v5l1.867.067 1.866.067v.666l-5.386.04c-3.88.014-5.427-.013-5.494-.12-.04-.08-.053-.266-.026-.4.066-.226.24-.253 1.76-.28l1.68-.04V53.4l-1.667-.067-1.667-.066-.04-.374-.04-.36 1.774-.013c2.6-.013 3.786-.147 4.573-.547l.667-.32.04 2.134c.013 1.173.093 2.2.16 2.266Zm32.266 4.747c0 4.027-.053 7.347-.106 7.387-.067.04-.627-.307-1.267-.76-.627-.454-2.093-1.48-3.253-2.294-2.307-1.6-3.08-2.293-3.494-3.12-.733-1.413 0-2.533 3.374-5.12.88-.68 2.253-1.746 3.066-2.373.814-.627 1.52-1.12 1.587-1.093.053.026.093 3.346.093 7.373Zm-15.693-1.84c1.48 1.027 3.133 2.187 3.667 2.56.546.373 1.24.867 1.533 1.08.307.227 1.227.867 2.027 1.413 1.253.867 2.96 2.054 7.373 5.147.453.32.827.64.827.72 0 .067-3.48.12-9.2.12h-9.2v-6.467c0-4.293.04-6.466.133-6.466.08 0 1.347.853 2.84 1.893Z" fill="#F1F1F1"/><path d="M89.44 49.305a409.989 409.989 0 0 0-1.252 3.894c-.267.84-.8 2.52-1.2 3.72-.4 1.2-.72 2.253-.72 2.333 0 .106 1.173.133 4.08.12 2.253-.014 4.106-.053 4.133-.067.027-.026-.653-2.08-1.493-4.573a922.99 922.99 0 0 1-2.067-6.173c-.307-.894-.587-1.627-.64-1.627-.04 0-.427 1.066-.84 2.373ZM133.786 52.722c-1.4.64-2.093 2.093-2.107 4.48l-.013 1.4h7.067v-1.4c0-2.414-.614-3.867-1.947-4.534-.733-.373-2.093-.346-3 .054Z" fill="#F1F1F1"/></g><defs><clipPath id="a"><path fill="#fff" transform="translate(70)" d="M0 0h120v120H0z"/></clipPath></defs></svg>