<svg width="260" height="120" fill="none" xmlns="http://www.w3.org/2000/svg"><path fill="#F1F1F1" d="M0 0h260v120H0z"/><g clip-path="url(#a)" fill="#000"><path d="M51.28 61.2h-8.116l-.175.175c-.174.175.175.262.175.262 1.658.175 2.356.699 2.356 2.357v2.794c0 1.833.174 1.833-2.095 1.92-5.672.263-4.974-6.634-4.974-8.468 0-4.54.785-8.293 4.8-8.119 2.88 0 4.713 2.357 5.498 4.54 0 0 .175.175.262.175.174 0 .262-.175.262-.175v-5.413l-.262-.262c-.175-.174-.262.175-.262.175-.262.698-.436.96-1.135.96-.698 0-2.443-1.135-4.8-1.135-5.323 0-8.814 4.104-8.814 9.254 0 4.54 2.793 9.254 9.076 9.254 2.182 0 4.975-.698 6.197-1.658v-3.842c0-2.182.436-2.182 1.92-2.357.087 0 .174-.174.087-.436Z"/><path d="M59.571 68.967c-1.396-.174-2.356-.436-2.356-2.095V53.864c0-1.833 1.134-2.183 2.356-2.357 0 0 .175-.175.175-.262 0-.087-.175-.175-.175-.175h-8.727s-.175 0-.175.262c0 .175.175.175.175.175 1.134.174 2.356.524 2.356 2.357v13.008c0 1.659-.96 1.92-2.356 2.095l-.262.087c0 .175.175.262.175.262h8.727s.174-.174.174-.262l-.087-.087Z"/><path d="M67.515 51.685c-3.579 0-4.539 4.453-4.539 8.294 0 2.357.699 8.468 4.713 8.468 4.538 0 4.538-6.11 4.538-8.468 0-3.841-.96-8.294-4.712-8.294Zm0-.873c4.974 0 9.25 3.493 9.25 9.255 0 5.5-3.84 9.428-9.25 9.428-5.411 0-9.251-3.841-9.251-9.429 0-5.936 4.276-9.254 9.25-9.254Z"/><path d="M82.436 52.117v7.77c3.316 0 4.102-.263 4.451-3.842.174-1.833-.785-3.841-2.88-3.841-1.396-.087-1.57-.087-1.57-.087Zm10.647 16.849s.262.174.262.262c0 .174-.262.262-.262.262h-4.8l-5.149-8.469h-.698v5.151c0 2.183.524 2.62 2.182 2.881 0 0 .262.175.262.262 0 .175-.262.175-.262.175h-8.553s-.174 0-.174-.262c0-.175.174-.175.174-.175 1.658-.262 2.356-.698 2.182-2.88V54.036c0-2.357-.785-2.182-2.182-2.357 0 0-.174 0-.174-.262 0-.174.174-.262.174-.262h8.117c1.832 0 6.72.262 6.72 4.715 0 3.317-2.357 4.277-3.753 4.714l4.538 7.595c.436.35.873.786 1.396.786ZM108.707 51.51c1.135.174 2.095.436 2.095 2.094V66.7c0 1.658-.699 1.92-2.095 2.095 0 0-.174 0-.174.174 0 .262.174.262.174.262h14.487l.699-5.674-.175.174c-.262 0-.175.262-.175.262-1.483 4.016-2.792 4.54-6.632 4.54-1.484 0-2.095-.262-2.095-1.397v-6.46c2.357 0 3.578.524 3.84 3.841 0 0 0 .175.175.175.174 0 .174-.175.174-.175V55.7s0-.175-.174-.175c-.262 0-.175.175-.175.175-.436 3.317-1.658 4.015-3.84 4.015V52.12h1.833c3.316 0 5.236.175 5.76 4.016 0 0 0 .175.174.175.175 0 .175-.175.175-.175v-4.714l-14.051.087-.262.087h.262v-.087ZM135.325 68.967c-1.833-.174-2.444-.524-2.356-2.619V51.943c1.658.175 4.8-.873 5.236 3.58 0 0 0 .174.262.174.174 0 .262-.174.262-.174V51.07h-15.448v4.453s0 .174.262.174.262-.174.262-.174c.436-4.016 3.142-3.58 5.236-3.58v14.23c0 2.183-.785 2.532-2.356 2.62 0 0-.262 0-.262.174 0 .175.175.437.175.437h8.814s.175-.175.175-.437h-.262Z"/><path d="M109.053 61.2h-8.029s-.174 0-.174.175c0 .174.174.261.174.261 1.659.175 2.357.699 2.357 2.358v2.793c0 1.834.174 1.834-2.095 1.921-5.673.262-5.236-6.46-5.236-8.468 0-4.54 1.134-8.294 5.149-8.12 2.88 0 4.713 2.358 5.498 4.54 0 0 .175.175.262.175.174 0 .262-.175.262-.175v-5.412l-.175-.262c-.174 0-.262.174-.262.174-.261.699-.436.96-1.134.96s-2.618-1.222-4.8-1.222c-5.411 0-9.077 4.278-9.077 9.429 0 4.54 3.055 9.254 9.426 9.254 2.182 0 4.974-.698 6.196-1.659v-3.317c0-2.183.437-2.794 1.92-2.881 0 0 .175-.175.175-.262-.262-.262-.437-.262-.437-.262ZM163.775 68.967c-1.397-.174-2.356-.436-2.356-2.095V53.864c0-1.833 1.134-2.183 2.356-2.357 0 0 .174-.175.174-.262 0-.087-.174-.175-.174-.175h-8.727s-.175 0-.175.262c0 .175.175.175.175.175 1.134.174 2.356.524 2.356 2.357v13.008c0 1.659-.96 1.92-2.356 2.095l-.175.175c0 .174.175.262.175.262h8.727s.174-.175.174-.262l-.174-.175ZM151.208 68.967c-1.832-.174-2.443-.524-2.356-2.619V51.943c1.658.175 4.8-.873 5.236 3.58 0 0 0 .174.262.174.175 0 .262-.174.262-.174V51.07H138.99v4.453s0 .174.262.174.262-.174.262-.174c.436-4.016 3.142-3.58 5.236-3.58v14.23c0 2.183-.785 2.532-2.356 2.62 0 0-.262 0-.262.174 0 .175.175.437.175.437h8.814c.087 0 .175-.175.087-.437ZM218.144 62.159h-7.069c0-.699.174-1.484.436-2.183a14.066 14.066 0 0 0 6.109-2.88l8.378-7.16-4.8-5.674-5.672 4.801-4.8-2.793-3.491 6.111c-.698-.262-1.222-.873-1.658-1.484.698-2.095.96-4.453.523-6.81L204.18 33l-7.331 1.397 1.397 7.333-4.8 2.794 3.491 6.11c-.524.437-1.397.7-2.182.7-1.484-1.66-3.317-3.056-5.673-3.842l-10.385-3.754-2.444 7.072 6.895 2.531v5.5h7.069c0 .699-.175 1.484-.437 2.183a14.071 14.071 0 0 0-6.109 2.88l-8.378 7.16 4.8 5.674 5.673-4.802 4.8 2.794 3.491-6.111c.698.262 1.221.873 1.658 1.484-.698 2.095-.96 4.453-.524 6.81l1.92 10.912 7.331-1.396-1.396-7.334 4.8-2.793-3.491-6.112c.523-.436 1.396-.698 2.182-.698 1.483 1.659 3.316 3.056 5.672 3.841l10.386 3.754 2.443-7.071-6.894-2.532V62.16Zm-.96.873v4.452l-2.444-.96c-1.658-.524-2.792-1.659-3.316-3.056 0-.174 0-.262-.175-.436h5.935Zm4.014-17.548 3.579 4.278-7.768 6.46a13.633 13.633 0 0 1-4.974 2.62l5.236-8.993-.785-.436 4.712-3.929Zm-9.949 1.92 3.753 2.096-2.094 1.659c-1.397 1.135-2.88 1.659-4.277 1.397-.174 0-.262-.175-.436-.175l3.054-4.976Zm-3.491 6.025c.262.174.437.174.699.174 1.658.262 3.491-.262 4.974-1.484l2.357-1.92.261.174-4.974 8.556c0 .174-.175.174-.175.261a11.699 11.699 0 0 1-3.491 0c-.785-.174-1.483-.436-2.356-.698.262-.873.524-1.659 1.135-2.357l1.57-2.706Zm2.531 6.634c0 .699-.174 1.397-.174 2.096h-2.88c-.96 0-1.833.174-2.618.262 0-1.135 0-2.096.261-3.143.786.262 1.484.524 2.357.698.698.175 1.396.175 1.92.175.436-.088.873-.088 1.134-.088Zm-3.491-6.984-1.483 2.62a31.952 31.952 0 0 0-1.135 2.531 14.071 14.071 0 0 1-2.618-1.833c.698-.524 1.222-1.135 1.833-1.834.698-.873 1.222-1.658 1.658-2.619.698.262 1.222.699 1.745 1.135Zm-5.41 22.786.523 2.881-.262.175-4.974-8.556c0-.174-.175-.174-.175-.262.437-1.135.96-2.095 1.833-3.055a6.608 6.608 0 0 1 1.833-1.66c.523.7 1.134 1.398 1.483 2.096l1.484 2.62c-.175.174-.436.261-.524.523-1.221 1.484-1.571 3.317-1.221 5.238Zm-4.277-13.794c.262-1.222.437-2.531.437-3.753 1.221-.262 2.356-.874 3.49-1.485.96.96 1.92 1.66 3.055 2.183-.262 1.222-.436 2.532-.436 3.754-1.222.262-2.357.873-3.491 1.484-.96-.96-1.92-1.659-3.055-2.183Zm2.618-17.023-.523-2.881.262-.175 4.974 8.556c0 .174.175.174.175.261-.437 1.135-.96 2.096-1.833 3.056a6.608 6.608 0 0 1-1.833 1.659c-.523-.699-1.134-1.397-1.483-2.095l-1.484-2.62c.174-.174.436-.261.524-.523 1.134-1.397 1.57-3.143 1.221-5.238Zm-1.92-9.953 5.499-.96 1.832 9.952c.437 1.92.262 3.842-.262 5.5l-5.236-8.992-.785.437-1.048-5.937Zm-3.141 9.69 3.752-2.094.437 2.618c.261 1.66 0 3.318-.96 4.453l-.262.262-2.967-5.238Zm2.618 6.461 1.483 2.62c.437.872.96 1.483 1.484 2.182-.785.523-1.833.96-2.88 1.222-.175-.873-.262-1.659-.524-2.532-.436-.96-.785-1.92-1.483-2.794a3.05 3.05 0 0 0 1.92-.698Zm-14.226 1.135-5.76-2.183 1.92-5.238 9.513 3.492c1.833.699 3.491 1.66 4.713 3.056H183.06v.873Zm.96 5.5v-4.452l2.444.96c1.658.524 2.793 1.659 3.316 3.055 0 .175 0 .262.175.437h-5.935Zm2.793-4.452-2.88-.96v-.263h10.211c.698.96 1.222 1.921 1.658 3.056.262.873.436 1.484.524 2.357a12.09 12.09 0 0 1-2.618.262h-2.88v-.175c0-.262-.175-.436-.175-.698-.524-1.572-1.92-2.881-3.84-3.58Zm9.687 4.976c0 1.135 0 2.095-.262 3.143-.785-.262-1.483-.524-2.356-.699-1.134-.174-2.094-.174-3.142-.174.262-.699.262-1.397.262-2.096h2.88c.96.175 1.746 0 2.618-.174Zm-16.494 17.024-3.578-4.278 7.767-6.46a13.64 13.64 0 0 1 4.974-2.62l-5.236 8.993.785.436-4.712 3.929Zm9.949-1.921-3.753-2.095 2.095-1.659c1.396-1.135 2.792-1.659 4.276-1.397.175 0 .262.175.436.175l-3.054 4.976Zm3.491-5.937c-.262-.174-.437-.174-.698-.174-.262 0-.524-.175-.96-.175-1.397 0-2.88.524-4.102 1.659l-2.357 1.92-.174-.174 4.974-8.556c0-.174.175-.174.175-.261a11.699 11.699 0 0 1 3.491 0c.785.174 1.483.436 2.356.698-.262.873-.523 1.659-1.134 2.357l-1.571 2.706Zm.785.437 1.484-2.62c.436-.872.785-1.658 1.134-2.53a14.08 14.08 0 0 1 2.619 1.833c-.699.523-1.222 1.134-1.833 1.833-.698.873-1.222 1.659-1.658 2.619-.524-.437-1.048-.873-1.746-1.135Zm8.989 17.81-5.498.96-1.833-9.953c-.436-1.92-.261-3.84.262-5.5l5.237 8.992.785-.436 1.047 5.936Zm3.317-9.691-3.753 2.095-.436-2.619c-.262-1.659 0-3.317.96-4.452l.261-.262 2.968 5.238Zm-2.619-6.46-1.483-2.62c-.437-.872-.96-1.483-1.484-2.182.786-.524 1.833-.96 2.88-1.222.175.873.262 1.659.524 2.532.436.96.785 1.92 1.483 2.793-.698.088-1.396.437-1.92.699Zm3.055-.873a12.906 12.906 0 0 1-1.658-3.056c-.262-.873-.437-1.484-.524-2.357a12.09 12.09 0 0 1 2.618-.262h3.055c0 .262.174.437.174.699.524 1.658 1.92 2.88 3.84 3.579l2.88.96v.262h-9.949c-.349.087-.349.175-.436.175Zm16.844 2.095-1.92 5.238-9.513-3.492c-1.833-.699-3.491-1.659-4.713-3.056h10.386v-.96l5.76 2.27Z"/></g><defs><clipPath id="a"><path fill="#fff" transform="translate(34 33)" d="M0 0h192v55H0z"/></clipPath></defs></svg>