<svg width="260" height="120" fill="none" xmlns="http://www.w3.org/2000/svg"><path fill="#F1F1F1" d="M0 0h260v120H0z"/><g clip-path="url(#a)" fill="#000"><path d="M108.304 51.723c.042 13.544.126 16.72.626 17.557.334.585.585 1.17.626 1.338 0 .209-2.629.334-5.841.334h-5.884l.668-1.254c.542-1.003.626-3.553.626-15.76V39.432l-1.753-1.797c-.96-1.003-1.92-1.798-2.086-1.798-.167 0-.334 1.338-.334 2.968v2.927l-.918-.627c-.668-.502-1.961-.67-4.59-.67h-3.672v8.78h7.094v3.01c0 2.34-.126 2.884-.501 2.507-.292-.292-1.753-.501-3.547-.501H85.73l.167 7.399c.042 4.097.292 7.859.46 8.36l.333.962H72.211l6.676 6.689 6.677 6.688H102.212l-1.335-1.38c-1.252-1.295-1.335-1.546-1.335-4.598 0-1.755.125-3.219.334-3.219.167 0 2.378 2.049 4.882 4.599l4.59 4.598h14.979l-1.335-1.38c-1.252-1.295-1.335-1.546-1.335-4.598 0-1.755.125-3.219.334-3.219.167 0 1.711 1.422 3.421 3.177 5.592 5.686 8.93 7.316 15.022 7.4 6.092.083 10.432-2.132 12.727-6.522l1.21-2.299 3.755 3.512c2.045 1.923 4.381 3.804 5.216 4.18 2.253 1.087 6.05 1.003 8.512-.209 1.502-.71 2.128-.878 2.504-.502.292.293 2.628.46 6.718.46h6.259l-1.336-1.38-1.335-1.379V59.456l-6.593-6.605c-3.588-3.595-6.718-6.563-6.885-6.563-.166 0-.292 4.85-.292 10.744.042 8.57.167 10.994.626 11.83 1.169 2.007 1.002 2.09-4.59 2.09h-5.215v-3.428l-1.628 1.463c-3.547 3.22-10.139 3.22-13.269.084l-1.377-1.38V56.488l-2.712-2.675-2.712-2.676.876 2.258c1.085 2.842.96 8.11-.209 10.45-3.087 5.978-10.014 9.24-16.816 7.985-7.552-1.38-11.766-5.81-12.142-12.834-.167-2.759-.042-3.72.668-5.309 1.293-2.884 2.921-4.807 5.132-6.103l2.003-1.129-5.591-5.601-5.634-5.644v16.513Z"/><path d="M154.621 55.277c0 10.075.167 10.785 2.379 11.203 1.627.293 3.797-.71 4.297-2.006.251-.628.418-3.387.418-6.187v-5.1l-3.547-3.554-3.547-3.553v9.197ZM124.159 50.805c-2.253 1.212-3.13 3.386-3.13 7.608 0 5.643 1.92 8.36 5.925 8.36 3.631 0 5.8-3.553 5.467-8.862-.418-6.396-3.923-9.406-8.262-7.106Z"/></g><defs><clipPath id="a"><path fill="#fff" transform="translate(72 35)" d="M0 0h116v51H0z"/></clipPath></defs></svg>