<svg width="260" height="120" fill="none" xmlns="http://www.w3.org/2000/svg"><path fill="#F1F1F1" d="M0 0h260v120H0z"/><g clip-path="url(#a)" fill="#000"><path d="M112.519 68.329c1.653 0 2.974-1.327 2.974-3.021a3 3 0 0 0-2.974-3.019c-1.654 0-3.007 1.36-3.007 3.019 0 1.692 1.321 3.02 3.007 3.02Z"/><path d="M138.928 69.72c-1.056 0-1.884.597-2.477 1.657-1.056-1.26-2.378-1.856-4.165-1.856-2.268 0-4.332 1.038-5.811 2.76-.123-1.29-1.28-2.097-3.249-2.097h-.463v-2.29c0-2.554-.827-3.815-2.578-3.815-1.785 0-2.612 1.261-2.612 3.815v2.29c-1.404.068-2.33.457-2.791 1.135-.383-1.07-1.126-1.6-2.265-1.6-1.784 0-2.612 1.228-2.612 3.781v10.516c0 2.553.828 3.815 2.612 3.815 1.785 0 2.576-1.262 2.576-3.815V74.03c.504.458 1.276.731 2.282.731h.2v9.257c0 2.554.827 3.815 2.612 3.815 1.785 0 2.579-1.261 2.579-3.815v-9.257h.429c.769 0 1.397-.101 1.896-.288a10.446 10.446 0 0 0-.905 4.302c0 5.475 3.638 9.223 7.899 9.223 1.785 0 3.307-.698 4.366-1.99.56 1.261 1.322 1.823 2.477 1.823 1.754 0 2.578-1.262 2.578-3.815V73.5c0-2.553-.793-3.78-2.578-3.78Zm-5.984 13.27c-1.917 0-3.369-1.625-3.369-4.28 0-2.588 1.485-4.18 3.369-4.18 1.884 0 3.341 1.623 3.341 4.18 0 2.59-1.423 4.28-3.341 4.28Zm12.629-20.702c-1.785 0-2.612 1.261-2.612 3.815v17.915c0 2.554.827 3.815 2.612 3.815 1.785 0 2.578-1.261 2.578-3.815V66.103c0-2.554-.827-3.815-2.578-3.815Zm6.775 7.431c-1.785 0-2.612 1.228-2.612 3.781v10.516c0 2.553.827 3.815 2.612 3.815 1.785 0 2.576-1.262 2.576-3.815V73.5c0-2.553-.822-3.78-2.576-3.78Zm0-1.392a2.96 2.96 0 0 0 2.76-1.866c.147-.367.22-.76.214-1.155 0-1.658-1.322-3.018-2.974-3.018-1.652 0-3.008 1.36-3.008 3.018 0 1.692 1.322 3.021 3.008 3.021Zm17.718 1.392c-1.056 0-1.883.598-2.479 1.658-1.057-1.26-2.378-1.856-4.166-1.856-4.428 0-8.096 3.948-8.096 9.254 0 5.475 3.637 9.223 7.899 9.223 1.784 0 3.304-.698 4.363-1.99.562 1.261 1.324 1.823 2.479 1.823 1.754 0 2.579-1.262 2.579-3.815V73.5c0-2.553-.794-3.78-2.579-3.78Zm-5.984 13.27c-1.917 0-3.372-1.624-3.372-4.28 0-2.587 1.489-4.18 3.372-4.18 1.884 0 3.338 1.624 3.338 4.18 0 2.59-1.42 4.28-3.338 4.28Zm-30.277-41.824a8.443 8.443 0 0 0-6.461 2.92c-.073-1.346-1.243-2.191-3.259-2.191h-.461v-2.288c0-2.554-.827-3.815-2.578-3.815-1.785 0-2.612 1.261-2.612 3.815v2.288a5.902 5.902 0 0 0-1.447.232 5.104 5.104 0 0 0-1.592-.232h-.463v-2.288c0-2.554-.828-3.815-2.579-3.815-1.784 0-2.609 1.261-2.609 3.815v2.288c-1.303.063-2.205.397-2.697.987-.391-.975-1.117-1.452-2.229-1.452-1.056 0-1.883.598-2.479 1.66-1.056-1.26-2.378-1.858-4.165-1.858-4.431 0-8.097 3.948-8.097 9.256 0 1.58.31 3.011.844 4.256a1.907 1.907 0 0 0-1.51-.739c-.859 0-2.05.797-3.57.797-2.38 0-3.8-1.692-3.8-4.413 0-2.687 1.485-4.41 3.6-4.41 1.488 0 2.711.796 3.669.796 1.256 0 2.149-.961 2.149-2.222 0-1.959-2.313-3.35-5.818-3.35-5.45-.003-8.956 3.88-8.956 9.288 0 5.54 3.539 9.256 8.628 9.256 3.637 0 6.114-1.66 6.114-3.483 0-.233-.038-.45-.091-.663 1.423 2.558 3.897 4.112 6.637 4.112 1.785 0 3.305-.697 4.364-1.99.562 1.262 1.324 1.823 2.479 1.823 1.754 0 2.578-1.261 2.578-3.815v-9.864c.502.387 1.233.605 2.149.605h.201v9.257c0 2.554.825 3.815 2.609 3.815 1.785 0 2.579-1.261 2.579-3.815v-9.254h.429c.613 0 1.131-.066 1.573-.184.378.118.81.184 1.304.184h.198v9.256c0 2.554.828 3.815 2.612 3.815 1.785 0 2.579-1.261 2.579-3.815v-9.256h.429c.791 0 1.43-.104 1.937-.303a10.22 10.22 0 0 0-.946 4.35c0 5.342 3.901 9.257 9.023 9.257 4.53 0 7.834-2.322 7.834-4.38 0-1.195-.827-2.023-2.081-2.023-1.189 0-2.875 1.692-5.487 1.692-2.248 0-3.7-1.16-3.932-3.118h9.32c1.754 0 2.578-.331 2.578-2.123-.002-4.679-3.507-8.66-8.497-8.66Zm-34.97 13.537c-1.918 0-3.372-1.627-3.372-4.283 0-2.587 1.488-4.18 3.371-4.18 1.884 0 3.339 1.627 3.339 4.18-.003 2.59-1.421 4.283-3.339 4.283Zm31.497-6.17c.364-1.925 1.753-3.121 3.505-3.121 1.751 0 3.239 1.295 3.371 3.12h-6.876Zm14.71 11.013c1.785 0 2.579-1.261 2.579-3.815V37.815c0-2.554-.828-3.815-2.579-3.815-1.782 0-2.609 1.261-2.609 3.815V55.73c0 2.554.827 3.815 2.609 3.815Zm10.878.167c1.783 0 3.305-.697 4.363-1.99.562 1.262 1.322 1.823 2.478 1.823 1.753 0 2.578-1.261 2.578-3.815V45.213c0-2.554-.794-3.782-2.578-3.782-1.057 0-1.882.598-2.478 1.661-1.056-1.261-2.38-1.86-4.165-1.86-4.431 0-8.099 3.949-8.099 9.258-.003 5.473 3.635 9.222 7.901 9.222Zm.856-13.47c1.884 0 3.341 1.626 3.341 4.18 0 2.587-1.423 4.282-3.341 4.282-1.917 0-3.369-1.627-3.369-4.282 0-2.588 1.486-4.18 3.369-4.18Zm19.537-4.91c-2.016 0-3.437.499-4.595 1.76-.627-1.128-1.454-1.66-2.477-1.66-1.784 0-2.612 1.227-2.612 3.78V55.73c0 2.554.828 3.815 2.612 3.815 1.785 0 2.61-1.261 2.61-3.815V49.76c0-2.622.794-3.983 2.776-3.983 2.118 0 2.81 1.295 2.81 4.048v5.904c0 2.554.827 3.815 2.612 3.815 1.785 0 2.612-1.261 2.612-3.815V48.23c0-4.544-2.284-6.899-6.348-6.899Z"/></g><defs><clipPath id="a"><path fill="#fff" transform="translate(76.676 34)" d="M0 0h106v54H0z"/></clipPath></defs></svg>