<svg width="260" height="120" fill="none" xmlns="http://www.w3.org/2000/svg"><path fill="#F1F1F1" d="M0 0h260v120H0z"/><path opacity=".251" fill-rule="evenodd" clip-rule="evenodd" d="M173.529 10.977v.251H85.937v87.82h-.251V10.978h87.843Z" fill="#DB212B"/><path fill-rule="evenodd" clip-rule="evenodd" d="M173.28 11.234h.251v.504c-.168 0-.251.083-.251.251-.251 28.812-.335 57.666-.251 86.562h-86.84V11.486c29.073.084 58.103 0 87.091-.252Z" fill="#E20713"/><path fill-rule="evenodd" clip-rule="evenodd" d="M173.279 11.234a7532.69 7532.69 0 0 1-87.09.252v87.065h86.839c-.084-28.896 0-57.75.251-86.562v86.814c-29.073-.084-58.103 0-87.09.252h-.251v-87.82h87.341Z" fill="#EC000A"/><path fill-rule="evenodd" clip-rule="evenodd" d="M136.888 92.008a7.867 7.867 0 0 1-.502.503c-3.676.58-7.357.622-11.043.126a1.387 1.387 0 0 1-.753-.378c4.107.606 8.207.522 12.298-.251Z" fill="#DD3A3C"/><path fill-rule="evenodd" clip-rule="evenodd" d="M140.401 91.25c-.99.535-2.077.787-3.262.755a15.487 15.487 0 0 1 3.262-.755Z" fill="#DD4C4E"/><path fill-rule="evenodd" clip-rule="evenodd" d="M92.461 50.234a40.387 40.387 0 0 0 .502 11.827c8.742.251 17.526.335 26.353.252v28.686a807.658 807.658 0 0 1-.251-28.435H92.712a28.594 28.594 0 0 1-.753-7.8c.001-1.604.169-3.113.502-4.53Z" fill="#E11822"/><path fill-rule="evenodd" clip-rule="evenodd" d="M167.256 58.29a34.286 34.286 0 0 0 0 3.9 22.626 22.626 0 0 1-1.506 3.9 160.487 160.487 0 0 0 1.506-7.8Z" fill="#DF3E3E"/><path fill-rule="evenodd" clip-rule="evenodd" d="M92.965 62.063h26.604V91h-.251V62.314c-8.827.084-17.612 0-26.353-.252Z" fill="#CB4A4F"/><path fill-rule="evenodd" clip-rule="evenodd" d="M163.992 39.667a.718.718 0 0 1 .628.252 27.423 27.423 0 0 1 1.882 7.297 36.237 36.237 0 0 0-2.51-7.549Z" fill="#DF3839"/><path fill-rule="evenodd" clip-rule="evenodd" d="M163.74 17.523c2.384-.334 3.513.673 3.388 3.02-.694 1.427-1.824 1.889-3.388 1.384-1.63-1.447-1.63-2.915 0-4.404Z" fill="#FEDFE0"/><path fill-rule="evenodd" clip-rule="evenodd" d="M163.99 18.027c1.573-.348 2.493.239 2.761 1.761-.386 1.893-1.432 2.396-3.137 1.51-.89-1.212-.764-2.303.376-3.271Z" fill="#E63636"/><path fill-rule="evenodd" clip-rule="evenodd" d="M163.994 18.532c1.856-.41 2.358.178 1.506 1.762.12.246.287.456.502.63-.167.167-.334.167-.502 0-.541-1.195-.96-1.153-1.255.125a6.548 6.548 0 0 1-.251-2.517Z" fill="#FEE7E8"/><path fill-rule="evenodd" clip-rule="evenodd" d="M164.494 18.781h1.004v.755h-1.004v-.755Z" fill="#E7403E"/><path fill-rule="evenodd" clip-rule="evenodd" d="M138.141 18.274c11.862 3.168 20.479 10.297 25.851 21.39a36.237 36.237 0 0 1 2.51 7.548c.657 3.657.908 7.347.753 11.072a158.123 158.123 0 0 1-1.506 7.801c-4.283 12.599-12.733 20.987-25.349 25.163-1.142.14-2.23.392-3.262.755h-.251a36.842 36.842 0 0 1-12.298.252 21.46 21.46 0 0 1-5.02-1.258V62.059H92.965a40.383 40.383 0 0 1-.502-11.827C95.1 35.17 103.55 24.853 117.812 19.281c6.692-1.938 13.469-2.273 20.329-1.006Z" fill="#FEFDFD"/><path fill-rule="evenodd" clip-rule="evenodd" d="M138.643 75.898a86.865 86.865 0 0 1-.251 9.31c-.74.233-1.493.4-2.259.504a.568.568 0 0 1 .251-.377 9.746 9.746 0 0 0 1.757-.378c.167-3.06.334-6.08.502-9.059Z" fill="#CD3033"/><path fill-rule="evenodd" clip-rule="evenodd" d="M138.643 69.86c6.193-.084 12.383 0 18.572.251-.031.153-.115.237-.251.252l-18.321-.504Z" fill="#EF4E57"/><path fill-rule="evenodd" clip-rule="evenodd" d="M159.727 63.57a221.09 221.09 0 0 1-21.082.504v5.787a19.09 19.09 0 0 1 0-6.165 882.388 882.388 0 0 1 21.082-.125Z" fill="#DA3435"/><path fill-rule="evenodd" clip-rule="evenodd" d="M131.865 57.281h28.612c-9.411.251-18.864.335-28.361.252-.042 9.478 0 18.957.126 28.434a13.806 13.806 0 0 1 3.639-.251 9.608 9.608 0 0 1-3.263.503h-.753V57.281Z" fill="#E11F27"/><path fill-rule="evenodd" clip-rule="evenodd" d="M160.478 57.281c.234.269.318.604.251 1.007a13.55 13.55 0 0 1-1.004 5.284c-7.028-.042-14.055 0-21.082.126a19.09 19.09 0 0 0 0 6.165l18.321.503a23.851 23.851 0 0 1-3.764 5.41c-4.852.126-9.704.168-14.557.126-.168 2.98-.335 6-.502 9.059a9.728 9.728 0 0 1-1.757.377.568.568 0 0 0-.251.378h-.251a13.806 13.806 0 0 0-3.639.252c-.126-9.478-.168-18.957-.126-28.435 9.497.083 18.95 0 28.361-.252Z" fill="#E30713"/><path fill-rule="evenodd" clip-rule="evenodd" d="M131.866 57.031V86.221h.753c-.268.235-.603.319-1.004.251-.083-9.856 0-19.67.251-29.44Z" fill="#E58489"/><path fill-rule="evenodd" clip-rule="evenodd" d="M131.865 57.283v-.252h29.114c.071.482-.012.901-.251 1.258.067-.402-.017-.737-.251-1.006h-28.612Z" fill="#C3383B"/><path fill-rule="evenodd" clip-rule="evenodd" d="M98.737 51.242v1.762h7.028c-.076-.644.008-1.232.251-1.762v2.013h-7.53c-.076-.726.007-1.397.251-2.013Z" fill="#F37C83"/><path fill-rule="evenodd" clip-rule="evenodd" d="M133.371 24.067c.993-.062 1.914.106 2.761.504a29.67 29.67 0 0 0-4.016-.252v28.435h28.612v-1.51c.243.53.327 1.117.251 1.761h-29.114V24.067h1.506Z" fill="#DB212C"/><path fill-rule="evenodd" clip-rule="evenodd" d="M100.244 44.953a79.3 79.3 0 0 0-1.255 7.8h6.526a6.45 6.45 0 0 1 .502-2.893c.079-.921-.13-1.047-.628-.377-.156-.495-.031-.914.377-1.259l.502.252c.141-.514.392-.934.753-1.258a49.446 49.446 0 0 0-1.004 4.026c-.243.53-.327 1.117-.251 1.761h-7.028v-1.761a19.256 19.256 0 0 1 1.506-6.29Z" fill="#DC272D"/><path fill-rule="evenodd" clip-rule="evenodd" d="M138.895 46.21h21.082c.412 1.654.663 3.332.753 5.034a7.88 7.88 0 0 1-.628-2.517 1.99 1.99 0 0 0-.502 1.007l-.125-.504c.212-.91.296-1.833.251-2.767-6.987.083-13.931 0-20.831-.252Z" fill="#DE2A2F"/><path fill-rule="evenodd" clip-rule="evenodd" d="M136.133 24.572a4.596 4.596 0 0 1 2.259.504c.167 7.087.334 14.132.502 21.137 6.9.251 13.844.335 20.831.252.045.934-.039 1.857-.251 2.767l.126.504c.072-.389.239-.724.502-1.007.078.904.287 1.742.627 2.517v1.51h-28.612V24.32a29.653 29.653 0 0 1 4.016.251Z" fill="#E30713"/><path fill-rule="evenodd" clip-rule="evenodd" d="M125.844 24.068c.614-.245 1.284-.328 2.008-.251v29.44a49.204 49.204 0 0 1-7.028-.25h6.777V24.067h-1.757Z" fill="#F05761"/><path fill-rule="evenodd" clip-rule="evenodd" d="M125.843 24.064h1.757v28.938h-6.776v-3.774a99.8 99.8 0 0 1-10.04-.755 13.328 13.328 0 0 1 3.263-6.04 47.608 47.608 0 0 1 6.777-.251 86.866 86.866 0 0 0-.251-9.31c-6.599 2.84-11.117 7.621-13.553 14.343-.361.324-.611.743-.753 1.258l-.502-.252c-.408.345-.533.764-.377 1.258.498-.669.707-.543.628.378a6.45 6.45 0 0 0-.502 2.894h-6.526c.292-2.64.71-5.24 1.255-7.801 3.87-10.714 11.315-17.55 22.337-20.508 1.072-.27 2.16-.396 3.263-.378Z" fill="#E30914"/><path fill-rule="evenodd" clip-rule="evenodd" d="M110.785 48.477c3.297.417 6.643.669 10.039.755h-10.29c-.059-.325.024-.577.251-.755Z" fill="#F04F5A"/><path fill-rule="evenodd" clip-rule="evenodd" d="M133.372 24.068h-1.506v28.938h29.114c-9.746.251-19.534.335-29.365.251v-29.44c.642-.077 1.228.007 1.757.25Z" fill="#EB7F86"/><path fill-rule="evenodd" clip-rule="evenodd" d="M138.142 18.28c-6.861-1.267-13.637-.931-20.33 1.007a6.213 6.213 0 0 1 2.008-.881c1.523-.353 3.029-.689 4.518-1.007 3.514-.168 7.027-.168 10.541 0 1.149.189 2.236.483 3.263.881Z" fill="#DF3236"/><path fill-rule="evenodd" clip-rule="evenodd" d="M173.531 11.734v87.317H86.189a7530.38 7530.38 0 0 1 87.091-.251V11.986c0-.168.083-.252.251-.252Z" fill="#E4141D"/><path opacity=".251" fill-rule="evenodd" clip-rule="evenodd" d="M173.529 10.977c.251 29.399.334 58.84.251 88.323-29.407.084-58.772 0-88.094-.251h87.843V10.977Z" fill="#BE3437"/><path opacity=".963" fill-rule="evenodd" clip-rule="evenodd" d="M85.937 104.844c.332.737.499 1.575.502 2.516l-.25 2.516a25.431 25.431 0 0 1-.252-5.032Z" fill="#1C1C1C"/><path opacity=".752" fill-rule="evenodd" clip-rule="evenodd" d="M94.72 104.844h3.013v.755h-1.255v4.277h-.753v-4.277H94.72v-.755Z" fill="#1C1C1C"/><path opacity=".762" fill-rule="evenodd" clip-rule="evenodd" d="M106.267 104.844h1.004l1.254 5.032a.772.772 0 0 1-.752-.251c-.097-1.095-.683-1.514-1.757-1.258l-.251 1.509h-.753a54.794 54.794 0 0 1 1.255-5.032Zm.251 1.51c.43.285.597.705.502 1.258a1.243 1.243 0 0 1-.753-.126c.22-.341.304-.719.251-1.132Z" fill="#1B1B1B"/><path opacity=".732" fill-rule="evenodd" clip-rule="evenodd" d="M116.557 104.844h.753v4.278h2.007v.754h-2.76v-5.032ZM127.35 104.844h.753v5.032h-.753v-5.032Z" fill="#1C1C1C"/><path opacity=".76" fill-rule="evenodd" clip-rule="evenodd" d="M137.388 104.844h1.004l1.255 5.032a.773.773 0 0 1-.753-.251c-.097-1.095-.683-1.514-1.757-1.258l-.251 1.509h-.753a42.046 42.046 0 0 1 1.255-5.032Zm.251 1.51c.359.322.526.741.502 1.258a.776.776 0 0 1-.753-.252c.187-.311.271-.647.251-1.006Z" fill="#1B1B1B"/><path opacity=".965" fill-rule="evenodd" clip-rule="evenodd" d="M154.957 104.844h9.286v5.032h-9.286v-5.032Z" fill="#FEFEFE"/><path opacity=".753" fill-rule="evenodd" clip-rule="evenodd" d="M164.244 104.844h9.537v5.032h-9.537v-5.032Z" fill="#BE393D"/><path fill-rule="evenodd" clip-rule="evenodd" d="M154.957 104.844v5.032h-9.537v-5.032h9.537Z" fill="#148D3A"/><path fill-rule="evenodd" clip-rule="evenodd" d="M164.494 105.094h9.035v4.529h-9.035v-4.529Z" fill="#E30613"/></svg>