<svg width="260" height="120" fill="none" xmlns="http://www.w3.org/2000/svg"><path fill="#F1F1F1" d="M0 0h260v120H0z"/><path d="M260 29H0v42.074h260V29Z" fill="#E63312"/><path d="M171.339 45.102h-7.462v1.818h7.462v-1.818Z" fill="#F1F1F1"/><path d="M179.873 60.355a4.697 4.697 0 0 0 6.539 1.336 4.691 4.691 0 0 0 2.105-3.933v-3.154l5.763 5.306 5.726-5.306v3.154c-.074 2.597 1.995 4.786 4.581 4.86 2.586.075 4.766-1.966 4.84-4.6V41.952c0-2.597-2.106-4.749-4.692-4.749a4.743 4.743 0 0 0-3.214 1.262l-7.278 6.715-7.277-6.715c-1.921-1.781-4.877-1.633-6.65.296-.702.78-1.145 1.744-1.219 2.82-1.552-2.671-4.396-4.34-7.462-4.34h-10.861c-2.586 0-4.729 2.114-4.729 4.711v2.56a12.535 12.535 0 0 0-11.378-7.272h-4.692a12.503 12.503 0 0 0-9.383 4.23 4.729 4.729 0 0 0-4.692-4.23h-16.033a4.66 4.66 0 0 0-3.953 2.19c-1.404-2.19-4.322-2.858-6.502-1.448-.221.149-.443.297-.628.483l-5.393 4.971-5.394-4.971a4.707 4.707 0 0 0-6.65.296c-.184.186-.332.409-.48.631a4.658 4.658 0 0 0-3.953-2.189H60.883c-2.586 0-4.729 2.115-4.729 4.712V54.16c-.85-.78-1.995-1.187-3.14-1.187H42.04c-.185 0-.295-.149-.332-.334V41.952a4.716 4.716 0 0 0-4.73-4.712c-1.588 0-3.028.816-3.915 2.115a4.707 4.707 0 0 0-3.916-2.115h-16.07c-2.586 0-4.691 2.078-4.728 4.712v15.806a4.719 4.719 0 0 0 4.58 4.86c2.586.075 4.766-1.966 4.84-4.6v-3.154c0-.186.148-.334.332-.297h4.396c2.586 0 4.692-2.115 4.692-4.749 0-1.15-.406-2.263-1.182-3.154h3.103c1.145 0 2.29-.445 3.14-1.187v12.244c0 2.597 2.106 4.749 4.729 4.749h16.033a4.646 4.646 0 0 0 3.916-2.152c.886 1.299 2.327 2.115 3.916 2.115H76.84a4.658 4.658 0 0 0 3.953-2.19c1.403 2.19 4.322 2.858 6.501 1.448.222-.149.444-.297.628-.483l5.394-4.934 5.394 4.971a4.707 4.707 0 0 0 6.649-.296c.185-.186.333-.408.48-.631 1.404 2.189 4.323 2.857 6.502 1.447 1.367-.853 2.18-2.375 2.18-3.97v-2.857c0-.185.148-.297.332-.297h4.433c2.586 0 4.692-2.115 4.692-4.749a4.8 4.8 0 0 0-1.182-3.116h3.103a4.61 4.61 0 0 0 1.995-.446c-1.995 6.679 1.773 13.691 8.423 15.695 1.182.37 2.401.52 3.62.52h4.692c4.876 0 9.309-2.858 11.378-7.273v2.56c-.074 2.597 1.995 4.786 4.581 4.86 2.586.075 4.765-1.966 4.839-4.6V54.604l7.315 6.679a4.751 4.751 0 0 0 6.686-.334c.148-.186.296-.371.444-.594Z" fill="#F1F1F1"/><path d="M160.736 60.76c-1.662 0-3.029-1.373-3.029-3.043V41.95c0-1.67 1.367-3.043 3.029-3.043h10.861c3.842 0 6.945 3.154 6.945 7.013 0 2.337-1.145 4.526-3.103 5.788a.894.894 0 0 0-.258 1.224.29.29 0 0 0 .148.148l2.585 2.338c1.183 1.187 1.146 3.116-.036 4.304-1.109 1.076-2.845 1.187-4.027.222l-8.608-7.865c-.369-.334-.923-.297-1.256.11a.818.818 0 0 0-.221.557v4.935c.037 1.744-1.33 3.117-3.03 3.08.037.037.037.037 0 0Z" fill="#E63312"/><path d="M171.597 39.02c3.805 0 6.872 3.079 6.872 6.9 0 2.3-1.146 4.453-3.03 5.714-.443.297-.591.928-.258 1.373a.809.809 0 0 0 .148.186l2.586 2.337a2.948 2.948 0 0 1 .258 4.156 2.917 2.917 0 0 1-4.137.26l-.037-.038-8.608-7.866a.99.99 0 0 0-1.404.075c-.147.185-.258.408-.258.668v4.934c.074 1.633-1.182 3.005-2.808 3.042a2.886 2.886 0 0 1-3.029-2.82v-15.99a2.907 2.907 0 0 1 2.918-2.931h10.787Zm0-.223h-10.861a3.144 3.144 0 0 0-3.14 3.154v15.805a3.15 3.15 0 0 0 2.956 3.34c1.736.11 3.214-1.225 3.324-2.969v-5.342a.76.76 0 0 1 .776-.78c.185 0 .37.075.517.186l8.608 7.866a3.147 3.147 0 0 0 4.433-.371c1.071-1.262.998-3.154-.222-4.304l-2.586-2.338c-.036-.037-.073-.074-.11-.148-.259-.371-.148-.854.184-1.113h.037c3.251-2.19 4.101-6.605 1.921-9.87a7.027 7.027 0 0 0-5.837-3.116Z" fill="#F1F1F1"/><path d="M80.829 54.973c-.887-1.299-2.365-2.115-3.953-2.115H74.03c1.441-1.781 1.441-4.341 0-6.085h2.845a4.78 4.78 0 0 0 3.953-2.078c.221.297.443.594.702.817l4.691 4.303-4.691 4.341c-.26.26-.48.52-.702.817Z" fill="#E63312"/><path d="M80.83 44.879c.184.26.406.482.627.705l4.618 4.267-4.618 4.23c-.221.222-.443.444-.628.704-.923-1.261-2.4-2.04-3.952-2.003h-2.66a4.97 4.97 0 0 0 0-5.9h2.66a4.91 4.91 0 0 0 3.952-2.003Zm0-.371a4.658 4.658 0 0 1-3.953 2.189h-3.104c1.589 1.78 1.589 4.526 0 6.307h3.104c1.588 0 3.103.817 3.952 2.19.222-.335.48-.669.776-.928l4.766-4.415-4.766-4.416c-.295-.26-.554-.593-.776-.927Z" fill="#F1F1F1"/><path d="m100.521 49.849 4.544-4.193v8.385l-4.544-4.192Z" fill="#E63312"/><path d="M104.954 45.88v7.94l-4.285-3.97 4.285-3.97Zm.222-.482-.037.037-4.766 4.416 4.766 4.378.037.037v-8.868Z" fill="#F1F1F1"/><path d="M179.06 54.19v-3.932a8.232 8.232 0 0 1-1.847 2.226l1.884 1.707" fill="#E63312"/><path d="M179.06 54.19v-3.932a8.232 8.232 0 0 1-1.847 2.226l1.884 1.707" stroke="#F1F1F1" stroke-width=".57" stroke-miterlimit="10"/><path d="M13.076 60.76c-1.662 0-3.03-1.373-3.03-3.043V41.95c0-1.67 1.368-3.043 3.03-3.043H29.11c1.662 0 3.03 1.373 3.03 3.043 0 1.67-1.368 3.042-3.03 3.042H17.03a.9.9 0 0 0-.887.89.9.9 0 0 0 .887.891h5.504c1.663 0 3.03 1.373 3.03 3.042 0 1.67-1.367 3.043-3.03 3.043H18.1a1.99 1.99 0 0 0-1.995 2.003v2.857a3.026 3.026 0 0 1-3.029 3.043Z" fill="#E63312"/><path d="M29.11 39.02a2.93 2.93 0 0 1 0 5.862H17.03a.995.995 0 0 0-.998 1.001.995.995 0 0 0 .997 1.002h5.505c1.625 0 2.918 1.336 2.918 2.931a2.93 2.93 0 0 1-2.918 2.931H18.1a2.11 2.11 0 0 0-2.106 2.115v2.857a2.931 2.931 0 0 1-2.918 2.931c-1.589 0-2.919-1.335-2.919-2.93V41.95a2.93 2.93 0 0 1 2.919-2.93H29.11Zm0-.223H13.077a3.144 3.144 0 0 0-3.14 3.154v15.805c-.074 1.744 1.256 3.228 2.992 3.302 1.736.075 3.177-1.261 3.288-2.968v-3.153c0-1.04.85-1.893 1.884-1.893h4.396c1.736-.074 3.066-1.558 2.992-3.302a3.139 3.139 0 0 0-2.992-3.005h-5.468c-.406.111-.85-.186-.923-.594-.11-.408.185-.853.591-.927.074 0 .148-.038.222 0h12.19c1.737-.075 3.067-1.559 2.993-3.303-.074-1.706-1.367-3.005-2.992-3.116Z" fill="#F1F1F1"/><path d="M36.98 60.76c-1.662 0-3.029-1.373-3.029-3.043V41.95c0-1.67 1.367-3.043 3.03-3.043 1.662 0 3.029 1.373 3.029 3.043V52.67a1.99 1.99 0 0 0 1.995 2.004h11.008c1.663 0 3.03 1.373 3.03 3.042 0 1.67-1.367 3.043-3.03 3.043H36.98Z" fill="#E63312"/><path d="M36.98 39.02c1.625 0 2.918 1.335 2.918 2.93v10.723a2.11 2.11 0 0 0 2.106 2.115h11.009c1.625 0 2.918 1.336 2.918 2.931a2.93 2.93 0 0 1-2.918 2.931H36.98a2.93 2.93 0 0 1-2.918-2.93V41.95a2.907 2.907 0 0 1 2.918-2.93Zm0-.223a3.144 3.144 0 0 0-3.14 3.154v15.805a3.144 3.144 0 0 0 3.14 3.154h16.033c1.736-.074 3.066-1.558 2.992-3.302a3.139 3.139 0 0 0-2.992-3.005H42.004a1.896 1.896 0 0 1-1.884-1.893V41.95c-.037-1.743-1.44-3.153-3.14-3.153Z" fill="#F1F1F1"/><path d="M60.807 60.76c-1.663 0-3.03-1.373-3.03-3.043V41.95c0-1.67 1.367-3.043 3.03-3.043H76.84c1.662 0 3.029 1.373 3.029 3.043 0 1.67-1.367 3.042-3.03 3.042H64.76a.9.9 0 0 0-.886.89c0 .483.406.891.886.891h5.505c1.662 0 3.03 1.373 3.03 3.042 0 1.67-1.368 3.043-3.03 3.043h-5.505a.9.9 0 0 0-.886.89.9.9 0 0 0 .886.89h12.08c1.663 0 3.03 1.373 3.03 3.043 0 1.67-1.367 3.042-3.03 3.042l-16.032.038Z" fill="#E63312"/><path d="M76.876 39.02a2.931 2.931 0 0 1 0 5.862h-12.08a.995.995 0 0 0-.998 1.001.995.995 0 0 0 .998 1.002H70.3c1.626 0 2.919 1.336 2.919 2.931a2.93 2.93 0 0 1-2.919 2.931h-5.504a.995.995 0 0 0-.998 1.002.995.995 0 0 0 .998 1.002h12.08c1.625 0 2.918 1.336 2.918 2.931a2.931 2.931 0 0 1-2.918 2.931H60.843a2.907 2.907 0 0 1-2.918-2.931V41.951a2.93 2.93 0 0 1 2.918-2.931h16.033Zm-.037-.223H60.806a3.144 3.144 0 0 0-3.14 3.154v15.805a3.144 3.144 0 0 0 3.14 3.154H76.84c1.736-.074 3.066-1.558 2.992-3.302a3.139 3.139 0 0 0-2.992-3.005H64.76c-.443.037-.813-.297-.85-.742a.792.792 0 0 1 .74-.854h5.614c1.737-.074 3.067-1.558 2.993-3.302a3.139 3.139 0 0 0-2.993-3.005H64.76c-.443.037-.813-.297-.85-.742a.792.792 0 0 1 .74-.854h12.19c1.736-.074 3.066-1.558 2.992-3.302-.074-1.595-1.367-2.894-2.992-3.005Z" fill="#F1F1F1"/><path d="M101.961 60.758a3.026 3.026 0 0 1-2.069-.817l-5.91-5.454a.837.837 0 0 0-.591-.222.837.837 0 0 0-.592.222l-5.91 5.454c-1.22 1.15-3.14 1.04-4.286-.185-1.145-1.224-1.034-3.154.185-4.304l5.394-4.972c.37-.334.37-.89.037-1.261l-.037-.074-5.43-4.935c-1.257-1.113-1.405-3.043-.296-4.304 1.108-1.261 3.029-1.41 4.285-.297l.11.111 5.912 5.455c.147.148.369.222.59.222a.837.837 0 0 0 .592-.222l5.91-5.454c1.22-1.15 3.141-1.04 4.286.185 1.145 1.224 1.034 3.154-.185 4.304l-5.394 4.972c-.369.334-.369.89-.037 1.261l.037.074 5.394 4.972c1.219 1.15 1.33 3.08.185 4.304a3.103 3.103 0 0 1-2.254 1.002h.074v-.037Z" fill="#E63312"/><path d="M101.961 39.017c1.625 0 2.918 1.335 2.918 2.93a2.99 2.99 0 0 1-.96 2.19l-5.43 4.971a1.001 1.001 0 0 0-.075 1.41l.074.075 5.431 4.971c1.182 1.113 1.219 3.005.111 4.156-1.072 1.15-2.882 1.224-4.064.185l-5.91-5.454a.934.934 0 0 0-1.33 0l-5.911 5.454c-1.183 1.113-3.03 1.002-4.138-.185-1.108-1.188-.997-3.043.185-4.156l5.393-4.971c.185-.186.296-.446.333-.706 0-.26-.074-.519-.259-.704l-.074-.075-5.43-5.008c-1.182-1.114-1.293-2.969-.185-4.156 1.108-1.187 2.956-1.299 4.138-.185l5.91 5.454c.37.37.961.37 1.33 0l5.911-5.454c.554-.483 1.256-.78 1.995-.78m0-.185c-.776 0-1.552.297-2.106.816l-5.91 5.454a.728.728 0 0 1-.518.223.728.728 0 0 1-.517-.223l-5.91-5.454c-1.294-1.187-3.251-1.076-4.434.186-1.182 1.261-1.071 3.265.185 4.452l5.43 4.972.037.037a.81.81 0 0 1-.036 1.113l-5.43 4.972c-1.294 1.187-1.368 3.19-.223 4.452 1.183 1.299 3.177 1.373 4.433.223l5.911-5.455a.728.728 0 0 1 .517-.222c.185 0 .37.074.518.222l5.91 5.455c1.293 1.187 3.251 1.075 4.433-.186 1.183-1.299 1.072-3.265-.184-4.452l-5.394-4.972-.037-.037a.81.81 0 0 1 .037-1.113l5.431-4.972c1.293-1.187 1.367-3.154.184-4.452-.591-.631-1.44-1.04-2.29-1.04h-.037Z" fill="#F1F1F1"/><path d="M109.867 60.76a3.026 3.026 0 0 1-3.029-3.043V41.95c0-1.67 1.367-3.043 3.029-3.043H125.9c1.663 0 3.029 1.373 3.029 3.043 0 1.67-1.366 3.042-3.029 3.042h-12.08a.901.901 0 0 0-.887.89c0 .483.407.891.887.891h5.504c1.663 0 3.03 1.373 3.03 3.042 0 1.67-1.367 3.043-3.03 3.043h-4.433c-1.108 0-1.995.89-1.995 2.003v2.857a3.025 3.025 0 0 1-3.029 3.043Z" fill="#E63312"/><path d="M125.9 39.02a2.931 2.931 0 0 1 0 5.862h-12.08a.995.995 0 0 0-.997 1.001.995.995 0 0 0 .997 1.002h5.505c1.625 0 2.918 1.336 2.918 2.931a2.93 2.93 0 0 1-2.918 2.931h-4.433a2.109 2.109 0 0 0-2.106 2.115v2.857c.074 1.633-1.182 3.005-2.808 3.042a2.886 2.886 0 0 1-3.029-2.82v-15.99a2.93 2.93 0 0 1 2.918-2.931H125.9Zm0-.223h-15.996a3.144 3.144 0 0 0-3.14 3.154v15.805a3.15 3.15 0 0 0 2.956 3.34c1.736.11 3.214-1.225 3.324-2.969v-3.19c0-1.04.85-1.893 1.885-1.893h4.433c1.736-.074 3.066-1.558 2.992-3.302a3.139 3.139 0 0 0-2.992-3.005h-5.505c-.443.037-.813-.297-.849-.742a.792.792 0 0 1 .738-.854h12.191c1.737-.074 3.067-1.558 2.993-3.302-.111-1.67-1.404-2.968-3.03-3.042Z" fill="#F1F1F1"/><path d="M139.974 60.758c-6.021 0-10.898-4.898-10.898-10.946 0-6.047 4.877-10.945 10.898-10.945h4.692c6.021 0 10.898 4.898 10.898 10.945 0 6.048-4.877 10.946-10.898 10.946h-4.692Z" fill="#E63312"/><path d="M144.629 39.02c5.948 0 10.787 4.86 10.787 10.833 0 5.974-4.839 10.834-10.787 10.834h-4.692c-5.947 0-10.787-4.86-10.787-10.834 0-5.973 4.84-10.834 10.824-10.834h4.655Zm0-.223h-4.692c-6.058.111-10.898 5.157-10.787 11.242.111 5.936 4.877 10.722 10.787 10.834h4.692c6.059-.111 10.898-5.157 10.787-11.242-.074-5.937-4.876-10.723-10.787-10.834Z" fill="#F1F1F1"/><path d="M141.008 54.455c-2.549 0-4.617-2.077-4.617-4.637 0-2.56 2.068-4.638 4.617-4.638h2.586c2.549 0 4.618 2.077 4.618 4.638 0 2.56-2.069 4.637-4.618 4.637h-2.586Z" fill="#F1F1F1"/><path d="M143.595 45.326c2.475 0 4.507 2.04 4.507 4.527 0 2.486-2.032 4.526-4.507 4.526h-2.586c-2.475 0-4.507-2.04-4.507-4.526 0-2.486 2.032-4.527 4.507-4.527h2.586Zm0-.223h-2.586c-2.586-.074-4.765 1.967-4.876 4.564-.074 2.597 1.958 4.786 4.544 4.898h2.881c2.586-.075 4.655-2.264 4.581-4.86a4.656 4.656 0 0 0-4.544-4.602Z" fill="#F1F1F1"/><path d="M204.734 60.76c-1.663 0-2.993-1.373-3.03-3.043v-4.934a.9.9 0 0 0-.886-.89.901.901 0 0 0-.591.222l-5.948 5.454-5.948-5.454a.88.88 0 0 0-1.256.074.844.844 0 0 0-.222.594v4.971c0 1.67-1.366 3.043-3.029 3.043-1.662 0-3.029-1.373-3.029-3.043V41.95c0-1.67 1.367-3.043 3.029-3.043.776 0 1.478.297 2.032.816l8.423 7.755 8.423-7.755c1.219-1.15 3.14-1.038 4.285.186.517.557.813 1.299.813 2.04v15.806c-.037 1.67-1.404 3.043-3.066 3.006 0 .037 0 .037 0 0Z" fill="#E63312"/><path d="M183.787 39.02c.739 0 1.441.26 1.995.779l8.349 7.68.148.111.148-.111 8.349-7.68c1.182-1.113 3.029-1.04 4.137.185.517.557.776 1.262.776 2.004v15.805a2.931 2.931 0 0 1-2.919 2.931c-1.588 0-2.918-1.335-2.918-2.93v-5.01a.995.995 0 0 0-.997-1.001.886.886 0 0 0-.665.26l-5.874 5.416-5.874-5.417a.99.99 0 0 0-1.404.075c-.185.185-.258.408-.258.668v4.934c.073 1.633-1.183 3.005-2.808 3.042a2.885 2.885 0 0 1-3.029-2.82v-15.99c-.111-1.633 1.219-2.931 2.844-2.931Zm0-.223a3.144 3.144 0 0 0-3.14 3.154v15.805a3.15 3.15 0 0 0 2.955 3.34c1.737.11 3.214-1.225 3.325-2.969v-5.342c0-.446.37-.78.776-.78.185 0 .369.075.517.223l6.022 5.565 6.021-5.528a.802.802 0 0 1 1.109.037.736.736 0 0 1 .221.52v4.934a3.144 3.144 0 0 0 3.14 3.154 3.145 3.145 0 0 0 3.141-3.154V41.951a3.145 3.145 0 0 0-3.141-3.154c-.775 0-1.551.297-2.105.816l-8.349 7.68-8.349-7.68c-.628-.52-1.367-.816-2.143-.816Z" fill="#F1F1F1"/><path d="M141.01 52.897c-1.663 0-3.03-1.372-3.03-3.042 0-1.67 1.367-3.042 3.03-3.042h2.586c1.662 0 3.029 1.372 3.029 3.042 0 1.67-1.367 3.042-3.029 3.042h-2.586Z" fill="#E63312"/><path d="M143.596 46.884c1.625 0 2.918 1.335 2.918 2.93a2.93 2.93 0 0 1-2.918 2.932h-2.586c-1.626 0-2.919-1.336-2.919-2.931 0-1.596 1.33-2.931 2.919-2.931h2.586Zm0-.186h-2.586a3.146 3.146 0 0 0-3.288 3.006 3.168 3.168 0 0 0 2.955 3.302H143.559c1.736-.075 3.066-1.559 2.992-3.302a3.079 3.079 0 0 0-2.955-3.006ZM164.764 45.102h5.652a.9.9 0 0 1 .886.89.9.9 0 0 1-.886.89h-5.652a.9.9 0 0 1-.887-.89.9.9 0 0 1 .887-.89Z" fill="#F1F1F1"/><path d="m10.27 79.46 3.066 8.2 3.066-8.2h1.773v9.759h-1.22v-8.126h-.036l-3.03 8.126h-1.108l-3.029-8.126h-.037v8.126H8.496V79.46h1.773ZM24.826 79.46l3.805 9.759h-1.44l-1.072-2.931h-4.1l-1.109 2.93h-1.293l3.768-9.757h1.441Zm.924 5.752-1.626-4.564h-.037l-1.662 4.564h3.325ZM33.321 79.46c1.515 0 2.66.372 3.473 1.151.812.78 1.219 1.93 1.219 3.488 0 .742-.074 1.484-.259 2.189a3.71 3.71 0 0 1-.85 1.595c-.406.445-.886.78-1.44 1.002a5.029 5.029 0 0 1-2.106.334h-3.325V79.46h3.288Zm.11 8.683c.149 0 .333 0 .555-.037.222-.037.48-.074.702-.149.258-.074.517-.222.739-.37.258-.186.48-.409.665-.669.221-.333.37-.667.48-1.075.148-.52.185-1.04.185-1.522 0-.52-.037-1.038-.185-1.558a3.492 3.492 0 0 0-.554-1.187 2.218 2.218 0 0 0-.998-.742 4.198 4.198 0 0 0-1.514-.26h-2.18v7.569h2.106ZM46.694 79.46v1.077h-5.43v3.116h5.06v1.076h-5.06v3.377h5.467v1.113h-6.76V79.46h6.723ZM54.305 79.46v9.759h-1.293V79.46h1.293ZM58.22 79.46l5.136 7.904h.036V79.46h1.256v9.758h-1.403l-5.098-7.829h-.037v7.829h-1.22V79.46h1.33ZM72.703 79.46v9.759H71.41V79.46h1.293ZM74.254 80.574v-1.113h7.758v1.076H78.76v8.682h-1.293v-8.645h-3.214ZM86.334 79.46l3.805 9.759h-1.44l-1.072-2.931h-4.1l-1.109 2.93h-1.293l3.768-9.757h1.44Zm.923 5.752-1.625-4.564h-.037l-1.662 4.564h3.324ZM92.799 79.46v8.683h5.135v1.113h-6.428v-9.795h1.293ZM101.997 89.219h-1.293v-4.007l-3.731-5.751h1.551l2.919 4.638 2.844-4.638h1.478l-3.731 5.788-.037 3.97Z" fill="#E63312"/></svg>