<svg width="260" height="120" fill="none" xmlns="http://www.w3.org/2000/svg"><path fill="#F1F1F1" d="M0 0h260v120H0z"/><g clip-path="url(#a)"><path d="M34.06 74.81 17.203 52.604v21.99H15V48.406h3.966L33.62 67.742V48.406h2.23V74.81h-1.79Zm7.685-13.026C41.745 54.5 46.262 48 54.057 48c7.795 0 12.312 6.5 12.312 13.784C66.37 69.096 61.852 75 54.057 75c-7.795 0-12.312-5.904-12.312-13.216Zm20.3 0c0-8.611-3.36-11.807-7.988-11.807-4.627 0-7.988 3.168-7.988 11.807 0 8.856 3.36 11.24 7.988 11.24s7.988-2.384 7.988-11.24ZM79.48 74.81 68.463 48.406h4.49l8.373 20.5 8.373-20.5h2.314L80.857 74.81H79.48Zm26.029-8.178H95.483l-3.222 7.989h-2.452l10.99-26.404h1.377l11.156 26.404h-4.49l-3.333-7.99Zm-5.068-12.322L96.31 64.628h8.4l-4.269-10.318Zm29.197 20.5-8.539-20.96v20.77h-2.203V48.407h4.517l7.988 20.176 8.841-20.176h4.214v26.215h-4.076V53.389l-9.365 21.394h-1.377v.027Zm20.713-13.026c0-7.285 4.517-13.784 12.312-13.784 7.795 0 12.312 6.5 12.312 13.784 0 7.312-4.517 13.216-12.312 13.216-7.795 0-12.312-5.904-12.312-13.216Zm20.3 0c0-8.611-3.361-11.807-7.988-11.807-4.655 0-7.988 3.168-7.988 11.807 0 8.856 3.36 11.24 7.988 11.24 4.655 0 7.988-2.384 7.988-11.24Zm10.053-13.378h7.878c5.867 0 9.42 2.817 9.42 6.12 0 2.79-1.488 4.956-4.159 6.148 3.911.948 6.169 3.656 6.169 6.987 0 3.385-3.277 6.96-9.42 6.96h-9.888V48.406Zm4.049 1.977v9.939h4.958c1.983 0 3.966-1.165 3.966-5.254 0-3.9-2.258-4.685-5.095-4.685h-3.829Zm0 11.943v10.48h5.867c2.837 0 5.096-1.164 5.096-5.09 0-4.253-2.259-5.39-5.096-5.39h-5.867Zm24.872 12.268h-4.076V48.406h4.076v26.188Zm7.96-26.188h4.077v24.21h12.037v1.978h-16.114V48.406ZM244 74.594h-4.076V48.406H244v26.188Z" fill="#1D1D1B"/></g><defs><clipPath id="a"><path fill="#fff" transform="translate(0 29)" d="M0 0h260v63H0z"/></clipPath></defs></svg>