<svg width="260" height="120" fill="none" xmlns="http://www.w3.org/2000/svg"><path fill="#F1F1F1" d="M0 0h260v120H0z"/><g clip-path="url(#a)" fill="#000"><path d="M120.689 20.156c-21.275 2.2-37.95 10.75-43.796 22.513-2.694 5.363-2.948 9.689-.94 15.051 3.812 10.22 18.021 19.25 35.738 22.742 17.005 3.364 36.17 1.795 51.472-4.2 12.582-4.907 20.589-12.344 22.648-21.02.254-1.013.407-2.783.407-4.352-.026-5.337-2.085-9.992-6.508-14.62-7.625-7.994-20.563-13.56-36.755-15.786-4.829-.657-17.309-.86-22.266-.328Zm17.564 1.138c13.192.885 25.647 4.78 34.722 10.827 6.303 4.224 10.523 9.612 11.819 15.127.636 2.706.407 6.45-.584 9.258-4.169 11.94-20.361 21.122-42.144 23.905-5.516.708-18.352.632-23.97-.127-19.369-2.605-34.518-10.573-40.06-21.046-1.524-2.884-2.058-5.034-2.058-8.348 0-2.53.102-3.212.737-5.135.788-2.428 2.669-5.64 4.626-7.892 4.703-5.413 14.082-10.625 24.504-13.635 10.396-2.985 19.419-3.794 32.408-2.934Z"/><path d="M120.968 22.435c-20.411 2.1-36.679 10.295-42.067 21.248-2.923 5.92-2.263 12.117 1.906 17.96 1.55 2.176 5.516 5.87 8.312 7.716 18.86 12.572 54.319 14.14 76.713 3.39 5.083-2.454 7.981-4.453 11.565-8.045 3.965-3.996 5.465-6.551 6.405-10.852 2.415-11.307-9.531-23.12-28.849-28.61-3.406-.96-8.541-1.998-12.76-2.58-4.194-.556-16.573-.683-21.225-.227Zm21.733 1.517c14.565 1.973 26.511 6.856 33.527 13.736 7.041 6.931 8.439 14.394 4.041 21.856-1.499 2.53-5.719 6.729-8.845 8.778-7.55 4.958-17.819 8.322-29.994 9.815-5.211.632-17.005.607-21.987-.026-9.583-1.214-16.827-3.187-23.486-6.349-9.558-4.579-15.48-10.346-17.209-16.746-.508-1.948-.508-5.843.026-7.791 1.88-6.957 8.921-13.559 19.19-17.91 6.813-2.884 15.506-4.983 23.767-5.742 3.838-.329 17.488-.101 20.97.38Z"/><path d="M93.136 36.5c-1.45.101-2.949.278-3.305.38-.585.151-.61.177-.127.354.28.1 1.17.253 1.983.354l1.449.177.025 11.56c.025 6.35.102 11.839.229 12.193.178.607.203.582.712-.531.28-.658.635-1.265.762-1.341.152-.076.864.354 1.576.961 1.856 1.569 2.923 2.05 4.575 2.05 2.44-.026 4.499-1.594 5.796-4.428.966-2.074 1.093-5.666.279-8.145-.915-2.858-2.592-4.68-4.905-5.287-1.831-.48-3.788.43-4.5 2.1-.559 1.366-.737.202-.737-5.312v-5.363l-.559.025c-.33.025-1.78.127-3.253.253Zm8.769 9.385c1.906.86 3.05 5.767 2.415 10.295-.356 2.631-.839 3.896-1.83 4.706-1.119.935-2.085.834-3.254-.33-1.55-1.542-2.11-3.414-2.11-7.006s.56-5.464 2.11-7.033c1.017-.986 1.576-1.138 2.669-.632ZM142.956 39.563c-.737 4.477-2.389 6.02-6.482 6.02-.838 0-2.287.076-3.228.177-1.601.127-1.728.203-1.728.734 0 .556.101.607 1.398.607.94 0 1.398.101 1.398.303 0 .405-3 4.25-3.305 4.25-.279 0-3.05-3.895-3.05-4.275 0-.177.509-.278 1.271-.278 1.195 0 1.271-.05 1.271-.632v-.633h-4.55c-4.27 0-4.55.026-4.677.48-.178.684 0 .785 1.119.785.915 0 .991.076 3.634 3.668 1.475 2.024 2.695 3.744 2.695 3.82 0 .253-4.601 5.767-5.313 6.349-.711.632-1.194.708-1.804.329-.305-.203-.407-1.34-.509-6.754-.178-7.336-.229-7.59-2.059-8.93-1.931-1.366-4.855-1.568-7.295-.506-1.525.683-2.059 1.164-2.618 2.403-.686 1.493-.635 3.036.153 3.795.711.733 1.372.784 2.414.253 1.373-.709 1.221-2.934-.254-3.491-.94-.354-.94-.531-.051-1.442 1.348-1.34 3.737-1.594 5.059-.556.533.379.584.682.635 2.934.051 2.302 0 2.53-.508 2.96-.305.227-1.042.505-1.652.607-2.059.354-4.271 1.163-5.11 1.922-2.033 1.77-1.728 6.046.534 7.336 1.957 1.138 4.194.759 5.872-.936l1.093-1.138.356.86c.178.455.534 1.012.762 1.189.915.759 9.685.86 9.863.126.025-.152-.61-.278-1.398-.329-1.195-.05-1.475-.151-1.475-.506 0-.53 3.432-4.958 3.94-5.059.382-.101 3.686 4.478 3.686 5.11 0 .329-.305.405-1.652.405-1.22 0-1.652.101-1.652.354 0 .455 4.244.759 7.625.531 1.906-.152 2.542-.278 2.542-.531s-.331-.354-1.068-.354h-1.093l-2.974-4.25c-2.084-2.985-2.897-4.326-2.745-4.604.102-.202 1.169-1.518 2.339-2.909l2.109-2.53 2.085-.075 2.059-.076.101 6.273c.077 7.184.178 7.513 2.212 8.6 1.347.71 2.821.734 4.245.102 1.067-.48 2.135-1.695 2.135-2.378 0-.708.406-.683.839.05 2.287 3.871 8.26 4.352 11.311.911 1.144-1.29 2.338-4.502 1.626-4.376-.254.05-.838.91-1.372 1.973-1.195 2.403-2.135 3.112-4.398 3.238-3.177.203-4.575-1.543-5.032-6.35l-.127-1.188h5.414c4.016 0 5.465-.076 5.643-.329.355-.43-.229-3.086-1.043-4.654-1.093-2.15-3.685-3.87-5.871-3.87-1.551 0-3.279.834-4.703 2.225-2.008 1.999-2.516 3.44-2.77 7.893-.229 3.769-.509 4.73-1.652 5.261-1.017.506-1.831.076-2.161-1.138-.153-.556-.28-3.466-.28-6.729v-5.742h4.093l-.077-.708c-.076-.683-.101-.683-2.033-.76l-1.957-.075-.076-3.719-.077-3.718-.686-.076c-.635-.076-.661-.025-.966 1.77Zm15.251 7.79c.966.962 1.474 2.278 1.576 4.301l.076 1.139-3.863.075-3.889.076.127-.708c.051-.405.178-1.214.254-1.796.254-2.049 1.423-3.693 2.821-4.073 1.119-.278 1.881-.025 2.898.987Zm-41.025 9.234c-.153 1.922-.534 2.656-1.932 3.592-2.008 1.366-3.813.228-3.813-2.403 0-2.429.89-3.39 4.067-4.376l1.398-.43.204.936c.127.506.152 1.694.076 2.681Z"/><path d="M171.781 45.834c-.28.101-1.042.784-1.703 1.518-1.246 1.391-1.373 1.366-1.5-.253l-.076-.885-3.381-.076c-3.152-.05-3.38-.025-3.304.38.051.353.381.48 1.347.53.813.051 1.398.228 1.601.481.229.329.305 2.1.305 6.83 0 6.35 0 6.4-.559 6.754-.33.203-1.067.48-1.677.633-1.246.278-1.449.379-1.195.758.229.38 10.193.38 10.421 0 .255-.379.026-.505-1.321-.758-2.034-.38-2.11-.557-2.11-5.945 0-4.477.025-4.73.635-5.92.737-1.467 2.415-3.288 3-3.288.559 0 .534.152-.077.936-.864 1.113-.584 2.403.687 3.061 2.11 1.138 4.194-1.24 3.05-3.49-.585-1.19-2.72-1.848-4.143-1.266ZM74.58 86.557c0 .505.178.505 55.921.505 55.742 0 55.92 0 55.92-.505 0-.506-.178-.506-55.92-.506-55.743 0-55.92 0-55.92.506ZM89.578 93.215a229.948 229.948 0 0 1-.89 4.654c-.178.86-.254 1.644-.178 1.72.178.177 1.067.152 1.067-.025 0-.582.865-5.11 1.043-5.413.152-.279.355-.026.813 1.011 1.525 3.44 2.186 4.807 2.288 4.807.076 0 .737-1.366 1.474-3.036s1.423-3.035 1.525-3.035c.102 0 .356 1.037.61 2.302.508 2.833.763 3.516 1.271 3.516.508 0 .508-.228-.457-5.287-.814-4.25-.865-4.351-1.271-3.744-.458.708-2.72 5.894-2.72 6.248 0 .354-.407.304-.687-.076-.127-.151-.864-1.695-1.6-3.415-.738-1.72-1.424-3.162-1.526-3.212-.102-.076-.432 1.265-.763 2.985ZM155.817 92.96c-3.279 7.589-3.024 6.805-2.364 6.704.382-.05.738-.455 1.144-1.29l.559-1.189h1.475c.788 0 1.677-.076 1.957-.152.407-.1.635.127 1.144 1.215.457.96.813 1.365 1.194 1.416.56.076.56.05-.33-2.024a435.182 435.182 0 0 1-2.059-4.831c-.635-1.493-1.245-2.707-1.322-2.707-.076 0-.711 1.29-1.398 2.859Zm2.771 2.682c.152.506.076.531-1.373.531-.864 0-1.55-.05-1.55-.126s.356-.91.788-1.847l.788-1.695.584 1.316c.331.708.661 1.543.763 1.821ZM165.578 90.402c0 .152.636 1.366 1.398 2.656 1.322 2.251 1.398 2.48 1.398 4.123 0 1.923.153 2.53.636 2.53s.635-.607.635-2.555c0-1.518.102-1.897.839-3.06.457-.734 1.169-1.873 1.55-2.556l.687-1.189h-.636c-.508 0-.813.33-1.703 1.898-.61 1.037-1.22 1.872-1.347 1.82-.152-.05-.686-.809-1.22-1.694-.864-1.518-1.551-2.277-2.034-2.277-.101 0-.203.127-.203.304ZM103.609 90.655c-.153.177-1.119 2.277-2.161 4.63-1.449 3.262-1.83 4.325-1.55 4.375.584.127 1.093-.404 1.423-1.492l.28-.987h4.27l.534 1.265c.407 1.012.635 1.265 1.118 1.265h.585l-.89-2.1c-1.55-3.566-2.897-6.602-3.126-6.956-.153-.278-.254-.278-.483 0Zm.94 3.44c.331.784.636 1.594.712 1.746.102.253-.28.329-1.449.329s-1.55-.076-1.449-.33c.814-2.023 1.347-3.212 1.449-3.212.076 0 .407.658.737 1.467ZM109.148 95.059v4.73l2.008-.126c1.653-.102 2.212-.253 3.051-.785 3.177-2.1 2.44-7.133-1.17-8.22-.559-.178-1.677-.304-2.465-.304h-1.424v4.705Zm3.94-3.34c1.195.507 1.907 1.746 1.907 3.29 0 2.225-1.5 3.692-3.788 3.692h-1.042v-7.336h1.017c.559 0 1.423.152 1.906.355ZM117.791 95.031v4.68h2.415c2.237 0 2.415-.025 2.415-.506 0-.455-.178-.506-1.907-.506h-1.906v-3.541h1.754c1.271 0 1.779-.102 1.881-.355.228-.556-.051-.657-1.907-.657h-1.728v-2.782h1.906c1.729 0 1.907-.051 1.907-.507 0-.48-.178-.506-2.415-.506h-2.415v4.68ZM128.467 95.031c0 4.503.025 4.68.508 4.68s.509-.177.509-4.68-.026-4.68-.509-4.68-.508.177-.508 4.68ZM131.416 90.76c-.076.227-.152 2.327-.152 4.68v4.274h1.271V96.3c0-1.872.076-3.415.152-3.415s1.729 1.62 3.686 3.592l3.508 3.618.025-4.882c0-4.68-.025-4.857-.508-4.857s-.509.177-.534 3.592v3.617l-3.508-3.617c-1.906-1.973-3.559-3.592-3.635-3.592-.076 0-.229.177-.305.404ZM145.752 95.031v4.68h1.271v-9.36h-1.271v4.68ZM148.039 90.857c0 .43.178.506 1.144.506h1.144v4.174c0 3.997.025 4.174.508 4.174s.508-.177.508-4.174v-4.174h.738c.991 0 1.55-.227 1.55-.657 0-.279-.585-.355-2.796-.355-2.618 0-2.796.026-2.796.506ZM162.527 95.031v4.68h1.78c1.601 0 1.779-.05 1.779-.506 0-.43-.178-.506-1.271-.506h-1.271v-4.174c0-3.997-.025-4.174-.508-4.174s-.509.177-.509 4.68Z"/></g><defs><clipPath id="a"><path fill="#fff" transform="translate(74 19.5)" d="M0 0h113v81H0z"/></clipPath></defs></svg>