<svg width="350" height="153" viewBox="0 0 350 153" fill="none" xmlns="http://www.w3.org/2000/svg">
<rect width="350" height="84" transform="translate(0 35)" fill="white"/>
<path d="M350 35H0V91.0989H350V35Z" fill="#E63312"/>
<path d="M230.647 56.4688H220.602V58.8928H230.647V56.4688Z" fill="white"/>
<path d="M242.134 76.7989C244.073 79.7177 248.002 80.5092 250.936 78.5799C252.726 77.3926 253.77 75.4633 253.77 73.336V69.1311L261.528 76.2053L269.236 69.1311V73.336C269.137 76.7989 271.922 79.7177 275.403 79.8166C278.884 79.9156 281.818 77.1947 281.918 73.6823C281.918 73.5834 281.918 73.435 281.918 73.336V52.2618C281.918 48.7989 279.083 45.9297 275.602 45.9297C274.011 45.9297 272.469 46.5233 271.275 47.6117L261.479 56.5657L251.682 47.6117C249.096 45.2371 245.117 45.435 242.73 48.0074C241.785 49.0463 241.189 50.3325 241.089 51.7671C239.001 48.2053 235.171 45.9792 231.044 45.9792H216.423C212.942 45.9792 210.058 48.7989 210.058 52.2618V55.6753C207.273 49.7389 201.305 45.9792 194.741 45.9792H188.425C183.601 45.9792 179.026 48.0074 175.794 51.6187C175.446 48.4032 172.71 45.9792 169.478 45.9792H147.895C145.757 45.9792 143.718 47.0675 142.574 48.8979C140.684 45.9792 136.756 45.0887 133.822 46.9686C133.523 47.1664 133.225 47.3643 132.976 47.6117L125.716 54.2406L118.455 47.6117C115.869 45.2866 111.891 45.435 109.504 48.0074C109.255 48.2548 109.056 48.5516 108.857 48.8484C107.713 47.018 105.674 45.9297 103.536 45.9297H81.9531C78.472 45.9297 75.5877 48.7495 75.5877 52.2124V68.5375C74.4439 67.4986 72.9023 66.9544 71.3606 66.9544H56.5908C56.3422 66.9544 56.193 66.7565 56.1432 66.5092V52.2618C56.1432 48.7989 53.3086 45.9792 49.7778 45.9792C47.6394 45.9792 45.6999 47.0675 44.5064 48.7989C43.3129 47.018 41.3237 45.9792 39.235 45.9792H17.6024C14.1213 45.9792 11.2867 48.7495 11.237 52.2618V73.336C11.1375 76.7989 13.8727 79.7177 17.4035 79.8166C20.8846 79.9156 23.8187 77.1947 23.9182 73.6823V73.6329C23.9182 73.5339 23.9182 73.3855 23.9182 73.2866V69.4774C23.9182 69.23 24.1171 69.0322 24.3657 69.0816H30.2836C33.7647 69.0816 36.5993 66.2618 36.5993 62.7495C36.5993 61.2159 36.0523 59.7318 35.008 58.5445H39.1853C40.7269 58.5445 42.2686 57.9509 43.4123 56.9615V73.2866C43.4123 76.7495 46.247 79.6187 49.7778 79.6187H71.3606C73.499 79.6187 75.4882 78.5304 76.632 76.7495C77.8255 78.4809 79.765 79.5693 81.9034 79.5693H103.436C105.575 79.5693 107.614 78.4809 108.758 76.6505C110.647 79.5693 114.576 80.4597 117.51 78.5799C117.808 78.382 118.107 78.1841 118.356 77.9368L125.616 71.3573L132.877 77.9862C135.463 80.3113 139.441 80.1629 141.828 77.5905C142.077 77.3431 142.276 77.0463 142.475 76.7495C144.364 79.6682 148.293 80.5587 151.227 78.6788C153.067 77.541 154.161 75.5127 154.161 73.3855V69.5763C154.161 69.329 154.36 69.1806 154.609 69.1806H160.576C164.057 69.1806 166.892 66.3608 166.892 62.8484C166.892 61.3148 166.295 59.8307 165.301 58.6929H169.478C170.423 58.6929 171.318 58.4951 172.163 58.0993C169.478 67.0039 174.55 76.3537 183.502 79.0251C185.093 79.5198 186.734 79.7177 188.375 79.7177H194.691C201.255 79.7177 207.223 75.9085 210.008 70.0216V73.435C209.908 76.8979 212.693 79.8166 216.174 79.9156C219.656 80.0145 222.59 77.2936 222.689 73.7813C222.689 73.6823 222.689 73.5339 222.689 73.435V69.1311L232.536 78.0357C235.171 80.3608 239.15 80.1629 241.537 77.5905C241.736 77.3431 241.935 77.0958 242.134 76.7989Z" fill="white"/>
<path d="M216.375 77.3487C214.137 77.3487 212.297 75.5184 212.297 73.2922V52.2675C212.297 50.0413 214.137 48.2109 216.375 48.2109H230.995C236.167 48.2109 240.345 52.4159 240.345 57.5608C240.345 60.6774 238.803 63.5961 236.167 65.2781C235.62 65.6244 235.471 66.3664 235.819 66.9106C235.869 67.0095 235.919 67.059 236.018 67.1085L239.499 70.2251C241.091 71.8081 241.041 74.3805 239.449 75.9636C237.958 77.3982 235.62 77.5466 234.029 76.2604L222.442 65.7728C221.944 65.3275 221.199 65.377 220.751 65.9212C220.552 66.1191 220.453 66.4159 220.453 66.6632V73.2427C220.502 75.5678 218.662 77.3982 216.375 77.3487C216.424 77.3982 216.424 77.3982 216.375 77.3487Z" fill="#E63312"/>
<path d="M230.997 48.3593C236.119 48.3593 240.247 52.4653 240.247 57.5607C240.247 60.6279 238.705 63.4971 236.169 65.1791C235.572 65.5749 235.373 66.4159 235.821 67.0095C235.871 67.1084 235.97 67.2074 236.02 67.2568L239.501 70.3735C241.142 71.8081 241.291 74.2816 239.849 75.9141C238.407 77.5466 235.92 77.695 234.279 76.2604L234.229 76.2109L222.642 65.7233C222.095 65.2286 221.25 65.278 220.753 65.8222C220.554 66.0696 220.405 66.3664 220.405 66.7127V73.2922C220.504 75.4689 218.813 77.2992 216.625 77.3487C214.437 77.4477 212.597 75.7657 212.547 73.589C212.547 73.589 212.547 73.589 212.547 73.5395C212.547 73.4406 212.547 73.3417 212.547 73.2427V52.2674C212.547 50.0908 214.288 48.3593 216.476 48.3593H230.997ZM230.997 48.0625H216.376C214.039 48.0625 212.149 49.9424 212.149 52.2674V73.3417C212 75.6667 213.79 77.6455 216.128 77.7939C218.465 77.9424 220.454 76.1614 220.603 73.8364V73.7869C220.603 73.6385 220.603 73.4901 220.603 73.3911V66.7127C220.603 66.119 221.051 65.6738 221.648 65.6738C221.896 65.6738 222.145 65.7727 222.344 65.9212L233.931 76.4088C235.721 77.8929 238.357 77.695 239.899 75.9141C241.341 74.2321 241.241 71.7091 239.6 70.1756L236.119 67.059C236.069 67.0095 236.02 66.96 235.97 66.8611C235.622 66.3664 235.771 65.7233 236.219 65.377C236.219 65.377 236.219 65.377 236.268 65.377C240.645 62.4583 241.788 56.5713 238.854 52.218C237.114 49.6455 234.18 48.0625 230.997 48.0625Z" fill="white"/>
<path d="M108.814 69.6329C107.621 67.9014 105.632 66.8131 103.493 66.8131H99.6641C101.604 64.4385 101.604 61.0251 99.6641 58.7H103.493C105.632 58.7 107.621 57.6611 108.814 55.9297C109.113 56.3254 109.411 56.7212 109.759 57.018L116.075 62.7565L109.759 68.5445C109.411 68.8908 109.113 69.2371 108.814 69.6329Z" fill="#E63312"/>
<path d="M108.811 56.1744C109.06 56.5207 109.358 56.8175 109.656 57.1143L115.873 62.8034L109.656 68.4429C109.358 68.7398 109.06 69.0366 108.811 69.3829C107.568 67.7009 105.578 66.662 103.49 66.7115H99.9093C101.65 64.3864 101.65 61.1709 99.9093 58.8458H103.49C105.578 58.8458 107.568 57.8564 108.811 56.1744ZM108.811 55.6797C107.667 57.5101 105.628 58.5984 103.49 58.5984H99.3125C101.451 60.973 101.451 64.6337 99.3125 67.0083H103.49C105.628 67.0083 107.667 68.0966 108.811 69.927C109.109 69.4818 109.457 69.0366 109.855 68.6903L116.27 62.8034L109.855 56.9164C109.457 56.5701 109.109 56.1249 108.811 55.6797Z" fill="white"/>
<path d="M135.312 62.801L141.429 57.2109V68.3911L135.312 62.801Z" fill="#E63312"/>
<path d="M141.284 57.5103V68.0969L135.515 62.8036L141.284 57.5103ZM141.582 56.8672L141.532 56.9167L135.117 62.8036L141.532 68.641L141.582 68.6905V56.8672Z" fill="white"/>
<path d="M241.041 68.5876V63.3438C240.395 64.4816 239.549 65.471 238.555 66.3119L241.091 68.5876" fill="#E63312"/>
<path d="M241.041 68.5876V63.3438C240.395 64.4816 239.549 65.471 238.555 66.3119L241.091 68.5876" stroke="white" stroke-width="0.57" stroke-miterlimit="10"/>
<path d="M17.6091 77.3487C15.3713 77.3487 13.5312 75.5184 13.5312 73.2922V52.2675C13.5312 50.0413 15.3713 48.2109 17.6091 48.2109H39.1919C41.4298 48.2109 43.2698 50.0413 43.2698 52.2675C43.2698 54.4936 41.4298 56.324 39.1919 56.324H22.9302C22.2837 56.324 21.7367 56.8682 21.7367 57.5113C21.7367 58.1544 22.2837 58.6986 22.9302 58.6986H30.34C32.5779 58.6986 34.4179 60.529 34.4179 62.7551C34.4179 64.9813 32.5779 66.8116 30.34 66.8116H24.3724C22.8805 66.8116 21.687 67.9989 21.687 69.483V73.2922C21.687 75.5678 19.847 77.3487 17.6091 77.3487Z" fill="#E63312"/>
<path d="M39.1888 48.3593C41.377 48.3593 43.1175 50.1402 43.1175 52.2674C43.1175 54.4441 41.3272 56.1756 39.1888 56.1756H22.9271C22.1812 56.1756 21.5844 56.7692 21.5844 57.5113C21.5844 58.2533 22.1812 58.847 22.9271 58.847H30.3369C32.525 58.847 34.2656 60.6279 34.2656 62.7551C34.2656 64.9318 32.4753 66.6632 30.3369 66.6632H24.3693C22.8277 66.6632 21.5347 67.9 21.5347 69.483V73.2922C21.5347 75.4689 19.7444 77.2003 17.606 77.2003C15.4676 77.2003 13.6773 75.4194 13.6773 73.2922V52.2674C13.6773 50.0908 15.4676 48.3593 17.606 48.3593H39.1888ZM39.1888 48.0625H17.606C15.2687 48.0625 13.379 49.9424 13.379 52.2674V73.3417C13.2795 75.6667 15.0698 77.6455 17.4071 77.7445C19.7444 77.8434 21.6839 76.0625 21.8331 73.7869C21.8331 73.6385 21.8331 73.4901 21.8331 73.3911V69.5819C21.8331 68.1968 22.9768 67.059 24.3693 67.059H30.2872C32.6245 66.96 34.4148 64.9812 34.3153 62.6561C34.2158 60.4795 32.4753 58.748 30.2872 58.6491H22.9271C22.3801 58.7975 21.7833 58.4017 21.6839 57.8576C21.5347 57.3134 21.9325 56.7197 22.4795 56.6208C22.579 56.6208 22.6785 56.5713 22.7779 56.6208C22.8277 56.6208 22.8774 56.6208 22.9271 56.6208H39.1888C41.5262 56.5219 43.3164 54.5431 43.217 52.218C43.1175 49.9424 41.377 48.2109 39.1888 48.0625Z" fill="white"/>
<path d="M49.781 77.3487C47.5431 77.3487 45.7031 75.5184 45.7031 73.2922V52.2675C45.7031 50.0413 47.5431 48.2109 49.781 48.2109C52.0188 48.2109 53.8589 50.0413 53.8589 52.2675V66.5643C53.8589 68.0484 55.0524 69.2357 56.5443 69.2357H71.3638C73.6017 69.2357 75.4417 71.0661 75.4417 73.2922C75.4417 75.5184 73.6017 77.3487 71.3638 77.3487H49.781Z" fill="#E63312"/>
<path d="M49.7817 48.3593C51.9699 48.3593 53.7104 50.1402 53.7104 52.2674V66.5643C53.7104 68.0978 54.9537 69.3841 56.545 69.3841H71.3646C73.5527 69.3841 75.2932 71.165 75.2932 73.2922C75.2932 75.4689 73.503 77.2003 71.3646 77.2003H49.7817C47.6433 77.2003 45.8531 75.4689 45.8531 73.2922V52.2674C45.8531 50.0908 47.5936 48.3593 49.7817 48.3593ZM49.7817 48.0625C47.4444 48.0625 45.5547 49.9424 45.5547 52.2674V73.3417C45.5547 75.6667 47.4444 77.5466 49.7817 77.5466H71.3646C73.7019 77.4477 75.4922 75.4689 75.3927 73.1438C75.2933 70.9671 73.5527 69.2356 71.3646 69.1367H56.545C55.1526 69.1367 54.0088 67.9989 54.0088 66.6137V52.2674C53.9591 49.9424 52.0693 48.0625 49.7817 48.0625Z" fill="white"/>
<path d="M81.8513 77.3487C79.6135 77.3487 77.7734 75.5184 77.7734 73.2922V52.2675C77.7734 50.0413 79.6135 48.2109 81.8513 48.2109H103.434C105.672 48.2109 107.512 50.0413 107.512 52.2675C107.512 54.4936 105.672 56.324 103.434 56.324H87.1724C86.5259 56.324 85.9789 56.8682 85.9789 57.5113C85.9789 58.1544 86.5259 58.6986 87.1724 58.6986H94.5822C96.82 58.6986 98.6601 60.529 98.6601 62.7551C98.6601 64.9813 96.82 66.8116 94.5822 66.8116H87.1724C86.5259 66.8116 85.9789 67.3558 85.9789 67.9989C85.9789 68.642 86.5259 69.1862 87.1724 69.1862H103.434C105.672 69.1862 107.512 71.0166 107.512 73.2427C107.512 75.4689 105.672 77.2993 103.434 77.2993L81.8513 77.3487Z" fill="#E63312"/>
<path d="M103.485 48.3593C105.673 48.3593 107.413 50.1402 107.413 52.2674C107.413 54.4441 105.623 56.1756 103.485 56.1756H87.2229C86.4769 56.1756 85.8802 56.7692 85.8802 57.5113C85.8802 58.2533 86.4769 58.847 87.2229 58.847H94.6327C96.8208 58.847 98.5613 60.6279 98.5613 62.7551C98.5613 64.9318 96.7711 66.6632 94.6327 66.6632H87.2229C86.4769 66.6632 85.8802 67.2568 85.8802 67.9989C85.8802 68.7409 86.4769 69.3346 87.2229 69.3346H103.485C105.673 69.3346 107.413 71.1155 107.413 73.2427C107.413 75.4194 105.623 77.1508 103.485 77.1508H81.9018C79.7137 77.1508 77.9731 75.4194 77.9731 73.2427V52.2674C77.9731 50.0908 79.7634 48.3593 81.9018 48.3593H103.485ZM103.435 48.0625H81.8521C79.5147 48.0625 77.625 49.9424 77.625 52.2674V73.3417C77.625 75.6667 79.5147 77.5466 81.8521 77.5466H103.435C105.772 77.4477 107.562 75.4689 107.463 73.1438C107.364 70.9671 105.623 69.2356 103.435 69.1367H87.1732C86.5764 69.1862 86.0791 68.7409 86.0294 68.1473C85.9796 67.5537 86.4272 67.059 87.024 67.0095H94.5829C96.9203 66.9106 98.7105 64.9318 98.6111 62.6067C98.5116 60.43 96.7711 58.6985 94.5829 58.5996H87.1732C86.5764 58.6491 86.0791 58.2038 86.0294 57.6102C85.9796 57.0166 86.4272 56.5219 87.024 56.4724H103.435C105.772 56.3735 107.562 54.3947 107.463 52.0696C107.364 49.9424 105.623 48.2109 103.435 48.0625Z" fill="white"/>
<path d="M137.255 77.3461C136.21 77.3461 135.216 76.9504 134.47 76.2578L126.513 68.9857C126.314 68.7878 126.016 68.6889 125.717 68.6889C125.419 68.6889 125.121 68.7878 124.922 68.9857L116.965 76.2578C115.324 77.7914 112.738 77.643 111.196 76.0104C109.655 74.3779 109.804 71.8055 111.445 70.2719L118.705 63.643C119.203 63.1977 119.203 62.4557 118.755 61.961L118.705 61.862L111.395 55.2825C109.704 53.7984 109.505 51.226 110.997 49.544C112.489 47.862 115.075 47.6642 116.766 49.1483L116.915 49.2967L124.872 56.5687C125.071 56.7666 125.369 56.8656 125.668 56.8656C125.966 56.8656 126.264 56.7666 126.463 56.5687L134.42 49.2967C136.061 47.7631 138.647 47.9115 140.189 49.544C141.73 51.1765 141.581 53.749 139.94 55.2825L132.68 61.9115C132.182 62.3567 132.182 63.0988 132.63 63.5935L132.68 63.6924L139.94 70.3214C141.581 71.855 141.73 74.4274 140.189 76.0599C139.393 76.9009 138.299 77.3956 137.155 77.3956H137.255V77.3461Z" fill="#E63312"/>
<path d="M137.255 48.3606C139.443 48.3606 141.183 50.1415 141.183 52.2687C141.183 53.357 140.736 54.3959 139.891 55.1874L132.58 61.8164C132.033 62.3111 131.983 63.1521 132.481 63.6962L132.58 63.7952L139.891 70.4242C141.482 71.9083 141.532 74.4312 140.04 75.9648C138.598 77.4984 136.161 77.5973 134.569 76.2121L126.613 68.9401C126.115 68.4454 125.32 68.4454 124.822 68.9401L116.866 76.2121C115.274 77.6962 112.788 77.5478 111.296 75.9648C109.804 74.3818 109.953 71.9083 111.544 70.4242L118.805 63.7952C119.054 63.5478 119.203 63.2015 119.253 62.8553C119.253 62.509 119.153 62.1627 118.904 61.9153L118.805 61.8164L111.495 55.1379C109.903 53.6538 109.754 51.1803 111.246 49.5973C112.738 48.0143 115.224 47.8659 116.816 49.35L124.773 56.622C125.27 57.1167 126.066 57.1167 126.563 56.622L134.52 49.35C135.266 48.7068 136.21 48.3111 137.205 48.3111M137.205 48.0637C136.161 48.0637 135.116 48.4595 134.37 49.1521L126.414 56.4242C126.215 56.622 125.966 56.721 125.717 56.721C125.469 56.721 125.22 56.622 125.021 56.4242L117.064 49.1521C115.324 47.569 112.688 47.7174 111.097 49.3994C109.505 51.0814 109.655 53.7528 111.345 55.3358L118.656 61.9648L118.706 62.0143C119.103 62.4595 119.054 63.1026 118.656 63.4984L111.345 70.1273C109.605 71.7104 109.505 74.3818 111.047 76.0637C112.638 77.7952 115.324 77.8941 117.015 76.3606L124.971 69.0885C125.17 68.8906 125.419 68.7916 125.668 68.7916C125.916 68.7916 126.165 68.8906 126.364 69.0885L134.321 76.3606C136.061 77.9436 138.697 77.7952 140.288 76.1132C141.88 74.3818 141.731 71.7598 140.04 70.1768L132.779 63.5478L132.729 63.4984C132.332 63.0531 132.381 62.41 132.779 62.0143L140.089 55.3853C141.83 53.8023 141.929 51.1803 140.338 49.4489C139.542 48.6079 138.399 48.0637 137.255 48.0637H137.205Z" fill="white"/>
<path d="M147.898 77.3487C145.66 77.3487 143.82 75.5678 143.82 73.2922V52.2675C143.82 50.0413 145.66 48.2109 147.898 48.2109H169.481C171.719 48.2109 173.559 50.0413 173.559 52.2675C173.559 54.4936 171.719 56.324 169.481 56.324H153.219C152.573 56.324 152.026 56.8682 152.026 57.5113C152.026 58.1544 152.573 58.6986 153.219 58.6986H160.629C162.867 58.6986 164.707 60.529 164.707 62.7551C164.707 64.9813 162.867 66.8116 160.629 66.8116H154.661C153.17 66.8116 151.976 67.9989 151.976 69.483V73.2922C151.976 75.5678 150.136 77.3487 147.898 77.3487Z" fill="#E63312"/>
<path d="M169.48 48.3593C171.668 48.3593 173.408 50.1402 173.408 52.2674C173.408 54.4441 171.618 56.1756 169.48 56.1756H153.218C152.472 56.1756 151.875 56.7692 151.875 57.5113C151.875 58.2533 152.472 58.847 153.218 58.847H160.628C162.816 58.847 164.557 60.6279 164.557 62.7551C164.557 64.9318 162.766 66.6632 160.628 66.6632H154.66C153.119 66.6632 151.826 67.9 151.826 69.483V73.2922C151.925 75.4689 150.234 77.2992 148.046 77.3487C145.858 77.4477 144.018 75.7657 143.968 73.589C143.968 73.589 143.968 73.589 143.968 73.5395C143.968 73.4406 143.968 73.3417 143.968 73.2427V52.2674C143.968 50.0908 145.759 48.3593 147.897 48.3593H169.48ZM169.48 48.0625H147.947C145.609 48.0625 143.72 49.9424 143.72 52.2674V73.3417C143.57 75.6667 145.361 77.6455 147.698 77.7939C150.035 77.9424 152.025 76.1614 152.174 73.8364V73.7869C152.174 73.6385 152.174 73.4901 152.174 73.3911V69.5819C152.174 68.1968 153.318 67.059 154.71 67.059H160.678C163.015 66.96 164.805 64.9812 164.706 62.6561C164.606 60.4795 162.866 58.748 160.678 58.6491H153.268C152.671 58.6985 152.174 58.2533 152.124 57.6597C152.074 57.066 152.522 56.5713 153.119 56.5219C153.168 56.5219 153.218 56.5219 153.268 56.5219H169.53C171.867 56.4229 173.657 54.4441 173.558 52.119C173.408 49.8929 171.668 48.1614 169.48 48.0625Z" fill="white"/>
<path d="M188.428 77.3513C180.322 77.3513 173.758 70.8213 173.758 62.7577C173.758 54.6941 180.322 48.1641 188.428 48.1641H194.744C202.85 48.1641 209.414 54.6941 209.414 62.7577C209.414 70.8213 202.85 77.3513 194.744 77.3513H188.428Z" fill="#E63312"/>
<path d="M194.691 48.3593C202.697 48.3593 209.212 54.8399 209.212 62.8045C209.212 70.7692 202.697 77.2498 194.691 77.2498H188.375C180.369 77.2498 173.854 70.7692 173.854 62.8045C173.854 54.8399 180.369 48.3593 188.425 48.3593H194.691ZM194.691 48.0625H188.375C180.22 48.2109 173.705 54.9388 173.854 63.0519C174.003 70.9671 180.418 77.3487 188.375 77.4971H194.691C202.847 77.3487 209.361 70.6208 209.212 62.5077C209.113 54.5925 202.648 48.2109 194.691 48.0625Z" fill="white"/>
<path d="M189.818 68.9378C186.386 68.9378 183.602 66.1675 183.602 62.7541C183.602 59.3406 186.386 56.5703 189.818 56.5703H193.299C196.73 56.5703 199.515 59.3406 199.515 62.7541C199.515 66.1675 196.73 68.9378 193.299 68.9378H189.818Z" fill="white"/>
<path d="M193.298 56.7682C196.63 56.7682 199.365 59.489 199.365 62.8035C199.365 66.118 196.63 68.8389 193.298 68.8389H189.817C186.485 68.8389 183.75 66.118 183.75 62.8035C183.75 59.489 186.485 56.7682 189.817 56.7682H193.298ZM193.298 56.4714H189.817C186.336 56.3724 183.402 59.0933 183.253 62.5562C183.153 66.0191 185.888 68.9378 189.369 69.0862H189.419H193.248C196.729 68.9873 199.514 66.0685 199.415 62.6056C199.365 59.2417 196.68 56.5703 193.298 56.4714Z" fill="white"/>
<path d="M275.608 77.3487C273.37 77.3487 271.58 75.5184 271.53 73.2922V66.7127C271.53 66.0696 270.983 65.5254 270.336 65.5254C270.038 65.5254 269.789 65.6244 269.541 65.8222L261.534 73.0943L253.528 65.8222C253.03 65.377 252.284 65.4265 251.837 65.9212C251.638 66.1191 251.539 66.4159 251.539 66.7127V73.3417C251.539 75.5678 249.699 77.3982 247.461 77.3982C245.223 77.3982 243.383 75.5678 243.383 73.3417V52.2675C243.383 50.0413 245.223 48.2109 247.461 48.2109C248.505 48.2109 249.45 48.6067 250.196 49.2993L261.534 59.6385L272.873 49.2993C274.514 47.7657 277.1 47.9141 278.641 49.5466C279.338 50.2887 279.735 51.2781 279.735 52.2675V73.3417C279.686 75.5678 277.846 77.3982 275.608 77.3487C275.608 77.3982 275.608 77.3982 275.608 77.3487Z" fill="#E63312"/>
<path d="M247.408 48.3593C248.402 48.3593 249.347 48.7056 250.093 49.3982L261.332 59.6385L261.531 59.7869L261.73 59.6385L272.969 49.3982C274.56 47.9141 277.047 48.013 278.539 49.6455C279.235 50.3876 279.583 51.3275 279.583 52.3169V73.3911C279.583 75.5678 277.793 77.2992 275.654 77.2992C273.516 77.2992 271.726 75.5183 271.726 73.3911V66.7127C271.726 65.9706 271.129 65.377 270.383 65.377C270.035 65.377 269.736 65.4759 269.488 65.7233L261.581 72.9459L253.674 65.7233C253.127 65.2286 252.281 65.278 251.784 65.8222C251.535 66.0696 251.436 66.3664 251.436 66.7127V73.2922C251.535 75.4689 249.844 77.2992 247.656 77.3487C245.468 77.4477 243.628 75.7657 243.578 73.589C243.578 73.589 243.578 73.589 243.578 73.5395C243.578 73.4406 243.578 73.3417 243.578 73.2427V52.2674C243.429 50.0908 245.219 48.3593 247.408 48.3593ZM247.408 48.0625C245.07 48.0625 243.181 49.9424 243.181 52.2674V73.3417C243.031 75.6667 244.822 77.6455 247.159 77.7939C249.496 77.9424 251.485 76.1614 251.635 73.8364V73.7869C251.635 73.6385 251.635 73.4901 251.635 73.3911V66.7127C251.635 66.119 252.132 65.6738 252.679 65.6738C252.928 65.6738 253.176 65.7727 253.375 65.9706L261.481 73.3911L269.587 66.0201C270.035 65.6243 270.681 65.6738 271.079 66.0696C271.278 66.2674 271.378 66.5148 271.378 66.7621V73.3417C271.378 75.6667 273.267 77.5466 275.605 77.5466C277.942 77.5466 279.832 75.6667 279.832 73.3417V52.2674C279.832 49.9424 277.942 48.0625 275.605 48.0625C274.56 48.0625 273.516 48.4583 272.77 49.1508L261.531 59.3911L250.292 49.1508C249.447 48.4583 248.452 48.0625 247.408 48.0625Z" fill="white"/>
<path d="M189.82 66.8553C187.582 66.8553 185.742 65.0249 185.742 62.7987C185.742 60.5726 187.582 58.7422 189.82 58.7422H193.301C195.539 58.7422 197.379 60.5726 197.379 62.7987C197.379 65.0249 195.539 66.8553 193.301 66.8553H189.82Z" fill="#E63312"/>
<path d="M193.302 58.845C195.49 58.845 197.23 60.6259 197.23 62.7532C197.23 64.9298 195.44 66.6613 193.302 66.6613H189.821C187.632 66.6613 185.892 64.8804 185.892 62.7532C185.892 60.6259 187.682 58.845 189.821 58.845H193.302ZM193.302 58.5977H189.821C187.483 58.4987 185.494 60.2797 185.395 62.6047C185.295 64.9298 187.085 66.8592 189.373 67.0076C189.522 67.0076 189.622 67.0076 189.771 67.0076H193.252C195.589 66.9086 197.38 64.9298 197.28 62.6047C197.23 60.4281 195.49 58.6966 193.302 58.5977Z" fill="white"/>
<path d="M221.795 56.4688H229.404C230.05 56.4688 230.597 57.0129 230.597 57.656C230.597 58.2991 230.05 58.8433 229.404 58.8433H221.795C221.149 58.8433 220.602 58.2991 220.602 57.656C220.602 57.0129 221.149 56.4688 221.795 56.4688Z" fill="white"/>
<path d="M13.8245 102.281L17.9521 113.214L22.0797 102.281H24.4668V115.292H22.8257V104.458H22.7759L18.6981 115.292H17.2062L13.1283 104.458H13.0786V115.292H11.4375V102.281H13.8245Z" fill="#E63312"/>
<path d="M33.4182 102.281L38.5404 115.292H36.6009L35.1587 111.384H29.6387L28.1468 115.292H26.4062L31.4787 102.281H33.4182ZM34.6614 109.949L32.4733 103.864H32.4236L30.1857 109.949H34.6614Z" fill="#E63312"/>
<path d="M44.8557 102.281C46.8946 102.281 48.4362 102.776 49.5303 103.815C50.6243 104.854 51.1714 106.387 51.1714 108.465C51.1714 109.454 51.0719 110.444 50.8233 111.384C50.6243 112.175 50.2265 112.917 49.6795 113.511C49.1324 114.105 48.486 114.55 47.74 114.847C46.8449 115.193 45.9 115.341 44.9054 115.292H40.4297V102.281H44.8557ZM45.0048 113.857C45.2038 113.857 45.4524 113.857 45.7508 113.808C46.0492 113.758 46.3973 113.709 46.6957 113.61C47.0438 113.511 47.3919 113.313 47.6903 113.115C48.0384 112.868 48.3368 112.571 48.5854 112.225C48.8838 111.779 49.0827 111.334 49.2319 110.79C49.4308 110.098 49.4806 109.405 49.4806 108.762C49.4806 108.069 49.4308 107.377 49.2319 106.684C49.0827 106.09 48.8341 105.596 48.486 105.101C48.1378 104.656 47.6903 104.31 47.1432 104.112C46.4968 103.864 45.8005 103.765 45.1043 103.765H42.1702V113.857H45.0048Z" fill="#E63312"/>
<path d="M62.8556 102.281V103.716H55.5452V107.871H62.3583V109.306H55.5452V113.808H62.9053V115.292H53.8047V102.281H62.8556Z" fill="#E63312"/>
<path d="M73.0999 102.281V115.292H71.3594V102.281H73.0999Z" fill="#E63312"/>
<path d="M78.3762 102.281L85.2887 112.818H85.3384V102.281H87.0292V115.292H85.1395L78.2768 104.854H78.227V115.292H76.5859V102.281H78.3762Z" fill="#E63312"/>
<path d="M97.8656 102.281V115.292H96.125V102.281H97.8656Z" fill="#E63312"/>
<path d="M99.9609 103.765V102.281H110.404V103.716H106.028V115.292H104.287V103.765H99.9609Z" fill="#E63312"/>
<path d="M116.223 102.281L121.345 115.292H119.406L117.963 111.384H112.443L110.951 115.292H109.211L114.283 102.281H116.223ZM117.466 109.949L115.278 103.864H115.228L112.99 109.949H117.466Z" fill="#E63312"/>
<path d="M124.92 102.281V113.857H131.833V115.341H123.18V102.281H124.92Z" fill="#E63312"/>
<path d="M137.302 115.292H135.562V109.949L130.539 102.281H132.628L136.556 108.465L140.386 102.281H142.375L137.352 109.999L137.302 115.292Z" fill="#E63312"/>
</svg>
