<svg width="260" height="153" viewBox="0 0 260 153" fill="none" xmlns="http://www.w3.org/2000/svg">
<g clip-path="url(#clip0_1003_189525)">
<path d="M24.2571 77.9414H13.3333L13.0984 78.1764C12.8635 78.4113 13.3333 78.5287 13.3333 78.5287C15.5651 78.7637 16.5048 79.4684 16.5048 81.7002V85.4589C16.5048 87.9256 16.7397 87.9256 13.6857 88.043C6.05079 88.3954 6.99048 79.1161 6.99048 76.6494C6.99048 70.5414 8.04762 65.4907 13.4508 65.7256C17.327 65.7256 19.7936 68.897 20.8508 71.8335C20.8508 71.8335 21.0857 72.0684 21.2032 72.0684C21.4381 72.0684 21.5556 71.8335 21.5556 71.8335V64.551L21.2032 64.1986C20.9683 63.9637 20.8508 64.4335 20.8508 64.4335C20.4984 65.3732 20.2635 65.7256 19.3238 65.7256C18.3841 65.7256 16.0349 64.1986 12.8635 64.1986C5.69841 64.1986 1 69.7192 1 76.6494C1 82.7573 4.75873 89.1002 13.2159 89.1002C16.1524 89.1002 19.9111 88.1605 21.5556 86.8684V81.7002C21.5556 78.7637 22.1429 78.7637 24.1397 78.5287C24.2571 78.5287 24.3746 78.2938 24.2571 77.9414Z" fill="white"/>
<path d="M35.4187 88.3919C33.5394 88.1569 32.2473 87.8046 32.2473 85.5728V68.0712C32.2473 65.6046 33.7743 65.1347 35.4187 64.8998C35.4187 64.8998 35.6536 64.6649 35.6536 64.5474C35.6536 64.43 35.4187 64.3125 35.4187 64.3125H23.6727C23.6727 64.3125 23.4378 64.3125 23.4378 64.6649C23.4378 64.8998 23.6727 64.8998 23.6727 64.8998C25.1997 65.1347 26.8441 65.6046 26.8441 68.0712V85.5728C26.8441 87.8046 25.5521 88.1569 23.6727 88.3919L23.3203 88.5093C23.3203 88.7442 23.5552 88.8617 23.5552 88.8617H35.3013C35.3013 88.8617 35.5362 88.6268 35.5362 88.5093L35.4187 88.3919Z" fill="white"/>
<path d="M46.107 65.1355C41.2912 65.1355 39.9991 71.126 39.9991 76.2943C39.9991 79.4657 40.9388 87.6879 46.342 87.6879C52.4499 87.6879 52.4499 79.4657 52.4499 76.2943C52.4499 71.126 51.1578 65.1355 46.107 65.1355ZM46.107 63.9609C52.8023 63.9609 58.5578 68.6594 58.5578 76.4117C58.5578 83.8117 53.3896 89.0974 46.107 89.0974C38.8245 89.0974 33.6562 83.9292 33.6562 76.4117C33.6562 68.4244 39.4118 63.9609 46.107 63.9609Z" fill="white"/>
<path d="M66.1923 65.7218V76.1757C70.6558 76.1757 71.713 75.8233 72.1828 71.0075C72.4177 68.5408 71.1257 65.8392 68.3066 65.8392C66.4273 65.7218 66.1923 65.7218 66.1923 65.7218ZM80.5225 88.3916C80.5225 88.3916 80.8749 88.6265 80.8749 88.744C80.8749 88.9789 80.5225 89.0964 80.5225 89.0964H74.0622L67.132 77.7027H66.1923V84.6329C66.1923 87.5694 66.8971 88.1567 69.1288 88.5091C69.1288 88.5091 69.4812 88.744 69.4812 88.8614C69.4812 89.0964 69.1288 89.0964 69.1288 89.0964H57.6177C57.6177 89.0964 57.3828 89.0964 57.3828 88.744C57.3828 88.5091 57.6177 88.5091 57.6177 88.5091C59.8495 88.1567 60.7892 87.5694 60.5542 84.6329V68.3059C60.5542 65.1345 59.4971 65.3694 57.6177 65.1344C57.6177 65.1344 57.3828 65.1345 57.3828 64.7821C57.3828 64.5471 57.6177 64.4297 57.6177 64.4297H68.5415C71.0082 64.4297 77.586 64.7821 77.586 70.7725C77.586 75.236 74.4146 76.5281 72.5352 77.1154L78.6431 87.3344C79.2304 87.8043 79.8177 88.3916 80.5225 88.3916Z" fill="white"/>
<path d="M101.548 64.8987C103.075 65.1336 104.367 65.486 104.367 67.7178V85.3368C104.367 87.5686 103.427 87.9209 101.548 88.1559C101.548 88.1559 101.313 88.1559 101.313 88.3908C101.313 88.7432 101.548 88.7432 101.548 88.7432H121.046L121.986 81.1082L121.751 81.3432C121.398 81.3432 121.516 81.6955 121.516 81.6955C119.519 87.0987 117.757 87.8035 112.589 87.8035C110.592 87.8035 109.77 87.4511 109.77 85.9241V77.232C112.941 77.232 114.586 77.9368 114.938 82.4003C114.938 82.4003 114.938 82.6352 115.173 82.6352C115.408 82.6352 115.408 82.4003 115.408 82.4003V70.5368C115.408 70.5368 115.408 70.3019 115.173 70.3019C114.821 70.3019 114.938 70.5368 114.938 70.5368C114.351 75.0003 112.706 75.94 109.77 75.94V65.7209C109.77 65.7209 110.357 65.7209 112.237 65.7209C116.7 65.7209 119.284 65.9559 119.989 71.1241C119.989 71.1241 119.989 71.359 120.224 71.359C120.459 71.359 120.459 71.1241 120.459 71.1241V64.7812L101.548 64.8987L101.195 65.0162H101.548V64.8987Z" fill="white"/>
<path d="M137.374 88.3919C134.907 88.1569 134.085 87.6871 134.202 84.8681V65.4871C136.434 65.722 140.662 64.3125 141.25 70.303C141.25 70.303 141.25 70.5379 141.602 70.5379C141.837 70.5379 141.955 70.303 141.955 70.303V64.3125H121.164V70.303C121.164 70.303 121.164 70.5379 121.516 70.5379C121.869 70.5379 121.869 70.303 121.869 70.303C122.456 64.8998 126.097 65.4871 128.916 65.4871V84.6331C128.916 87.5696 127.859 88.0395 125.745 88.1569C125.745 88.1569 125.393 88.1569 125.393 88.3919C125.393 88.6268 125.628 88.9792 125.628 88.9792H137.491C137.491 88.9792 137.726 88.7442 137.726 88.3919C137.491 88.3919 137.374 88.3919 137.374 88.3919Z" fill="white"/>
<path d="M102.015 77.9384H91.2086C91.2086 77.9384 90.9737 77.9384 90.9737 78.1734C90.9737 78.4083 91.2086 78.5257 91.2086 78.5257C93.4404 78.7607 94.38 79.4654 94.38 81.6972V85.4559C94.38 87.9226 94.615 87.9226 91.561 88.04C83.9261 88.3924 84.5134 79.348 84.5134 76.6464C84.5134 70.5384 86.0404 65.4876 91.4435 65.7226C95.3197 65.7226 97.7864 68.894 98.8435 71.8305C98.8435 71.8305 99.0785 72.0654 99.1959 72.0654C99.4308 72.0654 99.5483 71.8305 99.5483 71.8305V64.548L99.3134 64.1956C99.0784 64.1956 98.961 64.4305 98.961 64.4305C98.6086 65.3702 98.3737 65.7226 97.434 65.7226C96.4943 65.7226 93.9102 64.0781 90.9737 64.0781C83.6911 64.0781 78.7578 69.8337 78.7578 76.7638C78.7578 82.8718 82.8689 89.2146 91.4435 89.2146C94.38 89.2146 98.1388 88.2749 99.7832 86.9829V82.5194C99.7832 79.5829 100.371 78.7607 102.367 78.6432C102.367 78.6432 102.602 78.4083 102.602 78.2908C102.25 77.9384 102.015 77.9384 102.015 77.9384Z" fill="white"/>
<path d="M175.661 88.3919C173.781 88.1569 172.489 87.8046 172.489 85.5728V68.0712C172.489 65.6046 174.016 65.1347 175.661 64.8998C175.661 64.8998 175.896 64.6649 175.896 64.5474C175.896 64.43 175.661 64.3125 175.661 64.3125H163.915C163.915 64.3125 163.68 64.3125 163.68 64.6649C163.68 64.8998 163.915 64.8998 163.915 64.8998C165.442 65.1347 167.086 65.6046 167.086 68.0712V85.5728C167.086 87.8046 165.794 88.1569 163.915 88.3919L163.68 88.6268C163.68 88.8617 163.915 88.9792 163.915 88.9792H175.661C175.661 88.9792 175.896 88.7442 175.896 88.6268L175.661 88.3919Z" fill="white"/>
<path d="M158.749 88.3919C156.282 88.1569 155.46 87.6871 155.578 84.8681V65.4871C157.809 65.722 162.038 64.3125 162.625 70.303C162.625 70.303 162.625 70.5379 162.978 70.5379C163.213 70.5379 163.33 70.303 163.33 70.303V64.3125H142.305V70.303C142.305 70.303 142.305 70.5379 142.657 70.5379C143.009 70.5379 143.009 70.303 143.009 70.303C143.597 64.8998 147.238 65.4871 150.057 65.4871V84.6331C150.057 87.5696 149 88.0395 146.886 88.1569C146.886 88.1569 146.533 88.1569 146.533 88.3919C146.533 88.6268 146.768 88.9792 146.768 88.9792H158.632C158.749 88.9792 158.867 88.7442 158.749 88.3919Z" fill="white"/>
<path d="M248.837 79.2317H239.323C239.323 78.2921 239.558 77.2349 239.91 76.2952C242.847 75.7079 245.666 74.4159 248.132 72.419L259.409 62.7873L252.948 55.1524L245.313 61.6127L238.853 57.854L234.155 66.0762C233.215 65.7238 232.51 64.9016 231.923 64.0794C232.862 61.2603 233.215 58.0889 232.628 54.9175L230.043 40L220.177 41.8794L222.056 51.746L215.596 55.5048L220.294 63.727C219.589 64.3143 218.415 64.6667 217.358 64.6667C215.361 62.4349 212.894 60.5556 209.723 59.4984L195.745 54.4476L192.456 63.9619L201.735 67.3683V74.7683H211.25C211.25 75.7079 211.015 76.7651 210.662 77.7048C207.726 78.2921 204.907 79.5841 202.44 81.581L191.164 91.2127L197.624 98.8476L205.259 92.3873L211.72 96.146L216.418 87.9238C217.358 88.2762 218.062 89.0984 218.65 89.9206C217.71 92.7397 217.358 95.9111 217.945 99.0825L220.529 113.765L230.396 111.886L228.516 102.019L234.977 98.2603L230.278 90.0381C230.983 89.4508 232.158 89.0984 233.215 89.0984C235.212 91.3302 237.678 93.2095 240.85 94.2667L254.828 99.3175L258.116 89.8032L248.837 86.3968V79.2317ZM247.545 80.4063V86.3968L244.256 85.1048C242.024 84.4 240.497 82.873 239.793 80.9937C239.793 80.7587 239.793 80.6413 239.558 80.4063H247.545ZM252.948 56.7968L257.764 62.5524L247.31 71.2444C245.313 72.8889 243.082 74.0635 240.615 74.7683L247.662 62.6698L246.605 62.0825L252.948 56.7968ZM239.558 59.381L244.609 62.2L241.789 64.4317C239.91 65.9587 237.913 66.6635 236.034 66.3111C235.799 66.3111 235.682 66.0762 235.447 66.0762L239.558 59.381ZM234.859 67.4857C235.212 67.7206 235.447 67.7206 235.799 67.7206C238.031 68.073 240.497 67.3683 242.494 65.7238L245.666 63.1397L246.018 63.3746L239.323 74.8857C239.323 75.1206 239.088 75.1206 239.088 75.2381C237.561 75.473 235.916 75.473 234.389 75.2381C233.332 75.0032 232.393 74.6508 231.218 74.2984C231.57 73.1238 231.923 72.0667 232.745 71.127L234.859 67.4857ZM238.266 76.4127C238.266 77.3524 238.031 78.2921 238.031 79.2317H234.155C232.862 79.2317 231.688 79.4667 230.631 79.5841C230.631 78.0571 230.631 76.7651 230.983 75.3556C232.04 75.7079 232.98 76.0603 234.155 76.2952C235.094 76.5302 236.034 76.5302 236.739 76.5302C237.326 76.4127 237.913 76.4127 238.266 76.4127ZM233.567 67.0159L231.57 70.5397C230.983 71.7143 230.513 72.7714 230.043 73.946C228.751 73.2413 227.577 72.419 226.52 71.4794C227.459 70.7746 228.164 69.9524 228.986 69.0127C229.926 67.8381 230.631 66.781 231.218 65.4889C232.158 65.8413 232.862 66.4286 233.567 67.0159ZM226.285 97.673L226.989 101.549L226.637 101.784L219.942 90.273C219.942 90.0381 219.707 90.0381 219.707 89.9206C220.294 88.3936 220.999 87.1016 222.174 85.8095C222.878 84.8698 223.701 84.1651 224.64 83.5778C225.345 84.5175 226.167 85.4571 226.637 86.3968L228.634 89.9206C228.399 90.1556 228.047 90.273 227.929 90.6254C226.285 92.6222 225.815 95.0889 226.285 97.673ZM220.529 79.1143C220.882 77.4698 221.116 75.7079 221.116 74.0635C222.761 73.7111 224.288 72.8889 225.815 72.0667C227.107 73.3587 228.399 74.2984 229.926 75.0032C229.574 76.6476 229.339 78.4095 229.339 80.054C227.694 80.4063 226.167 81.2286 224.64 82.0508C223.348 80.7587 222.056 79.819 220.529 79.1143ZM224.053 56.2095L223.348 52.3333L223.701 52.0984L230.396 63.6095C230.396 63.8444 230.631 63.8444 230.631 63.9619C230.043 65.4889 229.339 66.781 228.164 68.073C227.459 69.0127 226.637 69.7175 225.697 70.3048C224.993 69.3651 224.17 68.4254 223.701 67.4857L221.704 63.9619C221.939 63.727 222.291 63.6095 222.409 63.2571C223.935 61.3778 224.523 59.0286 224.053 56.2095ZM221.469 42.819L228.869 41.527L231.336 54.9175C231.923 57.5016 231.688 60.0857 230.983 62.3175L223.936 50.219L222.878 50.8063L221.469 42.819ZM217.24 55.8571L222.291 53.0381L222.878 56.5619C223.231 58.7937 222.878 61.0254 221.586 62.5524C221.351 62.7873 221.351 62.7873 221.234 62.9048L217.24 55.8571ZM220.764 64.5492L222.761 68.073C223.348 69.2476 224.053 70.0698 224.758 71.0095C223.701 71.7143 222.291 72.3016 220.882 72.654C220.647 71.4794 220.529 70.4222 220.177 69.2476C219.589 67.9556 219.12 66.6635 218.18 65.4889C219.12 65.4889 220.059 65.1365 220.764 64.5492ZM201.618 66.0762L193.866 63.1397L196.45 56.0921L209.253 60.7905C211.72 61.7302 213.951 63.0222 215.596 64.9016H201.618V66.0762ZM202.91 73.4762V67.4857L206.199 68.7778C208.431 69.4825 209.958 71.0095 210.662 72.8889C210.662 73.1238 210.662 73.2413 210.897 73.4762H202.91ZM206.669 67.4857L202.793 66.1936V65.8413H216.183C216.418 65.8413 216.418 65.8413 216.535 65.8413C217.475 67.1333 218.18 68.4254 218.767 69.9524C219.12 71.127 219.355 71.9492 219.472 73.1238C218.415 73.3587 217.24 73.4762 215.948 73.4762H212.072V73.2413C212.072 72.8889 211.837 72.654 211.837 72.3016C211.132 70.1873 209.253 68.4254 206.669 67.4857ZM219.707 74.181C219.707 75.7079 219.707 77 219.355 78.4095C218.297 78.0571 217.358 77.7048 216.183 77.4698C214.656 77.2349 213.364 77.2349 211.955 77.2349C212.307 76.2952 212.307 75.3556 212.307 74.4159H216.183C217.475 74.6508 218.532 74.4159 219.707 74.181ZM197.507 97.0857L192.691 91.3302L203.145 82.6381C205.142 80.9936 207.374 79.819 209.84 79.1143L202.793 91.2127L203.85 91.8L197.507 97.0857ZM210.897 94.5016L205.847 91.6825L208.666 89.4508C210.545 87.9238 212.424 87.219 214.421 87.5714C214.656 87.5714 214.774 87.8063 215.009 87.8063L210.897 94.5016ZM215.596 86.5143C215.243 86.2794 215.009 86.2794 214.656 86.2794C214.304 86.2794 213.951 86.0444 213.364 86.0444C211.485 86.0444 209.488 86.7492 207.843 88.2762L204.672 90.8603L204.437 90.6254L211.132 79.1143C211.132 78.8794 211.367 78.8794 211.367 78.7619C212.894 78.527 214.539 78.527 216.066 78.7619C217.123 78.9968 218.062 79.3492 219.237 79.7016C218.885 80.8762 218.532 81.9333 217.71 82.873L215.596 86.5143ZM216.653 87.1016L218.65 83.5778C219.237 82.4032 219.707 81.346 220.177 80.1714C221.469 80.8762 222.643 81.6984 223.701 82.6381C222.761 83.3429 222.056 84.1651 221.234 85.1048C220.294 86.2794 219.589 87.3365 219.002 88.6286C218.297 88.0413 217.593 87.454 216.653 87.1016ZM228.751 111.063L221.351 112.356L218.885 98.9651C218.297 96.3809 218.532 93.7968 219.237 91.5651L226.285 103.663L227.342 103.076L228.751 111.063ZM233.215 98.0254L228.164 100.844L227.577 97.3206C227.224 95.0889 227.577 92.8571 228.869 91.3302C229.104 91.0952 229.104 91.0952 229.221 90.9778L233.215 98.0254ZM229.691 89.3333L227.694 85.8095C227.107 84.6349 226.402 83.8127 225.697 82.873C226.755 82.1683 228.164 81.5809 229.574 81.2286C229.809 82.4032 229.926 83.4603 230.278 84.6349C230.866 85.927 231.335 87.219 232.275 88.3936C231.335 88.5111 230.396 88.9809 229.691 89.3333ZM233.802 88.1587C232.862 86.8667 232.158 85.5746 231.57 84.0476C231.218 82.873 230.983 82.0508 230.866 80.8762C231.923 80.6413 233.097 80.5238 234.389 80.5238H238.501C238.501 80.8762 238.735 81.1111 238.735 81.4635C239.44 83.6952 241.32 85.3397 243.904 86.2794L247.78 87.5714V87.9238H234.389C233.92 88.0413 233.92 88.1587 233.802 88.1587ZM256.472 90.9778L253.888 98.0254L241.085 93.327C238.618 92.3873 236.386 91.0952 234.742 89.2159H248.72V87.9238L256.472 90.9778Z" fill="white"/>
</g>
<defs>
<clipPath id="clip0_1003_189525">
<rect width="258.413" height="74" fill="white" transform="translate(1 40)"/>
</clipPath>
</defs>
</svg>
