<svg width="211" height="153" viewBox="0 0 211 153" fill="none" xmlns="http://www.w3.org/2000/svg">
<path d="M35.856 92.116C35.856 92.436 35.52 92.596 34.848 92.596H34.32C33.872 92.596 33.056 92.58 31.872 92.548C30.688 92.516 29.776 92.5 29.136 92.5C28.176 92.5 27.056 92.516 25.776 92.548C24.464 92.548 23.6 92.548 23.184 92.548H22.848C22.176 92.548 21.84 92.404 21.84 92.116C21.84 91.796 22.304 91.636 23.232 91.636C24.864 91.636 25.856 91.46 26.208 91.108C26.368 90.948 26.448 89.876 26.448 87.892V63.028C26.448 63.06 26.272 63.62 25.92 64.708C24.64 68.58 22.784 74.404 20.352 82.18L18.096 89.812C17.648 91.316 17.328 92.068 17.136 92.068C16.912 92.068 16.672 91.684 16.416 90.916C15.488 88.004 12.864 80.74 8.544 69.124L6.624 63.988C6.656 64.596 6.672 65.428 6.672 66.484V82.084C6.672 87.94 6.72 90.9 6.816 90.964C7.04 91.38 7.808 91.588 9.12 91.588C10.176 91.588 10.704 91.732 10.704 92.02C10.704 92.34 10.368 92.5 9.696 92.5C9.28 92.5 8.896 92.484 8.544 92.452C8.096 92.42 7.696 92.404 7.344 92.404L1.824 92.548C1.248 92.548 0.96 92.404 0.96 92.116C0.96 91.796 1.872 91.62 3.696 91.588C4.464 91.588 4.912 91.46 5.04 91.204C5.168 90.948 5.232 90.116 5.232 88.708V65.716C5.232 63.06 5.2 61.62 5.136 61.396C5.008 60.948 4.736 60.644 4.32 60.484C3.904 60.324 3.008 60.196 1.632 60.1C1.12 60.068 0.864 59.924 0.864 59.668C0.864 59.316 1.328 59.14 2.256 59.14C2.384 59.14 2.656 59.156 3.072 59.188H5.568C7.456 59.188 8.784 59.172 9.552 59.14C9.712 59.556 10.656 62.068 12.384 66.676C13.12 68.596 15.184 74.196 18.576 83.476C19.184 81.396 19.808 79.348 20.448 77.332L25.536 61.444C25.824 60.516 26.08 59.748 26.304 59.14L33.504 59.092C34.56 59.092 35.168 59.14 35.328 59.236C35.488 59.332 35.568 59.476 35.568 59.668C35.568 59.988 35.296 60.148 34.752 60.148C33.856 60.148 33.248 60.18 32.928 60.244C32.16 60.372 31.632 60.628 31.344 61.012C31.184 61.236 31.104 63.108 31.104 66.628V88.948C31.104 90.228 31.232 90.98 31.488 91.204C31.904 91.492 32.944 91.636 34.608 91.636H34.896C35.536 91.636 35.856 91.796 35.856 92.116ZM58.3144 82.132C58.3144 85.236 57.3704 87.844 55.4824 89.956C53.5944 92.036 51.2424 93.076 48.4264 93.076C45.5144 93.076 43.0824 92.036 41.1304 89.956C39.1784 87.844 38.2024 85.236 38.2024 82.132C38.2024 78.932 39.1464 76.276 41.0344 74.164C42.9544 72.052 45.3384 70.996 48.1864 70.996C51.0664 70.996 53.4664 72.068 55.3864 74.212C57.3384 76.324 58.3144 78.964 58.3144 82.132ZM53.9464 82.084C53.9464 78.564 53.4024 75.828 52.3144 73.876C51.5144 72.436 50.1704 71.716 48.2824 71.716C46.4904 71.716 45.0824 72.644 44.0584 74.5C43.0664 76.324 42.5704 78.868 42.5704 82.132C42.5704 85.364 43.0984 87.892 44.1544 89.716C45.2424 91.508 46.7464 92.404 48.6664 92.404C50.1384 92.404 51.2264 91.844 51.9304 90.724C53.2744 88.612 53.9464 85.732 53.9464 82.084ZM71.1049 92.164C71.1049 92.452 70.8969 92.596 70.4809 92.596H69.9049C69.8409 92.596 68.9929 92.564 67.3609 92.5L65.8729 92.452C65.6169 92.452 64.3369 92.5 62.0329 92.596C61.8409 92.628 61.6489 92.644 61.4569 92.644C60.9769 92.676 60.7369 92.532 60.7369 92.212C60.7369 91.988 60.9129 91.876 61.2649 91.876H62.5129C63.4089 91.876 63.8569 91.684 63.8569 91.3C63.8889 91.108 63.9049 89.86 63.9049 87.556V63.124C63.9049 62.068 63.8729 61.492 63.8089 61.396C63.7129 61.14 63.4569 61.012 63.0409 61.012H62.6569L61.3129 61.06C60.8649 61.06 60.6409 60.916 60.6409 60.628C60.6409 60.372 61.0409 60.228 61.8409 60.196C63.3769 60.1 64.8009 59.748 66.1129 59.14L67.1209 58.66L67.5049 58.516C67.7609 59.444 67.8729 60.852 67.8409 62.74L67.7929 66.148L67.8409 89.668C67.8409 90.628 67.8569 91.204 67.8889 91.396C67.9209 91.556 68.0329 91.668 68.2249 91.732C68.2569 91.764 68.8489 91.796 70.0009 91.828C70.7369 91.828 71.1049 91.94 71.1049 92.164ZM86.5778 89.668C86.5778 89.956 86.1778 90.468 85.3778 91.204C84.0018 92.452 82.3698 93.076 80.4818 93.076C78.7218 93.076 77.3938 92.628 76.4978 91.732C75.9858 91.22 75.7298 89.716 75.7298 87.22V72.916C75.6978 72.596 75.5218 72.42 75.2018 72.388H73.3778C72.6738 72.388 72.3218 72.276 72.3218 72.052C72.3218 71.828 72.4978 71.7 72.8498 71.668C75.3458 71.444 77.2978 70.228 78.7058 68.02C78.8978 67.732 79.1378 67.588 79.4258 67.588C79.6498 67.588 79.7618 67.7 79.7618 67.924V68.116C79.7298 68.276 79.7138 68.548 79.7138 68.932C79.7138 70.276 79.7778 71.14 79.9058 71.524C80.1938 71.588 80.6738 71.62 81.3458 71.62C83.1058 71.62 84.2738 71.54 84.8498 71.38C84.9778 71.348 85.0898 71.332 85.1858 71.332C85.4418 71.332 85.5698 71.476 85.5698 71.764C85.5698 72.244 84.2738 72.484 81.6818 72.484C81.2338 72.484 80.5778 72.468 79.7138 72.436V81.316C79.7138 85.796 79.8258 88.612 80.0498 89.764C80.2738 90.884 81.0098 91.444 82.2578 91.444C83.3138 91.444 84.4978 90.852 85.8098 89.668C85.9378 89.508 86.0818 89.428 86.2418 89.428C86.4658 89.428 86.5778 89.508 86.5778 89.668ZM105.546 87.268C105.546 87.588 105.29 88.164 104.778 88.996C104.298 89.796 103.802 90.452 103.29 90.964C101.914 92.372 100.074 93.076 97.7704 93.076C94.8904 93.076 92.4744 92.036 90.5224 89.956C88.6024 87.876 87.6424 85.3 87.6424 82.228C87.6424 79.028 88.5544 76.356 90.3784 74.212C92.2344 72.068 94.5384 70.996 97.2904 70.996C99.5624 70.996 101.466 71.668 103.002 73.012C104.538 74.324 105.354 76.02 105.45 78.1C104.426 78.26 103.066 78.324 101.37 78.292L98.0104 78.244C97.7864 78.244 95.8664 78.292 92.2504 78.388C92.0904 79.444 92.0104 80.452 92.0104 81.412C92.0104 84.644 92.6184 87.14 93.8344 88.9C95.0824 90.628 96.8264 91.492 99.0664 91.492C100.346 91.492 101.37 91.204 102.138 90.628C102.906 90.052 103.738 88.948 104.634 87.316C104.762 87.06 104.938 86.932 105.162 86.932C105.418 86.932 105.546 87.044 105.546 87.268ZM101.37 77.476C101.242 73.636 99.8664 71.716 97.2424 71.716C94.6504 71.716 93.0344 73.636 92.3944 77.476H101.37ZM130.539 92.212C130.539 92.468 130.299 92.596 129.819 92.596H129.243C128.667 92.532 127.883 92.5 126.891 92.5C123.755 92.5 121.899 92.532 121.323 92.596H120.987C120.571 92.596 120.363 92.484 120.363 92.26C120.363 92.1 120.443 92.004 120.603 91.972C120.795 91.94 121.419 91.908 122.475 91.876C123.083 91.844 123.435 91.764 123.531 91.636C123.627 91.476 123.675 90.948 123.675 90.052V80.836C123.675 77.348 123.547 75.268 123.291 74.596C122.747 73.156 121.659 72.436 120.027 72.436C118.427 72.436 117.083 73.14 115.995 74.548C115.675 74.964 115.515 75.54 115.515 76.276L115.563 91.252C115.563 91.636 115.899 91.844 116.571 91.876L118.011 91.924C118.331 91.924 118.491 92.036 118.491 92.26C118.491 92.484 118.299 92.596 117.915 92.596H117.147C116.443 92.532 115.323 92.5 113.787 92.5C113.435 92.5 112.667 92.516 111.483 92.548C110.331 92.58 109.659 92.596 109.467 92.596H109.179C108.699 92.596 108.459 92.484 108.459 92.26C108.459 92.036 108.747 91.892 109.323 91.828C109.739 91.828 110.139 91.828 110.523 91.828C111.003 91.828 111.291 91.716 111.387 91.492L111.531 90.772V80.308C111.531 76.66 111.499 74.644 111.435 74.26C111.371 73.876 110.971 73.684 110.235 73.684C110.011 73.684 109.627 73.716 109.083 73.78H108.843C108.203 73.78 107.883 73.668 107.883 73.444C107.883 73.156 108.219 73.012 108.891 73.012C109.851 72.98 110.891 72.804 112.011 72.484C113.131 72.164 113.915 71.796 114.363 71.38C114.651 71.124 114.875 70.996 115.035 70.996C115.259 70.996 115.371 71.3 115.371 71.908V74.212C117.035 72.068 119.179 70.996 121.803 70.996C124.107 70.996 125.771 71.844 126.795 73.54C127.371 74.5 127.659 76.324 127.659 79.012V89.956C127.659 90.98 127.707 91.54 127.803 91.636C127.995 91.828 128.459 91.924 129.195 91.924C129.291 91.924 129.467 91.908 129.723 91.876H130.059C130.379 91.876 130.539 91.988 130.539 92.212ZM139.24 62.308C139.24 63.748 138.52 64.468 137.08 64.468C136.472 64.468 135.96 64.276 135.544 63.892C135.128 63.476 134.92 62.98 134.92 62.404C134.92 60.9 135.64 60.148 137.08 60.148C138.52 60.148 139.24 60.868 139.24 62.308ZM142.84 92.212C142.84 92.5 142.568 92.644 142.024 92.644C142.056 92.644 141.672 92.612 140.872 92.548C139.912 92.484 139.112 92.452 138.472 92.452L133.48 92.548C133.32 92.58 133.128 92.596 132.904 92.596C132.552 92.596 132.376 92.484 132.376 92.26C132.376 91.94 132.696 91.78 133.336 91.78C134.552 91.748 135.208 91.668 135.304 91.54C135.432 91.38 135.496 90.708 135.496 89.524L135.448 74.98C135.416 74.18 135.368 73.716 135.304 73.588C135.272 73.428 135.08 73.348 134.728 73.348L133.336 73.396C133.208 73.428 133.048 73.444 132.856 73.444C132.504 73.444 132.328 73.316 132.328 73.06C132.328 72.836 132.6 72.708 133.144 72.676C135.288 72.58 137.128 72.068 138.664 71.14L139.144 70.852C139.4 71.332 139.528 72.212 139.528 73.492C139.528 73.428 139.528 73.588 139.528 73.972C139.496 74.356 139.48 74.98 139.48 75.844V88.948C139.48 90.228 139.496 90.98 139.528 91.204C139.592 91.428 139.768 91.572 140.056 91.636C140.536 91.764 141.24 91.828 142.168 91.828C142.616 91.828 142.84 91.956 142.84 92.212ZM178.263 72.484C178.263 72.676 178.151 72.788 177.927 72.82C177.735 72.852 176.999 72.9 175.719 72.964C174.727 72.996 174.087 73.108 173.799 73.3C173.511 73.492 173.303 73.988 173.175 74.788C172.439 78.788 171.047 82.388 168.999 85.588C169.639 86.612 170.103 87.412 170.391 87.988C171.159 89.524 171.895 90.484 172.599 90.868C173.335 91.252 174.791 91.492 176.967 91.588C177.639 91.62 177.975 91.796 177.975 92.116C177.975 92.372 177.751 92.5 177.303 92.5C176.503 92.5 175.031 92.452 172.887 92.356C172.151 92.324 171.655 92.308 171.399 92.308C170.343 92.308 169.191 92.372 167.943 92.5C167.815 92.148 167.271 91.124 166.311 89.428L166.071 89.044C163.511 91.764 160.167 93.124 156.039 93.124C152.871 93.124 150.295 92.276 148.311 90.58C146.327 88.884 145.335 86.676 145.335 83.956C145.335 79.412 148.151 75.828 153.783 73.204C153.719 73.108 153.511 72.884 153.159 72.532C151.527 70.836 150.503 69.652 150.087 68.98C149.703 68.276 149.511 67.364 149.511 66.244C149.511 63.972 150.247 62.132 151.719 60.724C153.223 59.316 155.159 58.612 157.527 58.612C159.799 58.612 161.623 59.204 162.999 60.388C164.407 61.54 165.111 63.06 165.111 64.948C165.111 67.988 162.887 70.404 158.439 72.196C158.631 72.42 159.431 73.348 160.839 74.98C163.655 78.212 166.135 81.38 168.279 84.484C170.551 80.836 171.687 77.444 171.687 74.308C171.687 73.604 171.543 73.204 171.255 73.108C170.967 72.98 169.943 72.916 168.183 72.916C167.223 72.916 166.743 72.756 166.743 72.436C166.743 72.18 167.015 72.052 167.559 72.052H175.335C176.807 72.052 177.607 72.068 177.735 72.1C178.087 72.196 178.263 72.324 178.263 72.484ZM161.415 65.428C161.415 63.636 161.015 62.18 160.215 61.06C159.447 59.94 158.439 59.38 157.191 59.38C155.911 59.38 154.855 59.812 154.023 60.676C153.191 61.508 152.775 62.564 152.775 63.844C152.775 66.212 154.503 68.788 157.959 71.572C160.263 70.324 161.415 68.276 161.415 65.428ZM165.495 88.084C163.543 84.692 159.815 79.924 154.311 73.78C152.743 74.964 151.623 76.18 150.951 77.428C150.311 78.676 149.991 80.18 149.991 81.94C149.991 84.66 150.743 86.932 152.247 88.756C153.783 90.58 155.687 91.492 157.959 91.492C160.807 91.492 163.319 90.356 165.495 88.084ZM208.383 81.796C208.383 81.732 208.351 82.164 208.287 83.092C208.159 84.948 208.095 86.74 208.095 88.468C208.095 88.66 208.127 89.06 208.191 89.668C208.255 90.244 208.287 90.948 208.287 91.78V92.212C208.287 92.628 208.159 92.836 207.903 92.836C207.647 92.836 207.423 92.596 207.231 92.116C206.783 91.06 206.335 90.372 205.887 90.052C203.583 92.068 200.815 93.076 197.583 93.076C192.879 93.076 188.975 91.444 185.871 88.18C182.799 84.884 181.263 80.74 181.263 75.748C181.263 70.724 182.671 66.628 185.487 63.46C188.335 60.26 191.999 58.66 196.479 58.66C198.111 58.66 199.407 58.804 200.367 59.092C201.359 59.348 202.575 59.892 204.015 60.724C204.719 61.14 205.247 61.348 205.599 61.348C205.887 61.348 206.159 61.092 206.415 60.58C206.831 59.684 207.167 59.236 207.423 59.236C207.679 59.236 207.807 59.364 207.807 59.62C207.807 59.748 207.775 59.956 207.711 60.244C207.359 61.78 207.183 64.66 207.183 68.884C207.183 69.492 207.135 69.844 207.039 69.94C206.943 70.036 206.815 70.084 206.655 70.084C206.335 70.084 206.127 69.78 206.031 69.172C205.615 66.612 205.023 64.708 204.255 63.46C202.687 60.9 200.223 59.62 196.863 59.62C194.271 59.62 192.223 60.484 190.719 62.212C187.999 65.316 186.639 69.86 186.639 75.844C186.639 81.188 187.759 85.332 189.999 88.276C191.951 90.836 194.543 92.116 197.775 92.116C199.439 92.116 200.959 91.716 202.335 90.916C203.711 90.084 204.767 88.964 205.503 87.556C206.335 85.924 206.927 84.148 207.279 82.228C207.407 81.46 207.615 81.076 207.903 81.076C208.223 81.076 208.383 81.316 208.383 81.796Z" fill="white"/>
</svg>
