<svg width="153" height="153" viewBox="0 0 153 153" fill="none" xmlns="http://www.w3.org/2000/svg">
<g clip-path="url(#clip0_1003_189537)">
<path d="M153 0H0V153H153V0Z" fill="#E30613"/>
<path d="M81.7553 62.7031C77.5761 62.7031 74.9219 64.599 74.9219 68.9871V85.2387C74.9219 89.6268 77.6612 91.5227 81.8405 91.5227C86.0194 91.5227 88.7125 89.6268 88.7125 85.2387V68.9871C88.7125 64.599 85.9728 62.7031 81.7553 62.7031ZM83.0631 87.839C83.0621 87.992 83.0305 88.1434 82.97 88.2841C82.9095 88.4248 82.8217 88.5518 82.7112 88.6579C82.6008 88.764 82.4704 88.8468 82.3274 88.9014C82.1844 88.9563 82.0321 88.9819 81.8791 88.9766C81.5634 88.9892 81.2554 88.8768 81.0223 88.6639C80.7891 88.4507 80.6491 88.1543 80.6331 87.839V66.1702C80.6341 66.0186 80.665 65.8689 80.7239 65.7295C80.7828 65.5898 80.8686 65.4634 80.9764 65.357C81.0841 65.2506 81.2118 65.1664 81.3519 65.1095C81.4922 65.0527 81.6426 65.0237 81.7939 65.0247C82.1175 65.0141 82.4325 65.1318 82.6703 65.352C82.9078 65.5722 83.0488 65.8775 83.0631 66.2012V87.839Z" fill="white"/>
<path d="M72.1216 62.703C71.77 62.7309 71.4407 62.8863 71.1956 63.1401C70.9505 63.3935 70.8065 63.7281 70.7905 64.0803L67.5402 82.8937L64.3362 65.1021C63.9185 63.6317 62.9433 62.703 61.5117 62.703C61.1488 62.6754 60.7846 62.7223 60.4407 62.8407C60.0968 62.9591 59.7808 63.1467 59.5117 63.3915C59.243 63.6366 59.0271 63.9337 58.8771 64.2653C58.7274 64.5965 58.6469 64.9551 58.6406 65.3186C58.6493 65.5784 58.6779 65.8372 58.7254 66.0926L63.067 89.1467C63.222 89.8123 63.5995 90.4053 64.137 90.8274C64.6745 91.2495 65.34 91.4757 66.0232 91.4683C66.716 91.4966 67.3965 91.2791 67.9447 90.8543C68.4925 90.4296 68.873 89.8246 69.0184 89.1467C73.2747 65.5664 73.4061 64.8929 73.4061 64.8929C73.4061 64.8929 73.4836 64.1811 73.5302 64.0494C73.5272 63.8685 73.4883 63.6895 73.4154 63.5236C73.3429 63.3572 73.2382 63.2072 73.1071 63.0822C72.9761 62.9568 72.8214 62.859 72.6524 62.7938C72.4831 62.7286 72.3029 62.6977 72.1216 62.703Z" fill="white"/>
<path d="M100.218 88.8423H97.5636V65.1456C97.542 64.7967 97.4518 64.4551 97.2978 64.1408C97.1441 63.8265 96.93 63.5458 96.6679 63.3143C96.4054 63.0828 96.1001 62.9055 95.7691 62.7921C95.4382 62.6786 95.088 62.6317 94.7391 62.6537C94.3918 62.6317 94.0439 62.679 93.715 62.7931C93.3863 62.9068 93.0837 63.0848 92.8246 63.3166C92.5651 63.5484 92.3546 63.8298 92.2049 64.1438C92.0552 64.4578 91.9698 64.7984 91.9531 65.1456C91.9531 87.751 91.9531 88.9271 91.9531 88.9271C91.9604 89.2853 92.0406 89.6386 92.1889 89.9645C92.3373 90.2908 92.5505 90.5832 92.8153 90.8243C93.0803 91.0655 93.3917 91.2501 93.7306 91.3671C94.0692 91.4839 94.4281 91.5308 94.7853 91.5042H100.202C100.379 91.5045 100.554 91.4693 100.716 91.4007C100.879 91.3322 101.026 91.2321 101.149 91.1057C101.273 90.9797 101.37 90.83 101.434 90.666C101.499 90.5017 101.53 90.3264 101.526 90.1501C101.516 89.8062 101.375 89.4793 101.132 89.2361C100.889 88.993 100.562 88.852 100.218 88.8423Z" fill="white"/>
<path d="M40.6304 80.0769C40.2622 80.0789 39.898 80.1538 39.5587 80.2968C39.2195 80.4402 38.9121 80.649 38.6537 80.9115C38.3956 81.1739 38.1917 81.4849 38.0543 81.8265C37.9166 82.1681 37.8478 82.5333 37.8521 82.9015V87.839C37.8179 88.1454 37.6718 88.4287 37.442 88.6343C37.2122 88.8399 36.9145 88.9536 36.6062 88.9536C36.2975 88.9536 36.0001 88.8399 35.7703 88.6343C35.5401 88.4287 35.3945 88.1454 35.3602 87.839V66.1702C35.3612 66.0186 35.3918 65.8689 35.4507 65.7295C35.5095 65.5898 35.5954 65.4634 35.7031 65.357C35.8112 65.2506 35.9386 65.1664 36.079 65.1095C36.2193 65.0527 36.3693 65.0237 36.521 65.0247C36.679 65.0194 36.8363 65.046 36.984 65.1029C37.1317 65.1594 37.2667 65.2453 37.3805 65.355C37.4946 65.4644 37.5854 65.5958 37.6479 65.7412C37.7101 65.8865 37.7427 66.0429 37.7437 66.2012V70.8444C37.7387 71.2136 37.8069 71.5798 37.9446 71.9224C38.0823 72.265 38.2865 72.5766 38.5459 72.8394C38.805 73.1021 39.114 73.311 39.4546 73.4534C39.7952 73.5957 40.1604 73.6692 40.5296 73.6692C40.9035 73.6732 41.2747 73.603 41.6212 73.463C41.9681 73.323 42.2835 73.1158 42.5499 72.8533C42.816 72.5906 43.0275 72.2779 43.1722 71.933C43.3169 71.5884 43.392 71.2182 43.393 70.8444V68.9871C43.4163 64.599 40.7155 62.7031 36.521 62.7031C32.3265 62.7031 29.6875 64.599 29.6875 68.9871V85.2387C29.6875 89.6268 32.4348 91.5227 36.6062 91.5227C40.7774 91.5227 43.4858 89.6188 43.4858 85.262V82.9015C43.4858 82.5279 43.412 82.1581 43.268 81.8135C43.124 81.4686 42.9134 81.1559 42.6477 80.8932C42.3822 80.6304 42.0669 80.4232 41.7207 80.2828C41.3744 80.1428 41.0039 80.0726 40.6304 80.0769Z" fill="white"/>
<path d="M54.9318 65.0236C54.7589 64.361 54.3707 63.7746 53.8289 63.3562C53.2871 62.9378 52.6215 62.7109 51.937 62.7109C51.2522 62.7109 50.5869 62.9378 50.0448 63.3562C49.503 63.7746 49.1152 64.361 48.9419 65.0236L44.5927 89.3083C44.5927 89.3083 44.4689 90.0278 44.4689 90.1518C44.4659 90.3291 44.4982 90.5054 44.5641 90.67C44.6303 90.8347 44.7284 90.9847 44.8531 91.1107C44.9778 91.2368 45.1265 91.3369 45.2905 91.4048C45.4545 91.4726 45.6304 91.5072 45.8077 91.5059C46.1583 91.4823 46.4882 91.3316 46.736 91.0825C46.9838 90.8333 47.1325 90.5024 47.1544 90.1518L47.5798 88.2556H53.3918L53.6084 89.0991C54.0727 90.5386 55.0017 91.5059 56.4332 91.5059C56.7974 91.5311 57.1626 91.4829 57.5079 91.3642C57.8528 91.2451 58.1704 91.0582 58.4418 90.8144C58.7132 90.5702 58.9331 90.2742 59.0878 89.9436C59.2424 89.6133 59.3292 89.2551 59.3429 88.8902C59.3429 88.7199 59.258 88.3022 59.258 88.1163L54.9318 65.0236ZM47.967 85.8565L50.3737 71.8184L53.028 85.8645L47.967 85.8565Z" fill="white"/>
<path d="M20.1381 62.7031C15.9591 62.7031 13.5136 64.599 13.5136 68.9871V72.8563C13.5136 74.675 14.0631 75.8515 15.8353 77.1207L20.1381 80.2163C21.0204 80.8509 21.3609 81.2301 21.3609 82.027V87.7615C21.3644 87.9159 21.3358 88.0692 21.2769 88.2119C21.2181 88.3546 21.1302 88.4836 21.0189 88.5907C20.9075 88.6975 20.7752 88.7803 20.6303 88.8332C20.4853 88.8864 20.3309 88.909 20.1768 88.8991C20.0235 88.9087 19.8698 88.8871 19.7248 88.8365C19.5798 88.7856 19.4465 88.7061 19.3326 88.603C19.2186 88.5003 19.1265 88.3752 19.0615 88.2362C18.9965 88.0968 18.96 87.9461 18.9541 87.7925V82.9866C18.9582 82.6147 18.888 82.2456 18.7475 81.901C18.607 81.5564 18.3991 81.2431 18.136 80.98C17.8729 80.7169 17.5598 80.509 17.2152 80.3686C16.8707 80.2279 16.5015 80.1578 16.1294 80.1621C15.7582 80.1611 15.3904 80.2333 15.0472 80.375C14.704 80.5167 14.3923 80.7245 14.1298 80.987C13.8673 81.2494 13.6592 81.5614 13.5176 81.9046C13.376 82.2475 13.3037 82.6154 13.3047 82.9866V84.8828C13.3047 89.2706 16.0056 91.507 20.1768 91.507C24.3481 91.507 26.9716 89.6112 26.9716 85.2231V80.7501C27.0153 79.9659 26.8473 79.1842 26.4851 78.4871C26.1229 77.7899 25.58 77.2029 24.913 76.7878L21.4537 74.5513C19.0934 73.0037 18.9231 72.8643 18.9231 70.2949V66.2012C18.9239 66.0402 18.9574 65.8812 19.0217 65.7335C19.086 65.5862 19.1797 65.4535 19.297 65.3434C19.4143 65.2333 19.5529 65.1481 19.7041 65.0933C19.8554 65.0387 20.0162 65.0154 20.1768 65.0247C20.3349 65.0194 20.4924 65.046 20.64 65.1029C20.7877 65.1594 20.9225 65.2453 21.0365 65.355C21.1504 65.4644 21.2413 65.5958 21.3036 65.7412C21.366 65.8865 21.3986 66.0429 21.3996 66.2012V70.8444C21.3944 71.2136 21.4627 71.5798 21.6004 71.9224C21.7382 72.265 21.9425 72.5766 22.2018 72.8394C22.461 73.1021 22.7698 73.311 23.1104 73.4534C23.451 73.5957 23.8164 73.6692 24.1856 73.6692C24.9397 73.6712 25.6642 73.3759 26.2017 72.8467C26.7393 72.3178 27.0465 71.5984 27.0567 70.8444V68.9871C27.0567 64.599 24.3094 62.7031 20.1381 62.7031Z" fill="white"/>
<path d="M105.395 62.6538C104.686 62.6092 103.987 62.8457 103.451 63.312C102.915 63.7783 102.585 64.4372 102.531 65.1457V88.9275C102.595 89.6373 102.923 90.2975 103.449 90.7785C103.975 91.2591 104.662 91.5259 105.375 91.5259C106.088 91.5259 106.775 91.2591 107.302 90.7785C107.828 90.2975 108.155 89.6373 108.219 88.9275C108.219 88.9275 108.266 87.7511 108.219 65.1457C108.17 64.4429 107.846 63.7876 107.317 63.3216C106.789 62.8553 106.098 62.6155 105.395 62.6538Z" fill="white"/>
<path d="M137.542 62.5781C136.98 62.5778 136.441 62.7983 136.04 63.1921C135.639 63.5859 135.408 64.1211 135.398 64.6829C135.431 65.2304 135.672 65.7442 136.071 66.1201C136.47 66.4959 136.998 66.7055 137.546 66.7055C138.094 66.7055 138.622 66.4959 139.021 66.1201C139.42 65.7442 139.66 65.2304 139.693 64.6829C139.683 64.1198 139.452 63.5833 139.049 63.1895C138.647 62.7957 138.105 62.5758 137.542 62.5781ZM137.542 66.4474C137.307 66.4504 137.073 66.4071 136.854 66.3197C136.636 66.2322 136.437 66.1021 136.268 65.9375C136.1 65.7729 135.966 65.5766 135.874 65.3601C135.782 65.1432 135.733 64.9107 135.731 64.6752C135.761 64.2146 135.966 63.7822 136.302 63.4665C136.639 63.1509 137.084 62.9753 137.546 62.9753C138.008 62.9753 138.452 63.1509 138.789 63.4665C139.126 63.7822 139.331 64.2146 139.361 64.6752C139.358 64.9117 139.31 65.1456 139.217 65.3631C139.125 65.5806 138.99 65.7775 138.821 65.9431C138.652 66.1085 138.452 66.2388 138.233 66.3266C138.013 66.4145 137.779 66.4584 137.542 66.455V66.4474Z" fill="white"/>
<path d="M138.608 64.1309C138.605 64.0391 138.58 63.9489 138.536 63.8684C138.491 63.7876 138.428 63.7188 138.353 63.6665C138.178 63.597 137.99 63.5677 137.803 63.5814H136.836V65.733H137.169V64.7655H137.548L138.182 65.733H138.562L137.904 64.7655C138.267 64.7192 138.608 64.5952 138.608 64.1309ZM137.509 64.4714H137.169V63.8368H137.718C138.012 63.8368 138.267 63.8834 138.267 64.1309C138.267 64.5566 137.85 64.4714 137.509 64.4714Z" fill="white"/>
<path d="M131.348 62.6543C130.645 62.6181 129.956 62.8585 129.428 63.3245C128.9 63.7902 128.575 64.4441 128.523 65.1462C128.523 87.7516 128.523 88.9281 128.523 88.9281C128.53 89.2856 128.609 89.6385 128.757 89.9648C128.904 90.2908 129.116 90.5835 129.381 90.8246C129.645 91.0661 129.956 91.2507 130.295 91.3678C130.633 91.4845 130.991 91.5314 131.348 91.5051C132.703 91.5051 134.219 90.7311 134.219 88.9281V65.1462C134.166 64.4364 133.834 63.7762 133.296 63.3095C132.759 62.8429 132.059 62.6074 131.348 62.6543Z" fill="white"/>
<path d="M124.351 62.5312C124.021 62.5392 123.707 62.6769 123.477 62.9144C123.246 63.1516 123.119 63.4699 123.121 63.8005V82.0564L116.233 64.3034C116.114 63.9794 115.933 63.6824 115.698 63.429C115.464 63.1755 115.182 62.9713 114.868 62.8273C114.555 62.6833 114.216 62.6031 113.871 62.5908C113.526 62.5785 113.182 62.6344 112.859 62.7558C112.355 62.9573 111.924 63.3072 111.623 63.7592C111.322 64.2109 111.164 64.7434 111.172 65.2862V90.3912C111.172 90.7218 111.304 91.0385 111.537 91.2723C111.771 91.5058 112.088 91.6372 112.418 91.6372C112.749 91.6372 113.065 91.5058 113.299 91.2723C113.533 91.0385 113.664 90.7218 113.664 90.3912V72.2358L120.536 89.8574C120.65 90.185 120.828 90.4863 121.062 90.7431C121.295 91.0002 121.577 91.2071 121.893 91.3518C122.208 91.4961 122.549 91.5756 122.896 91.5846C123.243 91.5939 123.588 91.5327 123.91 91.405C124.426 91.2088 124.867 90.8562 125.172 90.3969C125.477 89.9375 125.631 89.3947 125.613 88.8436V63.8005C125.613 63.4652 125.48 63.1436 125.244 62.9058C125.008 62.668 124.687 62.5332 124.351 62.5312Z" fill="white"/>
</g>
<defs>
<clipPath id="clip0_1003_189537">
<rect width="153" height="153" fill="white"/>
</clipPath>
</defs>
</svg>
