<svg width="100" height="43" viewBox="0 0 100 43" fill="none" xmlns="http://www.w3.org/2000/svg">
<path d="M24.4957 16.5172H12.8934V20.0127H21.1218C20.7153 24.9142 16.6987 27.0045 12.9073 27.0045C8.05659 27.0045 3.82387 23.1297 3.82387 17.6986C3.82387 12.4079 7.85876 8.33338 12.918 8.33338C16.8213 8.33338 19.1213 10.8597 19.1213 10.8597L21.5319 8.32522C21.5319 8.32522 18.4378 4.82812 12.7948 4.82812C5.60978 4.82812 0.0507812 10.9855 0.0507812 17.6363C0.0507812 24.1533 5.27999 30.5084 12.9783 30.5084C19.7493 30.5084 24.7058 25.7991 24.7058 18.8356C24.7058 17.3664 24.4957 16.5172 24.4957 16.5172Z" fill="#4285F4"/>
<path d="M34.0006 13.9863C29.2399 13.9863 25.8281 17.765 25.8281 22.1722C25.8281 26.6445 29.1373 30.4935 34.0565 30.4935C38.5097 30.4935 42.1579 27.0379 42.1579 22.2683C42.1579 16.8017 37.9142 13.9863 34.0006 13.9863ZM34.0479 17.2283C36.3891 17.2283 38.6075 19.15 38.6075 22.2465C38.6075 25.2773 36.3984 27.2537 34.0371 27.2537C31.4426 27.2537 29.3958 25.144 29.3958 22.2224C29.3958 19.3636 31.4172 17.2283 34.0479 17.2283Z" fill="#EA4335"/>
<path d="M51.774 13.9863C47.0133 13.9863 43.6016 17.765 43.6016 22.1722C43.6016 26.6445 46.9108 30.4935 51.8299 30.4935C56.2831 30.4935 59.9314 27.0379 59.9314 22.2683C59.9314 16.8017 55.6876 13.9863 51.774 13.9863ZM51.8213 17.2283C54.1625 17.2283 56.3809 19.15 56.3809 22.2465C56.3809 25.2773 54.1718 27.2537 51.8106 27.2537C49.216 27.2537 47.1692 25.144 47.1692 22.2224C47.1692 19.3636 49.1906 17.2283 51.8213 17.2283Z" fill="#FBBC05"/>
<path d="M69.2068 13.9951C64.837 13.9951 61.4023 17.8808 61.4023 22.2422C61.4023 27.2101 65.3844 30.5045 69.1315 30.5045C71.4484 30.5045 72.6805 29.5707 73.59 28.499V30.1265C73.59 32.9741 71.887 34.6793 69.3166 34.6793C66.8334 34.6793 65.5879 32.8047 65.155 31.741L62.0307 33.0671C63.1391 35.4464 65.3702 37.9279 69.3424 37.9279C73.687 37.9279 76.9984 35.1495 76.9984 29.3226V14.491H73.59V15.8892C72.5427 14.7427 71.1096 13.9951 69.2068 13.9951ZM69.5231 17.2306C71.6655 17.2306 73.8654 19.0878 73.8654 22.2596C73.8654 25.4835 71.6702 27.2603 69.4758 27.2603C67.1462 27.2603 64.9786 25.3398 64.9786 22.2902C64.9786 19.1214 67.2298 17.2306 69.5231 17.2306Z" fill="#4285F4"/>
<path d="M92.1532 13.9756C88.0312 13.9756 84.5703 17.3052 84.5703 22.2183C84.5703 27.4169 88.428 30.5002 92.5491 30.5002C95.9886 30.5002 98.0997 28.5898 99.3594 26.8781L96.5492 24.9796C95.82 26.1286 94.6009 27.2517 92.5663 27.2517C90.2809 27.2517 89.2301 25.9811 88.5791 24.7503L99.4799 20.1581L98.914 18.8124C97.8605 16.1769 95.4038 13.9756 92.1532 13.9756ZM92.2952 17.1499C93.7805 17.1499 94.8494 17.9516 95.3034 18.9129L88.0239 22.002C87.7101 19.6104 89.9417 17.1499 92.2952 17.1499Z" fill="#EA4335"/>
<path d="M79.375 30.0099H82.9555V5.68164H79.375V30.0099Z" fill="#34A853"/>
</svg>
