<svg width="100" height="43" viewBox="0 0 100 43" fill="none" xmlns="http://www.w3.org/2000/svg">
<path fill-rule="evenodd" clip-rule="evenodd" d="M69.2584 21.2972V23.5547H59.2113C59.3643 26.4333 60.5407 27.8547 63.5642 27.8547C65.6113 27.8547 67.8113 27.1858 69.0819 26.3258V29.7777C67.9054 30.5899 65.9054 31.1872 63.2348 31.1872C57.9054 31.1872 54.8819 28.201 54.8819 22.0735C54.8819 16.6985 57.3172 12.7808 62.3995 12.7808C66.5642 12.7808 69.2584 15.1099 69.2584 21.2972ZM62.3054 16.1372C60.3054 16.1372 59.2937 17.6183 59.1995 20.4252H64.9995V20.0669C64.9995 17.8452 64.376 16.1372 62.2937 16.1372H62.3054ZM30.8701 20.1863V13.1033H35.0701V31.008H30.8701V23.5188H25.2819V31.008H21.1172V13.0913H25.2819V20.1863H30.8701ZM87.1407 31.008H82.4113L76.2348 22.2169V31.008H72.0701V13.0913H76.2348V21.3688L82.1172 13.1033H86.3407L80.4584 21.3688L87.1407 31.008ZM99.4701 30.1122C98.4466 30.8647 97.0937 31.223 95.1525 31.223C89.5995 31.223 86.8937 27.9502 86.8819 22.0855C86.8819 16.6747 89.6466 12.8285 94.976 12.8285C97.0466 12.8285 98.5878 13.1869 99.4701 13.6885V17.2719C98.2462 16.5559 96.8592 16.1771 95.4466 16.173C92.7054 16.173 91.2113 18.1319 91.2113 21.978C91.2113 25.6091 92.4231 27.8785 95.4113 27.8785C97.1642 27.8785 98.4113 27.4008 99.4701 26.6602V30.1241V30.1122ZM51.9995 27.6516H53.8584V34.9377H49.9995V30.9722H40.6466V34.9377H36.7878V27.6397H38.0819C39.5525 24.6535 39.8466 18.9919 39.8466 14.6202V13.0913H51.9995V27.6516ZM41.9525 27.6516H47.8348V16.4477H43.4231V16.9733C43.4231 20.0669 43.1172 24.9522 41.9525 27.6516Z" fill="black"/>
<path d="M17.6102 30.996V6.271H11.4455C5.23369 6.271 1.98663 9.496 1.98663 14.2738C1.98663 18.0602 3.7631 20.3296 6.95133 22.6349L1.41016 30.996H5.99839L12.1749 21.6196L10.0337 20.1743C7.44545 18.3827 6.1631 17.0091 6.1631 14.011C6.1631 11.3832 7.98663 9.6035 11.4572 9.6035H13.3513V30.9841H17.6102V30.996Z" fill="#FC3F1D"/>
</svg>
