<svg width="260" height="120" viewBox="0 0 260 120" fill="none" xmlns="http://www.w3.org/2000/svg">
<rect width="260" height="120" fill="#F1F1F1"/>
<path opacity="0.251" fill-rule="evenodd" clip-rule="evenodd" d="M173.529 10.9766C173.529 11.0604 173.529 11.1444 173.529 11.2282C173.445 11.2282 173.361 11.2282 173.278 11.2282C144.164 11.2282 115.05 11.2282 85.9365 11.2282C85.9365 40.5015 85.9365 69.7751 85.9365 99.0485C85.853 99.0485 85.7691 99.0485 85.6855 99.0485C85.6855 69.6911 85.6855 40.3339 85.6855 10.9766C114.967 10.9766 144.248 10.9766 173.529 10.9766Z" fill="#DB212B"/>
<path fill-rule="evenodd" clip-rule="evenodd" d="M173.28 11.2344C173.363 11.2344 173.447 11.2344 173.531 11.2344C173.531 11.4022 173.531 11.5698 173.531 11.7376C173.363 11.7376 173.28 11.8214 173.28 11.9893C173.029 40.8011 172.945 69.655 173.029 98.5514C144.082 98.5514 115.136 98.5514 86.1895 98.5514C86.1895 69.5297 86.1895 40.5077 86.1895 11.486C115.262 11.5698 144.292 11.486 173.28 11.2344Z" fill="#E20713"/>
<path fill-rule="evenodd" clip-rule="evenodd" d="M173.279 11.2344C144.291 11.486 115.261 11.5698 86.1885 11.486C86.1885 40.5077 86.1885 69.5297 86.1885 98.5514C115.135 98.5514 144.081 98.5514 173.028 98.5514C172.944 69.655 173.028 40.8011 173.279 11.9893C173.279 40.9272 173.279 69.8651 173.279 98.803C144.206 98.7192 115.176 98.803 86.1885 99.0546C86.1049 99.0546 86.0211 99.0546 85.9375 99.0546C85.9375 69.7813 85.9375 40.5077 85.9375 11.2344C115.051 11.2344 144.165 11.2344 173.279 11.2344Z" fill="#EC000A"/>
<path fill-rule="evenodd" clip-rule="evenodd" d="M136.888 92.0078C136.74 92.1716 136.572 92.3395 136.386 92.5111C132.71 93.0906 129.029 93.1326 125.343 92.6369C125.032 92.5785 124.781 92.4527 124.59 92.2594C128.697 92.8649 132.797 92.7811 136.888 92.0078Z" fill="#DD3A3C"/>
<path fill-rule="evenodd" clip-rule="evenodd" d="M140.401 91.25C139.411 91.785 138.324 92.0366 137.139 92.0049C138.171 91.6418 139.259 91.3902 140.401 91.25Z" fill="#DD4C4E"/>
<path fill-rule="evenodd" clip-rule="evenodd" d="M92.4612 50.2344C92.0476 54.2019 92.215 58.1442 92.9631 62.0612C101.705 62.3123 110.489 62.3963 119.316 62.3128C119.316 71.8749 119.316 81.437 119.316 90.9991C119.066 81.5638 118.982 72.0855 119.065 62.5644C110.281 62.5644 101.496 62.5644 92.7122 62.5644C92.104 60.0076 91.8531 57.4075 91.9592 54.7638C91.9602 53.1604 92.1276 51.6506 92.4612 50.2344Z" fill="#E11822"/>
<path fill-rule="evenodd" clip-rule="evenodd" d="M167.256 58.2891C167.182 59.6172 167.182 60.9171 167.256 62.1894C166.874 63.5369 166.372 64.8371 165.75 66.0897C166.322 63.4727 166.824 60.8726 167.256 58.2891Z" fill="#DF3E3E"/>
<path fill-rule="evenodd" clip-rule="evenodd" d="M92.9648 62.0625C101.833 62.0625 110.701 62.0625 119.569 62.0625C119.569 71.7084 119.569 81.3545 119.569 91.0004C119.485 91.0004 119.401 91.0004 119.318 91.0004C119.318 81.4383 119.318 71.8762 119.318 62.3141C110.491 62.3977 101.706 62.3136 92.9648 62.0625Z" fill="#CB4A4F"/>
<path fill-rule="evenodd" clip-rule="evenodd" d="M163.992 39.6674C164.242 39.6457 164.451 39.7298 164.62 39.919C165.581 42.2577 166.209 44.6903 166.502 47.2164C165.95 44.6304 165.113 42.114 163.992 39.6674Z" fill="#DF3839"/>
<path fill-rule="evenodd" clip-rule="evenodd" d="M163.74 17.5233C166.124 17.1894 167.253 18.1959 167.128 20.5429C166.434 21.9702 165.304 22.4317 163.74 21.9269C162.11 20.4803 162.11 19.0122 163.74 17.5233Z" fill="#FEDFE0"/>
<path fill-rule="evenodd" clip-rule="evenodd" d="M163.99 18.0268C165.563 17.6788 166.483 18.2659 166.751 19.7883C166.365 21.6806 165.319 22.1838 163.614 21.2981C162.724 20.0857 162.85 18.9954 163.99 18.0268Z" fill="#E63636"/>
<path fill-rule="evenodd" clip-rule="evenodd" d="M163.994 18.5325C165.85 18.1229 166.352 18.7099 165.5 20.294C165.62 20.5401 165.787 20.7497 166.002 20.9231C165.835 21.0909 165.668 21.0909 165.5 20.9231C164.959 19.729 164.54 19.7711 164.245 21.0489C163.998 20.2265 163.914 19.3876 163.994 18.5325Z" fill="#FEE7E8"/>
<path fill-rule="evenodd" clip-rule="evenodd" d="M164.494 18.7812C164.829 18.7812 165.164 18.7812 165.498 18.7812C165.498 19.0329 165.498 19.2845 165.498 19.5362C165.164 19.5362 164.829 19.5362 164.494 19.5362C164.494 19.2845 164.494 19.0329 164.494 18.7812Z" fill="#E7403E"/>
<path fill-rule="evenodd" clip-rule="evenodd" d="M138.141 18.2745C150.003 21.4416 158.62 28.5714 163.992 39.6634C165.113 42.11 165.95 44.6264 166.502 47.2124C167.159 50.8686 167.41 54.5591 167.255 58.2843C166.824 60.8678 166.322 63.468 165.749 66.085C161.466 78.6838 153.016 87.0715 140.4 91.2484C139.258 91.3885 138.17 91.6401 137.138 92.0033C137.054 92.0033 136.97 92.0033 136.887 92.0033C132.795 92.7765 128.696 92.8603 124.589 92.2549C122.838 92.0312 121.165 91.612 119.569 90.9967C119.569 81.3508 119.569 71.7047 119.569 62.0588C110.701 62.0588 101.833 62.0588 92.965 62.0588C92.2168 58.1419 92.0494 54.1995 92.463 50.232C95.1003 35.1702 103.55 24.8532 117.812 19.281C124.504 17.3434 131.281 17.0078 138.141 18.2745Z" fill="#FEFDFD"/>
<path fill-rule="evenodd" clip-rule="evenodd" d="M138.643 75.8984C138.726 79.0064 138.642 82.11 138.392 85.2089C137.652 85.4412 136.899 85.6087 136.133 85.7122C136.161 85.5569 136.244 85.4311 136.384 85.3347C136.984 85.2625 137.569 85.1367 138.141 84.9573C138.308 81.8974 138.475 78.8778 138.643 75.8984Z" fill="#CD3033"/>
<path fill-rule="evenodd" clip-rule="evenodd" d="M138.643 69.8595C144.836 69.7757 151.026 69.8595 157.215 70.1112C157.184 70.2639 157.1 70.3477 156.964 70.3628C150.857 70.195 144.75 70.0274 138.643 69.8595Z" fill="#EF4E57"/>
<path fill-rule="evenodd" clip-rule="evenodd" d="M159.727 63.5705C152.788 64.0717 145.761 64.2393 138.645 64.0737C138.645 66.003 138.645 67.932 138.645 69.8613C138.311 67.8311 138.311 65.776 138.645 63.6963C145.671 63.5705 152.699 63.5284 159.727 63.5705Z" fill="#DA3435"/>
<path fill-rule="evenodd" clip-rule="evenodd" d="M131.865 57.2812C141.402 57.2812 150.94 57.2812 160.477 57.2812C151.066 57.5324 141.613 57.6164 132.116 57.5329C132.074 67.0114 132.116 76.4897 132.242 85.9675C133.431 85.7237 134.644 85.6396 135.881 85.7159C134.854 86.0669 133.767 86.2348 132.618 86.2192C132.367 86.2192 132.116 86.2192 131.865 86.2192C131.865 76.5733 131.865 66.9271 131.865 57.2812Z" fill="#E11F27"/>
<path fill-rule="evenodd" clip-rule="evenodd" d="M160.478 57.2812C160.712 57.55 160.796 57.8854 160.729 58.2878C160.741 60.1509 160.406 61.9123 159.725 63.5721C152.697 63.5301 145.67 63.5721 138.643 63.6979C138.309 65.7777 138.309 67.8328 138.643 69.863C144.75 70.0308 150.857 70.1984 156.964 70.3662C155.966 72.3342 154.712 74.1377 153.2 75.7764C148.348 75.9022 143.496 75.9442 138.643 75.9022C138.475 78.8815 138.308 81.9011 138.141 84.961C137.57 85.1404 136.984 85.2662 136.384 85.3384C136.244 85.4348 136.161 85.5606 136.133 85.7159C136.049 85.7159 135.966 85.7159 135.882 85.7159C134.645 85.6396 133.432 85.7237 132.243 85.9675C132.117 76.4897 132.075 67.0114 132.117 57.5329C141.614 57.6164 151.067 57.5324 160.478 57.2812Z" fill="#E30713"/>
<path fill-rule="evenodd" clip-rule="evenodd" d="M131.866 57.0312C131.866 57.115 131.866 57.1991 131.866 57.2829C131.866 66.9288 131.866 76.5749 131.866 86.2208C132.117 86.2208 132.368 86.2208 132.619 86.2208C132.351 86.4558 132.016 86.5399 131.615 86.4724C131.532 76.6159 131.615 66.8022 131.866 57.0312Z" fill="#E58489"/>
<path fill-rule="evenodd" clip-rule="evenodd" d="M131.865 57.2829C131.865 57.1991 131.865 57.115 131.865 57.0312C141.57 57.0312 151.274 57.0312 160.979 57.0312C161.05 57.5131 160.967 57.9324 160.728 58.2894C160.795 57.8871 160.711 57.5516 160.477 57.2829C150.94 57.2829 141.402 57.2829 131.865 57.2829Z" fill="#C3383B"/>
<path fill-rule="evenodd" clip-rule="evenodd" d="M98.7375 51.2422C98.7375 51.8292 98.7375 52.4166 98.7375 53.0036C101.08 53.0036 103.423 53.0036 105.765 53.0036C105.689 52.3597 105.773 51.7724 106.016 51.2422C106.016 51.9133 106.016 52.5842 106.016 53.2553C103.506 53.2553 100.996 53.2553 98.4866 53.2553C98.4098 52.5293 98.4933 51.8582 98.7375 51.2422Z" fill="#F37C83"/>
<path fill-rule="evenodd" clip-rule="evenodd" d="M133.371 24.0675C134.364 24.0048 135.285 24.1726 136.132 24.5707C134.8 24.3961 133.462 24.3121 132.116 24.3191C132.116 33.7974 132.116 43.2754 132.116 52.7537C141.653 52.7537 151.191 52.7537 160.728 52.7537C160.728 52.2505 160.728 51.7472 160.728 51.2439C160.971 51.7741 161.055 52.3614 160.979 53.0054C151.274 53.0054 141.57 53.0054 131.865 53.0054C131.865 43.3595 131.865 33.7133 131.865 24.0675C132.367 24.0675 132.869 24.0675 133.371 24.0675Z" fill="#DB212C"/>
<path fill-rule="evenodd" clip-rule="evenodd" d="M100.244 44.9531C99.6993 47.5135 99.2809 50.1136 98.9893 52.7538C101.165 52.7538 103.34 52.7538 105.515 52.7538C105.463 51.7332 105.63 50.7684 106.017 49.86C106.096 48.939 105.887 48.8132 105.389 49.4825C105.233 48.9883 105.358 48.5689 105.766 48.2244C105.933 48.3082 106.1 48.3922 106.268 48.476C106.409 47.9617 106.66 47.5424 107.021 47.2178C106.623 48.5746 106.288 49.9166 106.017 51.244C105.774 51.7742 105.69 52.3615 105.766 53.0054C103.423 53.0054 101.081 53.0054 98.7383 53.0054C98.7383 52.4184 98.7383 51.831 98.7383 51.244C98.8919 49.0354 99.3938 46.9383 100.244 44.9531Z" fill="#DC272D"/>
<path fill-rule="evenodd" clip-rule="evenodd" d="M138.895 46.2109C145.922 46.2109 152.949 46.2109 159.977 46.2109C160.389 47.8639 160.64 49.5416 160.73 51.2436C160.389 50.4693 160.18 49.6306 160.102 48.7273C159.84 49.0099 159.673 49.3453 159.6 49.7338C159.559 49.566 159.517 49.3984 159.475 49.2305C159.687 48.3201 159.771 47.3974 159.726 46.4626C152.739 46.5459 145.795 46.4621 138.895 46.2109Z" fill="#DE2A2F"/>
<path fill-rule="evenodd" clip-rule="evenodd" d="M136.133 24.5724C136.928 24.5472 137.681 24.715 138.392 25.0756C138.559 32.1626 138.726 39.2084 138.894 46.2129C145.794 46.464 152.738 46.5478 159.725 46.4645C159.77 47.3993 159.686 48.3221 159.474 49.2325C159.516 49.4003 159.558 49.5679 159.6 49.7358C159.672 49.3472 159.839 49.0118 160.102 48.7292C160.18 49.6326 160.389 50.4713 160.729 51.2456C160.729 51.7488 160.729 52.2521 160.729 52.7554C151.192 52.7554 141.654 52.7554 132.117 52.7554C132.117 43.2771 132.117 33.799 132.117 24.3207C133.463 24.3137 134.801 24.3977 136.133 24.5724Z" fill="#E30713"/>
<path fill-rule="evenodd" clip-rule="evenodd" d="M125.844 24.0683C126.458 23.8235 127.128 23.7397 127.852 23.8167C127.852 33.6304 127.852 43.4442 127.852 53.2579C125.464 53.3402 123.121 53.2564 120.824 53.0063C123.083 53.0063 125.342 53.0063 127.601 53.0063C127.601 43.3604 127.601 33.7142 127.601 24.0683C127.015 24.0683 126.429 24.0683 125.844 24.0683Z" fill="#F05761"/>
<path fill-rule="evenodd" clip-rule="evenodd" d="M125.843 24.0643C126.429 24.0643 127.015 24.0643 127.6 24.0643C127.6 33.7102 127.6 43.3564 127.6 53.0023C125.341 53.0023 123.082 53.0023 120.824 53.0023C120.824 51.7441 120.824 50.4859 120.824 49.2277C117.428 49.1422 114.081 48.8906 110.784 48.4728C111.347 46.1706 112.434 44.1576 114.047 42.4336C116.292 42.189 118.551 42.105 120.824 42.182C120.907 39.0741 120.823 35.9704 120.573 32.8715C113.974 35.712 109.456 40.493 107.02 47.2147C106.659 47.5393 106.409 47.9585 106.267 48.4728C106.099 48.3891 105.932 48.305 105.765 48.2212C105.357 48.5657 105.232 48.9852 105.388 49.4794C105.886 48.81 106.095 48.9359 106.016 49.8568C105.629 50.7652 105.462 51.73 105.514 52.7506C103.339 52.7506 101.164 52.7506 98.9883 52.7506C99.2799 50.1105 99.6983 47.5103 100.243 44.95C104.113 34.2359 111.558 27.4 122.58 24.4418C123.652 24.1713 124.74 24.0455 125.843 24.0643Z" fill="#E30914"/>
<path fill-rule="evenodd" clip-rule="evenodd" d="M110.785 48.4766C114.082 48.8943 117.428 49.1459 120.824 49.2315C117.394 49.2315 113.964 49.2315 110.534 49.2315C110.475 48.9066 110.558 48.655 110.785 48.4766Z" fill="#F04F5A"/>
<path fill-rule="evenodd" clip-rule="evenodd" d="M133.372 24.0678C132.87 24.0678 132.368 24.0678 131.866 24.0678C131.866 33.7137 131.866 43.3598 131.866 53.0057C141.571 53.0057 151.275 53.0057 160.98 53.0057C151.234 53.2571 141.446 53.3409 131.615 53.2573C131.615 43.4436 131.615 33.6299 131.615 23.8161C132.257 23.7401 132.843 23.8242 133.372 24.0678Z" fill="#EB7F86"/>
<path fill-rule="evenodd" clip-rule="evenodd" d="M138.142 18.28C131.281 17.0133 124.505 17.349 117.812 19.2866C118.398 18.8877 119.067 18.5943 119.82 18.4059C121.343 18.0528 122.849 17.7174 124.338 17.3993C127.852 17.2315 131.365 17.2315 134.879 17.3993C136.028 17.588 137.115 17.8817 138.142 18.28Z" fill="#DF3236"/>
<path fill-rule="evenodd" clip-rule="evenodd" d="M173.531 11.7344C173.531 40.8401 173.531 69.9456 173.531 99.0514C144.417 99.0514 115.303 99.0514 86.1895 99.0514C115.177 98.7997 144.207 98.7159 173.28 98.7997C173.28 69.8618 173.28 40.9239 173.28 11.986C173.28 11.8182 173.363 11.7344 173.531 11.7344Z" fill="#E4141D"/>
<path opacity="0.251" fill-rule="evenodd" clip-rule="evenodd" d="M173.529 10.9766C173.78 40.3755 173.863 69.8166 173.78 99.3001C144.373 99.3839 115.008 99.3001 85.6855 99.0485C85.7691 99.0485 85.853 99.0485 85.9365 99.0485C86.0201 99.0485 86.1039 99.0485 86.1875 99.0485C115.301 99.0485 144.415 99.0485 173.529 99.0485C173.529 69.9427 173.529 40.8372 173.529 11.7315C173.529 11.5636 173.529 11.396 173.529 11.2282C173.529 11.1444 173.529 11.0604 173.529 10.9766Z" fill="#BE3437"/>
<path opacity="0.963" fill-rule="evenodd" clip-rule="evenodd" d="M85.9372 104.844C86.2685 105.581 86.4356 106.419 86.4391 107.36C86.3555 108.199 86.2717 109.038 86.1881 109.876C85.9379 108.207 85.8543 106.53 85.9372 104.844Z" fill="#1C1C1C"/>
<path opacity="0.752" fill-rule="evenodd" clip-rule="evenodd" d="M94.7207 104.844C95.7246 104.844 96.7285 104.844 97.7325 104.844C97.7325 105.095 97.7325 105.347 97.7325 105.599C97.3141 105.599 96.896 105.599 96.4776 105.599C96.4776 107.025 96.4776 108.45 96.4776 109.876C96.2266 109.876 95.9756 109.876 95.7246 109.876C95.7246 108.45 95.7246 107.025 95.7246 105.599C95.3901 105.599 95.0553 105.599 94.7207 105.599C94.7207 105.347 94.7207 105.095 94.7207 104.844Z" fill="#1C1C1C"/>
<path opacity="0.762" fill-rule="evenodd" clip-rule="evenodd" d="M106.267 104.844C106.601 104.844 106.936 104.844 107.271 104.844C107.689 106.521 108.107 108.199 108.525 109.876C108.231 109.932 107.98 109.848 107.773 109.625C107.676 108.53 107.09 108.111 106.016 108.367C105.932 108.87 105.848 109.373 105.765 109.876C105.514 109.876 105.263 109.876 105.012 109.876C105.351 108.179 105.769 106.502 106.267 104.844ZM106.518 106.354C106.948 106.639 107.115 107.059 107.02 107.612C106.756 107.649 106.505 107.607 106.267 107.486C106.487 107.145 106.571 106.767 106.518 106.354Z" fill="#1B1B1B"/>
<path opacity="0.732" fill-rule="evenodd" clip-rule="evenodd" d="M116.557 104.844C116.808 104.844 117.059 104.844 117.31 104.844C117.31 106.27 117.31 107.696 117.31 109.122C117.979 109.122 118.648 109.122 119.317 109.122C119.317 109.373 119.317 109.625 119.317 109.876C118.397 109.876 117.477 109.876 116.557 109.876C116.557 108.199 116.557 106.521 116.557 104.844Z" fill="#1C1C1C"/>
<path opacity="0.732" fill-rule="evenodd" clip-rule="evenodd" d="M127.35 104.844C127.601 104.844 127.852 104.844 128.103 104.844C128.103 106.521 128.103 108.199 128.103 109.876C127.852 109.876 127.601 109.876 127.35 109.876C127.35 108.199 127.35 106.521 127.35 104.844Z" fill="#1C1C1C"/>
<path opacity="0.76" fill-rule="evenodd" clip-rule="evenodd" d="M137.388 104.844C137.722 104.844 138.057 104.844 138.392 104.844C138.809 106.52 139.228 108.197 139.647 109.876C139.352 109.932 139.101 109.848 138.894 109.625C138.797 108.53 138.211 108.111 137.137 108.367C137.053 108.87 136.969 109.373 136.886 109.876C136.635 109.876 136.384 109.876 136.133 109.876C136.448 108.173 136.866 106.495 137.388 104.844ZM137.639 106.354C137.998 106.676 138.165 107.095 138.141 107.612C137.846 107.667 137.595 107.583 137.388 107.36C137.575 107.049 137.659 106.713 137.639 106.354Z" fill="#1B1B1B"/>
<path opacity="0.965" fill-rule="evenodd" clip-rule="evenodd" d="M154.957 104.844C158.052 104.844 161.148 104.844 164.243 104.844C164.243 106.521 164.243 108.199 164.243 109.876C161.148 109.876 158.052 109.876 154.957 109.876C154.957 108.199 154.957 106.521 154.957 104.844Z" fill="#FEFEFE"/>
<path opacity="0.753" fill-rule="evenodd" clip-rule="evenodd" d="M164.244 104.844C167.423 104.844 170.602 104.844 173.781 104.844C173.781 106.521 173.781 108.199 173.781 109.876C170.602 109.876 167.423 109.876 164.244 109.876C164.244 108.199 164.244 106.521 164.244 104.844Z" fill="#BE393D"/>
<path fill-rule="evenodd" clip-rule="evenodd" d="M154.957 104.844C154.957 106.521 154.957 108.199 154.957 109.876C151.778 109.876 148.599 109.876 145.42 109.876C145.42 108.199 145.42 106.521 145.42 104.844C148.599 104.844 151.778 104.844 154.957 104.844Z" fill="#148D3A"/>
<path fill-rule="evenodd" clip-rule="evenodd" d="M164.494 105.094C167.506 105.094 170.518 105.094 173.529 105.094C173.529 106.604 173.529 108.113 173.529 109.623C170.518 109.623 167.506 109.623 164.494 109.623C164.494 108.113 164.494 106.604 164.494 105.094Z" fill="#E30613"/>
</svg>
