<svg width="260" height="120" viewBox="0 0 260 120" fill="none" xmlns="http://www.w3.org/2000/svg">
<rect width="260" height="120" fill="#F1F1F1"/>
<g clip-path="url(#clip0_963_91765)">
<path d="M120.689 20.1556C99.4137 22.3563 82.7392 30.9064 76.893 42.6691C74.1987 48.0319 73.9445 52.3575 75.9525 57.7203C79.7653 67.9399 93.9742 76.9706 111.691 80.4615C128.696 83.8259 147.861 82.2575 163.163 76.2623C175.745 71.3549 183.752 63.9178 185.811 55.2413C186.065 54.2294 186.218 52.4587 186.218 50.8903C186.192 45.5529 184.133 40.8984 179.71 36.2692C172.085 28.2756 159.147 22.7105 142.955 20.4844C138.126 19.8267 125.646 19.6243 120.689 20.1556ZM138.253 21.2939C151.445 22.1792 163.9 26.0748 172.975 32.1206C179.278 36.3451 183.498 41.7331 184.794 47.2477C185.43 49.9544 185.201 53.6982 184.21 56.5061C180.041 68.4458 163.849 77.6283 142.066 80.4109C136.55 81.1192 123.714 81.0433 118.096 80.2844C98.7274 77.6789 83.578 69.7107 78.0368 59.2381C76.5117 56.3543 75.9779 54.2041 75.9779 50.8903C75.9779 48.3607 76.0796 47.6777 76.7151 45.7552C77.503 43.3268 79.384 40.1142 81.3412 37.8628C86.0436 32.4495 95.423 27.2385 105.845 24.2282C116.241 21.2433 125.264 20.4338 138.253 21.2939Z" fill="black"/>
<path d="M120.968 22.4346C100.557 24.5341 84.2894 32.7301 78.9007 43.6833C75.9776 49.6026 76.6385 55.8001 80.8071 61.6435C82.3576 63.819 86.3229 67.5122 89.1189 69.3589C107.979 81.931 143.438 83.4994 165.832 72.7485C170.915 70.2948 173.813 68.2964 177.397 64.7044C181.362 60.7076 182.862 58.1527 183.802 53.8523C186.217 42.545 174.271 30.7317 154.953 25.2424C151.547 24.2812 146.412 23.244 142.193 22.6622C137.999 22.1057 125.62 21.9792 120.968 22.4346ZM142.701 23.9523C157.266 25.9254 169.212 30.8076 176.228 37.6881C183.269 44.6192 184.667 52.0816 180.269 59.544C178.77 62.0736 174.55 66.2727 171.424 68.3217C163.874 73.2797 153.605 76.6441 141.43 78.1366C136.219 78.769 124.425 78.7437 119.443 78.1113C109.86 76.8971 102.616 74.924 95.9565 71.762C86.3991 67.1834 80.4766 61.4159 78.7482 55.016C78.2398 53.0681 78.2398 49.1725 78.7736 47.2247C80.6546 40.2683 87.6955 33.666 97.9645 29.3151C104.777 26.4313 113.47 24.3318 121.731 23.5729C125.569 23.244 139.219 23.4717 142.701 23.9523Z" fill="black"/>
<path d="M93.1356 36.5001C91.6867 36.6012 90.187 36.7783 89.8312 36.8795C89.2465 37.0313 89.2211 37.0566 89.7041 37.2337C89.9837 37.3348 90.8733 37.4866 91.6867 37.5878L93.1356 37.7649L93.161 49.3252C93.1864 55.6745 93.2627 61.1638 93.3897 61.5179C93.5677 62.125 93.5931 62.0997 94.1015 60.9867C94.3811 60.329 94.7369 59.7219 94.864 59.646C95.0165 59.5701 95.7282 60.0002 96.44 60.6073C98.2955 62.1756 99.3631 62.6562 101.015 62.6562C103.455 62.631 105.514 61.0626 106.811 58.2294C107.777 56.1551 107.904 52.5631 107.09 50.0841C106.175 47.2256 104.498 45.4043 102.185 44.7972C100.354 44.3166 98.3972 45.2272 97.6855 46.8968C97.1262 48.2628 96.9483 47.0991 96.9483 41.5846V36.2218L96.3891 36.2471C96.0587 36.2724 94.6098 36.3736 93.1356 36.5001ZM101.905 45.8849C103.811 46.745 104.955 51.6524 104.32 56.1804C103.964 58.8112 103.481 60.076 102.49 60.8855C101.371 61.8215 100.405 61.7203 99.236 60.5567C97.6855 59.0136 97.1262 57.1417 97.1262 53.5496C97.1262 49.9576 97.6855 48.0857 99.236 46.5173C100.253 45.5308 100.812 45.379 101.905 45.8849Z" fill="black"/>
<path d="M142.956 39.5627C142.219 44.0402 140.567 45.5832 136.474 45.5832C135.636 45.5832 134.187 45.6591 133.246 45.7603C131.645 45.8868 131.518 45.9627 131.518 46.4939C131.518 47.0504 131.619 47.101 132.916 47.101C133.856 47.101 134.314 47.2022 134.314 47.4045C134.314 47.8093 131.314 51.6543 131.009 51.6543C130.73 51.6543 127.959 47.7587 127.959 47.3792C127.959 47.2022 128.468 47.101 129.23 47.101C130.425 47.101 130.501 47.0504 130.501 46.4686V45.8362H125.951C121.681 45.8362 121.401 45.8615 121.274 46.3168C121.096 46.9998 121.274 47.101 122.393 47.101C123.308 47.101 123.384 47.1769 126.027 50.7689C127.502 52.7926 128.722 54.5127 128.722 54.5886C128.722 54.8416 124.121 60.3562 123.409 60.938C122.698 61.5704 122.215 61.6463 121.605 61.2668C121.3 61.0644 121.198 59.9261 121.096 54.5127C120.918 47.1769 120.867 46.9239 119.037 45.5832C117.106 44.2172 114.182 44.0149 111.742 45.0773C110.217 45.7603 109.683 46.2409 109.124 47.4804C108.438 48.9729 108.489 50.516 109.277 51.2748C109.988 52.0084 110.649 52.059 111.691 51.5278C113.064 50.8195 112.912 48.5935 111.437 48.0369C110.497 47.6828 110.497 47.5057 111.386 46.5951C112.734 45.2544 115.123 45.0014 116.445 46.0385C116.978 46.418 117.029 46.7215 117.08 48.9729C117.131 51.2748 117.08 51.5025 116.572 51.9325C116.267 52.1602 115.53 52.4385 114.92 52.5397C112.861 52.8938 110.649 53.7033 109.81 54.4622C107.777 56.2329 108.082 60.5079 110.344 61.798C112.301 62.9364 114.538 62.5569 116.216 60.8621L117.309 59.7237L117.665 60.5838C117.843 61.0391 118.199 61.5957 118.427 61.7727C119.342 62.5316 128.112 62.6328 128.29 61.8992C128.315 61.7474 127.68 61.621 126.892 61.5704C125.697 61.5198 125.417 61.4186 125.417 61.0644C125.417 60.5332 128.849 56.1064 129.357 56.0052C129.739 55.904 133.043 60.4826 133.043 61.115C133.043 61.4439 132.738 61.5198 131.391 61.5198C130.171 61.5198 129.739 61.621 129.739 61.8739C129.739 62.3292 133.983 62.6328 137.364 62.4051C139.27 62.2534 139.906 62.1269 139.906 61.8739C139.906 61.621 139.575 61.5198 138.838 61.5198H137.745L134.771 57.27C132.687 54.2851 131.874 52.9444 132.026 52.6661C132.128 52.4638 133.195 51.1484 134.365 49.7571L136.474 47.2275L138.559 47.1516L140.618 47.0757L140.719 53.3491C140.796 60.5332 140.897 60.8621 142.931 61.9498C144.278 62.6581 145.752 62.6834 147.176 62.051C148.243 61.5704 149.311 60.3562 149.311 59.6732C149.311 58.9649 149.717 58.9902 150.15 59.7237C152.437 63.5941 158.41 64.0747 161.461 60.6344C162.605 59.3443 163.799 56.1317 163.087 56.2582C162.833 56.3088 162.249 57.1688 161.715 58.2313C160.52 60.6344 159.58 61.3427 157.317 61.4692C154.14 61.6716 152.742 59.9261 152.285 55.1199L152.158 53.9309H157.572C161.588 53.9309 163.037 53.8551 163.215 53.6021C163.57 53.1721 162.986 50.516 162.172 48.9476C161.079 46.7974 158.487 45.0773 156.301 45.0773C154.75 45.0773 153.022 45.9121 151.598 47.3034C149.59 49.3017 149.082 50.7436 148.828 55.1957C148.599 58.9649 148.319 59.9261 147.176 60.4573C146.159 60.9633 145.345 60.5332 145.015 59.319C144.862 58.7625 144.735 55.8534 144.735 52.5902V46.848H146.794H148.828L148.751 46.1397C148.675 45.4567 148.65 45.4567 146.718 45.3808L144.761 45.305L144.685 41.5864L144.608 37.8679L143.922 37.792C143.287 37.7161 143.261 37.7667 142.956 39.5627ZM158.207 47.3539C159.173 48.3152 159.681 49.6306 159.783 51.6543L159.859 52.7926L155.996 52.8685L152.107 52.9444L152.234 52.2361C152.285 51.8314 152.412 51.0219 152.488 50.4401C152.742 48.3911 153.911 46.7468 155.309 46.3674C156.428 46.0891 157.19 46.3421 158.207 47.3539ZM117.182 56.587C117.029 58.5095 116.648 59.2431 115.25 60.1791C113.242 61.5451 111.437 60.4067 111.437 57.7759C111.437 55.3475 112.327 54.3863 115.504 53.3997L116.902 52.9697L117.106 53.9056C117.233 54.4116 117.258 55.6005 117.182 56.587Z" fill="black"/>
<path d="M171.781 45.8343C171.501 45.9355 170.739 46.6185 170.078 47.3521C168.832 48.7434 168.705 48.7181 168.578 47.0991L168.502 46.2138L165.121 46.1379C161.969 46.0873 161.741 46.1126 161.817 46.5173C161.868 46.8715 162.198 46.998 163.164 47.0486C163.977 47.0991 164.562 47.2762 164.765 47.5292C164.994 47.858 165.07 49.6288 165.07 54.3591C165.07 60.7085 165.07 60.759 164.511 61.1132C164.181 61.3156 163.444 61.5938 162.834 61.7456C161.588 62.0239 161.385 62.125 161.639 62.5045C161.868 62.8839 171.832 62.8839 172.06 62.5045C172.315 62.125 172.086 61.9986 170.739 61.7456C168.705 61.3662 168.629 61.1891 168.629 55.801C168.629 51.3236 168.654 51.0706 169.264 49.8817C170.001 48.4145 171.679 46.5932 172.264 46.5932C172.823 46.5932 172.798 46.745 172.187 47.5292C171.323 48.6422 171.603 49.9323 172.874 50.59C174.984 51.7283 177.068 49.3505 175.924 47.0991C175.339 45.9102 173.204 45.2525 171.781 45.8343Z" fill="black"/>
<path d="M74.5801 86.5566C74.5801 87.0625 74.758 87.0625 130.501 87.0625C186.243 87.0625 186.421 87.0625 186.421 86.5566C186.421 86.0507 186.243 86.0507 130.501 86.0507C74.758 86.0507 74.5801 86.0507 74.5801 86.5566Z" fill="black"/>
<path d="M89.5775 93.2147C89.2725 94.9095 88.8658 97.0091 88.6878 97.8692C88.5099 98.7292 88.4337 99.5134 88.5099 99.5893C88.6878 99.7664 89.5775 99.7411 89.5775 99.564C89.5775 98.9822 90.4417 94.4542 90.6196 94.1506C90.7722 93.8724 90.9755 94.1253 91.433 95.1625C92.9581 98.6028 93.619 99.9688 93.7207 99.9688C93.7969 99.9688 94.4578 98.6028 95.195 96.9332C95.9321 95.2637 96.6184 93.8977 96.7201 93.8977C96.8217 93.8977 97.0759 94.9348 97.3301 96.1996C97.8385 99.0328 98.0927 99.7158 98.601 99.7158C99.1094 99.7158 99.1094 99.4881 98.1435 94.4289C97.3301 90.1792 97.2793 90.078 96.8726 90.6851C96.415 91.3934 94.1528 96.5791 94.1528 96.9332C94.1528 97.2874 93.7461 97.2368 93.4665 96.8573C93.3394 96.7056 92.6023 95.1625 91.8651 93.4424C91.128 91.7222 90.4417 90.2803 90.34 90.2297C90.2384 90.1539 89.9079 91.4946 89.5775 93.2147Z" fill="black"/>
<path d="M155.817 92.9606C152.538 100.549 152.793 99.7652 153.453 99.6641C153.835 99.6135 154.191 99.2087 154.597 98.374L155.156 97.185H156.631C157.419 97.185 158.308 97.1091 158.588 97.0333C158.995 96.9321 159.223 97.1597 159.732 98.2475C160.189 99.2087 160.545 99.6135 160.926 99.6641C161.486 99.7399 161.486 99.7146 160.596 97.6404C160.088 96.4767 159.173 94.3266 158.537 92.8088C157.902 91.3163 157.292 90.1021 157.215 90.1021C157.139 90.1021 156.504 91.3922 155.817 92.9606ZM158.588 95.642C158.74 96.1479 158.664 96.1732 157.215 96.1732C156.351 96.1732 155.665 96.1226 155.665 96.0467C155.665 95.9708 156.021 95.1361 156.453 94.2001L157.241 92.5053L157.825 93.8207C158.156 94.5289 158.486 95.3637 158.588 95.642Z" fill="black"/>
<path d="M165.578 90.402C165.578 90.5537 166.214 91.768 166.976 93.0581C168.298 95.3094 168.374 95.5371 168.374 97.1813C168.374 99.1038 168.527 99.7109 169.01 99.7109C169.493 99.7109 169.645 99.1038 169.645 97.156C169.645 95.6383 169.747 95.2588 170.484 94.0952C170.941 93.3616 171.653 92.2233 172.034 91.5403L172.721 90.3514H172.085C171.577 90.3514 171.272 90.6802 170.382 92.2486C169.772 93.2857 169.162 94.1205 169.035 94.0699C168.883 94.0193 168.349 93.2604 167.815 92.3751C166.951 90.8573 166.264 90.0984 165.781 90.0984C165.68 90.0984 165.578 90.2249 165.578 90.402Z" fill="black"/>
<path d="M103.609 90.6549C103.456 90.832 102.49 92.9316 101.448 95.2841C99.9994 98.5473 99.6181 99.6098 99.8977 99.6603C100.482 99.7868 100.991 99.2556 101.321 98.1679L101.601 97.1813H103.736H105.871L106.405 98.4461C106.812 99.458 107.04 99.7109 107.523 99.7109H108.108L107.218 97.6114C105.668 94.0446 104.321 91.0091 104.092 90.6549C103.939 90.3767 103.838 90.3767 103.609 90.6549ZM104.549 94.0952C104.88 94.8794 105.185 95.6889 105.261 95.8406C105.363 96.0936 104.981 96.1695 103.812 96.1695C102.643 96.1695 102.262 96.0936 102.363 95.8406C103.177 93.8169 103.71 92.628 103.812 92.628C103.888 92.628 104.219 93.2857 104.549 94.0952Z" fill="black"/>
<path d="M109.148 95.0587V99.7891L111.156 99.6626C112.809 99.5614 113.368 99.4096 114.207 98.8784C117.384 96.7788 116.647 91.7449 113.037 90.6572C112.478 90.4801 111.36 90.3536 110.572 90.3536H109.148V95.0587ZM113.088 91.7196C114.283 92.2255 114.995 93.465 114.995 95.0081C114.995 97.2342 113.495 98.7013 111.207 98.7013H110.165V95.0334V91.3655H111.182C111.741 91.3655 112.605 91.5172 113.088 91.7196Z" fill="black"/>
<path d="M117.791 95.0312V99.7109H120.206C122.443 99.7109 122.621 99.6856 122.621 99.205C122.621 98.7497 122.443 98.6991 120.714 98.6991H118.808V96.9284V95.1576H120.562C121.833 95.1576 122.341 95.0565 122.443 94.8035C122.671 94.247 122.392 94.1458 120.536 94.1458H118.808V92.7545V91.3632H120.714C122.443 91.3632 122.621 91.3126 122.621 90.8573C122.621 90.3767 122.443 90.3514 120.206 90.3514H117.791V95.0312Z" fill="black"/>
<path d="M128.467 95.0312C128.467 99.5339 128.492 99.7109 128.975 99.7109C129.458 99.7109 129.484 99.5339 129.484 95.0312C129.484 90.5284 129.458 90.3514 128.975 90.3514C128.492 90.3514 128.467 90.5284 128.467 95.0312Z" fill="black"/>
<path d="M131.416 90.7595C131.34 90.9871 131.264 93.0867 131.264 95.4393V99.7143H131.899H132.535V96.2993C132.535 94.4274 132.611 92.8844 132.687 92.8844C132.763 92.8844 134.416 94.5033 136.373 96.4764L139.881 100.094L139.906 95.2116C139.906 90.5318 139.881 90.3547 139.398 90.3547C138.915 90.3547 138.889 90.5318 138.864 93.9468V97.5641L135.356 93.9468C133.45 91.9737 131.797 90.3547 131.721 90.3547C131.645 90.3547 131.492 90.5318 131.416 90.7595Z" fill="black"/>
<path d="M145.752 95.0312V99.7109H146.387H147.023V95.0312V90.3514H146.387H145.752V95.0312Z" fill="black"/>
<path d="M148.039 90.8573C148.039 91.2873 148.217 91.3632 149.183 91.3632H150.327V95.5371C150.327 99.5339 150.352 99.7109 150.835 99.7109C151.318 99.7109 151.343 99.5339 151.343 95.5371V91.3632H152.081C153.072 91.3632 153.631 91.1356 153.631 90.7055C153.631 90.4273 153.046 90.3514 150.835 90.3514C148.217 90.3514 148.039 90.3767 148.039 90.8573Z" fill="black"/>
<path d="M162.527 95.0312V99.7109H164.307C165.908 99.7109 166.086 99.6603 166.086 99.205C166.086 98.775 165.908 98.6991 164.815 98.6991H163.544V94.5252C163.544 90.5284 163.519 90.3514 163.036 90.3514C162.553 90.3514 162.527 90.5284 162.527 95.0312Z" fill="black"/>
</g>
<defs>
<clipPath id="clip0_963_91765">
<rect width="113" height="81" fill="white" transform="translate(74 19.5)"/>
</clipPath>
</defs>
</svg>
