<svg width="260" height="120" viewBox="0 0 260 120" fill="none" xmlns="http://www.w3.org/2000/svg">
<rect width="260" height="120" fill="#F1F1F1"/>
<g clip-path="url(#clip0_963_91727)">
<path d="M108.304 51.7226C108.346 65.2669 108.43 68.4439 108.93 69.28C109.264 69.8652 109.515 70.4505 109.556 70.6177C109.556 70.8267 106.927 70.9521 103.715 70.9521H97.8311L98.4987 69.698C99.0412 68.6947 99.1246 66.1447 99.1246 53.9382V39.4324L97.3721 37.6349C96.4124 36.6316 95.4527 35.8373 95.2858 35.8373C95.1189 35.8373 94.9519 37.175 94.9519 38.8054V41.7316L94.034 41.1046C93.3663 40.6029 92.0728 40.4357 89.444 40.4357H85.7721V44.8251V49.2144H89.3189H92.8656V52.2242C92.8656 54.5652 92.7404 55.1087 92.3649 54.7324C92.0728 54.4398 90.6124 54.2308 88.8181 54.2308H85.7304L85.8973 61.63C85.939 65.7267 86.1894 69.489 86.3563 69.9906L86.6901 70.9521H79.4714H72.2109L78.8872 77.6406L85.5635 84.3291H93.8671H102.212L100.877 82.9496C99.6253 81.6537 99.5419 81.4029 99.5419 78.3513C99.5419 76.5955 99.6671 75.1324 99.8757 75.1324C100.043 75.1324 102.254 77.1808 104.758 79.7308L109.348 84.3291H116.817H124.327L122.992 82.9496C121.74 81.6537 121.657 81.4029 121.657 78.3513C121.657 76.5955 121.782 75.1324 121.991 75.1324C122.158 75.1324 123.702 76.5537 125.412 78.3095C131.004 83.9947 134.342 85.6251 140.434 85.7087C146.526 85.7923 150.866 83.5767 153.161 79.1873L154.371 76.8882L158.126 80.3996C160.171 82.3226 162.507 84.2037 163.342 84.58C165.595 85.6669 169.392 85.5832 171.854 84.371C173.356 83.6603 173.982 83.4931 174.358 83.8693C174.65 84.1619 176.986 84.3291 181.076 84.3291H187.335L185.999 82.9496L184.664 81.5701V70.4923V59.4562L178.071 52.8513C174.483 49.2562 171.353 46.2882 171.186 46.2882C171.02 46.2882 170.894 51.1373 170.894 57.0316C170.936 65.6013 171.061 68.0259 171.52 68.8619C172.689 70.8685 172.522 70.9521 166.93 70.9521H161.715V69.2382V67.5242L160.087 68.9873C156.54 72.2062 149.948 72.2062 146.818 69.071L145.441 67.6914V62.0898V56.4882L142.729 53.8128L140.017 51.1373L140.893 53.3947C141.978 56.2373 141.853 61.5046 140.684 63.8455C137.597 69.8234 130.67 73.0841 123.868 71.83C116.316 70.4505 112.102 66.0193 111.726 58.9964C111.559 56.2373 111.684 55.2759 112.394 53.6873C113.687 50.8029 115.315 48.88 117.526 47.5841L119.529 46.4554L113.938 40.8537L108.304 35.2103V51.7226Z" fill="black"/>
<path d="M154.621 55.2769C154.621 65.3515 154.788 66.0621 157 66.4801C158.627 66.7728 160.797 65.7695 161.297 64.4736C161.548 63.8465 161.715 61.0875 161.715 58.2867V53.1867L158.168 49.6334L154.621 46.0801V55.2769Z" fill="black"/>
<path d="M124.159 50.8046C121.906 52.0169 121.029 54.1906 121.029 58.4128C121.029 64.0562 122.949 66.7734 126.954 66.7734C130.585 66.7734 132.754 63.2202 132.421 57.9111C132.003 51.5152 128.498 48.5054 124.159 50.8046Z" fill="black"/>
</g>
<defs>
<clipPath id="clip0_963_91727">
<rect width="116" height="51" fill="white" transform="translate(72 35)"/>
</clipPath>
</defs>
</svg>
