<svg width="260" height="120" viewBox="0 0 260 120" fill="none" xmlns="http://www.w3.org/2000/svg">
<rect width="260" height="120" fill="#F1F1F1"/>
<g clip-path="url(#clip0_963_91747)">
<rect width="120" height="120" transform="translate(70)" fill="#050505"/>
<path d="M70 60V120H130H190V60V0H130H70V60ZM92.8133 40.3333C93.0267 40.92 93.6267 42.6533 94.1333 44.2C94.6533 45.7333 95.1333 47.12 95.2 47.2667C95.2667 47.4133 95.92 49.3067 96.64 51.4667C97.3733 53.6267 98.28 56.2933 98.6667 57.4C99.04 58.4933 99.64 60.2667 100 61.3333C100.36 62.4 101.107 64.56 101.64 66.1333L102.627 69L103.733 69.04L104.827 69.08L104.787 66.3733L104.733 63.6667H105.053C105.347 63.6667 105.4 63.76 105.6 64.5333C106.373 67.5733 107.8 69.0667 110.347 69.4667C112.267 69.7733 114.093 68.9733 114.813 67.5067C115.067 66.9733 115.12 66.6533 115.12 65.6C115.133 64.16 114.973 63.7333 114.2 63.0933C113.52 62.5467 113.053 62.4267 109.867 61.9867C107.707 61.7067 106.733 61.2667 105.947 60.2267C105.347 59.44 105.16 58.7333 105.147 57.1333C105.133 55 105.56 53.88 106.853 52.6933C107.6 52.0133 108.28 51.68 109.44 51.4533C110.627 51.2267 111.827 51.4667 113.333 52.2133C114.627 52.8667 114.733 52.8933 114.853 52.6C114.893 52.4933 115.067 52.4 115.253 52.4H115.573L115.667 54.48C115.773 56.5733 115.707 56.92 115.307 56.76C115.2 56.7333 115.04 56.3733 114.947 55.9867C114.4 53.8133 113.253 52.6667 111.213 52.28C109.84 52.0133 108.267 52.4 107.373 53.2267C106.48 54.0533 106.227 56.0133 106.88 57.0267C107.24 57.56 107.76 57.96 108.4 58.1733C109.04 58.3867 110.867 58.6667 111.68 58.6667C114.08 58.6667 115.653 59.4533 116.547 61.0933C117 61.9333 117 61.9333 117 63.7333C117 64.9333 116.933 65.6933 116.813 66C116.347 67.2267 115.987 67.8533 115.427 68.4667C113.4 70.72 110.2 71 107.24 69.1867C106.027 68.44 105.773 68.44 105.653 69.2133C105.6 69.56 105.48 69.7867 105.32 69.84C105.187 69.8933 102.52 69.92 99.4 69.8933L93.72 69.8667L93.76 69.4933L93.8 69.1333L95.7733 69.0933C96.8533 69.08 97.7333 69.0133 97.7333 68.96C97.7333 68.9067 97.08 66.9467 96.2933 64.6L94.8667 60.3333L90.3867 60.2933L85.9067 60.2667L85.76 60.6267C85.68 60.84 85.2133 62.2533 84.7333 63.8C84.24 65.3333 83.7867 66.7733 83.72 66.9867C83.6533 67.2 83.6 67.6267 83.6 67.9467C83.6 68.8267 83.9333 68.9867 85.9333 69.0667L87.5333 69.1333V69.4667V69.8H83.2H78.8667V69.4667C78.8667 69.1467 78.8933 69.1333 80.08 69.0667C80.88 69.0267 81.3867 68.92 81.6133 68.7733C82.1067 68.4533 82.4933 67.5467 83.7333 63.8C84.3333 61.96 85.5333 58.3333 86.4 55.7333C87.2667 53.1333 88.7867 48.5067 89.7867 45.4667C91.9867 38.7867 91.84 39.1733 92.1733 39.2267C92.3733 39.2533 92.5333 39.5333 92.8133 40.3333ZM123.467 49.4133L123.533 52.3333L126.4 52.4L129.267 52.4667V52.8V53.1333L126.4 53.2L123.533 53.2667V60.7333C123.533 69.12 123.52 69.0133 124.453 69.4C125.92 70.0133 127.627 69.2533 128.467 67.6C128.6 67.3467 128.773 67.0933 128.84 67.04C128.933 66.9867 128.813 66.5733 128.507 65.9067C127.733 64.2533 127.56 63.3867 127.547 61.2667C127.547 59.6933 127.587 59.24 127.853 58.4C128.693 55.64 130.653 53.16 132.747 52.1733C133.667 51.7467 133.96 51.68 135.04 51.6267C137.64 51.5067 139.76 52.68 141.453 55.1733C142.533 56.76 143.267 59.04 142.787 59.3467C142.68 59.4133 140.12 59.4667 137.08 59.4667H131.573L131.627 62.76C131.68 65.7733 131.72 66.1467 132 66.9733C132.387 68.1067 133.08 68.92 134.027 69.3467C134.613 69.6 134.96 69.6533 136 69.64C138.253 69.64 140.04 68.7467 141.24 67.04C141.853 66.1467 142.4 64.96 142.4 64.48C142.4 64.1333 142.64 63.8667 142.947 63.8667C143.32 63.8667 143.347 64.04 143.12 64.88C142.44 67.52 140.347 69.64 137.733 70.3333C136.813 70.5867 134.973 70.5867 133.933 70.3333C132.693 70.04 131.067 69.16 130.253 68.32C129.853 67.9333 129.493 67.6 129.44 67.6C129.387 67.6 129.227 67.8267 129.08 68.0933C128.493 69.2267 127.04 70.2 125.64 70.3733C124.533 70.5067 122.853 70.3333 122.067 70C121.107 69.5867 120.613 69.16 120.253 68.44L119.933 67.8L119.893 60.4933L119.853 53.2H118.067C117.013 53.2 116.253 53.1467 116.2 53.0667C116.16 52.9867 116.147 52.8267 116.2 52.68C116.253 52.48 116.467 52.4267 117.307 52.36C120.44 52.0933 122.08 50.5867 122.733 47.3333C122.867 46.7067 123.053 46.3733 123.24 46.44C123.36 46.48 123.413 47.3333 123.467 49.4133ZM181.027 51.28C181.08 51.4267 180.32 52.0267 176.467 54.9333C172.307 58.0667 171.387 58.6533 170.013 59C169.187 59.2133 169.12 59.2133 168.28 58.9333C167.627 58.72 166.8 58.2267 165.067 57.0133L162.733 55.3733L162.693 53.2933C162.667 51.4 162.68 51.2133 162.893 51.16C163.427 51.0267 180.973 51.1333 181.027 51.28ZM149.067 56.0533C149.16 56.1467 149.2 56.1067 149.2 55.9467C149.2 55.4 150.08 53.9067 150.853 53.1333C151.933 52.0533 152.693 51.6933 154.08 51.6267C155.787 51.5467 156.72 52.1067 157.213 53.5067C157.373 53.9467 157.36 54.0933 157.133 54.7733C156.773 55.7867 156.267 56.1333 155.173 56.1333C154.44 56.1333 154.333 56.0933 153.933 55.6933C153.2 54.96 153.147 53.84 153.8 52.88L154.12 52.4H153.68C152.48 52.4 150.947 53.7867 150.067 55.6267C149.08 57.72 149 58.3733 149 64.1333V69.1333L150.867 69.2L152.733 69.2667V69.6V69.9333L147.347 69.9733C143.467 69.9867 141.92 69.96 141.853 69.8533C141.813 69.7733 141.8 69.5867 141.827 69.4533C141.893 69.2267 142.067 69.2 143.587 69.1733L145.267 69.1333V61.2667V53.4L143.6 53.3333L141.933 53.2667L141.893 52.8933L141.853 52.5333L143.627 52.52C146.227 52.5067 147.413 52.3733 148.2 51.9733L148.867 51.6533L148.907 53.7867C148.92 54.96 149 55.9867 149.067 56.0533ZM181.333 60.8C181.333 64.8267 181.28 68.1467 181.227 68.1867C181.16 68.2267 180.6 67.88 179.96 67.4267C179.333 66.9733 177.867 65.9467 176.707 65.1333C174.4 63.5333 173.627 62.84 173.213 62.0133C172.48 60.6 173.213 59.48 176.587 56.8933C177.467 56.2133 178.84 55.1467 179.653 54.52C180.467 53.8933 181.173 53.4 181.24 53.4267C181.293 53.4533 181.333 56.7733 181.333 60.8ZM165.64 58.96C167.12 59.9867 168.773 61.1467 169.307 61.52C169.853 61.8933 170.547 62.3867 170.84 62.6C171.147 62.8267 172.067 63.4667 172.867 64.0133C174.12 64.88 175.827 66.0667 180.24 69.16C180.693 69.48 181.067 69.8 181.067 69.88C181.067 69.9467 177.587 70 171.867 70H162.667V63.5333C162.667 59.24 162.707 57.0667 162.8 57.0667C162.88 57.0667 164.147 57.92 165.64 58.96Z" fill="#F1F1F1"/>
<path d="M89.4409 49.3052C89.0142 50.5985 88.4542 52.3585 88.1876 53.1985C87.9209 54.0385 87.3876 55.7185 86.9876 56.9185C86.5876 58.1185 86.2676 59.1718 86.2676 59.2518C86.2676 59.3585 87.4409 59.3852 90.3476 59.3718C92.6009 59.3585 94.4542 59.3185 94.4809 59.3052C94.5076 59.2785 93.8276 57.2252 92.9876 54.7318C92.1476 52.2385 91.2142 49.4652 90.9209 48.5585C90.6142 47.6652 90.3342 46.9318 90.2809 46.9318C90.2409 46.9318 89.8542 47.9985 89.4409 49.3052Z" fill="#F1F1F1"/>
<path d="M133.786 52.7216C132.386 53.3616 131.693 54.8149 131.679 57.2016L131.666 58.6016H135.199H138.733V57.2016C138.733 54.7882 138.119 53.3349 136.786 52.6682C136.053 52.2949 134.693 52.3216 133.786 52.7216Z" fill="#F1F1F1"/>
</g>
<defs>
<clipPath id="clip0_963_91747">
<rect width="120" height="120" fill="white" transform="translate(70)"/>
</clipPath>
</defs>
</svg>
