<svg width="260" height="120" viewBox="0 0 260 120" fill="none" xmlns="http://www.w3.org/2000/svg">
<rect width="260" height="120" fill="#F1F1F1"/>
<g clip-path="url(#clip0_963_91734)">
<path d="M51.28 61.2007H43.1636L42.9891 61.3753C42.8145 61.5499 43.1636 61.6372 43.1636 61.6372C44.8218 61.8118 45.52 62.3356 45.52 63.9943V66.788C45.52 68.6213 45.6945 68.6213 43.4255 68.7086C37.7527 68.9705 38.4509 62.0737 38.4509 60.2404C38.4509 55.7007 39.2364 51.9467 43.2509 52.1213C46.1309 52.1213 47.9636 54.4785 48.7491 56.661C48.7491 56.661 48.9236 56.8356 49.0109 56.8356C49.1855 56.8356 49.2727 56.661 49.2727 56.661V51.2483L49.0109 50.9864C48.8364 50.8118 48.7491 51.161 48.7491 51.161C48.4873 51.8594 48.3127 52.1213 47.6145 52.1213C46.9164 52.1213 45.1709 50.9864 42.8145 50.9864C37.4909 50.9864 34 55.0896 34 60.2404C34 64.78 36.7927 69.4943 43.0764 69.4943C45.2582 69.4943 48.0509 68.7959 49.2727 67.8356V63.9943C49.2727 61.8118 49.7091 61.8118 51.1927 61.6372C51.28 61.6372 51.3673 61.4626 51.28 61.2007Z" fill="black"/>
<path d="M59.5711 68.9671C58.1748 68.7925 57.2148 68.5306 57.2148 66.8719V53.864C57.2148 52.0306 58.3493 51.6814 59.5711 51.5068C59.5711 51.5068 59.7457 51.3322 59.7457 51.2449C59.7457 51.1576 59.5711 51.0703 59.5711 51.0703H50.8438C50.8438 51.0703 50.6693 51.0703 50.6693 51.3322C50.6693 51.5068 50.8438 51.5068 50.8438 51.5068C51.9784 51.6814 53.2002 52.0306 53.2002 53.864V66.8719C53.2002 68.5306 52.2402 68.7925 50.8438 68.9671L50.582 69.0544C50.582 69.229 50.7566 69.3163 50.7566 69.3163H59.4839C59.4839 69.3163 59.6584 69.1417 59.6584 69.0544L59.5711 68.9671Z" fill="black"/>
<path d="M67.5146 51.6855C63.9364 51.6855 62.9764 56.1379 62.9764 59.9792C62.9764 62.3363 63.6746 68.4474 67.6891 68.4474C72.2273 68.4474 72.2273 62.3363 72.2273 59.9792C72.2273 56.1379 71.2673 51.6855 67.5146 51.6855ZM67.5146 50.8125C72.4891 50.8125 76.7655 54.3046 76.7655 60.0665C76.7655 65.5665 72.9255 69.495 67.5146 69.495C62.1037 69.495 58.2637 65.6538 58.2637 60.0665C58.2637 54.13 62.54 50.8125 67.5146 50.8125Z" fill="black"/>
<path d="M82.4361 52.1166V59.8864C85.7524 59.8864 86.5379 59.6245 86.887 56.0451C87.0615 54.2118 86.1015 52.2039 84.007 52.2039C82.6106 52.1166 82.4361 52.1166 82.4361 52.1166ZM93.0833 68.9658C93.0833 68.9658 93.3452 69.1404 93.3452 69.2277C93.3452 69.4023 93.0833 69.4896 93.0833 69.4896H88.2834L83.1343 61.0213H82.4361V66.1721C82.4361 68.3547 82.9597 68.7912 84.6179 69.0531C84.6179 69.0531 84.8797 69.2277 84.8797 69.315C84.8797 69.4896 84.6179 69.4896 84.6179 69.4896H76.0652C76.0652 69.4896 75.8906 69.4896 75.8906 69.2277C75.8906 69.0531 76.0652 69.0531 76.0652 69.0531C77.7234 68.7912 78.4215 68.3547 78.247 66.1721V54.0372C78.247 51.6801 77.4615 51.8547 76.0652 51.6801C76.0652 51.6801 75.8906 51.6801 75.8906 51.4182C75.8906 51.2436 76.0652 51.1562 76.0652 51.1562H84.1815C86.0143 51.1562 90.9015 51.4182 90.9015 55.8705C90.9015 59.188 88.5452 60.1483 87.1488 60.5848L91.687 68.1801C92.1234 68.5293 92.5597 68.9658 93.0833 68.9658Z" fill="black"/>
<path d="M108.707 51.5092C109.842 51.6838 110.802 51.9457 110.802 53.6044V66.6997C110.802 68.3584 110.103 68.6203 108.707 68.7949C108.707 68.7949 108.533 68.7949 108.533 68.9695C108.533 69.2314 108.707 69.2314 108.707 69.2314H123.194L123.893 63.5568L123.718 63.7314C123.456 63.7314 123.543 63.9933 123.543 63.9933C122.06 68.0092 120.751 68.533 116.911 68.533C115.427 68.533 114.816 68.2711 114.816 67.1362V60.6758C117.173 60.6758 118.394 61.1997 118.656 64.5171C118.656 64.5171 118.656 64.6917 118.831 64.6917C119.005 64.6917 119.005 64.5171 119.005 64.5171V55.6997C119.005 55.6997 119.005 55.525 118.831 55.525C118.569 55.525 118.656 55.6997 118.656 55.6997C118.22 59.0171 116.998 59.7155 114.816 59.7155V52.1203C114.816 52.1203 115.253 52.1203 116.649 52.1203C119.965 52.1203 121.885 52.2949 122.409 56.1362C122.409 56.1362 122.409 56.3108 122.583 56.3108C122.758 56.3108 122.758 56.1362 122.758 56.1362V51.4219L108.707 51.5092L108.445 51.5965H108.707V51.5092Z" fill="black"/>
<path d="M135.325 68.9671C133.492 68.7925 132.881 68.4433 132.969 66.3481V51.9433C134.627 52.1179 137.769 51.0703 138.205 55.5227C138.205 55.5227 138.205 55.6973 138.467 55.6973C138.641 55.6973 138.729 55.5227 138.729 55.5227V51.0703H123.281V55.5227C123.281 55.5227 123.281 55.6973 123.543 55.6973C123.805 55.6973 123.805 55.5227 123.805 55.5227C124.241 51.5068 126.947 51.9433 129.041 51.9433V66.1735C129.041 68.356 128.256 68.7052 126.685 68.7925C126.685 68.7925 126.423 68.7925 126.423 68.9671C126.423 69.1417 126.598 69.4036 126.598 69.4036H135.412C135.412 69.4036 135.587 69.229 135.587 68.9671C135.412 68.9671 135.325 68.9671 135.325 68.9671Z" fill="black"/>
<path d="M109.053 61.2H101.024C101.024 61.2 100.85 61.2 100.85 61.3746C100.85 61.5492 101.024 61.6365 101.024 61.6365C102.683 61.8111 103.381 62.3349 103.381 63.9937V66.7873C103.381 68.6207 103.555 68.6207 101.286 68.708C95.6134 68.9699 96.0498 62.2476 96.0498 60.2397C96.0498 55.7 97.1843 51.9461 101.199 52.1207C104.079 52.1207 105.912 54.4778 106.697 56.6603C106.697 56.6603 106.872 56.8349 106.959 56.8349C107.133 56.8349 107.221 56.6603 107.221 56.6603V51.2476L107.046 50.9857C106.872 50.9857 106.784 51.1603 106.784 51.1603C106.523 51.8588 106.348 52.1207 105.65 52.1207C104.952 52.1207 103.032 50.8984 100.85 50.8984C95.4389 50.8984 91.7734 55.1762 91.7734 60.327C91.7734 64.8667 94.828 69.581 101.199 69.581C103.381 69.581 106.173 68.8826 107.395 67.9222V64.6048C107.395 62.4222 107.832 61.8111 109.315 61.7238C109.315 61.7238 109.49 61.5492 109.49 61.4619C109.228 61.2 109.053 61.2 109.053 61.2Z" fill="black"/>
<path d="M163.775 68.9671C162.378 68.7925 161.419 68.5306 161.419 66.8719V53.864C161.419 52.0306 162.553 51.6814 163.775 51.5068C163.775 51.5068 163.949 51.3322 163.949 51.2449C163.949 51.1576 163.775 51.0703 163.775 51.0703H155.048C155.048 51.0703 154.873 51.0703 154.873 51.3322C154.873 51.5068 155.048 51.5068 155.048 51.5068C156.182 51.6814 157.404 52.0306 157.404 53.864V66.8719C157.404 68.5306 156.444 68.7925 155.048 68.9671L154.873 69.1417C154.873 69.3163 155.048 69.4036 155.048 69.4036H163.775C163.775 69.4036 163.949 69.229 163.949 69.1417L163.775 68.9671Z" fill="black"/>
<path d="M151.208 68.9671C149.376 68.7925 148.765 68.4433 148.852 66.3481V51.9433C150.51 52.1179 153.652 51.0703 154.088 55.5227C154.088 55.5227 154.088 55.6973 154.35 55.6973C154.525 55.6973 154.612 55.5227 154.612 55.5227V51.0703H138.99V55.5227C138.99 55.5227 138.99 55.6973 139.252 55.6973C139.514 55.6973 139.514 55.5227 139.514 55.5227C139.95 51.5068 142.656 51.9433 144.75 51.9433V66.1735C144.75 68.356 143.965 68.7052 142.394 68.7925C142.394 68.7925 142.132 68.7925 142.132 68.9671C142.132 69.1417 142.307 69.4036 142.307 69.4036H151.121C151.208 69.4036 151.296 69.229 151.208 68.9671Z" fill="black"/>
<path d="M218.144 62.1587H211.075C211.075 61.4603 211.249 60.6746 211.511 59.9762C213.693 59.5397 215.788 58.5794 217.62 57.0952L225.998 49.9365L221.198 44.2619L215.526 49.0635L210.726 46.2698L207.235 52.381C206.537 52.119 206.013 51.5079 205.577 50.8968C206.275 48.8016 206.537 46.4444 206.1 44.0873L204.18 33L196.849 34.3968L198.246 41.7302L193.446 44.5238L196.937 50.6349C196.413 51.0714 195.54 51.3333 194.755 51.3333C193.271 49.6746 191.438 48.2778 189.082 47.4921L178.697 43.7381L176.253 50.8095L183.148 53.3413V58.8413H190.217C190.217 59.5397 190.042 60.3254 189.78 61.0238C187.598 61.4603 185.504 62.4206 183.671 63.9048L175.293 71.0635L180.093 76.7381L185.766 71.9365L190.566 74.7302L194.057 68.619C194.755 68.881 195.278 69.4921 195.715 70.1032C195.017 72.1984 194.755 74.5556 195.191 76.9127L197.111 87.8254L204.442 86.4286L203.046 79.0952L207.846 76.3016L204.355 70.1905C204.878 69.754 205.751 69.4921 206.537 69.4921C208.02 71.1508 209.853 72.5476 212.209 73.3333L222.595 77.0873L225.038 70.0159L218.144 67.4841V62.1587ZM217.184 63.0317V67.4841L214.74 66.5238C213.082 66 211.948 64.8651 211.424 63.4683C211.424 63.2936 211.424 63.2063 211.249 63.0317H217.184ZM221.198 45.4841L224.777 49.7619L217.009 56.2222C215.526 57.4444 213.868 58.3175 212.035 58.8413L217.271 49.8492L216.486 49.4127L221.198 45.4841ZM211.249 47.4048L215.002 49.5L212.908 51.1587C211.511 52.2936 210.028 52.8175 208.631 52.5556C208.457 52.5556 208.369 52.381 208.195 52.381L211.249 47.4048ZM207.758 53.4286C208.02 53.6032 208.195 53.6032 208.457 53.6032C210.115 53.8651 211.948 53.3413 213.431 52.119L215.788 50.1984L216.049 50.373L211.075 58.9286C211.075 59.1032 210.9 59.1032 210.9 59.1905C209.766 59.3651 208.544 59.3651 207.409 59.1905C206.624 59.0159 205.926 58.754 205.053 58.4921C205.315 57.619 205.577 56.8333 206.188 56.1349L207.758 53.4286ZM210.289 60.0635C210.289 60.7619 210.115 61.4603 210.115 62.1587H207.235C206.275 62.1587 205.402 62.3333 204.617 62.4206C204.617 61.2857 204.617 60.3254 204.878 59.2778C205.664 59.5397 206.362 59.8016 207.235 59.9762C207.933 60.1508 208.631 60.1508 209.155 60.1508C209.591 60.0635 210.028 60.0635 210.289 60.0635ZM206.798 53.0794L205.315 55.6984C204.878 56.5714 204.529 57.3571 204.18 58.2302C203.22 57.7063 202.348 57.0952 201.562 56.3968C202.26 55.873 202.784 55.2619 203.395 54.5635C204.093 53.6905 204.617 52.9048 205.053 51.9444C205.751 52.2063 206.275 52.6429 206.798 53.0794ZM201.388 75.8651L201.911 78.746L201.649 78.9206L196.675 70.3651C196.675 70.1905 196.5 70.1905 196.5 70.1032C196.937 68.9683 197.46 68.0079 198.333 67.0476C198.857 66.3492 199.468 65.8254 200.166 65.3889C200.689 66.0873 201.3 66.7857 201.649 67.4841L203.133 70.1032C202.958 70.2778 202.697 70.3651 202.609 70.627C201.388 72.1111 201.038 73.9444 201.388 75.8651ZM197.111 62.0714C197.373 60.8492 197.548 59.5397 197.548 58.3175C198.769 58.0556 199.904 57.4444 201.038 56.8333C201.998 57.7936 202.958 58.4921 204.093 59.0159C203.831 60.2381 203.657 61.5476 203.657 62.7698C202.435 63.0317 201.3 63.6429 200.166 64.254C199.206 63.2936 198.246 62.5952 197.111 62.0714ZM199.729 45.0476L199.206 42.1667L199.468 41.9921L204.442 50.5476C204.442 50.7222 204.617 50.7222 204.617 50.8095C204.18 51.9444 203.657 52.9048 202.784 53.8651C202.26 54.5635 201.649 55.0873 200.951 55.5238C200.428 54.8254 199.817 54.127 199.468 53.4286L197.984 50.8095C198.158 50.6349 198.42 50.5476 198.508 50.2857C199.642 48.8889 200.078 47.1429 199.729 45.0476ZM197.809 35.0952L203.308 34.1349L205.14 44.0873C205.577 46.0079 205.402 47.9286 204.878 49.5873L199.642 40.5952L198.857 41.0317L197.809 35.0952ZM194.668 44.7857L198.42 42.6905L198.857 45.3095C199.118 46.9683 198.857 48.627 197.897 49.7619C197.722 49.9365 197.722 49.9365 197.635 50.0238L194.668 44.7857ZM197.286 51.246L198.769 53.8651C199.206 54.7381 199.729 55.3492 200.253 56.0476C199.468 56.5714 198.42 57.0079 197.373 57.2698C197.198 56.3968 197.111 55.6111 196.849 54.7381C196.413 53.7778 196.064 52.8175 195.366 51.9444C196.064 51.9444 196.762 51.6825 197.286 51.246ZM183.06 52.381L177.3 50.1984L179.22 44.9603L188.733 48.4524C190.566 49.1508 192.224 50.1111 193.446 51.5079H183.06V52.381ZM184.02 57.881V53.4286L186.464 54.3889C188.122 54.9127 189.257 56.0476 189.78 57.4444C189.78 57.619 189.78 57.7063 189.955 57.881H184.02ZM186.813 53.4286L183.933 52.4683V52.2063H193.882C194.057 52.2063 194.057 52.2063 194.144 52.2063C194.842 53.1667 195.366 54.127 195.802 55.2619C196.064 56.1349 196.238 56.746 196.326 57.619C195.54 57.7936 194.668 57.881 193.708 57.881H190.828V57.7063C190.828 57.4444 190.653 57.2698 190.653 57.0079C190.129 55.4365 188.733 54.127 186.813 53.4286ZM196.5 58.4048C196.5 59.5397 196.5 60.5 196.238 61.5476C195.453 61.2857 194.755 61.0238 193.882 60.8492C192.748 60.6746 191.788 60.6746 190.74 60.6746C191.002 59.9762 191.002 59.2778 191.002 58.5794H193.882C194.842 58.754 195.628 58.5794 196.5 58.4048ZM180.006 75.4286L176.428 71.1508L184.195 64.6905C185.678 63.4683 187.337 62.5952 189.169 62.0714L183.933 71.0635L184.718 71.5L180.006 75.4286ZM189.955 73.5079L186.202 71.4127L188.297 69.754C189.693 68.619 191.089 68.0952 192.573 68.3571C192.748 68.3571 192.835 68.5317 193.009 68.5317L189.955 73.5079ZM193.446 67.5714C193.184 67.3968 193.009 67.3968 192.748 67.3968C192.486 67.3968 192.224 67.2222 191.788 67.2222C190.391 67.2222 188.908 67.746 187.686 68.8809L185.329 70.8016L185.155 70.627L190.129 62.0714C190.129 61.8968 190.304 61.8968 190.304 61.8095C191.438 61.6349 192.66 61.6349 193.795 61.8095C194.58 61.9841 195.278 62.246 196.151 62.5079C195.889 63.3809 195.628 64.1667 195.017 64.8651L193.446 67.5714ZM194.231 68.0079L195.715 65.3889C196.151 64.5159 196.5 63.7302 196.849 62.8571C197.809 63.381 198.682 63.9921 199.468 64.6905C198.769 65.2143 198.246 65.8254 197.635 66.5238C196.937 67.3968 196.413 68.1825 195.977 69.1429C195.453 68.7063 194.929 68.2698 194.231 68.0079ZM203.22 85.8175L197.722 86.7778L195.889 76.8254C195.453 74.9048 195.628 72.9841 196.151 71.3254L201.388 80.3175L202.173 79.881L203.22 85.8175ZM206.537 76.127L202.784 78.2222L202.348 75.6032C202.086 73.9444 202.348 72.2857 203.308 71.1508C203.482 70.9762 203.482 70.9762 203.569 70.8889L206.537 76.127ZM203.918 69.6667L202.435 67.0476C201.998 66.1746 201.475 65.5635 200.951 64.8651C201.737 64.3413 202.784 63.9048 203.831 63.6429C204.006 64.5159 204.093 65.3016 204.355 66.1746C204.791 67.1349 205.14 68.0952 205.838 68.9683C205.14 69.0556 204.442 69.4048 203.918 69.6667ZM206.973 68.7936C206.275 67.8333 205.751 66.873 205.315 65.7381C205.053 64.8651 204.878 64.254 204.791 63.3809C205.577 63.2063 206.449 63.119 207.409 63.119H210.464C210.464 63.381 210.638 63.5556 210.638 63.8175C211.162 65.4762 212.558 66.6984 214.478 67.3968L217.358 68.3571V68.619H207.409C207.06 68.7063 207.06 68.7936 206.973 68.7936ZM223.817 70.8889L221.897 76.127L212.384 72.6349C210.551 71.9365 208.893 70.9762 207.671 69.5794H218.057V68.619L223.817 70.8889Z" fill="black"/>
</g>
<defs>
<clipPath id="clip0_963_91734">
<rect width="192" height="55" fill="white" transform="translate(34 33)"/>
</clipPath>
</defs>
</svg>
