<svg width="260" height="120" viewBox="0 0 260 120" fill="none" xmlns="http://www.w3.org/2000/svg">
<rect width="260" height="120" fill="#F1F1F1"/>
<g clip-path="url(#clip0_963_91902)">
<path d="M190 0H70V120H190V0Z" fill="#E30613"/>
<path d="M134.121 49.1797C130.843 49.1797 128.762 50.6666 128.762 54.1083V66.8546C128.762 70.2963 130.91 71.7833 134.188 71.7833C137.466 71.7833 139.578 70.2963 139.578 66.8546V54.1083C139.578 50.6666 137.429 49.1797 134.121 49.1797ZM135.147 68.8941C135.146 69.0141 135.121 69.1328 135.074 69.2432C135.027 69.3535 134.958 69.4532 134.871 69.5364C134.784 69.6196 134.682 69.6846 134.57 69.7273C134.458 69.7704 134.338 69.7905 134.218 69.7863C133.971 69.7962 133.729 69.708 133.546 69.5411C133.363 69.3739 133.254 69.1414 133.241 68.8941V51.899C133.242 51.78 133.266 51.6626 133.312 51.5533C133.359 51.4438 133.426 51.3446 133.51 51.2612C133.595 51.1777 133.695 51.1117 133.805 51.0671C133.915 51.0225 134.033 50.9998 134.152 51.0006C134.405 50.9922 134.652 51.0846 134.839 51.2573C135.025 51.4299 135.136 51.6694 135.147 51.9233V68.8941Z" fill="#F1F1F1"/>
<path d="M126.565 49.1779C126.29 49.1998 126.031 49.3216 125.839 49.5207C125.647 49.7195 125.534 49.9819 125.521 50.2582L122.972 65.0137L120.459 51.0596C120.132 49.9063 119.367 49.1779 118.244 49.1779C117.959 49.1563 117.674 49.193 117.404 49.2859C117.134 49.3788 116.886 49.5259 116.675 49.7179C116.465 49.9102 116.295 50.1431 116.178 50.4032C116.06 50.663 115.997 50.9443 115.992 51.2294C115.999 51.4331 116.021 51.6361 116.059 51.8364L119.464 69.9181C119.585 70.4401 119.881 70.9052 120.303 71.2363C120.725 71.5673 121.247 71.7447 121.782 71.739C122.326 71.7611 122.86 71.5905 123.289 71.2574C123.719 70.9243 124.018 70.4497 124.132 69.9181C127.47 51.4237 127.573 50.8955 127.573 50.8955C127.573 50.8955 127.634 50.3372 127.67 50.2339C127.668 50.092 127.637 49.9516 127.58 49.8215C127.523 49.691 127.441 49.5734 127.338 49.4753C127.236 49.377 127.114 49.3003 126.982 49.2491C126.849 49.198 126.708 49.1737 126.565 49.1779Z" fill="#F1F1F1"/>
<path d="M148.603 69.677H146.521V51.0914C146.504 50.8177 146.434 50.5498 146.313 50.3033C146.192 50.0568 146.024 49.8366 145.819 49.655C145.613 49.4735 145.374 49.3344 145.114 49.2455C144.854 49.1565 144.58 49.1197 144.306 49.1369C144.034 49.1197 143.761 49.1568 143.503 49.2462C143.245 49.3355 143.008 49.475 142.805 49.6569C142.601 49.8387 142.436 50.0594 142.319 50.3056C142.201 50.5519 142.134 50.819 142.121 51.0914C142.121 68.8211 142.121 69.7435 142.121 69.7435C142.127 70.0245 142.19 70.3015 142.306 70.5572C142.422 70.8131 142.59 71.0424 142.797 71.2315C143.005 71.4207 143.249 71.5655 143.515 71.6573C143.781 71.7489 144.062 71.7856 144.342 71.7648H148.591C148.73 71.765 148.867 71.7374 148.994 71.6836C149.122 71.6299 149.237 71.5514 149.334 71.4522C149.431 71.3534 149.507 71.236 149.557 71.1074C149.608 70.9785 149.633 70.841 149.629 70.7028C149.622 70.433 149.511 70.1766 149.32 69.9859C149.13 69.7952 148.873 69.6846 148.603 69.677Z" fill="#F1F1F1"/>
<path d="M101.868 62.8062C101.579 62.8078 101.293 62.8665 101.027 62.9786C100.761 63.0911 100.52 63.2549 100.317 63.4607C100.115 63.6666 99.9551 63.9105 99.8474 64.1784C99.7394 64.4463 99.6854 64.7327 99.6888 65.0215V68.8941C99.6619 69.1344 99.5474 69.3566 99.3671 69.5179C99.1869 69.6791 98.9534 69.7683 98.7116 69.7683C98.4695 69.7683 98.2363 69.6791 98.056 69.5179C97.8755 69.3566 97.7612 69.1344 97.7343 68.8941V51.899C97.7351 51.78 97.7591 51.6626 97.8053 51.5533C97.8515 51.4438 97.9188 51.3446 98.0033 51.2612C98.0881 51.1777 98.188 51.1117 98.2981 51.0671C98.4082 51.0225 98.5258 50.9998 98.6448 51.0006C98.7687 50.9964 98.8921 51.0173 99.0079 51.0619C99.1237 51.1062 99.2296 51.1735 99.3189 51.2596C99.4083 51.3454 99.4796 51.4485 99.5286 51.5625C99.5774 51.6765 99.6029 51.7991 99.6037 51.9233V55.565C99.5998 55.8546 99.6533 56.1418 99.7613 56.4105C99.8693 56.6792 100.029 56.9236 100.233 57.1297C100.436 57.3358 100.679 57.4996 100.946 57.6113C101.213 57.7229 101.499 57.7806 101.789 57.7806C102.082 57.7837 102.373 57.7286 102.645 57.6188C102.917 57.509 103.164 57.3465 103.373 57.1406C103.582 56.9346 103.748 56.6893 103.861 56.4188C103.975 56.1486 104.034 55.8582 104.035 55.565V54.1083C104.053 50.6666 101.935 49.1797 98.6448 49.1797C95.3549 49.1797 93.2852 50.6666 93.2852 54.1083V66.8546C93.2852 70.2963 95.4399 71.7833 98.7116 71.7833C101.983 71.7833 104.107 70.29 104.107 66.8729V65.0215C104.107 64.7286 104.049 64.4385 103.937 64.1682C103.824 63.8977 103.658 63.6525 103.45 63.4464C103.242 63.2403 102.995 63.0778 102.723 62.9677C102.451 62.8579 102.161 62.8028 101.868 62.8062Z" fill="#F1F1F1"/>
<path d="M113.083 51.0013C112.948 50.4817 112.643 50.0218 112.218 49.6936C111.793 49.3654 111.271 49.1875 110.734 49.1875C110.197 49.1875 109.676 49.3654 109.25 49.6936C108.825 50.0218 108.521 50.4817 108.385 51.0013L104.974 70.0482C104.974 70.0482 104.877 70.6125 104.877 70.7098C104.875 70.8488 104.9 70.9871 104.952 71.1162C105.004 71.2453 105.081 71.363 105.178 71.4618C105.276 71.5607 105.393 71.6392 105.521 71.6925C105.65 71.7457 105.788 71.7728 105.927 71.7718C106.202 71.7532 106.461 71.6351 106.655 71.4397C106.85 71.2443 106.966 70.9847 106.983 70.7098L107.317 69.2225H111.875L112.045 69.8841C112.409 71.0132 113.138 71.7718 114.261 71.7718C114.546 71.7916 114.833 71.7538 115.104 71.6606C115.374 71.5672 115.623 71.4206 115.836 71.2294C116.049 71.0379 116.222 70.8058 116.343 70.5465C116.464 70.2874 116.532 70.0065 116.543 69.7203C116.543 69.5867 116.476 69.2591 116.476 69.1132L113.083 51.0013ZM107.621 67.3409L109.508 56.3306L111.59 67.3472L107.621 67.3409Z" fill="#F1F1F1"/>
<path d="M85.7951 49.1797C82.5175 49.1797 80.5994 50.6666 80.5994 54.1083V57.143C80.5994 58.5694 81.0304 59.4921 82.4204 60.4876L85.7951 62.9155C86.4871 63.4133 86.7541 63.7106 86.7541 64.3357V68.8333C86.7569 68.9544 86.7345 69.0746 86.6883 69.1866C86.6421 69.2985 86.5732 69.3997 86.4859 69.4837C86.3986 69.5674 86.2948 69.6324 86.1811 69.6739C86.0674 69.7156 85.9463 69.7333 85.8255 69.7255C85.7052 69.7331 85.5847 69.7161 85.4709 69.6765C85.3572 69.6366 85.2526 69.5742 85.1633 69.4933C85.0739 69.4127 85.0017 69.3146 84.9507 69.2056C84.8997 69.0963 84.8711 68.9781 84.8665 68.8576V65.0883C84.8697 64.7966 84.8146 64.5071 84.7044 64.2368C84.5943 63.9666 84.4312 63.7208 84.2248 63.5145C84.0184 63.3081 83.7729 63.1451 83.5027 63.035C83.2324 62.9246 82.9429 62.8696 82.651 62.873C82.3599 62.8722 82.0714 62.9288 81.8023 63.04C81.5331 63.1511 81.2885 63.3141 81.0827 63.52C80.8768 63.7258 80.7136 63.9705 80.6026 64.2397C80.4915 64.5086 80.4348 64.7972 80.4356 65.0883V66.5755C80.4356 70.0169 82.5539 71.771 85.8255 71.771C89.0971 71.771 91.1547 70.284 91.1547 66.8424V63.3342C91.189 62.7191 91.0572 62.106 90.7731 61.5593C90.489 61.0125 90.0632 60.552 89.5401 60.2265L86.827 58.4724C84.9757 57.2586 84.8422 57.1493 84.8422 55.134V51.9233C84.8428 51.797 84.8691 51.6723 84.9195 51.5565C84.9699 51.4409 85.0434 51.3368 85.1354 51.2505C85.2274 51.1641 85.3361 51.0973 85.4547 51.0543C85.5734 51.0115 85.6995 50.9933 85.8255 51.0006C85.9495 50.9964 86.073 51.0173 86.1888 51.0619C86.3046 51.1062 86.4103 51.1735 86.4997 51.2596C86.5891 51.3454 86.6603 51.4485 86.7092 51.5625C86.7581 51.6765 86.7837 51.7991 86.7845 51.9233V55.565C86.7805 55.8546 86.834 56.1418 86.942 56.4105C87.05 56.6792 87.2103 56.9236 87.4137 57.1297C87.617 57.3358 87.8592 57.4996 88.1263 57.6113C88.3934 57.7229 88.68 57.7806 88.9696 57.7806C89.561 57.7821 90.1293 57.5505 90.5509 57.1354C90.9725 56.7206 91.2135 56.1564 91.2214 55.565V54.1083C91.2214 50.6666 89.0667 49.1797 85.7951 49.1797Z" fill="#F1F1F1"/>
<path d="M152.664 49.137C152.108 49.102 151.56 49.2875 151.14 49.6533C150.719 50.019 150.46 50.5358 150.418 51.0914V69.7439C150.468 70.3006 150.725 70.8184 151.138 71.1956C151.551 71.5726 152.089 71.7818 152.649 71.7818C153.208 71.7818 153.746 71.5726 154.159 71.1956C154.572 70.8184 154.829 70.3006 154.879 69.7439C154.879 69.7439 154.916 68.8212 154.879 51.0914C154.84 50.5402 154.586 50.0263 154.172 49.6608C153.757 49.2951 153.216 49.107 152.664 49.137Z" fill="#F1F1F1"/>
<path d="M177.879 49.0781C177.438 49.0779 177.015 49.2508 176.7 49.5597C176.386 49.8686 176.205 50.2883 176.197 50.7289C176.223 51.1583 176.412 51.5614 176.725 51.8561C177.038 52.1509 177.452 52.3153 177.881 52.3153C178.312 52.3153 178.725 52.1509 179.038 51.8561C179.351 51.5614 179.54 51.1583 179.566 50.7289C179.558 50.2873 179.376 49.8665 179.061 49.5576C178.745 49.2487 178.32 49.0763 177.879 49.0781ZM177.879 52.1128C177.694 52.1152 177.51 52.0813 177.339 52.0127C177.168 51.9441 177.011 51.8421 176.879 51.7129C176.748 51.5838 176.642 51.4299 176.57 51.2601C176.498 51.09 176.46 50.9076 176.458 50.7229C176.482 50.3616 176.642 50.0225 176.906 49.7749C177.171 49.5274 177.519 49.3896 177.881 49.3896C178.244 49.3896 178.592 49.5274 178.857 49.7749C179.121 50.0225 179.281 50.3616 179.305 50.7229C179.303 50.9084 179.265 51.0918 179.193 51.2624C179.12 51.433 179.014 51.5874 178.882 51.7174C178.749 51.847 178.592 51.9493 178.42 52.0181C178.248 52.087 178.064 52.1214 177.879 52.1188V52.1128Z" fill="#F1F1F1"/>
<path d="M178.71 50.3007C178.708 50.2287 178.688 50.158 178.653 50.0949C178.619 50.0315 178.569 49.9775 178.51 49.9365C178.373 49.882 178.226 49.859 178.079 49.8697H177.32V51.5573H177.581V50.7984H177.879L178.376 51.5573H178.674L178.158 50.7984C178.443 50.7622 178.71 50.6649 178.71 50.3007ZM177.848 50.5678H177.581V50.0701H178.012C178.243 50.0701 178.443 50.1066 178.443 50.3007C178.443 50.6346 178.115 50.5678 177.848 50.5678Z" fill="#F1F1F1"/>
<path d="M173.016 49.1374C172.465 49.109 171.924 49.2976 171.51 49.6631C171.096 50.0283 170.841 50.5412 170.801 51.0919C170.801 68.8216 170.801 69.7443 170.801 69.7443C170.806 70.0247 170.868 70.3015 170.984 70.5574C171.099 70.8131 171.266 71.0426 171.473 71.2318C171.681 71.4212 171.925 71.5659 172.19 71.6578C172.455 71.7493 172.736 71.7861 173.016 71.7655C174.079 71.7655 175.268 71.1585 175.268 69.7443V51.0919C175.226 50.5352 174.966 50.0173 174.544 49.6513C174.123 49.2853 173.574 49.1006 173.016 49.1374Z" fill="#F1F1F1"/>
<path d="M167.528 49.0469C167.269 49.0531 167.023 49.1611 166.842 49.3474C166.662 49.5334 166.562 49.783 166.563 50.0424V64.3607L161.161 50.4368C161.068 50.1827 160.925 49.9497 160.742 49.751C160.558 49.5522 160.337 49.392 160.091 49.279C159.845 49.1661 159.579 49.1032 159.308 49.0936C159.038 49.0839 158.768 49.1277 158.515 49.223C158.12 49.381 157.781 49.6555 157.545 50.01C157.309 50.3643 157.186 50.7819 157.192 51.2077V70.8978C157.192 71.1571 157.295 71.4055 157.478 71.5889C157.661 71.772 157.91 71.875 158.169 71.875C158.428 71.875 158.676 71.772 158.86 71.5889C159.043 71.4055 159.146 71.1571 159.146 70.8978V56.6583L164.536 70.4791C164.625 70.7361 164.765 70.9724 164.948 71.1738C165.131 71.3755 165.353 71.5377 165.6 71.6512C165.847 71.7644 166.115 71.8268 166.387 71.8338C166.659 71.8411 166.929 71.7931 167.182 71.693C167.586 71.539 167.932 71.2625 168.172 70.9023C168.411 70.542 168.532 70.1163 168.518 69.684V50.0424C168.518 49.7794 168.414 49.5271 168.228 49.3406C168.043 49.1541 167.791 49.0484 167.528 49.0469Z" fill="#F1F1F1"/>
</g>
<defs>
<clipPath id="clip0_963_91902">
<rect width="120" height="120" fill="white" transform="translate(70)"/>
</clipPath>
</defs>
</svg>
