<svg width="260" height="120" viewBox="0 0 260 120" fill="none" xmlns="http://www.w3.org/2000/svg">
<rect width="260" height="120" fill="#F1F1F1"/>
<rect width="260" height="63" transform="translate(0 29)" fill="#F1F1F1"/>
<path d="M233.518 66.2766C233.518 66.2126 233.486 66.6446 233.422 67.5726C233.294 69.4286 233.23 71.2206 233.23 72.9486C233.23 73.1406 233.262 73.5406 233.326 74.1486C233.39 74.7246 233.422 75.4286 233.422 76.2606V76.6926C233.422 77.1086 233.294 77.3166 233.038 77.3166C232.782 77.3166 232.558 77.0766 232.366 76.5966C231.918 75.5406 231.47 74.8526 231.022 74.5326C228.718 76.5486 225.95 77.5566 222.718 77.5566C218.014 77.5566 214.11 75.9246 211.006 72.6606C207.934 69.3646 206.398 65.2206 206.398 60.2286C206.398 55.2046 207.806 51.1086 210.622 47.9406C213.47 44.7406 217.134 43.1406 221.614 43.1406C223.246 43.1406 224.542 43.2846 225.502 43.5726C226.494 43.8286 227.71 44.3726 229.15 45.2046C229.854 45.6206 230.382 45.8286 230.734 45.8286C231.022 45.8286 231.294 45.5726 231.55 45.0606C231.966 44.1646 232.302 43.7166 232.558 43.7166C232.814 43.7166 232.942 43.8446 232.942 44.1006C232.942 44.2286 232.91 44.4366 232.846 44.7246C232.494 46.2606 232.318 49.1406 232.318 53.3646C232.318 53.9726 232.27 54.3246 232.174 54.4206C232.078 54.5166 231.95 54.5646 231.79 54.5646C231.47 54.5646 231.262 54.2606 231.166 53.6526C230.75 51.0926 230.158 49.1886 229.39 47.9406C227.822 45.3806 225.358 44.1006 221.998 44.1006C219.406 44.1006 217.358 44.9646 215.854 46.6926C213.134 49.7966 211.774 54.3406 211.774 60.3246C211.774 65.6686 212.894 69.8126 215.134 72.7566C217.086 75.3166 219.678 76.5966 222.91 76.5966C224.574 76.5966 226.094 76.1966 227.47 75.3966C228.846 74.5646 229.902 73.4446 230.638 72.0366C231.47 70.4046 232.062 68.6286 232.414 66.7086C232.542 65.9406 232.75 65.5566 233.038 65.5566C233.358 65.5566 233.518 65.7966 233.518 66.2766Z" fill="black"/>
<path d="M203.399 56.9658C203.399 57.1578 203.287 57.2698 203.063 57.3018C202.871 57.3338 202.135 57.3818 200.855 57.4458C199.863 57.4778 199.223 57.5898 198.935 57.7818C198.647 57.9738 198.439 58.4697 198.311 59.2697C197.575 63.2697 196.183 66.8698 194.135 70.0698C194.775 71.0938 195.239 71.8937 195.527 72.4697C196.295 74.0057 197.031 74.9657 197.735 75.3498C198.471 75.7337 199.927 75.9738 202.103 76.0698C202.775 76.1018 203.111 76.2778 203.111 76.5978C203.111 76.8538 202.887 76.9818 202.439 76.9818C201.639 76.9818 200.167 76.9338 198.023 76.8377C197.287 76.8057 196.791 76.7897 196.535 76.7897C195.479 76.7897 194.327 76.8538 193.079 76.9818C192.951 76.6297 192.407 75.6058 191.447 73.9098L191.207 73.5257C188.647 76.2458 185.303 77.6058 181.175 77.6058C178.007 77.6058 175.431 76.7577 173.447 75.0617C171.463 73.3657 170.471 71.1578 170.471 68.4378C170.471 63.8938 173.287 60.3097 178.919 57.6858C178.855 57.5897 178.647 57.3658 178.295 57.0138C176.663 55.3178 175.639 54.1338 175.223 53.4618C174.839 52.7578 174.647 51.8457 174.647 50.7257C174.647 48.4537 175.383 46.6137 176.855 45.2057C178.359 43.7977 180.295 43.0938 182.663 43.0938C184.935 43.0938 186.759 43.6858 188.135 44.8698C189.543 46.0218 190.247 47.5418 190.247 49.4298C190.247 52.4698 188.023 54.8857 183.575 56.6778C183.767 56.9018 184.567 57.8298 185.975 59.4618C188.791 62.6938 191.271 65.8618 193.415 68.9658C195.687 65.3178 196.823 61.9258 196.823 58.7898C196.823 58.0857 196.679 57.6858 196.391 57.5898C196.103 57.4618 195.079 57.3977 193.319 57.3977C192.359 57.3977 191.879 57.2378 191.879 56.9178C191.879 56.6617 192.151 56.5337 192.695 56.5337H200.471C201.943 56.5337 202.743 56.5497 202.871 56.5817C203.223 56.6777 203.399 56.8058 203.399 56.9658ZM186.551 49.9098C186.551 48.1178 186.151 46.6618 185.351 45.5417C184.583 44.4217 183.575 43.8617 182.327 43.8617C181.047 43.8617 179.991 44.2937 179.159 45.1577C178.327 45.9897 177.911 47.0458 177.911 48.3258C177.911 50.6938 179.639 53.2698 183.095 56.0538C185.399 54.8057 186.551 52.7578 186.551 49.9098ZM190.631 72.5658C188.679 69.1737 184.951 64.4058 179.447 58.2618C177.879 59.4458 176.759 60.6618 176.087 61.9098C175.447 63.1578 175.127 64.6617 175.127 66.4217C175.127 69.1418 175.879 71.4138 177.383 73.2378C178.919 75.0618 180.823 75.9738 183.095 75.9738C185.943 75.9738 188.455 74.8377 190.631 72.5658Z" fill="black"/>
<path d="M164.375 46.7928C164.375 48.2328 163.655 48.9528 162.215 48.9528C161.607 48.9528 161.095 48.7608 160.679 48.3768C160.263 47.9608 160.055 47.4648 160.055 46.8888C160.055 45.3848 160.775 44.6328 162.215 44.6328C163.655 44.6328 164.375 45.3528 164.375 46.7928ZM167.975 76.6968C167.975 76.9848 167.703 77.1288 167.159 77.1288C167.191 77.1288 166.807 77.0968 166.007 77.0328C165.047 76.9688 164.247 76.9368 163.607 76.9368L158.615 77.0328C158.455 77.0648 158.263 77.0808 158.039 77.0808C157.687 77.0808 157.511 76.9688 157.511 76.7448C157.511 76.4248 157.831 76.2648 158.471 76.2648C159.687 76.2328 160.343 76.1528 160.439 76.0248C160.567 75.8648 160.631 75.1928 160.631 74.0088L160.583 59.4648C160.551 58.6648 160.503 58.2008 160.439 58.0728C160.407 57.9128 160.215 57.8328 159.863 57.8328L158.471 57.8808C158.343 57.9128 158.183 57.9288 157.991 57.9288C157.639 57.9288 157.463 57.8008 157.463 57.5448C157.463 57.3208 157.735 57.1928 158.279 57.1608C160.423 57.0648 162.263 56.5528 163.799 55.6248L164.279 55.3368C164.535 55.8168 164.663 56.6968 164.663 57.9768C164.663 57.9128 164.663 58.0728 164.663 58.4568C164.631 58.8408 164.615 59.4648 164.615 60.3288V73.4328C164.615 74.7128 164.631 75.4648 164.663 75.6888C164.727 75.9128 164.903 76.0568 165.191 76.1208C165.671 76.2488 166.375 76.3128 167.303 76.3128C167.751 76.3128 167.975 76.4408 167.975 76.6968Z" fill="black"/>
<path d="M155.676 76.6926C155.676 76.9486 155.436 77.0766 154.956 77.0766H154.38C153.804 77.0126 153.02 76.9806 152.028 76.9806C148.892 76.9806 147.036 77.0126 146.46 77.0766H146.124C145.708 77.0766 145.5 76.9646 145.5 76.7406C145.5 76.5806 145.58 76.4846 145.74 76.4526C145.932 76.4206 146.556 76.3886 147.612 76.3566C148.22 76.3246 148.572 76.2446 148.668 76.1166C148.764 75.9566 148.812 75.4286 148.812 74.5326V65.3166C148.812 61.8286 148.684 59.7486 148.428 59.0766C147.884 57.6366 146.796 56.9166 145.164 56.9166C143.564 56.9166 142.22 57.6206 141.132 59.0286C140.812 59.4446 140.652 60.0206 140.652 60.7566L140.7 75.7326C140.7 76.1166 141.036 76.3246 141.708 76.3566L143.148 76.4046C143.468 76.4046 143.628 76.5166 143.628 76.7406C143.628 76.9646 143.436 77.0766 143.052 77.0766H142.284C141.58 77.0126 140.46 76.9806 138.924 76.9806C138.572 76.9806 137.804 76.9966 136.62 77.0286C135.468 77.0606 134.796 77.0766 134.604 77.0766H134.316C133.836 77.0766 133.596 76.9646 133.596 76.7406C133.596 76.5166 133.884 76.3726 134.46 76.3086C134.876 76.3086 135.276 76.3086 135.66 76.3086C136.14 76.3086 136.428 76.1966 136.524 75.9726L136.668 75.2526V64.7886C136.668 61.1406 136.636 59.1246 136.572 58.7406C136.508 58.3566 136.108 58.1646 135.372 58.1646C135.148 58.1646 134.764 58.1966 134.22 58.2606H133.98C133.34 58.2606 133.02 58.1486 133.02 57.9246C133.02 57.6366 133.356 57.4926 134.028 57.4926C134.988 57.4606 136.028 57.2846 137.148 56.9646C138.268 56.6446 139.052 56.2766 139.5 55.8606C139.788 55.6046 140.012 55.4766 140.172 55.4766C140.396 55.4766 140.508 55.7806 140.508 56.3886V58.6926C142.172 56.5486 144.316 55.4766 146.94 55.4766C149.244 55.4766 150.908 56.3246 151.932 58.0206C152.508 58.9806 152.796 60.8046 152.796 63.4926V74.4366C152.796 75.4606 152.844 76.0206 152.94 76.1166C153.132 76.3086 153.596 76.4046 154.332 76.4046C154.428 76.4046 154.604 76.3886 154.86 76.3566H155.196C155.516 76.3566 155.676 76.4686 155.676 76.6926Z" fill="black"/>
<path d="M130.683 71.7486C130.683 72.0686 130.427 72.6446 129.915 73.4766C129.435 74.2766 128.939 74.9326 128.427 75.4446C127.051 76.8526 125.211 77.5566 122.907 77.5566C120.027 77.5566 117.611 76.5166 115.659 74.4366C113.739 72.3566 112.779 69.7806 112.779 66.7086C112.779 63.5086 113.691 60.8366 115.515 58.6926C117.371 56.5486 119.675 55.4766 122.427 55.4766C124.699 55.4766 126.603 56.1486 128.139 57.4926C129.675 58.8046 130.491 60.5006 130.587 62.5806C129.563 62.7406 128.203 62.8046 126.507 62.7726L123.147 62.7246C122.923 62.7246 121.003 62.7726 117.387 62.8686C117.227 63.9246 117.147 64.9326 117.147 65.8926C117.147 69.1246 117.755 71.6206 118.971 73.3806C120.219 75.1086 121.963 75.9726 124.203 75.9726C125.483 75.9726 126.507 75.6846 127.275 75.1086C128.043 74.5326 128.875 73.4286 129.771 71.7966C129.899 71.5406 130.075 71.4126 130.299 71.4126C130.555 71.4126 130.683 71.5246 130.683 71.7486ZM126.507 61.9566C126.379 58.1166 125.003 56.1966 122.379 56.1966C119.787 56.1966 118.171 58.1166 117.531 61.9566H126.507Z" fill="black"/>
<path d="M111.713 74.1503C111.713 74.4383 111.313 74.9503 110.513 75.6863C109.137 76.9343 107.505 77.5583 105.617 77.5583C103.857 77.5583 102.529 77.1103 101.633 76.2143C101.121 75.7023 100.865 74.1983 100.865 71.7023V57.3983C100.833 57.0783 100.657 56.9023 100.337 56.8703H98.513C97.809 56.8703 97.457 56.7583 97.457 56.5343C97.457 56.3103 97.633 56.1823 97.985 56.1503C100.481 55.9263 102.433 54.7103 103.841 52.5023C104.033 52.2143 104.273 52.0703 104.561 52.0703C104.785 52.0703 104.897 52.1823 104.897 52.4063V52.5983C104.865 52.7583 104.849 53.0303 104.849 53.4143C104.849 54.7583 104.913 55.6223 105.041 56.0063C105.329 56.0703 105.809 56.1023 106.481 56.1023C108.241 56.1023 109.409 56.0223 109.985 55.8623C110.113 55.8303 110.225 55.8143 110.321 55.8143C110.577 55.8143 110.705 55.9583 110.705 56.2463C110.705 56.7263 109.409 56.9663 106.817 56.9663C106.369 56.9663 105.713 56.9503 104.849 56.9183V65.7983C104.849 70.2783 104.961 73.0943 105.185 74.2463C105.409 75.3663 106.145 75.9263 107.393 75.9263C108.449 75.9263 109.633 75.3343 110.945 74.1503C111.073 73.9903 111.217 73.9103 111.377 73.9103C111.601 73.9103 111.713 73.9903 111.713 74.1503Z" fill="black"/>
<path d="M96.2413 76.648C96.2413 76.936 96.0333 77.08 95.6173 77.08H95.0413C94.9773 77.08 94.1293 77.048 92.4973 76.984L91.0093 76.936C90.7533 76.936 89.4733 76.984 87.1693 77.08C86.9773 77.112 86.7853 77.128 86.5933 77.128C86.1133 77.16 85.8733 77.016 85.8733 76.696C85.8733 76.472 86.0493 76.36 86.4013 76.36H87.6493C88.5453 76.36 88.9933 76.168 88.9933 75.784C89.0253 75.592 89.0413 74.344 89.0413 72.04V47.608C89.0413 46.552 89.0093 45.976 88.9453 45.88C88.8493 45.624 88.5933 45.496 88.1773 45.496H87.7933L86.4493 45.544C86.0013 45.544 85.7773 45.4 85.7773 45.112C85.7773 44.856 86.1773 44.712 86.9773 44.68C88.5133 44.584 89.9373 44.232 91.2493 43.624L92.2573 43.144L92.6413 43C92.8973 43.928 93.0093 45.336 92.9773 47.224L92.9293 50.632L92.9773 74.152C92.9773 75.112 92.9933 75.688 93.0253 75.88C93.0573 76.04 93.1693 76.152 93.3613 76.216C93.3933 76.248 93.9853 76.28 95.1373 76.312C95.8733 76.312 96.2413 76.424 96.2413 76.648Z" fill="black"/>
<path d="M83.4499 66.6126C83.4499 69.7166 82.5059 72.3246 80.6179 74.4366C78.7299 76.5166 76.3779 77.5566 73.5619 77.5566C70.6499 77.5566 68.2179 76.5166 66.2659 74.4366C64.3139 72.3246 63.3379 69.7166 63.3379 66.6126C63.3379 63.4126 64.2819 60.7566 66.1699 58.6446C68.0899 56.5326 70.4739 55.4766 73.3219 55.4766C76.2019 55.4766 78.6019 56.5486 80.5219 58.6926C82.4739 60.8046 83.4499 63.4446 83.4499 66.6126ZM79.0819 66.5646C79.0819 63.0446 78.5379 60.3086 77.4499 58.3566C76.6499 56.9166 75.3059 56.1966 73.4179 56.1966C71.6259 56.1966 70.2179 57.1246 69.1939 58.9806C68.2019 60.8046 67.7059 63.3486 67.7059 66.6126C67.7059 69.8446 68.2339 72.3726 69.2899 74.1966C70.3779 75.9886 71.8819 76.8846 73.8019 76.8846C75.2739 76.8846 76.3619 76.3246 77.0659 75.2046C78.4099 73.0926 79.0819 70.2126 79.0819 66.5646Z" fill="black"/>
<path d="M60.992 76.6021C60.992 76.9221 60.656 77.0821 59.984 77.0821H59.456C59.008 77.0821 58.192 77.0661 57.008 77.0341C55.824 77.0021 54.912 76.9861 54.272 76.9861C53.312 76.9861 52.192 77.0021 50.912 77.0341C49.6 77.0341 48.736 77.0341 48.32 77.0341H47.984C47.312 77.0341 46.976 76.8901 46.976 76.6021C46.976 76.2821 47.44 76.1221 48.368 76.1221C50 76.1221 50.992 75.9461 51.344 75.5941C51.504 75.4341 51.584 74.3621 51.584 72.3781V47.5141C51.584 47.5461 51.408 48.1061 51.056 49.1941C49.776 53.0661 47.92 58.8901 45.488 66.6661L43.232 74.2981C42.784 75.8021 42.464 76.5541 42.272 76.5541C42.048 76.5541 41.808 76.1701 41.552 75.4021C40.624 72.4901 38 65.2261 33.68 53.6101L31.76 48.4741C31.792 49.0821 31.808 49.9141 31.808 50.9701V66.5701C31.808 72.4261 31.856 75.3861 31.952 75.4501C32.176 75.8661 32.944 76.0741 34.256 76.0741C35.312 76.0741 35.84 76.2181 35.84 76.5061C35.84 76.8261 35.504 76.9861 34.832 76.9861C34.416 76.9861 34.032 76.9701 33.68 76.9381C33.232 76.9061 32.832 76.8901 32.48 76.8901L26.96 77.0341C26.384 77.0341 26.096 76.8901 26.096 76.6021C26.096 76.2821 27.008 76.1061 28.832 76.0741C29.6 76.0741 30.048 75.9461 30.176 75.6901C30.304 75.4341 30.368 74.6021 30.368 73.1941V50.2021C30.368 47.5461 30.336 46.1061 30.272 45.8821C30.144 45.4341 29.872 45.1301 29.456 44.9701C29.04 44.8101 28.144 44.6821 26.768 44.5861C26.256 44.5541 26 44.4101 26 44.1541C26 43.8021 26.464 43.6261 27.392 43.6261C27.52 43.6261 27.792 43.6421 28.208 43.6741H30.704C32.592 43.6741 33.92 43.6581 34.688 43.6261C34.848 44.0421 35.792 46.5541 37.52 51.1621C38.256 53.0821 40.32 58.6821 43.712 67.9621C44.32 65.8821 44.944 63.8341 45.584 61.8181L50.672 45.9301C50.96 45.0021 51.216 44.2341 51.44 43.6261L58.64 43.5781C59.696 43.5781 60.304 43.6261 60.464 43.7221C60.624 43.8181 60.704 43.9621 60.704 44.1541C60.704 44.4741 60.432 44.6341 59.888 44.6341C58.992 44.6341 58.384 44.6661 58.064 44.7301C57.296 44.8581 56.768 45.1141 56.48 45.4981C56.32 45.7221 56.24 47.5941 56.24 51.1141V73.4341C56.24 74.7141 56.368 75.4661 56.624 75.6901C57.04 75.9781 58.08 76.1221 59.744 76.1221H60.032C60.672 76.1221 60.992 76.2821 60.992 76.6021Z" fill="black"/>
</svg>
