<svg width="260" height="120" viewBox="0 0 260 120" fill="none" xmlns="http://www.w3.org/2000/svg">
<rect width="260" height="120" fill="#F1F1F1"/>
<g clip-path="url(#clip0_963_91786)">
<path fill-rule="evenodd" clip-rule="evenodd" d="M37 41.5915H223.001V30H37V41.5915ZM37 92H223.001V76.1181H37V92Z" fill="#FF4C00"/>
<path fill-rule="evenodd" clip-rule="evenodd" d="M115.187 71.4064H120.242V48.6623H115.187V71.4064ZM49.219 48.661H53.8504C53.8504 48.661 58.3602 48.661 58.9058 53.7128H53.8504C53.4077 50.6413 50.4751 50.6413 50.4751 50.6413H49.219V48.661ZM46.6881 69.4236H45.4233C45.4233 69.4236 42.4982 69.4236 42.0542 66.3484H37C37.5431 71.4064 42.0542 71.4076 42.0542 71.4076L46.6881 71.4051V69.4236ZM49.2152 69.4236H50.4738C50.4738 69.4236 53.8479 69.4236 53.8479 65.2225C53.8479 61.0251 50.4738 61.0251 50.4738 61.0251H49.214V59.0411H53.8466C53.8466 59.0411 58.9058 59.0411 58.9058 65.2225C58.9058 71.4051 53.8504 71.4076 53.8504 71.4076L49.214 71.4051L49.2152 69.4236ZM46.6881 59.0423H45.4233C45.4233 59.0423 42.0542 59.0423 42.0542 54.8437C42.0542 50.6438 45.4233 50.6438 45.4233 50.6438H46.6881V48.661L42.0567 48.6623C42.0567 48.6623 37 48.6623 37 54.8437C37 61.0251 42.0542 61.0251 42.0542 61.0251H46.6881V59.0411V59.0423ZM72.5905 48.661H62.9048V71.4051H67.9603V54.8437C67.9603 50.6438 71.3282 50.6438 71.3282 50.6438H72.5905V48.661ZM75.1151 48.661H79.7577C79.7577 48.661 84.8094 48.661 84.8094 54.8437V71.4051H79.7552V54.8437C79.7552 50.6438 76.3824 50.6438 76.3824 50.6438H75.1151V48.661ZM98.4966 48.661H93.8614C93.8614 48.661 89.3528 48.661 88.806 53.714H93.8614C94.3103 50.6438 97.2305 50.6438 97.2305 50.6438H98.4966V48.661ZM101.022 69.4236H102.285C102.285 69.4236 105.655 69.4236 105.655 65.2225C105.655 61.0251 102.285 61.0251 102.285 61.0251H101.022V59.0411H102.285C102.285 59.0411 105.655 59.0411 105.655 54.8437C105.655 50.6438 102.285 50.6438 102.285 50.6438H101.022V48.661H105.655C105.655 48.661 110.713 48.661 110.713 54.8437V71.4051H101.021L101.022 69.4236ZM98.4966 69.4236H97.2318C97.2318 69.4236 93.8652 69.4236 93.8652 65.2225C93.8652 61.0251 97.2305 61.0251 97.2305 61.0251H98.4966V59.0411H93.8614C93.8614 59.0411 88.8084 59.0411 88.8084 65.2225C88.8084 71.4051 93.8614 71.4051 93.8614 71.4051H98.4966V69.4236ZM136.928 69.4236H138.19C138.19 69.4236 141.563 69.4236 141.563 65.2225V54.8437C141.563 50.6438 138.19 50.6438 138.19 50.6438H136.928V48.661H141.563V44.0234H146.617V71.4051H136.928V69.4236ZM134.402 69.4236H133.137C133.137 69.4236 129.771 69.4236 129.771 65.2225V54.8437C129.771 50.6438 133.137 50.6438 133.137 50.6438H134.402V48.661H129.768C129.768 48.661 124.715 48.661 124.715 54.8437V65.2225C124.715 71.4051 129.768 71.4051 129.768 71.4051H134.403L134.402 69.4236ZM160.473 69.4236H159.208C159.208 69.4236 155.838 69.4236 155.838 65.2225C155.838 61.0251 159.209 61.0251 159.209 61.0251H160.473V59.0411H159.208C159.208 59.0411 155.838 59.0411 155.838 54.8437C155.838 50.6438 159.209 50.6438 159.209 50.6438H160.473V48.661H155.835C155.835 48.661 150.786 48.661 150.786 54.8437V65.2225C150.786 71.4051 155.837 71.4051 155.837 71.4051H160.473V69.4236ZM162.999 59.0423H164.261C164.261 59.0423 167.634 59.0423 167.634 54.8437C167.634 50.6438 164.261 50.6438 164.261 50.6438H162.999V48.661H167.634C167.634 48.661 172.687 48.661 172.687 54.8437C172.687 61.0251 167.634 61.0251 167.634 61.0251H162.999V59.0411V59.0423ZM186.395 48.661H176.707V71.4051H181.763V54.8437C181.763 50.6438 185.127 50.6438 185.127 50.6438H186.395V48.661ZM188.92 48.661H193.554C193.554 48.661 198.067 48.661 198.613 53.714H193.557C193.121 50.6438 190.185 50.6438 190.185 50.6438H188.92V48.661ZM210.786 69.4236H209.517C209.517 69.4236 206.156 69.4236 206.156 65.2225V54.8437C206.156 50.6438 209.516 50.6438 209.516 50.6438H210.786V48.661H206.151C206.151 48.661 201.097 48.661 201.097 54.8437V65.2225C201.097 71.4051 206.151 71.4051 206.151 71.4051H210.786V69.4236ZM213.311 69.4236H214.575C214.575 69.4236 217.949 69.4236 217.949 65.2225V54.8437C217.949 50.6438 214.579 50.6438 214.579 50.6438H213.311V48.661H217.948C217.948 48.661 223 48.661 223 54.8437V65.2225C223 71.4051 217.947 71.4051 217.947 71.4051H213.309V69.4236H213.311ZM115.187 47.1433H120.242V44.0234H115.187V47.1433ZM162.999 69.4236H164.261C164.261 69.4236 167.093 69.4236 167.634 66.3484H172.687C172.114 71.4051 167.634 71.4051 167.634 71.4051H162.999V69.4236Z" fill="black"/>
</g>
<defs>
<clipPath id="clip0_963_91786">
<rect width="186" height="62" fill="white" transform="translate(37 30)"/>
</clipPath>
</defs>
</svg>
