<svg width="260" height="120" viewBox="0 0 260 120" fill="none" xmlns="http://www.w3.org/2000/svg">
<rect width="260" height="120" fill="#F1F1F1"/>
<path d="M260 29H0V71.0742H260V29Z" fill="#E63312"/>
<path d="M171.339 45.1016H163.877V46.9196H171.339V45.1016Z" fill="#F1F1F1"/>
<path d="M179.873 60.3551C181.314 62.5441 184.232 63.1378 186.412 61.6908C187.741 60.8003 188.517 59.3533 188.517 57.7579V54.6042L194.28 59.9098L200.006 54.6042V57.7579C199.932 60.3551 202.001 62.5441 204.587 62.6183C207.173 62.6925 209.353 60.6519 209.427 58.0176C209.427 57.9434 209.427 57.8321 209.427 57.7579V41.9522C209.427 39.3551 207.321 37.2031 204.735 37.2031C203.553 37.2031 202.408 37.6484 201.521 38.4646L194.243 45.1802L186.966 38.4646C185.045 36.6837 182.089 36.8321 180.316 38.7614C179.614 39.5406 179.171 40.5052 179.097 41.5812C177.545 38.9098 174.701 37.2402 171.635 37.2402H160.774C158.188 37.2402 156.045 39.3551 156.045 41.9522V44.5123C153.976 40.06 149.543 37.2402 144.667 37.2402H139.975C136.392 37.2402 132.993 38.7614 130.592 41.4699C130.333 39.0582 128.301 37.2402 125.9 37.2402H109.867C108.279 37.2402 106.764 38.0565 105.914 39.4293C104.51 37.2402 101.592 36.5724 99.4124 37.9823C99.1908 38.1307 98.9691 38.2791 98.7844 38.4646L93.3908 43.4363L87.9972 38.4646C86.0762 36.7208 83.1208 36.8321 81.3476 38.7614C81.1629 38.9469 81.0151 39.1696 80.8674 39.3922C80.0177 38.0194 78.5031 37.2031 76.9145 37.2031H60.8816C58.2956 37.2031 56.153 39.318 56.153 41.9151V54.159C55.3033 53.3798 54.1581 52.9717 53.0129 52.9717H42.041C41.8563 52.9717 41.7455 52.8233 41.7085 52.6378V41.9522C41.7085 39.3551 39.6028 37.2402 36.9799 37.2402C35.3914 37.2402 33.9506 38.0565 33.064 39.3551C32.1774 38.0194 30.6997 37.2402 29.1481 37.2402H13.0782C10.4923 37.2402 8.38655 39.318 8.34961 41.9522V57.7579C8.27572 60.3551 10.3076 62.5441 12.9305 62.6183C15.5164 62.6925 17.696 60.6519 17.7699 58.0176V57.9805C17.7699 57.9063 17.7699 57.795 17.7699 57.7208V54.8639C17.7699 54.6784 17.9177 54.53 18.1024 54.5671H22.4985C25.0845 54.5671 27.1902 52.4522 27.1902 49.818C27.1902 48.6678 26.7838 47.5547 26.008 46.6643H29.1112C30.2564 46.6643 31.4016 46.219 32.2513 45.477V57.7208C32.2513 60.318 34.357 62.4699 36.9799 62.4699H53.0129C54.6014 62.4699 56.0791 61.6537 56.9288 60.318C57.8154 61.6166 59.2561 62.4328 60.8446 62.4328H76.8407C78.4292 62.4328 79.9438 61.6166 80.7935 60.2438C82.1973 62.4328 85.1157 63.1007 87.2953 61.6908C87.517 61.5423 87.7386 61.3939 87.9233 61.2084L93.3169 56.2738L98.7105 61.2455C100.632 62.9893 103.587 62.878 105.36 60.9487C105.545 60.7632 105.693 60.5406 105.84 60.318C107.244 62.507 110.163 63.1749 112.342 61.765C113.709 60.9116 114.522 59.3904 114.522 57.795V54.9381C114.522 54.7526 114.67 54.6413 114.854 54.6413H119.287C121.873 54.6413 123.979 52.5264 123.979 49.8922C123.979 48.742 123.536 47.6289 122.797 46.7756H125.9C126.602 46.7756 127.267 46.6272 127.895 46.3303C125.9 53.0088 129.668 60.0211 136.318 62.0247C137.5 62.3957 138.719 62.5441 139.938 62.5441H144.63C149.506 62.5441 153.939 59.6872 156.008 55.272V57.8321C155.934 60.4293 158.003 62.6183 160.589 62.6925C163.175 62.7667 165.354 60.7261 165.428 58.0918C165.428 58.0176 165.428 57.9063 165.428 57.8321V54.6042L172.743 61.2826C174.701 63.0264 177.656 62.878 179.429 60.9487C179.577 60.7632 179.725 60.5777 179.873 60.3551Z" fill="#F1F1F1"/>
<path d="M160.736 60.7596C159.074 60.7596 157.707 59.3868 157.707 57.7172V41.9487C157.707 40.279 159.074 38.9062 160.736 38.9062H171.597C175.439 38.9062 178.542 42.06 178.542 45.9186C178.542 48.2561 177.397 50.4451 175.439 51.7066C175.033 51.9663 174.922 52.5229 175.181 52.931C175.218 53.0052 175.255 53.0423 175.329 53.0794L177.914 55.4168C179.097 56.6041 179.06 58.5335 177.878 59.7207C176.769 60.7967 175.033 60.908 173.851 59.9433L165.243 52.0776C164.874 51.7437 164.32 51.7808 163.987 52.1889C163.839 52.3373 163.766 52.56 163.766 52.7455V57.6801C163.803 59.4239 162.436 60.7967 160.736 60.7596C160.773 60.7967 160.773 60.7967 160.736 60.7596Z" fill="#E63312"/>
<path d="M171.597 39.0195C175.402 39.0195 178.469 42.099 178.469 45.9205C178.469 48.2209 177.323 50.3728 175.439 51.6343C174.996 51.9312 174.848 52.5619 175.181 53.0071C175.218 53.0813 175.292 53.1555 175.329 53.1926L177.915 55.5301C179.134 56.6061 179.244 58.4612 178.173 59.6856C177.102 60.9099 175.255 61.0213 174.036 59.9453L173.999 59.9082L165.391 52.0425C164.985 51.6714 164.357 51.7085 163.987 52.1167C163.84 52.3022 163.729 52.5248 163.729 52.7845V57.7191C163.803 59.3516 162.547 60.7244 160.921 60.7615C159.296 60.8357 157.929 59.5743 157.892 57.9418C157.892 57.9418 157.892 57.9418 157.892 57.9046C157.892 57.8304 157.892 57.7562 157.892 57.682V41.9506C157.892 40.3181 159.185 39.0195 160.81 39.0195H171.597ZM171.597 38.7969H160.736C159 38.7969 157.596 40.2068 157.596 41.9506V57.7562C157.485 59.5001 158.815 60.9842 160.552 61.0955C162.288 61.2068 163.766 59.8711 163.876 58.1273V58.0902C163.876 57.9789 163.876 57.8675 163.876 57.7933V52.7845C163.876 52.3393 164.209 52.0054 164.652 52.0054C164.837 52.0054 165.022 52.0796 165.169 52.1909L173.777 60.0566C175.107 61.1697 177.065 61.0213 178.21 59.6856C179.281 58.4241 179.208 56.5319 177.988 55.3817L175.402 53.0442C175.366 53.0071 175.329 52.97 175.292 52.8958C175.033 52.5248 175.144 52.0425 175.476 51.7827C175.476 51.7827 175.476 51.7827 175.513 51.7827C178.764 49.5937 179.614 45.1785 177.434 41.9135C176.141 39.9842 173.962 38.7969 171.597 38.7969Z" fill="#F1F1F1"/>
<path d="M80.8286 54.9727C79.942 53.6741 78.4643 52.8579 76.8758 52.8579H74.0312C75.472 51.0769 75.472 48.5169 74.0312 46.7731H76.8758C78.4643 46.7731 79.942 45.9939 80.8286 44.6953C81.0503 44.9921 81.2719 45.289 81.5305 45.5116L86.2222 49.8155L81.5305 54.1564C81.2719 54.4162 81.0503 54.6759 80.8286 54.9727Z" fill="#E63312"/>
<path d="M80.8294 44.8788C81.0141 45.1386 81.2358 45.3612 81.4574 45.5838L86.0752 49.8506L81.4574 54.0802C81.2358 54.3029 81.0141 54.5255 80.8294 54.7852C79.9059 53.5237 78.4282 52.7446 76.8766 52.7817H74.2167C75.5097 51.0378 75.5097 48.6262 74.2167 46.8824H76.8766C78.4282 46.8824 79.9059 46.1403 80.8294 44.8788ZM80.8294 44.5078C79.9797 45.8806 78.4651 46.6969 76.8766 46.6969H73.7734C75.362 48.4778 75.362 51.2234 73.7734 53.0043H76.8766C78.4651 53.0043 79.9797 53.8205 80.8294 55.1933C81.0511 54.8594 81.3097 54.5255 81.6052 54.2658L86.3708 49.8506L81.6052 45.4354C81.3097 45.1757 81.0511 44.8417 80.8294 44.5078Z" fill="#F1F1F1"/>
<path d="M100.521 49.8488L105.065 45.6562V54.0414L100.521 49.8488Z" fill="#E63312"/>
<path d="M104.954 45.8808V53.8207L100.669 49.8507L104.954 45.8808ZM105.176 45.3984L105.139 45.4355L100.373 49.8507L105.139 54.2288L105.176 54.2659V45.3984Z" fill="#F1F1F1"/>
<path d="M179.06 54.1907V50.2578C178.58 51.1112 177.952 51.8532 177.213 52.484L179.097 54.1907" fill="#E63312"/>
<path d="M179.06 54.1907V50.2578C178.58 51.1112 177.952 51.8532 177.213 52.484L179.097 54.1907" stroke="#F1F1F1" stroke-width="0.57" stroke-miterlimit="10"/>
<path d="M13.0761 60.7596C11.4137 60.7596 10.0469 59.3868 10.0469 57.7172V41.9487C10.0469 40.279 11.4137 38.9062 13.0761 38.9062H29.1091C30.7715 38.9062 32.1384 40.279 32.1384 41.9487C32.1384 43.6183 30.7715 44.9911 29.1091 44.9911H17.029C16.5487 44.9911 16.1424 45.3992 16.1424 45.8815C16.1424 46.3638 16.5487 46.772 17.029 46.772H22.5334C24.1958 46.772 25.5626 48.1448 25.5626 49.8144C25.5626 51.484 24.1958 52.8568 22.5334 52.8568H18.1003C16.992 52.8568 16.1054 53.7472 16.1054 54.8603V57.7172C16.1054 59.4239 14.7385 60.7596 13.0761 60.7596Z" fill="#E63312"/>
<path d="M29.1096 39.0195C30.7351 39.0195 32.028 40.3552 32.028 41.9506C32.028 43.5831 30.6981 44.8817 29.1096 44.8817H17.0295C16.4753 44.8817 16.032 45.3269 16.032 45.8834C16.032 46.44 16.4753 46.8852 17.0295 46.8852H22.5339C24.1593 46.8852 25.4523 48.2209 25.4523 49.8163C25.4523 51.4488 24.1224 52.7474 22.5339 52.7474H18.1008C16.9556 52.7474 15.9951 53.675 15.9951 54.8622V57.7191C15.9951 59.3516 14.6651 60.6502 13.0766 60.6502C11.4881 60.6502 10.1582 59.3145 10.1582 57.7191V41.9506C10.1582 40.3181 11.4881 39.0195 13.0766 39.0195H29.1096ZM29.1096 38.7969H13.0766C11.3403 38.7969 9.93653 40.2068 9.93653 41.9506V57.7562C9.86264 59.5001 11.1926 60.9842 12.9289 61.0584C14.6651 61.1326 16.1059 59.7969 16.2167 58.0902C16.2167 57.9789 16.2167 57.8675 16.2167 57.7933V54.9365C16.2167 53.8976 17.0664 53.0442 18.1008 53.0442H22.4969C24.2332 52.97 25.5631 51.4859 25.4892 49.7421C25.4154 48.1096 24.1224 46.811 22.4969 46.7368H17.0295C16.6231 46.8481 16.1798 46.5513 16.1059 46.1432C15.9951 45.735 16.2906 45.2898 16.697 45.2156C16.7709 45.2156 16.8447 45.1785 16.9186 45.2156C16.9556 45.2156 16.9925 45.2156 17.0295 45.2156H29.1096C30.8459 45.1414 32.1758 43.6573 32.1019 41.9135C32.028 40.2068 30.7351 38.9082 29.1096 38.7969Z" fill="#F1F1F1"/>
<path d="M36.9804 60.7596C35.318 60.7596 33.9512 59.3868 33.9512 57.7172V41.9487C33.9512 40.279 35.318 38.9062 36.9804 38.9062C38.6428 38.9062 40.0097 40.279 40.0097 41.9487V52.6713C40.0097 53.7843 40.8963 54.6748 42.0046 54.6748H53.0134C54.6758 54.6748 56.0427 56.0476 56.0427 57.7172C56.0427 59.3868 54.6758 60.7596 53.0134 60.7596H36.9804Z" fill="#E63312"/>
<path d="M36.9799 39.0195C38.6054 39.0195 39.8984 40.3552 39.8984 41.9506V52.6732C39.8984 53.8234 40.8219 54.788 42.0041 54.788H53.0129C54.6384 54.788 55.9313 56.1237 55.9313 57.7191C55.9313 59.3516 54.6014 60.6502 53.0129 60.6502H36.9799C35.3914 60.6502 34.0615 59.3516 34.0615 57.7191V41.9506C34.0615 40.3181 35.3545 39.0195 36.9799 39.0195ZM36.9799 38.7969C35.2437 38.7969 33.8398 40.2068 33.8398 41.9506V57.7562C33.8398 59.5001 35.2437 60.9099 36.9799 60.9099H53.0129C54.7492 60.8357 56.0791 59.3516 56.0052 57.6078C55.9314 55.9753 54.6384 54.6767 53.0129 54.6025H42.0041C40.9697 54.6025 40.12 53.7492 40.12 52.7103V41.9506C40.0831 40.2068 38.6793 38.7969 36.9799 38.7969Z" fill="#F1F1F1"/>
<path d="M60.8066 60.7596C59.1442 60.7596 57.7773 59.3868 57.7773 57.7172V41.9487C57.7773 40.279 59.1442 38.9062 60.8066 38.9062H76.8396C78.502 38.9062 79.8688 40.279 79.8688 41.9487C79.8688 43.6183 78.502 44.9911 76.8396 44.9911H64.7594C64.2792 44.9911 63.8728 45.3992 63.8728 45.8815C63.8728 46.3638 64.2792 46.772 64.7594 46.772H70.2638C71.9263 46.772 73.2931 48.1448 73.2931 49.8144C73.2931 51.484 71.9263 52.8568 70.2638 52.8568H64.7594C64.2792 52.8568 63.8728 53.2649 63.8728 53.7472C63.8728 54.2296 64.2792 54.6377 64.7594 54.6377H76.8396C78.502 54.6377 79.8688 56.0105 79.8688 57.6801C79.8688 59.3497 78.502 60.7225 76.8396 60.7225L60.8066 60.7596Z" fill="#E63312"/>
<path d="M76.876 39.0195C78.5015 39.0195 79.7945 40.3552 79.7945 41.9506C79.7945 43.5831 78.4645 44.8817 76.876 44.8817H64.7959C64.2417 44.8817 63.7984 45.3269 63.7984 45.8834C63.7984 46.44 64.2417 46.8852 64.7959 46.8852H70.3003C71.9257 46.8852 73.2187 48.2209 73.2187 49.8163C73.2187 51.4488 71.8888 52.7474 70.3003 52.7474H64.7959C64.2417 52.7474 63.7984 53.1926 63.7984 53.7492C63.7984 54.3057 64.2417 54.7509 64.7959 54.7509H76.876C78.5015 54.7509 79.7945 56.0866 79.7945 57.682C79.7945 59.3145 78.4645 60.6131 76.876 60.6131H60.8431C59.2176 60.6131 57.9246 59.3145 57.9246 57.682V41.9506C57.9246 40.3181 59.2545 39.0195 60.8431 39.0195H76.876ZM76.8391 38.7969H60.8061C59.0698 38.7969 57.666 40.2068 57.666 41.9506V57.7562C57.666 59.5001 59.0698 60.9099 60.8061 60.9099H76.8391C78.5754 60.8357 79.9053 59.3516 79.8314 57.6078C79.7575 55.9753 78.4645 54.6767 76.8391 54.6025H64.7589C64.3156 54.6396 63.9462 54.3057 63.9093 53.8605C63.8723 53.4152 64.2048 53.0442 64.6481 53.0071H70.2633C71.9996 52.9329 73.3296 51.4488 73.2557 49.705C73.1818 48.0725 71.8888 46.7739 70.2633 46.6997H64.7589C64.3156 46.7368 63.9462 46.4029 63.9093 45.9577C63.8723 45.5124 64.2048 45.1414 64.6481 45.1043H76.8391C78.5754 45.0301 79.9053 43.546 79.8314 41.8022C79.7575 40.2068 78.4645 38.9082 76.8391 38.7969Z" fill="#F1F1F1"/>
<path d="M101.961 60.7576C101.185 60.7576 100.447 60.4608 99.8924 59.9414L93.9816 54.4873C93.8338 54.3389 93.6122 54.2647 93.3905 54.2647C93.1689 54.2647 92.9472 54.3389 92.7995 54.4873L86.8887 59.9414C85.6696 61.0916 83.7486 60.9803 82.6034 59.7559C81.4582 58.5315 81.569 56.6022 82.7881 55.452L88.1817 50.4803C88.5511 50.1463 88.5511 49.5898 88.2186 49.2188L88.1817 49.1446L82.7511 44.2099C81.4951 43.0969 81.3473 41.1675 82.4556 39.9061C83.5639 38.6446 85.4849 38.4962 86.7409 39.6092L86.8517 39.7205L92.7625 45.1746C92.9103 45.323 93.1319 45.3972 93.3536 45.3972C93.5752 45.3972 93.7969 45.323 93.9447 45.1746L99.8554 39.7205C101.075 38.5704 102.996 38.6817 104.141 39.9061C105.286 41.1304 105.175 43.0598 103.956 44.2099L98.5625 49.1817C98.193 49.5156 98.193 50.0721 98.5255 50.4432L98.5625 50.5174L103.956 55.4891C105.175 56.6393 105.286 58.5686 104.141 59.793C103.55 60.4237 102.737 60.7947 101.887 60.7947H101.961V60.7576Z" fill="#E63312"/>
<path d="M101.961 39.0165C103.586 39.0165 104.879 40.3522 104.879 41.9476C104.879 42.7639 104.547 43.543 103.919 44.1367L98.4884 49.1084C98.0821 49.4794 98.0451 50.1101 98.4145 50.5183L98.4884 50.5925L103.919 55.5642C105.101 56.6773 105.138 58.5695 104.03 59.7197C102.958 60.8699 101.148 60.9441 99.9661 59.9052L94.0553 54.4511C93.6859 54.0801 93.0948 54.0801 92.7254 54.4511L86.8147 59.9052C85.6325 61.0183 83.7854 60.907 82.6771 59.7197C81.5688 58.5324 81.6797 56.6773 82.8618 55.5642L88.2554 50.5925C88.4401 50.407 88.5509 50.1473 88.5879 49.8875C88.5879 49.6278 88.514 49.3681 88.3293 49.1826L88.2554 49.1084L82.8249 44.0995C81.6427 42.9865 81.5319 41.1314 82.6402 39.9441C83.7484 38.7568 85.5956 38.6455 86.7777 39.7586L92.6885 45.2126C93.0579 45.5836 93.649 45.5836 94.0184 45.2126L99.9292 39.7586C100.483 39.2762 101.185 38.9794 101.924 38.9794M101.924 38.7939C101.148 38.7939 100.372 39.0907 99.8183 39.6101L93.9076 45.0642C93.7598 45.2126 93.5751 45.2868 93.3904 45.2868C93.2057 45.2868 93.021 45.2126 92.8732 45.0642L86.9624 39.6101C85.6694 38.4229 83.7115 38.5342 82.5293 39.7957C81.3472 41.0571 81.458 43.0607 82.7141 44.248L88.1446 49.2197L88.1815 49.2568C88.4771 49.5907 88.4401 50.073 88.1446 50.3699L82.7141 55.3416C81.4211 56.5289 81.3472 58.5324 82.4924 59.7939C83.6746 61.0925 85.6694 61.1667 86.9255 60.0165L92.8363 54.5624C92.984 54.414 93.1687 54.3398 93.3534 54.3398C93.5382 54.3398 93.7229 54.414 93.8706 54.5624L99.7814 60.0165C101.074 61.2038 103.032 61.0925 104.214 59.831C105.397 58.5324 105.286 56.566 104.03 55.3787L98.6362 50.407L98.5992 50.3699C98.3037 50.0359 98.3407 49.5536 98.6362 49.2568L104.067 44.2851C105.36 43.0978 105.434 41.1314 104.251 39.8328C103.66 39.202 102.811 38.7939 101.961 38.7939H101.924Z" fill="#F1F1F1"/>
<path d="M109.867 60.7596C108.205 60.7596 106.838 59.4239 106.838 57.7172V41.9487C106.838 40.279 108.205 38.9062 109.867 38.9062H125.9C127.563 38.9062 128.929 40.279 128.929 41.9487C128.929 43.6183 127.563 44.9911 125.9 44.9911H113.82C113.34 44.9911 112.933 45.3992 112.933 45.8815C112.933 46.3638 113.34 46.772 113.82 46.772H119.324C120.987 46.772 122.354 48.1448 122.354 49.8144C122.354 51.484 120.987 52.8568 119.324 52.8568H114.891C113.783 52.8568 112.896 53.7472 112.896 54.8603V57.7172C112.896 59.4239 111.53 60.7596 109.867 60.7596Z" fill="#E63312"/>
<path d="M125.9 39.0195C127.526 39.0195 128.819 40.3552 128.819 41.9506C128.819 43.5831 127.489 44.8817 125.9 44.8817H113.82C113.266 44.8817 112.823 45.3269 112.823 45.8834C112.823 46.44 113.266 46.8852 113.82 46.8852H119.325C120.95 46.8852 122.243 48.2209 122.243 49.8163C122.243 51.4488 120.913 52.7474 119.325 52.7474H114.892C113.746 52.7474 112.786 53.675 112.786 54.8622V57.7191C112.86 59.3516 111.604 60.7244 109.978 60.7615C108.353 60.8357 106.986 59.5743 106.949 57.9418C106.949 57.9418 106.949 57.9418 106.949 57.9046C106.949 57.8304 106.949 57.7562 106.949 57.682V41.9506C106.949 40.3181 108.279 39.0195 109.867 39.0195H125.9ZM125.9 38.7969H109.904C108.168 38.7969 106.764 40.2068 106.764 41.9506V57.7562C106.653 59.5001 107.983 60.9842 109.72 61.0955C111.456 61.2068 112.934 59.8711 113.044 58.1273V58.0902C113.044 57.9789 113.044 57.8675 113.044 57.7933V54.9365C113.044 53.8976 113.894 53.0442 114.929 53.0442H119.362C121.098 52.97 122.428 51.4859 122.354 49.7421C122.28 48.1096 120.987 46.811 119.362 46.7368H113.857C113.414 46.7739 113.044 46.44 113.008 45.9948C112.971 45.5495 113.303 45.1785 113.746 45.1414C113.783 45.1414 113.82 45.1414 113.857 45.1414H125.937C127.674 45.0672 129.004 43.5831 128.93 41.8393C128.819 40.1697 127.526 38.8711 125.9 38.7969Z" fill="#F1F1F1"/>
<path d="M139.974 60.7576C133.953 60.7576 129.076 55.8601 129.076 49.8124C129.076 43.7647 133.953 38.8672 139.974 38.8672H144.666C150.687 38.8672 155.564 43.7647 155.564 49.8124C155.564 55.8601 150.687 60.7576 144.666 60.7576H139.974Z" fill="#E63312"/>
<path d="M144.629 39.0195C150.577 39.0195 155.416 43.8799 155.416 49.8534C155.416 55.8269 150.577 60.6873 144.629 60.6873H139.937C133.99 60.6873 129.15 55.8269 129.15 49.8534C129.15 43.8799 133.99 39.0195 139.974 39.0195H144.629ZM144.629 38.7969H139.937C133.879 38.9082 129.039 43.9541 129.15 50.0389C129.261 55.9753 134.027 60.7615 139.937 60.8728H144.629C150.688 60.7615 155.527 55.7156 155.416 49.6308C155.342 43.6944 150.54 38.9082 144.629 38.7969Z" fill="#F1F1F1"/>
<path d="M141.008 54.4553C138.459 54.4553 136.391 52.3776 136.391 49.8175C136.391 47.2574 138.459 45.1797 141.008 45.1797H143.594C146.143 45.1797 148.212 47.2574 148.212 49.8175C148.212 52.3776 146.143 54.4553 143.594 54.4553H141.008Z" fill="#F1F1F1"/>
<path d="M143.595 45.3261C146.07 45.3261 148.102 47.3668 148.102 49.8526C148.102 52.3385 146.07 54.3791 143.595 54.3791H141.009C138.534 54.3791 136.502 52.3385 136.502 49.8526C136.502 47.3668 138.534 45.3261 141.009 45.3261H143.595ZM143.595 45.1035H141.009C138.423 45.0293 136.244 47.07 136.133 49.6671C136.059 52.2643 138.091 54.4533 140.677 54.5647H140.714H143.558C146.144 54.4904 148.213 52.3014 148.139 49.7042C148.102 47.1813 146.107 45.1777 143.595 45.1035Z" fill="#F1F1F1"/>
<path d="M204.734 60.7596C203.071 60.7596 201.741 59.3868 201.704 57.7172V52.7826C201.704 52.3002 201.298 51.8921 200.818 51.8921C200.596 51.8921 200.411 51.9663 200.227 52.1147L194.279 57.5688L188.331 52.1147C187.962 51.7808 187.408 51.8179 187.075 52.1889C186.927 52.3373 186.853 52.56 186.853 52.7826V57.7543C186.853 59.4239 185.487 60.7967 183.824 60.7967C182.162 60.7967 180.795 59.4239 180.795 57.7543V41.9487C180.795 40.279 182.162 38.9062 183.824 38.9062C184.6 38.9062 185.302 39.2031 185.856 39.7225L194.279 47.4769L202.702 39.7225C203.921 38.5723 205.842 38.6836 206.987 39.908C207.504 40.4646 207.8 41.2066 207.8 41.9487V57.7543C207.763 59.4239 206.396 60.7967 204.734 60.7596C204.734 60.7967 204.734 60.7967 204.734 60.7596Z" fill="#E63312"/>
<path d="M183.787 39.0195C184.526 39.0195 185.228 39.2792 185.782 39.7986L194.131 47.4789L194.279 47.5902L194.427 47.4789L202.776 39.7986C203.958 38.6856 205.805 38.7598 206.913 39.9842C207.43 40.5407 207.689 41.2456 207.689 41.9877V57.7933C207.689 59.4258 206.359 60.7244 204.77 60.7244C203.182 60.7244 201.852 59.3887 201.852 57.7933V52.7845C201.852 52.228 201.409 51.7827 200.855 51.7827C200.596 51.7827 200.374 51.8569 200.19 52.0425L194.316 57.4594L188.442 52.0425C188.036 51.6714 187.408 51.7085 187.038 52.1167C186.853 52.3022 186.78 52.5248 186.78 52.7845V57.7191C186.853 59.3516 185.597 60.7244 183.972 60.7615C182.346 60.8357 180.98 59.5743 180.943 57.9418C180.943 57.9418 180.943 57.9418 180.943 57.9046C180.943 57.8304 180.943 57.7562 180.943 57.682V41.9506C180.832 40.3181 182.162 39.0195 183.787 39.0195ZM183.787 38.7969C182.051 38.7969 180.647 40.2068 180.647 41.9506V57.7562C180.536 59.5001 181.866 60.9842 183.602 61.0955C185.339 61.2068 186.816 59.8711 186.927 58.1273V58.0902C186.927 57.9789 186.927 57.8675 186.927 57.7933V52.7845C186.927 52.3393 187.297 52.0054 187.703 52.0054C187.888 52.0054 188.072 52.0796 188.22 52.228L194.242 57.7933L200.263 52.2651C200.596 51.9683 201.076 52.0054 201.372 52.3022C201.519 52.4506 201.593 52.6361 201.593 52.8216V57.7562C201.593 59.5001 202.997 60.91 204.733 60.91C206.47 60.91 207.874 59.5001 207.874 57.7562V41.9506C207.874 40.2068 206.47 38.7969 204.733 38.7969C203.958 38.7969 203.182 39.0937 202.628 39.6131L194.279 47.2933L185.93 39.6131C185.302 39.0937 184.563 38.7969 183.787 38.7969Z" fill="#F1F1F1"/>
<path d="M141.01 52.8973C139.347 52.8973 137.98 51.5245 137.98 49.8549C137.98 48.1853 139.347 46.8125 141.01 46.8125H143.596C145.258 46.8125 146.625 48.1853 146.625 49.8549C146.625 51.5245 145.258 52.8973 143.596 52.8973H141.01Z" fill="#E63312"/>
<path d="M143.596 46.8838C145.221 46.8838 146.514 48.2195 146.514 49.8149C146.514 51.4474 145.184 52.746 143.596 52.746H141.01C139.384 52.746 138.091 51.4103 138.091 49.8149C138.091 48.2195 139.421 46.8838 141.01 46.8838H143.596ZM143.596 46.6983H141.01C139.273 46.6241 137.796 47.9597 137.722 49.7036C137.648 51.4474 138.978 52.8944 140.677 53.0057C140.788 53.0057 140.862 53.0057 140.973 53.0057H143.559C145.295 52.9315 146.625 51.4474 146.551 49.7036C146.514 48.0711 145.221 46.7725 143.596 46.6983Z" fill="#F1F1F1"/>
<path d="M164.764 45.1016H170.416C170.896 45.1016 171.302 45.5097 171.302 45.992C171.302 46.4744 170.896 46.8825 170.416 46.8825H164.764C164.283 46.8825 163.877 46.4744 163.877 45.992C163.877 45.5097 164.283 45.1016 164.764 45.1016Z" fill="#F1F1F1"/>
<path d="M10.2693 79.4609L13.3355 87.6606L16.4017 79.4609H18.175V89.2189H16.9559V81.0934H16.9189L13.8897 89.2189H12.7814L9.75213 81.0934H9.71519V89.2189H8.49609V79.4609H10.2693Z" fill="#E63312"/>
<path d="M24.8261 79.4609L28.6311 89.2189H27.1904L26.119 86.2878H22.0184L20.9102 89.2189H19.6172L23.3853 79.4609H24.8261ZM25.7496 85.2118L24.1242 80.6482H24.0872L22.4248 85.2118H25.7496Z" fill="#E63312"/>
<path d="M33.3211 79.4609C34.8357 79.4609 35.9809 79.832 36.7936 80.6111C37.6064 81.3903 38.0127 82.5404 38.0127 84.0987C38.0127 84.8408 37.9389 85.5828 37.7541 86.2878C37.6064 86.8814 37.3108 87.438 36.9045 87.8832C36.4981 88.3284 36.0179 88.6623 35.4637 88.885C34.7988 89.1447 34.0969 89.256 33.358 89.2189H30.0332V79.4609H33.3211ZM33.4319 88.1429C33.5797 88.1429 33.7644 88.1429 33.986 88.1058C34.2077 88.0687 34.4663 88.0316 34.6879 87.9574C34.9465 87.8832 35.2051 87.7348 35.4268 87.5864C35.6854 87.4009 35.907 87.1783 36.0917 86.9185C36.3134 86.5846 36.4612 86.2507 36.572 85.8426C36.7198 85.3231 36.7567 84.8037 36.7567 84.3214C36.7567 83.8019 36.7198 83.2825 36.572 82.7631C36.4612 82.3178 36.2765 81.9468 36.0179 81.5758C35.7593 81.2419 35.4268 80.9821 35.0204 80.8337C34.5402 80.6482 34.023 80.574 33.5058 80.574H31.3262V88.1429H33.4319Z" fill="#E63312"/>
<path d="M46.6942 79.4609V80.5369H41.2637V83.6535H46.3248V84.7295H41.2637V88.1058H46.7311V89.2189H39.9707V79.4609H46.6942Z" fill="#E63312"/>
<path d="M54.3047 79.4609V89.2189H53.0117V79.4609H54.3047Z" fill="#E63312"/>
<path d="M58.2206 79.4609L63.3555 87.3638H63.3925V79.4609H64.6485V89.2189H63.2447L58.1467 81.3903H58.1097V89.2189H56.8906V79.4609H58.2206Z" fill="#E63312"/>
<path d="M72.7031 79.4609V89.2189H71.4102V79.4609H72.7031Z" fill="#E63312"/>
<path d="M74.2539 80.574V79.4609H82.0118V80.5369H78.7609V89.2189H77.4679V80.574H74.2539Z" fill="#E63312"/>
<path d="M86.3339 79.4609L90.1389 89.2189H88.6982L87.6268 86.2878H83.5263L82.418 89.2189H81.125L84.8931 79.4609H86.3339ZM87.2574 85.2118L85.632 80.6482H85.595L83.9326 85.2118H87.2574Z" fill="#E63312"/>
<path d="M92.7988 79.4609V88.1429H97.9338V89.256H91.5059V79.4609H92.7988Z" fill="#E63312"/>
<path d="M101.997 89.2189H100.704V85.2118L96.9727 79.4609H98.5242L101.443 84.0987L104.287 79.4609H105.765L102.034 85.2489L101.997 89.2189Z" fill="#E63312"/>
</svg>
