<svg width="260" height="120" viewBox="0 0 260 120" fill="none" xmlns="http://www.w3.org/2000/svg">
<rect width="260" height="120" fill="#F1F1F1"/>
<g clip-path="url(#clip0_963_91664)">
<path d="M34.0604 74.8104L17.2035 52.6038V74.5938H15V48.4062H18.9663L33.6197 67.7422V48.4062H35.8507V74.8104H34.0604ZM41.7451 61.7844C41.7451 54.4995 46.2623 48 54.0573 48C61.8522 48 66.3694 54.4995 66.3694 61.7844C66.3694 69.0963 61.8522 75 54.0573 75C46.2623 75 41.7451 69.0963 41.7451 61.7844ZM62.045 61.7844C62.045 53.1725 58.6846 49.9769 54.0573 49.9769C49.4299 49.9769 46.0695 53.1454 46.0695 61.7844C46.0695 70.6399 49.4299 73.0231 54.0573 73.0231C58.6846 73.0231 62.045 70.6399 62.045 61.7844ZM79.4803 74.8104L68.4627 48.4062H72.9524L81.3257 68.9067L89.6991 48.4062H92.0128L80.8575 74.8104H79.4803ZM105.509 66.6319H95.4833L92.2606 74.6209H89.8092L100.799 48.2167H102.176L113.332 74.6209H108.842L105.509 66.6319ZM100.441 54.3099L96.3096 64.6279H104.71L100.441 54.3099ZM129.638 74.8104L121.099 53.8495V74.6209H118.896V48.4062H123.413L131.401 68.5817L140.242 48.4062H144.456V74.6209H140.38V53.3892L131.015 74.7834H129.638V74.8104ZM150.351 61.7844C150.351 54.4995 154.868 48 162.663 48C170.458 48 174.975 54.4995 174.975 61.7844C174.975 69.0963 170.458 75 162.663 75C154.868 75 150.351 69.0963 150.351 61.7844ZM170.651 61.7844C170.651 53.1725 167.29 49.9769 162.663 49.9769C158.008 49.9769 154.675 53.1454 154.675 61.7844C154.675 70.6399 158.035 73.0231 162.663 73.0231C167.318 73.0231 170.651 70.6399 170.651 61.7844ZM180.704 48.4062H188.582C194.449 48.4062 198.002 51.2227 198.002 54.5266C198.002 57.3159 196.514 59.4824 193.843 60.674C197.754 61.6219 200.012 64.33 200.012 67.661C200.012 71.0461 196.735 74.6209 190.592 74.6209H180.704V48.4062ZM184.753 50.3831V60.322H189.711C191.694 60.322 193.677 59.1575 193.677 55.0682C193.677 51.1685 191.419 50.3831 188.582 50.3831H184.753ZM184.753 62.326V72.8064H190.62C193.457 72.8064 195.716 71.6419 195.716 67.7151C195.716 63.4634 193.457 62.326 190.62 62.326H184.753ZM209.625 74.5938H205.549V48.4062H209.625V74.5938ZM217.585 48.4062H221.662V72.6169H233.699V74.5938H217.585V48.4062ZM244 74.5938H239.924V48.4062H244V74.5938Z" fill="#1D1D1B"/>
</g>
<defs>
<clipPath id="clip0_963_91664">
<rect width="260" height="63" fill="white" transform="translate(0 29)"/>
</clipPath>
</defs>
</svg>
