<svg width="260" height="120" viewBox="0 0 260 120" fill="none" xmlns="http://www.w3.org/2000/svg">
<rect width="260" height="120" fill="#F1F1F1"/>
<g clip-path="url(#clip0_963_91792)">
<path d="M112.519 68.3286C114.172 68.3286 115.493 67.0021 115.493 65.3076C115.496 64.9134 115.42 64.5227 115.272 64.1577C115.124 63.7926 114.905 63.4605 114.629 63.1802C114.353 62.8999 114.025 62.6769 113.663 62.524C113.301 62.3711 112.912 62.2913 112.519 62.2891C110.865 62.2891 109.512 63.6495 109.512 65.3076C109.512 66.9997 110.833 68.3286 112.519 68.3286Z" fill="black"/>
<path d="M138.928 69.7192C137.872 69.7192 137.044 70.3171 136.451 71.3774C135.395 70.1162 134.073 69.5207 132.286 69.5207C130.018 69.5207 127.954 70.5592 126.475 72.2803C126.352 70.9901 125.195 70.184 123.226 70.184H122.763V67.894C122.763 65.3402 121.936 64.0791 120.185 64.0791C118.4 64.0791 117.573 65.3402 117.573 67.894V70.184C116.169 70.2518 115.243 70.6415 114.782 71.3193C114.399 70.2493 113.656 69.7192 112.517 69.7192C110.733 69.7192 109.905 70.9465 109.905 73.5003V84.0156C109.905 86.5694 110.733 87.8306 112.517 87.8306C114.302 87.8306 115.093 86.5694 115.093 84.0156V74.0304C115.597 74.4879 116.369 74.7614 117.375 74.7614H117.575V84.018C117.575 86.5718 118.402 87.833 120.187 87.833C121.972 87.833 122.766 86.5718 122.766 84.018V74.7614H123.195C123.964 74.7614 124.592 74.6598 125.091 74.4734C124.488 75.8262 124.179 77.2928 124.186 78.7749C124.186 84.2504 127.824 87.9976 132.085 87.9976C133.87 87.9976 135.392 87.3004 136.451 86.0078C137.011 87.269 137.773 87.8306 138.928 87.8306C140.682 87.8306 141.506 86.5694 141.506 84.0156V73.5003C141.506 70.9465 140.713 69.7192 138.928 69.7192ZM132.944 82.9892C131.027 82.9892 129.575 81.365 129.575 78.7095C129.575 76.1218 131.06 74.5291 132.944 74.5291C134.828 74.5291 136.285 76.1533 136.285 78.7095C136.285 81.2996 134.862 82.9892 132.944 82.9892ZM145.573 62.2878C143.788 62.2878 142.961 63.549 142.961 66.1027V84.018C142.961 86.5718 143.788 87.833 145.573 87.833C147.358 87.833 148.151 86.5718 148.151 84.018V66.1027C148.151 63.549 147.324 62.2878 145.573 62.2878ZM152.348 69.7192C150.563 69.7192 149.736 70.9465 149.736 73.5003V84.0156C149.736 86.5694 150.563 87.8306 152.348 87.8306C154.133 87.8306 154.924 86.5694 154.924 84.0156V73.5003C154.924 70.9465 154.102 69.7192 152.348 69.7192ZM152.348 68.3273C152.742 68.3283 153.132 68.2506 153.496 68.0987C153.859 67.9468 154.189 67.7237 154.466 67.4425C154.743 67.1613 154.961 66.8276 155.108 66.4608C155.255 66.0941 155.328 65.7016 155.322 65.3063C155.322 63.6482 154 62.2878 152.348 62.2878C150.696 62.2878 149.34 63.6482 149.34 65.3063C149.34 66.9984 150.662 68.3273 152.348 68.3273ZM170.066 69.7192C169.01 69.7192 168.183 70.3171 167.587 71.3774C166.53 70.1162 165.209 69.5207 163.421 69.5207C158.993 69.5207 155.325 73.4688 155.325 78.7749C155.325 84.2504 158.962 87.9976 163.224 87.9976C165.008 87.9976 166.528 87.3004 167.587 86.0078C168.149 87.269 168.911 87.8306 170.066 87.8306C171.82 87.8306 172.645 86.5694 172.645 84.0156V73.5003C172.645 70.9465 171.851 69.7192 170.066 69.7192ZM164.082 82.9892C162.165 82.9892 160.71 81.365 160.71 78.7095C160.71 76.1218 162.199 74.5291 164.082 74.5291C165.966 74.5291 167.42 76.1533 167.42 78.7095C167.42 81.2996 166 82.9892 164.082 82.9892ZM133.805 41.1651C132.582 41.1543 131.371 41.4097 130.255 41.9137C129.14 42.4176 128.146 43.1582 127.344 44.0845C127.271 42.7386 126.101 41.8938 124.085 41.8938H123.624V39.6062C123.624 37.0524 122.797 35.7913 121.046 35.7913C119.261 35.7913 118.434 37.0524 118.434 39.6062V41.8938C117.877 41.9204 117.397 42.0003 116.987 42.1261C116.472 41.965 115.934 41.8865 115.395 41.8938H114.932V39.6062C114.932 37.0524 114.104 35.7913 112.353 35.7913C110.569 35.7913 109.744 37.0524 109.744 39.6062V41.8938C108.441 41.9567 107.539 42.2907 107.047 42.8814C106.656 41.9059 105.93 41.429 104.818 41.429C103.762 41.429 102.935 42.0269 102.339 43.0896C101.283 41.8284 99.9608 41.2305 98.1735 41.2305C93.7428 41.2305 90.0766 45.1786 90.0766 50.4871C90.0766 52.0678 90.3878 53.4984 90.9208 54.7426C90.7421 54.512 90.5131 54.3255 90.2513 54.1975C89.9896 54.0695 89.7021 54.0034 89.411 54.0043C88.5523 54.0043 87.3608 54.8007 85.8413 54.8007C83.4607 54.8007 82.0401 53.1087 82.0401 50.3878C82.0401 47.7009 83.5258 45.9774 85.6411 45.9774C87.1293 45.9774 88.3521 46.7738 89.3097 46.7738C90.5663 46.7738 91.4587 45.8128 91.4587 44.5516C91.4587 42.5933 89.1456 41.2015 85.6411 41.2015C80.1901 41.199 76.6855 45.0818 76.6855 50.4895C76.6855 56.0304 80.2239 59.7461 85.3131 59.7461C88.9503 59.7461 91.4273 58.0855 91.4273 56.2628C91.4273 56.0304 91.3887 55.8125 91.3357 55.5995C92.7587 58.1582 95.2334 59.7122 97.9733 59.7122C99.7582 59.7122 101.278 59.0151 102.337 57.7224C102.899 58.9836 103.661 59.5452 104.816 59.5452C106.57 59.5452 107.394 58.284 107.394 55.7302V45.8661C107.896 46.2534 108.627 46.4712 109.543 46.4712H109.744V55.7278C109.744 58.2816 110.569 59.5428 112.353 59.5428C114.138 59.5428 114.932 58.2816 114.932 55.7278V46.4736H115.361C115.974 46.4736 116.492 46.4083 116.934 46.2897C117.312 46.4083 117.744 46.4736 118.238 46.4736H118.436V55.7302C118.436 58.284 119.264 59.5452 121.048 59.5452C122.833 59.5452 123.627 58.284 123.627 55.7302V46.4736H124.056C124.847 46.4736 125.486 46.3696 125.993 46.1711C125.362 47.5332 125.039 49.0187 125.047 50.521C125.047 55.8634 128.948 59.7776 134.07 59.7776C138.6 59.7776 141.904 57.4562 141.904 55.3986C141.904 54.2028 141.077 53.3749 139.823 53.3749C138.634 53.3749 136.948 55.067 134.336 55.067C132.088 55.067 130.636 53.9075 130.404 51.9492H139.724C141.478 51.9492 142.302 51.6175 142.302 49.8263C142.3 45.1471 138.795 41.1651 133.805 41.1651ZM98.8344 54.7015C96.9169 54.7015 95.4625 53.0748 95.4625 50.4193C95.4625 47.8316 96.9507 46.2388 98.8344 46.2388C100.718 46.2388 102.173 47.8655 102.173 50.4193C102.17 53.0094 100.752 54.7015 98.8344 54.7015ZM130.332 48.5312C130.696 46.6068 132.085 45.411 133.837 45.411C135.588 45.411 137.076 46.706 137.208 48.5312H130.332ZM145.042 59.5452C146.827 59.5452 147.621 58.284 147.621 55.7302V37.815C147.621 35.2612 146.793 34 145.042 34C143.26 34 142.433 35.2612 142.433 37.815V55.7302C142.433 58.284 143.26 59.5452 145.042 59.5452ZM155.92 59.7122C157.703 59.7122 159.225 59.0151 160.283 57.7224C160.845 58.9836 161.605 59.5452 162.761 59.5452C164.514 59.5452 165.339 58.284 165.339 55.7302V45.2125C165.339 42.6587 164.545 41.4314 162.761 41.4314C161.704 41.4314 160.879 42.0293 160.283 43.092C159.227 41.8308 157.903 41.2329 156.118 41.2329C151.687 41.2329 148.019 45.181 148.019 50.4895C148.016 55.9626 151.654 59.7122 155.92 59.7122ZM156.776 46.2413C158.66 46.2413 160.117 47.8679 160.117 50.4217C160.117 53.0094 158.694 54.7039 156.776 54.7039C154.859 54.7039 153.407 53.0772 153.407 50.4217C153.407 47.8341 154.893 46.2413 156.776 46.2413ZM176.313 41.3322C174.297 41.3322 172.876 41.8308 171.718 43.092C171.091 41.964 170.264 41.4314 169.241 41.4314C167.457 41.4314 166.629 42.6587 166.629 45.2125V55.7302C166.629 58.284 167.457 59.5452 169.241 59.5452C171.026 59.5452 171.851 58.284 171.851 55.7302V49.7585C171.851 47.1369 172.645 45.7765 174.627 45.7765C176.745 45.7765 177.437 47.0715 177.437 49.8238V55.7278C177.437 58.2816 178.264 59.5428 180.049 59.5428C181.834 59.5428 182.661 58.2816 182.661 55.7278V48.231C182.661 43.6875 180.377 41.3322 176.313 41.3322Z" fill="black"/>
</g>
<defs>
<clipPath id="clip0_963_91792">
<rect width="106" height="54" fill="white" transform="translate(76.6758 34)"/>
</clipPath>
</defs>
</svg>
