<svg width="32" height="32" fill="none" xmlns="http://www.w3.org/2000/svg"><path fill="#fff" d="M0 0h32v32H0z"/><g clip-path="url(#a)"><path d="M20.7 21.875C22.694 18.932 26.433 8.38 12.395 5a10.245 10.245 0 0 1 4.034 4.864c.527 1.306.79 2.725.79 4.259 0 1.515-.263 2.93-.79 4.246a10.207 10.207 0 0 1-2.227 3.423c-.468.473-1.303 1.122-1.523 1.27 5.063-2.291 7.62-3.81 8.021-1.187Z" fill="#EA0029"/><path d="M6.102 26.966c6.102-5.344 10.503.228 19.558-6.56-2.598 3.372-4.757 3.967-5.825 6.594-5.309-.833-8.777-1.526-13.733-.034Z" fill="#00604B"/></g><defs><clipPath id="a"><path fill="#fff" transform="translate(5 5)" d="M0 0h22v22H0z"/></clipPath></defs></svg>