<svg width="32" height="32" viewBox="0 0 32 32" fill="none" xmlns="http://www.w3.org/2000/svg">
<rect width="32" height="32" fill="white"/>
<g clip-path="url(#clip0_1001_186090)">
<path d="M20.7001 21.8749C22.6938 18.9323 26.4328 8.37964 12.3945 5C13.0513 5.41631 13.6538 5.90244 14.202 6.4558C15.1587 7.42289 15.9009 8.55806 16.4284 9.86389C16.9559 11.1697 17.2196 12.5893 17.2196 14.1227C17.2196 15.638 16.9559 17.0524 16.4284 18.3686C15.9009 19.6848 15.1587 20.8251 14.202 21.7922C13.734 22.2654 12.8988 22.9144 12.679 23.0618C17.742 20.7708 20.2993 19.2529 20.7001 21.8749Z" fill="#EA0029"/>
<path d="M6.10156 26.9664C12.204 21.6216 16.6051 27.194 25.6605 20.4062C23.0618 23.7781 20.9027 24.3729 19.8347 27C14.5261 26.1674 11.0585 25.4744 6.10156 26.9664Z" fill="#00604B"/>
</g>
<defs>
<clipPath id="clip0_1001_186090">
<rect width="22" height="22" fill="white" transform="translate(5 5)"/>
</clipPath>
</defs>
</svg>
