<svg width="98" height="27" viewBox="0 0 98 27" xmlns="http://www.w3.org/2000/svg">
<path fill-rule="evenodd" clip-rule="evenodd" d="M5.81475 2.19531H8.72267V5.1032H5.81475V2.19531ZM5.81475 7.68983V10.5956H2.90895V16.4114H5.81475V18.9964V21.9041H8.72267V18.9964H22.9403V21.9033H17.4477V24.8112H22.9403V21.9041H25.8483V16.4114H28.754V10.5956H25.8483H25.8469V7.68983H22.9424V5.10426H20.0346V7.68983H11.6284V5.10426H8.72057V7.68983H5.81475ZM22.9403 13.5014V10.5977H20.03V13.5014H22.9403ZM11.6295 10.5977V13.5014H8.72267V10.5977H11.6295ZM2.90789 13.5014H0V21.902H2.90789V13.5014ZM14.2167 24.8112V21.9033H8.72397V24.8112H14.2167ZM25.8483 2.19531H22.9403V5.1032H25.8483V2.19531ZM31.6661 13.5014H28.7583V21.902H31.6661V13.5014Z"/>
<path d="M55.1186 13.3636C55.1186 14.9744 54.8278 16.3665 54.2461 17.5398C53.6644 18.7131 52.8665 19.6179 51.8523 20.2543C50.8381 20.8906 49.6797 21.2088 48.3771 21.2088C47.0746 21.2088 45.9162 20.8906 44.902 20.2543C43.8878 19.6179 43.0898 18.7131 42.5082 17.5398C41.9265 16.3665 41.6357 14.9744 41.6357 13.3636C41.6357 11.7528 41.9265 10.3608 42.5082 9.1875C43.0898 8.0142 43.8878 7.10937 44.902 6.47301C45.9162 5.83665 47.0746 5.51847 48.3771 5.51847C49.6797 5.51847 50.8381 5.83665 51.8523 6.47301C52.8665 7.10937 53.6644 8.0142 54.2461 9.1875C54.8278 10.3608 55.1186 11.7528 55.1186 13.3636ZM53.3288 13.3636C53.3288 12.0412 53.1076 10.9251 52.6651 10.0153C52.2276 9.10547 51.6335 8.4169 50.8828 7.94957C50.1371 7.48224 49.3018 7.24858 48.3771 7.24858C47.4524 7.24858 46.6147 7.48224 45.864 7.94957C45.1183 8.4169 44.5241 9.10547 44.0817 10.0153C43.6442 10.9251 43.4254 12.0412 43.4254 13.3636C43.4254 14.6861 43.6442 15.8022 44.0817 16.712C44.5241 17.6218 45.1183 18.3104 45.864 18.7777C46.6147 19.245 47.4524 19.4787 48.3771 19.4787C49.3018 19.4787 50.1371 19.245 50.8828 18.7777C51.6335 18.3104 52.2276 17.6218 52.6651 16.712C53.1076 15.8022 53.3288 14.6861 53.3288 13.3636ZM58.2283 5.72727H60.4357L65.6261 18.4048H65.805L70.9954 5.72727H73.2028V21H71.4727V9.39631H71.3235L66.5508 21H64.8803L60.1076 9.39631H59.9585V21H58.2283V5.72727ZM89.0218 5.72727V21H87.232L78.9095 9.00852H78.7604V21H76.911V5.72727H78.7007L87.053 17.7486H87.2021V5.72727H89.0218ZM94.5719 5.72727V21H92.7225V5.72727H94.5719Z"/>
</svg>
