<svg width="70" height="19" viewBox="0 0 70 19" xmlns="http://www.w3.org/2000/svg">
<path fill-rule="evenodd" clip-rule="evenodd" d="M5.03945 0H7.55965V2.44302H5.03945V0ZM5.03945 4.61614V7.05741H2.52109V11.9435H5.03945V14.1152V16.558H7.55965V14.1152H19.8816V16.5574H15.1213V19.0004H19.8816V16.558H22.4018V11.9435H24.9201V7.05741H22.4018H22.4006V4.61614H19.8834V2.44392H17.3633V4.61614H10.078V2.44392H7.55783V4.61614H5.03945ZM19.8816 9.49864V7.05918H17.3594V9.49864H19.8816ZM10.0789 7.05918V9.49864H7.55965V7.05918H10.0789ZM2.52017 9.49864H0V16.5563H2.52017V9.49864ZM12.3211 19.0004V16.5574H7.56077V19.0004H12.3211ZM22.4018 0H19.8816V2.44302H22.4018V0ZM27.444 9.49864H24.9238V16.5563H27.444V9.49864Z"/>
<path d="M44.4986 9.13636C44.4986 10.0568 44.3324 10.8523 44 11.5227C43.6676 12.1932 43.2116 12.7102 42.6321 13.0739C42.0526 13.4375 41.3906 13.6193 40.6463 13.6193C39.902 13.6193 39.2401 13.4375 38.6605 13.0739C38.081 12.7102 37.625 12.1932 37.2926 11.5227C36.9602 10.8523 36.794 10.0568 36.794 9.13636C36.794 8.21591 36.9602 7.42045 37.2926 6.75C37.625 6.07955 38.081 5.5625 38.6605 5.19886C39.2401 4.83523 39.902 4.65341 40.6463 4.65341C41.3906 4.65341 42.0526 4.83523 42.6321 5.19886C43.2116 5.5625 43.6676 6.07955 44 6.75C44.3324 7.42045 44.4986 8.21591 44.4986 9.13636ZM43.4759 9.13636C43.4759 8.38068 43.3494 7.7429 43.0966 7.22301C42.8466 6.70312 42.5071 6.30966 42.0781 6.04261C41.652 5.77557 41.1747 5.64205 40.6463 5.64205C40.1179 5.64205 39.6392 5.77557 39.2102 6.04261C38.7841 6.30966 38.4446 6.70312 38.1918 7.22301C37.9418 7.7429 37.8168 8.38068 37.8168 9.13636C37.8168 9.89205 37.9418 10.5298 38.1918 11.0497C38.4446 11.5696 38.7841 11.9631 39.2102 12.2301C39.6392 12.4972 40.1179 12.6307 40.6463 12.6307C41.1747 12.6307 41.652 12.4972 42.0781 12.2301C42.5071 11.9631 42.8466 11.5696 43.0966 11.0497C43.3494 10.5298 43.4759 9.89205 43.4759 9.13636ZM46.2756 4.77273H47.5369L50.5028 12.017H50.6051L53.571 4.77273H54.8324V13.5H53.8438V6.86932H53.7585L51.0312 13.5H50.0767L47.3494 6.86932H47.2642V13.5H46.2756V4.77273ZM63.8718 4.77273V13.5H62.8491L58.0934 6.64773H58.0082V13.5H56.9513V4.77273H57.9741L62.7468 11.642H62.832V4.77273H63.8718ZM67.0433 4.77273V13.5H65.9865V4.77273H67.0433Z"/>
</svg>
