<svg width="84" height="23" viewBox="0 0 84 23" xmlns="http://www.w3.org/2000/svg">
<path fill-rule="evenodd" clip-rule="evenodd" d="M5.81475 0H8.72267V2.90789H5.81475V0ZM5.81475 5.49451V8.40032H2.90895V14.2161H5.81475V16.8011V19.7087H8.72267V16.8011H22.9403V19.708H17.4477V22.6159H22.9403V19.7087H25.8483V14.2161H28.754V8.40032H25.8483H25.8469V5.49451H22.9424V2.90895H20.0346V5.49451H11.6284V2.90895H8.72057V5.49451H5.81475ZM22.9403 11.3061V8.40242H20.03V11.3061H22.9403ZM11.6295 8.40242V11.3061H8.72267V8.40242H11.6295ZM2.90789 11.3061H0V19.7067H2.90789V11.3061ZM14.2167 22.6159V19.708H8.72397V22.6159H14.2167ZM25.8483 0H22.9403V2.90789H25.8483V0ZM31.6661 11.3061H28.7583V19.7067H31.6661V11.3061Z"/>
<path d="M51.6179 10.9865C51.6179 12.2138 51.3963 13.2744 50.9531 14.1683C50.5099 15.0623 49.902 15.7517 49.1293 16.2365C48.3565 16.7214 47.474 16.9638 46.4815 16.9638C45.4891 16.9638 44.6065 16.7214 43.8338 16.2365C43.0611 15.7517 42.4531 15.0623 42.0099 14.1683C41.5668 13.2744 41.3452 12.2138 41.3452 10.9865C41.3452 9.75923 41.5668 8.69863 42.0099 7.80469C42.4531 6.91075 43.0611 6.22135 43.8338 5.73651C44.6065 5.25166 45.4891 5.00923 46.4815 5.00923C47.474 5.00923 48.3565 5.25166 49.1293 5.73651C49.902 6.22135 50.5099 6.91075 50.9531 7.80469C51.3963 8.69863 51.6179 9.75923 51.6179 10.9865ZM50.2543 10.9865C50.2543 9.97893 50.0857 9.12855 49.7486 8.43537C49.4152 7.74219 48.9626 7.21757 48.3906 6.86151C47.8224 6.50544 47.1861 6.32741 46.4815 6.32741C45.777 6.32741 45.1387 6.50544 44.5668 6.86151C43.9986 7.21757 43.5459 7.74219 43.2088 8.43537C42.8755 9.12855 42.7088 9.97893 42.7088 10.9865C42.7088 11.9941 42.8755 12.8445 43.2088 13.5376C43.5459 14.2308 43.9986 14.7554 44.5668 15.1115C45.1387 15.4676 45.777 15.6456 46.4815 15.6456C47.1861 15.6456 47.8224 15.4676 48.3906 15.1115C48.9626 14.7554 49.4152 14.2308 49.7486 13.5376C50.0857 12.8445 50.2543 11.9941 50.2543 10.9865ZM53.9872 5.16832H55.669L59.6236 14.8274H59.7599L63.7145 5.16832H65.3963V16.8047H64.0781V7.96378H63.9645L60.3281 16.8047H59.0554L55.419 7.96378H55.3054V16.8047H53.9872V5.16832ZM77.4489 5.16832V16.8047H76.0852L69.7443 7.66832H69.6307V16.8047H68.2216V5.16832H69.5852L75.9489 14.3274H76.0625V5.16832H77.4489ZM81.6776 5.16832V16.8047H80.2685V5.16832H81.6776Z"/>
</svg>
