<svg width="98" height="27" xmlns="http://www.w3.org/2000/svg"><path fill-rule="evenodd" clip-rule="evenodd" d="M5.815 2.195h2.908v2.908H5.815V2.195Zm0 5.495v2.906H2.909v5.815h2.906v5.493h2.908v-2.908H22.94v2.907h-5.492v2.908h5.492v-2.907h2.908v-5.493h2.906v-5.815h-2.907V7.69h-2.905V5.104h-2.907V7.69h-8.407V5.104H8.721V7.69H5.815ZM22.94 13.5v-2.903h-2.91V13.5h2.91Zm-11.31-2.903V13.5H8.723v-2.903h2.906ZM2.908 13.5H0v8.401h2.908v-8.4Zm11.309 11.31v-2.908H8.724v2.908h5.493ZM25.848 2.195H22.94v2.908h2.908V2.195Zm5.818 11.306h-2.908v8.401h2.908v-8.4Z"/><path d="M55.119 13.364c0 1.61-.291 3.002-.873 4.176-.582 1.173-1.38 2.078-2.394 2.714-1.014.637-2.172.955-3.475.955-1.302 0-2.46-.318-3.475-.955-1.014-.636-1.812-1.54-2.394-2.714-.582-1.174-.872-2.566-.872-4.176 0-1.611.29-3.003.872-4.177.582-1.173 1.38-2.078 2.394-2.714 1.014-.636 2.173-.955 3.475-.955 1.303 0 2.461.319 3.475.955 1.015.636 1.812 1.541 2.394 2.715.582 1.173.873 2.565.873 4.176Zm-1.79 0c0-1.323-.221-2.439-.664-3.349-.437-.91-1.032-1.598-1.782-2.065-.746-.468-1.581-.701-2.506-.701-.925 0-1.762.233-2.513.7-.746.468-1.34 1.156-1.782 2.066-.438.91-.657 2.026-.657 3.349 0 1.322.22 2.438.657 3.348.442.91 1.036 1.598 1.782 2.066a4.66 4.66 0 0 0 2.513.7c.925 0 1.76-.233 2.506-.7.75-.468 1.345-1.156 1.782-2.066.443-.91.664-2.026.664-3.348Zm4.9-7.637h2.207l5.19 12.678h.179l5.19-12.678h2.208V21h-1.73V9.396h-.15L66.551 21h-1.67L60.107 9.396h-.15V21h-1.73V5.727Zm30.793 0V21h-1.79L78.909 9.009h-.149V21h-1.849V5.727h1.79l8.352 12.022h.15V5.727h1.819Zm5.55 0V21h-1.85V5.727h1.85Z"/></svg>