<svg width="70" height="19" xmlns="http://www.w3.org/2000/svg"><path fill-rule="evenodd" clip-rule="evenodd" d="M5.04 0h2.52v2.443H5.04V0Zm0 4.616v2.441H2.52v4.886H5.04v4.615h2.52v-2.443h12.323v2.442h-4.76V19h4.76v-2.442h2.52v-4.614h2.518V7.057H22.401v-2.44h-2.518V2.443h-2.52v2.172h-7.285V2.444h-2.52v2.172H5.039ZM19.881 9.5v-2.44h-2.523V9.5h2.523Zm-9.803-2.44V9.5h-2.52v-2.44h2.52ZM2.52 9.5H0v7.057h2.52V9.5ZM12.321 19v-2.443h-4.76V19h4.76Zm10.08-19h-2.52v2.443h2.52V0Zm5.043 9.499h-2.52v7.057h2.52V9.5Z"/><path d="M44.499 9.136c0 .92-.167 1.716-.499 2.387-.332.67-.788 1.187-1.368 1.55-.58.364-1.241.546-1.986.546-.744 0-1.406-.181-1.986-.545-.579-.364-1.035-.88-1.367-1.551-.333-.67-.499-1.466-.499-2.387 0-.92.166-1.716.499-2.386.332-.67.788-1.188 1.367-1.551.58-.364 1.242-.546 1.986-.546.745 0 1.407.182 1.986.546.58.364 1.036.88 1.368 1.551.332.67.499 1.466.499 2.386Zm-1.023 0c0-.755-.127-1.393-.38-1.913-.25-.52-.589-.913-1.018-1.18a2.64 2.64 0 0 0-1.432-.4c-.528 0-1.007.133-1.436.4-.426.267-.765.66-1.018 1.18-.25.52-.375 1.158-.375 1.913 0 .756.125 1.394.375 1.914.253.52.592.913 1.018 1.18.43.267.908.4 1.436.4a2.64 2.64 0 0 0 1.432-.4c.43-.267.769-.66 1.019-1.18.252-.52.379-1.158.379-1.914Zm2.8-4.363h1.26l2.967 7.244h.102l2.966-7.244h1.261V13.5h-.988V6.87h-.086l-2.727 6.63h-.954l-2.728-6.63h-.085v6.63h-.988V4.773Zm17.596 0V13.5h-1.023l-4.756-6.852h-.085V13.5h-1.057V4.773h1.023l4.773 6.869h.085v-6.87h1.04Zm3.171 0V13.5h-1.056V4.773h1.056Z"/></svg>