<svg width="84" height="23" xmlns="http://www.w3.org/2000/svg"><path fill-rule="evenodd" clip-rule="evenodd" d="M5.815 0h2.908v2.908H5.815V0Zm0 5.495V8.4H2.909v5.816h2.906v5.493h2.908V16.8H22.94v2.907h-5.492v2.908h5.492v-2.907h2.908v-5.493h2.906V8.4h-2.907V5.495h-2.905V2.909h-2.907v2.586h-8.407V2.909H8.721v2.586H5.815Zm17.125 5.811V8.402h-2.91v2.904h2.91ZM11.63 8.402v2.904H8.723V8.402h2.906Zm-8.722 2.904H0v8.4h2.908v-8.4Zm11.309 11.31v-2.908H8.724v2.908h5.493ZM25.848 0H22.94v2.908h2.908V0Zm5.818 11.306h-2.908v8.4h2.908v-8.4Z"/><path d="M51.618 10.986c0 1.228-.222 2.288-.665 3.182-.443.894-1.051 1.584-1.824 2.069-.773.484-1.655.727-2.648.727-.992 0-1.875-.243-2.647-.727-.773-.485-1.38-1.175-1.824-2.069-.443-.894-.665-1.954-.665-3.181 0-1.228.222-2.288.665-3.182.443-.894 1.051-1.584 1.824-2.068.772-.485 1.655-.728 2.647-.728.993 0 1.875.243 2.648.728.773.484 1.38 1.174 1.824 2.068.443.894.665 1.954.665 3.181Zm-1.364 0c0-1.007-.168-1.857-.505-2.55-.334-.694-.786-1.218-1.358-1.574a3.521 3.521 0 0 0-1.91-.535 3.55 3.55 0 0 0-1.914.535c-.568.356-1.021.88-1.358 1.573-.334.694-.5 1.544-.5 2.551 0 1.008.166 1.858.5 2.552.337.693.79 1.217 1.358 1.573a3.55 3.55 0 0 0 1.914.535 3.52 3.52 0 0 0 1.91-.535c.572-.356 1.024-.88 1.358-1.573.337-.694.505-1.544.505-2.552Zm3.733-5.818h1.682l3.955 9.66h.136l3.955-9.66h1.681v11.637h-1.318V7.964h-.114l-3.636 8.84h-1.273l-3.636-8.84h-.114v8.84h-1.318V5.169Zm23.462 0v11.637h-1.364l-6.34-9.137h-.114v9.137h-1.41V5.168h1.364l6.364 9.16h.114v-9.16h1.386Zm4.229 0v11.637h-1.41V5.168h1.41Z"/></svg>