<svg width="30" height="30" viewBox="0 0 30 30" fill="none" xmlns="http://www.w3.org/2000/svg">
<rect width="30" height="30" rx="15" fill="#FD7722"/>
<path fill-rule="evenodd" clip-rule="evenodd" d="M18.5379 13.4624C18.0789 13.924 17.5332 14.2904 16.9321 14.5405C16.331 14.7905 15.6864 14.9192 15.0354 14.9192C14.3844 14.9192 13.7398 14.7905 13.1387 14.5405C12.5376 14.2904 11.9918 13.924 11.5329 13.4624C11.0712 13.0034 10.7048 12.4576 10.4548 11.8566C10.2047 11.2555 10.076 10.6109 10.076 9.95986C10.076 9.30884 10.2047 8.66425 10.4548 8.06316C10.7048 7.46207 11.0712 6.91633 11.5329 6.45736C11.9918 5.99551 12.5375 5.62899 13.1386 5.37888C13.7397 5.12876 14.3843 5 15.0354 5C15.6864 5 16.3311 5.12876 16.9322 5.37888C17.5333 5.62899 18.079 5.99551 18.5379 6.45736C18.9996 6.91633 19.366 7.46207 19.616 8.06316C19.866 8.66425 19.9947 9.30884 19.9947 9.95986C19.9947 10.6109 19.866 11.2555 19.616 11.8566C19.366 12.4576 18.9996 13.0034 18.5379 13.4624ZM15.0354 7.69361C14.4179 7.69361 13.8579 7.94361 13.4466 8.35611C13.2369 8.56412 13.0704 8.8116 12.9568 9.08428C12.8431 9.35697 12.7846 9.64945 12.7846 9.94486C12.7846 10.2403 12.8431 10.5327 12.9568 10.8054C13.0704 11.0781 13.2369 11.3256 13.4466 11.5336C13.6546 11.7437 13.9021 11.9105 14.1749 12.0243C14.4477 12.1381 14.7404 12.1967 15.036 12.1967C15.3316 12.1967 15.6243 12.1381 15.8971 12.0243C16.1699 11.9105 16.4174 11.7437 16.6254 11.5336C16.8355 11.3257 17.0022 11.0781 17.1161 10.8053C17.2299 10.5325 17.2885 10.2398 17.2885 9.94423C17.2885 9.64863 17.2299 9.35596 17.1161 9.08315C17.0022 8.81034 16.8355 8.5628 16.6254 8.35486C16.2013 7.93629 15.6312 7.69877 15.0354 7.69236V7.69361ZM20.2454 14.9336L21.7029 16.9211C21.7766 17.0236 21.7616 17.1561 21.6579 17.2299C20.4366 18.2299 19.0091 18.8924 17.5229 19.2461L20.3341 24.6611C20.4079 24.8236 20.3041 24.9999 20.1279 24.9999H17.1254C17.0788 24.9975 17.0337 24.9825 16.9949 24.9566C16.9562 24.9306 16.9252 24.8946 16.9054 24.8524L15.0354 20.3786L13.1516 24.8374C13.1351 24.8819 13.1049 24.9202 13.0655 24.9467C13.026 24.9731 12.9791 24.9865 12.9316 24.9849H9.92912C9.75287 24.9849 9.64912 24.7936 9.72287 24.6474L12.5341 19.2461C11.0217 18.8935 9.60833 18.2043 8.39912 17.2299C8.31037 17.1549 8.28037 17.0086 8.35412 16.9199L9.81162 14.9336C9.89912 14.8161 10.0466 14.8011 10.1491 14.8899C11.5191 16.0524 13.2116 16.8174 15.0216 16.8174C16.8316 16.8174 18.5091 16.0674 19.8929 14.8899C20.0104 14.8024 20.1716 14.8149 20.2454 14.9336Z" fill="white"/>
</svg>
