<svg width="30" height="30" viewBox="0 0 30 30" fill="none" xmlns="http://www.w3.org/2000/svg">
<rect width="30" height="30" rx="15" fill="#68BB5A"/>
<path fill-rule="evenodd" clip-rule="evenodd" d="M25 14.7425C25 20.1225 20.6038 24.485 15.1813 24.485C13.5227 24.4873 11.8904 24.0702 10.4362 23.2725L5 25L6.7725 19.7725C5.84907 18.2574 5.3616 16.5168 5.36375 14.7425C5.3625 9.36125 9.75875 5 15.1813 5C20.6038 5 25 9.3625 25 14.7425ZM15.1813 6.55125C10.63 6.55125 6.9275 10.2262 6.9275 14.7425C6.92612 16.4701 7.47711 18.1528 8.5 19.545L7.46875 22.5863L10.64 21.5788C11.9887 22.4648 13.5676 22.9359 15.1813 22.9338C19.7338 22.9338 23.4363 19.2587 23.4363 14.7425C23.4363 10.2262 19.7338 6.55125 15.1813 6.55125ZM20.14 16.9862C20.0787 16.8862 19.9187 16.8263 19.6775 16.7075C19.4375 16.5887 18.2537 16.01 18.0338 15.9312C17.8125 15.8512 17.6525 15.8112 17.4913 16.05C17.251 16.3732 16.9966 16.6856 16.7288 16.9862C16.5888 17.1462 16.4487 17.165 16.2087 17.0463C15.9675 16.9263 15.1925 16.675 14.2725 15.8612C13.7473 15.3793 13.2965 14.8219 12.935 14.2075C12.7937 13.9688 12.9188 13.8387 13.04 13.72C13.1475 13.6125 13.28 13.4412 13.4012 13.3025C13.5212 13.1625 13.5612 13.0638 13.6413 12.9037C13.7213 12.7438 13.6813 12.605 13.6213 12.485C13.5613 12.3663 13.08 11.1912 12.8788 10.7125C12.6788 10.235 12.4787 10.315 12.3375 10.315C12.1975 10.315 12.0375 10.295 11.8763 10.295C11.7546 10.2982 11.6349 10.3263 11.5246 10.3777C11.4143 10.4291 11.3157 10.5026 11.235 10.5938C11.0138 10.8313 10.3925 11.41 10.3925 12.585C10.3925 13.76 11.255 14.895 11.375 15.055C11.495 15.2137 13.04 17.7038 15.4862 18.66C17.9338 19.615 17.9338 19.2975 18.3738 19.2562C18.815 19.2175 19.7987 18.68 19.9987 18.1213C20.1987 17.5637 20.1987 17.085 20.14 16.9862Z" fill="white"/>
</svg>
