<svg width="60" height="60" viewBox="0 0 60 60" fill="none" xmlns="http://www.w3.org/2000/svg">
<path d="M17.8061 33.1341C22.6385 33.1341 26.5525 29.2201 26.5525 24.3877C26.5525 19.5554 22.6385 15.6414 17.8061 15.6414C12.9738 15.6414 9.05976 19.5554 9.05976 24.3877C9.05976 29.2201 12.9738 33.1341 17.8061 33.1341ZM17.8061 17.828C21.414 17.828 24.3659 20.7799 24.3659 24.3877C24.3659 27.9956 21.414 30.9475 17.8061 30.9475C14.1982 30.9475 11.2464 27.9956 11.2464 24.3877C11.2464 20.7799 14.1982 17.828 17.8061 17.828ZM33.1122 52.8134V53.9067C33.1122 54.5189 32.6312 55 32.0189 55C31.4067 55 30.9256 54.5189 30.9256 53.9067V52.8134C30.9256 45.5758 25.0437 39.6939 17.8061 39.6939C10.5685 39.6939 4.68659 45.5758 4.68659 52.8134V53.9067C4.68659 54.5189 4.20554 55 3.59329 55C2.98105 55 2.5 54.5189 2.5 53.9067V52.8134C2.5 44.3732 9.36589 37.5073 17.8061 37.5073C26.2463 37.5073 33.1122 44.3732 33.1122 52.8134ZM55.0656 12.3615L54.9781 32.0408C54.9781 37.4635 50.5612 41.8805 45.1385 41.8805H34.2055C33.5933 41.8805 33.1122 41.3994 33.1122 40.7872C33.1122 40.1749 33.5933 39.6939 34.2055 39.6939H45.1385C49.3586 39.6939 52.7915 36.2609 52.7915 32.0408L52.879 12.3615C52.879 8.1414 49.446 4.70845 45.2259 4.70845H23.2726C21.577 4.70727 19.929 5.26925 18.5873 6.30615C17.2457 7.34305 16.2864 8.79616 15.8601 10.4373C15.707 11.0277 15.1166 11.3775 14.5262 11.2245C14.3865 11.1893 14.2552 11.1268 14.1398 11.0406C14.0245 10.9543 13.9274 10.846 13.8542 10.7219C13.7809 10.5979 13.7331 10.4605 13.7133 10.3178C13.6936 10.1751 13.7023 10.03 13.7391 9.89067C14.8542 5.53936 18.7682 2.5 23.2726 2.5H45.2259C50.6487 2.5 55.0656 6.91691 55.0656 12.3396V12.3615ZM33.9869 26.3557L44.7012 15.6414H36.414C35.8017 15.6414 35.3207 15.1603 35.3207 14.5481C35.3207 13.9359 35.8017 13.4548 36.414 13.4548H45.1603C46.9752 13.4548 48.4402 14.9198 48.4402 16.7347V25.481C48.4402 26.0933 47.9592 26.5743 47.3469 26.5743C46.7347 26.5743 46.2536 26.0933 46.2536 25.481V17.1939L35.5393 27.9082C34.9052 28.5423 34.0525 28.8703 33.2216 28.8703C32.3907 28.8703 31.5379 28.5423 30.9038 27.9082L30.2697 27.274C29.8323 26.8367 29.8323 26.1589 30.2697 25.7216C30.707 25.2842 31.3848 25.2842 31.8221 25.7216L32.4563 26.3557C32.8936 26.7711 33.5714 26.7711 34.0087 26.3557H33.9869Z" fill="#00604B"/>
</svg>
