<svg width="61" height="60" viewBox="0 0 61 60" fill="none" xmlns="http://www.w3.org/2000/svg">
<path d="M41.9211 9.9859L45.7488 3.11404C45.8197 2.97854 45.9171 2.85862 46.0352 2.76136C46.1532 2.6641 46.2895 2.59147 46.4361 2.54776C46.5827 2.50405 46.7366 2.49014 46.8886 2.50686C47.0406 2.52358 47.1878 2.57059 47.3214 2.6451C47.455 2.71962 47.5723 2.82014 47.6664 2.94073C47.7604 3.06132 47.8294 3.19953 47.8692 3.34722C47.9091 3.49491 47.9189 3.64907 47.8981 3.80062C47.8774 3.95216 47.8265 4.09802 47.7485 4.22958L43.9209 11.1014C43.8514 11.2393 43.7547 11.3616 43.6368 11.4611C43.5188 11.5607 43.3819 11.6353 43.2344 11.6806C43.0868 11.7259 42.9316 11.7409 42.7781 11.7248C42.6246 11.7086 42.476 11.6615 42.3411 11.5865C42.2063 11.5114 42.088 11.4098 41.9933 11.2879C41.8987 11.1659 41.8297 11.0261 41.7905 10.8768C41.7513 10.7276 41.7426 10.5719 41.7651 10.4192C41.7875 10.2665 41.8406 10.1176 41.9211 9.9859ZM57.715 14.6313C57.592 14.3538 57.3643 14.1362 57.0815 14.0259C56.7987 13.9156 56.4838 13.9216 56.2054 14.0426L49.3336 17.0685C49.0554 17.1906 48.837 17.4182 48.7266 17.7013C48.6162 17.9844 48.6228 18.2998 48.7449 18.578C48.867 18.8563 49.0947 19.0746 49.3777 19.185C49.6608 19.2954 49.9762 19.2888 50.2544 19.1667L57.1263 16.1408C57.2641 16.0804 57.3886 15.9934 57.4928 15.8848C57.597 15.7762 57.6787 15.6482 57.7334 15.508C57.7881 15.3678 57.8146 15.2182 57.8114 15.0678C57.8083 14.9174 57.7755 14.769 57.715 14.6313ZM16.7243 11.0991C16.7938 11.237 16.8905 11.3593 17.0084 11.4588C17.1264 11.5584 17.2633 11.633 17.4108 11.6783C17.5584 11.7236 17.7136 11.7387 17.8671 11.7225C18.0206 11.7063 18.1692 11.6592 18.3041 11.5842C18.4389 11.5091 18.5572 11.4075 18.6519 11.2856C18.7465 11.1636 18.8155 11.0238 18.8547 10.8745C18.8939 10.7253 18.9026 10.5696 18.8801 10.4169C18.8577 10.2642 18.8046 10.1176 18.724 9.9859L14.8987 3.11404C14.8278 2.97854 14.7304 2.85862 14.6123 2.76136C14.4943 2.6641 14.3579 2.59147 14.2114 2.54776C14.0648 2.50405 13.9109 2.49014 13.7589 2.50686C13.6068 2.52358 13.4597 2.57059 13.3261 2.6451C13.1925 2.71962 13.0752 2.82014 12.9811 2.94073C12.887 3.06132 12.818 3.19953 12.7782 3.34722C12.7384 3.49491 12.7286 3.64907 12.7493 3.80062C12.7701 3.95216 12.821 4.09802 12.899 4.22958L16.7266 11.1014L16.7243 11.0991ZM11.3139 17.0685L4.44204 14.0426C4.30427 13.9821 4.15594 13.9494 4.00552 13.9463C3.8551 13.9431 3.70553 13.9696 3.56536 14.0243C3.28227 14.1347 3.05463 14.353 2.93252 14.6313C2.81041 14.9095 2.80383 15.2249 2.91423 15.508C3.02464 15.791 3.24297 16.0187 3.52121 16.1408L10.3931 19.1667C10.6713 19.2888 10.9867 19.2954 11.2697 19.185C11.5528 19.0746 11.7805 18.8563 11.9026 18.578C12.0247 18.2998 12.0313 17.9844 11.9209 17.7013C11.8105 17.4182 11.5921 17.1906 11.3139 17.0685ZM48.6487 30.0105C48.6449 32.934 47.9429 35.8144 46.6009 38.4117C45.259 41.0091 43.3161 43.2483 40.9339 44.943C40.4886 45.2583 40.1249 45.6753 39.8731 46.1593C39.6213 46.6434 39.4887 47.1805 39.4862 47.7261V50.6284C39.4862 54.417 36.403 57.5002 32.6144 57.5002H28.0331C24.178 57.5002 21.1613 54.346 21.1613 50.3168V47.7239C21.1613 46.6289 20.6138 45.5844 19.6953 44.9316C14.0695 40.9184 11.1971 34.1519 12.1981 27.2686C13.3732 19.2034 20.1167 12.7003 28.2393 11.8024C33.5237 11.216 38.6089 12.8331 42.5442 16.3538C44.4633 18.0742 45.9987 20.1793 47.0504 22.5322C48.1022 24.8852 48.6467 27.4332 48.6487 30.0105ZM37.1956 50.6261V48.3354H23.4519V50.3145C23.4519 53.1045 25.4195 55.2073 28.0331 55.2073H32.6144C35.1409 55.2073 37.1956 53.1526 37.1956 50.6261ZM46.3581 30.0105C46.3581 25.4567 44.411 21.1 41.0163 18.0603C38.0907 15.4206 34.2871 13.9646 30.3466 13.9762C29.7328 13.9762 29.1143 14.0105 28.489 14.0792C21.388 14.8626 15.4897 20.5479 14.4658 27.5985C13.5885 33.6274 16.1013 39.5555 21.0238 43.0647C22.0638 43.8069 22.7899 44.8675 23.161 46.0448H29.1784V34.4749C27.8859 34.2098 26.7244 33.507 25.8899 32.485C25.0553 31.4631 24.5987 30.1846 24.5972 28.8652C24.5972 28.5614 24.7179 28.2701 24.9326 28.0553C25.1474 27.8405 25.4387 27.7199 25.7425 27.7199C26.0463 27.7199 26.3376 27.8405 26.5524 28.0553C26.7671 28.2701 26.8878 28.5614 26.8878 28.8652C26.8878 30.7595 28.4294 32.3011 30.3237 32.3011C32.2181 32.3011 33.7597 30.7595 33.7597 28.8652C33.7597 28.5614 33.8803 28.2701 34.0951 28.0553C34.3099 27.8405 34.6012 27.7199 34.905 27.7199C35.2087 27.7199 35.5 27.8405 35.7148 28.0553C35.9296 28.2701 36.0503 28.5614 36.0503 28.8652C36.0503 31.6323 34.0804 33.9435 31.4691 34.4749V46.0448H37.4842C37.853 44.8697 38.5723 43.8115 39.6053 43.0762C41.6905 41.5939 43.3912 39.6348 44.5658 37.3621C45.7404 35.0893 46.3549 32.5688 46.3581 30.0105Z" fill="#00604B"/>
</svg>
