<svg width="60" height="60" viewBox="0 0 60 60" fill="none" xmlns="http://www.w3.org/2000/svg">
<g clip-path="url(#clip0_965_132187)">
<path fill-rule="evenodd" clip-rule="evenodd" d="M30.5545 10.5147C30.3268 10.0535 29.6692 10.0536 29.4417 10.5147L25.377 18.7502C25.2063 19.0962 24.9541 19.3954 24.642 19.6222C24.3299 19.8489 23.9674 19.9964 23.5857 20.0518C23.5857 20.0518 23.5857 20.0518 23.5857 20.0518L21.4243 20.3659C20.9437 20.4358 20.4975 20.1028 20.4277 19.6222C20.3578 19.1416 20.6908 18.6954 21.1714 18.6255L23.3327 18.3114C23.4323 18.297 23.5268 18.2585 23.6082 18.1994C23.6896 18.1403 23.7553 18.0622 23.7998 17.9721L27.8646 9.73633C27.8646 9.73632 27.8646 9.73633 27.8646 9.73633C28.7373 7.96803 31.2587 7.96819 32.1315 9.73626L36.1961 17.972C36.1961 17.972 36.1961 17.9721 36.1961 17.972C36.2406 18.0622 36.3064 18.1403 36.3878 18.1995C36.4692 18.2586 36.5638 18.2971 36.6633 18.3115L45.7519 19.6322C47.7034 19.9158 48.4824 22.3138 47.0705 23.6903L45.1166 25.5948L51.2578 26.9984C51.7312 27.1066 52.0273 27.5781 51.9191 28.0516C51.8109 28.525 51.3394 28.8211 50.8659 28.7129L43.6174 27.0562L40.4938 30.1009C40.4938 30.101 40.4938 30.1009 40.4938 30.1009C40.3794 30.2125 40.3124 30.3638 40.3068 30.5235C40.2896 31.0088 39.8822 31.3884 39.3969 31.3712C38.9115 31.354 38.532 30.9467 38.5492 30.4613C38.5708 29.8493 38.8276 29.2692 39.2661 28.8417L45.8428 22.4309C46.2111 22.0719 46.0079 21.4466 45.499 21.3726L36.4102 20.0519C36.0285 19.9964 35.6661 19.8489 35.354 19.6222C35.042 19.3955 34.7898 19.0963 34.619 18.7505L30.5545 10.5147ZM17.1706 19.2068C17.6512 19.137 18.0975 19.47 18.1673 19.9506C18.2371 20.4312 17.9041 20.8774 17.4235 20.9472L14.497 21.3725C14.497 21.3725 14.497 21.3725 14.497 21.3725C13.9881 21.4465 13.7849 22.0719 14.1531 22.4308L20.7298 28.8415C21.1728 29.2734 21.4303 29.861 21.4474 30.4794C21.4608 30.9649 21.0782 31.3693 20.5927 31.3828C20.1073 31.3962 19.7028 31.0136 19.6894 30.5281C19.6849 30.3668 19.6178 30.2136 19.5022 30.1009M19.5022 30.1009L16.3786 27.0561L9.13017 28.7129C8.65673 28.8211 8.1852 28.525 8.07699 28.0516C7.96877 27.5781 8.26485 27.1066 8.73829 26.9984L14.8794 25.5947L12.9255 23.6902C12.9255 23.6902 12.9255 23.6902 12.9255 23.6902C11.5135 22.3138 12.2926 19.9157 14.244 19.6321L17.1706 19.2068M29.998 31.7909C30.4837 31.7909 30.8774 32.1846 30.8774 32.6703V45.0747C30.8774 45.5604 30.4837 45.9541 29.998 45.9541C29.5124 45.9541 29.1187 45.5604 29.1187 45.0747V32.6703C29.1187 32.1846 29.5124 31.7909 29.998 31.7909ZM8.93423 36.4945C9.41988 36.4945 9.81358 36.8882 9.81358 37.3738V53.3764C9.81357 53.4498 9.83849 53.5211 9.88427 53.5786C9.93004 53.636 9.99395 53.6762 10.0655 53.6925L15.2603 54.8799C15.7337 54.9881 16.0298 55.4596 15.9216 55.9331C15.8134 56.4065 15.3419 56.7026 14.8684 56.5944L9.67371 55.407C9.21377 55.3019 8.80314 55.0437 8.50905 54.6748C8.21498 54.3059 8.05485 53.8481 8.05488 53.3764C8.05488 53.3763 8.05488 53.3764 8.05488 53.3764V37.3738C8.05488 36.8882 8.44858 36.4945 8.93423 36.4945ZM51.0619 36.5319C51.5475 36.5319 51.9412 36.9256 51.9412 37.4112V53.3764C51.9412 54.3478 51.2697 55.1905 50.3224 55.407L30.4553 59.9481L30.4552 59.9481C30.1543 60.0168 29.8419 60.0168 29.541 59.9481L18.8611 57.507C18.3877 57.3988 18.0916 56.9273 18.1998 56.4538C18.308 55.9804 18.7796 55.6843 19.253 55.7925L29.1187 58.0475V49.1783C29.1187 48.6927 29.5124 48.299 29.998 48.299C30.4837 48.299 30.8774 48.6927 30.8774 49.1783V58.0476L49.9305 53.6925C50.0779 53.6588 50.1825 53.5277 50.1825 53.3764V37.4112C50.1825 36.9256 50.5762 36.5319 51.0619 36.5319Z" fill="#00604B"/>
<path fill-rule="evenodd" clip-rule="evenodd" d="M8.31402 27.2341C8.52795 27.0202 8.83683 26.9313 9.13176 26.9987L29.9996 31.7685L50.8675 26.9987C51.1624 26.9313 51.4713 27.0202 51.6853 27.2341L59.4487 34.9977C59.6754 35.2244 59.7607 35.5564 59.6715 35.8642C59.5824 36.1721 59.3327 36.407 59.02 36.4774L46.2731 39.3463C45.7993 39.453 45.3288 39.1553 45.2221 38.6815C45.1155 38.2077 45.4131 37.7372 45.8869 37.6305L57.0761 35.1122L50.7854 28.8215L30.4424 33.4714L22.9181 40.9957C22.7049 41.2089 22.3974 41.298 22.1032 41.2318L0.979255 36.4774C0.66656 36.407 0.416924 36.1721 0.327727 35.8642C0.23853 35.5564 0.323902 35.2244 0.550541 34.9977L8.31402 27.2341ZM28.2532 33.1734L9.21384 28.8215L2.92319 35.1122L22.0169 39.4097L28.2532 33.1734Z" fill="#00604B"/>
<path fill-rule="evenodd" clip-rule="evenodd" d="M30.0009 0C30.4865 0 30.8802 0.393698 30.8802 0.879349V4.49031C30.8802 4.97596 30.4865 5.36966 30.0009 5.36966C29.5152 5.36966 29.1215 4.97596 29.1215 4.49031V0.879349C29.1215 0.393698 29.5152 0 30.0009 0ZM19.6991 7.84996C20.0712 7.5378 20.6258 7.58634 20.938 7.95837L23.259 10.7246C23.5712 11.0966 23.5226 11.6513 23.1506 11.9634C22.7786 12.2756 22.2239 12.227 21.9117 11.855L19.5907 9.08881C19.2786 8.71677 19.3271 8.16212 19.6991 7.84996ZM40.3026 7.84996C40.6746 8.16212 40.7232 8.71677 40.411 9.08881L38.09 11.855C37.7778 12.227 37.2232 12.2756 36.8511 11.9634C36.4791 11.6513 36.4306 11.0966 36.7427 10.7246L39.0637 7.95837C39.3759 7.58634 39.9306 7.5378 40.3026 7.84996ZM8.92061 11.9423C9.23279 11.5702 9.78744 11.5217 10.1595 11.8339L12.9255 14.155C13.2976 14.4672 13.3461 15.0219 13.0339 15.3939C12.7217 15.7659 12.1671 15.8144 11.795 15.5023L9.02896 13.1811C8.65694 12.8689 8.60843 12.3143 8.92061 11.9423ZM51.0811 11.9423C51.3933 12.3143 51.3448 12.8689 50.9728 13.1811L48.2067 15.5023C47.8347 15.8144 47.28 15.7659 46.9678 15.3939C46.6556 15.0219 46.7042 14.4672 47.0762 14.155L49.8423 11.8339C50.2143 11.5217 50.7689 11.5702 51.0811 11.9423ZM29.3791 33.2924C29.0357 32.949 29.0357 32.3923 29.3791 32.0489C29.7225 31.7054 30.2793 31.7054 30.6227 32.0489L37.9836 39.4098L41.9063 38.5269C42.3801 38.4202 42.8507 38.7179 42.9573 39.1917C43.0639 39.6655 42.7663 40.136 42.2925 40.2427L37.8973 41.2319C37.6031 41.2981 37.2956 41.209 37.0824 40.9958L29.3791 33.2924Z" fill="#00604B"/>
</g>
<defs>
<clipPath id="clip0_965_132187">
<rect width="60" height="60" fill="white"/>
</clipPath>
</defs>
</svg>
