<svg width="61" height="60" viewBox="0 0 61 60" fill="none" xmlns="http://www.w3.org/2000/svg">
<path d="M48.2822 37.6875L44.1384 37.0875L42.2916 33.3375C41.9728 32.7 40.9228 32.7 40.6134 33.3375L38.7666 37.0875L34.6228 37.6875C34.2666 37.7344 33.9759 37.9875 33.8634 38.325C33.7509 38.6625 33.8447 39.0375 34.0978 39.2906L37.0978 42.2063L36.3947 46.3219C36.3384 46.6781 36.4791 47.025 36.7697 47.2406C37.0603 47.4562 37.4447 47.475 37.7541 47.3156L41.4572 45.375L45.1603 47.3156C45.3009 47.3906 45.4509 47.4188 45.5916 47.4188C45.7284 47.4191 45.8637 47.3894 45.9879 47.332C46.1121 47.2745 46.2223 47.1906 46.3107 47.0862C46.3991 46.9817 46.4636 46.8591 46.4997 46.7271C46.5358 46.5951 46.5426 46.4568 46.5197 46.3219L45.8166 42.2063L48.8166 39.2906C49.0697 39.0375 49.1634 38.6719 49.0509 38.325C48.9384 37.9781 48.6478 37.7344 48.2916 37.6875H48.2822ZM44.1478 41.2031C43.9228 41.4187 43.8291 41.7281 43.8759 42.0375L44.3447 44.7656L41.8884 43.4719C41.7478 43.3969 41.5978 43.3687 41.4572 43.3687C41.3166 43.3687 41.1572 43.4062 41.0259 43.4719L38.5697 44.7656L39.0384 42.0375C39.066 41.8868 39.0557 41.7316 39.0082 41.5859C38.9607 41.4402 38.8777 41.3086 38.7666 41.2031L36.7791 39.2719L39.5259 38.8781C39.8353 38.8313 40.0978 38.6437 40.2291 38.3625L41.4572 35.8781L42.6853 38.3625C42.8259 38.6344 43.0884 38.8313 43.3884 38.8781L46.1353 39.2719L44.1478 41.2031Z" fill="#00604B"/>
<path d="M57.3305 42.8623C58.0148 42.1029 58.793 41.2498 58.793 40.1154C58.793 38.9811 58.0148 38.1279 57.3211 37.3686C56.918 36.9279 56.4961 36.4686 56.4023 36.1123C56.2992 35.7279 56.4305 35.0998 56.5617 34.4998C56.768 33.5154 57.0023 32.4092 56.4586 31.4623C55.9055 30.5061 54.8086 30.1592 53.843 29.8498C53.2617 29.6623 52.6523 29.4654 52.3805 29.1936C52.1086 28.9217 51.9117 28.3217 51.7242 27.7404C51.4148 26.7748 51.0586 25.6873 50.1023 25.1342C49.1555 24.5904 48.0398 24.8248 47.0648 25.0311C46.4555 25.1623 45.818 25.2936 45.443 25.1904C45.0867 25.0967 44.6273 24.6842 44.1773 24.2811C43.643 23.8029 43.0617 23.2779 42.368 23.0061V8.65293C42.368 5.31543 39.6492 2.59668 36.3023 2.59668H8.60859C5.26172 2.59668 2.54297 5.31543 2.54297 8.65293V34.9967C2.54297 38.3342 5.26172 41.0529 8.60859 41.0529H24.293C24.5648 41.7373 25.0898 42.3279 25.568 42.8529C25.9711 43.2936 26.393 43.7623 26.4867 44.1092C26.5898 44.4936 26.4586 45.1217 26.3273 45.7217C26.1211 46.7061 25.8867 47.8123 26.4305 48.7592C26.9836 49.7154 28.0805 50.0623 29.0461 50.3717C29.6273 50.5592 30.2367 50.7561 30.5086 51.0279C30.7805 51.2998 30.9773 51.8998 31.1648 52.4811C31.4742 53.4467 31.8305 54.5342 32.7867 55.0873C33.7336 55.6311 34.8398 55.3967 35.8242 55.1904C36.4336 55.0592 37.0711 54.9279 37.4461 55.0311C37.8023 55.1248 38.2617 55.5373 38.7117 55.9404C39.4711 56.6248 40.3336 57.4029 41.4586 57.4029C42.5836 57.4029 43.4461 56.6248 44.2055 55.9404C44.6555 55.5373 45.1148 55.1248 45.4711 55.0311C45.8555 54.9279 46.4836 55.0592 47.093 55.1904C48.0773 55.3967 49.1836 55.6311 50.1305 55.0873C51.0867 54.5342 51.443 53.4467 51.7523 52.4811C51.9398 51.8998 52.1367 51.2998 52.4086 51.0279C52.6805 50.7561 53.2805 50.5592 53.8711 50.3717C54.8367 50.0623 55.9242 49.7061 56.4773 48.7592C57.0211 47.8217 56.7867 46.7061 56.5805 45.7217C56.4492 45.1123 56.318 44.4842 56.4211 44.1092C56.5148 43.7623 56.9367 43.3029 57.3398 42.8529L57.3305 42.8623ZM15.3961 4.47168H29.5336V16.1717L22.7555 13.9686C22.6617 13.9404 22.5586 13.9217 22.4648 13.9217C22.3711 13.9217 22.268 13.9404 22.1742 13.9686L15.3961 16.1717V4.47168ZM24.293 39.1779H8.60859C6.29297 39.1779 4.41797 37.3029 4.41797 34.9967V8.65293C4.41797 6.34668 6.30234 4.47168 8.60859 4.47168H13.5117V17.4561C13.5108 17.6044 13.5453 17.7508 13.6122 17.8831C13.6792 18.0155 13.7768 18.1299 13.8969 18.217C14.017 18.3041 14.1561 18.3613 14.3027 18.3838C14.4493 18.4064 14.5991 18.3936 14.7398 18.3467L22.4555 15.8342L30.1711 18.3467C30.2648 18.3748 30.368 18.3936 30.4617 18.3936C30.6586 18.3936 30.8555 18.3279 31.0148 18.2154C31.1343 18.1282 31.2314 18.0139 31.2982 17.8819C31.365 17.7499 31.3996 17.604 31.3992 17.4561V4.47168H36.3023C38.618 4.47168 40.493 6.34668 40.493 8.65293V23.0248C39.7992 23.2967 39.218 23.8123 38.6836 24.2998C38.2336 24.7029 37.7742 25.1154 37.4273 25.2092C37.043 25.3123 36.4148 25.1811 35.8055 25.0498C34.8211 24.8436 33.7055 24.6092 32.768 25.1529C31.8117 25.7061 31.4555 26.7936 31.1461 27.7592C30.9586 28.3404 30.7617 28.9404 30.4898 29.2123C30.218 29.4842 29.618 29.6811 29.0273 29.8686C28.0617 30.1779 26.9742 30.5342 26.4211 31.4811C25.8773 32.4186 26.1117 33.5342 26.318 34.5186C26.4492 35.1279 26.5805 35.7561 26.4773 36.1311C26.3836 36.4779 25.9617 36.9373 25.5586 37.3873C25.0805 37.9217 24.5555 38.5029 24.2836 39.1873L24.293 39.1779ZM55.943 41.5967C55.3898 42.2061 54.818 42.8342 54.6023 43.6217C54.3867 44.4373 54.5648 45.2904 54.743 46.1154C54.8836 46.7623 55.043 47.5029 54.8555 47.8217C54.6586 48.1498 53.9367 48.3842 53.2898 48.5904C52.493 48.8436 51.668 49.1154 51.0773 49.6967C50.4867 50.2873 50.2242 51.1029 49.9617 51.8998C49.7555 52.5373 49.5211 53.2686 49.1836 53.4561C48.8648 53.6436 48.1242 53.4842 47.468 53.3436C46.643 53.1654 45.7898 52.9873 44.9742 53.2029C44.1867 53.4092 43.5492 53.9811 42.9398 54.5342C42.4336 54.9936 41.8523 55.5092 41.4492 55.5092C41.0461 55.5092 40.4648 54.9936 39.9586 54.5342C39.3492 53.9811 38.7117 53.4092 37.9242 53.2029C37.6523 53.1279 37.3805 53.0998 37.1086 53.0998C36.5461 53.0998 35.9836 53.2217 35.4305 53.3342C34.7742 53.4748 34.0336 53.6342 33.7148 53.4467C33.3773 53.2498 33.143 52.5279 32.9367 51.8904C32.6742 51.0936 32.4117 50.2779 31.8211 49.6873C31.2305 49.0967 30.4055 48.8342 29.6086 48.5811C28.9617 48.3748 28.2398 48.1404 28.043 47.8123C27.8555 47.4936 28.0148 46.7623 28.1555 46.1061C28.3336 45.2811 28.5117 44.4279 28.2961 43.6123C28.0805 42.8248 27.5086 42.1967 26.9555 41.5779C26.5055 41.0904 26.0086 40.5279 25.9898 40.1342V40.0592C26.018 39.6561 26.5148 39.1029 26.9555 38.6154C27.5086 38.0061 28.0805 37.3779 28.2961 36.5811C28.5117 35.7654 28.3336 34.9123 28.1555 34.0873C28.0148 33.4404 27.8555 32.6998 28.043 32.3811C28.2398 32.0529 28.9617 31.8186 29.6086 31.6123C30.4055 31.3592 31.2305 31.0873 31.8211 30.5061C32.4117 29.9154 32.6742 29.0998 32.9367 28.3029C33.143 27.6654 33.3773 26.9342 33.7148 26.7467C34.0336 26.5592 34.7742 26.7186 35.4305 26.8592C36.2555 27.0373 37.1086 27.2154 37.9242 26.9998C38.7117 26.7936 39.3492 26.2217 39.9586 25.6686C40.4648 25.2092 41.0461 24.6936 41.4492 24.6936C41.8523 24.6936 42.4336 25.2092 42.9398 25.6686C43.5492 26.2217 44.1867 26.7936 44.9742 26.9998C45.7898 27.2154 46.643 27.0373 47.468 26.8592C48.1242 26.7186 48.8648 26.5686 49.1836 26.7467C49.5117 26.9342 49.7555 27.6654 49.9617 28.3029C50.2242 29.0998 50.4867 29.9154 51.0773 30.5061C51.668 31.0967 52.493 31.3592 53.2898 31.6123C53.9367 31.8186 54.6586 32.0529 54.8555 32.3904C55.043 32.7092 54.8836 33.4404 54.743 34.0873C54.5648 34.9123 54.3867 35.7654 54.6023 36.5811C54.818 37.3686 55.3898 37.9967 55.943 38.6061C56.4023 39.1123 56.9273 39.6842 56.9273 40.0873C56.9273 40.4904 56.4023 41.0623 55.943 41.5686V41.5967Z" fill="#00604B"/>
</svg>
