<svg width="30" height="30" viewBox="0 0 30 30" fill="none" xmlns="http://www.w3.org/2000/svg">
<path d="M25.5379 6.25H4.46344C3.58041 6.25113 2.73383 6.6515 2.10943 7.36327C1.48503 8.07504 1.1338 9.04009 1.13281 10.0467V23.7033C1.1338 24.7099 1.48503 25.675 2.10943 26.3867C2.73383 27.0985 3.58041 27.4989 4.46344 27.5H25.5379C26.4209 27.4989 27.2675 27.0985 27.8919 26.3867C28.5163 25.675 28.8675 24.7099 28.8685 23.7033V10.0467C28.8675 9.04009 28.5163 8.07504 27.8919 7.36327C27.2675 6.6515 26.4209 6.25113 25.5379 6.25ZM2.02751 11.954H27.9738V14.7846H2.02751V11.954ZM4.46344 7.26989H25.5379C26.1837 7.27074 26.8029 7.56356 27.2595 8.08413C27.7162 8.60469 27.9731 9.31049 27.9738 10.0467V10.9341H2.02751V10.0467C2.02825 9.31049 2.28513 8.60469 2.7418 8.08413C3.19846 7.56356 3.81762 7.27074 4.46344 7.26989ZM25.5379 26.4801H4.46344C3.81762 26.4793 3.19846 26.1864 2.7418 25.6659C2.28513 25.1453 2.02825 24.4395 2.02751 23.7033V15.8045H15.0007H27.9738V23.7033C27.9731 24.4395 27.7162 25.1453 27.2595 25.6659C26.8029 26.1864 26.1837 26.4793 25.5379 26.4801Z" fill="#00604B"/>
</svg>
