<svg width="30" height="30" viewBox="0 0 30 30" fill="none" xmlns="http://www.w3.org/2000/svg">
<path d="M25.4375 8.25H6.3125C5.67814 8.24885 5.05337 8.09501 4.491 7.80149C3.92863 7.50797 3.44518 7.08339 3.0815 6.56362C3.44405 6.04256 3.92721 5.61688 4.4898 5.32285C5.05238 5.02883 5.67771 4.87518 6.3125 4.875H27.6875C27.8367 4.875 27.9798 4.81574 28.0852 4.71025C28.1907 4.60476 28.25 4.46168 28.25 4.3125C28.25 4.16332 28.1907 4.02024 28.0852 3.91475C27.9798 3.80926 27.8367 3.75 27.6875 3.75H6.3125C4.96984 3.75 3.68217 4.28337 2.73277 5.23277C1.78337 6.18217 1.25 7.46984 1.25 8.8125L1.25 21.1875C1.25 22.5302 1.78337 23.8178 2.73277 24.7672C3.68217 25.7166 4.96984 26.25 6.3125 26.25H25.4375C25.8068 26.25 26.1726 26.1773 26.5138 26.0359C26.855 25.8946 27.1651 25.6874 27.4262 25.4262C27.6874 25.1651 27.8946 24.855 28.0359 24.5138C28.1773 24.1726 28.25 23.8068 28.25 23.4375V11.0625C28.25 10.6932 28.1773 10.3274 28.0359 9.9862C27.8946 9.64497 27.6874 9.33493 27.4262 9.07376C27.1651 8.8126 26.855 8.60543 26.5138 8.46409C26.1726 8.32275 25.8068 8.25 25.4375 8.25ZM27.125 23.4375C27.125 24.3679 26.3679 25.125 25.4375 25.125H6.3125C4.14125 25.125 2.375 23.3587 2.375 21.1875V8.8125C2.375 8.421 2.43238 8.043 2.53925 7.68638C3.0148 8.21647 3.59643 8.64072 4.24645 8.93162C4.89647 9.22252 5.60036 9.37357 6.3125 9.375H25.4375C26.3679 9.375 27.125 10.1321 27.125 11.0625V23.4375ZM24.875 17.25C24.875 17.5484 24.7565 17.8345 24.5455 18.0455C24.3345 18.2565 24.0484 18.375 23.75 18.375C23.4516 18.375 23.1655 18.2565 22.9545 18.0455C22.7435 17.8345 22.625 17.5484 22.625 17.25C22.625 16.9516 22.7435 16.6655 22.9545 16.4545C23.1655 16.2435 23.4516 16.125 23.75 16.125C24.0484 16.125 24.3345 16.2435 24.5455 16.4545C24.7565 16.6655 24.875 16.9516 24.875 17.25Z" fill="#00604B"/>
</svg>
