<svg width="30" height="30" viewBox="0 0 30 30" fill="none" xmlns="http://www.w3.org/2000/svg">
<path d="M19.7917 16.1459H10.625C9.36115 16.1459 8.33333 17.1737 8.33333 18.4375V20.7292C8.33333 21.993 9.36115 23.0209 10.625 23.0209H19.7917C21.0555 23.0209 22.0833 21.993 22.0833 20.7292V18.4375C22.0833 17.1737 21.0555 16.1459 19.7917 16.1459ZM20.9375 20.7292C20.9375 21.3605 20.423 21.875 19.7917 21.875H10.625C9.99365 21.875 9.47917 21.3605 9.47917 20.7292V18.4375C9.47917 17.8062 9.99365 17.2917 10.625 17.2917H19.7917C20.423 17.2917 20.9375 17.8062 20.9375 18.4375V20.7292ZM8.33333 12.1354C8.33333 11.9835 8.39369 11.8378 8.50114 11.7303C8.60858 11.6229 8.7543 11.5625 8.90625 11.5625H13.4896C13.6415 11.5625 13.7873 11.6229 13.8947 11.7303C14.0021 11.8378 14.0625 11.9835 14.0625 12.1354C14.0625 12.2874 14.0021 12.4331 13.8947 12.5406C13.7873 12.648 13.6415 12.7084 13.4896 12.7084H8.90625C8.7543 12.7084 8.60858 12.648 8.50114 12.5406C8.39369 12.4331 8.33333 12.2874 8.33333 12.1354ZM8.33333 7.55211C8.33333 7.40016 8.39369 7.25444 8.50114 7.147C8.60858 7.03955 8.7543 6.97919 8.90625 6.97919H13.4896C13.6415 6.97919 13.7873 7.03955 13.8947 7.147C14.0021 7.25444 14.0625 7.40016 14.0625 7.55211C14.0625 7.70406 14.0021 7.84978 13.8947 7.95722C13.7873 8.06467 13.6415 8.12503 13.4896 8.12503H8.90625C8.7543 8.12503 8.60858 8.06467 8.50114 7.95722C8.39369 7.84978 8.33333 7.70406 8.33333 7.55211ZM24.485 7.42492L20.4918 3.43169C19.8018 2.73789 18.9811 2.18782 18.0772 1.81333C17.1732 1.43885 16.204 1.24738 15.2255 1.25003H8.90625C7.53919 1.25154 6.22856 1.79528 5.26191 2.76193C4.29525 3.72859 3.75152 5.03922 3.75 6.40628V23.5938C3.75 26.4366 6.06344 28.75 8.90625 28.75H21.5104C24.3532 28.75 26.6667 26.4366 26.6667 23.5938V12.6912C26.6694 11.7127 26.478 10.7434 26.1035 9.83943C25.729 8.93546 25.1789 8.11478 24.485 7.42492ZM23.6749 8.23503C24.3051 8.86524 24.7738 9.61003 25.0854 10.4167H19.2176C18.27 10.4167 17.4989 9.64555 17.4989 8.69794V2.83013C18.3163 3.14344 19.0593 3.62385 19.6805 4.24065L23.6738 8.23388L23.6749 8.23503ZM25.5208 23.5938C25.5208 25.8052 23.7219 27.6042 21.5104 27.6042H8.90625C6.69479 27.6042 4.89583 25.8052 4.89583 23.5938V6.40628C4.89583 4.19482 6.69479 2.39586 8.90625 2.39586H15.2255C15.6094 2.39586 15.9852 2.4394 16.3542 2.50586V8.69794C16.3542 10.2769 17.6398 11.5625 19.2188 11.5625H25.4108C25.4773 11.9326 25.5208 12.3085 25.5208 12.6912V23.5938Z" fill="#00604B"/>
</svg>
