<svg width="24" height="24" viewBox="0 0 24 24" fill="none" xmlns="http://www.w3.org/2000/svg">
<path d="M20.0208 12.9167C18.9942 12.9167 18.05 13.4942 17.5 14.365C16.9592 13.485 16.0242 12.9167 14.9792 12.9167C13.3383 12.9167 12 14.365 12 16.1433C12 18.4442 14.7867 21.295 16.4275 22.6242C16.732 22.8675 17.1102 23.0001 17.5 23.0001C17.8898 23.0001 18.268 22.8675 18.5725 22.6242C20.2133 21.3042 23 18.4533 23 16.1433C23 14.365 21.6617 12.9167 20.0208 12.9167ZM17.995 21.9092C17.7108 22.1383 17.2892 22.1383 17.005 21.9092C15.3642 20.5892 12.9167 17.9675 12.9167 16.1433C12.9167 14.8692 13.8425 13.8333 14.9792 13.8333C15.9692 13.8333 16.8492 14.6308 17.0417 15.6942C17.0783 15.9142 17.2708 16.07 17.4908 16.07C17.7108 16.07 17.9033 15.9142 17.94 15.6942C18.1325 14.6308 19.0217 13.8333 20.0208 13.8333C21.1575 13.8333 22.0833 14.8692 22.0833 16.1433C22.0833 17.9583 19.6358 20.5892 17.995 21.9092ZM18.875 2.83333H12.4308C12.22 2.83333 12.0092 2.7875 11.8167 2.68667L8.92917 1.23833C8.6175 1.0825 8.26 1 7.9025 1H5.125C2.85167 1 1 2.85167 1 5.125V17.0417C1 19.315 2.85167 21.1667 5.125 21.1667H11.5417C11.7983 21.1667 12 20.965 12 20.7083C12 20.4517 11.7983 20.25 11.5417 20.25H5.125C3.35583 20.25 1.91667 18.8108 1.91667 17.0417V7.41667H22.0833V11.5417C22.0833 11.7983 22.285 12 22.5417 12C22.7983 12 23 11.7983 23 11.5417V6.95834C23 4.685 21.1483 2.83333 18.875 2.83333ZM1.91667 5.125C1.91667 3.35583 3.35583 1.91667 5.125 1.91667H7.9025C8.11334 1.91667 8.32417 1.9625 8.51667 2.06333L11.4133 3.51167C11.725 3.6675 12.0825 3.75 12.44 3.75H18.8842C20.4975 3.75 21.8358 4.95083 22.0558 6.5H1.91667V5.125Z" fill="#00604B"/>
</svg>
