<svg width="68" height="90" viewBox="0 0 68 90" fill="none" xmlns="http://www.w3.org/2000/svg">
<path d="M34.0016 0.3125C24.9941 0.3125 16.3557 3.89068 9.98645 10.2599C3.61724 16.6291 0.0390625 25.2676 0.0390625 34.275V36.75C1.41406 55.3583 16.8599 70.3229 34.0016 89.6875C51.8995 69.475 67.9641 54.1667 67.9641 34.275C67.9641 25.2676 64.3859 16.6291 58.0167 10.2599C51.6475 3.89068 43.009 0.3125 34.0016 0.3125Z" fill="#00604B"/>
<path d="M43.3636 41.7353C46.9671 36.4165 53.7254 17.343 28.3516 11.2344C29.5387 11.9868 30.6277 12.8655 31.6185 13.8657C33.3478 15.6137 34.6892 17.6655 35.6426 20.0257C36.5961 22.3859 37.0728 24.9518 37.0728 27.7234C37.0728 30.4622 36.5961 33.0187 35.6426 35.3977C34.6892 37.7766 33.3478 39.8377 31.6185 41.5857C30.7726 42.441 29.2629 43.6141 28.8657 43.8805C38.0169 39.7396 42.6392 36.9961 43.3636 41.7353Z" fill="#ED1A39"/>
<path d="M16.9766 50.9354C28.0066 41.2748 35.9613 51.3467 52.3288 39.0781C47.6317 45.1727 43.7291 46.2477 41.7988 50.9962C32.2036 49.4912 25.9361 48.2387 16.9766 50.9354Z" fill="white"/>
</svg>
