<svg width="24" height="24" viewBox="0 0 24 24" xmlns="http://www.w3.org/2000/svg">
<path d="M12.1057 3.33473L10.8766 3.47298C10.1041 3.60367 9.35481 3.82745 8.64882 4.13826C7.0376 4.90097 5.77135 6.14415 5.06708 7.65474C4.97218 7.93799 4.8984 8.22662 4.84625 8.51871C4.30805 10.239 5.00279 12.08 6.59388 13.1497C6.83394 13.2793 7.39087 13.5213 7.5541 13.2016C7.62932 13.0055 7.68083 12.8027 7.70775 12.5967C7.80031 12.4238 7.8526 12.2356 7.86141 12.0438C7.80381 11.7587 7.4677 11.5859 7.3237 11.3526C7.08692 10.8824 6.93769 10.3803 6.88196 9.86649V9.6159C6.95326 7.49473 8.60657 5.68407 10.9054 5.20954C11.6245 5.03466 12.3741 4.98481 13.114 5.06267L14.1798 5.22684C14.7812 5.36811 15.3395 5.62942 15.8132 5.99139C16.287 6.35336 16.6641 6.80668 16.9165 7.31772C17.2517 8.20475 17.318 9.15613 17.1086 10.0739C17.0029 10.4713 17.0222 10.8169 16.8877 11.1798C16.398 12.519 15.6778 13.7718 14.055 14.1001C13.1724 14.3077 12.2557 13.8934 11.9137 13.1324C11.792 12.9012 11.7486 12.6428 11.7888 12.3894C12.0673 11.3008 12.4802 10.3331 12.7491 9.2445C13.0803 8.43896 12.6231 7.54433 11.7279 7.24622C11.6816 7.23081 11.6347 7.21721 11.5872 7.20545C10.4733 6.96355 9.61861 7.89664 9.32096 8.50148C9.0427 9.14186 8.97602 9.84094 9.12893 10.5146C9.29102 10.807 9.40735 11.1181 9.47461 11.4391C9.26336 12.3031 9.01373 13.1671 8.75445 14.0311C8.49517 14.8951 8.33194 15.7591 8.06309 16.6231C7.93823 17.0032 7.94789 17.4093 7.84226 17.8068V18.3856C7.77576 18.8436 7.79852 19.3085 7.90952 19.7594C7.96712 19.9927 7.90952 20.2778 8.00557 20.4506C8.00137 20.5272 8.02498 20.6031 8.07283 20.6666C8.46654 20.6666 9.03304 19.7248 9.20592 19.457C9.58001 18.9217 9.90131 18.3579 10.1661 17.7722C10.4254 17.2279 10.4638 16.6231 10.6655 16.0442C10.8687 15.5673 11.0136 15.0719 11.0976 14.5667C11.2221 14.812 11.4308 15.0149 11.6929 15.1456C12.1488 15.4357 12.667 15.637 13.2143 15.7367C13.7616 15.8363 14.3259 15.8322 14.8713 15.7244C16.2122 15.4902 17.4169 14.8349 18.2706 13.8755C18.8509 13.165 19.2985 12.3741 19.5957 11.534C19.759 11.102 19.7878 10.6181 19.9126 10.1602C20.1195 9.03954 19.9559 7.88886 19.4421 6.85113C18.3377 4.59616 15.9371 3.2829 12.1057 3.33473Z" fill="white"/>
</svg>
