<svg width="16" height="18" viewBox="0 0 16 18" fill="none" xmlns="http://www.w3.org/2000/svg">
<path d="M7.76279 0.0015355L6.48019 0.145106C5.67418 0.280822 4.89227 0.513203 4.15559 0.835973C2.47431 1.62802 1.15301 2.91901 0.418115 4.4877C0.31909 4.78184 0.24211 5.08157 0.187687 5.3849C-0.373916 7.17136 0.351037 9.08312 2.01131 10.1941C2.2618 10.3286 2.84295 10.5799 3.01327 10.2479C3.09176 10.0443 3.14551 9.83369 3.1736 9.61977C3.27018 9.44015 3.32475 9.24475 3.33394 9.04556C3.27384 8.74948 2.92311 8.57005 2.77285 8.32779C2.52578 7.83947 2.37006 7.31809 2.31191 6.78452V6.52429C2.38631 4.32153 4.1115 2.44124 6.51024 1.94845C7.26063 1.76684 8.04282 1.71508 8.81486 1.79594L9.92705 1.96642C10.5546 2.11312 11.1371 2.38449 11.6315 2.76038C12.1259 3.13626 12.5194 3.60702 12.7828 4.13771C13.1325 5.05886 13.2017 6.04683 12.9831 6.99988C12.8729 7.41262 12.893 7.77147 12.7527 8.14836C12.2417 9.53904 11.4902 10.84 9.79685 11.181C8.87583 11.3965 7.91933 10.9663 7.56241 10.1761C7.4354 9.9359 7.3901 9.66757 7.43213 9.40449C7.72274 8.27397 8.15355 7.26905 8.43409 6.13861C8.77973 5.30209 8.30269 4.37304 7.36849 4.06346C7.32026 4.04747 7.27127 4.03334 7.22168 4.02113C6.05938 3.76992 5.16755 4.73891 4.85695 5.36701C4.56659 6.03202 4.49701 6.75799 4.65657 7.45757C4.82571 7.76115 4.9471 8.08423 5.01728 8.41762C4.79685 9.31482 4.53637 10.2121 4.26581 11.1093C3.99526 12.0065 3.82493 12.9038 3.54439 13.801C3.41411 14.1958 3.42418 14.6175 3.31396 15.0302V15.6313C3.24457 16.1069 3.26832 16.5897 3.38414 17.0579C3.44424 17.3002 3.38414 17.5963 3.48437 17.7757C3.47999 17.8553 3.50462 17.934 3.55455 18C3.96538 18 4.55652 17.022 4.73691 16.7439C5.12727 16.188 5.46253 15.6025 5.73888 14.9943C6.00943 14.429 6.04947 13.801 6.25992 13.1998C6.47202 12.7046 6.6232 12.1901 6.71079 11.6655C6.84078 11.9202 7.05853 12.1309 7.33207 12.2667C7.80778 12.5679 8.34846 12.777 8.91954 12.8805C9.49062 12.984 10.0795 12.9797 10.6486 12.8678C12.0478 12.6245 13.3049 11.944 14.1957 10.9477C14.8013 10.2099 15.2683 9.38861 15.5785 8.51616C15.7488 8.06756 15.7788 7.56506 15.9091 7.08955C16.125 5.92576 15.9543 4.73082 15.4181 3.65318C14.2657 1.31148 11.7607 -0.0522842 7.76279 0.0015355Z" fill="white"/>
</svg>
