<svg width="24" height="24" viewBox="0 0 24 24" xmlns="http://www.w3.org/2000/svg">
<path d="M14.5325 12.2795H7.19514V9.3998H14.5325C14.9611 9.3998 15.2592 9.47388 15.4087 9.60327C15.5583 9.73267 15.6509 9.97264 15.6509 10.3232V11.3572C15.6509 11.7266 15.5583 11.9666 15.4087 12.096C15.2592 12.2254 14.9611 12.2806 14.5325 12.2806V12.2795ZM15.0359 6.68483H4.08337V19H7.19514V14.9934H12.9298L15.6509 19H19.1355L16.1353 14.9746C17.2414 14.812 17.7381 14.4758 18.1477 13.9218C18.5573 13.3677 18.7627 12.4819 18.7627 11.2997V10.3763C18.7627 9.67516 18.6879 9.1211 18.5573 8.69645C18.4267 8.27178 18.2035 7.90241 17.8865 7.57065C17.5517 7.25656 17.1789 7.03539 16.7313 6.8872C16.2838 6.7578 15.7246 6.68372 15.0359 6.68372V6.68483Z" fill="white"/>
<path d="M21.5261 6.68367C22.8465 6.68367 23.9167 5.63519 23.9167 4.34184C23.9167 3.04848 22.8465 2 21.5261 2C20.2058 2 19.1355 3.04848 19.1355 4.34184C19.1355 5.63519 20.2058 6.68367 21.5261 6.68367Z" fill="white"/>
</svg>
