<svg width="22" height="12" viewBox="0 0 22 12" fill="none" xmlns="http://www.w3.org/2000/svg">
<path d="M19.5064 5.01695C19.8192 4.63031 20.0676 4.32009 20.251 4.08604C21.572 2.40699 22.1446 1.3344 21.9691 0.866777L21.9003 0.757258C21.8545 0.691476 21.7359 0.631066 21.5452 0.576386C21.3542 0.521745 21.1099 0.513014 20.8122 0.549086L17.5134 0.571329C17.4371 0.564065 17.3601 0.565763 17.2842 0.576386C17.2079 0.587488 17.1583 0.59863 17.1352 0.609258C17.1122 0.620399 17.0933 0.629328 17.0781 0.636598L17.0323 0.669469C16.9942 0.691239 16.9522 0.729681 16.9064 0.784598C16.8606 0.839476 16.8222 0.903085 16.7918 0.976335C16.4329 1.85959 16.0245 2.68098 15.5662 3.44023C15.2836 3.89288 15.0239 4.28556 14.7875 4.61727C14.5507 4.94974 14.3522 5.19422 14.1918 5.35088C14.0315 5.50781 13.8862 5.634 13.7565 5.72858C13.6265 5.82384 13.5274 5.86374 13.4589 5.84924C13.3937 5.83566 13.3287 5.82099 13.2641 5.80523C13.1571 5.73972 13.0711 5.65047 13.0064 5.53708C12.9414 5.4242 12.8976 5.28174 12.8746 5.11007C12.8518 4.93864 12.8382 4.79068 12.8346 4.66638C12.8306 4.54237 12.8326 4.3673 12.8404 4.14072C12.848 3.91437 12.8518 3.76135 12.8518 3.68084C12.8518 3.40372 12.8576 3.10247 12.8691 2.7775C12.8804 2.45278 12.8901 2.19526 12.8976 2.00542C12.9052 1.81586 12.909 1.61492 12.909 1.40311C12.909 1.19178 12.8956 1.0254 12.8687 0.904784C12.8417 0.78427 12.8015 0.666827 12.7486 0.554419C12.695 0.441503 12.6168 0.353714 12.5136 0.291843C12.4105 0.229696 12.2827 0.180626 12.13 0.143843C11.725 0.0560543 11.2096 0.00915711 10.5836 0.00145287C9.16319 -0.0125728 8.25065 0.0749396 7.84597 0.264503C7.68562 0.345022 7.54044 0.454304 7.41071 0.593099C7.27313 0.7539 7.25416 0.841649 7.35356 0.855674C7.81183 0.921457 8.13613 1.07862 8.32706 1.3267L8.39587 1.45799C8.44922 1.55324 8.50262 1.72108 8.55622 1.96188C8.60961 2.20273 8.644 2.46918 8.65941 2.76127C8.6976 3.29416 8.6976 3.75021 8.65941 4.13009C8.62123 4.50993 8.58506 4.80542 8.55068 5.01675C8.51625 5.22856 8.46468 5.39999 8.39612 5.53127C8.32731 5.66304 8.28156 5.74332 8.25854 5.77255C8.23552 5.80155 8.21655 5.81993 8.20138 5.82723C8.10268 5.86348 7.99783 5.882 7.89209 5.88188C7.78509 5.88188 7.65533 5.83059 7.50258 5.7283C7.34979 5.62653 7.19122 5.4858 7.02732 5.30686C6.86292 5.1282 6.67802 4.87795 6.47163 4.55659C6.26549 4.23574 6.0515 3.85586 5.83019 3.41798L5.64707 3.10025C5.53251 2.89619 5.37592 2.59853 5.17739 2.20802C4.97885 1.81752 4.80305 1.43985 4.65055 1.07451C4.58934 0.921457 4.49776 0.804669 4.37564 0.72415L4.31849 0.691278C4.2803 0.662239 4.21909 0.631067 4.13512 0.598393C4.05031 0.565348 3.96192 0.541429 3.87157 0.527079L0.733062 0.548849C0.412363 0.548849 0.194858 0.618503 0.0802987 0.757258L0.0345082 0.822803C0.011365 0.859546 0 0.918059 0 0.998104C0 1.07862 0.0230192 1.17704 0.0688098 1.29359C0.527087 2.32315 1.02537 3.31597 1.56357 4.27201C2.10207 5.22856 2.56973 5.9989 2.9668 6.58284C3.36387 7.16726 3.76854 7.71805 4.18107 8.23645C4.5936 8.75484 4.86648 9.0868 5.00001 9.23262C5.13354 9.37892 5.23851 9.48848 5.31493 9.56122L5.60124 9.82427C5.78436 9.99937 6.05373 10.2092 6.40886 10.4539C6.76394 10.6986 7.157 10.9394 7.58875 11.1764C8.02 11.4139 8.52229 11.607 9.09488 11.757C9.66751 11.9069 10.2249 11.967 10.7672 11.9376H12.0844C12.3518 11.9158 12.554 11.8358 12.6915 11.6967L12.7372 11.6421C12.7675 11.5985 12.7964 11.5309 12.8232 11.4397C12.8497 11.3485 12.8635 11.2479 12.8635 11.1386C12.8556 10.8248 12.8807 10.5414 12.9378 10.29C12.995 10.038 13.0599 9.84845 13.1326 9.72032C13.2052 9.59286 13.2871 9.48504 13.3789 9.39726C13.4705 9.30947 13.5352 9.257 13.5736 9.23863C13.6118 9.22073 13.6425 9.20793 13.6653 9.20019C13.8483 9.14187 14.0641 9.19849 14.3124 9.36992C14.5606 9.54186 14.7935 9.75315 15.0113 10.0051C15.2287 10.257 15.4903 10.5397 15.7958 10.8538C16.1011 11.1676 16.3684 11.4012 16.5976 11.5545L16.8267 11.6863C16.9794 11.7736 17.1778 11.8538 17.4223 11.9271C17.6667 11.9999 17.8807 12.0183 18.0637 11.9818L20.9961 11.9378C21.2862 11.9378 21.5116 11.8923 21.672 11.8009C21.8323 11.7102 21.9277 11.6092 21.9583 11.4999C21.9886 11.3904 21.9907 11.2668 21.9641 11.1277C21.9373 10.9892 21.9105 10.8925 21.884 10.8378C21.8572 10.7832 21.8323 10.7372 21.8093 10.701C21.4275 10.044 20.6982 9.23713 19.6215 8.28085L19.5985 8.25908L19.5872 8.24798L19.5758 8.23731H19.5643C19.0754 7.79193 18.7663 7.49257 18.6365 7.33904C18.3999 7.04747 18.3462 6.75174 18.4762 6.45242C18.5673 6.22544 18.9107 5.74719 19.5064 5.01695Z" fill="white"/>
</svg>
