<svg width="24" height="24" viewBox="0 0 24 24" xmlns="http://www.w3.org/2000/svg">
<path d="M20.2485 11.0176C20.5519 10.6309 20.7927 10.3207 20.9706 10.0866C22.2516 8.4076 22.8068 7.33501 22.6367 6.86739L22.5699 6.75787C22.5255 6.69209 22.4105 6.63168 22.2256 6.577C22.0404 6.52236 21.8035 6.51362 21.5148 6.5497L18.3159 6.57194C18.2419 6.56468 18.1673 6.56637 18.0937 6.577C18.0197 6.5881 17.9716 6.59924 17.9493 6.60987C17.9269 6.62101 17.9085 6.62994 17.8938 6.63721L17.8495 6.67008C17.8124 6.69185 17.7718 6.73029 17.7274 6.78521C17.6829 6.84009 17.6456 6.9037 17.6162 6.97694C17.2682 7.86021 16.8721 8.6816 16.4278 9.44084C16.1537 9.89349 15.9019 10.2862 15.6726 10.6179C15.443 10.9504 15.2505 11.1948 15.095 11.3515C14.9395 11.5084 14.7987 11.6346 14.6729 11.7292C14.5469 11.8244 14.4507 11.8644 14.3843 11.8499C14.3211 11.8363 14.2581 11.8216 14.1954 11.8058C14.0917 11.7403 14.0083 11.6511 13.9455 11.5377C13.8825 11.4248 13.8401 11.2823 13.8177 11.1107C13.7956 10.9393 13.7824 10.7913 13.7789 10.667C13.775 10.543 13.777 10.3679 13.7846 10.1413C13.792 9.91498 13.7956 9.76197 13.7956 9.68145C13.7956 9.40433 13.8013 9.10308 13.8124 8.77812C13.8234 8.45339 13.8327 8.19587 13.8401 8.00603C13.8474 7.81647 13.8511 7.61553 13.8511 7.40372C13.8511 7.19239 13.8381 7.02601 13.812 6.90539C13.7858 6.78488 13.7468 6.66744 13.6955 6.55503C13.6436 6.44211 13.5677 6.35432 13.4677 6.29245C13.3677 6.23031 13.2437 6.18124 13.0957 6.14445C12.703 6.05666 12.2032 6.00977 11.5961 6.00206C10.2188 5.98804 9.33388 6.07555 8.94146 6.26511C8.78597 6.34563 8.64519 6.45491 8.5194 6.59371C8.38599 6.75451 8.36759 6.84226 8.46397 6.85628C8.90836 6.92207 9.22283 7.07923 9.40798 7.32731L9.4747 7.4586C9.52644 7.55385 9.57821 7.72169 9.63019 7.96249C9.68197 8.20334 9.71531 8.46979 9.73026 8.76188C9.76729 9.29477 9.76729 9.75082 9.73026 10.1307C9.69323 10.5105 9.65816 10.806 9.62482 11.0174C9.59144 11.2292 9.54143 11.4006 9.47494 11.5319C9.40822 11.6636 9.36385 11.7439 9.34153 11.7732C9.31921 11.8022 9.30082 11.8205 9.28611 11.8278C9.19039 11.8641 9.08872 11.8826 8.98619 11.8825C8.88243 11.8825 8.7566 11.8312 8.60848 11.7289C8.46033 11.6271 8.30656 11.4864 8.14762 11.3075C7.9882 11.1288 7.80891 10.8786 7.60878 10.5572C7.40888 10.2363 7.20137 9.85647 6.98677 9.41859L6.8092 9.10086C6.69811 8.8968 6.54627 8.59914 6.35375 8.20863C6.16123 7.81813 5.99075 7.44046 5.84288 7.07512C5.78353 6.92207 5.69472 6.80528 5.5763 6.72476L5.52087 6.69189C5.48385 6.66285 5.42449 6.63168 5.34306 6.599C5.26082 6.56596 5.17511 6.54204 5.08751 6.52769L2.0441 6.54946C1.73312 6.54946 1.5222 6.61911 1.41112 6.75787L1.36671 6.82341C1.34427 6.86016 1.33325 6.91867 1.33325 6.99871C1.33325 7.07923 1.35557 7.17765 1.39998 7.2942C1.84437 8.32376 2.32755 9.31658 2.84944 10.2726C3.37162 11.2292 3.82511 11.9995 4.21015 12.5835C4.59519 13.1679 4.9876 13.7187 5.38763 14.2371C5.78765 14.7555 6.05227 15.0874 6.18175 15.2332C6.31123 15.3795 6.41302 15.4891 6.48712 15.5618L6.76476 15.8249C6.94233 16 7.20354 16.2098 7.5479 16.4545C7.89223 16.6992 8.27338 16.9401 8.69204 17.177C9.11022 17.4145 9.59729 17.6076 10.1525 17.7576C10.7078 17.9075 11.2483 17.9676 11.7742 17.9382H13.0515C13.3107 17.9164 13.5069 17.8364 13.6401 17.6973L13.6845 17.6427C13.7139 17.5991 13.7419 17.5315 13.7678 17.4403C13.7936 17.3491 13.8069 17.2485 13.8069 17.1393C13.7993 16.8254 13.8236 16.542 13.879 16.2906C13.9344 16.0386 13.9974 15.8491 14.0679 15.7209C14.1383 15.5935 14.2177 15.4857 14.3067 15.3979C14.3955 15.3101 14.4583 15.2576 14.4956 15.2392C14.5326 15.2213 14.5623 15.2085 14.5844 15.2008C14.7619 15.1425 14.9711 15.1991 15.212 15.3705C15.4526 15.5425 15.6785 15.7538 15.8896 16.0057C16.1005 16.2577 16.3541 16.5403 16.6504 16.8544C16.9465 17.1682 17.2057 17.4018 17.4279 17.5551L17.6501 17.6869C17.7982 17.7742 17.9905 17.8544 18.2277 17.9277C18.4646 18.0005 18.6721 18.0189 18.8496 17.9824L21.6931 17.9384C21.9745 17.9384 22.193 17.8929 22.3485 17.8015C22.504 17.7108 22.5965 17.6098 22.6261 17.5005C22.6556 17.391 22.6575 17.2674 22.6318 17.1284C22.6058 16.9898 22.5798 16.8931 22.5541 16.8384C22.5281 16.7838 22.504 16.7379 22.4817 16.7016C22.1114 16.0446 21.4043 15.2377 20.3602 14.2815L20.3379 14.2597L20.3269 14.2486L20.3158 14.2379H20.3047C19.8306 13.7925 19.5309 13.4932 19.4051 13.3397C19.1755 13.0481 19.1235 12.7524 19.2496 12.453C19.3379 12.2261 19.6709 11.7478 20.2485 11.0176Z" fill="white"/>
</svg>
