<svg width="22" height="22" viewBox="0 0 22 22" fill="none" xmlns="http://www.w3.org/2000/svg">
<path fill-rule="evenodd" clip-rule="evenodd" d="M13.6263 12.2861C13.2099 12.4562 12.944 13.108 12.6741 13.4411C12.5358 13.6116 12.3708 13.6383 12.1581 13.5528C10.5953 12.9302 9.39734 11.8873 8.53496 10.4491C8.38886 10.2261 8.41507 10.05 8.59125 9.84285C8.85163 9.53606 9.17905 9.18758 9.24952 8.77422C9.40593 7.85984 8.21054 5.02348 6.63188 6.30867C2.08925 10.0104 14.2098 19.8284 16.3973 14.5183C17.0161 13.0131 14.3164 12.0033 13.6263 12.2861ZM11.0001 20.0784C9.39347 20.0784 7.81266 19.6513 6.42864 18.8427C6.20649 18.7125 5.93794 18.6781 5.68958 18.7455L2.68222 19.571L3.72979 17.2631C3.79985 17.109 3.82793 16.9392 3.81118 16.7708C3.79443 16.6023 3.73344 16.4413 3.6344 16.3041C2.51378 14.7507 1.92124 12.9168 1.92124 11C1.92124 5.99371 5.9938 1.92113 11.0001 1.92113C16.0063 1.92113 20.0784 5.99371 20.0784 11C20.0784 16.0059 16.0059 20.0784 11.0001 20.0784ZM11.0001 0C4.93462 0 0.000120524 4.93453 0.000120524 11C0.000120524 13.1338 0.605976 15.183 1.7571 16.9615L0.0860576 20.6418C0.0105473 20.808 -0.0160566 20.9923 0.00935908 21.1731C0.0347748 21.3539 0.111159 21.5237 0.229572 21.6627C0.319884 21.7684 0.432019 21.8533 0.558265 21.9115C0.68451 21.9697 0.82187 21.9999 0.960897 22C1.5805 22 4.95912 20.9382 5.81892 20.7023C7.40832 21.5527 9.19109 22 11.0001 22C17.0651 22 22 17.065 22 11C22 4.93453 17.0651 0 11.0001 0Z" fill="white"/>
</svg>
