<svg width="22" height="22" viewBox="0 0 22 22" fill="none" xmlns="http://www.w3.org/2000/svg">
<path d="M20.5817 6.155C20.4687 5.7294 20.2459 5.3409 19.9355 5.0285C19.6252 4.7161 19.2382 4.4908 18.8133 4.375C17.2542 3.955 11 3.955 11 3.955C11 3.955 4.7458 3.955 3.1858 4.375C2.7611 4.4908 2.3743 4.7162 2.064 5.0286C1.7538 5.341 1.5312 5.7294 1.4183 6.155C1 7.725 1 11 1 11C1 11 1 14.275 1.4183 15.845C1.5313 16.2706 1.7541 16.659 2.0645 16.9714C2.3748 17.2838 2.7618 17.5092 3.1867 17.625C4.7458 18.045 11 18.045 11 18.045C11 18.045 17.2542 18.045 18.8142 17.625C19.2389 17.5091 19.6258 17.2836 19.9362 16.9713C20.2465 16.6589 20.4694 16.2705 20.5825 15.845C21 14.275 21 11 21 11C21 11 21 7.725 20.5817 6.155ZM8.955 13.9742V8.0258L14.1817 11L8.955 13.9742Z" fill="white"/>
</svg>
