<svg width="24" height="24" viewBox="0 0 24 24" xmlns="http://www.w3.org/2000/svg">
<path d="M21.5817 7.15496C21.4687 6.72935 21.2459 6.3409 20.9355 6.02851C20.6252 5.71611 20.2382 5.49074 19.8133 5.37496C18.2542 4.95496 12 4.95496 12 4.95496C12 4.95496 5.74583 4.95496 4.18583 5.37496C3.7611 5.49079 3.37425 5.7162 3.06405 6.02859C2.75385 6.34099 2.53117 6.72941 2.41833 7.15496C2 8.72496 2 12 2 12C2 12 2 15.275 2.41833 16.845C2.53132 17.2706 2.75415 17.659 3.06449 17.9714C3.37484 18.2838 3.76181 18.5092 4.18667 18.625C5.74583 19.045 12 19.045 12 19.045C12 19.045 18.2542 19.045 19.8142 18.625C20.2389 18.509 20.6258 18.2836 20.9362 17.9712C21.2465 17.6589 21.4694 17.2705 21.5825 16.845C22 15.275 22 12 22 12C22 12 22 8.72496 21.5817 7.15496ZM9.955 14.9741V9.02579L15.1817 12L9.955 14.9741Z" fill="white"/>
</svg>
