<svg width="20" height="20" viewBox="0 0 20 20" fill="none" xmlns="http://www.w3.org/2000/svg">
<g clip-path="url(#clip0_2_6590)">
<path d="M7.4974 18.3307C7.95763 18.3307 8.33073 17.9576 8.33073 17.4974C8.33073 17.0372 7.95763 16.6641 7.4974 16.6641C7.03716 16.6641 6.66406 17.0372 6.66406 17.4974C6.66406 17.9576 7.03716 18.3307 7.4974 18.3307Z" stroke="#050505" stroke-width="1.5" stroke-linecap="round" stroke-linejoin="round"/>
<path d="M16.6693 18.3307C17.1295 18.3307 17.5026 17.9576 17.5026 17.4974C17.5026 17.0372 17.1295 16.6641 16.6693 16.6641C16.209 16.6641 15.8359 17.0372 15.8359 17.4974C15.8359 17.9576 16.209 18.3307 16.6693 18.3307Z" stroke="#050505" stroke-width="1.5" stroke-linecap="round" stroke-linejoin="round"/>
<path d="M0.835938 0.835938H4.16927L6.4026 11.9943C6.47881 12.3779 6.68753 12.7226 6.99222 12.9679C7.29692 13.2131 7.67818 13.3434 8.06927 13.3359H16.1693C16.5604 13.3434 16.9416 13.2131 17.2463 12.9679C17.551 12.7226 17.7597 12.3779 17.8359 11.9943L19.1693 5.0026H5.0026" stroke="#050505" stroke-width="1.5" stroke-linecap="square" stroke-linejoin="round"/>
</g>
<defs>
<clipPath id="clip0_2_6590">
<rect width="20" height="20" fill="white"/>
</clipPath>
</defs>
</svg>
