<svg width="20" height="20" viewBox="0 0 20 20" fill="none" xmlns="http://www.w3.org/2000/svg">
<path d="M14.0949 2.5C12.4048 2.5 10.925 3.19391 10.0026 4.36685C9.08021 3.19391 7.60045 2.5 5.91034 2.5C4.56499 2.50145 3.27518 3.01236 2.32387 3.92064C1.37256 4.82892 0.837454 6.06039 0.835938 7.34489C0.835938 12.8149 9.33065 17.2425 9.69241 17.4254C9.78776 17.4744 9.89434 17.5 10.0026 17.5C10.1109 17.5 10.2174 17.4744 10.3128 17.4254C10.6746 17.2425 19.1693 12.8149 19.1693 7.34489C19.1678 6.06039 18.6326 4.82892 17.6813 3.92064C16.73 3.01236 15.4402 2.50145 14.0949 2.5ZM10.0026 16.1595C8.50811 15.328 2.14546 11.5404 2.14546 7.34489C2.14676 6.39193 2.54383 5.47835 3.2496 4.8045C3.95537 4.13065 4.91223 3.75154 5.91034 3.75029C7.50223 3.75029 8.83876 4.55986 9.39695 5.86017C9.44628 5.97483 9.5302 6.07289 9.63804 6.14191C9.74588 6.21093 9.87278 6.24778 10.0026 6.24778C10.1324 6.24778 10.2593 6.21093 10.3672 6.14191C10.475 6.07289 10.5589 5.97483 10.6083 5.86017C11.1664 4.55752 12.503 3.75029 14.0949 3.75029C15.093 3.75154 16.0498 4.13065 16.7556 4.8045C17.4614 5.47835 17.8584 6.39193 17.8597 7.34489C17.8597 11.5342 11.4955 15.3272 10.0026 16.1595Z" fill="#050505"/>
</svg>
