<svg width="20" height="20" viewBox="0 0 20 20" fill="none" xmlns="http://www.w3.org/2000/svg">
<path d="M18.9186 14.3055C18.8656 14.1053 18.7711 13.9184 18.6414 13.7569C18.5117 13.5954 18.3495 13.4629 18.1654 13.368L14.2998 11.3649C13.9879 11.1995 13.6269 11.1517 13.2827 11.2303C12.9385 11.3089 12.634 11.5086 12.4248 11.793L11.7998 12.6492C11.7677 12.6937 11.7204 12.725 11.6669 12.737C11.6134 12.7491 11.5573 12.7412 11.5092 12.7149C10.5901 12.1918 9.74857 11.5428 9.00919 10.7867C8.25312 10.0473 7.60413 9.20585 7.08106 8.28674C7.05468 8.23863 7.04679 8.18253 7.05888 8.12901C7.07097 8.07549 7.10219 8.02823 7.14669 7.99612L7.99981 7.37112C8.28419 7.16188 8.48388 6.85741 8.56247 6.51321C8.64106 6.16902 8.59331 5.80804 8.42794 5.49612L6.43731 1.63362C6.34171 1.44926 6.20834 1.28712 6.04589 1.15776C5.88344 1.0284 5.69555 0.934719 5.49447 0.882828C5.29339 0.830936 5.08364 0.821998 4.87887 0.856594C4.67411 0.89119 4.47893 0.968545 4.30606 1.08362L1.87794 2.70862C1.53699 2.93563 1.26168 3.24826 1.07959 3.61518C0.897507 3.98209 0.815034 4.39042 0.840438 4.79924C0.872574 5.49047 0.965644 6.1775 1.11856 6.85237C1.77794 9.39612 3.36856 12.0117 5.57794 14.2242C7.78731 16.4367 10.4061 18.0211 12.9498 18.6742C13.6247 18.8271 14.3117 18.9202 15.0029 18.9524H15.1592C15.5405 18.9515 15.9159 18.8574 16.2525 18.6782C16.5892 18.499 16.8768 18.2402 17.0904 17.9242L18.7092 15.4961C18.826 15.3236 18.9051 15.1284 18.9412 14.9232C18.9772 14.718 18.9695 14.5075 18.9186 14.3055ZM17.6686 14.7992L16.0592 17.2305C15.9524 17.3882 15.8062 17.5152 15.6352 17.5991C15.4642 17.683 15.2743 17.7207 15.0842 17.7086C14.4712 17.6803 13.8617 17.5998 13.2623 17.468C10.9311 16.8617 8.51856 15.3961 6.46544 13.3336C4.41231 11.2711 2.94044 8.86799 2.33419 6.53674C2.20128 5.93749 2.11974 5.32798 2.09044 4.71487C2.07795 4.52518 2.11555 4.33554 2.19947 4.16496C2.28339 3.99438 2.41067 3.84886 2.56856 3.74299L4.99669 2.12424C5.03365 2.09949 5.0772 2.08643 5.12169 2.08674H5.18106C5.21183 2.09476 5.24055 2.10921 5.26533 2.12914C5.29011 2.14907 5.31038 2.17403 5.32481 2.20237L7.32481 6.06799C7.34967 6.11593 7.35672 6.17113 7.3447 6.22377C7.33268 6.27641 7.30238 6.32309 7.25919 6.35549L6.40606 6.98049C6.11677 7.19572 5.91633 7.50946 5.84263 7.86242C5.76893 8.21538 5.82707 8.58311 6.00606 8.89612C6.58446 9.90715 7.29953 10.8336 8.13106 11.6492C8.94667 12.4808 9.87311 13.1959 10.8842 13.7742C11.1972 13.9532 11.5649 14.0114 11.9179 13.9377C12.2708 13.864 12.5846 13.6635 12.7998 13.3742L13.4248 12.518C13.4572 12.4748 13.5039 12.4445 13.5565 12.4325C13.6092 12.4205 13.6644 12.4275 13.7123 12.4524L17.5779 14.4524C17.6062 14.4672 17.6311 14.4878 17.6509 14.5128C17.6708 14.5378 17.6851 14.5667 17.6931 14.5977C17.701 14.6286 17.7024 14.6609 17.6971 14.6923C17.6918 14.7238 17.68 14.7539 17.6623 14.7805L17.6686 14.7992Z" fill="black"/>
</svg>
