<svg width="100" height="43" fill="none" xmlns="http://www.w3.org/2000/svg"><path d="M24.496 16.517H12.893v3.496h8.229c-.407 4.901-4.423 6.991-8.215 6.991-4.85 0-9.083-3.874-9.083-9.305 0-5.291 4.035-9.366 9.094-9.366 3.903 0 6.203 2.527 6.203 2.527l2.41-2.535s-3.093-3.497-8.736-3.497C5.61 4.828.05 10.985.05 17.636c0 6.517 5.229 12.872 12.927 12.872 6.771 0 11.728-4.709 11.728-11.672 0-1.47-.21-2.319-.21-2.319Z" fill="#4285F4"/><path d="M34 13.986c-4.76 0-8.172 3.779-8.172 8.186 0 4.473 3.31 8.322 8.229 8.322 4.453 0 8.1-3.456 8.1-8.226 0-5.466-4.243-8.282-8.156-8.282Zm.048 3.242c2.341 0 4.56 1.922 4.56 5.018 0 3.031-2.21 5.008-4.57 5.008-2.595 0-4.642-2.11-4.642-5.032 0-2.858 2.021-4.994 4.652-4.994Z" fill="#EA4335"/><path d="M51.774 13.986c-4.76 0-8.172 3.779-8.172 8.186 0 4.473 3.309 8.322 8.228 8.322 4.453 0 8.101-3.456 8.101-8.226 0-5.466-4.243-8.282-8.157-8.282Zm.047 3.242c2.342 0 4.56 1.922 4.56 5.018 0 3.031-2.21 5.008-4.57 5.008-2.595 0-4.642-2.11-4.642-5.032 0-2.858 2.022-4.994 4.652-4.994Z" fill="#FBBC05"/><path d="M69.207 13.995c-4.37 0-7.805 3.886-7.805 8.247 0 4.968 3.982 8.262 7.73 8.262 2.316 0 3.548-.933 4.458-2.005v1.628c0 2.847-1.703 4.552-4.273 4.552-2.484 0-3.73-1.874-4.162-2.938l-3.124 1.326c1.108 2.38 3.34 4.86 7.311 4.86 4.345 0 7.656-2.777 7.656-8.604V14.49H73.59v1.398c-1.047-1.146-2.48-1.894-4.383-1.894Zm.316 3.236c2.142 0 4.342 1.857 4.342 5.029 0 3.223-2.195 5-4.39 5-2.329 0-4.496-1.92-4.496-4.97 0-3.169 2.25-5.06 4.544-5.06Z" fill="#4285F4"/><path d="M92.153 13.976c-4.122 0-7.583 3.33-7.583 8.242 0 5.199 3.858 8.282 7.98 8.282 3.439 0 5.55-1.91 6.81-3.622l-2.81-1.898c-.73 1.149-1.95 2.272-3.984 2.272-2.285 0-3.336-1.27-3.987-2.502l10.9-4.592-.565-1.346c-1.053-2.635-3.51-4.836-6.76-4.836Zm.142 3.174c1.486 0 2.554.802 3.008 1.763l-7.28 3.089c-.313-2.392 1.919-4.852 4.272-4.852Z" fill="#EA4335"/><path d="M79.375 30.01h3.58V5.682h-3.58V30.01Z" fill="#34A853"/></svg>