<svg width="100" height="43" fill="none" xmlns="http://www.w3.org/2000/svg"><path fill-rule="evenodd" clip-rule="evenodd" d="M69.258 21.297v2.258H59.211c.153 2.878 1.33 4.3 4.353 4.3 2.047 0 4.247-.67 5.518-1.53v3.453c-1.177.812-3.177 1.41-5.847 1.41-5.33 0-8.353-2.987-8.353-9.114 0-5.376 2.435-9.293 7.518-9.293 4.164 0 6.858 2.329 6.858 8.516Zm-6.953-5.16c-2 0-3.011 1.481-3.105 4.288H65v-.358c0-2.222-.624-3.93-2.706-3.93h.011Zm-31.435 4.05v-7.084h4.2v17.905h-4.2v-7.49h-5.588v7.49h-4.165V13.091h4.165v7.095h5.588Zm56.27 10.821h-4.729l-6.176-8.791v8.791H72.07V13.091h4.165v8.278l5.882-8.266h4.224l-5.883 8.266 6.683 9.639Zm12.33-.896c-1.023.753-2.376 1.111-4.317 1.111-5.553 0-8.26-3.273-8.271-9.137 0-5.411 2.765-9.257 8.094-9.257 2.07 0 3.612.358 4.494.86v3.583a8.012 8.012 0 0 0-4.023-1.099c-2.742 0-4.236 1.959-4.236 5.805 0 3.631 1.212 5.9 4.2 5.9 1.753 0 3-.477 4.06-1.218v3.464-.012ZM52 27.652h1.858v7.286H50v-3.966h-9.353v3.966h-3.86V27.64h1.295c1.47-2.986 1.765-8.648 1.765-13.02v-1.529h12.152v14.56Zm-10.047 0h5.882V16.448h-4.412v.525c0 3.094-.306 7.98-1.47 10.679Z" fill="#000"/><path d="M17.61 30.996V6.271h-6.165c-6.211 0-9.458 3.225-9.458 8.003 0 3.786 1.776 6.056 4.964 8.36l-5.54 8.362h4.587l6.177-9.376-2.141-1.446c-2.589-1.791-3.87-3.165-3.87-6.163 0-2.628 1.823-4.407 5.293-4.407h1.894v21.38h4.26v.012Z" fill="#FC3F1D"/></svg>