<svg width="80" height="80" viewBox="0 0 80 80" fill="none" xmlns="http://www.w3.org/2000/svg">
<path d="M6.66797 34.4697C6.66797 34.0879 6.81962 33.7218 7.08956 33.4519C7.3595 33.182 7.72561 33.0303 8.10736 33.0303H22.5013C22.8831 33.0303 23.2492 33.182 23.5191 33.4519C23.789 33.7218 23.9407 34.0879 23.9407 34.4697C23.9407 34.8514 23.789 35.2176 23.5191 35.4875C23.2492 35.7574 22.8831 35.9091 22.5013 35.9091H8.10736C7.72561 35.9091 7.3595 35.7574 7.08956 35.4875C6.81962 35.2176 6.66797 34.8514 6.66797 34.4697ZM75.7589 37.3485V51.7424C75.756 53.7912 75.1299 55.7907 73.9638 57.4752C72.7976 59.1597 71.1465 60.4495 69.2298 61.1733C69.7365 62.2788 70.0013 63.4706 70.0013 64.697C70.0013 69.4585 66.1264 73.3333 61.3649 73.3333C56.6034 73.3333 52.7286 69.4585 52.7286 64.697C52.7286 63.7067 52.9013 62.7365 53.2352 61.8182H29.1916C29.5255 62.7365 29.6983 63.7067 29.6983 64.697C29.6983 69.4585 25.8234 73.3333 21.0619 73.3333C16.3004 73.3333 12.4255 69.4585 12.4255 64.697C12.4255 63.4706 12.6904 62.2788 13.1971 61.1733C11.2804 60.4495 9.62929 59.1597 8.46309 57.4752C7.29689 55.7907 6.6708 53.7912 6.66797 51.7424L6.66797 43.1061C6.66797 42.7243 6.81962 42.3582 7.08956 42.0883C7.3595 41.8183 7.72561 41.6667 8.10736 41.6667C8.48911 41.6667 8.85523 41.8183 9.12517 42.0883C9.39511 42.3582 9.54676 42.7243 9.54676 43.1061V51.7424C9.54676 55.7094 12.7739 58.9394 16.7437 58.9394H52.7286V22.9545C52.7286 17.3985 48.2089 12.8788 42.6528 12.8788C42.2711 12.8788 41.9049 12.7271 41.635 12.4572C41.3651 12.1873 41.2134 11.8211 41.2134 11.4394C41.2134 11.0576 41.3651 10.6915 41.635 10.4216C41.9049 10.1516 42.2711 10 42.6528 10C49.7951 10 55.6074 15.8123 55.6074 22.9545V24.3939H62.8043C69.9466 24.3939 75.7589 30.2062 75.7589 37.3485ZM55.6074 27.2727V41.6667H72.8801V37.3485C72.8801 31.7924 68.3604 27.2727 62.8043 27.2727H55.6074ZM26.0221 61.8182H16.7437C16.5336 61.8182 16.3234 61.8095 16.1133 61.798C15.5845 62.6726 15.3048 63.675 15.3043 64.697C15.3043 67.8723 17.8866 70.4545 21.0619 70.4545C24.2372 70.4545 26.8195 67.8723 26.8195 64.697C26.8186 63.683 26.543 62.6881 26.0221 61.8182ZM66.3136 61.798C66.1037 61.812 65.8934 61.8187 65.6831 61.8182H56.4048C55.8839 62.6881 55.6083 63.683 55.6074 64.697C55.6074 67.8723 58.1896 70.4545 61.3649 70.4545C64.5402 70.4545 67.1225 67.8723 67.1225 64.697C67.1225 63.675 66.8433 62.6876 66.3136 61.798ZM72.8801 51.7424V44.5455H55.6074V58.9394H65.6831C69.653 58.9394 72.8801 55.7094 72.8801 51.7424ZM8.10736 12.8788H34.0165C34.3982 12.8788 34.7643 12.7271 35.0343 12.4572C35.3042 12.1873 35.4558 11.8211 35.4558 11.4394C35.4558 11.0576 35.3042 10.6915 35.0343 10.4216C34.7643 10.1516 34.3982 10 34.0165 10H8.10736C7.72561 10 7.3595 10.1516 7.08956 10.4216C6.81962 10.6915 6.66797 11.0576 6.66797 11.4394C6.66797 11.8211 6.81962 12.1873 7.08956 12.4572C7.3595 12.7271 7.72561 12.8788 8.10736 12.8788ZM8.10736 24.3939H28.2589C28.6406 24.3939 29.0067 24.2423 29.2767 23.9724C29.5466 23.7024 29.6983 23.3363 29.6983 22.9545C29.6983 22.5728 29.5466 22.2067 29.2767 21.9367C29.0067 21.6668 28.6406 21.5152 28.2589 21.5152H8.10736C7.72561 21.5152 7.3595 21.6668 7.08956 21.9367C6.81962 22.2067 6.66797 22.5728 6.66797 22.9545C6.66797 23.3363 6.81962 23.7024 7.08956 23.9724C7.3595 24.2423 7.72561 24.3939 8.10736 24.3939Z" fill="#00604B"/>
</svg>
