<svg width="80" height="80" viewBox="0 0 80 80" fill="none" xmlns="http://www.w3.org/2000/svg">
<path d="M4.82265 28.055H71.1728C71.0541 28.2775 70.9562 28.512 70.7811 28.7078C70.158 29.4111 69.5467 30.0818 69.1045 30.5269L62.4454 37.3017C62.1692 37.5823 62.0157 37.9611 62.0188 38.3548C62.0218 38.7486 62.1812 39.1249 62.4618 39.4012C62.7423 39.6774 63.1212 39.8309 63.5149 39.8278C63.9086 39.8248 64.285 39.6654 64.5613 39.3849L71.2144 32.616C71.6832 32.1472 72.3361 31.432 73.0067 30.6782C74.0091 29.5467 74.5625 28.0873 74.5625 26.5757C74.5625 25.064 74.0091 23.6047 73.0067 22.4731C72.4287 21.8123 71.833 21.1671 71.2203 20.5383L64.5613 13.7635C64.2839 13.4899 63.9101 13.3363 63.5205 13.3359C63.1309 13.3356 62.7567 13.4885 62.4789 13.7617C62.2011 14.0348 62.0418 14.4063 62.0356 14.7958C62.0293 15.1854 62.1765 15.5618 62.4454 15.8437L69.1134 22.6245C69.5496 23.0637 70.1609 23.7343 70.7841 24.4406C70.9562 24.6364 71.0571 24.8679 71.1758 25.0905H4.82265C4.42914 25.0905 4.05174 25.2468 3.77348 25.525C3.49523 25.8033 3.33891 26.1807 3.33891 26.5742C3.33891 26.9677 3.49523 27.3451 3.77348 27.6234C4.05174 27.9016 4.42914 28.0579 4.82265 28.0579V28.055ZM73.075 51.7949H6.72778C6.84648 51.5724 6.94738 51.3409 7.11949 51.1421C7.66109 50.5209 8.21918 49.9144 8.79316 49.323L15.4552 42.5482C15.5952 42.41 15.7064 42.2454 15.7822 42.0638C15.858 41.8823 15.897 41.6875 15.8968 41.4907C15.8966 41.294 15.8573 41.0992 15.7812 40.9178C15.705 40.7364 15.5936 40.572 15.4533 40.434C15.313 40.2961 15.1467 40.1874 14.964 40.1144C14.7813 40.0413 14.5859 40.0053 14.3892 40.0085C14.1925 40.0117 13.9984 40.0539 13.8181 40.1328C13.6379 40.2117 13.4751 40.3256 13.3394 40.468L6.68327 47.2369C6.21441 47.7057 5.56156 48.4238 4.89387 49.1746C2.81663 51.513 2.81663 55.0443 4.89387 57.3797C5.56156 58.1335 6.21737 58.8516 6.6803 59.3146L13.3423 66.0893C13.4783 66.2295 13.6408 66.3411 13.8204 66.4179C13.9999 66.4946 14.193 66.5348 14.3882 66.5362C14.5835 66.5376 14.7771 66.5001 14.9577 66.4259C15.1383 66.3517 15.3024 66.2424 15.4403 66.1042C15.7209 65.8283 15.8804 65.4523 15.8837 65.0588C15.887 64.6654 15.734 64.2868 15.4581 64.0062L8.79019 57.2254C8.21659 56.6356 7.65947 56.03 7.11949 55.4093C6.94441 55.2135 6.84648 54.982 6.72778 54.7594H73.075C73.4685 54.7594 73.8459 54.6031 74.1242 54.3249C74.4024 54.0466 74.5587 53.6692 74.5587 53.2757C74.5587 52.8822 74.4024 52.5048 74.1242 52.2265C73.8459 51.9483 73.4685 51.792 73.075 51.792V51.7949Z" fill="#00604B"/>
</svg>
