<svg width="80" height="80" viewBox="0 0 80 80" fill="none" xmlns="http://www.w3.org/2000/svg">
<path d="M39.9954 76.6627C37.6767 76.6645 35.3857 76.1582 33.2837 75.1795C31.1816 74.2007 29.3195 72.7734 27.8283 70.9978C27.6907 70.8302 27.5138 70.6992 27.3134 70.6166C27.1129 70.5339 26.8951 70.5022 26.6794 70.5242C24.3697 70.7192 22.0451 70.4089 19.8674 69.6148C17.6898 68.8206 15.7112 67.5617 14.0692 65.9256C12.4279 64.2873 11.1656 62.3092 10.3711 60.1306C9.57665 57.9519 9.26926 55.6256 9.47061 53.3154C9.49207 53.1002 9.46008 52.883 9.37746 52.6831C9.29484 52.4832 9.16416 52.3068 8.997 52.1696C5.39452 49.1354 3.33203 44.6988 3.33203 39.9993C3.33203 35.2999 5.39758 30.8633 8.997 27.8322C9.16517 27.695 9.29672 27.5182 9.3799 27.3177C9.46308 27.1172 9.49529 26.8993 9.47366 26.6833C9.27232 24.3731 9.57971 22.0468 10.3742 19.8681C11.1687 17.6895 12.431 15.7114 14.0723 14.0731C15.7083 12.4287 17.6861 11.1644 19.8653 10.3697C22.0445 9.57497 24.3719 9.26936 26.6825 9.47451C26.8982 9.4965 27.116 9.46476 27.3164 9.38212C27.5169 9.29948 27.6938 9.16852 27.8313 9.00091C30.8624 5.39843 35.296 3.33594 39.9985 3.33594C44.701 3.33594 49.1346 5.40148 52.1656 9.00091C52.459 9.34618 52.8379 9.50812 53.3145 9.47451C55.6244 9.2784 57.9492 9.58824 60.127 10.3824C62.3049 11.1766 64.2834 12.4361 65.9247 14.0731C67.566 15.7114 68.8283 17.6895 69.6228 19.8681C70.4173 22.0468 70.7247 24.3731 70.5233 26.6833C70.5019 26.8985 70.5339 27.1157 70.6165 27.3156C70.6991 27.5155 70.8298 27.6919 70.9969 27.8291C74.5994 30.8633 76.6619 35.2999 76.6619 39.9993C76.6619 44.6988 74.5964 49.1354 70.9969 52.1665C70.8288 52.3037 70.6972 52.4805 70.614 52.681C70.5309 52.8814 70.4986 53.0994 70.5203 53.3154C70.7216 55.6256 70.4142 57.9519 69.6197 60.1306C68.8252 62.3092 67.563 64.2873 65.9217 65.9256C64.2871 67.572 62.3096 68.8378 60.1299 69.6326C57.9503 70.4275 55.6222 70.7319 53.3115 70.5242C53.096 70.5051 52.8792 70.5382 52.6792 70.6206C52.4792 70.7031 52.302 70.8324 52.1626 70.9978C50.6718 72.7739 48.8097 74.2016 46.7076 75.1803C44.6054 76.1591 42.3143 76.6651 39.9954 76.6627ZM26.8138 67.4595C28.1124 67.4595 29.3163 68.0186 30.1688 69.03C32.6163 71.9389 36.2005 73.6072 39.9985 73.6072C43.7965 73.6072 47.3807 71.9389 49.8282 69.03C50.7632 67.9178 52.1412 67.3495 53.5804 67.4778C57.3723 67.7986 61.0817 66.4481 63.7675 63.7623C66.4534 61.0764 67.807 57.364 67.4831 53.572C67.3608 52.1237 67.9261 50.7609 69.0383 49.826C71.9442 47.3754 73.6125 43.7913 73.6125 39.9963C73.6125 36.2013 71.9442 32.6141 69.0353 30.1636C68.4921 29.7119 68.0669 29.1349 67.7965 28.4822C67.5261 27.8296 67.4185 27.121 67.4831 26.4175C67.6453 24.5507 67.3967 22.671 66.7548 20.9105C66.1129 19.1501 65.0933 17.5515 63.7675 16.2273C62.4424 14.9037 60.8442 13.8854 59.0846 13.2436C57.325 12.6019 55.4465 12.3521 53.5804 12.5117C52.8756 12.5808 52.1646 12.4753 51.5102 12.2046C50.8559 11.9339 50.2782 11.5063 49.8282 10.9595C47.3807 8.05063 43.7965 6.38231 39.9985 6.38231C36.2005 6.38231 32.6163 8.05063 30.1688 10.9595C29.7157 11.5026 29.1376 11.9276 28.484 12.198C27.8304 12.4683 27.121 12.576 26.4166 12.5117C24.5502 12.3481 22.6705 12.596 20.9104 13.238C19.1502 13.88 17.5523 14.9004 16.2295 16.2273C14.9037 17.5515 13.8841 19.1501 13.2422 20.9105C12.6003 22.671 12.3517 24.5507 12.5139 26.4175C12.6361 27.8658 12.0709 29.2286 10.9587 30.1636C8.05284 32.6141 6.38451 36.1983 6.38451 39.9932C6.38451 43.7882 8.05284 47.3754 10.9617 49.826C12.0709 50.7579 12.6361 52.1237 12.5139 53.572C12.3517 55.4388 12.6003 57.3185 13.2422 59.079C13.8841 60.8394 14.9037 62.438 16.2295 63.7623C17.5552 65.085 19.1535 66.1027 20.913 66.7444C22.6724 67.3861 24.5506 67.6364 26.4166 67.4778C26.5487 67.4657 26.6812 67.4595 26.8138 67.4595ZM41.3827 46.9446L55.8629 32.9869C56.1375 32.7024 56.2911 32.3224 56.2914 31.9269C56.2917 31.5315 56.1386 31.1513 55.8644 30.8664C55.5901 30.5814 55.2161 30.414 54.8209 30.3991C54.4257 30.3843 54.0402 30.5233 53.7454 30.7869L39.2438 44.7629C38.8134 45.1892 38.3032 45.5264 37.7423 45.7551C37.1815 45.9839 36.581 46.0997 35.9753 46.096C35.3696 46.0924 34.7705 45.9692 34.2125 45.7336C33.6545 45.498 33.1484 45.1547 32.7233 44.7232L25.7627 38.2546C25.4605 38.0129 25.0781 37.8943 24.6921 37.9226C24.3062 37.951 23.9452 38.1242 23.6815 38.4075C23.4179 38.6909 23.2711 39.0634 23.2706 39.4504C23.2701 39.8374 23.416 40.2103 23.6789 40.4943L30.6027 46.9232C32.0938 48.4143 34.0555 49.1598 36.011 49.1598C37.9666 49.1598 39.9068 48.4204 41.3857 46.9415L41.3827 46.9446Z" fill="#00604B"/>
</svg>
