<svg width="80" height="80" viewBox="0 0 80 80" fill="none" xmlns="http://www.w3.org/2000/svg">
<path d="M61.8359 70H16.8359C13.2567 69.996 9.82526 68.5724 7.29438 66.0416C4.7635 63.5107 3.33991 60.0792 3.33594 56.5L3.33594 23.5C3.33594 16.057 9.39294 10 16.8359 10H61.8359C69.2789 10 75.3359 16.057 75.3359 23.5V56.5C75.3359 63.943 69.2789 70 61.8359 70ZM16.8359 13C11.0459 13 6.33594 17.71 6.33594 23.5V56.5C6.33594 62.29 11.0459 67 16.8359 67H61.8359C67.6259 67 72.3359 62.29 72.3359 56.5V23.5C72.3359 17.71 67.6259 13 61.8359 13H16.8359ZM58.8359 43H43.8359C41.3549 43 39.3359 40.981 39.3359 38.5V29.5C39.3359 27.019 41.3549 25 43.8359 25H58.8359C61.3169 25 63.3359 27.019 63.3359 29.5V38.5C63.3359 40.981 61.3169 43 58.8359 43ZM43.8359 28C43.4381 28 43.0566 28.158 42.7753 28.4393C42.494 28.7206 42.3359 29.1022 42.3359 29.5V38.5C42.3359 38.8978 42.494 39.2794 42.7753 39.5607C43.0566 39.842 43.4381 40 43.8359 40H58.8359C59.2338 40 59.6153 39.842 59.8966 39.5607C60.1779 39.2794 60.3359 38.8978 60.3359 38.5V29.5C60.3359 29.1022 60.1779 28.7206 59.8966 28.4393C59.6153 28.158 59.2338 28 58.8359 28H43.8359ZM33.3359 41.5C33.3359 41.1022 33.1779 40.7206 32.8966 40.4393C32.6153 40.158 32.2338 40 31.8359 40H16.8359C16.4381 40 16.0566 40.158 15.7753 40.4393C15.494 40.7206 15.3359 41.1022 15.3359 41.5C15.3359 41.8978 15.494 42.2794 15.7753 42.5607C16.0566 42.842 16.4381 43 16.8359 43H31.8359C32.2338 43 32.6153 42.842 32.8966 42.5607C33.1779 42.2794 33.3359 41.8978 33.3359 41.5ZM63.3359 53.5C63.3359 53.1022 63.1779 52.7206 62.8966 52.4393C62.6153 52.158 62.2338 52 61.8359 52H16.8359C16.4381 52 16.0566 52.158 15.7753 52.4393C15.494 52.7206 15.3359 53.1022 15.3359 53.5C15.3359 53.8978 15.494 54.2794 15.7753 54.5607C16.0566 54.842 16.4381 55 16.8359 55H61.8359C62.2338 55 62.6153 54.842 62.8966 54.5607C63.1779 54.2794 63.3359 53.8978 63.3359 53.5Z" fill="#00604B"/>
</svg>
