<svg width="196" height="48" viewBox="0 0 196 48" fill="none" xmlns="http://www.w3.org/2000/svg">
<path d="M2.98609 7.90625V32.8597H0V7.90625H2.98609ZM16.3429 7.90625L5.69414 19.6016L16.8656 32.8653H13.1788L2.07414 19.6749L12.6506 7.9119H16.3429V7.90625Z" fill="#00604B"/>
<path d="M25.4218 23.4461L25.1382 24.0892L21.4848 32.8565H18.1484L29.5701 6.65625L40.9917 32.8565H37.6553L34.0687 24.298L33.7851 23.5871L29.5701 13.5335L25.4218 23.4461ZM24.1929 22.5152H35.0863L36.1428 25.3699H23.1419L24.1929 22.5152Z" fill="#00604B"/>
<path d="M62.8714 32.8597H59.8853V10.7553H48.9919V24.3012C48.9919 25.8244 48.7639 27.2349 48.3079 28.5438C47.8519 29.8526 47.1735 30.8964 46.2672 31.6806C45.3663 32.4648 44.2486 32.8597 42.9141 32.8597V30.2588C43.4534 30.2588 43.9205 30.0952 44.3209 29.7624C44.7213 29.4295 45.0605 28.9612 45.3385 28.3519C45.6221 27.7483 45.8279 27.0374 45.9724 26.2306C46.1115 25.4239 46.1837 24.5438 46.1837 23.5903V7.90625H62.8714V32.8597Z" fill="#00604B"/>
<path d="M66.5469 34.1033L66.7248 29.4715L88.1557 6.65625L87.9777 11.2938L66.5469 34.1033ZM69.533 30.1823L66.5469 34.1033V7.90307H69.533V30.1823ZM88.1557 32.8565H85.1696V10.5773L88.1557 6.65625V32.8565Z" fill="#00604B"/>
<path d="M94.9236 10.7553V32.8597H91.9375V7.90625H111.439V32.8597H108.453V10.7553H94.9236Z" fill="#00604B"/>
<path d="M118.329 25.4742C119.185 26.9466 120.303 28.1032 121.682 28.9325C123.061 29.7619 124.563 30.1794 126.181 30.1794C127.354 30.1794 128.422 30.0271 129.395 29.7168C130.368 29.4065 131.252 28.972 132.047 28.4135C132.842 27.855 133.521 27.2062 134.083 26.4728V30.4671C133.054 31.3923 131.925 32.0863 130.707 32.532C129.489 32.9833 127.977 33.209 126.175 33.209C124.463 33.209 122.867 32.8931 121.382 32.2668C119.892 31.6349 118.59 30.7436 117.462 29.5926C116.338 28.4417 115.46 27.0821 114.826 25.508C114.192 23.9396 113.875 22.2302 113.875 20.374C113.875 18.5179 114.192 16.8084 114.826 15.24C115.46 13.6716 116.338 12.312 117.462 11.1554C118.585 10.0045 119.892 9.1131 121.382 8.48122C122.867 7.84935 124.468 7.53906 126.175 7.53906C127.977 7.53906 129.489 7.76472 130.707 8.21606C131.925 8.6674 133.048 9.3557 134.083 10.2809V14.2753C133.521 13.5362 132.842 12.8931 132.047 12.3345C131.252 11.776 130.368 11.3416 129.395 11.0313C128.422 10.721 127.349 10.5687 126.181 10.5687C124.563 10.5687 123.067 10.9862 121.682 11.8155C120.298 12.6505 119.18 13.7958 118.329 15.257C117.473 16.7182 117.045 18.422 117.045 20.374C117.045 22.2979 117.473 24.0017 118.329 25.4742Z" fill="#00604B"/>
<path d="M137.804 15.2986C138.426 13.7415 139.299 12.3875 140.423 11.2366C141.546 10.0857 142.869 9.18299 144.393 8.52855C145.917 7.87411 147.568 7.54688 149.348 7.54688C151.149 7.54688 152.806 7.87411 154.319 8.52855C155.831 9.18299 157.149 10.0857 158.273 11.2366C159.396 12.3875 160.269 13.7415 160.892 15.2986C161.514 16.8558 161.82 18.5483 161.82 20.3762C161.82 22.1816 161.509 23.8685 160.892 25.4369C160.269 27.0053 159.396 28.3649 158.273 29.5158C157.149 30.6667 155.831 31.5694 154.319 32.2239C152.806 32.8783 151.149 33.2055 149.348 33.2055C147.568 33.2055 145.917 32.8783 144.393 32.2239C142.869 31.5694 141.546 30.6667 140.423 29.5158C139.299 28.3649 138.426 27.0053 137.804 25.4369C137.181 23.8685 136.875 22.1816 136.875 20.3762C136.875 18.5483 137.186 16.8558 137.804 15.2986ZM141.251 25.403C142.058 26.8755 143.164 28.0433 144.571 28.8952C145.978 29.7528 147.568 30.1759 149.348 30.1759C151.149 30.1759 152.751 29.7472 154.141 28.8952C155.537 28.0377 156.638 26.8755 157.444 25.403C158.25 23.9305 158.656 22.2549 158.656 20.3762C158.656 18.4975 158.25 16.8219 157.444 15.3494C156.638 13.8769 155.537 12.7091 154.141 11.8572C152.745 10.9996 151.149 10.5765 149.348 10.5765C147.568 10.5765 145.972 11.0053 144.571 11.8572C143.164 12.7147 142.058 13.8769 141.251 15.3494C140.445 16.8219 140.039 18.4975 140.039 20.3762C140.039 22.2549 140.439 23.9305 141.251 25.403Z" fill="#00604B"/>
<path d="M185.298 36.818C189.586 30.3977 197.626 7.37376 167.438 0C168.85 0.908321 170.146 1.96895 171.324 3.17629C173.382 5.2863 174.978 7.76304 176.112 10.6121C177.247 13.4612 177.814 16.5585 177.814 19.9041C177.814 23.2101 177.247 26.2962 176.112 29.1678C174.978 32.0395 173.382 34.5275 171.324 36.6375C170.318 37.6699 168.522 39.086 168.049 39.4076C178.937 34.409 184.437 31.0973 185.298 36.818Z" fill="#ED1A39"/>
<path d="M153.906 47.9303C167.029 36.2688 176.494 48.4268 195.967 33.6172C190.379 40.974 185.736 42.2716 183.439 48.0036C172.023 46.187 164.566 44.675 153.906 47.9303Z" fill="#00604B"/>
</svg>
