<svg width="30" height="30" viewBox="0 0 30 30" fill="none" xmlns="http://www.w3.org/2000/svg">
<path d="M14.9984 2.3999C12.5064 2.3999 10.0703 3.13888 7.99826 4.52339C5.9262 5.90789 4.31123 7.87574 3.35756 10.1781C2.4039 12.4804 2.15437 15.0139 2.64055 17.458C3.12672 19.9022 4.32676 22.1473 6.0889 23.9094C7.85104 25.6716 10.0961 26.8716 12.5403 27.3578C14.9845 27.844 17.5179 27.5944 19.8203 26.6408C22.1226 25.6871 24.0905 24.0721 25.475 22.0001C26.8595 19.928 27.5984 17.4919 27.5984 14.9999C27.5953 11.6592 26.2668 8.45614 23.9045 6.09387C21.5422 3.7316 18.3392 2.40308 14.9984 2.3999ZM14.9984 26.3999C12.7437 26.3999 10.5397 25.7313 8.66494 24.4787C6.79022 23.226 5.32906 21.4456 4.46622 19.3625C3.60338 17.2794 3.37762 14.9873 3.81749 12.7759C4.25736 10.5645 5.34311 8.5332 6.93743 6.93889C8.53174 5.34457 10.563 4.25882 12.7744 3.81895C14.9858 3.37908 17.278 3.60484 19.361 4.46768C21.4441 5.33051 23.2245 6.79168 24.4772 8.6664C25.7298 10.5411 26.3984 12.7452 26.3984 14.9999C26.3953 18.0224 25.1932 20.9202 23.056 23.0574C20.9187 25.1946 18.0209 26.3967 14.9984 26.3999Z" fill="#00604B"/>
<path d="M19.1985 15.7557L15.5985 14.5557V7.79971C15.5985 7.64058 15.5352 7.48796 15.4227 7.37544C15.3102 7.26292 15.1576 7.19971 14.9985 7.19971C14.8393 7.19971 14.6867 7.26292 14.5742 7.37544C14.4617 7.48796 14.3985 7.64058 14.3985 7.79971V14.9997C14.3976 15.1249 14.4366 15.2471 14.51 15.3486C14.5834 15.45 14.6873 15.5254 14.8065 15.5637L18.7905 16.8957C18.8538 16.9083 18.9191 16.9083 18.9825 16.8957C19.1087 16.8939 19.2312 16.8524 19.3324 16.777C19.4337 16.7016 19.5086 16.5962 19.5465 16.4757C19.5899 16.3339 19.5782 16.181 19.5137 16.0474C19.4492 15.9139 19.3366 15.8097 19.1985 15.7557Z" fill="#00604B"/>
</svg>
