<svg width="30" height="30" viewBox="0 0 30 30" fill="none" xmlns="http://www.w3.org/2000/svg">
<path d="M26.2179 6.25H3.78208C3.0769 6.25 2.5 6.85575 2.5 7.59613V22.4038C2.5 23.1441 3.0769 23.75 3.78208 23.75H26.2179C26.923 23.75 27.5 23.1443 27.5 22.4038V7.59613C27.5 6.85575 26.923 6.25 26.2179 6.25ZM25.7368 7.25955L15.7375 15.1346C15.5577 15.2783 15.2817 15.3682 14.9999 15.3668C14.7182 15.3682 14.4423 15.2783 14.2624 15.1346L4.26313 7.25955H25.7368ZM20.3955 15.6542L25.8442 22.7216C25.8497 22.7287 25.8564 22.734 25.8622 22.7405H4.13779C4.14355 22.7337 4.15029 22.7287 4.15576 22.7216L9.60448 15.6542C9.64421 15.6027 9.67388 15.5434 9.69179 15.4798C9.7097 15.4163 9.7155 15.3496 9.70886 15.2836C9.70222 15.2177 9.68327 15.1538 9.6531 15.0955C9.62292 15.0372 9.58211 14.9858 9.53299 14.9441C9.3266 14.7688 9.02401 14.802 8.85702 15.0188L3.46152 22.0171V7.89057L13.6858 15.9422C14.0701 16.2428 14.5377 16.375 14.9999 16.3764C15.4614 16.3754 15.9294 16.2431 16.3139 15.9422L26.5382 7.89057V22.017L21.1429 15.0188C20.9759 14.8021 20.673 14.7688 20.4669 14.9441C20.2602 15.1194 20.2284 15.4375 20.3955 15.6542Z" fill="#00604B"/>
</svg>
