<svg width="30" height="30" viewBox="0 0 30 30" fill="none" xmlns="http://www.w3.org/2000/svg">
<path d="M25.5859 3.17247L24.3609 2.10048C23.2453 0.984738 21.3531 0.930045 20.15 2.15517L18.1047 4.83514C17.8317 5.108 17.6151 5.43199 17.4673 5.7886C17.3195 6.14522 17.2435 6.52746 17.2435 6.91348C17.2435 7.29951 17.3195 7.68175 17.4673 8.03836C17.6151 8.39497 17.8317 8.71896 18.1047 8.99182L19.7344 10.6654C17.9625 14.8221 14.6922 18.1037 10.6672 19.7445L8.99376 18.1146C8.43595 17.5568 7.70314 17.2505 6.91564 17.2505C6.12814 17.2505 5.39533 17.5568 4.8922 18.0709L2.11408 20.2149C0.965645 21.3634 0.965645 23.2339 2.09221 24.3497L3.20783 25.6295C4.41095 26.8327 6.0297 27.5 7.79064 27.5C16.2672 27.5 27.5 16.2551 27.5 7.78857C27.5 6.03839 26.8328 4.40853 25.6078 3.1834L25.5859 3.17247ZM7.76876 26.3952C6.30314 26.3952 4.95783 25.8483 3.98439 24.8747L2.86877 23.584C2.14689 22.862 2.14689 21.6916 2.81408 21.0134L5.5922 18.8694C5.9422 18.5194 6.40158 18.3225 6.9047 18.3225C7.40783 18.3225 7.8672 18.5194 8.2172 18.8694L10.1531 20.7618C10.3063 20.9149 10.525 20.9587 10.7328 20.8821C15.2938 19.1429 19.0016 15.4347 20.8938 10.7311C20.9703 10.5342 20.9266 10.3045 20.7734 10.1404L18.8813 8.20424C18.1594 7.48229 18.1594 6.31186 18.925 5.53521L20.9703 2.85525C21.6922 2.1333 22.8625 2.1333 23.6172 2.87712L24.8422 3.94911C25.8375 4.94453 26.3844 6.28998 26.3844 7.75576C26.3844 15.5878 15.6 26.3733 7.76876 26.3733V26.3952Z" fill="#00604B"/>
</svg>
