<svg width="24" height="24" viewBox="0 0 24 24" fill="none" xmlns="http://www.w3.org/2000/svg">
<path fill-rule="evenodd" clip-rule="evenodd" d="M3.46824 20.4987C3.17512 20.206 3.17512 19.7315 3.46824 19.4388L19.4682 3.46386C19.7614 3.17119 20.2366 3.17119 20.5297 3.46386C20.8229 3.75652 20.8229 4.23102 20.5297 4.52369L4.52973 20.4987C4.23661 20.7913 3.76137 20.7913 3.46824 20.4987Z" fill="#EA0029"/>
<path fill-rule="evenodd" clip-rule="evenodd" d="M3.46926 3.49085C3.76238 3.19819 4.23762 3.19819 4.53074 3.49085L20.5307 19.4658C20.8239 19.7585 20.8239 20.233 20.5307 20.5257C20.2376 20.8183 19.7624 20.8183 19.4693 20.5257L3.46926 4.55068C3.17613 4.25802 3.17613 3.78352 3.46926 3.49085Z" fill="#EA0029"/>
</svg>
