<svg width="24" height="24" viewBox="0 0 24 24" fill="none" xmlns="http://www.w3.org/2000/svg">
<path fill-rule="evenodd" clip-rule="evenodd" d="M1.64844 6.39844C1.64844 5.98422 1.98422 5.64844 2.39844 5.64844H21.0651C21.4793 5.64844 21.8151 5.98422 21.8151 6.39844C21.8151 6.81265 21.4793 7.14844 21.0651 7.14844H2.39844C1.98422 7.14844 1.64844 6.81265 1.64844 6.39844Z" fill="#EA0029"/>
<path fill-rule="evenodd" clip-rule="evenodd" d="M1.64844 12C1.64844 11.5858 1.98422 11.25 2.39844 11.25H21.0651C21.4793 11.25 21.8151 11.5858 21.8151 12C21.8151 12.4142 21.4793 12.75 21.0651 12.75H2.39844C1.98422 12.75 1.64844 12.4142 1.64844 12Z" fill="#EA0029"/>
<path fill-rule="evenodd" clip-rule="evenodd" d="M1.64844 17.6016C1.64844 17.1873 1.98422 16.8516 2.39844 16.8516H21.0651C21.4793 16.8516 21.8151 17.1873 21.8151 17.6016C21.8151 18.0158 21.4793 18.3516 21.0651 18.3516H2.39844C1.98422 18.3516 1.64844 18.0158 1.64844 17.6016Z" fill="#EA0029"/>
</svg>
