<svg width="16" height="17" viewBox="0 0 16 17" fill="none" xmlns="http://www.w3.org/2000/svg">
<path fill-rule="evenodd" clip-rule="evenodd" d="M0.667969 8.69531C0.667969 8.47095 0.843857 8.28906 1.06083 8.28906L14.6799 8.28906C14.8968 8.28906 15.0727 8.47095 15.0727 8.69531C15.0727 8.91968 14.8968 9.10156 14.6799 9.10156L1.06083 9.10156C0.843857 9.10156 0.667969 8.91968 0.667969 8.69531Z" fill="#00604B"/>
<path fill-rule="evenodd" clip-rule="evenodd" d="M10.7362 4.61899C10.8896 4.46034 11.1383 4.46034 11.2917 4.61899L14.9584 8.41065C15.1118 8.5693 15.1118 8.82653 14.9584 8.98518L11.2917 12.7768C11.1383 12.9355 10.8896 12.9355 10.7362 12.7768C10.5827 12.6182 10.5827 12.361 10.7362 12.2023L14.125 8.69792L10.7362 5.19351C10.5827 5.03486 10.5827 4.77764 10.7362 4.61899Z" fill="#00604B"/>
</svg>
