<svg width="16" height="16" viewBox="0 0 16 16" fill="none" xmlns="http://www.w3.org/2000/svg">
<path fill-rule="evenodd" clip-rule="evenodd" d="M15.0703 8.20312C15.0703 8.42749 14.8944 8.60937 14.6775 8.60937L1.05841 8.60937C0.841437 8.60937 0.66555 8.42749 0.66555 8.20312C0.66555 7.97876 0.841437 7.79687 1.05841 7.79687L14.6775 7.79687C14.8944 7.79687 15.0703 7.97876 15.0703 8.20312Z" fill="#00604B"/>
<path fill-rule="evenodd" clip-rule="evenodd" d="M5.00212 12.2794C4.8487 12.4381 4.59996 12.4381 4.44654 12.2794L0.779872 8.48778C0.626452 8.32913 0.626452 8.07191 0.779872 7.91326L4.44654 4.12159C4.59996 3.96294 4.8487 3.96294 5.00212 4.12159C5.15554 4.28024 5.15554 4.53747 5.00212 4.69612L1.61325 8.20052L5.00212 11.7049C5.15554 11.8636 5.15554 12.1208 5.00212 12.2794Z" fill="#00604B"/>
</svg>
