<svg width="24" height="24" viewBox="0 0 24 24" fill="none" xmlns="http://www.w3.org/2000/svg">
<path d="M17 12.25C17.0001 12.3485 16.9808 12.446 16.9431 12.537C16.9054 12.628 16.85 12.7106 16.7803 12.7802L9.2803 20.2802C8.98723 20.5733 8.51267 20.5733 8.2198 20.2802C7.92692 19.9871 7.92673 19.5126 8.2198 19.2197L15.1895 12.25L8.2198 5.2802C7.92673 4.98714 7.92673 4.51258 8.2198 4.2197C8.51286 3.92683 8.98742 3.92664 9.2803 4.2197L16.7803 11.7197C16.85 11.7893 16.9054 11.8719 16.9431 11.9629C16.9808 12.0539 17.0001 12.1515 17 12.25Z" fill="#00604B"/>
</svg>
