<svg width="40" height="40" viewBox="0 0 40 40" fill="none" xmlns="http://www.w3.org/2000/svg">
<path fill-rule="evenodd" clip-rule="evenodd" d="M20 0.83333C9.41455 0.833329 0.833335 9.41454 0.833334 20C0.833333 30.5855 9.41454 39.1667 20 39.1667C30.5855 39.1667 39.1667 30.5855 39.1667 20C39.1667 9.41454 30.5855 0.833331 20 0.83333ZM20 -1.74846e-06C8.95431 -2.7141e-06 2.7141e-06 8.9543 1.74846e-06 20C7.8281e-07 31.0457 8.9543 40 20 40C31.0457 40 40 31.0457 40 20C40 8.9543 31.0457 -7.8281e-07 20 -1.74846e-06Z" fill="#00604B"/>
<path fill-rule="evenodd" clip-rule="evenodd" d="M21.7028 28.292C21.5401 28.1293 21.5401 27.8655 21.7028 27.7028L29.4081 19.9974L21.7028 12.292C21.5401 12.1293 21.5401 11.8655 21.7028 11.7028C21.8655 11.54 22.1293 11.54 22.292 11.7028L30.292 19.7028C30.4547 19.8655 30.4547 20.1293 30.292 20.292L22.292 28.292C22.1293 28.4547 21.8655 28.4547 21.7028 28.292Z" fill="#00604B"/>
<path fill-rule="evenodd" clip-rule="evenodd" d="M30.4141 19.9974C30.4141 20.2275 30.2275 20.4141 29.9974 20.4141L9.9974 20.4141C9.76728 20.4141 9.58073 20.2275 9.58073 19.9974C9.58073 19.7673 9.76728 19.5807 9.9974 19.5807L29.9974 19.5807C30.2275 19.5807 30.4141 19.7673 30.4141 19.9974Z" fill="#00604B"/>
</svg>
