<svg width="264" height="153" fill="none" xmlns="http://www.w3.org/2000/svg"><path d="M69.599 52.51c0 .058-1.187.082-3.397.082h-3.397v38.345h6.958V71.683c0-12.782-.025-19.255-.082-19.255a.082.082 0 0 0-.082.082ZM82.122 52.51c0 .058-1.186.082-3.397.082h-3.397v38.345h6.958V71.683c0-12.782-.024-19.255-.082-19.255a.082.082 0 0 0-.082.082ZM90.555 52.675c0 .04-.164.082-.369.082-.204 0-.368.032-.368.082 0 .04-.074.081-.164.081-.09 0-.164.033-.164.082 0 .041-.09.082-.204.082-.115 0-.205.033-.205.082 0 .041-.057.082-.13.082-.148 0-.361.189-.361.32 0 .049-.074.09-.164.09-.196 0-.573.344-.573.532 0 .066-.032.123-.082.123-.04 0-.082.058-.082.123 0 .066-.032.123-.081.123-.041 0-.082.074-.082.164 0 .09-.033.164-.082.164-.041 0-.082.074-.082.164 0 .09-.057.164-.123.164-.073 0-.123.073-.123.204 0 .115-.032.205-.081.205-.041 0-.082.148-.082.328 0 .18-.033.328-.082.328-.05 0-.082.328-.082.82 0 .49.033.819.082.819s.082.163.082.368.04.369.082.369c.049 0 .082.074.082.164 0 .09.057.164.122.164.074 0 .123.073.123.204 0 .115.041.205.082.205.05 0 .082.058.082.131 0 .074.114.238.245.36.14.124.246.255.246.288 0 .065.221.287.287.287.032 0 .163.106.286.245.123.131.286.246.36.246.074 0 .131.057.131.123 0 .074.074.123.205.123.114 0 .204.033.204.082 0 .04.074.082.164.082.09 0 .164.032.164.082 0 .04.204.082.45.082.246 0 .45.032.45.082 0 .049.303.081.737.081s.737-.032.737-.081c0-.05.147-.082.327-.082.18 0 .328-.041.328-.082 0-.05.13-.082.286-.082.156 0 .287-.041.287-.082 0-.05.073-.082.163-.082.09 0 .164-.041.164-.09 0-.131.213-.32.368-.32.14 0 .696-.516.696-.655 0-.041.058-.082.123-.082.066 0 .123-.066.123-.148 0-.082.073-.196.163-.262a.435.435 0 0 0 .164-.303c0-.106.041-.188.082-.188.05 0 .082-.074.082-.164 0-.09.04-.164.082-.164.049 0 .082-.164.082-.369 0-.27.032-.369.123-.369.106 0 .122-.172.122-1.065s-.016-1.065-.122-1.065c-.082 0-.123-.082-.123-.246 0-.139-.033-.245-.082-.245-.041 0-.082-.09-.082-.205 0-.115-.033-.205-.082-.205-.04 0-.082-.074-.082-.164 0-.09-.032-.164-.082-.164-.04 0-.082-.074-.082-.172 0-.156-.171-.401-.286-.401-.065 0-.614-.55-.614-.615 0-.115-.245-.287-.401-.287-.098 0-.172-.04-.172-.082 0-.049-.074-.082-.164-.082-.09 0-.163-.04-.163-.082 0-.049-.074-.082-.164-.082-.09 0-.164-.04-.164-.081 0-.05-.163-.082-.368-.082s-.368-.041-.368-.082c0-.05-.352-.082-.901-.082-.548 0-.9.033-.9.082ZM184.203 52.675c0 .04-.164.082-.369.082-.204 0-.368.032-.368.082 0 .04-.106.081-.246.081-.131 0-.245.033-.245.082 0 .041-.09.082-.205.082-.114 0-.205.033-.205.082 0 .041-.057.082-.13.082-.123 0-.361.189-.361.287 0 .066-.221.287-.286.287-.115 0-.614.581-.614.713 0 .082-.074.205-.164.27-.09.066-.164.18-.164.262 0 .082-.057.148-.122.148-.082 0-.123.09-.123.286 0 .156-.033.287-.082.287-.041 0-.082.205-.082.45 0 .247-.033.452-.082.452-.041 0-.082.204-.082.45 0 .246.041.45.082.45.049 0 .082.206.082.451 0 .246.041.451.082.451.049 0 .082.107.082.246 0 .164.041.246.123.246.073 0 .122.073.122.188 0 .098.074.238.164.303.09.066.164.172.164.246 0 .074.074.18.164.246.09.065.163.147.163.188 0 .09.213.303.303.303.041 0 .123.074.188.164.066.09.164.164.23.164.131 0 .343.197.343.32 0 .049.091.09.205.09.115 0 .205.033.205.082 0 .04.114.082.245.082.14 0 .246.032.246.082 0 .04.164.082.368.082.205 0 .369.032.369.082 0 .049.327.081.818.081.491 0 .819-.032.819-.081 0-.05.164-.082.368-.082.205 0 .369-.041.369-.082 0-.05.073-.082.163-.082.09 0 .164-.041.164-.082 0-.05.074-.082.164-.082.09 0 .163-.057.163-.123s.058-.123.123-.123c.066 0 .123-.04.123-.082 0-.049.057-.082.123-.082.139 0 .696-.524.696-.655 0-.041.041-.082.09-.082.122 0 .319-.213.319-.344 0-.066.074-.164.164-.23.106-.074.163-.213.163-.385 0-.147.041-.27.082-.27.049 0 .082-.074.082-.164 0-.09.057-.164.123-.164.098 0 .123-.115.123-.532 0-.304.032-.533.082-.533.049 0 .081-.131.081-.287 0-.156-.032-.287-.081-.287-.05 0-.082-.229-.082-.532 0-.418-.025-.533-.123-.533-.082 0-.123-.09-.123-.286 0-.156-.033-.287-.082-.287-.041 0-.082-.066-.082-.148 0-.082-.073-.196-.163-.262-.09-.066-.164-.188-.164-.27 0-.148-.18-.385-.287-.385-.024 0-.171-.132-.327-.287-.156-.156-.287-.303-.287-.328 0-.115-.245-.287-.401-.287-.098 0-.172-.04-.172-.082 0-.049-.073-.082-.163-.082-.09 0-.164-.04-.164-.082 0-.049-.074-.082-.164-.082-.09 0-.163-.04-.163-.081 0-.05-.164-.082-.369-.082-.204 0-.368-.041-.368-.082 0-.05-.328-.082-.819-.082-.491 0-.818.033-.818.082ZM241.011 58.204c0 .098-.115.123-.532.123-.303 0-.532.032-.532.081 0 .05-.246.082-.573.082-.328 0-.573.033-.573.082 0 .041-.147.082-.328.082-.18 0-.327.033-.327.082 0 .041-.164.082-.368.082-.205 0-.369.033-.369.082 0 .041-.131.082-.286.082-.156 0-.287.033-.287.082 0 .041-.073.082-.163.082-.091 0-.164.057-.164.123 0 .082-.09.123-.287.123-.155 0-.286.032-.286.082 0 .04-.107.082-.246.082-.131 0-.245.032-.245.082 0 .04-.09.081-.205.081-.115 0-.205.033-.205.082 0 .041-.073.082-.163.082-.09 0-.164.033-.164.082 0 .041-.074.082-.164.082-.09 0-.164.058-.164.123 0 .074-.073.123-.204.123-.115 0-.205.033-.205.082 0 .04-.065.082-.147.082-.082 0-.197.074-.262.164a.436.436 0 0 1-.303.164c-.106 0-.188.032-.188.082 0 .04-.074.082-.164.082-.09 0-.164.04-.164.09 0 .139-.221.32-.384.32-.082 0-.205.073-.271.163-.065.09-.163.164-.229.164-.123 0-.507.369-.507.492 0 .04-.074.081-.172.081-.09 0-.311.148-.483.328-.172.18-.352.328-.401.328-.049 0-.09.04-.09.082 0 .114-.704.82-.819.82a.088.088 0 0 0-.082.081c0 .115-.867.983-.982.983-.041 0-.082.058-.082.123 0 .066-.033.123-.082.123-.041 0-.082.058-.082.131 0 .074-.106.238-.245.36-.131.124-.246.304-.246.402 0 .099-.041.172-.09.172-.131 0-.319.213-.319.36 0 .074-.033.132-.082.132-.041 0-.082.057-.082.123 0 .065-.033.123-.082.123-.041 0-.082.057-.082.13 0 .148-.188.361-.319.361-.049 0-.09.074-.09.164 0 .09-.033.164-.082.164-.041 0-.082.09-.082.205 0 .115-.032.205-.081.205-.041 0-.082.073-.082.164 0 .09-.033.163-.082.163-.041 0-.082.09-.082.205 0 .115-.033.205-.082.205-.041 0-.082.074-.082.164 0 .09-.032.164-.082.164-.041 0-.081.074-.081.164 0 .09-.058.164-.123.164-.082 0-.123.09-.123.286 0 .156-.033.287-.082.287-.041 0-.082.074-.082.164 0 .09-.032.164-.082.164-.041 0-.081.131-.081.287 0 .155-.033.286-.082.286-.041 0-.082.107-.082.246 0 .131-.033.246-.082.246-.041 0-.082.131-.082.287 0 .196-.041.287-.123.287-.09 0-.122.098-.122.368 0 .205-.033.369-.082.369-.041 0-.082.205-.082.45 0 .246-.033.451-.082.451s-.082.23-.082.533c0 .303-.033.532-.082.532s-.082.918-.082 2.581c0 1.664.033 2.581.082 2.581s.082.23.082.533c0 .303.033.532.082.532s.082.205.082.451c0 .246.041.45.082.45.049 0 .082.165.082.37 0 .27.032.368.122.368.082 0 .123.09.123.287 0 .156.041.287.082.287.049 0 .082.106.082.245 0 .132.041.246.082.246.049 0 .082.131.082.287 0 .156.04.287.081.287.05 0 .082.074.082.164 0 .09.041.163.082.163.049 0 .082.132.082.287 0 .197.041.287.123.287.065 0 .123.074.123.164 0 .09.04.164.081.164.05 0 .082.074.082.164 0 .09.041.163.082.163.049 0 .082.09.082.205 0 .115.041.205.082.205.049 0 .082.074.082.164 0 .09.041.164.082.164.049 0 .081.09.081.205 0 .114.041.205.082.205.049 0 .082.073.082.163 0 .09.041.164.09.164.139 0 .319.222.319.385 0 .082.074.205.164.27.09.066.164.165.164.23 0 .131.196.344.319.344.049 0 .09.074.09.172 0 .09.148.312.328.484.18.172.327.393.327.483 0 .099.041.172.082.172.09 0 .818.697.818.779 0 .065.222.286.287.286.082 0 .778.73.778.82 0 .04.041.082.09.082.049 0 .196.106.319.246.123.13.286.245.36.245.074 0 .131.033.131.082 0 .041.057.082.123.082.065 0 .123.041.123.082 0 .123.384.492.507.492.066 0 .164.074.229.164.066.09.205.163.303.163.107 0 .189.041.189.09 0 .132.212.32.36.32.073 0 .131.033.131.082 0 .041.082.082.188.082.098 0 .237.074.303.164.065.09.18.164.262.164.082 0 .147.033.147.082 0 .04.09.082.205.082.131 0 .204.049.204.123 0 .065.074.122.164.122.09 0 .164.033.164.082 0 .041.074.082.164.082.09 0 .163.033.163.082 0 .041.09.082.205.082.115 0 .205.033.205.082 0 .041.114.082.245.082.139 0 .246.033.246.082 0 .041.09.082.204.082.131 0 .205.05.205.123 0 .082.082.123.246.123.139 0 .245.032.245.082 0 .04.123.082.279.082.155 0 .294.049.311.098.049.14.311-.123.311-.303 0-.156.188-.369.319-.369.049 0 .09-.066.09-.147 0-.082.074-.197.164-.263a.417.417 0 0 0 .163-.286c0-.09.074-.222.164-.287.09-.066.164-.18.164-.262 0-.082.057-.148.123-.148.09 0 .122-.098.122-.368s-.032-.37-.122-.37c-.082 0-.123-.09-.123-.286 0-.156-.033-.287-.082-.287-.041 0-.082-.114-.082-.246 0-.139-.033-.245-.082-.245-.041 0-.082-.131-.082-.287 0-.156-.032-.287-.081-.287-.041 0-.082-.115-.082-.246 0-.139-.033-.246-.082-.246-.041 0-.082-.163-.082-.368 0-.27-.033-.369-.123-.369-.082 0-.123-.09-.123-.287 0-.155-.032-.287-.081-.287-.041 0-.082-.147-.082-.327 0-.18-.033-.328-.082-.328-.041 0-.082-.164-.082-.369 0-.204-.033-.368-.082-.368-.041 0-.082-.132-.082-.287 0-.156-.032-.287-.082-.287-.041 0-.081-.147-.081-.328 0-.18-.033-.327-.082-.327-.041 0-.082-.205-.082-.451 0-.344-.025-.45-.123-.45-.09 0-.123-.099-.123-.37 0-.204-.032-.368-.082-.368-.049 0-.081-.23-.081-.533 0-.303-.033-.532-.082-.532s-.082-.901-.082-2.54.033-2.54.082-2.54.082-.23.082-.533c0-.303.032-.532.081-.532.05 0 .082-.205.082-.45 0-.345.025-.452.123-.452.082 0 .123-.082.123-.245 0-.14.041-.246.082-.246.049 0 .082-.164.082-.369s.04-.369.081-.369c.05 0 .082-.114.082-.245 0-.14.041-.246.082-.246.049 0 .082-.131.082-.287 0-.156.041-.287.082-.287.049 0 .082-.074.082-.164 0-.09.041-.163.082-.163.049 0 .081-.132.081-.287 0-.197.041-.287.123-.287.066 0 .123-.074.123-.164 0-.09.041-.164.082-.164.049 0 .082-.09.082-.205 0-.114.041-.204.082-.204.049 0 .081-.074.081-.164 0-.09.041-.164.082-.164.049 0 .082-.074.082-.164 0-.09.041-.164.082-.164.049 0 .082-.09.082-.205 0-.13.049-.205.123-.205.065 0 .122-.065.122-.147 0-.082.074-.197.164-.262a.436.436 0 0 0 .164-.303c0-.107.041-.189.082-.189.049 0 .082-.057.082-.13 0-.148.188-.362.319-.362.049 0 .09-.081.09-.188 0-.098.074-.238.164-.303.09-.066.163-.172.163-.246 0-.074.074-.18.164-.246.09-.065.164-.188.164-.27 0-.147.18-.385.286-.385.107 0 .287-.238.287-.369 0-.074.123-.254.27-.393.164-.156.221-.262.164-.279-.066-.024-.107-.18-.107-.401 0-.197-.033-.36-.082-.36-.041 0-.082-.066-.082-.148 0-.082-.073-.197-.163-.262a.435.435 0 0 1-.164-.303c0-.14-.049-.189-.188-.189a.434.434 0 0 1-.303-.164c-.066-.098-.213-.164-.344-.164-.123 0-.229-.04-.229-.082 0-.049-.164-.082-.368-.082-.271 0-.369-.032-.369-.123 0-.106-.344-.122-2.619-.122-1.695 0-2.62-.033-2.62-.082 0-.05.09-.082.205-.082.114 0 .204-.041.204-.082 0-.05.115-.082.246-.082.139 0 .246-.041.246-.082 0-.05.09-.082.204-.082.115 0 .205-.041.205-.082 0-.05.115-.082.246-.082.163 0 .245-.04.245-.123 0-.082.09-.123.287-.123.155 0 .286-.04.286-.082 0-.049.115-.082.246-.082.139 0 .245-.04.245-.082 0-.049.09-.081.205-.081.114 0 .205-.041.205-.082 0-.05.114-.082.245-.082.139 0 .246-.041.246-.082 0-.05.131-.082.286-.082.156 0 .287-.041.287-.082 0-.05.073-.082.163-.082.09 0 .164-.057.164-.123 0-.082.09-.123.287-.123.155 0 .286-.04.286-.082 0-.049.074-.082.164-.082.09 0 .164-.04.164-.082 0-.049.073-.082.163-.082.18 0 .573-.335.573-.491 0-.041.066-.082.148-.082.082 0 .196-.074.262-.164.065-.09.163-.164.221-.164.057 0 .106-.04.106-.082 0-.049.074-.082.164-.082.09 0 .163-.04.163-.082 0-.049.074-.082.164-.082.09 0 .164-.057.164-.123 0-.073.074-.122.205-.122.114 0 .204-.041.204-.082 0-.05.074-.082.164-.082.09 0 .164-.041.164-.082 0-.05.09-.082.204-.082.115 0 .205-.041.205-.082 0-.05.147-.082.327-.082.18 0 .328-.04.328-.082 0-.05.204-.082.45-.082.246 0 .45-.04.45-.082 0-.049.328-.082.819-.082.491 0 .818.033.818.082 0 .05.23.082.533.082.302 0 .532.033.532.082 0 .041.163.082.368.082s.368.033.368.082c0 .04.115.082.246.082.139 0 .246.033.246.082 0 .04.13.082.286.082.156 0 .287.032.287.082 0 .04.073.082.163.082.09 0 .164.057.164.122 0 .082.09.123.286.123.156 0 .287.033.287.082 0 .041.074.082.164.082.106 0 .163.058.163.164 0 .107-.057.164-.163.164-.09 0-.164-.04-.164-.082 0-.05-.09-.082-.205-.082-.114 0-.204.033-.204.082 0 .041-.18.082-.41.082-.221 0-.409.033-.409.082 0 .04-.09.082-.205.082-.114 0-.204.04-.204.09 0 .05-.107.197-.246.32-.131.122-.245.286-.245.36 0 .074-.058.131-.123.131-.107 0-.123.238-.123 1.639 0 1.04-.033 1.639-.082 1.639s-.082.385-.082.983.033.983.082.983.082.262.082.614c0 .492.025.615.123.615.09 0 .123.098.123.369 0 .204.041.368.082.368.049 0 .081.164.081.37 0 .204.041.368.082.368.049 0 .082.147.082.328 0 .18.041.327.082.327.049 0 .082.131.082.287 0 .156.041.287.082.287.049 0 .082.164.082.369 0 .27.032.368.122.368s.123.09.123.328c0 .18.041.328.082.328.049 0 .082.205.082.45 0 .246.041.451.082.451.049 0 .082.68.082 1.884 0 1.205-.033 1.885-.082 1.885s-.082.23-.082.533c0 .303-.033.532-.082.532s-.082.246-.082.574c0 .459-.024.573-.123.573-.09 0-.122.099-.122.41 0 .221-.033.41-.082.41-.041 0-.082.163-.082.368s-.033.369-.082.369c-.041 0-.082.164-.082.369 0 .204-.033.368-.082.368-.041 0-.082.164-.082.37 0 .204-.032.368-.081.368-.041 0-.082.106-.082.246 0 .163-.041.245-.123.245-.082 0-.123.09-.123.287 0 .156-.033.287-.082.287-.041 0-.082.106-.082.246 0 .13-.032.245-.082.245-.04 0-.081.132-.081.287 0 .156-.033.287-.082.287-.041 0-.082.131-.082.287 0 .156-.033.287-.082.287-.041 0-.082.106-.082.245 0 .164-.041.246-.123.246-.073 0-.122.074-.122.205 0 .115-.033.205-.082.205-.041 0-.082.106-.082.246 0 .13-.033.246-.082.246-.041 0-.082.13-.082.286 0 .156-.033.287-.082.287-.041 0-.082.074-.082.164 0 .09-.032.164-.081.164-.041 0-.082.13-.082.287 0 .155-.033.286-.082.286-.041 0-.082.074-.082.164 0 .09-.057.164-.123.164-.065 0-.123.074-.123.164 0 .09-.032.164-.081.164-.041 0-.082.13-.082.287 0 .155-.033.286-.082.286-.041 0-.082.074-.082.164 0 .09-.033.164-.082.164-.041 0-.082.09-.082.205 0 .115-.032.205-.082.205-.04 0-.081.106-.081.246 0 .163-.041.245-.123.245-.074 0-.123.074-.123.205 0 .115-.033.205-.082.205-.041 0-.082.074-.082.164 0 .09-.032.164-.082.164-.041 0-.081.074-.081.164 0 .09-.033.163-.082.163-.041 0-.082.115-.082.254 0 .222-.156.484-.287.484-.131 0-.286-.262-.286-.484 0-.139-.033-.254-.082-.254-.041 0-.082-.073-.082-.163 0-.09-.033-.164-.082-.164-.041 0-.082-.131-.082-.287 0-.156-.032-.287-.081-.287-.041 0-.082-.073-.082-.164 0-.09-.033-.163-.082-.163-.041 0-.082-.132-.082-.287 0-.197-.041-.287-.123-.287-.082 0-.123-.082-.123-.246 0-.14-.032-.246-.081-.246-.041 0-.082-.073-.082-.163 0-.09-.033-.164-.082-.164-.041 0-.082-.164-.082-.37 0-.204-.033-.368-.082-.368-.041 0-.082-.09-.082-.205 0-.114-.033-.204-.082-.204-.041 0-.081-.148-.081-.328 0-.238-.033-.328-.123-.328s-.123-.098-.123-.369c0-.204-.033-.368-.082-.368-.041 0-.082-.132-.082-.287 0-.156-.033-.287-.082-.287-.041 0-.082-.205-.082-.45 0-.246-.032-.451-.081-.451-.041 0-.082-.205-.082-.45 0-.247-.033-.452-.082-.452s-.082-.229-.082-.532c0-.418-.024-.533-.123-.533-.106 0-.123-.385-.123-2.95 0-2.564.017-2.949.123-2.949.099 0 .123-.115.123-.532 0-.304.033-.533.082-.533s.082-.164.082-.369.041-.368.082-.368c.049 0 .081-.164.081-.37 0-.204.041-.368.082-.368.049 0 .082-.115.082-.246 0-.139.041-.245.082-.245.049 0 .082-.132.082-.287 0-.197.041-.287.123-.287.065 0 .123-.074.123-.164 0-.09.04-.164.081-.164.049 0 .082-.074.082-.164 0-.09.041-.163.082-.163.049 0 .082-.09.082-.205 0-.115.041-.205.082-.205.049 0 .082-.074.082-.164 0-.09.041-.164.082-.164.049 0 .081-.09.081-.205 0-.13.049-.205.123-.205.066 0 .123-.073.123-.163 0-.132-.057-.164-.287-.164-.155 0-.286-.041-.286-.082 0-.123-.655-.099-.786.032a.426.426 0 0 0-.115.246c0 .074-.032.131-.081.131-.041 0-.082.09-.082.205 0 .115-.033.205-.082.205-.041 0-.082.074-.082.164 0 .09-.057.164-.123.164-.073 0-.123.074-.123.205 0 .114-.032.204-.081.204-.041 0-.082.074-.082.164 0 .09-.033.164-.082.164-.041 0-.082.131-.082.287 0 .156-.033.287-.082.287-.041 0-.082.106-.082.246 0 .13-.032.245-.082.245-.04 0-.081.132-.081.287 0 .156-.033.287-.082.287-.041 0-.082.147-.082.328 0 .237-.033.327-.123.327-.098 0-.123.115-.123.574 0 .328-.032.573-.082.573-.049 0-.081.287-.081.697s-.033.696-.082.696-.082.68-.082 1.885c0 1.204.033 1.884.082 1.884s.082.303.082.738c0 .434.032.737.081.737.05 0 .082.262.082.615 0 .491.025.614.123.614s.123.107.123.45c0 .247.041.452.082.452.049 0 .082.163.082.368s.041.369.081.369c.05 0 .082.147.082.328 0 .18.041.327.082.327.049 0 .082.132.082.287 0 .156.041.287.082.287.049 0 .082.106.082.246 0 .13.041.246.082.246.049 0 .081.163.081.368 0 .27.033.369.123.369.074 0 .123.074.123.205 0 .115.041.205.082.205.049 0 .082.106.082.245 0 .132.041.246.082.246.049 0 .081.131.081.287 0 .156.041.287.082.287.049 0 .082.074.082.164 0 .09.041.163.082.163.049 0 .082.132.082.287 0 .197.041.287.123.287.065 0 .123.074.123.164 0 .09-.058.164-.123.164-.066 0-.123.074-.123.164 0 .09-.033.163-.082.163-.041 0-.082.082-.082.189a.431.431 0 0 1-.164.303c-.09.066-.163.18-.163.262 0 .082-.033.148-.082.148-.041 0-.082.09-.082.205 0 .114-.041.204-.09.204-.131 0-.319.213-.319.361 0 .074-.033.131-.082.131-.041 0-.082.082-.082.188a.436.436 0 0 1-.164.304c-.09.065-.163.18-.163.262 0 .082-.033.147-.082.147-.041 0-.082.09-.082.205 0 .197.016.205.614.205.352 0 .614.033.614.082 0 .05.679.082 1.883.082 1.203 0 1.882-.033 1.882-.082 0-.05.287-.082.696-.082.565 0 .696-.025.696-.123s.106-.123.45-.123c.246 0 .45-.04.45-.082 0-.049.164-.082.369-.082.204 0 .368-.04.368-.082 0-.049.131-.082.287-.082.155 0 .286-.04.286-.081 0-.05.147-.082.328-.082.18 0 .327-.041.327-.082 0-.05.09-.082.205-.082.131 0 .204-.05.204-.123 0-.082.082-.123.246-.123.139 0 .245-.041.245-.082 0-.05.131-.082.287-.082.155 0 .286-.04.286-.082 0-.049.074-.082.164-.082.09 0 .164-.04.164-.082 0-.049.09-.082.205-.082.114 0 .204-.04.204-.082 0-.049.074-.082.164-.082.09 0 .164-.057.164-.123 0-.065.073-.122.163-.122.09 0 .164-.041.164-.082 0-.05.082-.082.188-.082a.432.432 0 0 0 .303-.164c.066-.09.18-.164.262-.164.082 0 .147-.04.147-.082 0-.05.074-.082.172-.082.18 0 .402-.18.402-.32 0-.048.065-.09.147-.09.082 0 .196-.073.262-.163.065-.09.188-.164.27-.164.155 0 .548-.344.548-.492 0-.04.074-.082.164-.082.09 0 .164-.04.164-.082 0-.049.041-.082.082-.082.09 0 .655-.532.655-.614 0-.066.221-.287.286-.287.082 0 .778-.73.778-.82 0-.04.041-.081.082-.081.114 0 .818-.705.818-.82 0-.04.057-.081.123-.081.065 0 .123-.058.123-.132 0-.073.114-.237.245-.36.139-.123.246-.295.246-.385 0-.082.074-.205.164-.27.09-.066.163-.18.163-.263 0-.082.041-.147.09-.147.14 0 .32-.222.32-.385 0-.082.073-.205.163-.27.09-.066.164-.181.164-.263 0-.082.041-.147.082-.147.049 0 .082-.09.082-.205 0-.131.049-.205.123-.205.065 0 .122-.074.122-.164 0-.09.041-.164.082-.164.049 0 .082-.09.082-.205 0-.114.041-.205.082-.205.049 0 .082-.073.082-.163 0-.09.041-.164.082-.164.049 0 .082-.074.082-.164 0-.09.04-.164.081-.164.049 0 .082-.131.082-.287 0-.196.041-.287.123-.287.066 0 .123-.073.123-.163 0-.09.041-.164.082-.164.049 0 .082-.131.082-.287 0-.156.04-.287.081-.287.05 0 .082-.114.082-.246 0-.139.041-.245.082-.245.049 0 .082-.132.082-.287 0-.156.041-.287.082-.287.049 0 .082-.164.082-.369 0-.204.041-.368.082-.368.049 0 .081-.205.081-.451 0-.344.025-.45.123-.45s.123-.123.123-.615c0-.352.033-.615.082-.615s.082-.286.082-.696.032-.697.082-.697c.049 0 .081-.057.081-.122 0-.066-.032-.123-.081-.123-.05 0-.082-.312-.082-.779s.032-.778.082-.778c.049 0 .081-.057.081-.123s-.032-.123-.081-.123c-.05 0-.082-.311-.082-.778s-.033-.779-.082-.779-.082-.229-.082-.532c0-.418-.025-.533-.123-.533s-.123-.106-.123-.45c0-.246-.032-.451-.081-.451-.041 0-.082-.131-.082-.287 0-.156-.033-.287-.082-.287-.041 0-.082-.163-.082-.368s-.033-.369-.082-.369c-.041 0-.082-.115-.082-.246 0-.14-.032-.246-.082-.246-.041 0-.081-.13-.081-.286 0-.156-.033-.287-.082-.287-.041 0-.082-.115-.082-.246 0-.164-.041-.246-.123-.246-.074 0-.123-.073-.123-.205 0-.114-.033-.204-.082-.204-.041 0-.081-.074-.081-.164 0-.09-.033-.164-.082-.164-.041 0-.082-.074-.082-.164 0-.09-.033-.164-.082-.164-.041 0-.082-.09-.082-.205 0-.114-.033-.205-.082-.205-.041 0-.082-.073-.082-.163 0-.09-.057-.164-.122-.164-.074 0-.123-.074-.123-.205 0-.115-.033-.205-.082-.205-.041 0-.082-.066-.082-.147 0-.082-.074-.197-.164-.263-.09-.065-.163-.18-.163-.262 0-.082-.033-.147-.082-.147-.041 0-.082-.058-.082-.123a.126.126 0 0 0-.123-.123c-.065 0-.123-.066-.123-.148 0-.082-.073-.196-.163-.262-.09-.065-.164-.188-.164-.27 0-.09-.107-.262-.246-.385-.131-.123-.245-.287-.245-.36 0-.075-.058-.132-.123-.132-.066 0-.123-.04-.123-.082 0-.09-.696-.82-.777-.82-.066 0-.287-.22-.287-.286 0-.066-.548-.614-.614-.614-.065 0-.286-.222-.286-.287 0-.107-.573-.615-.696-.615-.131 0-.369-.188-.369-.287 0-.114-.409-.45-.548-.45-.082 0-.205-.074-.27-.164-.066-.09-.164-.164-.229-.164-.131 0-.344-.197-.344-.32 0-.049-.09-.09-.205-.09-.114 0-.205-.04-.205-.081 0-.05-.065-.082-.147-.082-.082 0-.196-.074-.262-.164a.432.432 0 0 0-.303-.164c-.106 0-.188-.041-.188-.082 0-.05-.074-.082-.164-.082-.09 0-.163-.057-.163-.123 0-.065-.074-.123-.164-.123-.09 0-.164-.04-.164-.082 0-.049-.09-.082-.204-.082-.115 0-.205-.04-.205-.082 0-.049-.074-.082-.164-.082-.09 0-.164-.04-.164-.081 0-.05-.131-.082-.286-.082-.156 0-.287-.041-.287-.082 0-.05-.106-.082-.245-.082-.164 0-.246-.041-.246-.123 0-.074-.073-.123-.204-.123-.115 0-.205-.041-.205-.082 0-.05-.147-.082-.327-.082-.181 0-.328-.04-.328-.082 0-.049-.131-.082-.286-.082-.156 0-.287-.04-.287-.082 0-.049-.164-.082-.368-.082-.205 0-.369-.04-.369-.082 0-.049-.229-.082-.532-.082-.303 0-.532-.032-.532-.082 0-.049-.229-.081-.532-.081-.417 0-.532-.025-.532-.123 0-.107-.278-.123-2.046-.123-1.769 0-2.047.016-2.047.123Z" fill="#fff"/><path d="M242.815 63.044c0 .074-.074.123-.172.123-.197 0-.401.18-.401.36 0 .074-.033.132-.082.132-.041 0-.082.114-.082.245 0 .18.082.336.287.533.376.385.769.393 1.105.041.123-.14.27-.246.319-.246.049 0 .09-.13.09-.287 0-.196-.041-.286-.123-.286-.065 0-.123-.058-.123-.131 0-.164-.196-.36-.36-.36-.073 0-.131-.058-.131-.124 0-.065-.073-.123-.163-.123-.09 0-.164.058-.164.123ZM13.197 63.736c0 .049-.23.082-.532.082-.418 0-.532.024-.532.123 0 .09-.098.122-.368.122-.205 0-.369.033-.369.082 0 .041-.164.082-.368.082-.205 0-.369.033-.369.082 0 .041-.106.082-.245.082-.131 0-.246.033-.246.082 0 .041-.09.082-.204.082-.115 0-.205.033-.205.082 0 .04-.107.082-.246.082-.13 0-.245.033-.245.082 0 .04-.09.082-.205.082-.13 0-.205.049-.205.123 0 .065-.073.123-.163.123-.09 0-.164.032-.164.081 0 .041-.074.082-.164.082-.09 0-.163.033-.163.082 0 .041-.09.082-.205.082-.115 0-.205.033-.205.082 0 .041-.057.082-.13.082-.148 0-.36.189-.36.32 0 .049-.083.09-.19.09a.434.434 0 0 0-.302.164c-.065.09-.18.164-.262.164-.082 0-.147.032-.147.081 0 .042-.041.082-.09.082-.09 0-.32.205-.32.287 0 .098-.409.45-.532.45-.065 0-.122.034-.122.083 0 .04-.041.082-.082.082-.107 0-.491.368-.491.467 0 .04-.074.123-.164.188-.09.066-.164.18-.164.262 0 .082-.04.148-.09.148-.098 0-.32.205-.32.303 0 .041-.073.123-.163.189-.09.065-.164.163-.164.229 0 .131-.196.344-.319.344-.049 0-.09.082-.09.189a.435.435 0 0 1-.164.303c-.09.065-.163.18-.163.262 0 .082-.033.147-.082.147-.041 0-.082.09-.082.205 0 .115-.033.205-.082.205-.04 0-.082.074-.082.164 0 .09-.033.164-.082.164-.04 0-.082.073-.082.164 0 .09-.057.163-.122.163-.074 0-.123.074-.123.205 0 .115-.033.205-.082.205-.04 0-.082.074-.082.164 0 .09-.033.164-.082.164-.04 0-.082.13-.082.287 0 .155-.032.286-.081.286-.041 0-.082.107-.082.246 0 .131-.033.246-.082.246-.041 0-.082.164-.082.369 0 .27-.033.368-.123.368-.098 0-.123.107-.123.451 0 .246-.032.45-.081.45-.05 0-.082.23-.082.533 0 .303-.033.533-.082.533-.05 0-.082.532-.082 1.434 0 .901.033 1.434.082 1.434s.082.229.082.532c0 .303.032.533.082.533.049 0 .081.23.081.532 0 .418.025.533.123.533.082 0 .123.09.123.287 0 .155.04.286.082.286.049 0 .082.107.082.246 0 .131.04.246.082.246.049 0 .081.131.081.287 0 .155.041.286.082.286.05 0 .082.132.082.287 0 .156.041.287.082.287.05 0 .082.074.082.164 0 .09.057.164.123.164.065 0 .122.074.122.164 0 .09.041.163.082.163.05 0 .082.09.082.205 0 .115.041.205.082.205.05 0 .082.066.082.148 0 .082.074.196.164.262.09.065.163.188.163.27 0 .164.18.385.32.385.049 0 .09.066.09.148 0 .082.073.197.163.262.09.066.164.164.164.221 0 .058.041.107.082.107.049 0 .082.057.082.13 0 .124.188.361.286.361.066 0 .287.222.287.287 0 .066.548.615.614.615.065 0 .286.22.286.286 0 .099.41.451.532.451.066 0 .123.033.123.082 0 .041.05.082.107.082.057 0 .155.074.22.164.066.09.18.164.263.164.081 0 .147.04.147.09 0 .14.22.32.385.32.081 0 .204.073.27.163.065.09.18.164.262.164.082 0 .147.033.147.082 0 .041.09.082.205.082.13 0 .204.05.204.123 0 .065.074.123.164.123.09 0 .164.032.164.082 0 .04.073.082.163.082.09 0 .164.032.164.081 0 .041.131.083.287.083.155 0 .286.032.286.081 0 .041.074.082.164.082.09 0 .164.033.164.082 0 .041.163.082.368.082.27 0 .368.033.368.123s.099.123.369.123c.204 0 .368.033.368.082 0 .04.164.082.368.082.205 0 .369.033.369.082s.31.082.778.082c.466 0 .777.032.777.082 0 .049.426.082 1.105.082.68 0 1.105-.033 1.105-.082 0-.05.311-.082.778-.082s.778-.033.778-.082c0-.05.163-.082.368-.082s.368-.041.368-.082c0-.05.164-.082.369-.082.27 0 .368-.033.368-.123 0-.082.082-.123.246-.123.139 0 .245-.04.245-.082 0-.049.09-.082.205-.082.114 0 .205-.04.205-.082 0-.049.114-.081.245-.081.14 0 .246-.041.246-.082 0-.05.09-.082.204-.082.115 0 .205-.041.205-.082 0-.05.074-.082.164-.082.09 0 .163-.058.163-.123 0-.066.074-.123.164-.123.09 0 .164-.041.164-.082 0-.05.082-.082.188-.082a.434.434 0 0 0 .303-.164c.066-.09.18-.164.262-.164.082 0 .147-.04.147-.082 0-.049.09-.081.205-.081.115 0 .205-.041.205-.082 0-.14.384-.492.532-.492.065 0 .122-.041.122-.082 0-.05.041-.082.082-.082.09 0 .492-.369.492-.45 0-.066.384-.451.45-.451.065 0 .45-.385.45-.45 0-.083.401-.451.491-.451.041 0 .082-.074.082-.164 0-.09.04-.164.082-.164.049 0 .082-.05.082-.107 0-.057.073-.155.163-.221.09-.066.164-.172.164-.246 0-.073.074-.18.164-.246a.435.435 0 0 0 .164-.303c0-.114.049-.188.122-.188.066 0 .123-.074.123-.164 0-.09.041-.164.082-.164.05 0 .082-.074.082-.164 0-.09.04-.164.082-.164.049 0 .082-.09.082-.204 0-.115.04-.205.081-.205.05 0 .082-.074.082-.164 0-.09.041-.164.082-.164.05 0 .082-.09.082-.205 0-.131.05-.205.123-.205.082 0 .123-.082.123-.246 0-.139.04-.245.081-.245.05 0 .082-.131.082-.287 0-.156.041-.287.082-.287.05 0 .082-.115.082-.246v-.246H20.393l-.197.205c-.115.107-.205.254-.205.328 0 .066-.032.123-.082.123-.04 0-.081.04-.081.09 0 .09-.205.32-.287.32-.065 0-.614.549-.614.614 0 .074-.22.287-.303.287-.04 0-.122.074-.188.164-.066.09-.18.164-.262.164-.082 0-.147.032-.147.082 0 .04-.09.081-.205.081-.13 0-.205.05-.205.123 0 .066-.073.123-.163.123-.09 0-.164.033-.164.082 0 .041-.107.082-.246.082-.13 0-.245.033-.245.082 0 .041-.131.082-.287.082-.155 0-.286.033-.286.082 0 .05-.532.082-1.433.082-.9 0-1.432-.033-1.432-.082 0-.05-.164-.082-.369-.082-.204 0-.368-.04-.368-.082 0-.049-.106-.082-.246-.082-.13 0-.245-.04-.245-.082 0-.049-.09-.082-.205-.082-.114 0-.205-.04-.205-.09 0-.123-.212-.32-.343-.32-.066 0-.164-.073-.23-.163-.065-.09-.188-.164-.27-.164-.147 0-.384-.18-.384-.287 0-.065-.385-.45-.45-.45-.082 0-.45-.402-.45-.492a.082.082 0 0 0-.083-.082c-.04 0-.082-.057-.082-.131 0-.148-.188-.36-.319-.36-.049 0-.09-.074-.09-.165 0-.09-.033-.163-.082-.163-.04 0-.082-.09-.082-.205 0-.115-.032-.205-.081-.205-.041 0-.082-.074-.082-.164 0-.09-.033-.164-.082-.164-.041 0-.082-.09-.082-.205 0-.114-.033-.204-.082-.204-.04 0-.082-.148-.082-.328 0-.18-.032-.328-.082-.328-.04 0-.081-.205-.081-.45 0-.345-.025-.451-.123-.451-.107 0-.123-.18-.123-1.106 0-.926.016-1.106.123-1.106.098 0 .123-.115.123-.533 0-.303.032-.533.081-.533.05 0 .082-.114.082-.245 0-.14.041-.246.082-.246.05 0 .082-.09.082-.205 0-.115.041-.205.082-.205.049 0 .082-.106.082-.23 0-.13.065-.278.163-.343a.435.435 0 0 0 .164-.304c0-.114.05-.188.123-.188.065 0 .123-.057.123-.131 0-.074.114-.238.245-.36.14-.124.246-.255.246-.287 0-.066.213-.287.286-.287.066 0 .614-.55.614-.615 0-.106.238-.286.385-.286.082 0 .205-.074.27-.164.066-.09.18-.164.262-.164.082 0 .147-.041.147-.082 0-.05.09-.082.205-.082.131 0 .205-.05.205-.123 0-.066.074-.123.164-.123.09 0 .163-.04.163-.082 0-.049.164-.082.369-.082.204 0 .368-.04.368-.082 0-.049.205-.082.45-.082.246 0 .45-.04.45-.082 0-.049.287-.081.696-.081.41 0 .696.032.696.082 0 .04.205.081.45.081.246 0 .45.033.45.082 0 .041.131.082.287.082.155 0 .287.033.287.082 0 .041.114.082.245.082.164 0 .246.041.246.123 0 .074.073.123.188.123.098 0 .237.074.303.164.065.09.172.164.245.164.074 0 .18.073.246.164.066.09.205.163.303.163.106 0 .188.041.188.082 0 .09.532.656.614.656.107 0 .287.237.287.385 0 .082.073.205.163.27.09.066.164.172.164.246 0 .074.074.18.164.246.09.066.164.205.164.303v.189h7.367v-.287c0-.156-.033-.287-.082-.287-.041 0-.082-.115-.082-.246 0-.14-.033-.246-.082-.246-.04 0-.082-.13-.082-.286 0-.156-.032-.287-.081-.287-.041 0-.082-.115-.082-.246 0-.164-.041-.246-.123-.246-.074 0-.123-.073-.123-.205 0-.114-.033-.204-.082-.204-.04 0-.082-.074-.082-.164 0-.09-.032-.164-.082-.164-.04 0-.081-.09-.081-.205 0-.115-.033-.205-.082-.205-.041 0-.082-.074-.082-.164 0-.09-.033-.164-.082-.164-.04 0-.082-.073-.082-.163 0-.09-.057-.164-.123-.164-.073 0-.122-.074-.122-.189a.435.435 0 0 0-.164-.303c-.09-.066-.164-.172-.164-.246 0-.073-.074-.18-.164-.245-.09-.066-.163-.164-.163-.222 0-.057-.033-.106-.082-.106-.041 0-.082-.074-.082-.164 0-.09-.04-.164-.082-.164-.09 0-.491-.369-.491-.45 0-.066-.385-.451-.45-.451-.066 0-.614-.557-.614-.615 0-.106-.238-.287-.369-.287-.073 0-.245-.114-.368-.245-.123-.14-.286-.246-.36-.246-.074 0-.131-.058-.131-.123a.126.126 0 0 0-.123-.123c-.065 0-.123-.04-.123-.082 0-.05-.065-.082-.147-.082-.082 0-.196-.074-.262-.164a.434.434 0 0 0-.303-.164c-.106 0-.188-.04-.188-.082 0-.049-.074-.081-.164-.081-.09 0-.164-.058-.164-.123 0-.066-.073-.123-.163-.123-.09 0-.164-.041-.164-.082 0-.05-.13-.082-.287-.082-.155 0-.286-.041-.286-.082 0-.05-.074-.082-.164-.082-.09 0-.163-.041-.163-.082 0-.05-.131-.082-.287-.082-.155 0-.286-.04-.286-.082 0-.049-.164-.082-.369-.082-.204 0-.368-.04-.368-.082 0-.049-.148-.082-.328-.082-.237 0-.327-.032-.327-.123 0-.098-.131-.122-.655-.122-.385 0-.655-.033-.655-.082 0-.05-.614-.082-1.678-.082s-1.678.032-1.678.082ZM41.688 63.736c0 .049-.23.082-.532.082-.418 0-.532.024-.532.123 0 .081-.09.122-.287.122-.155 0-.286.033-.286.082 0 .041-.164.082-.369.082-.204 0-.368.033-.368.082 0 .041-.106.082-.246.082-.13 0-.245.033-.245.082 0 .041-.09.082-.205.082-.114 0-.205.033-.205.082 0 .04-.073.082-.163.082-.09 0-.164.033-.164.082 0 .04-.074.082-.164.082-.09 0-.163.057-.163.123 0 .073-.074.123-.205.123-.115 0-.205.032-.205.081 0 .041-.073.082-.163.082-.09 0-.164.033-.164.082 0 .041-.074.082-.164.082-.18 0-.573.336-.573.492 0 .04-.073.082-.164.082-.09 0-.163.033-.163.082 0 .04-.05.082-.107.082-.057 0-.155.073-.22.164-.066.09-.164.163-.23.163-.13 0-.344.197-.344.32 0 .05-.04.09-.082.09-.155 0-.982.893-.982 1.065 0 .09-.04.164-.082.164-.139 0-.49.385-.49.533 0 .147-.353.532-.492.532-.041 0-.082.074-.082.164 0 .09-.033.164-.082.164-.04 0-.082.09-.082.205 0 .115-.032.205-.081.205-.041 0-.082.073-.082.164 0 .09-.033.163-.082.163-.041 0-.082.074-.082.164 0 .09-.033.164-.082.164-.04 0-.082.09-.082.205 0 .131-.049.205-.123.205-.065 0-.122.074-.122.164 0 .09-.033.164-.082.164-.041 0-.082.09-.082.204 0 .115-.033.205-.082.205-.04 0-.082.107-.082.246 0 .131-.032.246-.082.246-.04 0-.081.13-.081.287 0 .155-.033.286-.082.286-.041 0-.082.148-.082.328 0 .18-.033.328-.082.328-.041 0-.082.164-.082.369 0 .27-.033.368-.123.368-.098 0-.122.115-.122.533 0 .303-.033.532-.082.532-.05 0-.082.754-.082 2.09 0 1.335.032 2.09.082 2.09.049 0 .082.261.082.614 0 .491.024.614.122.614.09 0 .123.098.123.369 0 .205.041.368.082.368.049 0 .082.107.082.246 0 .131.04.246.082.246.049 0 .082.164.082.369s.04.368.081.368c.05 0 .082.132.082.287 0 .156.041.287.082.287.05 0 .082.074.082.164 0 .09.04.164.082.164.049 0 .082.074.082.164 0 .09.057.163.122.163.074 0 .123.074.123.205 0 .115.041.205.082.205.05 0 .082.074.082.164 0 .09.04.164.082.164.049 0 .082.09.082.205 0 .114.04.205.081.205.05 0 .082.057.082.13 0 .148.189.361.32.361.049 0 .09.074.09.164 0 .09.04.164.081.164.05 0 .082.05.082.106 0 .058.074.156.164.222.09.065.164.164.164.23 0 .13.196.343.32.343.048 0 .09.041.09.09 0 .05.187.263.408.484.23.221.41.434.41.483 0 .05.04.09.09.09.049 0 .262.18.483.41.22.23.474.41.565.41.098 0 .171.04.171.082 0 .155.393.491.573.491.09 0 .164.033.164.082 0 .041.058.082.131.082.148 0 .36.189.36.32 0 .049.09.09.205.09.115 0 .205.032.205.082 0 .04.073.082.163.082.09 0 .164.032.164.081 0 .041.115.083.246.083.139 0 .245.032.245.081 0 .041.09.082.205.082.115 0 .205.033.205.082 0 .041.114.082.245.082.164 0 .246.041.246.123 0 .082.09.123.286.123.156 0 .287.033.287.082 0 .04.163.082.368.082s.368.033.368.082.312.082.778.082c.467 0 .778.032.778.082 0 .049.384.082.982.082s.982-.033.982-.082c0-.05.27-.082.655-.082s.655-.033.655-.082c0-.05.164-.082.369-.082.204 0 .368-.041.368-.082 0-.05.114-.082.245-.082.164 0 .246-.04.246-.123 0-.065.074-.123.164-.123.09 0 .163-.04.163-.082 0-.049.123-.082.27-.082.172 0 .312-.057.385-.163a.434.434 0 0 1 .303-.164c.107 0 .188-.041.188-.082 0-.05.074-.082.164-.082.09 0 .164-.041.164-.082 0-.14.385-.492.532-.492.123 0 .532-.344.532-.45 0-.025.09-.14.205-.246.155-.164.278-.205.614-.205.352 0 .409.025.409.164 0 .09.057.164.123.164.082 0 .123.09.123.286 0 .156.04.287.081.287.05 0 .082.164.082.369s.041.369.082.369c.05 0 .082.106.082.245 0 .132.04.246.082.246.049 0 .082.09.082.205v.205h5.402V77.5c0-8.907-.024-13.438-.081-13.438-.041 0-.082-.057-.082-.123 0-.106-.426-.122-3.316-.122h-3.315v1.27c0 1.22-.008 1.27-.164 1.27-.155 0-.573-.328-.573-.451 0-.082-.4-.45-.49-.45a.088.088 0 0 1-.083-.083c0-.049-.057-.082-.13-.082-.148 0-.36-.188-.36-.32 0-.048-.09-.09-.205-.09-.115 0-.205-.04-.205-.081 0-.05-.074-.082-.164-.082-.09 0-.164-.041-.164-.082 0-.05-.073-.082-.163-.082-.09 0-.164-.041-.164-.082 0-.05-.09-.082-.205-.082-.114 0-.204-.04-.204-.082 0-.049-.107-.082-.246-.082-.13 0-.245-.04-.245-.082 0-.049-.164-.082-.369-.082-.27 0-.368-.032-.368-.123 0-.098-.115-.122-.532-.122-.303 0-.532-.033-.532-.082 0-.05-.557-.082-1.515-.082-.957 0-1.514.032-1.514.082Zm3.765 6.636c0 .041.148.082.328.082.18 0 .327.033.327.082 0 .041.131.082.287.082.196 0 .286.041.286.123 0 .066.074.123.164.123.09 0 .164.033.164.082 0 .04.082.082.188.082.098 0 .237.074.303.164.065.09.164.164.23.164.13 0 .343.196.343.32 0 .048.04.09.082.09.139 0 .655.556.655.696 0 .155.188.368.319.368.049 0 .09.074.09.164 0 .09.04.164.082.164.049 0 .082.074.082.164 0 .09.04.164.081.164.05 0 .082.09.082.205 0 .114.041.204.082.204.05 0 .082.107.082.246 0 .131.041.246.082.246.049 0 .082.131.082.287 0 .156.04.287.082.287.049 0 .081.23.081.532 0 .418.025.533.123.533.107 0 .123.213.123 1.434 0 1.22-.016 1.434-.123 1.434-.098 0-.122.114-.122.532 0 .303-.033.533-.082.533-.041 0-.082.13-.082.286 0 .156-.033.287-.082.287-.041 0-.082.107-.082.246 0 .131-.033.246-.082.246-.04 0-.082.09-.082.205 0 .114-.032.204-.081.204-.041 0-.082.058-.082.132 0 .147-.189.36-.32.36-.049 0-.09.074-.09.164 0 .172-.663.901-.818.901-.041 0-.082.041-.082.082 0 .156-.565.656-.737.656-.09 0-.164.032-.164.082 0 .04-.073.081-.163.081-.09 0-.164.058-.164.123 0 .066-.074.123-.164.123-.09 0-.163.033-.163.082 0 .041-.131.082-.287.082-.156 0-.287.033-.287.082 0 .041-.163.082-.368.082s-.368.033-.368.082c0 .05-.344.082-.86.082-.515 0-.86-.033-.86-.082 0-.05-.204-.082-.45-.082-.245 0-.45-.04-.45-.082 0-.049-.13-.082-.286-.082-.156 0-.287-.04-.287-.082 0-.049-.073-.082-.163-.082-.09 0-.164-.057-.164-.123 0-.081-.082-.123-.27-.123-.172 0-.311-.057-.385-.163-.066-.09-.18-.164-.262-.164-.082 0-.147-.041-.147-.082 0-.05-.041-.082-.09-.082-.115 0-.32-.205-.32-.32 0-.049-.065-.09-.147-.09-.082 0-.196-.073-.262-.164-.065-.09-.147-.163-.188-.163-.115 0-.303-.23-.303-.37 0-.073-.106-.245-.246-.368-.13-.123-.245-.287-.245-.36 0-.074-.057-.132-.123-.132-.074 0-.123-.073-.123-.204 0-.115-.032-.205-.082-.205-.04 0-.081-.074-.081-.164 0-.09-.033-.164-.082-.164-.041 0-.082-.074-.082-.164 0-.09-.033-.164-.082-.164-.041 0-.082-.163-.082-.368s-.033-.37-.082-.37c-.04 0-.082-.204-.082-.45 0-.246-.032-.45-.081-.45-.05 0-.082-.508-.082-1.352 0-.844.032-1.352.081-1.352.05 0 .082-.205.082-.45 0-.247.041-.451.082-.451.05 0 .082-.115.082-.246 0-.14.041-.246.082-.246.049 0 .082-.09.082-.205 0-.115.04-.205.082-.205.049 0 .081-.073.081-.164 0-.09.041-.163.082-.163.05 0 .082-.09.082-.205 0-.131.05-.205.123-.205.066 0 .123-.066.123-.148 0-.082.074-.196.163-.262.09-.065.164-.18.164-.262 0-.082.041-.147.082-.147.05 0 .082-.041.082-.09 0-.099.205-.32.286-.32.033 0 .164-.115.287-.246.123-.14.286-.246.36-.246.074 0 .131-.057.131-.123 0-.065.05-.123.106-.123.058 0 .156-.073.222-.163.065-.09.18-.164.261-.164.082 0 .148-.041.148-.082 0-.05.073-.082.164-.082.09 0 .163-.041.163-.082 0-.05.09-.082.205-.082.13 0 .205-.05.205-.123 0-.082.081-.123.245-.123.14 0 .246-.04.246-.082 0-.049.204-.082.45-.082.245 0 .45-.04.45-.082 0-.049.426-.082 1.105-.082.68 0 1.105.033 1.105.082ZM109.708 63.737c0 .049-.229.082-.532.082-.417 0-.532.024-.532.122 0 .082-.09.123-.286.123-.156 0-.287.033-.287.082 0 .041-.106.082-.245.082-.131 0-.246.033-.246.082 0 .041-.131.082-.287.082-.155 0-.286.033-.286.082 0 .041-.074.082-.164.082-.09 0-.164.033-.164.082 0 .04-.09.082-.204.082-.115 0-.205.033-.205.082 0 .04-.073.082-.164.082-.09 0-.163.057-.163.123 0 .065-.074.122-.164.122-.09 0-.164.033-.164.082 0 .041-.082.082-.188.082a.436.436 0 0 0-.303.164c-.065.09-.164.164-.229.164-.131 0-.344.197-.344.32 0 .049-.057.09-.123.09-.065 0-.122.033-.122.082 0 .04-.058.082-.131.082-.074 0-.238.106-.361.246-.122.13-.27.245-.319.245-.049 0-.09.041-.09.082 0 .09-.696.82-.778.82-.073 0-.286.22-.286.303 0 .04-.074.123-.164.188-.09.066-.163.172-.163.246 0 .074-.074.18-.164.246a.435.435 0 0 0-.164.303c0 .106-.041.188-.09.188-.131 0-.319.213-.319.36 0 .075-.033.132-.082.132-.041 0-.082.057-.082.123 0 .065-.033.123-.082.123-.041 0-.082.074-.082.164 0 .09-.032.163-.082.163-.04 0-.081.074-.081.164 0 .09-.058.164-.123.164-.074 0-.123.074-.123.205 0 .115-.033.205-.082.205-.041 0-.082.074-.082.164 0 .09-.032.164-.082.164-.04 0-.081.13-.081.286 0 .156-.033.287-.082.287-.041 0-.082.074-.082.164 0 .09-.033.164-.082.164-.04 0-.082.131-.082.287 0 .196-.04.287-.123.287-.09 0-.122.09-.122.327 0 .18-.033.328-.082.328-.041 0-.082.164-.082.369s-.033.368-.082.368c-.05 0-.082.263-.082.615s-.033.614-.082.614-.082.754-.082 2.09c0 1.335.033 2.089.082 2.089.05 0 .082.262.082.614 0 .353.033.615.082.615.05 0 .082.164.082.369s.04.368.082.368c.049 0 .082.148.082.328 0 .238.032.328.122.328.082 0 .123.09.123.287 0 .155.041.287.082.287.049 0 .082.073.082.163 0 .09.041.164.082.164.049 0 .082.131.082.287 0 .156.041.287.081.287.05 0 .082.073.082.164 0 .09.041.163.082.163.049 0 .082.09.082.205 0 .131.049.205.123.205.065 0 .123.074.123.164 0 .09.041.164.081.164.05 0 .082.082.082.188 0 .099.074.238.164.303.09.066.164.18.164.263 0 .082.041.147.082.147.049 0 .081.074.081.164 0 .09.058.164.123.164.066 0 .123.05.123.106 0 .058.074.156.164.222.09.065.164.172.164.246 0 .073.073.18.163.245.09.066.164.148.164.189 0 .082.213.303.286.303.066 0 .614.549.614.614 0 .074.221.287.287.287.033 0 .164.107.286.246.123.131.287.246.361.246.073 0 .131.032.131.082 0 .04.057.082.122.082.066 0 .123.04.123.09 0 .123.213.32.344.32.065 0 .164.073.229.163.066.09.205.164.303.164.106 0 .188.033.188.082 0 .04.074.082.164.082.09 0 .164.057.164.123 0 .065.073.123.163.123.091 0 .164.032.164.082 0 .04.09.082.205.082.114 0 .204.032.204.082 0 .04.074.081.164.081.09 0 .164.033.164.082 0 .041.131.082.286.082.156 0 .287.033.287.082 0 .041.115.082.246.082.163 0 .245.041.245.123 0 .09.098.123.368.123.205 0 .369.033.369.082 0 .04.164.082.368.082.205 0 .369.033.369.082s.736.082 2.046.082c1.31 0 2.046-.033 2.046-.082 0-.05.164-.082.369-.082s.368-.041.368-.082c0-.05.164-.082.369-.082.27 0 .368-.033.368-.123 0-.066.074-.123.164-.123.09 0 .163-.04.163-.082 0-.049.131-.082.287-.082.155 0 .286-.04.286-.082 0-.049.074-.082.164-.082.09 0 .164-.04.164-.081 0-.05.074-.082.164-.082.09 0 .163-.041.163-.082 0-.05.058-.082.123-.082a.126.126 0 0 0 .123-.123c0-.066.057-.123.131-.123.074 0 .237-.115.36-.246.123-.14.295-.246.368-.246.131 0 .369-.18.369-.286 0-.058.384-.451.45-.451.025 0 .041.475.041 1.065 0 .656-.033 1.065-.082 1.065-.041 0-.082.205-.082.45 0 .247-.033.451-.082.451-.041 0-.082.132-.082.287 0 .156-.032.287-.081.287-.041 0-.082.106-.082.246 0 .13-.033.246-.082.246-.041 0-.082.09-.082.204 0 .132-.049.205-.123.205-.065 0-.123.066-.123.148 0 .082-.073.196-.163.262-.09.066-.164.147-.164.188 0 .082-.548.631-.63.631-.041 0-.123.074-.189.164-.065.09-.18.164-.262.164-.081 0-.147.041-.147.09 0 .14-.221.32-.401.32-.098 0-.172.032-.172.082 0 .04-.106.082-.245.082-.131 0-.246.032-.246.082 0 .04-.131.081-.287.081-.155 0-.286.033-.286.082 0 .041-.205.082-.45.082-.344 0-.451.025-.451.123 0 .107-.212.123-1.432.123s-1.433-.016-1.433-.123c0-.098-.106-.123-.45-.123-.245 0-.45-.04-.45-.082 0-.049-.164-.082-.368-.082-.205 0-.369-.04-.369-.081 0-.05-.073-.082-.163-.082-.091 0-.164-.041-.164-.082 0-.05-.074-.082-.164-.082-.09 0-.164-.041-.164-.082 0-.05-.09-.082-.204-.082-.131 0-.205-.05-.205-.123 0-.066-.057-.123-.131-.123-.074 0-.237-.115-.36-.246-.123-.14-.287-.246-.36-.246-.18 0-.541-.36-.541-.532 0-.131-.188-.369-.286-.369-.115 0-.287-.246-.287-.401 0-.099-.032-.172-.081-.172-.041 0-.082-.058-.082-.131 0-.353-.066-.361-3.512-.361h-3.283v.696c0 .41.033.697.082.697.05 0 .082.164.082.369 0 .204.041.368.082.368.05 0 .082.131.082.287 0 .156.04.287.082.287.049 0 .082.074.082.164 0 .09.057.164.122.164.066 0 .123.073.123.163 0 .09.041.164.082.164.049 0 .082.09.082.205 0 .115.041.205.082.205.049 0 .082.066.082.148 0 .081.073.196.163.262.09.065.164.204.164.303 0 .106.041.188.082.188.139 0 .491.385.491.533 0 .065.041.123.082.123.049 0 .082.04.082.09 0 .09.204.32.286.32.058 0 .614.548.614.614 0 .106.41.45.532.45.148 0 .532.353.532.492 0 .041.074.082.172.082.099 0 .279.107.401.246.123.131.287.246.361.246.073 0 .131.032.131.082 0 .04.09.082.204.082.115 0 .205.032.205.082 0 .04.074.081.164.081.09 0 .163.058.163.123 0 .066.074.123.164.123.09 0 .164.033.164.082 0 .041.09.082.204.082.115 0 .205.033.205.082 0 .041.074.082.164.082.09 0 .163.033.163.082 0 .041.131.082.287.082.155 0 .286.033.286.082 0 .041.115.082.246.082.164 0 .246.041.246.123 0 .082.09.123.286.123.156 0 .287.032.287.081 0 .041.163.082.368.082s.368.033.368.082.23.082.532.082c.303 0 .533.033.533.082s.229.082.532.082c.303 0 .532.033.532.082s.655.082 1.801.082 1.801-.033 1.801-.082.229-.082.532-.082c.302 0 .532-.033.532-.082s.204-.082.45-.082c.245 0 .45-.041.45-.082 0-.049.164-.082.368-.082.205 0 .369-.041.369-.082 0-.049.114-.081.245-.081.164 0 .246-.041.246-.123 0-.082.09-.123.287-.123.155 0 .286-.041.286-.082 0-.049.115-.082.246-.082.139 0 .245-.041.245-.082 0-.049.09-.082.205-.082.114 0 .204-.041.204-.082 0-.049.074-.082.164-.082.09 0 .164-.041.164-.082 0-.049.074-.082.164-.082.09 0 .163-.057.163-.123 0-.065.058-.123.123-.123.066 0 .123-.041.123-.081 0-.05.057-.082.131-.082.074 0 .237-.115.36-.246.123-.14.295-.246.368-.246.131 0 .369-.18.369-.287 0-.065.548-.614.614-.614.065 0 .286-.222.286-.287 0-.082.565-.615.655-.615.041 0 .082-.073.082-.172 0-.098.115-.278.246-.401.139-.123.245-.279.245-.344 0-.058.074-.164.164-.23a.435.435 0 0 0 .164-.303c0-.115.049-.188.122-.188.066 0 .123-.074.123-.164 0-.09.041-.164.082-.164.049 0 .082-.09.082-.205 0-.115.041-.205.082-.205.049 0 .082-.073.082-.164 0-.09.041-.163.081-.163.05 0 .082-.132.082-.287 0-.156.041-.287.082-.287.049 0 .082-.115.082-.246 0-.164.041-.246.123-.246.065 0 .123-.073.123-.163 0-.09.041-.164.081-.164.05 0 .082-.164.082-.369s.041-.369.082-.369c.049 0 .082-.164.082-.368 0-.205.041-.37.082-.37.049 0 .082-.228.082-.532 0-.303.033-.532.082-.532s.081-.41.081-1.065c0-.894.017-1.066.123-1.066a.126.126 0 0 0 .123-.122.126.126 0 0 0-.123-.123c-.106 0-.123-1.418-.123-12.25 0-10.831.017-12.249.123-12.249.066 0 .123-.04.123-.082 0-.049-.057-.082-.123-.082a.127.127 0 0 1-.123-.122c0-.107-.343-.123-2.578-.123h-2.579v.204c0 .115-.032.205-.081.205-.041 0-.082.148-.082.328 0 .18-.033.328-.082.328-.041 0-.082.13-.082.287 0 .196-.041.286-.123.286-.082 0-.123.09-.123.287 0 .156-.032.287-.082.287-.04 0-.081.106-.081.246 0 .237-.017.245-.369.245-.204 0-.368-.04-.368-.082 0-.049-.057-.081-.123-.081-.147 0-.532-.353-.532-.492 0-.041-.041-.082-.09-.082-.049 0-.196-.115-.319-.246-.123-.14-.27-.246-.328-.246-.114 0-.327-.204-.327-.32 0-.048-.082-.09-.188-.09a.432.432 0 0 1-.303-.163c-.066-.09-.18-.164-.262-.164-.082 0-.148-.041-.148-.082 0-.05-.131-.082-.286-.082-.156 0-.287-.04-.287-.082 0-.049-.073-.082-.163-.082-.09 0-.164-.04-.164-.082 0-.049-.131-.082-.287-.082-.196 0-.286-.04-.286-.122 0-.099-.106-.123-.45-.123-.246 0-.451-.041-.451-.082 0-.05-.712-.082-1.964-.082-1.253 0-1.965.032-1.965.082Zm3.193 6.473c0 .049.27.081.655.081.384 0 .655.033.655.082 0 .041.114.082.245.082.139 0 .246.033.246.082 0 .041.131.082.286.082.197 0 .287.041.287.123 0 .066.065.123.147.123.082 0 .196.074.262.164.065.09.188.164.27.164.139 0 .549.336.549.45 0 .066.221.287.286.287.115 0 .45.41.45.549 0 .082.074.205.164.27.09.066.164.18.164.263 0 .082.041.147.082.147.049 0 .081.074.081.164 0 .09.058.164.123.164.074 0 .123.074.123.205 0 .114.041.205.082.205.049 0 .082.106.082.245 0 .131.041.246.082.246.049 0 .081.131.081.287 0 .156.041.287.082.287.049 0 .082.23.082.532 0 .303.033.533.082.533s.082.508.082 1.352c0 .844-.033 1.352-.082 1.352s-.082.229-.082.532c0 .303-.033.533-.082.533-.041 0-.082.13-.082.286 0 .156-.032.287-.081.287-.041 0-.082.107-.082.246 0 .131-.033.246-.082.246-.041 0-.082.09-.082.205 0 .13-.049.205-.123.205-.065 0-.123.073-.123.163 0 .09-.032.164-.081.164-.041 0-.082.066-.082.148 0 .082-.074.197-.164.262-.09.066-.164.189-.164.27 0 .14-.335.55-.45.55-.065 0-.286.22-.286.286 0 .115-.41.45-.549.45-.082 0-.205.075-.27.165-.066.09-.18.163-.262.163-.082 0-.147.058-.147.123 0 .082-.09.123-.287.123-.155 0-.286.033-.286.082 0 .041-.107.082-.246.082-.131 0-.245.033-.245.082 0 .05-.533.082-1.433.082s-1.433-.033-1.433-.082c0-.05-.163-.082-.368-.082s-.368-.04-.368-.082c0-.049-.131-.082-.287-.082-.196 0-.286-.04-.286-.123 0-.065-.074-.123-.164-.123-.09 0-.164-.04-.164-.081 0-.05-.073-.082-.163-.082-.091 0-.164-.041-.164-.082 0-.05-.057-.082-.123-.082-.065 0-.123-.041-.123-.082 0-.05-.057-.082-.131-.082-.123 0-.36-.189-.36-.287 0-.065-.221-.287-.286-.287-.074 0-.614-.557-.614-.63 0-.041-.074-.123-.164-.189-.09-.066-.164-.18-.164-.262 0-.082-.041-.148-.09-.148-.139 0-.319-.22-.319-.401 0-.099-.033-.172-.082-.172-.041 0-.082-.074-.082-.164 0-.09-.033-.164-.082-.164-.041 0-.082-.131-.082-.287 0-.155-.032-.286-.081-.286-.041 0-.082-.115-.082-.246 0-.164-.041-.246-.123-.246-.09 0-.123-.098-.123-.369 0-.205-.033-.369-.082-.369s-.082-.557-.082-1.515c0-.959.033-1.516.082-1.516s.082-.164.082-.369c0-.27.033-.368.123-.368s.123-.099.123-.37c0-.204.041-.368.082-.368.049 0 .081-.074.081-.164 0-.09.041-.164.082-.164.049 0 .082-.073.082-.163 0-.09.041-.164.082-.164.049 0 .082-.074.082-.172 0-.18.18-.402.319-.402.049 0 .09-.066.09-.147 0-.082.074-.197.164-.263.09-.065.164-.147.164-.188 0-.074.54-.63.614-.63.065 0 .286-.222.286-.288 0-.098.237-.287.36-.287.074 0 .131-.04.131-.081 0-.05.058-.082.123-.082.066 0 .123-.041.123-.082 0-.05.073-.082.164-.082.09 0 .163-.041.163-.082 0-.05.074-.082.164-.082.09 0 .164-.057.164-.123 0-.082.09-.123.286-.123.156 0 .287-.04.287-.082 0-.049.163-.082.368-.082s.368-.04.368-.082c0-.049.23-.082.533-.082.302 0 .532-.032.532-.081 0-.05.114-.082.245-.082.139 0 .246.032.246.082ZM139.834 63.736c0 .04-.205.081-.451.081-.343 0-.45.025-.45.123 0 .082-.09.123-.286.123-.156 0-.287.033-.287.082 0 .041-.131.082-.286.082-.156 0-.287.033-.287.082 0 .041-.106.082-.245.082-.131 0-.246.033-.246.082 0 .04-.074.082-.164.082-.09 0-.163.033-.163.082 0 .04-.091.082-.205.082-.115 0-.205.032-.205.082 0 .04-.073.082-.163.082-.091 0-.164.057-.164.123 0 .073-.074.122-.205.122-.114 0-.204.033-.204.082 0 .041-.066.082-.148.082-.082 0-.196.074-.262.164-.065.09-.188.164-.27.164-.164 0-.385.18-.385.32 0 .049-.057.09-.131.09-.073 0-.237.106-.36.245-.123.131-.254.246-.286.246-.066 0-.287.213-.287.287 0 .057-.548.614-.614.614-.065 0-.45.386-.45.451 0 .082-.401.45-.491.45-.041 0-.082.075-.082.165 0 .09-.033.163-.082.163-.041 0-.082.058-.082.123 0 .066-.032.123-.082.123-.041 0-.081.066-.081.148 0 .082-.074.197-.164.262a.435.435 0 0 0-.164.303c0 .107-.033.189-.082.189-.041 0-.082.073-.082.163 0 .09-.041.164-.09.164-.131 0-.319.213-.319.36 0 .075-.033.132-.082.132-.041 0-.082.131-.082.287 0 .155-.032.287-.081.287-.041 0-.082.073-.082.163 0 .09-.033.164-.082.164-.041 0-.082.131-.082.287 0 .197-.041.287-.123.287-.065 0-.123.073-.123.164 0 .09-.032.163-.081.163-.041 0-.082.164-.082.37 0 .204-.033.368-.082.368-.041 0-.082.164-.082.369 0 .204-.033.368-.082.368-.041 0-.082.205-.082.451 0 .246-.033.45-.082.45s-.081.918-.081 2.582c0 1.663.032 2.58.081 2.58s.082.205.082.451c0 .246.041.45.082.45.049 0 .082.165.082.37 0 .204.041.368.082.368.049 0 .082.164.082.369s.041.369.082.369c.049 0 .081.106.081.245 0 .164.041.246.123.246.074 0 .123.074.123.205 0 .115.041.205.082.205.049 0 .082.106.082.246 0 .13.041.246.082.246.049 0 .081.09.081.204 0 .115.041.205.082.205.049 0 .082.058.082.131 0 .148.188.36.319.36.049 0 .09.09.09.206 0 .114.041.204.082.204.049 0 .082.074.082.164 0 .09.041.164.082.164.049 0 .082.066.082.148 0 .082.074.196.164.262.09.065.163.164.163.221 0 .057.041.107.082.107.049 0 .082.073.082.163 0 .09.041.164.082.164.106 0 .491.369.491.467 0 .041.074.123.164.189.09.065.163.18.163.262 0 .082.041.147.09.147.115 0 .32.205.32.32 0 .05.065.09.147.09.082 0 .197.074.262.164.066.09.147.164.188.164.041 0 .18.106.303.246.123.13.287.245.36.245.074 0 .131.041.131.09 0 .14.221.32.385.32.082 0 .205.074.27.164.066.09.18.164.262.164.082 0 .148.033.148.082 0 .04.09.082.204.082.131 0 .205.049.205.123 0 .065.073.123.164.123.09 0 .163.032.163.081 0 .041.09.082.205.082.114 0 .205.033.205.082 0 .041.073.082.163.082.09 0 .164.033.164.082 0 .041.115.082.246.082.139 0 .245.033.245.082 0 .041.131.082.287.082.196 0 .286.041.286.123 0 .09.098.123.369.123.204 0 .368.033.368.082 0 .04.164.082.368.082.205 0 .369.032.369.082 0 .049.736.082 2.046.082 1.31 0 2.047-.033 2.047-.082 0-.05.163-.082.368-.082s.368-.041.368-.082c0-.05.115-.082.246-.082.164 0 .245-.041.245-.123 0-.082.09-.123.287-.123.155 0 .286-.04.286-.082 0-.05.074-.082.164-.082.09 0 .164-.04.164-.082 0-.049.074-.082.164-.082.09 0 .163-.04.163-.082 0-.049.09-.082.205-.082.115 0 .205-.04.205-.082 0-.049.073-.081.163-.081.09 0 .164-.041.164-.09 0-.132.213-.32.368-.32.14 0 .696-.516.696-.656 0-.04.041-.082.09-.082.049 0 .197-.114.32-.245.171-.189.302-.246.532-.246.36 0 .532.156.532.483 0 .14.041.254.082.254.049 0 .081.107.081.246 0 .131.041.246.082.246.049 0 .082.164.082.369 0 .204.041.368.082.368.049 0 .082.131.082.287 0 .197.041.287.123.287.065 0 .122.033.122.082s.917.082 2.579.082h2.579v-27.12h-6.631v1.27c0 1.163-.016 1.27-.147 1.27-.082 0-.197-.074-.262-.165-.066-.09-.164-.163-.221-.163-.058 0-.107-.041-.107-.082 0-.156-.728-.82-.9-.82-.09 0-.164-.057-.164-.123 0-.065-.074-.122-.164-.122-.09 0-.163-.041-.163-.082 0-.05-.09-.082-.205-.082-.115 0-.205-.041-.205-.082 0-.05-.073-.082-.163-.082-.09 0-.164-.041-.164-.082 0-.05-.074-.082-.164-.082-.09 0-.164-.041-.164-.082 0-.05-.131-.082-.286-.082-.156 0-.287-.04-.287-.082 0-.049-.106-.082-.245-.082-.164 0-.246-.04-.246-.123 0-.098-.106-.123-.45-.123-.246 0-.45-.04-.45-.081 0-.05-.712-.082-1.965-.082-1.252 0-1.964.032-1.964.081Zm3.356 6.472c0 .05.229.082.532.082.303 0 .532.033.532.082 0 .041.164.082.368.082.205 0 .369.033.369.082 0 .041.073.082.163.082.09 0 .164.057.164.123 0 .074.074.123.205.123.114 0 .204.032.204.082 0 .04.066.082.148.082.082 0 .196.073.262.163.065.09.188.164.27.164.147 0 .385.18.385.287 0 .033.114.164.245.287.139.123.246.287.246.36 0 .074.057.132.123.132.065 0 .122.057.122.122 0 .066.041.123.082.123.049 0 .082.066.082.148 0 .082.074.196.164.262.09.066.164.18.164.262 0 .082.04.148.081.148.049 0 .082.13.082.286 0 .197.041.287.123.287.082 0 .123.09.123.287 0 .156.041.287.082.287.049 0 .082.147.082.328 0 .18.04.327.081.327.049 0 .082.23.082.533 0 .303.033.532.082.532s.082.394.082 1.025c0 .63-.033 1.024-.082 1.024s-.082.23-.082.532c0 .303-.033.533-.082.533-.041 0-.081.205-.081.45 0 .246-.033.451-.082.451-.041 0-.082.074-.082.164 0 .09-.057.164-.123.164-.082 0-.123.09-.123.287 0 .155-.033.286-.082.286-.041 0-.081.066-.081.148 0 .082-.074.197-.164.262-.09.066-.164.18-.164.262 0 .082-.033.148-.082.148-.041 0-.082.057-.082.123a.126.126 0 0 1-.122.123c-.066 0-.123.057-.123.13 0 .074-.107.238-.246.361-.131.123-.245.254-.245.287 0 .106-.238.287-.385.287-.082 0-.205.073-.27.164-.066.09-.18.164-.262.164-.082 0-.148.032-.148.081 0 .041-.09.082-.204.082-.131 0-.205.05-.205.123 0 .066-.074.123-.164.123-.09 0-.163.033-.163.082 0 .041-.164.082-.369.082-.204 0-.368.033-.368.082 0 .05-.532.082-1.433.082-.9 0-1.432-.033-1.432-.082 0-.05-.164-.082-.368-.082-.205 0-.369-.041-.369-.082 0-.05-.073-.082-.164-.082-.09 0-.163-.057-.163-.123 0-.065-.074-.123-.164-.123-.09 0-.164-.04-.164-.082 0-.049-.09-.081-.204-.081-.115 0-.205-.041-.205-.082 0-.05-.057-.082-.123-.082-.147 0-.532-.353-.532-.492 0-.041-.074-.082-.172-.082-.09 0-.311-.147-.483-.328-.172-.18-.352-.327-.401-.327-.049 0-.09-.082-.09-.189a.435.435 0 0 0-.164-.303c-.09-.066-.163-.172-.163-.246 0-.074-.074-.18-.164-.246a.436.436 0 0 1-.164-.303c0-.106-.032-.188-.082-.188-.041 0-.081-.115-.081-.246 0-.164-.041-.246-.123-.246-.082 0-.123-.09-.123-.287 0-.155-.033-.286-.082-.286-.041 0-.082-.132-.082-.287 0-.156-.033-.287-.082-.287s-.081-.311-.081-.778-.033-.779-.082-.779c-.041 0-.082-.13-.082-.286 0-.156.041-.287.082-.287.049 0 .082-.287.082-.697s.032-.696.081-.696.082-.164.082-.369.041-.368.082-.368c.049 0 .082-.132.082-.287 0-.197.041-.287.123-.287.082 0 .123-.082.123-.246 0-.14.04-.246.081-.246.05 0 .082-.082.082-.188 0-.098.074-.238.164-.303.09-.066.164-.164.164-.23 0-.123.368-.508.491-.508.041 0 .082-.073.082-.163 0-.222.515-.738.736-.738.09 0 .164-.04.164-.082 0-.14.385-.492.532-.492.066 0 .123-.04.123-.081 0-.05.09-.082.205-.082.114 0 .204-.041.204-.082 0-.05.074-.082.164-.082.09 0 .164-.058.164-.123 0-.082.09-.123.286-.123.156 0 .287-.041.287-.082 0-.05.114-.082.245-.082.14 0 .246-.04.246-.082 0-.049.27-.082.655-.082s.655-.033.655-.082.114-.082.245-.082c.139 0 .246.033.246.082ZM173.807 63.735c0 .041-.204.082-.45.082-.344 0-.45.025-.45.123 0 .09-.09.123-.328.123-.18 0-.327.033-.327.082 0 .04-.131.082-.286.082-.156 0-.287.033-.287.082 0 .04-.131.082-.286.082-.156 0-.287.032-.287.082 0 .04-.074.082-.164.082-.09 0-.163.032-.163.082 0 .04-.074.082-.164.082-.09 0-.164.032-.164.081 0 .041-.09.082-.205.082-.13 0-.204.05-.204.123 0 .066-.066.123-.148.123-.081 0-.196.074-.261.164-.066.09-.197.164-.287.164-.09 0-.221.074-.286.164-.066.09-.181.164-.262.164-.082 0-.148.04-.148.09 0 .098-.204.32-.286.32-.033 0-.164.106-.287.245-.123.131-.286.246-.36.246-.074 0-.131.057-.131.123 0 .09-.098.123-.368.123s-.369-.033-.369-.123c0-.066-.032-.123-.082-.123-.04 0-.081-.115-.081-.246 0-.14-.033-.246-.082-.246-.041 0-.082-.13-.082-.287 0-.196-.041-.286-.123-.286-.082 0-.123-.082-.123-.246 0-.14-.032-.246-.082-.246-.04 0-.081-.13-.081-.287 0-.155-.033-.286-.082-.286-.041 0-.082-.115-.082-.246 0-.14-.033-.246-.082-.246-.041 0-.082-.057-.082-.123 0-.106-.36-.123-2.783-.123s-2.783.017-2.783.123c0 .066.041.123.082.123.057 0 .081 4.506.081 13.355 0 8.85-.024 13.356-.081 13.356a.082.082 0 0 0-.082.082c0 .057 1.244.082 3.561.082h3.56v-7.006c0-6.17.017-7.005.123-7.005.099 0 .123-.131.123-.697 0-.41.033-.696.082-.696s.082-.131.082-.287c0-.156.041-.287.082-.287.049 0 .082-.13.082-.286 0-.156.04-.287.081-.287.049 0 .082-.099.082-.213 0-.213.164-.443.319-.443.05 0 .091-.082.091-.188 0-.099.073-.238.163-.303.09-.066.164-.172.164-.246 0-.074.074-.18.164-.246.09-.066.163-.164.163-.221a.11.11 0 0 1 .107-.107c.057 0 .155-.073.221-.163.065-.09.164-.164.229-.164.123 0 .508-.37.508-.492 0-.041.09-.082.204-.082.115 0 .205-.04.205-.082 0-.049.074-.082.164-.082.09 0 .163-.04.163-.082 0-.049.09-.082.205-.082.115 0 .205-.04.205-.082 0-.049.073-.082.163-.082.09 0 .164-.04.164-.082 0-.049.131-.081.287-.081.196 0 .286-.041.286-.123 0-.082.082-.123.246-.123.139 0 .245-.041.245-.082 0-.05.229-.082.532-.082.303 0 .532-.033.532-.082 0-.05.557-.082 1.515-.082.958 0 1.514.033 1.514.082 0 .04.164.082.369.082h.368v-6.8h-1.883c-1.203 0-1.883.032-1.883.081ZM200.491 63.736c0 .049-.229.081-.532.081-.417 0-.532.025-.532.123 0 .082-.082.123-.246.123-.131 0-.245.033-.245.082 0 .041-.164.082-.369.082-.204 0-.368.033-.368.082 0 .041-.09.082-.205.082-.114 0-.204.033-.204.082 0 .04-.107.082-.246.082-.131 0-.245.033-.245.082 0 .04-.09.082-.205.082-.115 0-.205.032-.205.082 0 .04-.073.082-.163.082-.09 0-.164.057-.164.123 0 .065-.074.122-.164.122-.09 0-.164.033-.164.082 0 .041-.073.082-.171.082-.099 0-.279.107-.402.246-.122.131-.286.246-.36.246-.073 0-.131.057-.131.123 0 .065-.041.123-.082.123-.114 0-.818.704-.818.819 0 .04-.041.082-.082.082-.123 0-.491.385-.491.508 0 .066-.074.164-.164.23a.436.436 0 0 0-.164.303c0 .106-.032.188-.082.188-.04 0-.081.074-.081.164 0 .09-.058.164-.123.164-.074 0-.123.073-.123.204 0 .115-.033.205-.082.205-.041 0-.082.107-.082.246 0 .131-.032.246-.082.246-.04 0-.081.164-.081.369s-.033.368-.082.368-.082.533-.082 1.434c0 .901.033 1.434.082 1.434s.082.164.082.369.041.368.081.368c.05 0 .082.107.082.246 0 .131.041.246.082.246.049 0 .082.09.082.205 0 .131.049.205.123.205.065 0 .123.065.123.147 0 .082.073.197.163.262.09.066.164.189.164.27 0 .09.115.263.246.386.139.123.245.287.245.36 0 .074.041.131.09.131.115 0 .32.205.32.32 0 .05.065.09.147.09.082 0 .196.074.262.164.065.09.164.164.221.164.057 0 .106.033.106.082 0 .04.058.082.131.082.148 0 .36.188.36.32 0 .049.082.09.189.09.098 0 .237.073.303.163.065.09.18.164.262.164.081 0 .147.033.147.082 0 .041.074.082.164.082.09 0 .163.033.163.082 0 .041.09.082.205.082.131 0 .205.05.205.123 0 .082.081.123.245.123.139 0 .246.032.246.082 0 .04.09.082.204.082.115 0 .205.032.205.081 0 .041.115.082.246.082.139 0 .245.033.245.082 0 .041.131.082.287.082.155 0 .286.033.286.082 0 .041.164.082.369.082.204 0 .368.033.368.082 0 .041.147.082.327.082.238 0 .328.033.328.123s.098.123.368.123c.205 0 .369.033.369.082 0 .04.204.082.45.082.245 0 .45.032.45.082 0 .04.164.082.368.082.205 0 .369.032.369.081 0 .041.114.082.245.082.139 0 .246.033.246.082 0 .041.131.082.286.082.197 0 .287.041.287.123 0 .082.082.123.27.123.172 0 .311.058.385.164.065.09.163.164.229.164.123 0 .507.369.507.492 0 .04.041.081.091.081.131 0 .319.213.319.36 0 .075.041.132.082.132.049 0 .082.074.082.164 0 .09.04.164.081.164.049 0 .082.27.082.655s-.033.656-.082.656c-.041 0-.081.106-.081.245 0 .132-.033.246-.082.246-.041 0-.082.058-.082.123 0 .066-.033.123-.082.123-.041 0-.082.074-.082.164 0 .09-.049.164-.106.164-.058 0-.156.074-.221.164-.066.09-.18.164-.262.164-.082 0-.148.057-.148.122 0 .066-.073.123-.163.123-.09 0-.164.033-.164.082 0 .041-.131.082-.287.082-.155 0-.286.033-.286.082 0 .05-.508.082-1.351.082s-1.35-.033-1.35-.082-.107-.082-.246-.082c-.131 0-.246-.04-.246-.082 0-.049-.131-.082-.286-.082-.156 0-.287-.04-.287-.09 0-.13-.212-.32-.368-.32-.131 0-.696-.515-.696-.63 0-.041-.073-.123-.164-.189-.09-.065-.163-.18-.163-.262 0-.082-.058-.147-.123-.147-.074 0-.123-.074-.123-.205 0-.115-.033-.205-.082-.205-.041 0-.082-.074-.082-.164 0-.09-.032-.164-.081-.164-.041 0-.082-.188-.082-.418 0-.245-.049-.458-.115-.532-.18-.172-6.385-.172-6.565 0-.131.14-.155.377-.033.377.049 0 .082.246.082.573 0 .328.033.574.082.574s.082.147.082.328c0 .18.041.327.082.327.049 0 .082.131.082.287 0 .197.041.287.122.287.082 0 .123.09.123.287 0 .155.041.286.082.286.049 0 .082.074.082.164 0 .09.041.164.082.164.049 0 .082.074.082.164 0 .09.041.164.081.164.05 0 .082.074.082.172 0 .18.18.401.32.401.049 0 .09.066.09.148 0 .082.073.197.163.262.09.066.164.189.164.27 0 .156.508.713.655.713.041 0 .082.041.082.082 0 .115.704.82.818.82.041 0 .082.032.082.082 0 .04.074.081.164.081.09 0 .164.041.164.09 0 .14.221.32.384.32.082 0 .205.074.271.164.065.09.163.164.229.164.131 0 .344.197.344.32 0 .049.09.09.204.09.115 0 .205.032.205.081 0 .041.114.082.245.082.14 0 .246.033.246.082 0 .041.09.082.205.082.114 0 .204.033.204.082 0 .041.115.082.246.082.139 0 .245.033.245.082 0 .041.131.082.287.082.196 0 .286.041.286.123 0 .09.091.123.328.123.18 0 .327.033.327.082 0 .04.205.082.451.082.245 0 .45.032.45.082 0 .049.802.082 2.251.082 1.449 0 2.251-.033 2.251-.082 0-.05.205-.082.45-.082.246 0 .451-.041.451-.082 0-.05.163-.082.368-.082.27 0 .368-.033.368-.123 0-.082.082-.123.246-.123.139 0 .245-.04.245-.082 0-.05.131-.082.287-.082.155 0 .286-.04.286-.082 0-.049.074-.082.164-.082.09 0 .164-.04.164-.082 0-.049.09-.082.204-.082.115 0 .205-.04.205-.082 0-.049.074-.081.164-.081.09 0 .164-.058.164-.123 0-.066.073-.123.163-.123.09 0 .164-.041.164-.082 0-.05.057-.082.123-.082.065 0 .123-.041.123-.082 0-.05.057-.082.122-.082.148 0 .532-.352.532-.492 0-.04.074-.082.164-.082.221 0 .901-.68.901-.9 0-.09.041-.165.081-.165.14 0 .492-.385.492-.532 0-.066.041-.123.081-.123.05 0 .082-.057.082-.123s.041-.123.082-.123c.049 0 .082-.074.082-.164 0-.09.057-.164.123-.164.065 0 .123-.073.123-.164 0-.09.041-.163.082-.163.049 0 .081-.132.081-.287 0-.156.041-.287.082-.287.049 0 .082-.115.082-.246 0-.14.041-.246.082-.246.049 0 .082-.163.082-.368s.041-.369.082-.369c.049 0 .082-.63.082-1.72 0-1.09-.033-1.721-.082-1.721-.041 0-.082-.164-.082-.369s-.033-.369-.082-.369c-.041 0-.082-.114-.082-.246 0-.139-.033-.245-.082-.245-.041 0-.082-.09-.082-.205 0-.115-.032-.205-.081-.205-.041 0-.082-.074-.082-.164 0-.09-.058-.164-.123-.164-.066 0-.123-.065-.123-.147 0-.082-.074-.197-.164-.262-.09-.066-.163-.164-.163-.222 0-.057-.033-.106-.082-.106-.041 0-.082-.057-.082-.131 0-.123-.188-.36-.287-.36-.065 0-.286-.222-.286-.287 0-.099-.229-.287-.344-.287-.065 0-.164-.074-.229-.164-.066-.09-.164-.164-.221-.164-.057 0-.107-.04-.107-.082 0-.05-.073-.082-.163-.082-.09 0-.164-.057-.164-.123 0-.065-.074-.123-.164-.123-.09 0-.163-.04-.163-.082 0-.049-.058-.082-.123-.082-.066 0-.123-.04-.123-.081 0-.05-.074-.082-.164-.082-.09 0-.163-.041-.163-.082 0-.05-.131-.082-.287-.082-.155 0-.286-.041-.286-.082 0-.05-.074-.082-.164-.082-.09 0-.164-.041-.164-.082 0-.05-.106-.082-.245-.082-.164 0-.246-.04-.246-.123 0-.074-.074-.123-.205-.123-.114 0-.204-.04-.204-.082 0-.049-.164-.082-.369-.082-.204 0-.368-.04-.368-.082 0-.049-.106-.082-.246-.082-.131 0-.245-.04-.245-.081 0-.05-.164-.082-.369-.082-.204 0-.368-.041-.368-.082 0-.05-.164-.082-.368-.082-.27 0-.369-.033-.369-.123 0-.099-.106-.123-.45-.123-.245 0-.45-.041-.45-.082 0-.05-.205-.082-.45-.082-.246 0-.451-.04-.451-.082 0-.049-.106-.082-.245-.082-.131 0-.246-.04-.246-.082 0-.049-.163-.082-.368-.082s-.368-.04-.368-.082c0-.049-.074-.082-.164-.082-.09 0-.164-.057-.164-.122 0-.074-.074-.123-.205-.123-.114 0-.204-.041-.204-.082 0-.05-.057-.082-.131-.082-.074 0-.238-.115-.36-.246-.123-.14-.254-.246-.287-.246-.114 0-.286-.237-.286-.401 0-.099-.033-.172-.082-.172s-.082-.287-.082-.697.033-.696.082-.696.082-.074.082-.172c0-.164.172-.402.286-.402.033 0 .164-.115.287-.246.122-.139.286-.245.36-.245.074 0 .131-.058.131-.123 0-.082.09-.123.286-.123.156 0 .287-.041.287-.082 0-.05.204-.082.45-.082.246 0 .45-.041.45-.082 0-.05.229-.082.532-.082.303 0 .532.033.532.082 0 .041.205.082.451.082.245 0 .45.033.45.082 0 .04.131.082.286.082.197 0 .287.04.287.123 0 .065.074.123.164.123.09 0 .163.032.163.082 0 .04.066.082.148.082.082 0 .196.073.262.163.065.09.147.164.188.164.131 0 .467.41.467.574 0 .09.04.164.081.164.049 0 .082.073.082.163 0 .09.041.164.082.164.049 0 .082.09.082.205v.205h6.631v-.573c0-.328-.033-.574-.082-.574-.041 0-.082-.147-.082-.328 0-.18-.033-.328-.082-.328-.041 0-.082-.13-.082-.286 0-.156-.033-.287-.082-.287-.041 0-.082-.074-.082-.164 0-.09-.032-.164-.081-.164-.041 0-.082-.09-.082-.205 0-.13-.049-.204-.123-.204-.066 0-.123-.074-.123-.164 0-.09-.033-.164-.082-.164-.041 0-.082-.074-.082-.164 0-.09-.032-.164-.082-.164-.04 0-.081-.057-.081-.123 0-.065-.033-.123-.082-.123-.041 0-.082-.057-.082-.13 0-.124-.188-.361-.287-.361-.065 0-.45-.385-.45-.451s-.556-.615-.614-.615c-.065 0-.286-.22-.286-.286 0-.099-.238-.287-.36-.287-.074 0-.131-.041-.131-.082 0-.05-.058-.082-.123-.082-.066 0-.123-.04-.123-.082 0-.049-.057-.082-.131-.082-.147 0-.36-.188-.36-.32 0-.048-.09-.09-.205-.09-.114 0-.204-.04-.204-.081 0-.05-.074-.082-.164-.082-.09 0-.164-.041-.164-.082 0-.05-.106-.082-.245-.082-.131 0-.246-.041-.246-.082 0-.05-.09-.082-.205-.082-.114 0-.204-.041-.204-.082 0-.05-.164-.082-.369-.082-.204 0-.368-.04-.368-.082 0-.049-.106-.082-.246-.082-.163 0-.245-.04-.245-.123 0-.098-.115-.123-.532-.123-.303 0-.532-.032-.532-.081 0-.05-.778-.082-2.17-.082-1.391 0-2.169.032-2.169.081ZM88.016 77.377v13.56h6.794v-27.12h-6.794v13.56ZM181.5 77.377v13.56h6.794v-27.12H181.5v13.56Z" fill="#fff"/></svg>