<svg width="350" height="153" fill="none" xmlns="http://www.w3.org/2000/svg"><path fill="#fff" d="M0 35h350v84H0z"/><path d="M350 35H0v56.099h350V35Z" fill="#E63312"/><path d="M230.647 56.469h-10.045v2.424h10.045v-2.424Z" fill="#fff"/><path d="M242.134 76.799c1.939 2.919 5.868 3.71 8.802 1.78 1.79-1.186 2.834-3.116 2.834-5.243v-4.205l7.758 7.074 7.708-7.074v4.205c-.099 3.463 2.686 6.382 6.167 6.48 3.481.1 6.415-2.621 6.515-6.134v-21.42c0-3.463-2.835-6.332-6.316-6.332a6.42 6.42 0 0 0-4.327 1.682l-9.796 8.954-9.797-8.954c-2.586-2.375-6.565-2.177-8.952.395-.945 1.04-1.541 2.326-1.641 3.76-2.088-3.562-5.918-5.788-10.045-5.788h-14.621c-3.481 0-6.365 2.82-6.365 6.283v3.413c-2.785-5.936-8.753-9.696-15.317-9.696h-6.316a16.901 16.901 0 0 0-12.631 5.64c-.348-3.216-3.084-5.64-6.316-5.64h-21.583c-2.138 0-4.177 1.089-5.321 2.919-1.89-2.919-5.818-3.81-8.752-1.93-.299.198-.597.396-.846.644l-7.26 6.629-7.261-6.63c-2.586-2.324-6.564-2.176-8.951.396-.249.248-.448.545-.647.841-1.144-1.83-3.183-2.918-5.321-2.918H81.953c-3.481 0-6.365 2.82-6.365 6.282v16.325c-1.144-1.038-2.686-1.583-4.227-1.583H56.59c-.249 0-.398-.197-.448-.445V52.262c0-3.463-2.834-6.283-6.365-6.283-2.139 0-4.078 1.089-5.272 2.82a6.352 6.352 0 0 0-5.271-2.82H17.602a6.35 6.35 0 0 0-6.365 6.283v21.074c-.1 3.463 2.636 6.382 6.167 6.48 3.48.1 6.415-2.621 6.514-6.134v-4.205c0-.247.2-.445.448-.395h5.918a6.319 6.319 0 0 0 6.315-6.332 6.335 6.335 0 0 0-1.591-4.206h4.177a6.57 6.57 0 0 0 4.227-1.582v16.325c0 3.462 2.835 6.332 6.366 6.332H71.36a6.269 6.269 0 0 0 5.271-2.87c1.194 1.732 3.133 2.82 5.271 2.82h21.533c2.139 0 4.178-1.088 5.322-2.919 1.889 2.92 5.818 3.81 8.752 1.93.298-.198.597-.396.846-.643l7.26-6.58 7.261 6.63c2.586 2.324 6.564 2.176 8.951-.396.249-.248.448-.545.647-.841 1.889 2.918 5.818 3.809 8.752 1.929a6.236 6.236 0 0 0 2.934-5.294v-3.809c0-.247.199-.395.448-.395h5.967a6.319 6.319 0 0 0 6.316-6.333c0-1.533-.597-3.017-1.591-4.155h4.177c.945 0 1.84-.198 2.685-.594-2.685 8.905 2.387 18.255 11.339 20.926 1.591.495 3.232.693 4.873.693h6.316a16.97 16.97 0 0 0 15.317-9.696v3.413c-.1 3.463 2.685 6.382 6.166 6.48 3.482.1 6.416-2.621 6.515-6.134v-4.65l9.847 8.905a6.44 6.44 0 0 0 9.001-.445c.199-.248.398-.495.597-.792Z" fill="#fff"/><path d="M216.375 77.349c-2.238 0-4.078-1.83-4.078-4.057V52.267c0-2.226 1.84-4.056 4.078-4.056h14.62c5.172 0 9.35 4.205 9.35 9.35 0 3.116-1.542 6.035-4.178 7.717-.547.346-.696 1.088-.348 1.633.05.099.1.148.199.198l3.481 3.116c1.592 1.583 1.542 4.156-.05 5.739-1.491 1.434-3.829 1.583-5.42.296l-11.587-10.487c-.498-.445-1.243-.396-1.691.148a1.087 1.087 0 0 0-.298.742v6.58c.049 2.325-1.791 4.155-4.078 4.106.049.05.049.05 0 0Z" fill="#E63312"/><path d="M230.997 48.36c5.122 0 9.25 4.105 9.25 9.2a9.156 9.156 0 0 1-4.078 7.62c-.597.395-.796 1.236-.348 1.83.05.098.149.197.199.247l3.481 3.117a3.905 3.905 0 0 1 .348 5.54c-1.442 1.633-3.929 1.781-5.57.346l-.05-.05-11.587-10.487a1.342 1.342 0 0 0-1.889.1c-.199.247-.348.543-.348.89v6.58a3.867 3.867 0 0 1-3.78 4.056c-2.188.099-4.028-1.583-4.078-3.76V52.267c0-2.176 1.741-3.908 3.929-3.908h14.521Zm0-.297h-14.621c-2.337 0-4.227 1.88-4.227 4.204v21.075c-.149 2.325 1.641 4.303 3.979 4.452 2.337.148 4.326-1.633 4.475-3.958v-7.123c0-.594.448-1.04 1.045-1.04.248 0 .497.1.696.248l11.587 10.488a4.265 4.265 0 0 0 5.968-.495c1.442-1.682 1.342-4.205-.299-5.738l-3.481-3.117a.684.684 0 0 1-.149-.198c-.348-.495-.199-1.138.249-1.484h.049c4.377-2.919 5.52-8.806 2.586-13.159a9.483 9.483 0 0 0-7.857-4.156Z" fill="#fff"/><path d="M108.814 69.633c-1.193-1.732-3.182-2.82-5.321-2.82h-3.829c1.94-2.374 1.94-5.788 0-8.113h3.829a6.451 6.451 0 0 0 5.321-2.77c.299.395.597.791.945 1.088l6.316 5.739-6.316 5.788a9.984 9.984 0 0 0-.945 1.088Z" fill="#E63312"/><path d="M108.811 56.174c.249.347.547.644.845.94l6.217 5.69-6.217 5.639c-.298.297-.596.594-.845.94-1.243-1.682-3.233-2.721-5.321-2.671h-3.58a6.577 6.577 0 0 0 0-7.866h3.58a6.63 6.63 0 0 0 5.321-2.672Zm0-.494c-1.144 1.83-3.183 2.918-5.321 2.918h-4.177c2.138 2.375 2.138 6.036 0 8.41h4.177c2.138 0 4.177 1.089 5.321 2.919.298-.445.646-.89 1.044-1.237l6.415-5.887-6.415-5.887c-.398-.346-.746-.791-1.044-1.236Z" fill="#fff"/><path d="m135.312 62.801 6.117-5.59v11.18l-6.117-5.59Z" fill="#E63312"/><path d="M141.284 57.51v10.587l-5.769-5.293 5.769-5.294Zm.298-.643-.05.05-6.415 5.887 6.415 5.837.05.05V56.867Z" fill="#fff"/><path d="M241.041 68.588v-5.244a11.01 11.01 0 0 1-2.486 2.968l2.536 2.276" fill="#E63312"/><path d="M241.041 68.588v-5.244a11.01 11.01 0 0 1-2.486 2.968l2.536 2.276" stroke="#fff" stroke-width=".57" stroke-miterlimit="10"/><path d="M17.61 77.349c-2.239 0-4.079-1.83-4.079-4.057V52.267c0-2.226 1.84-4.056 4.078-4.056h21.583c2.238 0 4.078 1.83 4.078 4.056 0 2.227-1.84 4.057-4.078 4.057H22.93c-.646 0-1.193.544-1.193 1.187s.547 1.188 1.193 1.188h7.41c2.238 0 4.078 1.83 4.078 4.056s-1.84 4.057-4.078 4.057h-5.968a2.667 2.667 0 0 0-2.685 2.671v3.81c0 2.275-1.84 4.056-4.078 4.056Z" fill="#E63312"/><path d="M39.189 48.36a3.927 3.927 0 0 1 3.928 3.907c0 2.177-1.79 3.909-3.928 3.909H22.927c-.746 0-1.343.593-1.343 1.335s.597 1.336 1.343 1.336h7.41c2.188 0 3.929 1.78 3.929 3.908 0 2.177-1.79 3.908-3.93 3.908H24.37c-1.541 0-2.834 1.237-2.834 2.82v3.81c0 2.176-1.79 3.907-3.929 3.907-2.138 0-3.929-1.78-3.929-3.908V52.267c0-2.176 1.79-3.908 3.929-3.908h21.583Zm0-.297H17.606c-2.337 0-4.227 1.88-4.227 4.204v21.075a4.215 4.215 0 0 0 4.028 4.403 4.245 4.245 0 0 0 4.426-3.958V69.58c0-1.384 1.144-2.522 2.536-2.522h5.918a4.215 4.215 0 0 0 4.028-4.403 4.205 4.205 0 0 0-4.028-4.007h-7.36c-.547.148-1.144-.247-1.243-.791-.15-.545.248-1.138.796-1.237.099 0 .198-.05.298 0h16.41c2.338-.1 4.128-2.078 4.029-4.403-.1-2.276-1.84-4.007-4.028-4.156Z" fill="#fff"/><path d="M49.781 77.349c-2.238 0-4.078-1.83-4.078-4.057V52.267c0-2.226 1.84-4.056 4.078-4.056 2.238 0 4.078 1.83 4.078 4.056v14.297a2.667 2.667 0 0 0 2.685 2.672h14.82c2.238 0 4.078 1.83 4.078 4.056s-1.84 4.057-4.078 4.057H49.78Z" fill="#E63312"/><path d="M49.782 48.36a3.927 3.927 0 0 1 3.928 3.907v14.297a2.826 2.826 0 0 0 2.835 2.82h14.82a3.927 3.927 0 0 1 3.928 3.908c0 2.177-1.79 3.908-3.928 3.908H49.782c-2.139 0-3.929-1.731-3.929-3.908V52.267c0-2.176 1.74-3.908 3.929-3.908Zm0-.297c-2.338 0-4.227 1.88-4.227 4.204v21.075c0 2.325 1.89 4.205 4.227 4.205h21.583a4.215 4.215 0 0 0 4.028-4.403 4.205 4.205 0 0 0-4.028-4.007h-14.82c-1.392 0-2.536-1.138-2.536-2.523V52.267c-.05-2.325-1.94-4.205-4.227-4.205Z" fill="#fff"/><path d="M81.851 77.349c-2.237 0-4.078-1.83-4.078-4.057V52.267c0-2.226 1.84-4.056 4.078-4.056h21.583c2.238 0 4.078 1.83 4.078 4.056 0 2.227-1.84 4.057-4.078 4.057H87.172c-.646 0-1.193.544-1.193 1.187s.547 1.188 1.193 1.188h7.41c2.238 0 4.078 1.83 4.078 4.056s-1.84 4.057-4.078 4.057h-7.41c-.646 0-1.193.544-1.193 1.187s.547 1.187 1.193 1.187h16.262c2.238 0 4.078 1.83 4.078 4.057 0 2.226-1.84 4.056-4.078 4.056l-21.583.05Z" fill="#E63312"/><path d="M103.485 48.36a3.926 3.926 0 0 1 3.928 3.907c0 2.177-1.79 3.909-3.928 3.909H87.223c-.746 0-1.343.593-1.343 1.335s.597 1.336 1.343 1.336h7.41a3.927 3.927 0 0 1 3.928 3.908c0 2.177-1.79 3.908-3.928 3.908h-7.41c-.746 0-1.343.594-1.343 1.336 0 .742.597 1.336 1.343 1.336h16.262a3.926 3.926 0 0 1 3.928 3.908c0 2.176-1.79 3.908-3.928 3.908H81.902c-2.188 0-3.929-1.732-3.929-3.908V52.267c0-2.176 1.79-3.908 3.929-3.908h21.583Zm-.05-.297H81.852c-2.337 0-4.227 1.88-4.227 4.204v21.075c0 2.325 1.89 4.205 4.227 4.205h21.583c2.337-.1 4.127-2.078 4.028-4.403a4.205 4.205 0 0 0-4.028-4.007H87.173c-.597.05-1.094-.396-1.144-.99-.05-.593.398-1.088.995-1.138h7.559c2.337-.098 4.127-2.077 4.028-4.402a4.205 4.205 0 0 0-4.028-4.007h-7.41c-.597.05-1.094-.396-1.144-.99-.05-.593.398-1.088.995-1.138h16.411c2.337-.099 4.127-2.077 4.028-4.402-.099-2.128-1.84-3.86-4.028-4.008Z" fill="#fff"/><path d="M137.255 77.346a4.094 4.094 0 0 1-2.785-1.088l-7.957-7.272c-.199-.198-.497-.297-.796-.297-.298 0-.596.099-.795.297l-7.957 7.272c-1.641 1.533-4.227 1.385-5.769-.248-1.541-1.632-1.392-4.205.249-5.738l7.26-6.629c.498-.445.498-1.187.05-1.682l-.05-.099-7.31-6.58c-1.691-1.484-1.89-4.056-.398-5.738 1.492-1.682 4.078-1.88 5.769-.396l.149.149 7.957 7.272c.199.198.497.297.796.297.298 0 .596-.1.795-.297l7.957-7.272c1.641-1.534 4.227-1.386 5.769.247 1.541 1.633 1.392 4.205-.249 5.739l-7.26 6.628c-.498.446-.498 1.188-.05 1.682l.05.1 7.26 6.628c1.641 1.534 1.79 4.106.249 5.739-.796.84-1.89 1.336-3.034 1.336h.1v-.05Z" fill="#E63312"/><path d="M137.255 48.36a3.926 3.926 0 0 1 3.928 3.909c0 1.088-.447 2.127-1.292 2.918l-7.311 6.63a1.325 1.325 0 0 0-.099 1.88l.099.098 7.311 6.63c1.591 1.483 1.641 4.006.149 5.54-1.442 1.533-3.879 1.632-5.471.247l-7.956-7.272a1.266 1.266 0 0 0-1.791 0l-7.956 7.272c-1.592 1.484-4.078 1.336-5.57-.247-1.492-1.583-1.343-4.057.248-5.54l7.261-6.63c.249-.247.398-.593.448-.94 0-.346-.1-.692-.349-.94l-.099-.099-7.31-6.678c-1.592-1.484-1.741-3.958-.249-5.54 1.492-1.584 3.978-1.732 5.57-.248l7.957 7.272a1.265 1.265 0 0 0 1.79 0l7.957-7.272c.746-.643 1.69-1.039 2.685-1.039m0-.247c-1.044 0-2.089.395-2.835 1.088l-7.956 7.272a.986.986 0 0 1-.697.297.985.985 0 0 1-.696-.297l-7.957-7.272c-1.74-1.583-4.376-1.435-5.967.247-1.592 1.682-1.442 4.354.248 5.937l7.311 6.629.05.05a1.072 1.072 0 0 1-.05 1.483l-7.311 6.63c-1.74 1.582-1.84 4.254-.298 5.936 1.591 1.731 4.277 1.83 5.968.297l7.956-7.273a.986.986 0 0 1 .697-.296c.248 0 .497.099.696.296l7.957 7.273c1.74 1.583 4.376 1.434 5.967-.248 1.592-1.731 1.443-4.353-.248-5.936l-7.261-6.63-.05-.049a1.072 1.072 0 0 1 .05-1.484l7.31-6.629c1.741-1.583 1.84-4.205.249-5.936-.796-.841-1.939-1.385-3.083-1.385h-.05Z" fill="#fff"/><path d="M147.898 77.349c-2.238 0-4.078-1.781-4.078-4.057V52.267c0-2.226 1.84-4.056 4.078-4.056h21.583c2.238 0 4.078 1.83 4.078 4.056 0 2.227-1.84 4.057-4.078 4.057h-16.262c-.646 0-1.193.544-1.193 1.187s.547 1.188 1.193 1.188h7.41c2.238 0 4.078 1.83 4.078 4.056s-1.84 4.057-4.078 4.057h-5.968a2.668 2.668 0 0 0-2.685 2.671v3.81c0 2.275-1.84 4.056-4.078 4.056Z" fill="#E63312"/><path d="M169.48 48.36a3.926 3.926 0 0 1 3.928 3.907c0 2.177-1.79 3.909-3.928 3.909h-16.262c-.746 0-1.343.593-1.343 1.335s.597 1.336 1.343 1.336h7.41c2.188 0 3.929 1.78 3.929 3.908 0 2.177-1.791 3.908-3.929 3.908h-5.968c-1.541 0-2.834 1.237-2.834 2.82v3.81a3.867 3.867 0 0 1-3.78 4.056c-2.188.099-4.028-1.583-4.078-3.76V52.267c0-2.176 1.791-3.908 3.929-3.908h21.583Zm0-.297h-21.533c-2.338 0-4.227 1.88-4.227 4.204v21.075c-.15 2.325 1.641 4.303 3.978 4.452 2.337.148 4.327-1.633 4.476-3.958v-4.255c0-1.384 1.144-2.522 2.536-2.522h5.968c2.337-.099 4.127-2.078 4.028-4.403a4.205 4.205 0 0 0-4.028-4.007h-7.41c-.597.05-1.094-.396-1.144-.99-.05-.593.398-1.088.995-1.137h16.411c2.337-.1 4.127-2.078 4.028-4.403-.15-2.226-1.89-3.958-4.078-4.056Z" fill="#fff"/><path d="M188.428 77.351c-8.106 0-14.67-6.53-14.67-14.593 0-8.064 6.564-14.594 14.67-14.594h6.316c8.106 0 14.67 6.53 14.67 14.594 0 8.063-6.564 14.593-14.67 14.593h-6.316Z" fill="#E63312"/><path d="M194.691 48.36c8.006 0 14.521 6.48 14.521 14.444 0 7.965-6.515 14.446-14.521 14.446h-6.316c-8.006 0-14.521-6.48-14.521-14.446 0-7.964 6.515-14.445 14.571-14.445h6.266Zm0-.297h-6.316c-8.155.148-14.67 6.876-14.521 14.989.149 7.915 6.564 14.297 14.521 14.445h6.316c8.156-.148 14.67-6.876 14.521-14.99-.099-7.914-6.564-14.296-14.521-14.444Z" fill="#fff"/><path d="M189.818 68.938c-3.432 0-6.216-2.77-6.216-6.184 0-3.413 2.784-6.184 6.216-6.184h3.481c3.431 0 6.216 2.77 6.216 6.184s-2.785 6.184-6.216 6.184h-3.481Z" fill="#fff"/><path d="M193.298 56.768c3.332 0 6.067 2.721 6.067 6.035 0 3.315-2.735 6.036-6.067 6.036h-3.481c-3.332 0-6.067-2.721-6.067-6.035 0-3.315 2.735-6.036 6.067-6.036h3.481Zm0-.297h-3.481c-3.481-.099-6.415 2.622-6.564 6.085-.1 3.463 2.635 6.382 6.116 6.53h3.879c3.481-.099 6.266-3.017 6.167-6.48-.05-3.364-2.735-6.036-6.117-6.135Z" fill="#fff"/><path d="M275.608 77.349c-2.238 0-4.028-1.83-4.078-4.057v-6.58c0-.642-.547-1.187-1.194-1.187-.298 0-.547.1-.795.297l-8.007 7.272-8.006-7.272a1.193 1.193 0 0 0-1.691.1c-.199.197-.298.494-.298.79v6.63c0 2.226-1.84 4.056-4.078 4.056-2.238 0-4.078-1.83-4.078-4.056V52.267c0-2.226 1.84-4.056 4.078-4.056 1.044 0 1.989.396 2.735 1.088l11.338 10.34 11.339-10.34c1.641-1.533 4.227-1.385 5.768.248a4.018 4.018 0 0 1 1.094 2.72v21.075c-.049 2.226-1.889 4.056-4.127 4.007 0 .05 0 .05 0 0Z" fill="#E63312"/><path d="M247.408 48.36c.994 0 1.939.346 2.685 1.038l11.239 10.24.199.149.199-.148 11.239-10.24c1.591-1.485 4.078-1.386 5.57.246a3.853 3.853 0 0 1 1.044 2.672V73.39c0 2.177-1.79 3.908-3.929 3.908-2.138 0-3.928-1.78-3.928-3.908v-6.678c0-.742-.597-1.336-1.343-1.336-.348 0-.647.099-.895.346l-7.907 7.223-7.907-7.223a1.343 1.343 0 0 0-1.89.1c-.249.247-.348.543-.348.89v6.58a3.867 3.867 0 0 1-3.78 4.056c-2.188.099-4.028-1.583-4.078-3.76V52.267c-.149-2.176 1.641-3.908 3.83-3.908Zm0-.297c-2.338 0-4.227 1.88-4.227 4.204v21.075c-.15 2.325 1.641 4.303 3.978 4.452 2.337.148 4.326-1.633 4.476-3.958v-7.123c0-.594.497-1.04 1.044-1.04.249 0 .497.1.696.298l8.106 7.42 8.106-7.37a1.086 1.086 0 0 1 1.492.049.974.974 0 0 1 .299.692v6.58c0 2.325 1.889 4.205 4.227 4.205 2.337 0 4.227-1.88 4.227-4.205V52.267c0-2.325-1.89-4.205-4.227-4.205-1.045 0-2.089.396-2.835 1.089l-11.239 10.24-11.239-10.24c-.845-.693-1.84-1.089-2.884-1.089Z" fill="#fff"/><path d="M189.82 66.855c-2.238 0-4.078-1.83-4.078-4.056s1.84-4.057 4.078-4.057h3.481c2.238 0 4.078 1.83 4.078 4.057 0 2.226-1.84 4.056-4.078 4.056h-3.481Z" fill="#E63312"/><path d="M193.302 58.845a3.926 3.926 0 0 1 3.928 3.908c0 2.177-1.79 3.908-3.928 3.908h-3.481a3.926 3.926 0 0 1-3.929-3.908c0-2.127 1.79-3.908 3.929-3.908h3.481Zm0-.247h-3.481c-2.338-.1-4.327 1.682-4.426 4.007-.1 2.325 1.69 4.254 3.978 4.403h3.879a4.215 4.215 0 0 0 4.028-4.403c-.05-2.177-1.79-3.908-3.978-4.007ZM221.795 56.469h7.609c.646 0 1.193.544 1.193 1.187s-.547 1.187-1.193 1.187h-7.609a1.207 1.207 0 0 1-1.193-1.187c0-.643.547-1.187 1.193-1.187Z" fill="#fff"/><path d="m13.825 102.281 4.127 10.933 4.128-10.933h2.387v13.011h-1.641v-10.834h-.05l-4.078 10.834h-1.492l-4.078-10.834h-.05v10.834h-1.64v-13.011h2.386ZM33.418 102.281l5.122 13.011H36.6l-1.441-3.908h-5.52l-1.492 3.908h-1.74l5.072-13.011h1.94Zm1.243 7.668-2.188-6.085h-.05l-2.237 6.085h4.475ZM44.856 102.281c2.039 0 3.58.495 4.674 1.534 1.094 1.039 1.641 2.572 1.641 4.65 0 .989-.1 1.979-.348 2.919a4.938 4.938 0 0 1-1.144 2.127 5.24 5.24 0 0 1-1.939 1.336 6.84 6.84 0 0 1-2.835.445H40.43v-13.011h4.426Zm.149 11.576c.199 0 .447 0 .746-.049.298-.05.646-.099.945-.198.348-.099.696-.297.994-.495a3.81 3.81 0 0 0 .895-.89c.299-.446.498-.891.647-1.435.199-.692.249-1.385.249-2.028 0-.693-.05-1.385-.25-2.078a4.637 4.637 0 0 0-.745-1.583 2.985 2.985 0 0 0-1.343-.989c-.646-.248-1.343-.347-2.039-.347H42.17v10.092h2.835ZM62.856 102.281v1.435h-7.31v4.155h6.812v1.435h-6.813v4.502h7.36v1.484h-9.1v-13.011h9.05ZM73.1 102.281v13.011h-1.74v-13.011h1.74ZM78.376 102.281l6.913 10.537h.05v-10.537h1.69v13.011h-1.89l-6.862-10.438h-.05v10.438h-1.641v-13.011h1.79ZM97.866 102.281v13.011h-1.741v-13.011h1.74ZM99.96 103.765v-1.484h10.444v1.435h-4.376v11.576h-1.741v-11.527h-4.326ZM116.223 102.281l5.122 13.011h-1.939l-1.443-3.908h-5.52l-1.492 3.908h-1.74l5.072-13.011h1.94Zm1.243 7.668-2.188-6.085h-.05l-2.238 6.085h4.476ZM124.92 102.281v11.576h6.913v1.484h-8.653v-13.06h1.74ZM137.302 115.292h-1.74v-5.343l-5.023-7.668h2.089l3.928 6.184 3.83-6.184h1.989l-5.023 7.718-.05 5.293Z" fill="#E63312"/></svg>