<svg width="260" height="153" fill="none" xmlns="http://www.w3.org/2000/svg"><g clip-path="url(#a)" fill="#fff"><path d="M24.257 77.941H13.333l-.235.235c-.235.235.235.353.235.353 2.232.235 3.172.94 3.172 3.171v3.759c0 2.467.235 2.467-2.82 2.584-7.634.352-6.695-8.927-6.695-11.394 0-6.108 1.058-11.158 6.46-10.923 3.877 0 6.344 3.171 7.4 6.108 0 0 .236.234.353.234.235 0 .353-.234.353-.234V64.55l-.353-.352c-.235-.235-.352.234-.352.234-.353.94-.587 1.293-1.527 1.293s-3.29-1.527-6.46-1.527C5.697 64.199 1 69.719 1 76.649 1 82.757 4.759 89.1 13.216 89.1c2.936 0 6.695-.94 8.34-2.232V81.7c0-2.936.587-2.936 2.584-3.171.117 0 .235-.235.117-.588Z"/><path d="M35.419 88.392c-1.88-.235-3.172-.587-3.172-2.82v-17.5c0-2.467 1.527-2.937 3.172-3.172 0 0 .235-.235.235-.353 0-.117-.235-.234-.235-.234H23.673s-.235 0-.235.352c0 .235.235.235.235.235 1.527.235 3.171.705 3.171 3.171v17.502c0 2.232-1.292 2.584-3.171 2.819l-.353.117c0 .235.235.353.235.353h11.746s.235-.235.235-.353l-.117-.117Z"/><path d="M46.107 65.135c-4.816 0-6.108 5.991-6.108 11.16 0 3.17.94 11.393 6.343 11.393 6.108 0 6.108-8.222 6.108-11.394 0-5.168-1.292-11.159-6.343-11.159Zm0-1.174c6.695 0 12.45 4.698 12.45 12.45 0 7.4-5.167 12.686-12.45 12.686-7.282 0-12.45-5.168-12.45-12.685 0-7.988 5.755-12.451 12.45-12.451Z"/><path d="M66.192 65.722v10.454c4.464 0 5.521-.353 5.99-5.169.236-2.466-1.056-5.168-3.875-5.168-1.88-.117-2.115-.117-2.115-.117Zm14.33 22.67s.353.234.353.352c0 .235-.353.352-.353.352h-6.46l-6.93-11.393h-.94v6.93c0 2.936.705 3.524 2.937 3.876 0 0 .352.235.352.352 0 .235-.352.235-.352.235H57.618s-.235 0-.235-.352c0-.235.235-.235.235-.235 2.231-.352 3.171-.94 2.936-3.876V68.306c0-3.171-1.057-2.937-2.936-3.172 0 0-.235 0-.235-.352 0-.235.235-.352.235-.352H68.54c2.467 0 9.045.352 9.045 6.342 0 4.464-3.171 5.756-5.05 6.343l6.107 10.22c.587.47 1.175 1.057 1.88 1.057ZM101.548 64.899c1.527.235 2.819.587 2.819 2.819v17.619c0 2.232-.94 2.584-2.819 2.819 0 0-.235 0-.235.235 0 .352.235.352.235.352h19.498l.94-7.635-.235.235c-.353 0-.235.352-.235.352-1.997 5.404-3.759 6.109-8.927 6.109-1.997 0-2.819-.353-2.819-1.88v-8.692c3.171 0 4.816.705 5.168 5.168 0 0 0 .235.235.235s.235-.235.235-.235V70.537s0-.235-.235-.235c-.352 0-.235.235-.235.235-.587 4.463-2.232 5.403-5.168 5.403V65.72h2.467c4.463 0 7.047.236 7.752 5.404 0 0 0 .235.235.235s.235-.235.235-.235v-6.343l-18.911.118-.353.117h.353V64.9ZM137.374 88.392c-2.467-.235-3.289-.705-3.172-3.524v-19.38c2.232.234 6.46-1.175 7.048 4.815 0 0 0 .235.352.235.235 0 .353-.235.353-.235v-5.99h-20.791v5.99s0 .235.352.235c.353 0 .353-.235.353-.235.587-5.403 4.228-4.816 7.047-4.816v19.146c0 2.937-1.057 3.407-3.171 3.524 0 0-.352 0-.352.235s.235.587.235.587h11.863s.235-.235.235-.587h-.352Z"/><path d="M102.015 77.938H91.209s-.235 0-.235.235.235.353.235.353c2.231.235 3.171.94 3.171 3.171v3.759c0 2.467.235 2.467-2.819 2.584-7.635.352-7.048-8.692-7.048-11.394 0-6.108 1.527-11.158 6.93-10.923 3.877 0 6.343 3.171 7.4 6.108 0 0 .236.234.353.234.235 0 .352-.234.352-.234v-7.283l-.235-.352c-.235 0-.352.234-.352.234-.352.94-.587 1.293-1.527 1.293s-3.524-1.645-6.46-1.645c-7.283 0-12.216 5.756-12.216 12.686 0 6.108 4.11 12.45 12.686 12.45 2.936 0 6.695-.94 8.34-2.231v-4.464c0-2.936.587-3.758 2.583-3.876 0 0 .235-.235.235-.352-.352-.353-.587-.353-.587-.353ZM175.661 88.392c-1.88-.235-3.172-.587-3.172-2.82v-17.5c0-2.467 1.527-2.937 3.172-3.172 0 0 .235-.235.235-.353 0-.117-.235-.234-.235-.234h-11.746s-.235 0-.235.352c0 .235.235.235.235.235 1.527.235 3.171.705 3.171 3.171v17.502c0 2.232-1.292 2.584-3.171 2.819l-.235.235c0 .235.235.352.235.352h11.746s.235-.235.235-.352l-.235-.235ZM158.749 88.392c-2.467-.235-3.289-.705-3.171-3.524v-19.38c2.231.234 6.46-1.175 7.047 4.815 0 0 0 .235.353.235.235 0 .352-.235.352-.235v-5.99h-21.025v5.99s0 .235.352.235.352-.235.352-.235c.588-5.403 4.229-4.816 7.048-4.816v19.146c0 2.937-1.057 3.407-3.171 3.524 0 0-.353 0-.353.235s.235.587.235.587h11.864c.117 0 .235-.235.117-.587ZM248.837 79.232h-9.514c0-.94.235-1.997.587-2.937a18.935 18.935 0 0 0 8.222-3.876l11.277-9.632-6.461-7.635-7.635 6.46-6.46-3.758-4.698 8.222c-.94-.352-1.645-1.174-2.232-1.997.939-2.819 1.292-5.99.705-9.161L230.043 40l-9.866 1.88 1.879 9.866-6.46 3.759 4.698 8.222c-.705.587-1.879.94-2.936.94-1.997-2.232-4.464-4.111-7.635-5.169l-13.978-5.05-3.289 9.514 9.279 3.406v7.4h9.515c0 .94-.235 1.997-.588 2.937a18.945 18.945 0 0 0-8.222 3.876l-11.276 9.632 6.46 7.635 7.635-6.46 6.461 3.758 4.698-8.222c.94.352 1.644 1.174 2.232 1.997-.94 2.819-1.292 5.99-.705 9.161l2.584 14.683 9.867-1.879-1.88-9.867 6.461-3.759-4.699-8.222c.705-.587 1.88-.94 2.937-.94 1.997 2.232 4.463 4.112 7.635 5.169l13.978 5.05 3.288-9.514-9.279-3.406v-7.165Zm-1.292 1.174v5.99l-3.289-1.291c-2.232-.705-3.759-2.232-4.463-4.111 0-.235 0-.353-.235-.588h7.987Zm5.403-23.61 4.816 5.756-10.454 8.692a18.36 18.36 0 0 1-6.695 3.524l7.047-12.098-1.057-.587 6.343-5.286Zm-13.39 2.585 5.051 2.819-2.82 2.232c-1.879 1.527-3.876 2.231-5.755 1.88-.235 0-.352-.236-.587-.236l4.111-6.695Zm-4.699 8.105c.353.235.588.235.94.235 2.232.352 4.698-.353 6.695-1.997l3.172-2.584.352.235-6.695 11.51c0 .236-.235.236-.235.353a15.755 15.755 0 0 1-4.699 0c-1.057-.235-1.996-.587-3.171-.94.352-1.174.705-2.231 1.527-3.171l2.114-3.641Zm3.407 8.927c0 .94-.235 1.88-.235 2.819h-3.876c-1.293 0-2.467.235-3.524.352 0-1.527 0-2.819.352-4.228 1.057.352 1.997.704 3.172.94.939.234 1.879.234 2.584.234.587-.117 1.174-.117 1.527-.117Zm-4.699-9.397-1.997 3.524a43.522 43.522 0 0 0-1.527 3.406 18.901 18.901 0 0 1-3.523-2.467c.939-.704 1.644-1.527 2.466-2.466.94-1.175 1.645-2.232 2.232-3.524.94.352 1.644.94 2.349 1.527Zm-7.282 30.657.704 3.876-.352.235-6.695-11.511c0-.235-.235-.235-.235-.352.587-1.527 1.292-2.82 2.467-4.112.704-.94 1.527-1.644 2.466-2.231.705.94 1.527 1.88 1.997 2.819l1.997 3.524c-.235.235-.587.352-.705.704-1.644 1.997-2.114 4.464-1.644 7.048Zm-5.756-18.559c.353-1.644.587-3.406.587-5.05 1.645-.353 3.172-1.175 4.699-1.997 1.292 1.292 2.584 2.231 4.111 2.936-.352 1.645-.587 3.406-.587 5.051-1.645.352-3.172 1.175-4.699 1.997-1.292-1.292-2.584-2.232-4.111-2.937Zm3.524-22.905-.705-3.876.353-.235 6.695 11.511c0 .235.235.235.235.353-.588 1.527-1.292 2.819-2.467 4.111-.705.94-1.527 1.645-2.467 2.232-.704-.94-1.527-1.88-1.996-2.82l-1.997-3.523c.235-.235.587-.353.705-.705 1.526-1.88 2.114-4.228 1.644-7.047Zm-2.584-13.39 7.4-1.292 2.467 13.39c.587 2.585.352 5.169-.353 7.4l-7.047-12.098-1.058.587-1.409-7.987Zm-4.229 13.038 5.051-2.819.587 3.524c.353 2.232 0 4.463-1.292 5.99l-.352.353-3.994-7.048Zm3.524 8.692 1.997 3.524c.587 1.175 1.292 1.997 1.997 2.937-1.057.704-2.467 1.292-3.876 1.644-.235-1.175-.353-2.232-.705-3.406-.588-1.292-1.057-2.585-1.997-3.76.94 0 1.879-.352 2.584-.939Zm-19.146 1.527-7.752-2.936 2.584-7.048 12.803 4.699c2.467.94 4.698 2.231 6.343 4.11h-13.978v1.175Zm1.292 7.4v-5.99l3.289 1.292c2.232.704 3.759 2.231 4.463 4.11 0 .236 0 .353.235.588h-7.987Zm3.759-5.99-3.876-1.292v-.353h13.742a17.35 17.35 0 0 1 2.232 4.111c.353 1.175.588 1.997.705 3.172-1.057.235-2.232.352-3.524.352h-3.876v-.235c0-.352-.235-.587-.235-.94-.705-2.114-2.584-3.876-5.168-4.815Zm13.038 6.695c0 1.527 0 2.819-.352 4.228-1.058-.352-1.997-.704-3.172-.94-1.527-.234-2.819-.234-4.228-.234.352-.94.352-1.88.352-2.82h3.876c1.292.236 2.349 0 3.524-.234Zm-22.2 22.905-4.816-5.756 10.454-8.692a18.367 18.367 0 0 1 6.695-3.524l-7.047 12.099 1.057.587-6.343 5.286Zm13.39-2.584-5.05-2.82 2.819-2.231c1.879-1.527 3.758-2.232 5.755-1.88.235 0 .353.235.588.235l-4.112 6.696Zm4.699-7.988c-.353-.235-.587-.235-.94-.235-.352 0-.705-.235-1.292-.235-1.879 0-3.876.705-5.521 2.232l-3.171 2.584-.235-.235 6.695-11.51c0-.236.235-.236.235-.353a15.755 15.755 0 0 1 4.699 0c1.057.235 1.996.587 3.171.94-.352 1.174-.705 2.231-1.527 3.171l-2.114 3.641Zm1.057.588 1.997-3.524a43.524 43.524 0 0 0 1.527-3.407 18.943 18.943 0 0 1 3.524 2.467c-.94.705-1.645 1.527-2.467 2.467-.94 1.174-1.645 2.231-2.232 3.524-.705-.588-1.409-1.175-2.349-1.527Zm12.098 23.961-7.4 1.293-2.466-13.39c-.588-2.585-.353-5.17.352-7.4l7.048 12.097 1.057-.587 1.409 7.987Zm4.464-13.038-5.051 2.819-.587-3.523c-.353-2.232 0-4.464 1.292-5.99l.352-.353 3.994 7.047Zm-3.524-8.692-1.997-3.523c-.587-1.175-1.292-1.997-1.997-2.937 1.058-.705 2.467-1.292 3.877-1.644.235 1.174.352 2.231.704 3.406.588 1.292 1.057 2.584 1.997 3.759-.94.117-1.879.587-2.584.94Zm4.111-1.174a17.385 17.385 0 0 1-2.232-4.111c-.352-1.175-.587-1.997-.704-3.172 1.057-.235 2.231-.352 3.523-.352h4.112c0 .352.234.587.234.94.705 2.231 2.585 3.876 5.169 4.815l3.876 1.292v.353h-13.391c-.469.117-.469.235-.587.235Zm22.67 2.819-2.584 7.047-12.803-4.698c-2.467-.94-4.699-2.232-6.343-4.111h13.978v-1.292l7.752 3.054Z"/></g><defs><clipPath id="a"><path fill="#fff" transform="translate(1 40)" d="M0 0h258.413v74H0z"/></clipPath></defs></svg>