<svg width="153" height="153" fill="none" xmlns="http://www.w3.org/2000/svg"><g clip-path="url(#a)"><path d="M153 0H0v153h153V0Z" fill="#E30613"/><path d="M81.755 62.703c-4.179 0-6.833 1.896-6.833 6.284V85.24c0 4.388 2.74 6.284 6.919 6.284 4.178 0 6.872-1.896 6.872-6.284V68.987c0-4.388-2.74-6.284-6.958-6.284Zm1.308 25.136a1.146 1.146 0 0 1-1.184 1.138 1.2 1.2 0 0 1-1.246-1.138V66.17a1.152 1.152 0 0 1 1.16-1.145 1.231 1.231 0 0 1 1.27 1.176V87.84ZM72.122 62.703a1.446 1.446 0 0 0-1.332 1.377l-3.25 18.814-3.204-17.792c-.417-1.47-1.393-2.399-2.824-2.399a2.667 2.667 0 0 0-2.871 2.616c.008.26.037.518.084.774l4.342 23.054a3.003 3.003 0 0 0 2.956 2.321 2.941 2.941 0 0 0 2.995-2.321c4.257-23.58 4.388-24.254 4.388-24.254s.078-.712.124-.844a1.364 1.364 0 0 0-.423-.967 1.37 1.37 0 0 0-.985-.379ZM100.218 88.842h-2.654V65.146a2.657 2.657 0 0 0-1.795-2.354 2.66 2.66 0 0 0-1.03-.138 2.618 2.618 0 0 0-1.914.663 2.622 2.622 0 0 0-.872 1.829v23.781a2.635 2.635 0 0 0 1.778 2.44c.338.117.697.164 1.054.137h5.417a1.313 1.313 0 0 0 .947-.398 1.32 1.32 0 0 0 .377-.956 1.349 1.349 0 0 0-1.308-1.308ZM40.63 80.077a2.799 2.799 0 0 0-1.976.835 2.79 2.79 0 0 0-.802 1.99v4.937a1.254 1.254 0 0 1-2.492 0V66.17a1.151 1.151 0 0 1 1.161-1.145 1.178 1.178 0 0 1 .86.33 1.18 1.18 0 0 1 .363.846v4.643a2.788 2.788 0 0 0 2.786 2.825 2.834 2.834 0 0 0 2.863-2.825v-1.857c.023-4.388-2.678-6.284-6.872-6.284s-6.834 1.896-6.834 6.284V85.24c0 4.388 2.748 6.284 6.92 6.284 4.17 0 6.879-1.904 6.879-6.261v-2.36a2.821 2.821 0 0 0-2.856-2.825ZM54.932 65.024a3.094 3.094 0 0 0-5.99 0l-4.35 24.284s-.123.72-.123.844a1.334 1.334 0 0 0 .822 1.253c.164.068.34.102.517.1a1.447 1.447 0 0 0 1.346-1.353l.426-1.896h5.812l.216.843c.465 1.44 1.394 2.407 2.825 2.407a2.726 2.726 0 0 0 2.91-2.616c0-.17-.085-.588-.085-.774l-4.326-23.092Zm-6.965 20.832 2.407-14.038 2.654 14.047-5.061-.008ZM20.138 62.703c-4.179 0-6.624 1.896-6.624 6.284v3.87c0 1.818.55 2.995 2.321 4.264l4.303 3.095c.882.635 1.223 1.014 1.223 1.811v5.734a1.114 1.114 0 0 1-1.184 1.138 1.154 1.154 0 0 1-1.223-1.106v-4.806a2.794 2.794 0 0 0-2.825-2.825 2.816 2.816 0 0 0-2.824 2.825v1.896c0 4.388 2.7 6.624 6.872 6.624 4.171 0 6.795-1.896 6.795-6.284V80.75a4.38 4.38 0 0 0-2.059-3.962l-3.46-2.237c-2.36-1.547-2.53-1.687-2.53-4.256V66.2a1.186 1.186 0 0 1 1.254-1.176 1.178 1.178 0 0 1 .86.33 1.18 1.18 0 0 1 .363.846v4.643a2.785 2.785 0 0 0 2.786 2.825 2.862 2.862 0 0 0 2.87-2.825v-1.857c0-4.388-2.747-6.284-6.918-6.284ZM105.395 62.654a2.704 2.704 0 0 0-2.864 2.492v23.781a2.857 2.857 0 0 0 5.688 0s.047-1.176 0-23.781a2.684 2.684 0 0 0-2.824-2.492ZM137.542 62.578a2.141 2.141 0 0 0-2.144 2.105 2.153 2.153 0 0 0 4.295 0 2.14 2.14 0 0 0-2.151-2.105Zm0 3.87a1.795 1.795 0 0 1-1.274-.51 1.787 1.787 0 0 1-.537-1.263 1.82 1.82 0 0 1 3.63 0 1.807 1.807 0 0 1-.54 1.268 1.797 1.797 0 0 1-1.279.512v-.008Z" fill="#fff"/><path d="M138.608 64.13a.589.589 0 0 0-.255-.463 1.244 1.244 0 0 0-.55-.086h-.967v2.152h.333v-.968h.379l.634.968h.38l-.658-.968c.363-.046.704-.17.704-.634Zm-1.099.341h-.34v-.634h.549c.294 0 .549.046.549.294 0 .426-.417.34-.758.34ZM131.348 62.654a2.692 2.692 0 0 0-2.825 2.492v23.782a2.634 2.634 0 0 0 2.825 2.577c1.355 0 2.871-.774 2.871-2.577V65.146a2.698 2.698 0 0 0-2.871-2.492ZM124.351 62.531a1.26 1.26 0 0 0-1.23 1.27v18.255l-6.888-17.753a2.605 2.605 0 0 0-1.365-1.476 2.608 2.608 0 0 0-2.009-.071 2.68 2.68 0 0 0-1.687 2.53v25.105a1.249 1.249 0 0 0 1.246 1.246 1.246 1.246 0 0 0 1.246-1.246V72.236l6.872 17.621a2.565 2.565 0 0 0 1.357 1.495 2.568 2.568 0 0 0 2.017.053 2.642 2.642 0 0 0 1.703-2.561V63.8a1.27 1.27 0 0 0-1.262-1.27Z" fill="#fff"/></g><defs><clipPath id="a"><path fill="#fff" d="M0 0h153v153H0z"/></clipPath></defs></svg>