<svg width="24" height="24" viewBox="0 0 24 24" fill="none" xmlns="http://www.w3.org/2000/svg">
<path d="M16.762 2.00044C15.8555 1.99538 14.959 2.19833 14.1361 2.59492C13.3132 2.99151 12.5839 3.57203 12 4.29536C11.4199 3.56733 10.6914 2.98353 9.86758 2.58651C9.04375 2.18949 8.14537 1.98927 7.23794 2.00044C3.79281 2.00044 1 4.91377 1 8.50758C1 14.6662 11.3038 20.6795 11.7215 20.9119C11.804 20.9693 11.9009 21 12 21C12.0991 21 12.1961 20.9693 12.2785 20.9119C12.6962 20.6795 23 14.7533 23 8.50758C23 4.91377 20.2071 2.00044 16.762 2.00044Z" fill="#EA0029"/>
</svg>
