<svg width="24" height="24" viewBox="0 0 24 24" fill="none" xmlns="http://www.w3.org/2000/svg">
<path d="M16.762 2.00044C15.8555 1.99538 14.959 2.19833 14.1361 2.59492C13.3132 2.99151 12.5839 3.57203 12 4.29536C11.4199 3.56733 10.6914 2.98353 9.86758 2.58651C9.04375 2.18949 8.14537 1.98927 7.23794 2.00044C3.79281 2.00044 1 4.91377 1 8.50758C1 14.6662 11.3038 20.6795 11.7215 20.9119C11.804 20.9693 11.9009 21 12 21C12.0991 21 12.1961 20.9693 12.2785 20.9119C12.6962 20.6795 23 14.7533 23 8.50758C23 4.91377 20.2071 2.00044 16.762 2.00044ZM12 19.7499C10.3848 18.7622 2.11393 13.5042 2.11393 8.50758C2.11393 5.55555 4.40803 3.16238 7.23799 3.16238C8.09039 3.15071 8.93156 3.36601 9.68198 3.7879C10.4324 4.2098 11.0673 4.82437 11.5266 5.57351C11.7162 5.84624 12.0819 5.90702 12.3434 5.70918C12.3933 5.6714 12.4372 5.62561 12.4734 5.57351C14.0221 3.10278 17.1977 2.40952 19.5662 4.02507C20.2799 4.51186 20.8658 5.17676 21.2709 5.95948C21.676 6.74221 21.8874 7.61802 21.886 8.50752C21.8861 13.5622 13.6152 18.7912 12 19.7499Z" fill="#050505"/>
</svg>
