<svg width="24" height="24" viewBox="0 0 24 24" fill="none" xmlns="http://www.w3.org/2000/svg">
<path d="M21.9158 8.81359C21.8781 8.77578 21.8333 8.74578 21.7839 8.72532C21.7345 8.70485 21.6816 8.69431 21.6282 8.69431C21.5748 8.69431 21.5219 8.70485 21.4725 8.72532C21.4232 8.74578 21.3783 8.77578 21.3406 8.81359L10.2369 19.9173C9.83342 20.3218 9.35374 20.6422 8.8256 20.86C8.29747 21.0778 7.73137 21.1887 7.16009 21.1862C5.99374 21.1862 4.90103 20.7358 4.08291 19.9173C3.2648 19.0988 2.81405 18.0065 2.81405 16.8401C2.81405 15.6742 3.26439 14.5815 4.08291 13.7634L15.1862 2.65923C16.3648 1.48108 18.215 1.55309 19.49 2.82725C20.7645 4.10181 20.8369 5.95243 19.6584 7.13099L9.22755 17.5622C8.94655 17.8423 8.56597 17.9996 8.16921 17.9996C7.77245 17.9996 7.39187 17.8423 7.11087 17.5622C6.83067 17.2813 6.67332 16.9007 6.67332 16.5039C6.67332 16.1071 6.83067 15.7265 7.11087 15.4456L14.1769 8.37952C14.2532 8.30323 14.296 8.19977 14.296 8.09189C14.296 7.98402 14.2532 7.88056 14.1769 7.80427C14.1006 7.72799 13.9972 7.68514 13.8893 7.68514C13.7814 7.68514 13.678 7.72799 13.6017 7.80427L6.53563 14.8699C6.10299 15.3035 5.86002 15.891 5.86002 16.5035C5.86002 17.116 6.10299 17.7035 6.53563 18.1371C6.96921 18.5697 7.5567 18.8127 8.16921 18.8127C8.78172 18.8127 9.36921 18.5697 9.80279 18.1371L20.234 7.70582C21.7405 6.19897 21.6681 3.85406 20.0656 2.2516C18.4636 0.649545 16.1183 0.576724 14.6114 2.08358L3.50727 13.1877C2.53497 14.1596 2 15.4565 2 16.8401C2 18.2237 2.53497 19.5211 3.50727 20.493C4.47916 21.4653 5.7761 22.0002 7.16009 22.0002C8.54328 22.0002 9.84063 21.4653 10.8125 20.493L21.9158 9.38883C21.9536 9.35109 21.9836 9.30625 22.0041 9.2569C22.0246 9.20755 22.0351 9.15464 22.0351 9.10121C22.0351 9.04778 22.0246 8.99488 22.0041 8.94553C21.9836 8.89617 21.9536 8.85134 21.9158 8.81359Z" fill="#00604B"/>
</svg>
