<svg width="30" height="30" viewBox="0 0 30 30" fill="none" xmlns="http://www.w3.org/2000/svg">
<path d="M19.5833 22.4479V23.5938C19.5833 26.4366 17.2699 28.75 14.4271 28.75H6.40625C5.03919 28.7485 3.72856 28.2048 2.76191 27.2381C1.79525 26.2714 1.25152 24.9608 1.25 23.5938L1.25 15.5729C1.25 12.7301 3.56344 10.4167 6.40625 10.4167H7.55208C7.70403 10.4167 7.84975 10.477 7.9572 10.5845C8.06464 10.6919 8.125 10.8376 8.125 10.9896C8.125 11.1415 8.06464 11.2873 7.9572 11.3947C7.84975 11.5021 7.70403 11.5625 7.55208 11.5625H6.40625C4.19479 11.5625 2.39583 13.3615 2.39583 15.5729V23.5938C2.39583 25.8052 4.19479 27.6042 6.40625 27.6042H14.4271C16.6385 27.6042 18.4375 25.8052 18.4375 23.5938V22.4479C18.4375 22.296 18.4979 22.1502 18.6053 22.0428C18.7127 21.9354 18.8585 21.875 19.0104 21.875C19.1624 21.875 19.3081 21.9354 19.4155 22.0428C19.523 22.1502 19.5833 22.296 19.5833 22.4479ZM28.75 6.40625V14.4271C28.75 17.2699 26.4366 19.5833 23.5938 19.5833H15.5729C14.2059 19.5818 12.8952 19.0381 11.9286 18.0714C10.9619 17.1048 10.4182 15.7941 10.4167 14.4271V6.40625C10.4167 3.56344 12.7301 1.25 15.5729 1.25H23.5938C26.4366 1.25 28.75 3.56344 28.75 6.40625ZM27.6042 6.40625C27.6042 4.19479 25.8052 2.39583 23.5938 2.39583H15.5729C13.3615 2.39583 11.5625 4.19479 11.5625 6.40625V14.4271C11.5625 16.6385 13.3615 18.4375 15.5729 18.4375H23.5938C25.8052 18.4375 27.6042 16.6385 27.6042 14.4271V6.40625Z" fill="#797979"/>
</svg>
