<svg width="24" height="24" viewBox="0 0 24 24" fill="none" xmlns="http://www.w3.org/2000/svg">
<path d="M15.7454 15.7978C15.8323 15.8828 15.8819 15.9988 15.8833 16.1203C15.8846 16.2419 15.8377 16.359 15.7527 16.4459L13.4473 18.8017C13.098 19.151 12.6406 19.3279 12.1841 19.3325C11.7006 19.33 11.2367 19.1412 10.8889 18.8054L8.57977 16.4459C8.49667 16.3586 8.45129 16.2421 8.45345 16.1216C8.4556 16.0011 8.50513 15.8863 8.5913 15.8021C8.67748 15.7179 8.79336 15.6709 8.91387 15.6715C9.03438 15.6721 9.14982 15.7201 9.23519 15.8051L11.5406 18.161C11.591 18.2113 11.6474 18.2553 11.7084 18.2921V11.5426C11.7084 11.4211 11.7567 11.3045 11.8426 11.2185C11.9286 11.1326 12.0451 11.0843 12.1667 11.0843C12.2883 11.0843 12.4048 11.1326 12.4908 11.2185C12.5767 11.3045 12.625 11.4211 12.625 11.5426V18.2921C12.6874 18.2545 12.7449 18.2096 12.7965 18.1582L15.0982 15.8061C15.1833 15.7194 15.2993 15.6699 15.4207 15.6686C15.5422 15.6672 15.6593 15.714 15.7463 15.7987L15.7454 15.7978ZM21.3334 10.1539V18.876C21.3334 21.1502 19.4826 23.001 17.2084 23.001H7.12502C6.03137 22.9998 4.98286 22.5648 4.20953 21.7915C3.4362 21.0181 3.00121 19.9696 3 18.876V5.12502C3 2.85076 4.85076 1 7.12502 1H12.1805C13.7709 1 15.2678 1.61967 16.3944 2.74534L19.5881 5.93994C20.1433 6.49176 20.5834 7.1483 20.883 7.87149C21.1826 8.59469 21.3357 9.37016 21.3334 10.153V10.1539ZM14 6.95927C14 7.71736 14.617 8.33428 15.375 8.33428H20.0794C19.8253 7.67928 19.4368 7.08474 18.9391 6.58894L15.7454 3.39434C15.2492 2.89723 14.6548 2.50915 14 2.25492V6.95927ZM20.4167 10.1539C20.4167 9.8477 20.3892 9.54612 20.3361 9.25095H15.375C14.7675 9.25022 14.185 9.00854 13.7554 8.57893C13.3258 8.14931 13.0841 7.56684 13.0834 6.95927V1.99734C12.7854 1.94364 12.4832 1.91664 12.1805 1.91667H7.12502C5.35584 1.91667 3.91667 3.35584 3.91667 5.12502V18.8751C3.91667 20.6442 5.35584 22.0834 7.12502 22.0834H17.2084C18.9776 22.0834 20.4167 20.6442 20.4167 18.8751V10.153V10.1539ZM12.1841 19.3325C12.1777 19.3325 12.1896 19.3325 12.1841 19.3325V19.3325Z" fill="#00604B"/>
</svg>
