<svg width="30" height="30" viewBox="0 0 30 30" fill="none" xmlns="http://www.w3.org/2000/svg">
<path d="M25.1635 24.35C26.0044 23.3311 26.4625 22.0502 26.4583 20.7292C26.4583 17.5667 23.8917 15 20.7292 15C17.5667 15 15 17.5667 15 20.7292C15 23.8917 17.5667 26.4583 20.7292 26.4583C22.1042 26.4583 23.3646 25.9771 24.35 25.1635L27.7646 28.5781C27.8165 28.6322 27.8787 28.6752 27.9476 28.7046C28.0166 28.734 28.0907 28.7491 28.1656 28.7491C28.2405 28.7491 28.3147 28.734 28.3836 28.7046C28.4525 28.6752 28.5148 28.6322 28.5667 28.5781C28.7958 28.349 28.7958 27.9937 28.5667 27.7646L25.1521 24.35H25.1635ZM20.7292 25.3125C18.1969 25.3125 16.1458 23.2615 16.1458 20.7292C16.1458 18.1969 18.1969 16.1458 20.7292 16.1458C23.2615 16.1458 25.3125 18.1969 25.3125 20.7292C25.3125 23.2615 23.2615 25.3125 20.7292 25.3125ZM23.5938 8.125H23.0208V5.26042C23.0208 3.04896 21.2219 1.25 19.0104 1.25H10.9896C8.77813 1.25 6.97917 3.04896 6.97917 5.26042V8.125H6.40625C3.56458 8.125 1.25 10.4396 1.25 13.2812V20.1562C1.25 22.9979 3.56458 25.3125 6.40625 25.3125H6.97917V25.8854C6.97917 26.2616 7.05326 26.6341 7.19722 26.9816C7.34118 27.3292 7.55218 27.645 7.81818 27.911C8.08419 28.177 8.39997 28.388 8.74752 28.5319C9.09507 28.6759 9.46757 28.75 9.84375 28.75H16.7188C17.0396 28.75 17.2917 28.4979 17.2917 28.1771C17.2917 27.8563 17.0396 27.6042 16.7188 27.6042H9.84375C8.89271 27.6042 8.125 26.8365 8.125 25.8854V20.1562C8.125 19.2052 8.89271 18.4375 9.84375 18.4375H12.1354C12.4563 18.4375 12.7083 18.1854 12.7083 17.8646C12.7083 17.5438 12.4563 17.2917 12.1354 17.2917H9.84375C9.08402 17.2917 8.3554 17.5935 7.81818 18.1307C7.28097 18.6679 6.97917 19.3965 6.97917 20.1562V24.1667H6.40625C4.19479 24.1667 2.39583 22.3677 2.39583 20.1562V13.2812C2.39583 11.0698 4.19479 9.27083 6.40625 9.27083H23.5938C25.8052 9.27083 27.6042 11.0698 27.6042 13.2812V15.5729C27.6042 15.8938 27.8563 16.1458 28.1771 16.1458C28.4979 16.1458 28.75 15.8938 28.75 15.5729V13.2812C28.75 10.4396 26.4354 8.125 23.5938 8.125ZM8.125 5.26042C8.125 4.50068 8.4268 3.77206 8.96402 3.23485C9.50123 2.69764 10.2298 2.39583 10.9896 2.39583H19.0104C19.7702 2.39583 20.4988 2.69764 21.036 3.23485C21.5732 3.77206 21.875 4.50068 21.875 5.26042V8.125H8.125V5.26042Z" fill="#797979"/>
</svg>
