<svg width="24" height="24" viewBox="0 0 24 24" fill="none" xmlns="http://www.w3.org/2000/svg">
<path d="M9.70833 20.25H5.125C3.35583 20.25 1.91667 18.8108 1.91667 17.0417V5.125C1.91667 3.35583 3.35583 1.91667 5.125 1.91667H11.0833V5.125C11.0833 5.73279 11.3248 6.31568 11.7545 6.74545C12.1843 7.17522 12.7672 7.41667 13.375 7.41667H16.5833V8.79167C16.5833 9.04833 16.785 9.25 17.0417 9.25C17.2983 9.25 17.5 9.04833 17.5 8.79167C17.5 8.79167 17.5092 6.86667 17.5 6.83C17.4133 6.1023 17.0801 5.4262 16.5558 4.91417L13.5858 1.94417C12.9846 1.34397 12.1712 1.00476 11.3217 1L5.125 1C2.85167 1 1 2.85167 1 5.125V17.0417C1 19.315 2.85167 21.1667 5.125 21.1667H9.70833C9.965 21.1667 10.1667 20.965 10.1667 20.7083C10.1667 20.4517 9.965 20.25 9.70833 20.25ZM15.9142 5.55583C16.18 5.82167 16.3725 6.1425 16.4825 6.5H13.375C12.6142 6.5 12 5.88583 12 5.125V2.0175C12.3483 2.1275 12.6783 2.32 12.9442 2.58583L15.9142 5.55583ZM17.0417 11.0833C13.76 11.0833 11.0833 13.76 11.0833 17.0417C11.0833 20.3233 13.76 23 17.0417 23C20.3233 23 23 20.3233 23 17.0417C23 13.76 20.3233 11.0833 17.0417 11.0833ZM17.0417 22.0833C14.2642 22.0833 12 19.8192 12 17.0417C12 14.2642 14.2642 12 17.0417 12C19.8192 12 22.0833 14.2642 22.0833 17.0417C22.0833 19.8192 19.8192 22.0833 17.0417 22.0833ZM17.9583 14.75C17.9583 15.2542 17.5458 15.6667 17.0417 15.6667C16.5375 15.6667 16.125 15.2542 16.125 14.75C16.125 14.2458 16.5375 13.8333 17.0417 13.8333C17.5458 13.8333 17.9583 14.2458 17.9583 14.75ZM17.5 17.0417V19.7917C17.5 20.0483 17.2983 20.25 17.0417 20.25C16.785 20.25 16.5833 20.0483 16.5833 19.7917V17.0417C16.5833 16.785 16.785 16.5833 17.0417 16.5833C17.2983 16.5833 17.5 16.785 17.5 17.0417Z" fill="#00604B"/>
</svg>
