<svg width="24" height="24" viewBox="0 0 24 24" fill="none" xmlns="http://www.w3.org/2000/svg">
<path d="M20.25 4.6875H16.3125V3.75C16.3125 3.20299 16.0952 2.67839 15.7084 2.29159C15.3216 1.9048 14.797 1.6875 14.25 1.6875H9.75C9.20299 1.6875 8.67839 1.9048 8.29159 2.29159C7.9048 2.67839 7.6875 3.20299 7.6875 3.75V4.6875H3.75C3.60082 4.6875 3.45774 4.74676 3.35225 4.85225C3.24676 4.95774 3.1875 5.10082 3.1875 5.25C3.1875 5.39918 3.24676 5.54226 3.35225 5.64775C3.45774 5.75324 3.60082 5.8125 3.75 5.8125H5L5.325 20.415C5.36981 20.9304 5.60527 21.4105 5.98533 21.7614C6.3654 22.1123 6.86271 22.3088 7.38 22.3125H16.62C17.1373 22.3088 17.6346 22.1123 18.0147 21.7614C18.3947 21.4105 18.6302 20.9304 18.675 20.415L19 5.8125H20.25C20.3992 5.8125 20.5423 5.75324 20.6477 5.64775C20.7532 5.54226 20.8125 5.39918 20.8125 5.25C20.8125 5.10082 20.7532 4.95774 20.6477 4.85225C20.5423 4.74676 20.3992 4.6875 20.25 4.6875ZM8.8125 3.75C8.8125 3.50136 8.91127 3.2629 9.08709 3.08709C9.2629 2.91127 9.50136 2.8125 9.75 2.8125H14.25C14.4986 2.8125 14.7371 2.91127 14.9129 3.08709C15.0887 3.2629 15.1875 3.50136 15.1875 3.75V4.6875H8.8125V3.75ZM17.55 20.325C17.5294 20.5598 17.4219 20.7784 17.2484 20.938C17.075 21.0975 16.8482 21.1865 16.6125 21.1875H7.38C7.14562 21.1847 6.92066 21.0948 6.7488 20.9355C6.57694 20.7761 6.47045 20.5585 6.45 20.325L6.1025 5.8125H17.8975L17.55 20.325Z" fill="#797979"/>
<path d="M14.5133 8C14.2287 8 13.998 8.23066 13.998 8.51522V18.2529C13.998 18.5373 14.2287 18.7681 14.5133 18.7681C14.7979 18.7681 15.0285 18.5373 15.0285 18.2529V8.51522C15.0285 8.23066 14.7979 8 14.5133 8Z" fill="#797979"/>
<path d="M9.51327 8C9.22871 8 8.99805 8.23066 8.99805 8.51522V18.2529C8.99805 18.5373 9.22871 18.7681 9.51327 18.7681C9.79788 18.7681 10.0285 18.5373 10.0285 18.2529V8.51522C10.0285 8.23066 9.79788 8 9.51327 8Z" fill="#797979"/>
</svg>
