<svg width="20" height="21" viewBox="0 0 20 21" fill="none" xmlns="http://www.w3.org/2000/svg">
<path d="M6.5612 10.4997H5.03342C4.40168 10.4997 3.88759 11.0138 3.88759 11.6455V13.1733C3.88759 13.805 4.40168 14.3191 5.03342 14.3191H6.5612C7.19293 14.3191 7.70703 13.805 7.70703 13.1733V11.6455C7.70703 11.0138 7.19293 10.4997 6.5612 10.4997ZM6.94314 13.1733C6.94314 13.2746 6.9029 13.3717 6.83127 13.4434C6.75964 13.515 6.6625 13.5552 6.5612 13.5552H5.03342C4.93212 13.5552 4.83497 13.515 4.76334 13.4434C4.69172 13.3717 4.65148 13.2746 4.65148 13.1733V11.6455C4.65148 11.5442 4.69172 11.4471 4.76334 11.3754C4.83497 11.3038 4.93212 11.2636 5.03342 11.2636H6.5612C6.6625 11.2636 6.75964 11.3038 6.83127 11.3754C6.9029 11.4471 6.94314 11.5442 6.94314 11.6455V13.1733ZM15.7279 2.86079H14.582V1.71495C14.582 1.61365 14.5418 1.51651 14.4702 1.44488C14.3985 1.37325 14.3014 1.33301 14.2001 1.33301C14.0988 1.33301 14.0016 1.37325 13.93 1.44488C13.8584 1.51651 13.8181 1.61365 13.8181 1.71495V2.86079H6.17925V1.71495C6.17925 1.61365 6.13901 1.51651 6.06738 1.44488C5.99576 1.37325 5.89861 1.33301 5.79731 1.33301C5.69601 1.33301 5.59886 1.37325 5.52723 1.44488C5.45561 1.51651 5.41536 1.61365 5.41536 1.71495V2.86079H4.26953C3.35816 2.8618 2.48441 3.22429 1.83997 3.86872C1.19553 4.51316 0.833042 5.38691 0.832031 6.29829L0.832031 16.2288C0.832031 18.124 2.37432 19.6663 4.26953 19.6663H15.7279C17.6231 19.6663 19.1654 18.124 19.1654 16.2288V6.29829C19.1654 4.40308 17.6231 2.86079 15.7279 2.86079ZM4.26953 3.62467H15.7279C17.2022 3.62467 18.4015 4.82398 18.4015 6.29829V7.44412H1.59592V6.29829C1.59592 4.82398 2.79523 3.62467 4.26953 3.62467ZM15.7279 18.9025H4.26953C2.79523 18.9025 1.59592 17.7031 1.59592 16.2288V8.20801H18.4015V16.2288C18.4015 17.7031 17.2022 18.9025 15.7279 18.9025Z" fill="#797979"/>
</svg>
