<svg width="20" height="21" viewBox="0 0 20 21" fill="none" xmlns="http://www.w3.org/2000/svg">
<path d="M15.6048 2.16699H4.24112C2.36233 2.16699 0.832031 3.6973 0.832031 5.57608V13.9094C0.832031 15.7882 2.36233 17.3185 4.24112 17.3185H11.8169C12.029 17.3185 12.1957 17.1518 12.1957 16.9397C12.1957 16.7276 12.029 16.5609 11.8169 16.5609H4.24112C2.779 16.5609 1.58961 15.3715 1.58961 13.9094V6.71245H18.2563V13.1518C18.2563 13.364 18.4229 13.5306 18.6351 13.5306C18.8472 13.5306 19.0139 13.364 19.0139 13.1518V5.57608C19.0139 3.6973 17.4835 2.16699 15.6048 2.16699ZM1.58961 5.95487V5.57608C1.58961 4.11396 2.779 2.92457 4.24112 2.92457H15.6048C17.0669 2.92457 18.2563 4.11396 18.2563 5.57608V5.95487H1.58961ZM12.6199 9.76548C12.3749 9.51843 12.0834 9.3223 11.7623 9.18838C11.4411 9.05446 11.0966 8.9854 10.7487 8.98517H9.54415C9.33203 8.98517 9.16537 9.15184 9.16537 9.36396V10.5685C9.16537 11.2806 9.43809 11.9397 9.94567 12.4397L15.7866 18.2806C16.1426 18.6367 16.6199 18.8337 17.1275 18.8337C17.6351 18.8337 18.1123 18.6367 18.4684 18.2806C18.8245 17.9246 19.0214 17.4473 19.0214 16.9397C19.0214 16.4321 18.8245 15.9549 18.4684 15.5988L12.6275 9.7579L12.6199 9.76548ZM17.9229 17.7503C17.4911 18.1821 16.7487 18.1821 16.3169 17.7503L10.476 11.9094C10.1199 11.5534 9.92294 11.0761 9.92294 10.5685V9.74275H10.7487C11.2563 9.74275 11.7335 9.93972 12.0896 10.2958L17.9305 16.1367C18.036 16.2421 18.1196 16.3673 18.1767 16.5051C18.2338 16.6429 18.2632 16.7906 18.2632 16.9397C18.2632 17.0889 18.2338 17.2365 18.1767 17.3743C18.1196 17.5121 18.036 17.6373 17.9305 17.7428L17.9229 17.7503Z" fill="#797979"/>
</svg>
