<svg width="40" height="40" viewBox="0 0 40 40" fill="none" xmlns="http://www.w3.org/2000/svg">
<circle cx="20" cy="20" r="20" fill="#EA0029"/>
<path fill-rule="evenodd" clip-rule="evenodd" d="M12.8915 27.0861C12.6472 26.8422 12.6472 26.4468 12.8915 26.2029L26.2248 12.8905C26.4691 12.6466 26.8651 12.6466 27.1094 12.8905C27.3537 13.1343 27.3537 13.5298 27.1094 13.7736L13.7761 27.0861C13.5318 27.33 13.1358 27.33 12.8915 27.0861Z" fill="white"/>
<path fill-rule="evenodd" clip-rule="evenodd" d="M12.8917 12.9123C13.136 12.6684 13.532 12.6684 13.7763 12.9123L27.1096 26.2248C27.3539 26.4687 27.3539 26.8641 27.1096 27.108C26.8653 27.3519 26.4693 27.3519 26.225 27.108L12.8917 13.7955C12.6474 13.5516 12.6474 13.1562 12.8917 12.9123Z" fill="white"/>
</svg>
