<svg width="30" height="31" viewBox="0 0 30 31" fill="none" xmlns="http://www.w3.org/2000/svg">
<path fill-rule="evenodd" clip-rule="evenodd" d="M18.3438 8C18.5924 8 18.8308 8.09877 19.0067 8.27459C19.1825 8.4504 19.2812 8.68886 19.2812 8.9375V12.7925C19.2812 13.0411 19.1825 13.2796 19.0067 13.4554C18.8308 13.6312 18.5924 13.73 18.3438 13.73C18.0951 13.73 17.8567 13.6312 17.6808 13.4554C17.505 13.2796 17.4062 13.0411 17.4062 12.7925V11.755H2.1875C1.93886 11.755 1.7004 11.6562 1.52459 11.4804C1.34877 11.3046 1.25 11.0661 1.25 10.8175C1.25 10.5689 1.34877 10.3304 1.52459 10.1546C1.7004 9.97877 1.93886 9.88 2.1875 9.88H17.4062V8.9375C17.4062 8.68886 17.505 8.4504 17.6808 8.27459C17.8567 8.09877 18.0951 8 18.3438 8ZM27.985 10.8075C27.9862 10.9306 27.963 11.0528 27.917 11.1669C27.8709 11.2811 27.8029 11.3851 27.7166 11.473C27.6304 11.5609 27.5277 11.6309 27.4144 11.679C27.3011 11.7272 27.1794 11.7526 27.0563 11.7538L22.0138 11.8038C21.7651 11.8062 21.5257 11.7098 21.3481 11.5358C21.1705 11.3617 21.0694 11.1243 21.0669 10.8756C21.0644 10.627 21.1608 10.3875 21.3348 10.21C21.5089 10.0324 21.7464 9.93124 21.995 9.92875L27.0387 9.87875C27.1619 9.8776 27.284 9.9007 27.3982 9.94675C27.5124 9.9928 27.6164 10.0609 27.7042 10.1471C27.7921 10.2334 27.8621 10.3361 27.9103 10.4494C27.9585 10.5627 27.9839 10.6844 27.985 10.8075Z" fill="white"/>
<path fill-rule="evenodd" clip-rule="evenodd" d="M10.85 16.6875C11.0986 16.6875 11.3371 16.7863 11.5129 16.9621C11.6887 17.1379 11.7875 17.3764 11.7875 17.625V21.48C11.7875 21.7286 11.6887 21.9671 11.5129 22.1429C11.3371 22.3187 11.0986 22.4175 10.85 22.4175C10.6014 22.4175 10.3629 22.3187 10.1871 22.1429C10.0113 21.9671 9.9125 21.7286 9.9125 21.48V20.4413H2.1875C1.93886 20.4413 1.7004 20.3425 1.52459 20.1667C1.34877 19.9908 1.25 19.7524 1.25 19.5038C1.25 19.2551 1.34877 19.0167 1.52459 18.8408C1.7004 18.665 1.93886 18.5663 2.1875 18.5663H9.9125V17.625C9.9125 17.3764 10.0113 17.1379 10.1871 16.9621C10.3629 16.7863 10.6014 16.6875 10.85 16.6875ZM13.61 19.5025C13.61 19.2539 13.7088 19.0154 13.8846 18.8396C14.0604 18.6638 14.2989 18.565 14.5475 18.565H27.0475C27.2961 18.565 27.5346 18.6638 27.7104 18.8396C27.8862 19.0154 27.985 19.2539 27.985 19.5025C27.985 19.7511 27.8862 19.9896 27.7104 20.1654C27.5346 20.3412 27.2961 20.44 27.0475 20.44H14.5475C14.2989 20.44 14.0604 20.3412 13.8846 20.1654C13.7088 19.9896 13.61 19.7511 13.61 19.5025Z" fill="white"/>
</svg>
