<svg width="30" height="30" viewBox="0 0 30 30" fill="none" xmlns="http://www.w3.org/2000/svg">
<g clip-path="url(#clip0_963_74386)">
<path d="M21.4039 23.0113C24.1225 18.9986 29.2213 4.6086 10.0781 0C10.9738 0.567701 11.7953 1.2306 12.5429 1.98518C13.8475 3.30394 14.8595 4.8519 15.5788 6.63257C16.2981 8.41325 16.6578 10.3491 16.6578 12.44C16.6578 14.5063 16.2981 16.4351 15.5788 18.2299C14.8595 20.0247 13.8475 21.5797 12.5429 22.8984C11.9046 23.5437 10.7657 24.4287 10.466 24.6297C17.3701 21.5056 20.8574 19.4358 21.4039 23.0113Z" fill="#ED1A39"/>
<path d="M1.5 29.9535C9.82157 22.6651 15.823 30.2638 28.1713 21.0078C24.6276 25.6058 21.6833 26.4168 20.2271 29.9993C12.988 28.8639 8.25952 27.9189 1.5 29.9535Z" fill="white"/>
</g>
<defs>
<clipPath id="clip0_963_74386">
<rect width="30" height="30" fill="white"/>
</clipPath>
</defs>
</svg>
