<svg width="16" height="16" viewBox="0 0 16 16" fill="none" xmlns="http://www.w3.org/2000/svg">
<g clip-path="url(#clip0_963_74165)">
<path d="M15.3705 6.00201C15.3732 6.04679 15.3692 6.09174 15.3586 6.13533L14.3717 10.083C14.3475 10.1797 14.2918 10.2655 14.2134 10.327C14.1351 10.3886 14.0384 10.4223 13.9388 10.4228L8.01729 10.4527H2.09346C1.99335 10.4527 1.89612 10.4192 1.81724 10.3575C1.73837 10.2959 1.68238 10.2096 1.6582 10.1125L0.671282 6.14987C0.660335 6.10511 0.656361 6.05893 0.659499 6.01296C0.277712 5.89267 0 5.53541 0 5.11438C0 4.59491 0.422579 4.17233 0.942056 4.17233C1.46153 4.17233 1.88411 4.59491 1.88411 5.11438C1.88411 5.40693 1.75007 5.66867 1.54019 5.84159L2.77581 7.08654C3.08809 7.40122 3.52144 7.58161 3.96477 7.58161C4.48897 7.58161 4.98877 7.33267 5.30351 6.91559L7.33416 4.22496C7.24653 4.13767 7.17702 4.03392 7.12961 3.91967C7.08221 3.80542 7.05785 3.68293 7.05794 3.55924C7.05794 3.03977 7.48052 2.61719 8 2.61719C8.51948 2.61719 8.94206 3.03977 8.94206 3.55924C8.94206 3.81118 8.84205 4.03984 8.68037 4.20905C8.68091 4.20977 8.68157 4.21037 8.68211 4.21115L10.698 6.90919C11.0127 7.33028 11.5143 7.58167 12.04 7.58167C12.4874 7.58167 12.9081 7.40744 13.2244 7.09103L14.4678 5.84763C14.2535 5.67477 14.1159 5.41052 14.1159 5.11438C14.1159 4.59491 14.5385 4.17233 15.0579 4.17233C15.5774 4.17233 16 4.59491 16 5.11438C16 5.52416 15.7365 5.87269 15.3705 6.00201ZM14.2754 11.8583C14.2754 11.7393 14.2281 11.6252 14.144 11.5411C14.0599 11.457 13.9458 11.4097 13.8268 11.4097H2.22307C2.1041 11.4097 1.98999 11.457 1.90587 11.5411C1.82174 11.6252 1.77447 11.7393 1.77447 11.8583V12.9349C1.77447 13.0539 1.82174 13.168 1.90587 13.2522C1.98999 13.3363 2.1041 13.3835 2.22307 13.3835H13.8268C13.9458 13.3835 14.0599 13.3363 14.144 13.2522C14.2281 13.168 14.2754 13.0539 14.2754 12.9349V11.8583Z" fill="white"/>
</g>
<defs>
<clipPath id="clip0_963_74165">
<rect width="16" height="16" fill="white"/>
</clipPath>
</defs>
</svg>
