<svg width="80" height="80" viewBox="0 0 80 80" fill="none" xmlns="http://www.w3.org/2000/svg">
<path fill-rule="evenodd" clip-rule="evenodd" d="M60.0318 27.4167C62.6325 23.7722 67.5466 19.854 74.2332 16.586C75.975 15.7374 75.1913 13.1093 73.2716 13.3522C59.214 15.1317 50.1011 21.2879 45.1255 30.4417C43.3252 33.7916 42.0969 37.4187 41.4914 41.1732C41.0841 43.6131 40.9781 45.4438 40.9781 47.5586C40.9781 52.0965 42.7807 56.4485 45.9895 59.6573C49.1982 62.866 53.5502 64.6687 58.0881 64.6687C62.626 64.6687 66.978 62.866 70.1867 59.6573C73.3955 56.4485 75.1982 52.0965 75.1982 47.5586C75.1982 38.1105 67.4131 30.4417 58.4714 30.4417C58.9436 29.1482 59.0531 28.7821 60.0318 27.4167ZM71.7762 47.5552C71.7762 51.1855 70.334 54.6671 67.767 57.2341C65.2 59.8011 61.7184 61.2433 58.0881 61.2433C54.4578 61.2433 50.9762 59.8011 48.4092 57.2341C45.8422 54.6671 44.4001 51.1855 44.4001 47.5552C44.4001 45.6149 44.4959 43.9553 44.8689 41.7378C45.4267 38.3877 46.4772 35.1231 48.1335 32.074C52.5821 23.892 60.2987 20.2749 63.4025 19.2312C60.8018 21.2536 58.7212 23.3582 57.2429 25.4251C54.2897 29.5726 53.9988 33.8672 58.0881 33.8672C61.7184 33.8672 65.2 35.3093 67.767 37.8763C70.334 40.4433 71.7762 43.9249 71.7762 47.5552ZM22.3897 27.4133C24.9904 23.7688 29.9044 19.8506 36.591 16.5826C38.3328 15.7339 37.5492 13.1058 35.6295 13.3488C21.5718 15.1282 12.459 21.2844 7.48341 30.4383C5.68308 33.7882 4.4548 37.4152 3.84924 41.1698C3.44202 43.6096 3.33594 45.4404 3.33594 47.5552C3.33594 52.0931 5.1386 56.4451 8.34736 59.6539C11.5561 62.8626 15.9081 64.6653 20.446 64.6653C24.9839 64.6653 29.3359 62.8626 32.5446 59.6539C35.7534 56.4451 37.556 52.0931 37.556 47.5552C37.556 38.107 29.771 30.4383 20.8293 30.4383C21.3015 29.1448 21.411 28.7786 22.3897 27.4133ZM34.134 47.5552C34.134 51.1855 32.6919 54.6671 30.1249 57.2341C27.5579 59.8011 24.0763 61.2433 20.446 61.2433C16.8157 61.2433 13.3341 59.8011 10.7671 57.2341C8.20008 54.6671 6.75795 51.1855 6.75795 47.5552C6.75795 45.6149 6.85376 43.9553 7.22676 41.7378C7.78455 38.3877 8.83511 35.1231 10.4914 32.074C14.94 23.892 22.6566 20.2749 25.7604 19.2312C23.1596 21.2536 21.0791 23.3582 19.6008 25.4251C16.6476 29.5726 16.3567 33.8672 20.446 33.8672C24.0763 33.8672 27.5579 35.3093 30.1249 37.8763C32.6919 40.4433 34.134 43.9249 34.134 47.5552Z" fill="#00604B"/>
</svg>
