<svg width="8" height="8" viewBox="0 0 8 8" fill="none" xmlns="http://www.w3.org/2000/svg">
<path fill-rule="evenodd" clip-rule="evenodd" d="M0.160735 7.06326C0.0578182 7.16617 0 7.30574 0 7.45127C0 7.5968 0.0578182 7.73637 0.160735 7.83928C0.263653 7.94219 0.403238 8 0.548785 8C0.694332 8 0.833918 7.94219 0.936835 7.83928L4.0001 4.77524L7.06391 7.83873C7.16735 7.93863 7.3059 7.99391 7.44971 7.99266C7.59352 7.99141 7.73108 7.93373 7.83278 7.83205C7.93447 7.73037 7.99215 7.59282 7.9934 7.44902C7.99465 7.30523 7.93937 7.1667 7.83946 7.06326L4.77565 3.99977L7.83946 0.936271C7.9423 0.833364 8.00005 0.693821 8 0.548341C7.99995 0.40286 7.9421 0.263359 7.83918 0.160525C7.73627 0.057691 7.59671 -5.13889e-05 7.45122 3.43172e-08C7.30572 5.14575e-05 7.1662 0.0578926 7.06336 0.160799L4.0001 3.22429L0.936286 0.160799C0.832842 0.0608994 0.694295 0.00562138 0.550485 0.00687092C0.406675 0.00812046 0.269109 0.0657975 0.167417 0.16748C0.0657239 0.269162 0.00804097 0.406714 0.0067913 0.550509C0.00554163 0.694304 0.0608253 0.832837 0.160735 0.936271L3.22455 3.99977L0.160735 7.06326Z" fill="#999999"/>
</svg>
