<svg width="24" height="25" viewBox="0 0 24 25" fill="none" xmlns="http://www.w3.org/2000/svg">
<path d="M21.2831 8.77559L15.3323 7.91075L12.6722 2.51778C12.5995 2.37013 12.48 2.25059 12.3323 2.17794C11.962 1.99513 11.512 2.14747 11.3268 2.51778L8.66668 7.91075L2.7159 8.77559C2.55184 8.79903 2.40184 8.87637 2.28699 8.99356C2.14815 9.13626 2.07165 9.32825 2.07428 9.52733C2.07692 9.72641 2.15849 9.91631 2.30106 10.0553L6.60653 14.2529L5.58934 20.1803C5.56549 20.3182 5.58074 20.46 5.63338 20.5896C5.68602 20.7193 5.77394 20.8316 5.88716 20.9138C6.00038 20.996 6.13437 21.0449 6.27395 21.0549C6.41352 21.0648 6.5531 21.0355 6.67684 20.9701L11.9995 18.1717L17.3222 20.9701C17.4675 21.0475 17.6362 21.0732 17.7979 21.0451C18.2057 20.9748 18.48 20.5881 18.4097 20.1803L17.3925 14.2529L21.6979 10.0553C21.8151 9.94044 21.8925 9.79044 21.9159 9.62637C21.9792 9.21622 21.6932 8.83653 21.2831 8.77559Z" fill="#FC9701"/>
</svg>
