<svg xmlns="http://www.w3.org/2000/svg"><style>:root svg:not(:target){display:none}</style><svg viewBox="0 0 24 24" fill="none" id="bin"><path d="M20.25 4.688h-3.938V3.75a2.062 2.062 0 0 0-2.062-2.063h-4.5A2.063 2.063 0 0 0 7.687 3.75v.938H3.75a.563.563 0 1 0 0 1.125H5l.325 14.602a2.077 2.077 0 0 0 2.055 1.898h9.24a2.078 2.078 0 0 0 2.055-1.898L19 5.813h1.25a.562.562 0 1 0 0-1.125ZM8.812 3.75a.937.937 0 0 1 .938-.938h4.5a.937.937 0 0 1 .938.938v.938H8.811V3.75Zm8.738 16.575a.945.945 0 0 1-.938.863H7.38a.945.945 0 0 1-.93-.863L6.102 5.813h11.796l-.348 14.512Z" fill="#797979"/><path d="M14.513 8a.515.515 0 0 0-.515.515v9.738a.515.515 0 0 0 1.03 0V8.515A.515.515 0 0 0 14.513 8ZM9.513 8a.515.515 0 0 0-.515.515v9.738a.515.515 0 0 0 1.03 0V8.515A.515.515 0 0 0 9.513 8Z" fill="#797979"/></svg><svg viewBox="0 0 20 21" fill="none" id="calendar"><path d="M6.561 10.5H5.033c-.631 0-1.145.514-1.145 1.146v1.527c0 .632.514 1.146 1.145 1.146h1.528c.632 0 1.146-.514 1.146-1.146v-1.527c0-.632-.514-1.146-1.146-1.146Zm.382 2.673a.382.382 0 0 1-.382.382H5.033a.382.382 0 0 1-.382-.382v-1.527a.382.382 0 0 1 .382-.382h1.528a.382.382 0 0 1 .382.382v1.527Zm8.785-10.312h-1.146V1.715a.382.382 0 1 0-.764 0v1.146H6.18V1.715a.382.382 0 1 0-.764 0v1.146H4.27A3.441 3.441 0 0 0 .832 6.298v9.93a3.442 3.442 0 0 0 3.438 3.438h11.458a3.442 3.442 0 0 0 3.437-3.437v-9.93a3.442 3.442 0 0 0-3.437-3.438ZM4.27 3.625h11.458c1.474 0 2.673 1.199 2.673 2.673v1.146H1.596V6.298c0-1.474 1.2-2.673 2.674-2.673Zm11.458 15.277H4.27a2.677 2.677 0 0 1-2.674-2.673V8.208H18.4v8.02c0 1.475-1.199 2.674-2.673 2.674Z" fill="#797979"/></svg><svg viewBox="0 0 14 15" fill="none" id="check-2"><g clip-path="url(#check-2_0)"><path d="m13 3.5-7.563 7L2 7.318" stroke="#fff" stroke-width="1.5" stroke-linecap="round" stroke-linejoin="round"/></g><defs><clipPath id="check-2_0"><path fill="#fff" transform="translate(0 .5)" d="M0 0h14v14H0z"/></clipPath></defs></svg><svg viewBox="0 0 16 17" fill="none" id="check"><g clip-path="url(#check_0)"><path d="m15.332 3.836-9.625 9.333-4.375-4.242" stroke="#00604B" stroke-width="1.5" stroke-linecap="round" stroke-linejoin="round"/></g><defs><clipPath id="check_0"><path fill="#fff" transform="translate(0 .5)" d="M0 0h16v16H0z"/></clipPath></defs></svg><svg viewBox="0 0 30 30" fill="none" id="clock"><path d="M14.998 2.4a12.6 12.6 0 1 0 12.6 12.6 12.612 12.612 0 0 0-12.6-12.6Zm0 24a11.4 11.4 0 1 1 11.4-11.4 11.412 11.412 0 0 1-11.4 11.4Z" fill="#00604B"/><path d="m19.198 15.756-3.6-1.2V7.8a.6.6 0 0 0-1.2 0V15a.588.588 0 0 0 .409.564l3.984 1.332a.492.492 0 0 0 .192 0 .6.6 0 0 0 .564-.42.589.589 0 0 0-.349-.72Z" fill="#00604B"/></svg><svg viewBox="0 0 30 30" fill="none" id="close"><path d="M5.208 24.79a.715.715 0 0 0 1.01 0l8.78-8.778 8.782 8.779a.715.715 0 0 0 1.01-1.011l-8.782-8.778 8.78-8.782a.715.715 0 1 0-1.012-1.01l-8.779 8.781-8.782-8.778A.714.714 0 0 0 5.208 6.22l8.779 8.782-8.78 8.781a.714.714 0 0 0 0 1.008Z" fill="#000"/></svg><svg viewBox="0 0 20 21" fill="none" id="edit"><path d="M15.605 2.167H4.24a3.414 3.414 0 0 0-3.409 3.41v8.332c0 1.88 1.53 3.41 3.41 3.41h7.575a.375.375 0 0 0 .379-.38.375.375 0 0 0-.38-.378H4.242a2.654 2.654 0 0 1-2.651-2.652V6.712h16.666v6.44c0 .212.167.379.38.379a.375.375 0 0 0 .378-.38V5.577c0-1.879-1.53-3.409-3.41-3.409ZM1.59 5.955v-.379A2.654 2.654 0 0 1 4.24 2.925h11.364a2.654 2.654 0 0 1 2.651 2.651v.379H1.59Zm11.03 3.81a2.638 2.638 0 0 0-1.871-.78H9.544a.375.375 0 0 0-.379.379v1.204c0 .713.273 1.372.78 1.872l5.842 5.84c.356.357.833.554 1.34.554a1.885 1.885 0 0 0 1.894-1.894c0-.508-.197-.985-.553-1.341l-5.84-5.841-.008.007Zm5.303 7.985a1.157 1.157 0 0 1-1.606 0l-5.841-5.84a1.885 1.885 0 0 1-.553-1.341v-.826h.826c.507 0 .984.197 1.34.553l5.841 5.84a1.135 1.135 0 0 1 0 1.607l-.007.007Z" fill="#797979"/></svg><svg viewBox="0 0 40 40" fill="none" id="error"><circle cx="20" cy="20" r="20" fill="#EA0029"/><path fill-rule="evenodd" clip-rule="evenodd" d="M12.892 27.086a.624.624 0 0 1 0-.883L26.224 12.89a.626.626 0 0 1 .884.884L13.776 27.086a.626.626 0 0 1-.884 0Z" fill="#fff"/><path fill-rule="evenodd" clip-rule="evenodd" d="M12.892 12.912a.626.626 0 0 1 .884 0L27.11 26.225a.624.624 0 1 1-.885.883L12.892 13.795a.624.624 0 0 1 0-.883Z" fill="#fff"/></svg><svg viewBox="0 0 30 31" fill="none" id="filter"><path fill-rule="evenodd" clip-rule="evenodd" d="M18.344 8a.938.938 0 0 1 .937.938v3.854a.937.937 0 1 1-1.875 0v-1.037H2.188a.938.938 0 0 1 0-1.875h15.218v-.943A.938.938 0 0 1 18.344 8Zm9.641 2.807a.937.937 0 0 1-.929.947l-5.042.05a.938.938 0 0 1-.019-1.875l5.044-.05a.938.938 0 0 1 .946.928ZM10.85 16.688a.938.938 0 0 1 .938.937v3.855a.938.938 0 0 1-1.876 0v-1.039H2.188a.938.938 0 0 1 0-1.875h7.726v-.941a.938.938 0 0 1 .937-.938Zm2.76 2.815a.938.938 0 0 1 .938-.938h12.5a.938.938 0 0 1 0 1.875h-12.5a.938.938 0 0 1-.938-.938Z" fill="#fff"/></svg><svg viewBox="0 0 20 20" fill="none" id="location"><g clip-path="url(#location_1)"><mask id="location_0" style="mask-type:luminance" maskUnits="userSpaceOnUse" x="0" y="0" width="20" height="20"><path d="M19.25 19.25V.751H.75V19.25h18.5Z" fill="#fff" stroke="#fff" stroke-width="1.5"/></mask><g mask="url(#location_0)"><path d="M9.777 18.336c-3.333-3.164-6.445-5.781-6.445-9.882a6.452 6.452 0 0 1 6.445-6.445 6.452 6.452 0 0 1 6.446 6.445c0 4.101-3.112 6.718-6.446 9.882Z" stroke="#050505" stroke-width="1.5" stroke-miterlimit="10" stroke-linecap="round" stroke-linejoin="round"/><path d="M9.777 10.586a2.503 2.503 0 0 1-2.5-2.5c0-1.378 1.122-2.5 2.5-2.5 1.379 0 2.5 1.122 2.5 2.5s-1.121 2.5-2.5 2.5Z" stroke="#050505" stroke-width="1.5" stroke-miterlimit="10" stroke-linecap="round" stroke-linejoin="round"/></g></g><defs><clipPath id="location_1"><path fill="#fff" d="M0 0h20v20H0z"/></clipPath></defs></svg><svg viewBox="0 0 30 30" fill="none" id="logo"><g clip-path="url(#logo_0)"><path d="M21.404 23.011C24.122 19 29.22 4.61 10.078 0a13.97 13.97 0 0 1 5.5 6.633c.72 1.78 1.08 3.716 1.08 5.807 0 2.066-.36 3.995-1.08 5.79-.718 1.795-1.73 3.35-3.035 4.668-.638.646-1.777 1.53-2.077 1.732 6.904-3.124 10.391-5.194 10.938-1.619Z" fill="#ED1A39"/><path d="M1.5 29.953c8.322-7.288 14.323.31 26.671-8.945-3.543 4.598-6.488 5.409-7.944 8.991-7.239-1.135-11.967-2.08-18.727-.046Z" fill="#fff"/></g><defs><clipPath id="logo_0"><path fill="#fff" d="M0 0h30v30H0z"/></clipPath></defs></svg><svg viewBox="0 0 20 20" fill="none" id="marker-check"><circle cx="10" cy="10" r="10" fill="#00604B"/><path d="m14 7-5.5 5.5L6 10" stroke="#fff" stroke-width="1.5" stroke-linecap="round" stroke-linejoin="round"/></svg><svg viewBox="0 0 16 16" fill="none" id="premium"><g clip-path="url(#premium_0)"><path d="M15.37 6.002a.45.45 0 0 1-.011.133l-.987 3.948a.448.448 0 0 1-.433.34l-5.922.03H2.093a.448.448 0 0 1-.435-.34L.671 6.15a.448.448 0 0 1-.012-.137.943.943 0 1 1 1.225-.899.94.94 0 0 1-.344.728l1.236 1.245c.312.314.745.495 1.189.495.524 0 1.024-.25 1.339-.666l2.03-2.691a.939.939 0 0 1-.276-.666.943.943 0 0 1 1.884 0c0 .252-.1.48-.262.65l.002.002 2.016 2.698c.315.421.816.673 1.342.673.447 0 .868-.175 1.184-.491l1.244-1.243a.94.94 0 0 1 .59-1.676c.52 0 .942.423.942.942 0 .41-.264.759-.63.888Zm-1.095 5.856a.449.449 0 0 0-.448-.448H2.223a.449.449 0 0 0-.449.448v1.077a.449.449 0 0 0 .45.448h11.603a.449.449 0 0 0 .448-.448v-1.077Z" fill="#fff"/></g><defs><clipPath id="premium_0"><path fill="#fff" d="M0 0h16v16H0z"/></clipPath></defs></svg><svg viewBox="0 0 80 80" fill="none" id="quotes"><path fill-rule="evenodd" clip-rule="evenodd" d="M60.032 27.417c2.6-3.645 7.515-7.563 14.201-10.831 1.742-.849.958-3.477-.961-3.234-14.058 1.78-23.17 7.936-28.147 17.09a34.158 34.158 0 0 0-3.634 10.731c-.407 2.44-.513 4.27-.513 6.386a17.11 17.11 0 1 0 34.22 0c0-9.448-7.785-17.117-16.727-17.117.473-1.294.582-1.66 1.56-3.025Zm11.744 20.138a13.688 13.688 0 0 1-27.376 0c0-1.94.096-3.6.469-5.817.558-3.35 1.608-6.615 3.264-9.664 4.45-8.182 12.166-11.8 15.27-12.843-2.601 2.023-4.682 4.127-6.16 6.194-2.953 4.148-3.244 8.442.845 8.442a13.688 13.688 0 0 1 13.688 13.688ZM22.39 27.413c2.6-3.644 7.514-7.562 14.201-10.83 1.742-.85.958-3.477-.962-3.234-14.057 1.78-23.17 7.935-28.146 17.09a34.158 34.158 0 0 0-3.634 10.73c-.407 2.44-.513 4.271-.513 6.386a17.11 17.11 0 0 0 34.22 0c0-9.448-7.785-17.117-16.727-17.117.473-1.293.582-1.66 1.56-3.025Zm11.744 20.142a13.688 13.688 0 1 1-27.376 0c0-1.94.096-3.6.469-5.817.558-3.35 1.608-6.615 3.264-9.664 4.449-8.182 12.166-11.8 15.27-12.843-2.601 2.023-4.682 4.127-6.16 6.194-2.953 4.148-3.244 8.442.845 8.442a13.688 13.688 0 0 1 13.688 13.688Z" fill="#00604B"/></svg><svg viewBox="0 0 8 8" fill="none" id="small-x"><path fill-rule="evenodd" clip-rule="evenodd" d="M.16 7.063a.549.549 0 1 0 .777.776L4 4.775 7.064 7.84a.548.548 0 0 0 .775-.776L4.776 4 7.839.936a.549.549 0 1 0-.776-.775L4 3.224.936.161a.549.549 0 0 0-.775.775L3.225 4 .16 7.063Z" fill="#999"/></svg><svg viewBox="0 0 24 25" fill="none" id="star"><path d="m21.283 8.776-5.95-.865-2.66-5.393a.753.753 0 0 0-1.345 0L8.666 7.91l-5.951.865a.749.749 0 0 0-.415 1.28l4.306 4.197-1.018 5.927a.749.749 0 0 0 1.088.79l5.322-2.798 5.323 2.798a.749.749 0 0 0 1.088-.79l-1.017-5.927 4.305-4.198a.748.748 0 0 0 .218-.429.747.747 0 0 0-.633-.85Z" fill="#FC9701"/></svg><svg viewBox="0 0 60 60" fill="none" id="advantages_career"><path d="M17.806 33.134a8.744 8.744 0 0 0 8.746-8.746 8.744 8.744 0 0 0-8.746-8.747 8.744 8.744 0 0 0-8.746 8.747 8.744 8.744 0 0 0 8.746 8.746Zm0-15.306c3.608 0 6.56 2.952 6.56 6.56 0 3.608-2.952 6.56-6.56 6.56-3.608 0-6.56-2.952-6.56-6.56 0-3.608 2.952-6.56 6.56-6.56Zm15.306 34.985v1.094c0 .612-.48 1.093-1.093 1.093a1.083 1.083 0 0 1-1.093-1.093v-1.094c0-7.237-5.882-13.12-13.12-13.12-7.238 0-13.12 5.883-13.12 13.12v1.094c0 .612-.48 1.093-1.093 1.093A1.083 1.083 0 0 1 2.5 53.907v-1.094c0-8.44 6.866-15.306 15.306-15.306s15.306 6.866 15.306 15.306Zm21.954-40.452-.088 19.68c0 5.423-4.417 9.84-9.84 9.84H34.206a1.083 1.083 0 0 1-1.094-1.094c0-.612.481-1.093 1.093-1.093H45.14c4.22 0 7.652-3.433 7.652-7.653l.088-19.68c0-4.22-3.433-7.653-7.653-7.653H23.273a7.653 7.653 0 0 0-7.413 5.73c-.153.59-.743.94-1.334.787a1.091 1.091 0 0 1-.787-1.334A9.828 9.828 0 0 1 23.273 2.5h21.953c5.423 0 9.84 4.417 9.84 9.84v.021Zm-21.08 13.995L44.702 15.64h-8.287a1.083 1.083 0 0 1-1.093-1.093c0-.612.48-1.093 1.093-1.093h8.746a3.275 3.275 0 0 1 3.28 3.28v8.746c0 .612-.48 1.093-1.093 1.093a1.083 1.083 0 0 1-1.093-1.093v-8.287L35.539 27.908a3.298 3.298 0 0 1-2.317.962c-.831 0-1.684-.328-2.318-.962l-.634-.634a1.082 1.082 0 0 1 0-1.552 1.082 1.082 0 0 1 1.552 0l.634.634a1.123 1.123 0 0 0 1.553 0h-.022Z" fill="#00604B"/></svg><svg viewBox="0 0 61 60" fill="none" id="advantages_education"><path d="m41.921 9.986 3.828-6.872a1.144 1.144 0 0 1 2.15.687c-.022.151-.072.297-.15.429L43.92 11.1a1.145 1.145 0 1 1-2-1.115Zm15.794 4.645a1.15 1.15 0 0 0-1.51-.588l-6.871 3.026a1.146 1.146 0 1 0 .92 2.098l6.872-3.026a1.145 1.145 0 0 0 .589-1.51ZM16.725 11.1a1.145 1.145 0 1 0 1.999-1.113l-3.825-6.872a1.144 1.144 0 0 0-2.15.687c.021.151.072.297.15.429l3.828 6.871-.003-.002Zm-5.411 5.97-6.872-3.026a1.144 1.144 0 0 0-1.528 1.465c.11.283.329.51.607.633l6.872 3.026a1.146 1.146 0 1 0 .92-2.099ZM48.649 30.01a18.354 18.354 0 0 1-7.715 14.932 3.43 3.43 0 0 0-1.448 2.783v2.902a6.88 6.88 0 0 1-6.872 6.872h-4.58c-3.856 0-6.873-3.154-6.873-7.183v-2.593c0-1.095-.547-2.14-1.466-2.792-5.626-4.014-8.498-10.78-7.497-17.663 1.175-8.066 7.919-14.569 16.041-15.467 5.285-.586 10.37 1.031 14.305 4.552A18.36 18.36 0 0 1 48.65 30.01ZM37.196 50.626v-2.29H23.452v1.979c0 2.79 1.967 4.892 4.581 4.892h4.581a4.586 4.586 0 0 0 4.582-4.58Zm9.162-20.615c0-4.554-1.947-8.911-5.342-11.95a15.858 15.858 0 0 0-10.67-4.085c-.613 0-1.232.034-1.857.103-7.101.784-13 6.469-14.023 13.52-.877 6.028 1.635 11.957 6.558 15.466a5.773 5.773 0 0 1 2.137 2.98h6.017v-11.57a5.732 5.732 0 0 1-4.58-5.61 1.146 1.146 0 0 1 2.29 0 3.44 3.44 0 0 0 3.436 3.436 3.44 3.44 0 0 0 3.436-3.436 1.145 1.145 0 1 1 2.29 0 5.732 5.732 0 0 1-4.58 5.61v11.57h6.014c.369-1.175 1.088-2.233 2.121-2.969a16.055 16.055 0 0 0 6.753-13.066Z" fill="#00604B"/></svg><svg viewBox="0 0 60 60" fill="none" id="advantages_new"><g clip-path="url(#advantages_new_0)"><path fill-rule="evenodd" clip-rule="evenodd" d="M30.555 10.515a.62.62 0 0 0-1.113 0l-4.065 8.235a2.379 2.379 0 0 1-1.791 1.302l-2.162.314a.88.88 0 1 1-.253-1.74l2.162-.315a.62.62 0 0 0 .467-.339l4.065-8.236c.872-1.768 3.394-1.768 4.267 0l4.064 8.236a.621.621 0 0 0 .467.34l9.089 1.32c1.951.284 2.73 2.682 1.319 4.058l-1.954 1.905 6.14 1.403a.88.88 0 0 1-.391 1.715l-7.249-1.657-3.123 3.045a.62.62 0 0 0-.187.422.88.88 0 0 1-1.758-.062 2.38 2.38 0 0 1 .717-1.62l6.577-6.41a.62.62 0 0 0-.344-1.058l-9.089-1.321a2.38 2.38 0 0 1-1.791-1.302l-4.064-8.235ZM17.17 19.207a.88.88 0 0 1 .253 1.74l-2.927.425a.62.62 0 0 0-.344 1.059l6.577 6.41c.443.432.7 1.02.717 1.638a.88.88 0 0 1-1.758.05.62.62 0 0 0-.187-.428m0 0-3.123-3.045-7.249 1.657a.88.88 0 0 1-.392-1.715l6.141-1.403-1.954-1.905c-1.412-1.376-.632-3.774 1.319-4.058l2.927-.425M29.998 31.79a.88.88 0 0 1 .88.88v12.404a.88.88 0 1 1-1.76 0V32.67a.88.88 0 0 1 .88-.88ZM8.934 36.495a.88.88 0 0 1 .88.879v16.002a.325.325 0 0 0 .252.317l5.194 1.187a.88.88 0 0 1-.392 1.714l-5.194-1.187a2.083 2.083 0 0 1-1.62-2.03V37.373a.88.88 0 0 1 .88-.88Zm42.128.037a.88.88 0 0 1 .88.88v15.964c0 .972-.672 1.815-1.62 2.031l-19.867 4.541c-.3.069-.613.069-.914 0l-10.68-2.441a.88.88 0 0 1 .392-1.715l9.866 2.255v-8.869a.88.88 0 0 1 1.758 0v8.87l19.054-4.355a.324.324 0 0 0 .252-.317V37.411a.88.88 0 0 1 .879-.88Z" fill="#00604B"/><path fill-rule="evenodd" clip-rule="evenodd" d="M8.314 27.234A.88.88 0 0 1 9.132 27L30 31.769l20.867-4.77a.88.88 0 0 1 .818.235l7.764 7.764a.88.88 0 0 1-.429 1.48l-12.747 2.868a.88.88 0 1 1-.386-1.715l11.19-2.519-6.292-6.29-20.343 4.65-7.524 7.524a.88.88 0 0 1-.815.236L.98 36.477a.88.88 0 0 1-.428-1.48l7.763-7.763Zm19.94 5.94-19.04-4.352-6.29 6.29 19.093 4.298 6.236-6.237Z" fill="#00604B"/><path fill-rule="evenodd" clip-rule="evenodd" d="M30 0a.88.88 0 0 1 .88.88v3.61a.88.88 0 1 1-1.758 0V.88A.88.88 0 0 1 30 0ZM19.7 7.85a.88.88 0 0 1 1.238.108l2.321 2.767a.88.88 0 1 1-1.347 1.13L19.59 9.089a.88.88 0 0 1 .108-1.239Zm20.603 0a.88.88 0 0 1 .108 1.239l-2.321 2.766a.88.88 0 0 1-1.347-1.13l2.32-2.767a.88.88 0 0 1 1.24-.108ZM8.92 11.942a.88.88 0 0 1 1.239-.108l2.765 2.321a.88.88 0 1 1-1.13 1.347l-2.766-2.32a.88.88 0 0 1-.108-1.24Zm42.16 0a.88.88 0 0 1-.108 1.24l-2.766 2.32a.88.88 0 0 1-1.13-1.347l2.765-2.321a.88.88 0 0 1 1.24.108ZM29.38 33.292a.88.88 0 1 1 1.244-1.243l7.36 7.36 3.923-.882a.88.88 0 1 1 .386 1.716l-4.395.989a.88.88 0 0 1-.815-.236l-7.703-7.704Z" fill="#00604B"/></g><defs><clipPath id="advantages_new_0"><path fill="#fff" d="M0 0h60v60H0z"/></clipPath></defs></svg><svg viewBox="0 0 61 60" fill="none" id="advantages_possibilities"><path d="m48.282 37.688-4.144-.6-1.846-3.75c-.32-.638-1.37-.638-1.679 0l-1.846 3.75-4.144.6a.935.935 0 0 0-.76.637.948.948 0 0 0 .235.966l3 2.915-.703 4.116a.947.947 0 0 0 .375.919c.29.215.675.234.984.075l3.703-1.941 3.703 1.94c.14.076.29.104.432.104a.94.94 0 0 0 .928-1.097l-.703-4.116 3-2.915a.943.943 0 0 0 .234-.966.92.92 0 0 0-.76-.638h-.009Zm-4.134 3.515a.947.947 0 0 0-.272.834l.469 2.729-2.457-1.294a.911.911 0 0 0-.43-.103c-.141 0-.3.037-.432.103l-2.456 1.294.468-2.728a.921.921 0 0 0-.271-.835l-1.988-1.931 2.747-.394a.916.916 0 0 0 .703-.516l1.228-2.484 1.228 2.484a.97.97 0 0 0 .703.516l2.747.394-1.987 1.931Z" fill="#00604B"/><path d="M57.33 42.862c.685-.76 1.463-1.612 1.463-2.747 0-1.134-.778-1.987-1.472-2.746-.403-.441-.825-.9-.919-1.257-.103-.384.029-1.012.16-1.612.206-.985.44-2.09-.103-3.038-.553-.956-1.65-1.303-2.616-1.612-.581-.188-1.19-.385-1.463-.656-.271-.272-.468-.872-.656-1.454-.31-.965-.665-2.053-1.622-2.606-.946-.544-2.062-.31-3.037-.103-.61.131-1.247.263-1.622.16-.356-.094-.816-.507-1.266-.91-.534-.478-1.115-1.003-1.809-1.275V8.653c0-3.338-2.719-6.056-6.066-6.056H8.61c-3.347 0-6.066 2.718-6.066 6.056v26.344c0 3.337 2.719 6.056 6.066 6.056h15.684c.272.684.797 1.275 1.275 1.8.403.44.825.91.919 1.256.103.385-.028 1.013-.16 1.613-.206.984-.44 2.09.103 3.037.554.956 1.65 1.303 2.616 1.613.581.187 1.19.384 1.463.656.271.272.468.872.656 1.453.31.966.666 2.053 1.622 2.606.947.544 2.053.31 3.037.103.61-.13 1.247-.262 1.622-.159.356.094.816.506 1.266.91.76.684 1.622 1.462 2.747 1.462 1.125 0 1.987-.778 2.746-1.463.45-.403.91-.815 1.266-.909.385-.103 1.013.028 1.622.16.984.206 2.09.44 3.037-.104.957-.553 1.313-1.64 1.622-2.606.188-.581.385-1.181.657-1.453s.872-.469 1.462-.656c.966-.31 2.053-.666 2.606-1.613.544-.937.31-2.053.104-3.037-.132-.61-.263-1.238-.16-1.613.094-.347.516-.806.919-1.256l-.01.01ZM15.397 4.472h14.138v11.7l-6.778-2.203a1.043 1.043 0 0 0-.291-.047c-.094 0-.197.018-.29.047l-6.779 2.203v-11.7Zm8.897 34.706H8.609a4.187 4.187 0 0 1-4.191-4.181V8.653c0-2.306 1.884-4.181 4.19-4.181h4.904v12.984a.934.934 0 0 0 1.228.89l7.716-2.512 7.715 2.513c.094.028.197.047.29.047a.971.971 0 0 0 .554-.179.936.936 0 0 0 .384-.759V4.472h4.903a4.187 4.187 0 0 1 4.191 4.18v14.373c-.694.272-1.275.787-1.81 1.275-.45.403-.909.815-1.256.91-.384.102-1.012-.029-1.621-.16-.985-.206-2.1-.44-3.038.103-.956.553-1.313 1.64-1.622 2.606-.187.581-.384 1.181-.656 1.453s-.872.47-1.463.657c-.965.309-2.053.665-2.606 1.612-.544.938-.31 2.053-.103 3.038.131.609.262 1.237.16 1.612-.094.347-.516.806-.92 1.256-.477.535-1.003 1.116-1.274 1.8l.009-.01Zm31.65 2.419c-.553.61-1.125 1.237-1.34 2.025-.216.815-.038 1.668.14 2.493.14.647.3 1.388.112 1.707-.196.328-.918.562-1.565.768-.797.254-1.622.525-2.213 1.107-.59.59-.853 1.406-1.115 2.203-.207.637-.44 1.369-.778 1.556-.32.188-1.06.028-1.716-.112-.825-.179-1.678-.357-2.494-.141-.787.206-1.425.778-2.034 1.331-.506.46-1.088.975-1.49.975-.404 0-.985-.515-1.491-.975-.61-.553-1.247-1.125-2.035-1.331a3.041 3.041 0 0 0-.815-.103c-.563 0-1.125.122-1.678.234-.657.14-1.397.3-1.716.113-.338-.197-.572-.92-.778-1.557-.263-.796-.525-1.612-1.116-2.203-.59-.59-1.416-.853-2.212-1.106-.647-.206-1.37-.44-1.566-.769-.188-.318-.028-1.05.113-1.706.178-.825.356-1.678.14-2.494-.215-.787-.787-1.415-1.34-2.034-.45-.488-.947-1.05-.966-1.444v-.075c.028-.403.525-.956.966-1.444.553-.609 1.125-1.237 1.34-2.034.216-.816.038-1.669-.14-2.494-.141-.647-.3-1.387-.113-1.706.197-.328.919-.562 1.566-.769.796-.253 1.621-.525 2.212-1.106.59-.59.853-1.406 1.116-2.203.206-.638.44-1.369.778-1.556.319-.188 1.06-.028 1.715.112.825.178 1.679.356 2.494.14.788-.205 1.425-.777 2.035-1.33.506-.46 1.087-.975 1.49-.975s.985.515 1.49.975c.61.553 1.248 1.125 2.035 1.33.816.216 1.669.038 2.494-.14.656-.14 1.397-.29 1.716-.112.328.187.572.918.778 1.556.262.797.525 1.612 1.115 2.203.591.59 1.416.853 2.213 1.106.647.207 1.369.44 1.566.778.187.32.028 1.05-.113 1.697-.178.825-.356 1.678-.14 2.494.215.788.787 1.416 1.34 2.025.46.506.984 1.078.984 1.481s-.525.975-.984 1.482v.028Z" fill="#00604B"/></svg><svg viewBox="0 0 24 24" fill="none" id="burger_close"><path fill-rule="evenodd" clip-rule="evenodd" d="M3.468 20.499a.749.749 0 0 1 0-1.06l16-15.975a.751.751 0 0 1 1.062 0 .748.748 0 0 1 0 1.06l-16 15.975a.752.752 0 0 1-1.062 0Z" fill="#EA0029"/><path fill-rule="evenodd" clip-rule="evenodd" d="M3.47 3.49a.751.751 0 0 1 1.06 0l16 15.976a.749.749 0 0 1 0 1.06.751.751 0 0 1-1.06 0L3.47 4.55a.749.749 0 0 1 0-1.06Z" fill="#EA0029"/></svg><svg viewBox="0 0 24 24" fill="none" id="burger_open"><path fill-rule="evenodd" clip-rule="evenodd" d="M1.648 6.398a.75.75 0 0 1 .75-.75h18.667a.75.75 0 0 1 0 1.5H2.398a.75.75 0 0 1-.75-.75ZM1.648 12a.75.75 0 0 1 .75-.75h18.667a.75.75 0 0 1 0 1.5H2.398a.75.75 0 0 1-.75-.75ZM1.648 17.602a.75.75 0 0 1 .75-.75h18.667a.75.75 0 1 1 0 1.5H2.398a.75.75 0 0 1-.75-.75Z" fill="#EA0029"/></svg><svg viewBox="0 0 30 30" fill="none" id="contacts_email"><path d="M26.218 6.25H3.782c-.705 0-1.282.606-1.282 1.346v14.808c0 .74.577 1.346 1.282 1.346h22.436c.705 0 1.282-.606 1.282-1.346V7.596c0-.74-.577-1.346-1.282-1.346Zm-.481 1.01-10 7.875c-.18.143-.455.233-.737.232a1.208 1.208 0 0 1-.738-.232L4.263 7.26h21.474Zm-5.341 8.394 5.448 7.068.018.018H4.138l.018-.018 5.448-7.068a.513.513 0 0 0 .105-.37.524.524 0 0 0-.176-.34.465.465 0 0 0-.676.075l-5.395 6.998V7.891l10.224 8.051c.384.3.852.433 1.314.434.461 0 .93-.133 1.314-.434l10.224-8.051v14.126l-5.395-6.998a.465.465 0 0 0-.676-.075.522.522 0 0 0-.072.71Z" fill="#00604B"/></svg><svg viewBox="0 0 30 30" fill="none" id="contacts_location"><path d="M26.25 12.5C26.25 21.25 15 28.75 15 28.75S3.75 21.25 3.75 12.5a11.25 11.25 0 1 1 22.5 0Z" stroke="#00604B" stroke-linecap="square"/><path d="M15 16.25a3.75 3.75 0 1 0 0-7.5 3.75 3.75 0 0 0 0 7.5Z" stroke="#00604B" stroke-linecap="square" stroke-linejoin="round"/></svg><svg viewBox="0 0 30 30" fill="none" id="contacts_phone"><path d="M25.586 3.172 24.36 2.1C23.245.985 21.353.93 20.15 2.155l-2.045 2.68a2.94 2.94 0 0 0 0 4.157l1.63 1.673c-1.773 4.157-5.043 7.439-9.068 9.08l-1.673-1.63a2.912 2.912 0 0 0-2.078-.864c-.788 0-1.52.306-2.024.82l-2.778 2.144C.966 21.363.966 23.234 2.092 24.35l1.116 1.28C4.41 26.832 6.03 27.5 7.79 27.5 16.267 27.5 27.5 16.255 27.5 7.789a6.45 6.45 0 0 0-1.892-4.606l-.022-.01ZM7.769 26.395c-1.466 0-2.811-.547-3.785-1.52L2.87 23.584c-.722-.722-.722-1.892-.055-2.57l2.778-2.145c.35-.35.81-.546 1.313-.546.503 0 .962.196 1.312.546l1.936 1.893a.54.54 0 0 0 .58.12c4.56-1.74 8.269-5.447 10.16-10.15a.566.566 0 0 0-.12-.592l-1.892-1.936c-.722-.722-.722-1.892.044-2.669l2.045-2.68c.722-.722 1.893-.722 2.647.022l1.225 1.072c.995.996 1.542 2.341 1.542 3.807 0 7.832-10.784 18.617-18.615 18.617v.022Z" fill="#00604B"/></svg><svg viewBox="0 0 16 17" fill="none" id="controls_arrow"><path fill-rule="evenodd" clip-rule="evenodd" d="M.668 8.695a.4.4 0 0 1 .393-.406H14.68a.4.4 0 0 1 .393.406.4.4 0 0 1-.393.407H1.06a.4.4 0 0 1-.392-.407Z" fill="#00604B"/><path fill-rule="evenodd" clip-rule="evenodd" d="M10.736 4.619a.384.384 0 0 1 .556 0l3.666 3.792a.416.416 0 0 1 0 .574l-3.666 3.792a.384.384 0 0 1-.556 0 .416.416 0 0 1 0-.575l3.389-3.504-3.389-3.504a.416.416 0 0 1 0-.575Z" fill="#00604B"/></svg><svg viewBox="0 0 24 24" fill="none" id="controls_big-plus"><path d="M12 3.515v16.97M3.516 12h16.97" stroke="#fff" stroke-width="1.5" stroke-linecap="round" stroke-linejoin="round"/></svg><svg viewBox="0 0 16 16" fill="none" id="controls_minus"><path d="M15 9H1a1 1 0 0 1 0-2h14a1 1 0 1 1 0 2Z" fill="#797979"/></svg><svg viewBox="0 0 16 16" fill="none" id="controls_plus"><g clip-path="url(#controls_plus_0)"><path d="M15 7H9V1a1 1 0 0 0-2 0v6H1a1 1 0 0 0 0 2h6v6a1 1 0 1 0 2 0V9h6a1 1 0 1 0 0-2Z" fill="#797979"/></g><defs><clipPath id="controls_plus_0"><path fill="#fff" d="M0 0h16v16H0z"/></clipPath></defs></svg><svg viewBox="0 0 24 24" fill="none" id="controls_right-arrow-without-tail"><path d="M17 12.25a.748.748 0 0 1-.22.53l-7.5 7.5a.75.75 0 1 1-1.06-1.06l6.97-6.97-6.97-6.97a.75.75 0 1 1 1.06-1.06l7.5 7.5a.749.749 0 0 1 .22.53Z" fill="#00604B"/></svg><svg viewBox="0 0 40 40" fill="none" id="controls_slider-arrow"><path fill-rule="evenodd" clip-rule="evenodd" d="M20 .833C9.415.833.833 9.415.833 20S9.415 39.167 20 39.167 39.167 30.585 39.167 20 30.585.833 20 .833ZM20 0C8.954 0 0 8.954 0 20s8.954 20 20 20 20-8.954 20-20S31.046 0 20 0Z" fill="#00604B"/><path fill-rule="evenodd" clip-rule="evenodd" d="M21.703 28.292a.417.417 0 0 1 0-.59l7.705-7.705-7.705-7.705a.417.417 0 0 1 .589-.59l8 8a.417.417 0 0 1 0 .59l-8 8a.417.417 0 0 1-.59 0Z" fill="#00604B"/><path fill-rule="evenodd" clip-rule="evenodd" d="M30.414 19.997c0 .23-.187.417-.417.417h-20a.417.417 0 0 1 0-.833h20c.23 0 .417.186.417.416Z" fill="#00604B"/></svg><svg viewBox="0 0 80 80" fill="none" id="features_delivery"><path d="M6.668 34.47a1.44 1.44 0 0 1 1.44-1.44H22.5a1.44 1.44 0 0 1 0 2.88H8.107a1.44 1.44 0 0 1-1.439-1.44Zm69.09 2.879v14.393a10.097 10.097 0 0 1-6.528 9.431A8.425 8.425 0 0 1 70 64.697c0 4.761-3.875 8.636-8.636 8.636-4.762 0-8.636-3.874-8.636-8.636 0-.99.172-1.96.506-2.879H29.192c.334.919.506 1.889.506 2.879 0 4.761-3.875 8.636-8.636 8.636-4.762 0-8.637-3.874-8.637-8.636 0-1.226.265-2.418.772-3.524a10.096 10.096 0 0 1-6.529-9.43v-8.637a1.44 1.44 0 1 1 2.879 0v8.636c0 3.967 3.227 7.197 7.197 7.197h35.985V22.955c0-5.556-4.52-10.076-10.076-10.076a1.44 1.44 0 0 1 0-2.879c7.142 0 12.954 5.812 12.954 12.954v1.44h7.197c7.143 0 12.955 5.812 12.955 12.955Zm-20.15-10.076v14.394H72.88v-4.319c0-5.556-4.52-10.075-10.076-10.075h-7.197ZM26.021 61.818h-9.278c-.21 0-.42-.008-.63-.02a5.608 5.608 0 0 0-.81 2.899 5.763 5.763 0 0 0 5.758 5.757 5.763 5.763 0 0 0 5.758-5.757 5.614 5.614 0 0 0-.798-2.879Zm40.292-.02c-.21.014-.42.02-.63.02h-9.28a5.614 5.614 0 0 0-.797 2.879 5.763 5.763 0 0 0 5.758 5.757 5.763 5.763 0 0 0 5.758-5.757c0-1.022-.28-2.01-.81-2.899Zm6.566-10.056v-7.197H55.607V58.94h10.076c3.97 0 7.197-3.23 7.197-7.197ZM8.107 12.88h25.91a1.44 1.44 0 0 0 0-2.879H8.107a1.44 1.44 0 1 0 0 2.879Zm0 11.515H28.26a1.44 1.44 0 0 0 0-2.879H8.107a1.44 1.44 0 1 0 0 2.879Z" fill="#00604B"/></svg><svg viewBox="0 0 80 80" fill="none" id="features_exchange"><path d="M4.823 28.055h66.35c-.119.223-.217.457-.392.653a48.182 48.182 0 0 1-1.677 1.819l-6.659 6.775a1.485 1.485 0 0 0 2.116 2.083l6.653-6.769a50.703 50.703 0 0 0 1.793-1.938 6.187 6.187 0 0 0 0-8.205 48.98 48.98 0 0 0-1.787-1.935l-6.659-6.774a1.484 1.484 0 0 0-2.116 2.08l6.668 6.78c.437.44 1.048 1.11 1.671 1.817.172.195.273.427.392.65H4.823a1.484 1.484 0 1 0 0 2.967v-.003Zm68.252 23.74H6.728c.118-.223.22-.454.391-.653.542-.621 1.1-1.228 1.674-1.819l6.662-6.775a1.484 1.484 0 1 0-2.116-2.08l-6.656 6.769a50.774 50.774 0 0 0-1.79 1.938 6.18 6.18 0 0 0 0 8.205 48.884 48.884 0 0 0 1.787 1.935l6.662 6.774a1.472 1.472 0 0 0 2.098.015 1.483 1.483 0 0 0 .018-2.098l-6.668-6.78a44.46 44.46 0 0 1-1.67-1.817c-.176-.195-.274-.427-.392-.65h66.347a1.484 1.484 0 0 0 0-2.967v.003Z" fill="#00604B"/></svg><svg viewBox="0 0 80 80" fill="none" id="features_guarantee"><path d="M39.995 76.663a15.872 15.872 0 0 1-12.167-5.665 1.314 1.314 0 0 0-1.149-.474 15.964 15.964 0 0 1-12.61-4.598 15.87 15.87 0 0 1-4.598-12.61 1.314 1.314 0 0 0-.474-1.146A15.88 15.88 0 0 1 3.332 40c0-4.7 2.066-9.137 5.665-12.168a1.314 1.314 0 0 0 .477-1.149 15.87 15.87 0 0 1 4.598-12.61 15.814 15.814 0 0 1 12.61-4.598A1.313 1.313 0 0 0 27.832 9a15.864 15.864 0 0 1 12.166-5.665c4.703 0 9.137 2.065 12.168 5.665.293.345.672.507 1.149.474a15.947 15.947 0 0 1 12.61 4.598 15.87 15.87 0 0 1 4.598 12.61 1.315 1.315 0 0 0 .474 1.146A15.88 15.88 0 0 1 76.662 40c0 4.7-2.066 9.136-5.665 12.167a1.315 1.315 0 0 0-.477 1.15 15.871 15.871 0 0 1-4.598 12.61 15.779 15.779 0 0 1-12.61 4.598 1.347 1.347 0 0 0-1.15.474 15.864 15.864 0 0 1-12.167 5.665ZM26.814 67.46c1.298 0 2.502.559 3.355 1.57a12.821 12.821 0 0 0 9.83 4.577c3.797 0 7.382-1.668 9.83-4.577a4.356 4.356 0 0 1 3.751-1.552c3.792.32 7.502-1.03 10.188-3.716a12.831 12.831 0 0 0 3.715-10.19 4.352 4.352 0 0 1 1.555-3.746 12.838 12.838 0 0 0 4.575-9.83c0-3.795-1.669-7.382-4.578-9.832a4.354 4.354 0 0 1-1.552-3.747 12.833 12.833 0 0 0-3.716-10.19 12.864 12.864 0 0 0-10.187-3.715 4.315 4.315 0 0 1-3.752-1.553 12.822 12.822 0 0 0-9.83-4.577 12.822 12.822 0 0 0-9.83 4.578 4.37 4.37 0 0 1-3.751 1.552 12.806 12.806 0 0 0-10.188 3.715 12.832 12.832 0 0 0-3.715 10.19 4.353 4.353 0 0 1-1.555 3.747 12.838 12.838 0 0 0-4.574 9.83c0 3.794 1.668 7.381 4.577 9.832a4.355 4.355 0 0 1 1.552 3.746 12.833 12.833 0 0 0 8.399 13.172c1.76.642 3.638.892 5.504.734.132-.012.264-.018.397-.018Zm14.569-20.515 14.48-13.958a1.528 1.528 0 0 0-2.118-2.2L39.244 44.763a4.604 4.604 0 0 1-6.52-.04l-6.961-6.468a1.534 1.534 0 0 0-2.084 2.24l6.924 6.428a7.63 7.63 0 0 0 5.408 2.237c1.956 0 3.896-.74 5.375-2.218l-.003.003Z" fill="#00604B"/></svg><svg viewBox="0 0 80 80" fill="none" id="features_payment"><path d="M61.836 70h-45a13.515 13.515 0 0 1-13.5-13.5v-33c0-7.443 6.057-13.5 13.5-13.5h45c7.443 0 13.5 6.057 13.5 13.5v33c0 7.443-6.057 13.5-13.5 13.5Zm-45-57c-5.79 0-10.5 4.71-10.5 10.5v33c0 5.79 4.71 10.5 10.5 10.5h45c5.79 0 10.5-4.71 10.5-10.5v-33c0-5.79-4.71-10.5-10.5-10.5h-45Zm42 30h-15a4.505 4.505 0 0 1-4.5-4.5v-9c0-2.481 2.019-4.5 4.5-4.5h15c2.48 0 4.5 2.019 4.5 4.5v9c0 2.481-2.02 4.5-4.5 4.5Zm-15-15a1.5 1.5 0 0 0-1.5 1.5v9a1.5 1.5 0 0 0 1.5 1.5h15a1.5 1.5 0 0 0 1.5-1.5v-9a1.5 1.5 0 0 0-1.5-1.5h-15Zm-10.5 13.5a1.5 1.5 0 0 0-1.5-1.5h-15a1.5 1.5 0 1 0 0 3h15a1.5 1.5 0 0 0 1.5-1.5Zm30 12a1.5 1.5 0 0 0-1.5-1.5h-45a1.5 1.5 0 1 0 0 3h45a1.5 1.5 0 0 0 1.5-1.5Z" fill="#00604B"/></svg><svg viewBox="0 0 24 24" fill="none" id="file_attach"><path d="M21.916 8.814a.405.405 0 0 0-.575 0L10.237 19.917a4.32 4.32 0 0 1-3.077 1.27c-1.166 0-2.259-.451-3.077-1.27a4.321 4.321 0 0 1-1.269-3.077c0-1.166.45-2.258 1.269-3.077L15.186 2.66c1.179-1.178 3.029-1.106 4.304.168 1.275 1.275 1.347 3.125.168 4.304L9.228 17.562a1.5 1.5 0 0 1-2.117 0 1.499 1.499 0 0 1 0-2.116l7.066-7.066a.407.407 0 0 0-.575-.576L6.536 14.87a2.313 2.313 0 0 0 0 3.267 2.313 2.313 0 0 0 3.267 0L20.234 7.706c1.506-1.507 1.434-3.852-.168-5.454C18.464.65 16.118.577 14.61 2.084L3.507 13.188A5.127 5.127 0 0 0 2 16.84c0 1.384.535 2.681 1.507 3.653A5.127 5.127 0 0 0 7.16 22c1.383 0 2.68-.535 3.652-1.507L21.916 9.389a.407.407 0 0 0 0-.575Z" fill="#00604B"/></svg><svg viewBox="0 0 30 30" fill="none" id="file_copy"><path d="M19.583 22.448v1.146a5.162 5.162 0 0 1-5.156 5.156h-8.02a5.162 5.162 0 0 1-5.157-5.156v-8.021a5.163 5.163 0 0 1 5.156-5.156h1.146a.573.573 0 1 1 0 1.146H6.406a4.015 4.015 0 0 0-4.01 4.01v8.02a4.015 4.015 0 0 0 4.01 4.011h8.021a4.015 4.015 0 0 0 4.01-4.01v-1.146a.573.573 0 0 1 1.146 0ZM28.75 6.406v8.021a5.162 5.162 0 0 1-5.156 5.156h-8.021a5.162 5.162 0 0 1-5.156-5.156v-8.02a5.163 5.163 0 0 1 5.156-5.157h8.02a5.163 5.163 0 0 1 5.157 5.156Zm-1.146 0a4.015 4.015 0 0 0-4.01-4.01h-8.021a4.015 4.015 0 0 0-4.01 4.01v8.021a4.015 4.015 0 0 0 4.01 4.01h8.02a4.015 4.015 0 0 0 4.011-4.01v-8.02Z" fill="#797979"/></svg><svg viewBox="0 0 24 24" fill="none" id="file_download"><path d="M15.745 15.798a.459.459 0 0 1 .008.648l-2.306 2.356c-.349.349-.806.526-1.263.53a1.879 1.879 0 0 1-1.295-.527l-2.31-2.36a.458.458 0 0 1 .656-.64l2.306 2.356c.05.05.106.094.167.131v-6.75a.459.459 0 0 1 .917 0v6.75a.904.904 0 0 0 .171-.134l2.302-2.352a.459.459 0 0 1 .648-.007v-.001Zm5.588-5.644v8.722a4.13 4.13 0 0 1-4.125 4.125H7.125A4.13 4.13 0 0 1 3 18.876V5.125A4.13 4.13 0 0 1 7.125 1h5.056c1.59 0 3.087.62 4.213 1.745l3.194 3.195a5.915 5.915 0 0 1 1.745 4.213ZM14 6.959c0 .758.617 1.375 1.375 1.375h4.704a5.033 5.033 0 0 0-1.14-1.745l-3.194-3.195A5.047 5.047 0 0 0 14 2.254V6.96Zm6.417 3.195c0-.306-.028-.608-.08-.903h-4.962a2.294 2.294 0 0 1-2.292-2.292V1.997c-.298-.053-.6-.08-.902-.08H7.125a3.212 3.212 0 0 0-3.208 3.208v13.75c0 1.77 1.439 3.208 3.208 3.208h10.083c1.77 0 3.209-1.439 3.209-3.208v-8.722Zm-8.233 9.178c-.006 0 .006 0 0 0Z" fill="#00604B"/></svg><svg viewBox="0 0 30 30" fill="none" id="file_print"><path d="M25.163 24.35a5.66 5.66 0 0 0 1.295-3.62A5.731 5.731 0 0 0 20.73 15 5.731 5.731 0 0 0 15 20.73a5.731 5.731 0 0 0 5.73 5.728 5.66 5.66 0 0 0 3.62-1.294l3.415 3.414a.556.556 0 0 0 .802 0 .567.567 0 0 0 0-.813l-3.415-3.415h.011Zm-4.434.962a4.582 4.582 0 0 1-4.583-4.583 4.582 4.582 0 0 1 4.583-4.583 4.582 4.582 0 0 1 4.584 4.583 4.582 4.582 0 0 1-4.584 4.584Zm2.865-17.187h-.573V5.26a4.015 4.015 0 0 0-4.01-4.01H10.99a4.015 4.015 0 0 0-4.01 4.01v2.865h-.574a5.164 5.164 0 0 0-5.156 5.156v6.875a5.164 5.164 0 0 0 5.156 5.157h.573v.572a2.864 2.864 0 0 0 2.865 2.865h6.875c.32 0 .573-.252.573-.573a.567.567 0 0 0-.573-.573H9.844a1.716 1.716 0 0 1-1.719-1.719v-5.729c0-.95.768-1.718 1.719-1.718h2.291c.321 0 .573-.253.573-.573a.567.567 0 0 0-.573-.573H9.844a2.865 2.865 0 0 0-2.865 2.864v4.01h-.573a4.015 4.015 0 0 1-4.01-4.01v-6.875a4.015 4.015 0 0 1 4.01-4.01h17.188a4.015 4.015 0 0 1 4.01 4.01v2.292c0 .32.252.573.573.573.32 0 .573-.252.573-.573V13.28a5.164 5.164 0 0 0-5.156-5.156ZM8.125 5.26a2.865 2.865 0 0 1 2.865-2.864h8.02a2.865 2.865 0 0 1 2.865 2.864v2.865H8.125V5.26Z" fill="#797979"/></svg><svg viewBox="0 0 24 24" fill="none" id="file_read"><path d="M9.708 20.25H5.125a3.212 3.212 0 0 1-3.208-3.208V5.125c0-1.77 1.439-3.208 3.208-3.208h5.958v3.208a2.292 2.292 0 0 0 2.292 2.292h3.208v1.375c0 .256.202.458.459.458a.454.454 0 0 0 .458-.458s.01-1.925 0-1.962a3.208 3.208 0 0 0-.944-1.916l-2.97-2.97A3.23 3.23 0 0 0 11.322 1H5.125A4.131 4.131 0 0 0 1 5.125v11.917a4.131 4.131 0 0 0 4.125 4.125h4.583a.454.454 0 0 0 .459-.459.454.454 0 0 0-.459-.458Zm6.206-14.694c.266.266.458.587.569.944h-3.108C12.615 6.5 12 5.886 12 5.125V2.018c.348.11.678.302.944.568l2.97 2.97Zm1.128 5.527a5.97 5.97 0 0 0-5.959 5.959A5.97 5.97 0 0 0 17.042 23 5.97 5.97 0 0 0 23 17.042a5.97 5.97 0 0 0-5.958-5.959Zm0 11A5.05 5.05 0 0 1 12 17.042 5.05 5.05 0 0 1 17.042 12a5.05 5.05 0 0 1 5.041 5.042 5.05 5.05 0 0 1-5.041 5.041Zm.916-7.333a.92.92 0 0 1-.916.917.92.92 0 0 1-.917-.917.92.92 0 0 1 .917-.917.92.92 0 0 1 .916.917Zm-.458 2.292v2.75a.454.454 0 0 1-.458.458.454.454 0 0 1-.459-.458v-2.75c0-.257.202-.459.459-.459.256 0 .458.202.458.459Z" fill="#00604B"/></svg><svg viewBox="0 0 24 24" fill="none" id="like_like-false"><path d="M16.762 2a5.967 5.967 0 0 0-2.626.595A6.219 6.219 0 0 0 12 4.295a6.137 6.137 0 0 0-2.132-1.708A5.886 5.886 0 0 0 7.238 2C3.793 2 1 4.914 1 8.508c0 6.158 10.304 12.172 10.722 12.404a.487.487 0 0 0 .556 0C12.696 20.68 23 14.753 23 8.508 23 4.914 20.207 2 16.762 2ZM12 19.75c-1.615-.988-9.886-6.246-9.886-11.242 0-2.952 2.294-5.346 5.124-5.346a4.847 4.847 0 0 1 2.444.626 5.102 5.102 0 0 1 1.845 1.786.57.57 0 0 0 .946 0c1.55-2.471 4.725-3.164 7.093-1.549a5.267 5.267 0 0 1 1.705 1.934 5.53 5.53 0 0 1 .615 2.549c0 5.054-8.27 10.283-9.886 11.242Z" fill="#050505"/></svg><svg viewBox="0 0 24 24" fill="none" id="like_like-true"><path d="M16.762 2a5.967 5.967 0 0 0-2.626.595A6.219 6.219 0 0 0 12 4.295a6.137 6.137 0 0 0-2.132-1.708A5.886 5.886 0 0 0 7.238 2C3.793 2 1 4.914 1 8.508c0 6.158 10.304 12.172 10.722 12.404a.487.487 0 0 0 .556 0C12.696 20.68 23 14.753 23 8.508 23 4.914 20.207 2 16.762 2Z" fill="#EA0029"/></svg><svg viewBox="0 0 68 90" fill="none" id="map_marker"><path d="M34.002.313A33.962 33.962 0 0 0 .039 34.275v2.475c1.375 18.608 16.82 33.573 33.963 52.938C51.9 69.475 67.964 54.166 67.964 34.275A33.963 33.963 0 0 0 34.002.313Z" fill="#00604B"/><path d="M43.364 41.735c3.603-5.319 10.361-24.392-15.012-30.5a18.614 18.614 0 0 1 3.267 2.63c1.729 1.749 3.07 3.8 4.024 6.16.953 2.36 1.43 4.927 1.43 7.698 0 2.74-.477 5.296-1.43 7.675-.954 2.379-2.295 4.44-4.024 6.188-.846.855-2.356 2.028-2.753 2.294 9.15-4.14 13.773-6.884 14.498-2.145Z" fill="#ED1A39"/><path d="M16.977 50.935c11.03-9.66 18.984.412 35.352-11.857-4.697 6.095-8.6 7.17-10.53 11.918-9.595-1.505-15.863-2.757-24.822-.06Z" fill="#fff"/></svg><svg viewBox="0 0 30 30" fill="none" id="payment_card"><path d="M25.538 6.25H4.463c-.883.001-1.73.402-2.354 1.113-.624.712-.975 1.677-.976 2.684v13.656c0 1.007.352 1.972.976 2.684.625.712 1.471 1.112 2.354 1.113h21.075c.883-.001 1.73-.401 2.354-1.113.624-.712.976-1.677.977-2.684V10.047c-.002-1.007-.353-1.972-.977-2.684-.625-.712-1.471-1.112-2.354-1.113Zm-23.51 5.704h25.946v2.83H2.028v-2.83ZM4.463 7.27h21.075c.646 0 1.265.294 1.721.814.457.52.714 1.226.715 1.963v.887H2.028v-.887c0-.737.257-1.442.714-1.963.456-.52 1.076-.813 1.721-.814Zm21.075 19.21H4.463c-.645 0-1.265-.294-1.721-.814-.457-.52-.714-1.227-.714-1.963v-7.898h25.946v7.898c0 .736-.258 1.442-.715 1.963-.456.52-1.075.813-1.721.814Z" fill="#00604B"/></svg><svg viewBox="0 0 30 30" fill="none" id="payment_cash"><path d="M25.438 8.25H6.313a3.952 3.952 0 0 1-3.231-1.686 3.938 3.938 0 0 1 3.23-1.689h21.375a.562.562 0 1 0 0-1.125H6.313A5.063 5.063 0 0 0 1.25 8.813v12.374a5.062 5.062 0 0 0 5.063 5.063h19.125a2.811 2.811 0 0 0 2.812-2.813V11.063a2.811 2.811 0 0 0-2.813-2.812Zm1.687 15.188a1.69 1.69 0 0 1-1.688 1.687H6.313a3.942 3.942 0 0 1-3.937-3.938V8.813c0-.391.057-.769.164-1.126a5.083 5.083 0 0 0 3.773 1.689h19.125c.93 0 1.688.757 1.688 1.688v12.374Zm-2.25-6.188a1.125 1.125 0 1 1-2.25 0 1.125 1.125 0 0 1 2.25 0Z" fill="#00604B"/></svg><svg viewBox="0 0 30 30" fill="none" id="payment_invioce"><path d="M19.792 16.146h-9.167a2.294 2.294 0 0 0-2.292 2.291v2.292a2.294 2.294 0 0 0 2.292 2.292h9.167a2.294 2.294 0 0 0 2.291-2.292v-2.291a2.294 2.294 0 0 0-2.291-2.292Zm1.145 4.583c0 .631-.514 1.146-1.145 1.146h-9.167a1.148 1.148 0 0 1-1.146-1.146v-2.291c0-.632.515-1.146 1.146-1.146h9.167c.631 0 1.145.514 1.145 1.145v2.292ZM8.334 12.135a.573.573 0 0 1 .573-.572h4.584a.573.573 0 0 1 0 1.145H8.906a.573.573 0 0 1-.573-.573Zm0-4.583a.573.573 0 0 1 .573-.573h4.584a.573.573 0 0 1 0 1.146H8.906a.573.573 0 0 1-.573-.573Zm16.152-.127-3.993-3.993a7.4 7.4 0 0 0-5.267-2.182H8.907A5.162 5.162 0 0 0 3.75 6.406v17.188a5.163 5.163 0 0 0 5.156 5.156H21.51a5.163 5.163 0 0 0 5.157-5.156V12.69a7.398 7.398 0 0 0-2.182-5.266Zm-.81.81a6.26 6.26 0 0 1 1.41 2.182h-5.867a1.72 1.72 0 0 1-1.72-1.72V2.83c.818.313 1.561.794 2.182 1.41l3.994 3.994v.001Zm1.846 15.359a4.015 4.015 0 0 1-4.01 4.01H8.905a4.015 4.015 0 0 1-4.01-4.01V6.406a4.015 4.015 0 0 1 4.01-4.01h6.32c.383 0 .76.043 1.128.11v6.192a2.869 2.869 0 0 0 2.865 2.864h6.192c.066.37.11.747.11 1.13v10.902Z" fill="#00604B"/></svg><svg viewBox="0 0 30 30" fill="none" id="share_ok"><rect width="30" height="30" rx="15" fill="#FD7722"/><path fill-rule="evenodd" clip-rule="evenodd" d="M18.538 13.462a4.942 4.942 0 0 1-7.005 0 4.94 4.94 0 0 1 0-7.005 4.937 4.937 0 0 1 7.005 0 4.938 4.938 0 0 1 0 7.005Zm-3.503-5.768c-.617 0-1.177.25-1.588.662a2.238 2.238 0 0 0 0 3.178 2.237 2.237 0 0 0 3.178 0 2.237 2.237 0 0 0 0-3.18 2.299 2.299 0 0 0-1.59-.662v.002Zm5.21 7.24 1.458 1.987c.074.103.059.235-.045.309-1.221 1-2.649 1.662-4.135 2.016l2.811 5.415c.074.163-.03.339-.206.339h-3.003a.26.26 0 0 1-.22-.148l-1.87-4.473-1.883 4.458a.227.227 0 0 1-.22.148H9.929c-.176 0-.28-.191-.206-.338l2.811-5.4A10.327 10.327 0 0 1 8.4 17.23c-.089-.075-.119-.221-.045-.31l1.458-1.986c.087-.118.235-.133.337-.044 1.37 1.162 3.063 1.927 4.873 1.927s3.487-.75 4.87-1.927c.118-.088.28-.075.353.044Z" fill="#fff"/></svg><svg viewBox="0 0 30 30" fill="none" id="share_vk"><rect width="30" height="30" rx="15" fill="#157BFB"/><path d="M16.1 21.633c-6.765 0-10.87-4.694-11.03-12.492h3.425c.108 5.728 2.714 8.16 4.713 8.656V9.14h3.284v4.942c1.927-.212 3.943-2.462 4.622-4.942h3.23c-.517 3.05-2.712 5.3-4.265 6.228 1.553.75 4.05 2.713 5.014 6.263h-3.55c-.75-2.373-2.588-4.211-5.05-4.461v4.462h-.394Z" fill="#fff"/></svg><svg viewBox="0 0 30 30" fill="none" id="share_whatsapp"><rect width="30" height="30" rx="15" fill="#68BB5A"/><path fill-rule="evenodd" clip-rule="evenodd" d="M25 14.742c0 5.38-4.396 9.743-9.819 9.743a9.838 9.838 0 0 1-4.745-1.212L5 25l1.772-5.227a9.643 9.643 0 0 1-1.408-5.03C5.362 9.36 9.759 5 15.18 5 20.604 5 25 9.363 25 14.742Zm-9.819-8.19c-4.551 0-8.253 3.674-8.253 8.19A8.1 8.1 0 0 0 8.5 19.546l-1.031 3.041 3.171-1.007a8.252 8.252 0 0 0 4.541 1.355c4.553 0 8.255-3.675 8.255-8.192 0-4.516-3.702-8.19-8.255-8.19Zm4.959 10.434c-.061-.1-.221-.16-.463-.279-.24-.118-1.423-.697-1.643-.776-.221-.08-.381-.12-.543.119-.24.323-.494.636-.762.936-.14.16-.28.179-.52.06-.242-.12-1.016-.371-1.936-1.185a7.2 7.2 0 0 1-1.338-1.654c-.141-.238-.016-.368.105-.487.108-.107.24-.279.361-.418.12-.14.16-.238.24-.398.08-.16.04-.299-.02-.419-.06-.119-.541-1.294-.742-1.772-.2-.478-.4-.398-.541-.398-.14 0-.3-.02-.462-.02a.888.888 0 0 0-.641.299c-.221.237-.842.816-.842 1.991 0 1.175.862 2.31.982 2.47.12.159 1.665 2.649 4.111 3.605 2.448.955 2.448.637 2.888.596.441-.038 1.425-.576 1.625-1.135.2-.557.2-1.036.141-1.135Z" fill="#fff"/></svg><svg viewBox="0 0 20 20" fill="none" id="shortcuts_cart"><g clip-path="url(#shortcuts_cart_0)"><path d="M7.497 18.33a.833.833 0 1 0 0-1.666.833.833 0 0 0 0 1.667ZM16.67 18.33a.833.833 0 1 0 0-1.666.833.833 0 0 0 0 1.667Z" stroke="#050505" stroke-width="1.5" stroke-linecap="round" stroke-linejoin="round"/><path d="M.836.836h3.333l2.234 11.158a1.667 1.667 0 0 0 1.666 1.342h8.1a1.667 1.667 0 0 0 1.667-1.342l1.333-6.991H5.003" stroke="#050505" stroke-width="1.5" stroke-linecap="square" stroke-linejoin="round"/></g><defs><clipPath id="shortcuts_cart_0"><path fill="#fff" d="M0 0h20v20H0z"/></clipPath></defs></svg><svg viewBox="0 0 20 20" fill="none" id="shortcuts_heart"><path d="M14.095 2.5c-1.69 0-3.17.694-4.092 1.867C9.08 3.194 7.6 2.5 5.91 2.5a5.205 5.205 0 0 0-3.586 1.42A4.742 4.742 0 0 0 .836 7.346c0 5.47 8.495 9.898 8.856 10.08a.68.68 0 0 0 .62 0c.363-.183 8.857-4.61 8.857-10.08a4.742 4.742 0 0 0-1.488-3.424A5.205 5.205 0 0 0 14.095 2.5Zm-4.092 13.66c-1.495-.832-7.858-4.62-7.858-8.815a3.519 3.519 0 0 1 1.105-2.54A3.862 3.862 0 0 1 5.91 3.75c1.592 0 2.929.81 3.487 2.11.05.115.133.213.241.282a.677.677 0 0 0 .73 0 .633.633 0 0 0 .24-.282c.558-1.302 1.895-2.11 3.487-2.11.998.002 1.955.38 2.66 1.054a3.519 3.519 0 0 1 1.105 2.54c0 4.19-6.364 7.983-7.857 8.816Z" fill="#050505"/></svg><svg viewBox="0 0 20 20" fill="none" id="shortcuts_phone"><path d="M18.919 14.306a1.482 1.482 0 0 0-.754-.938L14.3 11.365a1.472 1.472 0 0 0-1.875.428l-.625.856a.225.225 0 0 1-.29.066 11.347 11.347 0 0 1-2.5-1.928 11.346 11.346 0 0 1-1.929-2.5.225.225 0 0 1 .066-.29L8 7.37a1.472 1.472 0 0 0 .428-1.875l-1.99-3.862a1.478 1.478 0 0 0-2.132-.55L1.878 2.709A2.337 2.337 0 0 0 .84 4.799c.033.691.126 1.378.279 2.053.659 2.544 2.25 5.16 4.459 7.372 2.21 2.213 4.828 3.797 7.372 4.45.675.153 1.362.246 2.053.278h.156a2.338 2.338 0 0 0 1.931-1.028l1.62-2.428a1.479 1.479 0 0 0 .209-1.19Zm-1.25.493-1.61 2.431a1.094 1.094 0 0 1-.975.479 10.804 10.804 0 0 1-1.822-.241c-2.33-.606-4.743-2.072-6.797-4.134-2.053-2.063-3.525-4.466-4.13-6.797-.134-.6-.215-1.209-.245-1.822a1.084 1.084 0 0 1 .479-.972l2.428-1.619a.222.222 0 0 1 .125-.037h.06a.225.225 0 0 1 .143.115l2 3.866a.228.228 0 0 1-.066.287l-.853.625a1.475 1.475 0 0 0-.4 1.916 12.667 12.667 0 0 0 2.125 2.753 12.661 12.661 0 0 0 2.753 2.125 1.475 1.475 0 0 0 1.916-.4l.625-.856a.228.228 0 0 1 .287-.066l3.866 2a.228.228 0 0 1 .084.329l.007.018Z" fill="#000"/></svg><svg viewBox="0 0 20 20" fill="none" id="shortcuts_search"><path d="M9.167 15.833a6.667 6.667 0 1 0 0-13.333 6.667 6.667 0 0 0 0 13.333ZM17.5 17.5l-3.625-3.625" stroke="#050505" stroke-width="1.5" stroke-linecap="round" stroke-linejoin="round"/></svg><svg viewBox="0 0 20 20" fill="none" id="shortcuts_user"><path d="M16.67 17.5v-1.667a3.333 3.333 0 0 0-3.334-3.333H6.669a3.333 3.333 0 0 0-3.333 3.333V17.5M9.997 9.167a3.333 3.333 0 1 0 0-6.667 3.333 3.333 0 0 0 0 6.667Z" stroke="#000" stroke-width="1.5" stroke-linecap="round" stroke-linejoin="round"/></svg><svg viewBox="0 0 16 18" fill="none" id="socials_pinterest"><path d="M7.763.002 6.48.145a9.886 9.886 0 0 0-2.324.691C2.474 1.628 1.153 2.919.418 4.488a6.297 6.297 0 0 0-.23.897C-.374 7.17.35 9.083 2.01 10.195c.25.134.832.385 1.002.053.079-.204.133-.414.16-.628.097-.18.152-.375.16-.574-.06-.297-.41-.476-.56-.718a4.494 4.494 0 0 1-.461-1.543v-.26c.074-2.203 1.8-4.084 4.198-4.577a6.802 6.802 0 0 1 2.305-.152l1.112.17c.628.147 1.21.418 1.705.794.494.376.887.847 1.15 1.378.35.92.42 1.909.201 2.862-.11.413-.09.771-.23 1.148-.511 1.391-1.263 2.692-2.956 3.033-.921.216-1.878-.215-2.235-1.005a1.23 1.23 0 0 1-.13-.772c.29-1.13.722-2.135 1.002-3.265.346-.837-.131-1.766-1.066-2.076a1.942 1.942 0 0 0-.146-.042c-1.163-.251-2.054.718-2.365 1.346a3.343 3.343 0 0 0-.2 2.09c.169.304.29.627.36.96-.22.898-.48 1.795-.751 2.692-.27.898-.441 1.795-.722 2.692-.13.395-.12.816-.23 1.23v.6c-.07.476-.046.959.07 1.427.06.242 0 .538.1.718a.34.34 0 0 0 .07.224c.411 0 1.003-.978 1.183-1.256a10.87 10.87 0 0 0 1.002-1.75c.27-.565.31-1.193.52-1.794.213-.495.364-1.01.452-1.534.13.254.348.465.621.6.476.302 1.016.511 1.588.614.57.104 1.16.1 1.729-.012 1.399-.244 2.656-.924 3.547-1.92a8.126 8.126 0 0 0 1.383-2.432c.17-.448.2-.95.33-1.426a5.45 5.45 0 0 0-.49-3.437C14.265 1.311 11.76-.052 7.762.002Z" fill="#fff"/></svg><svg viewBox="0 0 22 12" fill="none" id="socials_vk"><path d="M19.506 5.017c.313-.387.562-.697.745-.931 1.321-1.679 1.894-2.752 1.718-3.22L21.9.758c-.045-.066-.164-.126-.355-.18-.19-.055-.435-.064-.733-.028l-3.299.022a.983.983 0 0 0-.378.038l-.057.028-.046.032a.5.5 0 0 0-.126.116.738.738 0 0 0-.114.191 17.524 17.524 0 0 1-1.226 2.464c-.282.453-.542.846-.779 1.177a5.665 5.665 0 0 1-.595.734c-.16.157-.306.283-.435.378-.13.095-.23.135-.298.12a5.887 5.887 0 0 1-.195-.044.736.736 0 0 1-.258-.268 1.163 1.163 0 0 1-.131-.427 4.416 4.416 0 0 1-.04-.444c-.004-.124-.002-.299.005-.525.008-.227.012-.38.012-.46 0-.277.006-.579.017-.904.011-.324.021-.582.029-.772.007-.19.011-.39.011-.602 0-.211-.013-.378-.04-.498a1.69 1.69 0 0 0-.12-.35.596.596 0 0 0-.235-.263 1.359 1.359 0 0 0-.384-.148C11.725.056 11.21.009 10.584 0 9.164-.013 8.25.075 7.846.265c-.16.08-.306.19-.435.328-.138.16-.157.249-.057.263.458.065.782.223.973.47l.069.132c.053.095.107.263.16.504.054.24.088.507.103.8.039.532.039.988 0 1.368-.038.38-.074.675-.108.887a1.718 1.718 0 0 1-.155.514 2.125 2.125 0 0 1-.137.242.198.198 0 0 1-.058.054.895.895 0 0 1-.309.055c-.107 0-.237-.051-.39-.154a2.667 2.667 0 0 1-.475-.421 5.615 5.615 0 0 1-.555-.75c-.207-.321-.42-.701-.642-1.139L5.647 3.1a26.39 26.39 0 0 1-.47-.892c-.198-.39-.374-.768-.526-1.133a.73.73 0 0 0-.275-.35L4.318.69a.791.791 0 0 0-.183-.093 1.278 1.278 0 0 0-.263-.07L.733.547c-.32 0-.538.07-.653.21L.035.822A.34.34 0 0 0 0 .998c0 .08.023.179.069.296.458 1.03.956 2.022 1.495 2.978a33.216 33.216 0 0 0 1.403 2.31c.397.585.802 1.136 1.214 1.654.413.519.685.85.819.997.134.146.239.255.315.328l.286.263c.183.175.453.385.808.63.355.245.748.485 1.18.722.431.238.933.431 1.506.581.573.15 1.13.21 1.672.18h1.317c.268-.021.47-.101.607-.24l.046-.055a.727.727 0 0 0 .086-.202c.027-.091.04-.192.04-.301a3.45 3.45 0 0 1 .075-.849c.057-.252.122-.442.195-.57a1.404 1.404 0 0 1 .44-.481.947.947 0 0 1 .092-.039c.183-.058.4-.002.647.17.249.172.482.383.7.635.217.252.478.535.784.849.305.314.572.547.802.7l.229.132c.152.088.35.168.595.241.245.073.459.091.642.055l2.932-.044c.29 0 .516-.046.676-.137.16-.09.256-.192.286-.301a.813.813 0 0 0 .006-.372 1.318 1.318 0 0 0-.08-.29 1.467 1.467 0 0 0-.075-.137c-.382-.657-1.11-1.464-2.188-2.42l-.022-.022-.012-.011-.011-.01h-.012c-.489-.446-.798-.745-.927-.899-.237-.292-.29-.587-.16-.887.09-.227.434-.705 1.03-1.435Z" fill="#fff"/></svg><svg viewBox="0 0 22 22" fill="none" id="socials_whatsapp"><path fill-rule="evenodd" clip-rule="evenodd" d="M13.626 12.286c-.416.17-.682.822-.952 1.155-.138.17-.303.197-.516.112-1.563-.623-2.76-1.666-3.623-3.104-.146-.223-.12-.399.056-.606.26-.307.588-.655.659-1.069.156-.914-1.04-3.75-2.618-2.465-4.543 3.701 7.578 13.52 9.765 8.21.62-1.506-2.08-2.516-2.77-2.233ZM11 20.078a9.07 9.07 0 0 1-4.571-1.235.967.967 0 0 0-.74-.098l-3.007.826 1.048-2.308a.96.96 0 0 0-.096-.959A9.012 9.012 0 0 1 1.921 11c0-5.006 4.073-9.079 9.08-9.079 5.005 0 9.077 4.073 9.077 9.079S16.006 20.078 11 20.078ZM11 0C4.935 0 0 4.935 0 11c0 2.134.606 4.183 1.757 5.962l-1.67 3.68A.961.961 0 0 0 .96 22c.62 0 3.998-1.062 4.858-1.298C7.409 21.552 9.19 22 11 22c6.065 0 11-4.935 11-11S17.065 0 11 0Z" fill="#fff"/></svg><svg viewBox="0 0 24 24" fill="none" id="vacancy_like"><path d="M20.02 12.917c-1.026 0-1.97.577-2.52 1.448-.54-.88-1.476-1.448-2.52-1.448-1.642 0-2.98 1.448-2.98 3.226 0 2.301 2.787 5.152 4.427 6.481a1.718 1.718 0 0 0 2.146 0c1.64-1.32 4.427-4.17 4.427-6.48 0-1.779-1.338-3.227-2.98-3.227Zm-2.025 8.992a.799.799 0 0 1-.99 0c-1.64-1.32-4.088-3.941-4.088-5.766 0-1.274.925-2.31 2.062-2.31.99 0 1.87.798 2.063 1.861.036.22.229.376.449.376s.412-.156.449-.376c.192-1.063 1.082-1.86 2.08-1.86 1.137 0 2.063 1.035 2.063 2.31 0 1.814-2.447 4.445-4.088 5.765Zm.88-19.076h-6.444c-.211 0-.422-.046-.614-.146L8.929 1.238A2.314 2.314 0 0 0 7.902 1H5.125A4.131 4.131 0 0 0 1 5.125v11.917a4.131 4.131 0 0 0 4.125 4.125h6.417a.454.454 0 0 0 .458-.459.454.454 0 0 0-.458-.458H5.125a3.212 3.212 0 0 1-3.208-3.208V7.417h20.166v4.125c0 .256.202.458.459.458a.454.454 0 0 0 .458-.458V6.958a4.131 4.131 0 0 0-4.125-4.125ZM1.917 5.125c0-1.77 1.439-3.208 3.208-3.208h2.777c.211 0 .422.045.615.146l2.896 1.449c.312.155.67.238 1.027.238h6.444a3.21 3.21 0 0 1 3.172 2.75H1.916V5.125Z" fill="#00604B"/></svg><svg viewBox="0 0 32 32" fill="none" id="video_play"><rect width="32" height="32" rx="16" fill="#000" fill-opacity=".4"/><path d="M12 20.518V10.002a1 1 0 0 1 1.534-.846l9.014 5.697a1 1 0 0 1-.062 1.727l-9.014 4.82A1 1 0 0 1 12 20.518Z" fill="#fff"/></svg></svg>