<svg xmlns="http://www.w3.org/2000/svg"><style>:root svg:not(:target){display:none}</style><svg viewBox="0 0 24 24" fill="none" id="bin"><path d="M20.25 4.688h-3.938V3.75a2.062 2.062 0 0 0-2.062-2.063h-4.5A2.063 2.063 0 0 0 7.687 3.75v.938H3.75a.563.563 0 1 0 0 1.125H5l.325 14.602a2.077 2.077 0 0 0 2.055 1.898h9.24a2.078 2.078 0 0 0 2.055-1.898L19 5.813h1.25a.562.562 0 1 0 0-1.125ZM8.812 3.75a.937.937 0 0 1 .938-.938h4.5a.937.937 0 0 1 .938.938v.938H8.811V3.75Zm8.738 16.575a.945.945 0 0 1-.938.863H7.38a.945.945 0 0 1-.93-.863L6.102 5.813h11.796l-.348 14.512Z" fill="#797979"/><path d="M14.513 8a.515.515 0 0 0-.515.515v9.738a.515.515 0 0 0 1.03 0V8.515A.515.515 0 0 0 14.513 8ZM9.513 8a.515.515 0 0 0-.515.515v9.738a.515.515 0 0 0 1.03 0V8.515A.515.515 0 0 0 9.513 8Z" fill="#797979"/></svg><svg viewBox="0 0 14 15" fill="none" id="check-2"><g clip-path="url(#check-2_0)"><path d="m13 3.5-7.563 7L2 7.318" stroke="#fff" stroke-width="1.5" stroke-linecap="round" stroke-linejoin="round"/></g><defs><clipPath id="check-2_0"><path fill="#fff" transform="translate(0 .5)" d="M0 0h14v14H0z"/></clipPath></defs></svg><svg viewBox="0 0 16 17" fill="none" id="check"><g clip-path="url(#check_0)"><path d="m15.332 3.836-9.625 9.333-4.375-4.242" stroke="#00604B" stroke-width="1.5" stroke-linecap="round" stroke-linejoin="round"/></g><defs><clipPath id="check_0"><path fill="#fff" transform="translate(0 .5)" d="M0 0h16v16H0z"/></clipPath></defs></svg><svg viewBox="0 0 30 30" fill="none" id="close"><path d="M5.208 24.79a.715.715 0 0 0 1.01 0l8.78-8.778 8.782 8.779a.715.715 0 0 0 1.01-1.011l-8.782-8.778 8.78-8.782a.715.715 0 1 0-1.012-1.01l-8.779 8.781-8.782-8.778A.714.714 0 0 0 5.208 6.22l8.779 8.782-8.78 8.781a.714.714 0 0 0 0 1.008Z" fill="#000"/></svg><svg viewBox="0 0 30 31" fill="none" id="filter"><path fill-rule="evenodd" clip-rule="evenodd" d="M18.344 8a.938.938 0 0 1 .937.938v3.854a.937.937 0 1 1-1.875 0v-1.037H2.188a.938.938 0 0 1 0-1.875h15.218v-.943A.938.938 0 0 1 18.344 8Zm9.641 2.807a.937.937 0 0 1-.929.947l-5.042.05a.938.938 0 0 1-.019-1.875l5.044-.05a.938.938 0 0 1 .946.928ZM10.85 16.688a.938.938 0 0 1 .938.937v3.855a.938.938 0 0 1-1.876 0v-1.039H2.188a.938.938 0 0 1 0-1.875h7.726v-.941a.938.938 0 0 1 .937-.938Zm2.76 2.815a.938.938 0 0 1 .938-.938h12.5a.938.938 0 0 1 0 1.875h-12.5a.938.938 0 0 1-.938-.938Z" fill="#fff"/></svg><svg viewBox="0 0 20 20" fill="none" id="location"><g clip-path="url(#location_1)"><mask id="location_0" style="mask-type:luminance" maskUnits="userSpaceOnUse" x="0" y="0" width="20" height="20"><path d="M19.25 19.25V.751H.75V19.25h18.5Z" fill="#fff" stroke="#fff" stroke-width="1.5"/></mask><g mask="url(#location_0)"><path d="M9.777 18.336c-3.333-3.164-6.445-5.781-6.445-9.882a6.452 6.452 0 0 1 6.445-6.445 6.452 6.452 0 0 1 6.446 6.445c0 4.101-3.112 6.718-6.446 9.882Z" stroke="#050505" stroke-width="1.5" stroke-miterlimit="10" stroke-linecap="round" stroke-linejoin="round"/><path d="M9.777 10.586a2.503 2.503 0 0 1-2.5-2.5c0-1.378 1.122-2.5 2.5-2.5 1.379 0 2.5 1.122 2.5 2.5s-1.121 2.5-2.5 2.5Z" stroke="#050505" stroke-width="1.5" stroke-miterlimit="10" stroke-linecap="round" stroke-linejoin="round"/></g></g><defs><clipPath id="location_1"><path fill="#fff" d="M0 0h20v20H0z"/></clipPath></defs></svg><svg viewBox="0 0 30 30" fill="none" id="logo"><g clip-path="url(#logo_0)"><path d="M21.404 23.011C24.122 19 29.22 4.61 10.078 0a13.97 13.97 0 0 1 5.5 6.633c.72 1.78 1.08 3.716 1.08 5.807 0 2.066-.36 3.995-1.08 5.79-.718 1.795-1.73 3.35-3.035 4.668-.638.646-1.777 1.53-2.077 1.732 6.904-3.124 10.391-5.194 10.938-1.619Z" fill="#ED1A39"/><path d="M1.5 29.953c8.322-7.288 14.323.31 26.671-8.945-3.543 4.598-6.488 5.409-7.944 8.991-7.239-1.135-11.967-2.08-18.727-.046Z" fill="#fff"/></g><defs><clipPath id="logo_0"><path fill="#fff" d="M0 0h30v30H0z"/></clipPath></defs></svg><svg viewBox="0 0 20 20" fill="none" id="marker-check"><circle cx="10" cy="10" r="10" fill="#00604B"/><path d="m14 7-5.5 5.5L6 10" stroke="#fff" stroke-width="1.5" stroke-linecap="round" stroke-linejoin="round"/></svg><svg viewBox="0 0 16 16" fill="none" id="premium"><g clip-path="url(#premium_0)"><path d="M15.37 6.002a.45.45 0 0 1-.011.133l-.987 3.948a.448.448 0 0 1-.433.34l-5.922.03H2.093a.448.448 0 0 1-.435-.34L.671 6.15a.448.448 0 0 1-.012-.137.943.943 0 1 1 1.225-.899.94.94 0 0 1-.344.728l1.236 1.245c.312.314.745.495 1.189.495.524 0 1.024-.25 1.339-.666l2.03-2.691a.939.939 0 0 1-.276-.666.943.943 0 0 1 1.884 0c0 .252-.1.48-.262.65l.002.002 2.016 2.698c.315.421.816.673 1.342.673.447 0 .868-.175 1.184-.491l1.244-1.243a.94.94 0 0 1 .59-1.676c.52 0 .942.423.942.942 0 .41-.264.759-.63.888Zm-1.095 5.856a.449.449 0 0 0-.448-.448H2.223a.449.449 0 0 0-.449.448v1.077a.449.449 0 0 0 .45.448h11.603a.449.449 0 0 0 .448-.448v-1.077Z" fill="#fff"/></g><defs><clipPath id="premium_0"><path fill="#fff" d="M0 0h16v16H0z"/></clipPath></defs></svg><svg viewBox="0 0 8 8" fill="none" id="small-x"><path fill-rule="evenodd" clip-rule="evenodd" d="M.16 7.063a.549.549 0 1 0 .777.776L4 4.775 7.064 7.84a.548.548 0 0 0 .775-.776L4.776 4 7.839.936a.549.549 0 1 0-.776-.775L4 3.224.936.161a.549.549 0 0 0-.775.775L3.225 4 .16 7.063Z" fill="#999"/></svg><svg viewBox="0 0 24 24" fill="none" id="burger_close"><path fill-rule="evenodd" clip-rule="evenodd" d="M3.468 20.499a.749.749 0 0 1 0-1.06l16-15.975a.751.751 0 0 1 1.062 0 .748.748 0 0 1 0 1.06l-16 15.975a.752.752 0 0 1-1.062 0Z" fill="#EA0029"/><path fill-rule="evenodd" clip-rule="evenodd" d="M3.47 3.49a.751.751 0 0 1 1.06 0l16 15.976a.749.749 0 0 1 0 1.06.751.751 0 0 1-1.06 0L3.47 4.55a.749.749 0 0 1 0-1.06Z" fill="#EA0029"/></svg><svg viewBox="0 0 24 24" fill="none" id="burger_open"><path fill-rule="evenodd" clip-rule="evenodd" d="M1.648 6.398a.75.75 0 0 1 .75-.75h18.667a.75.75 0 0 1 0 1.5H2.398a.75.75 0 0 1-.75-.75ZM1.648 12a.75.75 0 0 1 .75-.75h18.667a.75.75 0 0 1 0 1.5H2.398a.75.75 0 0 1-.75-.75ZM1.648 17.602a.75.75 0 0 1 .75-.75h18.667a.75.75 0 1 1 0 1.5H2.398a.75.75 0 0 1-.75-.75Z" fill="#EA0029"/></svg><svg viewBox="0 0 30 30" fill="none" id="contacts_clock"><path d="M14.998 2.4a12.6 12.6 0 1 0 12.6 12.6 12.612 12.612 0 0 0-12.6-12.6Zm0 24a11.4 11.4 0 1 1 11.4-11.4 11.412 11.412 0 0 1-11.4 11.4Z" fill="#00604B"/><path d="m19.198 15.756-3.6-1.2V7.8a.6.6 0 0 0-1.2 0V15a.588.588 0 0 0 .409.564l3.984 1.332a.492.492 0 0 0 .192 0 .6.6 0 0 0 .564-.42.589.589 0 0 0-.349-.72Z" fill="#00604B"/></svg><svg viewBox="0 0 30 30" fill="none" id="contacts_email"><path d="M26.218 6.25H3.782c-.705 0-1.282.606-1.282 1.346v14.808c0 .74.577 1.346 1.282 1.346h22.436c.705 0 1.282-.606 1.282-1.346V7.596c0-.74-.577-1.346-1.282-1.346Zm-.481 1.01-10 7.875c-.18.143-.455.233-.737.232a1.208 1.208 0 0 1-.738-.232L4.263 7.26h21.474Zm-5.341 8.394 5.448 7.068.018.018H4.138l.018-.018 5.448-7.068a.513.513 0 0 0 .105-.37.524.524 0 0 0-.176-.34.465.465 0 0 0-.676.075l-5.395 6.998V7.891l10.224 8.051c.384.3.852.433 1.314.434.461 0 .93-.133 1.314-.434l10.224-8.051v14.126l-5.395-6.998a.465.465 0 0 0-.676-.075.522.522 0 0 0-.072.71Z" fill="#00604B"/></svg><svg viewBox="0 0 30 30" fill="none" id="contacts_location"><path d="M26.25 12.5C26.25 21.25 15 28.75 15 28.75S3.75 21.25 3.75 12.5a11.25 11.25 0 1 1 22.5 0Z" stroke="#00604B" stroke-linecap="square"/><path d="M15 16.25a3.75 3.75 0 1 0 0-7.5 3.75 3.75 0 0 0 0 7.5Z" stroke="#00604B" stroke-linecap="square" stroke-linejoin="round"/></svg><svg viewBox="0 0 30 30" fill="none" id="contacts_phone"><path d="M25.586 3.172 24.36 2.1C23.245.985 21.353.93 20.15 2.155l-2.045 2.68a2.94 2.94 0 0 0 0 4.157l1.63 1.673c-1.773 4.157-5.043 7.439-9.068 9.08l-1.673-1.63a2.912 2.912 0 0 0-2.078-.864c-.788 0-1.52.306-2.024.82l-2.778 2.144C.966 21.363.966 23.234 2.092 24.35l1.116 1.28C4.41 26.832 6.03 27.5 7.79 27.5 16.267 27.5 27.5 16.255 27.5 7.789a6.45 6.45 0 0 0-1.892-4.606l-.022-.01ZM7.769 26.395c-1.466 0-2.811-.547-3.785-1.52L2.87 23.584c-.722-.722-.722-1.892-.055-2.57l2.778-2.145c.35-.35.81-.546 1.313-.546.503 0 .962.196 1.312.546l1.936 1.893a.54.54 0 0 0 .58.12c4.56-1.74 8.269-5.447 10.16-10.15a.566.566 0 0 0-.12-.592l-1.892-1.936c-.722-.722-.722-1.892.044-2.669l2.045-2.68c.722-.722 1.893-.722 2.647.022l1.225 1.072c.995.996 1.542 2.341 1.542 3.807 0 7.832-10.784 18.617-18.615 18.617v.022Z" fill="#00604B"/></svg><svg viewBox="0 0 16 17" fill="none" id="controls_arrow"><path fill-rule="evenodd" clip-rule="evenodd" d="M.668 8.695a.4.4 0 0 1 .393-.406H14.68a.4.4 0 0 1 .393.406.4.4 0 0 1-.393.407H1.06a.4.4 0 0 1-.392-.407Z" fill="#00604B"/><path fill-rule="evenodd" clip-rule="evenodd" d="M10.736 4.619a.384.384 0 0 1 .556 0l3.666 3.792a.416.416 0 0 1 0 .574l-3.666 3.792a.384.384 0 0 1-.556 0 .416.416 0 0 1 0-.575l3.389-3.504-3.389-3.504a.416.416 0 0 1 0-.575Z" fill="#00604B"/></svg><svg viewBox="0 0 16 16" fill="none" id="controls_left-arrow"><path fill-rule="evenodd" clip-rule="evenodd" d="M15.07 8.203a.4.4 0 0 1-.393.406H1.059a.4.4 0 0 1-.392-.406.4.4 0 0 1 .392-.406h13.62a.4.4 0 0 1 .392.406Z" fill="#00604B"/><path fill-rule="evenodd" clip-rule="evenodd" d="M5.002 12.28a.384.384 0 0 1-.555 0L.78 8.487a.416.416 0 0 1 0-.575l3.667-3.791a.384.384 0 0 1 .555 0 .416.416 0 0 1 0 .574L1.613 8.201l3.39 3.504a.416.416 0 0 1 0 .574Z" fill="#00604B"/></svg><svg viewBox="0 0 16 16" fill="none" id="controls_minus"><path d="M15 9H1a1 1 0 0 1 0-2h14a1 1 0 1 1 0 2Z" fill="#797979"/></svg><svg viewBox="0 0 16 16" fill="none" id="controls_plus"><g clip-path="url(#controls_plus_0)"><path d="M15 7H9V1a1 1 0 0 0-2 0v6H1a1 1 0 0 0 0 2h6v6a1 1 0 1 0 2 0V9h6a1 1 0 1 0 0-2Z" fill="#797979"/></g><defs><clipPath id="controls_plus_0"><path fill="#fff" d="M0 0h16v16H0z"/></clipPath></defs></svg><svg viewBox="0 0 24 24" fill="none" id="controls_right-arrow-without-tail"><path d="M17 12.25a.748.748 0 0 1-.22.53l-7.5 7.5a.75.75 0 1 1-1.06-1.06l6.97-6.97-6.97-6.97a.75.75 0 1 1 1.06-1.06l7.5 7.5a.749.749 0 0 1 .22.53Z" fill="#00604B"/></svg><svg viewBox="0 0 40 40" fill="none" id="controls_slider-arrow"><path fill-rule="evenodd" clip-rule="evenodd" d="M20 .833C9.415.833.833 9.415.833 20S9.415 39.167 20 39.167 39.167 30.585 39.167 20 30.585.833 20 .833ZM20 0C8.954 0 0 8.954 0 20s8.954 20 20 20 20-8.954 20-20S31.046 0 20 0Z" fill="#00604B"/><path fill-rule="evenodd" clip-rule="evenodd" d="M21.703 28.292a.417.417 0 0 1 0-.59l7.705-7.705-7.705-7.705a.417.417 0 0 1 .589-.59l8 8a.417.417 0 0 1 0 .59l-8 8a.417.417 0 0 1-.59 0Z" fill="#00604B"/><path fill-rule="evenodd" clip-rule="evenodd" d="M30.414 19.997c0 .23-.187.417-.417.417h-20a.417.417 0 0 1 0-.833h20c.23 0 .417.186.417.416Z" fill="#00604B"/></svg><svg viewBox="0 0 80 80" fill="none" id="features_delivery"><path d="M6.668 34.47a1.44 1.44 0 0 1 1.44-1.44H22.5a1.44 1.44 0 0 1 0 2.88H8.107a1.44 1.44 0 0 1-1.439-1.44Zm69.09 2.879v14.393a10.097 10.097 0 0 1-6.528 9.431A8.425 8.425 0 0 1 70 64.697c0 4.761-3.875 8.636-8.636 8.636-4.762 0-8.636-3.874-8.636-8.636 0-.99.172-1.96.506-2.879H29.192c.334.919.506 1.889.506 2.879 0 4.761-3.875 8.636-8.636 8.636-4.762 0-8.637-3.874-8.637-8.636 0-1.226.265-2.418.772-3.524a10.096 10.096 0 0 1-6.529-9.43v-8.637a1.44 1.44 0 1 1 2.879 0v8.636c0 3.967 3.227 7.197 7.197 7.197h35.985V22.955c0-5.556-4.52-10.076-10.076-10.076a1.44 1.44 0 0 1 0-2.879c7.142 0 12.954 5.812 12.954 12.954v1.44h7.197c7.143 0 12.955 5.812 12.955 12.955Zm-20.15-10.076v14.394H72.88v-4.319c0-5.556-4.52-10.075-10.076-10.075h-7.197ZM26.021 61.818h-9.278c-.21 0-.42-.008-.63-.02a5.608 5.608 0 0 0-.81 2.899 5.763 5.763 0 0 0 5.758 5.757 5.763 5.763 0 0 0 5.758-5.757 5.614 5.614 0 0 0-.798-2.879Zm40.292-.02c-.21.014-.42.02-.63.02h-9.28a5.614 5.614 0 0 0-.797 2.879 5.763 5.763 0 0 0 5.758 5.757 5.763 5.763 0 0 0 5.758-5.757c0-1.022-.28-2.01-.81-2.899Zm6.566-10.056v-7.197H55.607V58.94h10.076c3.97 0 7.197-3.23 7.197-7.197ZM8.107 12.88h25.91a1.44 1.44 0 0 0 0-2.879H8.107a1.44 1.44 0 1 0 0 2.879Zm0 11.515H28.26a1.44 1.44 0 0 0 0-2.879H8.107a1.44 1.44 0 1 0 0 2.879Z" fill="#00604B"/></svg><svg viewBox="0 0 80 80" fill="none" id="features_exchange"><path d="M4.823 28.055h66.35c-.119.223-.217.457-.392.653a48.182 48.182 0 0 1-1.677 1.819l-6.659 6.775a1.485 1.485 0 0 0 2.116 2.083l6.653-6.769a50.703 50.703 0 0 0 1.793-1.938 6.187 6.187 0 0 0 0-8.205 48.98 48.98 0 0 0-1.787-1.935l-6.659-6.774a1.484 1.484 0 0 0-2.116 2.08l6.668 6.78c.437.44 1.048 1.11 1.671 1.817.172.195.273.427.392.65H4.823a1.484 1.484 0 1 0 0 2.967v-.003Zm68.252 23.74H6.728c.118-.223.22-.454.391-.653.542-.621 1.1-1.228 1.674-1.819l6.662-6.775a1.484 1.484 0 1 0-2.116-2.08l-6.656 6.769a50.774 50.774 0 0 0-1.79 1.938 6.18 6.18 0 0 0 0 8.205 48.884 48.884 0 0 0 1.787 1.935l6.662 6.774a1.472 1.472 0 0 0 2.098.015 1.483 1.483 0 0 0 .018-2.098l-6.668-6.78a44.46 44.46 0 0 1-1.67-1.817c-.176-.195-.274-.427-.392-.65h66.347a1.484 1.484 0 0 0 0-2.967v.003Z" fill="#00604B"/></svg><svg viewBox="0 0 80 80" fill="none" id="features_guarantee"><path d="M39.995 76.663a15.872 15.872 0 0 1-12.167-5.665 1.314 1.314 0 0 0-1.149-.474 15.964 15.964 0 0 1-12.61-4.598 15.87 15.87 0 0 1-4.598-12.61 1.314 1.314 0 0 0-.474-1.146A15.88 15.88 0 0 1 3.332 40c0-4.7 2.066-9.137 5.665-12.168a1.314 1.314 0 0 0 .477-1.149 15.87 15.87 0 0 1 4.598-12.61 15.814 15.814 0 0 1 12.61-4.598A1.313 1.313 0 0 0 27.832 9a15.864 15.864 0 0 1 12.166-5.665c4.703 0 9.137 2.065 12.168 5.665.293.345.672.507 1.149.474a15.947 15.947 0 0 1 12.61 4.598 15.87 15.87 0 0 1 4.598 12.61 1.315 1.315 0 0 0 .474 1.146A15.88 15.88 0 0 1 76.662 40c0 4.7-2.066 9.136-5.665 12.167a1.315 1.315 0 0 0-.477 1.15 15.871 15.871 0 0 1-4.598 12.61 15.779 15.779 0 0 1-12.61 4.598 1.347 1.347 0 0 0-1.15.474 15.864 15.864 0 0 1-12.167 5.665ZM26.814 67.46c1.298 0 2.502.559 3.355 1.57a12.821 12.821 0 0 0 9.83 4.577c3.797 0 7.382-1.668 9.83-4.577a4.356 4.356 0 0 1 3.751-1.552c3.792.32 7.502-1.03 10.188-3.716a12.831 12.831 0 0 0 3.715-10.19 4.352 4.352 0 0 1 1.555-3.746 12.838 12.838 0 0 0 4.575-9.83c0-3.795-1.669-7.382-4.578-9.832a4.354 4.354 0 0 1-1.552-3.747 12.833 12.833 0 0 0-3.716-10.19 12.864 12.864 0 0 0-10.187-3.715 4.315 4.315 0 0 1-3.752-1.553 12.822 12.822 0 0 0-9.83-4.577 12.822 12.822 0 0 0-9.83 4.578 4.37 4.37 0 0 1-3.751 1.552 12.806 12.806 0 0 0-10.188 3.715 12.832 12.832 0 0 0-3.715 10.19 4.353 4.353 0 0 1-1.555 3.747 12.838 12.838 0 0 0-4.574 9.83c0 3.794 1.668 7.381 4.577 9.832a4.355 4.355 0 0 1 1.552 3.746 12.833 12.833 0 0 0 8.399 13.172c1.76.642 3.638.892 5.504.734.132-.012.264-.018.397-.018Zm14.569-20.515 14.48-13.958a1.528 1.528 0 0 0-2.118-2.2L39.244 44.763a4.604 4.604 0 0 1-6.52-.04l-6.961-6.468a1.534 1.534 0 0 0-2.084 2.24l6.924 6.428a7.63 7.63 0 0 0 5.408 2.237c1.956 0 3.896-.74 5.375-2.218l-.003.003Z" fill="#00604B"/></svg><svg viewBox="0 0 80 80" fill="none" id="features_payment"><path d="M61.836 70h-45a13.515 13.515 0 0 1-13.5-13.5v-33c0-7.443 6.057-13.5 13.5-13.5h45c7.443 0 13.5 6.057 13.5 13.5v33c0 7.443-6.057 13.5-13.5 13.5Zm-45-57c-5.79 0-10.5 4.71-10.5 10.5v33c0 5.79 4.71 10.5 10.5 10.5h45c5.79 0 10.5-4.71 10.5-10.5v-33c0-5.79-4.71-10.5-10.5-10.5h-45Zm42 30h-15a4.505 4.505 0 0 1-4.5-4.5v-9c0-2.481 2.019-4.5 4.5-4.5h15c2.48 0 4.5 2.019 4.5 4.5v9c0 2.481-2.02 4.5-4.5 4.5Zm-15-15a1.5 1.5 0 0 0-1.5 1.5v9a1.5 1.5 0 0 0 1.5 1.5h15a1.5 1.5 0 0 0 1.5-1.5v-9a1.5 1.5 0 0 0-1.5-1.5h-15Zm-10.5 13.5a1.5 1.5 0 0 0-1.5-1.5h-15a1.5 1.5 0 1 0 0 3h15a1.5 1.5 0 0 0 1.5-1.5Zm30 12a1.5 1.5 0 0 0-1.5-1.5h-45a1.5 1.5 0 1 0 0 3h45a1.5 1.5 0 0 0 1.5-1.5Z" fill="#00604B"/></svg><svg viewBox="0 0 24 24" fill="none" id="like_like-false"><path d="M16.762 2a5.967 5.967 0 0 0-2.626.595A6.219 6.219 0 0 0 12 4.295a6.137 6.137 0 0 0-2.132-1.708A5.886 5.886 0 0 0 7.238 2C3.793 2 1 4.914 1 8.508c0 6.158 10.304 12.172 10.722 12.404a.487.487 0 0 0 .556 0C12.696 20.68 23 14.753 23 8.508 23 4.914 20.207 2 16.762 2ZM12 19.75c-1.615-.988-9.886-6.246-9.886-11.242 0-2.952 2.294-5.346 5.124-5.346a4.847 4.847 0 0 1 2.444.626 5.102 5.102 0 0 1 1.845 1.786.57.57 0 0 0 .946 0c1.55-2.471 4.725-3.164 7.093-1.549a5.267 5.267 0 0 1 1.705 1.934 5.53 5.53 0 0 1 .615 2.549c0 5.054-8.27 10.283-9.886 11.242Z" fill="#050505"/></svg><svg viewBox="0 0 24 24" fill="none" id="like_like-true"><path d="M16.762 2a5.967 5.967 0 0 0-2.626.595A6.219 6.219 0 0 0 12 4.295a6.137 6.137 0 0 0-2.132-1.708A5.886 5.886 0 0 0 7.238 2C3.793 2 1 4.914 1 8.508c0 6.158 10.304 12.172 10.722 12.404a.487.487 0 0 0 .556 0C12.696 20.68 23 14.753 23 8.508 23 4.914 20.207 2 16.762 2Z" fill="#EA0029"/></svg><svg viewBox="0 0 68 90" fill="none" id="map_marker"><path d="M34.002.313A33.962 33.962 0 0 0 .039 34.275v2.475c1.375 18.608 16.82 33.573 33.963 52.938C51.9 69.475 67.964 54.166 67.964 34.275A33.963 33.963 0 0 0 34.002.313Z" fill="#00604B"/><path d="M43.364 41.735c3.603-5.319 10.361-24.392-15.012-30.5a18.614 18.614 0 0 1 3.267 2.63c1.729 1.749 3.07 3.8 4.024 6.16.953 2.36 1.43 4.927 1.43 7.698 0 2.74-.477 5.296-1.43 7.675-.954 2.379-2.295 4.44-4.024 6.188-.846.855-2.356 2.028-2.753 2.294 9.15-4.14 13.773-6.884 14.498-2.145Z" fill="#ED1A39"/><path d="M16.977 50.935c11.03-9.66 18.984.412 35.352-11.857-4.697 6.095-8.6 7.17-10.53 11.918-9.595-1.505-15.863-2.757-24.822-.06Z" fill="#fff"/></svg><svg viewBox="0 0 30 30" fill="none" id="share_ok"><rect width="30" height="30" rx="15" fill="#FD7722"/><path fill-rule="evenodd" clip-rule="evenodd" d="M18.538 13.462a4.942 4.942 0 0 1-7.005 0 4.94 4.94 0 0 1 0-7.005 4.937 4.937 0 0 1 7.005 0 4.938 4.938 0 0 1 0 7.005Zm-3.503-5.768c-.617 0-1.177.25-1.588.662a2.238 2.238 0 0 0 0 3.178 2.237 2.237 0 0 0 3.178 0 2.237 2.237 0 0 0 0-3.18 2.299 2.299 0 0 0-1.59-.662v.002Zm5.21 7.24 1.458 1.987c.074.103.059.235-.045.309-1.221 1-2.649 1.662-4.135 2.016l2.811 5.415c.074.163-.03.339-.206.339h-3.003a.26.26 0 0 1-.22-.148l-1.87-4.473-1.883 4.458a.227.227 0 0 1-.22.148H9.929c-.176 0-.28-.191-.206-.338l2.811-5.4A10.327 10.327 0 0 1 8.4 17.23c-.089-.075-.119-.221-.045-.31l1.458-1.986c.087-.118.235-.133.337-.044 1.37 1.162 3.063 1.927 4.873 1.927s3.487-.75 4.87-1.927c.118-.088.28-.075.353.044Z" fill="#fff"/></svg><svg viewBox="0 0 30 30" fill="none" id="share_vk"><rect width="30" height="30" rx="15" fill="#157BFB"/><path d="M16.1 21.633c-6.765 0-10.87-4.694-11.03-12.492h3.425c.108 5.728 2.714 8.16 4.713 8.656V9.14h3.284v4.942c1.927-.212 3.943-2.462 4.622-4.942h3.23c-.517 3.05-2.712 5.3-4.265 6.228 1.553.75 4.05 2.713 5.014 6.263h-3.55c-.75-2.373-2.588-4.211-5.05-4.461v4.462h-.394Z" fill="#fff"/></svg><svg viewBox="0 0 30 30" fill="none" id="share_whatsapp"><rect width="30" height="30" rx="15" fill="#68BB5A"/><path fill-rule="evenodd" clip-rule="evenodd" d="M25 14.742c0 5.38-4.396 9.743-9.819 9.743a9.838 9.838 0 0 1-4.745-1.212L5 25l1.772-5.227a9.643 9.643 0 0 1-1.408-5.03C5.362 9.36 9.759 5 15.18 5 20.604 5 25 9.363 25 14.742Zm-9.819-8.19c-4.551 0-8.253 3.674-8.253 8.19A8.1 8.1 0 0 0 8.5 19.546l-1.031 3.041 3.171-1.007a8.252 8.252 0 0 0 4.541 1.355c4.553 0 8.255-3.675 8.255-8.192 0-4.516-3.702-8.19-8.255-8.19Zm4.959 10.434c-.061-.1-.221-.16-.463-.279-.24-.118-1.423-.697-1.643-.776-.221-.08-.381-.12-.543.119-.24.323-.494.636-.762.936-.14.16-.28.179-.52.06-.242-.12-1.016-.371-1.936-1.185a7.2 7.2 0 0 1-1.338-1.654c-.141-.238-.016-.368.105-.487.108-.107.24-.279.361-.418.12-.14.16-.238.24-.398.08-.16.04-.299-.02-.419-.06-.119-.541-1.294-.742-1.772-.2-.478-.4-.398-.541-.398-.14 0-.3-.02-.462-.02a.888.888 0 0 0-.641.299c-.221.237-.842.816-.842 1.991 0 1.175.862 2.31.982 2.47.12.159 1.665 2.649 4.111 3.605 2.448.955 2.448.637 2.888.596.441-.038 1.425-.576 1.625-1.135.2-.557.2-1.036.141-1.135Z" fill="#fff"/></svg><svg viewBox="0 0 20 20" fill="none" id="shortcuts_cart"><g clip-path="url(#shortcuts_cart_0)"><path d="M7.497 18.33a.833.833 0 1 0 0-1.666.833.833 0 0 0 0 1.667ZM16.67 18.33a.833.833 0 1 0 0-1.666.833.833 0 0 0 0 1.667Z" stroke="#050505" stroke-width="1.5" stroke-linecap="round" stroke-linejoin="round"/><path d="M.836.836h3.333l2.234 11.158a1.667 1.667 0 0 0 1.666 1.342h8.1a1.667 1.667 0 0 0 1.667-1.342l1.333-6.991H5.003" stroke="#050505" stroke-width="1.5" stroke-linecap="square" stroke-linejoin="round"/></g><defs><clipPath id="shortcuts_cart_0"><path fill="#fff" d="M0 0h20v20H0z"/></clipPath></defs></svg><svg viewBox="0 0 20 20" fill="none" id="shortcuts_heart"><path d="M14.095 2.5c-1.69 0-3.17.694-4.092 1.867C9.08 3.194 7.6 2.5 5.91 2.5a5.205 5.205 0 0 0-3.586 1.42A4.742 4.742 0 0 0 .836 7.346c0 5.47 8.495 9.898 8.856 10.08a.68.68 0 0 0 .62 0c.363-.183 8.857-4.61 8.857-10.08a4.742 4.742 0 0 0-1.488-3.424A5.205 5.205 0 0 0 14.095 2.5Zm-4.092 13.66c-1.495-.832-7.858-4.62-7.858-8.815a3.519 3.519 0 0 1 1.105-2.54A3.862 3.862 0 0 1 5.91 3.75c1.592 0 2.929.81 3.487 2.11.05.115.133.213.241.282a.677.677 0 0 0 .73 0 .633.633 0 0 0 .24-.282c.558-1.302 1.895-2.11 3.487-2.11.998.002 1.955.38 2.66 1.054a3.519 3.519 0 0 1 1.105 2.54c0 4.19-6.364 7.983-7.857 8.816Z" fill="#050505"/></svg><svg viewBox="0 0 20 20" fill="none" id="shortcuts_phone"><path d="M18.919 14.306a1.482 1.482 0 0 0-.754-.938L14.3 11.365a1.472 1.472 0 0 0-1.875.428l-.625.856a.225.225 0 0 1-.29.066 11.347 11.347 0 0 1-2.5-1.928 11.346 11.346 0 0 1-1.929-2.5.225.225 0 0 1 .066-.29L8 7.37a1.472 1.472 0 0 0 .428-1.875l-1.99-3.862a1.478 1.478 0 0 0-2.132-.55L1.878 2.709A2.337 2.337 0 0 0 .84 4.799c.033.691.126 1.378.279 2.053.659 2.544 2.25 5.16 4.459 7.372 2.21 2.213 4.828 3.797 7.372 4.45.675.153 1.362.246 2.053.278h.156a2.338 2.338 0 0 0 1.931-1.028l1.62-2.428a1.479 1.479 0 0 0 .209-1.19Zm-1.25.493-1.61 2.431a1.094 1.094 0 0 1-.975.479 10.804 10.804 0 0 1-1.822-.241c-2.33-.606-4.743-2.072-6.797-4.134-2.053-2.063-3.525-4.466-4.13-6.797-.134-.6-.215-1.209-.245-1.822a1.084 1.084 0 0 1 .479-.972l2.428-1.619a.222.222 0 0 1 .125-.037h.06a.225.225 0 0 1 .143.115l2 3.866a.228.228 0 0 1-.066.287l-.853.625a1.475 1.475 0 0 0-.4 1.916 12.667 12.667 0 0 0 2.125 2.753 12.661 12.661 0 0 0 2.753 2.125 1.475 1.475 0 0 0 1.916-.4l.625-.856a.228.228 0 0 1 .287-.066l3.866 2a.228.228 0 0 1 .084.329l.007.018Z" fill="#000"/></svg><svg viewBox="0 0 20 20" fill="none" id="shortcuts_search"><path d="M9.167 15.833a6.667 6.667 0 1 0 0-13.333 6.667 6.667 0 0 0 0 13.333ZM17.5 17.5l-3.625-3.625" stroke="#050505" stroke-width="1.5" stroke-linecap="round" stroke-linejoin="round"/></svg><svg viewBox="0 0 20 20" fill="none" id="shortcuts_user"><path d="M16.67 17.5v-1.667a3.333 3.333 0 0 0-3.334-3.333H6.669a3.333 3.333 0 0 0-3.333 3.333V17.5M9.997 9.167a3.333 3.333 0 1 0 0-6.667 3.333 3.333 0 0 0 0 6.667Z" stroke="#000" stroke-width="1.5" stroke-linecap="round" stroke-linejoin="round"/></svg><svg viewBox="0 0 16 18" fill="none" id="socials_pinterest"><path d="M7.763.002 6.48.145a9.886 9.886 0 0 0-2.324.691C2.474 1.628 1.153 2.919.418 4.488a6.297 6.297 0 0 0-.23.897C-.374 7.17.35 9.083 2.01 10.195c.25.134.832.385 1.002.053.079-.204.133-.414.16-.628.097-.18.152-.375.16-.574-.06-.297-.41-.476-.56-.718a4.494 4.494 0 0 1-.461-1.543v-.26c.074-2.203 1.8-4.084 4.198-4.577a6.802 6.802 0 0 1 2.305-.152l1.112.17c.628.147 1.21.418 1.705.794.494.376.887.847 1.15 1.378.35.92.42 1.909.201 2.862-.11.413-.09.771-.23 1.148-.511 1.391-1.263 2.692-2.956 3.033-.921.216-1.878-.215-2.235-1.005a1.23 1.23 0 0 1-.13-.772c.29-1.13.722-2.135 1.002-3.265.346-.837-.131-1.766-1.066-2.076a1.942 1.942 0 0 0-.146-.042c-1.163-.251-2.054.718-2.365 1.346a3.343 3.343 0 0 0-.2 2.09c.169.304.29.627.36.96-.22.898-.48 1.795-.751 2.692-.27.898-.441 1.795-.722 2.692-.13.395-.12.816-.23 1.23v.6c-.07.476-.046.959.07 1.427.06.242 0 .538.1.718a.34.34 0 0 0 .07.224c.411 0 1.003-.978 1.183-1.256a10.87 10.87 0 0 0 1.002-1.75c.27-.565.31-1.193.52-1.794.213-.495.364-1.01.452-1.534.13.254.348.465.621.6.476.302 1.016.511 1.588.614.57.104 1.16.1 1.729-.012 1.399-.244 2.656-.924 3.547-1.92a8.126 8.126 0 0 0 1.383-2.432c.17-.448.2-.95.33-1.426a5.45 5.45 0 0 0-.49-3.437C14.265 1.311 11.76-.052 7.762.002Z" fill="#fff"/></svg><svg viewBox="0 0 22 12" fill="none" id="socials_vk"><path d="M19.506 5.017c.313-.387.562-.697.745-.931 1.321-1.679 1.894-2.752 1.718-3.22L21.9.758c-.045-.066-.164-.126-.355-.18-.19-.055-.435-.064-.733-.028l-3.299.022a.983.983 0 0 0-.378.038l-.057.028-.046.032a.5.5 0 0 0-.126.116.738.738 0 0 0-.114.191 17.524 17.524 0 0 1-1.226 2.464c-.282.453-.542.846-.779 1.177a5.665 5.665 0 0 1-.595.734c-.16.157-.306.283-.435.378-.13.095-.23.135-.298.12a5.887 5.887 0 0 1-.195-.044.736.736 0 0 1-.258-.268 1.163 1.163 0 0 1-.131-.427 4.416 4.416 0 0 1-.04-.444c-.004-.124-.002-.299.005-.525.008-.227.012-.38.012-.46 0-.277.006-.579.017-.904.011-.324.021-.582.029-.772.007-.19.011-.39.011-.602 0-.211-.013-.378-.04-.498a1.69 1.69 0 0 0-.12-.35.596.596 0 0 0-.235-.263 1.359 1.359 0 0 0-.384-.148C11.725.056 11.21.009 10.584 0 9.164-.013 8.25.075 7.846.265c-.16.08-.306.19-.435.328-.138.16-.157.249-.057.263.458.065.782.223.973.47l.069.132c.053.095.107.263.16.504.054.24.088.507.103.8.039.532.039.988 0 1.368-.038.38-.074.675-.108.887a1.718 1.718 0 0 1-.155.514 2.125 2.125 0 0 1-.137.242.198.198 0 0 1-.058.054.895.895 0 0 1-.309.055c-.107 0-.237-.051-.39-.154a2.667 2.667 0 0 1-.475-.421 5.615 5.615 0 0 1-.555-.75c-.207-.321-.42-.701-.642-1.139L5.647 3.1a26.39 26.39 0 0 1-.47-.892c-.198-.39-.374-.768-.526-1.133a.73.73 0 0 0-.275-.35L4.318.69a.791.791 0 0 0-.183-.093 1.278 1.278 0 0 0-.263-.07L.733.547c-.32 0-.538.07-.653.21L.035.822A.34.34 0 0 0 0 .998c0 .08.023.179.069.296.458 1.03.956 2.022 1.495 2.978a33.216 33.216 0 0 0 1.403 2.31c.397.585.802 1.136 1.214 1.654.413.519.685.85.819.997.134.146.239.255.315.328l.286.263c.183.175.453.385.808.63.355.245.748.485 1.18.722.431.238.933.431 1.506.581.573.15 1.13.21 1.672.18h1.317c.268-.021.47-.101.607-.24l.046-.055a.727.727 0 0 0 .086-.202c.027-.091.04-.192.04-.301a3.45 3.45 0 0 1 .075-.849c.057-.252.122-.442.195-.57a1.404 1.404 0 0 1 .44-.481.947.947 0 0 1 .092-.039c.183-.058.4-.002.647.17.249.172.482.383.7.635.217.252.478.535.784.849.305.314.572.547.802.7l.229.132c.152.088.35.168.595.241.245.073.459.091.642.055l2.932-.044c.29 0 .516-.046.676-.137.16-.09.256-.192.286-.301a.813.813 0 0 0 .006-.372 1.318 1.318 0 0 0-.08-.29 1.467 1.467 0 0 0-.075-.137c-.382-.657-1.11-1.464-2.188-2.42l-.022-.022-.012-.011-.011-.01h-.012c-.489-.446-.798-.745-.927-.899-.237-.292-.29-.587-.16-.887.09-.227.434-.705 1.03-1.435Z" fill="#fff"/></svg><svg viewBox="0 0 22 22" fill="none" id="socials_whatsapp"><path fill-rule="evenodd" clip-rule="evenodd" d="M13.626 12.286c-.416.17-.682.822-.952 1.155-.138.17-.303.197-.516.112-1.563-.623-2.76-1.666-3.623-3.104-.146-.223-.12-.399.056-.606.26-.307.588-.655.659-1.069.156-.914-1.04-3.75-2.618-2.465-4.543 3.701 7.578 13.52 9.765 8.21.62-1.506-2.08-2.516-2.77-2.233ZM11 20.078a9.07 9.07 0 0 1-4.571-1.235.967.967 0 0 0-.74-.098l-3.007.826 1.048-2.308a.96.96 0 0 0-.096-.959A9.012 9.012 0 0 1 1.921 11c0-5.006 4.073-9.079 9.08-9.079 5.005 0 9.077 4.073 9.077 9.079S16.006 20.078 11 20.078ZM11 0C4.935 0 0 4.935 0 11c0 2.134.606 4.183 1.757 5.962l-1.67 3.68A.961.961 0 0 0 .96 22c.62 0 3.998-1.062 4.858-1.298C7.409 21.552 9.19 22 11 22c6.065 0 11-4.935 11-11S17.065 0 11 0Z" fill="#fff"/></svg></svg>