<svg xmlns="http://www.w3.org/2000/svg"><style>:root svg:not(:target){display:none}</style><svg viewBox="0 0 196 48" id="logo" style="fill:var(--logo-text-color, #00604b)" xmlns="http://www.w3.org/2000/svg"><path d="M2.986 7.906V32.86H0V7.906h2.986Zm13.357 0L5.694 19.602l11.172 13.263h-3.687L2.074 19.675 12.651 7.912h3.692v-.006ZM25.422 23.446l-.284.643-3.653 8.767h-3.337l11.422-26.2 11.422 26.2h-3.337l-3.586-8.558-.284-.71-4.215-10.055-4.148 9.913Zm-1.23-.93h10.894l1.057 2.854H23.142l1.05-2.855ZM62.871 32.86h-2.986V10.755H48.992v13.546c0 1.523-.228 2.934-.684 4.243-.456 1.309-1.135 2.352-2.04 3.137-.902.784-2.02 1.179-3.354 1.179v-2.601c.54 0 1.006-.164 1.407-.497.4-.332.74-.8 1.018-1.41.283-.604.489-1.315.633-2.121.14-.807.212-1.687.212-2.64V7.905H62.87V32.86ZM66.547 34.103l.178-4.632 21.43-22.815-.177 4.638-21.431 22.81Zm2.986-3.92-2.986 3.92v-26.2h2.986v22.28Zm18.623 2.673H85.17V10.577l2.986-3.92v26.2ZM94.924 10.755V32.86h-2.987V7.906h19.502V32.86h-2.986V10.755h-13.53ZM118.329 25.474c.856 1.473 1.974 2.63 3.353 3.459a8.58 8.58 0 0 0 4.499 1.246c1.173 0 2.241-.152 3.214-.462a9.716 9.716 0 0 0 2.652-1.303 9.23 9.23 0 0 0 2.036-1.941v3.994c-1.029.925-2.158 1.62-3.376 2.065-1.218.451-2.73.677-4.532.677-1.712 0-3.308-.316-4.793-.942a11.98 11.98 0 0 1-3.92-2.674c-1.124-1.151-2.002-2.51-2.636-4.085-.634-1.568-.951-3.278-.951-5.134 0-1.856.317-3.566.951-5.134.634-1.568 1.512-2.928 2.636-4.085a11.929 11.929 0 0 1 3.92-2.674c1.485-.632 3.086-.942 4.793-.942 1.802 0 3.314.226 4.532.677 1.218.451 2.341 1.14 3.376 2.065v3.994a9.103 9.103 0 0 0-2.036-1.94 9.716 9.716 0 0 0-2.652-1.304c-.973-.31-2.046-.462-3.214-.462a8.596 8.596 0 0 0-4.499 1.246c-1.384.835-2.502 1.98-3.353 3.442-.856 1.461-1.284 3.165-1.284 5.117 0 1.924.428 3.628 1.284 5.1ZM137.804 15.299a12.247 12.247 0 0 1 2.619-4.062 12.22 12.22 0 0 1 3.97-2.708c1.524-.655 3.175-.982 4.955-.982 1.801 0 3.458.327 4.971.982a12.292 12.292 0 0 1 3.954 2.708 12.278 12.278 0 0 1 2.619 4.062c.622 1.557.928 3.25.928 5.077 0 1.806-.311 3.492-.928 5.06-.623 1.57-1.496 2.929-2.619 4.08a12.293 12.293 0 0 1-3.954 2.708c-1.513.654-3.17.982-4.971.982-1.78 0-3.431-.328-4.955-.982a12.222 12.222 0 0 1-3.97-2.708c-1.124-1.151-1.997-2.51-2.619-4.08-.623-1.567-.929-3.254-.929-5.06 0-1.828.311-3.52.929-5.077Zm3.447 10.104c.807 1.473 1.913 2.64 3.32 3.492 1.407.858 2.997 1.28 4.777 1.28 1.801 0 3.403-.428 4.793-1.28a9.207 9.207 0 0 0 3.303-3.492c.806-1.473 1.212-3.148 1.212-5.027s-.406-3.554-1.212-5.027c-.806-1.472-1.907-2.64-3.303-3.492-1.396-.857-2.992-1.28-4.793-1.28-1.78 0-3.376.428-4.777 1.28a9.175 9.175 0 0 0-3.32 3.492c-.806 1.473-1.212 3.148-1.212 5.027s.4 3.554 1.212 5.027Z"/><path d="M185.298 36.818c4.288-6.42 12.328-29.444-17.86-36.818a22.19 22.19 0 0 1 3.886 3.176c2.058 2.11 3.654 4.587 4.788 7.436 1.135 2.85 1.702 5.946 1.702 9.292 0 3.306-.567 6.392-1.702 9.264-1.134 2.871-2.73 5.36-4.788 7.47-1.006 1.032-2.802 2.448-3.275 2.77 10.888-4.999 16.388-8.31 17.249-2.59Z" fill="#ea0029"/><path d="M153.906 47.93c13.123-11.661 22.588.497 42.061-14.313-5.588 7.357-10.231 8.655-12.528 14.387-11.416-1.817-18.873-3.329-29.533-.074Z"/></svg></svg>