<svg width="218" height="42" fill="none" xmlns="http://www.w3.org/2000/svg"><path d="M57.131.074c0 .048-.988.068-2.829.068h-2.83v31.936h5.796V16.042c0-10.645-.02-16.036-.069-16.036a.068.068 0 0 0-.068.068ZM67.565.074c0 .048-.989.068-2.83.068h-2.829v31.936h5.795V16.042c0-10.645-.02-16.036-.068-16.036a.068.068 0 0 0-.068.068ZM74.585.205c0 .034-.136.068-.306.068-.17 0-.307.027-.307.068 0 .034-.062.068-.137.068-.075 0-.136.028-.136.069 0 .034-.075.068-.17.068-.096 0-.17.027-.17.068 0 .034-.049.068-.11.068-.123 0-.3.157-.3.266 0 .041-.061.075-.136.075-.164 0-.478.287-.478.444 0 .055-.027.102-.068.102-.034 0-.068.048-.068.103 0 .054-.027.102-.068.102-.034 0-.068.062-.068.137 0 .075-.028.136-.068.136-.035 0-.069.061-.069.137 0 .075-.047.136-.102.136-.061 0-.102.061-.102.17 0 .096-.027.171-.068.171-.034 0-.068.123-.068.273 0 .15-.028.273-.069.273-.04 0-.068.273-.068.683 0 .409.028.682.068.682.041 0 .069.136.069.307 0 .17.034.307.068.307.04 0 .068.061.068.137 0 .075.048.136.102.136.061 0 .103.061.103.17 0 .096.033.171.068.171.04 0 .068.048.068.11 0 .06.095.197.204.3.116.102.205.211.205.239 0 .054.184.238.239.238.027 0 .136.09.238.205.102.11.239.205.3.205s.11.048.11.102c0 .062.06.103.17.103.095 0 .17.027.17.068 0 .034.061.068.136.068.075 0 .137.027.137.068 0 .034.17.068.375.068.204 0 .375.028.375.069 0 .04.252.068.613.068.362 0 .614-.027.614-.068 0-.041.123-.069.273-.069.15 0 .272-.034.272-.068 0-.04.11-.068.239-.068.13 0 .239-.034.239-.068 0-.041.06-.069.136-.069.075 0 .136-.034.136-.075 0-.109.177-.266.307-.266.116 0 .58-.43.58-.546 0-.034.047-.068.102-.068.054 0 .102-.054.102-.123 0-.068.061-.163.136-.218a.362.362 0 0 0 .137-.253c0-.088.034-.156.068-.156.04 0 .068-.062.068-.137 0-.075.034-.136.068-.136.041 0 .069-.137.069-.308 0-.225.027-.307.102-.307.088 0 .102-.143.102-.887s-.014-.887-.102-.887c-.069 0-.103-.068-.103-.205 0-.116-.027-.204-.068-.204-.034 0-.068-.075-.068-.17 0-.096-.027-.171-.068-.171-.034 0-.068-.062-.068-.137 0-.075-.028-.136-.068-.136-.035 0-.069-.062-.069-.144 0-.13-.143-.334-.238-.334-.055 0-.511-.457-.511-.512 0-.095-.205-.239-.335-.239-.081 0-.143-.034-.143-.068 0-.04-.061-.068-.136-.068-.075 0-.136-.034-.136-.068 0-.041-.062-.069-.137-.069-.075 0-.136-.034-.136-.068 0-.04-.136-.068-.307-.068-.17 0-.307-.034-.307-.068 0-.041-.293-.069-.75-.069-.456 0-.75.028-.75.069ZM152.581.205c0 .034-.136.068-.307.068-.17 0-.307.027-.307.068 0 .034-.088.068-.204.068-.109 0-.205.028-.205.069 0 .034-.075.068-.17.068-.095 0-.17.027-.17.068 0 .034-.048.068-.11.068-.102 0-.3.157-.3.24 0 .054-.184.238-.238.238-.096 0-.511.484-.511.594 0 .068-.062.17-.137.225-.075.054-.136.15-.136.218s-.048.123-.102.123c-.069 0-.103.075-.103.239 0 .13-.027.239-.068.239-.034 0-.068.17-.068.375s-.027.375-.068.375c-.034 0-.068.17-.068.376 0 .204.034.375.068.375.041 0 .068.17.068.375s.034.376.068.376c.041 0 .068.088.068.204 0 .137.034.205.103.205.061 0 .102.061.102.157 0 .082.061.198.136.252.075.055.137.144.137.205 0 .062.061.15.136.205.075.054.136.123.136.157 0 .075.178.252.252.252.035 0 .103.062.157.137.055.075.137.136.191.136.109 0 .287.164.287.266 0 .041.075.075.17.075.095 0 .17.028.17.069 0 .034.096.068.205.068.116 0 .204.027.204.068 0 .034.137.068.307.068.171 0 .307.028.307.069 0 .04.273.068.682.068.409 0 .682-.027.682-.068 0-.041.136-.069.306-.069.171 0 .307-.034.307-.068 0-.04.062-.068.137-.068.075 0 .136-.034.136-.068 0-.041.061-.069.136-.069.075 0 .137-.047.137-.102 0-.054.047-.102.102-.102.054 0 .102-.034.102-.068 0-.041.048-.069.102-.069.116 0 .58-.436.58-.546 0-.034.034-.068.075-.068.102 0 .266-.177.266-.286 0-.055.061-.137.136-.192.089-.06.136-.177.136-.32 0-.123.035-.225.069-.225.041 0 .068-.062.068-.137 0-.075.048-.136.102-.136.082 0 .102-.096.102-.444 0-.252.028-.444.069-.444.04 0 .068-.109.068-.238 0-.13-.028-.24-.068-.24-.041 0-.069-.19-.069-.443 0-.348-.02-.443-.102-.443-.068 0-.102-.075-.102-.24 0-.129-.027-.238-.068-.238-.034 0-.069-.055-.069-.123s-.061-.164-.136-.218c-.075-.055-.136-.157-.136-.225 0-.123-.15-.321-.239-.321-.02 0-.143-.11-.273-.239-.129-.13-.238-.252-.238-.273 0-.095-.205-.239-.334-.239-.082 0-.143-.034-.143-.068 0-.04-.062-.068-.137-.068-.075 0-.136-.034-.136-.068 0-.041-.061-.069-.136-.069-.075 0-.137-.034-.137-.068 0-.04-.136-.068-.307-.068-.17 0-.306-.034-.306-.068 0-.041-.273-.069-.682-.069-.409 0-.682.028-.682.069ZM199.896 4.813c0 .082-.096.103-.444.103-.252 0-.443.027-.443.068 0 .04-.204.068-.477.068s-.477.027-.477.068c0 .034-.123.069-.273.069-.15 0-.273.027-.273.068 0 .034-.136.068-.306.068-.171 0-.307.027-.307.068 0 .034-.109.069-.239.069-.129 0-.238.027-.238.068 0 .034-.062.068-.137.068-.075 0-.136.048-.136.102 0 .069-.075.103-.239.103-.129 0-.238.027-.238.068 0 .034-.089.068-.205.068-.109 0-.204.027-.204.068 0 .035-.075.069-.171.069-.095 0-.17.027-.17.068 0 .034-.062.068-.137.068-.075 0-.136.027-.136.068 0 .034-.061.069-.136.069-.075 0-.137.047-.137.102 0 .061-.061.102-.17.102-.096 0-.171.028-.171.069 0 .034-.054.068-.122.068-.069 0-.164.061-.219.136a.36.36 0 0 1-.252.137c-.088 0-.157.027-.157.068 0 .034-.061.068-.136.068-.075 0-.136.034-.136.075 0 .116-.184.266-.321.266-.068 0-.17.062-.225.137-.054.075-.136.136-.191.136-.102 0-.422.307-.422.41 0 .034-.062.068-.143.068-.075 0-.26.123-.403.273-.143.15-.293.273-.334.273-.041 0-.075.034-.075.068 0 .096-.586.683-.682.683-.034 0-.068.034-.068.068 0 .095-.722.819-.818.819-.034 0-.068.047-.068.102 0 .055-.027.102-.068.102-.034 0-.068.048-.068.11 0 .061-.089.197-.205.3-.109.102-.204.252-.204.334 0 .082-.034.144-.075.144-.109 0-.266.177-.266.3 0 .061-.028.109-.068.109-.035 0-.069.048-.069.102 0 .055-.027.103-.068.103-.034 0-.068.048-.068.109 0 .123-.157.3-.266.3-.041 0-.075.062-.075.137 0 .075-.027.136-.068.136-.034 0-.068.075-.068.17 0 .096-.027.171-.068.171-.034 0-.069.062-.069.137 0 .075-.027.136-.068.136-.034 0-.068.075-.068.17 0 .096-.027.171-.068.171-.034 0-.068.062-.068.137 0 .075-.028.136-.068.136-.035 0-.069.062-.069.137 0 .075-.047.136-.102.136-.068 0-.102.075-.102.24 0 .129-.027.238-.068.238-.034 0-.069.061-.069.136 0 .076-.027.137-.068.137-.034 0-.068.11-.068.239 0 .13-.027.239-.068.239-.034 0-.068.088-.068.204 0 .11-.027.205-.068.205-.034 0-.069.11-.069.239 0 .164-.034.239-.102.239-.075 0-.102.082-.102.307 0 .17-.027.307-.068.307-.034 0-.068.17-.068.375s-.028.376-.069.376c-.041 0-.068.19-.068.443s-.027.444-.068.444c-.041 0-.068.764-.068 2.15 0 1.384.027 2.149.068 2.149.041 0 .068.19.068.443s.027.444.068.444c.041 0 .069.17.069.375s.034.375.068.375c.041 0 .068.137.068.308 0 .225.027.307.102.307.068 0 .102.075.102.239 0 .13.035.238.069.238.041 0 .068.089.068.205 0 .11.034.205.068.205.041 0 .068.109.068.239s.034.238.068.238c.041 0 .068.062.068.137 0 .075.035.136.069.136.041 0 .068.11.068.24 0 .163.034.238.102.238.055 0 .102.062.102.137 0 .075.034.136.069.136.04 0 .068.061.068.136 0 .076.034.137.068.137.041 0 .068.075.068.17 0 .096.034.171.068.171.041 0 .068.062.068.137 0 .075.035.136.069.136.041 0 .068.075.068.17 0 .096.034.171.068.171.041 0 .068.062.068.137 0 .075.034.136.075.136.116 0 .266.184.266.321 0 .068.061.17.136.225.075.055.137.137.137.191 0 .11.163.287.266.287.041 0 .075.061.075.143 0 .075.122.26.272.403.15.143.273.327.273.402 0 .082.034.144.068.144.075 0 .682.58.682.648 0 .055.184.239.239.239.068 0 .647.607.647.682 0 .034.034.068.075.068.041 0 .164.09.266.205.102.11.239.205.3.205s.109.027.109.068c0 .034.048.068.102.068.055 0 .103.035.103.069 0 .102.32.409.422.409.055 0 .137.062.191.137a.364.364 0 0 0 .253.136c.088 0 .156.034.156.075 0 .11.178.266.3.266.062 0 .109.027.109.068 0 .035.069.069.157.069a.36.36 0 0 1 .252.136c.055.075.15.137.219.137.068 0 .122.027.122.068 0 .034.075.068.171.068.109 0 .17.041.17.102 0 .055.062.103.137.103.075 0 .136.027.136.068 0 .034.061.068.136.068.075 0 .137.028.137.069 0 .034.075.068.17.068.096 0 .171.027.171.068 0 .034.095.068.204.068.116 0 .205.028.205.069 0 .034.075.068.17.068.109 0 .17.04.17.102 0 .068.069.102.205.102.116 0 .205.028.205.069 0 .034.102.068.231.068.13 0 .246.04.259.082.041.116.259-.102.259-.253 0-.13.157-.307.266-.307.041 0 .075-.054.075-.123 0-.068.062-.163.137-.218a.348.348 0 0 0 .136-.239c0-.075.061-.184.136-.239.075-.054.137-.15.137-.218s.048-.123.102-.123c.075 0 .102-.082.102-.307 0-.225-.027-.307-.102-.307-.068 0-.102-.075-.102-.239 0-.13-.027-.239-.068-.239-.034 0-.069-.095-.069-.204 0-.116-.027-.205-.068-.205-.034 0-.068-.11-.068-.239 0-.13-.027-.239-.068-.239-.034 0-.068-.095-.068-.205 0-.116-.028-.204-.068-.204-.035 0-.069-.137-.069-.307 0-.226-.027-.307-.102-.307-.068 0-.102-.075-.102-.24 0-.129-.027-.238-.068-.238-.034 0-.069-.123-.069-.273 0-.15-.027-.273-.068-.273-.034 0-.068-.136-.068-.307 0-.17-.027-.307-.068-.307-.034 0-.068-.11-.068-.239 0-.13-.027-.239-.068-.239-.034 0-.069-.123-.069-.273 0-.15-.027-.273-.068-.273-.034 0-.068-.17-.068-.375 0-.287-.02-.375-.102-.375-.075 0-.102-.082-.102-.307 0-.171-.028-.308-.069-.308-.041 0-.068-.19-.068-.443s-.027-.444-.068-.444c-.041 0-.068-.75-.068-2.115 0-1.365.027-2.115.068-2.115.041 0 .068-.192.068-.444s.027-.444.068-.444c.041 0 .069-.17.069-.375 0-.286.02-.375.102-.375.068 0 .102-.068.102-.205 0-.116.034-.205.068-.205.041 0 .068-.136.068-.307 0-.17.035-.307.069-.307.041 0 .068-.095.068-.204 0-.117.034-.205.068-.205.041 0 .068-.11.068-.239 0-.13.034-.239.068-.239.041 0 .068-.061.068-.136 0-.075.035-.137.069-.137.041 0 .068-.109.068-.239 0-.163.034-.239.102-.239.055 0 .102-.06.102-.136 0-.075.034-.136.069-.136.04 0 .068-.076.068-.171 0-.096.034-.17.068-.17.041 0 .068-.062.068-.137 0-.075.034-.137.068-.137.041 0 .068-.061.068-.136 0-.075.035-.136.069-.136.041 0 .068-.076.068-.171 0-.11.041-.17.102-.17.055 0 .102-.055.102-.124 0-.068.062-.163.137-.218a.362.362 0 0 0 .136-.252c0-.09.034-.157.068-.157.041 0 .068-.048.068-.11 0-.122.157-.3.266-.3.041 0 .075-.068.075-.157 0-.082.062-.198.137-.252.075-.055.136-.143.136-.205 0-.061.061-.15.136-.205.075-.054.137-.157.137-.225 0-.123.15-.32.238-.32.089 0 .239-.199.239-.308 0-.061.102-.211.225-.327.136-.13.184-.219.136-.232-.054-.02-.088-.15-.088-.335 0-.163-.028-.3-.069-.3-.034 0-.068-.054-.068-.123 0-.068-.061-.164-.136-.218a.362.362 0 0 1-.136-.252c0-.117-.041-.158-.157-.158a.36.36 0 0 1-.252-.136c-.055-.082-.178-.136-.287-.136-.102 0-.191-.035-.191-.069 0-.04-.136-.068-.307-.068-.225 0-.306-.027-.306-.102 0-.089-.287-.103-2.182-.103-1.411 0-2.182-.027-2.182-.068 0-.04.075-.068.171-.068.095 0 .17-.034.17-.068 0-.041.096-.069.205-.069.116 0 .204-.034.204-.068 0-.04.075-.068.171-.068.095 0 .17-.034.17-.068 0-.041.096-.069.205-.069.136 0 .204-.034.204-.102 0-.068.075-.102.239-.102.129 0 .238-.034.238-.069 0-.04.096-.068.205-.068.116 0 .205-.034.205-.068 0-.04.075-.068.17-.068.095 0 .17-.034.17-.069 0-.04.096-.068.205-.068.116 0 .204-.034.204-.068 0-.04.11-.068.239-.068.13 0 .239-.034.239-.068 0-.041.061-.069.136-.069.075 0 .136-.047.136-.102 0-.068.075-.102.239-.102.13 0 .239-.034.239-.069 0-.04.061-.068.136-.068.075 0 .136-.034.136-.068 0-.041.062-.068.137-.068.15 0 .477-.28.477-.41 0-.034.055-.068.123-.068s.163-.061.218-.136c.054-.076.136-.137.184-.137.048 0 .089-.034.089-.068 0-.041.061-.068.136-.068.075 0 .136-.035.136-.069 0-.04.062-.068.137-.068.075 0 .136-.048.136-.102 0-.062.061-.103.17-.103.096 0 .171-.034.171-.068 0-.04.061-.068.136-.068.075 0 .137-.034.137-.068 0-.041.075-.069.17-.069.095 0 .17-.034.17-.068 0-.04.123-.068.273-.068.15 0 .273-.034.273-.068 0-.041.17-.069.375-.069.204 0 .375-.034.375-.068 0-.04.273-.068.682-.068.409 0 .681.027.681.068 0 .041.191.068.443.068.253 0 .444.028.444.069 0 .034.136.068.306.068.171 0 .307.027.307.068 0 .034.096.068.205.068.116 0 .204.028.204.069 0 .034.109.068.239.068.129 0 .239.027.239.068 0 .034.061.068.136.068.075 0 .136.048.136.103 0 .068.075.102.239.102.129 0 .238.027.238.068 0 .034.062.069.137.069.088 0 .136.047.136.136 0 .089-.048.137-.136.137-.075 0-.137-.035-.137-.069 0-.04-.075-.068-.17-.068-.095 0-.17.027-.17.068 0 .034-.15.069-.341.069-.184 0-.341.027-.341.068 0 .034-.075.068-.171.068-.095 0-.17.034-.17.075 0 .041-.089.164-.205.266-.109.103-.204.239-.204.3 0 .062-.048.11-.102.11-.089 0-.103.198-.103 1.364 0 .867-.027 1.365-.068 1.365-.041 0-.068.32-.068.82 0 .497.027.818.068.818.041 0 .068.218.068.512 0 .41.021.511.103.511.075 0 .102.082.102.308 0 .17.034.307.068.307.041 0 .068.136.068.307 0 .17.034.307.068.307.041 0 .069.123.069.273 0 .15.034.273.068.273.041 0 .068.109.068.239s.034.238.068.238c.041 0 .068.137.068.308 0 .225.028.307.103.307s.102.075.102.272c0 .15.034.274.068.274.041 0 .068.17.068.375 0 .204.034.375.068.375.041 0 .069.567.069 1.57 0 1.003-.028 1.57-.069 1.57-.041 0-.068.19-.068.443 0 .252-.027.443-.068.443-.041 0-.068.205-.068.478 0 .382-.021.478-.102.478-.075 0-.103.082-.103.34 0 .185-.027.342-.068.342-.034 0-.068.137-.068.307 0 .17-.027.307-.068.307-.034 0-.068.137-.068.307 0 .17-.028.307-.069.307-.034 0-.068.137-.068.307 0 .171-.027.307-.068.307-.034 0-.068.09-.068.205 0 .137-.034.205-.102.205-.069 0-.103.075-.103.239 0 .13-.027.238-.068.238-.034 0-.068.09-.068.205 0 .11-.027.205-.068.205-.034 0-.068.11-.068.239 0 .13-.028.239-.069.239-.034 0-.068.109-.068.239s-.027.238-.068.238c-.034 0-.068.089-.068.205 0 .136-.034.205-.102.205-.062 0-.103.061-.103.17 0 .096-.027.171-.068.171-.034 0-.068.089-.068.205 0 .109-.027.204-.068.204-.034 0-.068.11-.068.24 0 .129-.028.238-.068.238-.035 0-.069.061-.069.137 0 .075-.027.136-.068.136-.034 0-.068.11-.068.239 0 .13-.027.239-.068.239-.034 0-.068.061-.068.136 0 .075-.048.137-.103.137-.054 0-.102.061-.102.136 0 .075-.027.137-.068.137-.034 0-.068.109-.068.238 0 .13-.028.24-.068.24-.035 0-.069.06-.069.136 0 .075-.027.136-.068.136-.034 0-.068.075-.068.17 0 .096-.027.171-.068.171-.034 0-.068.09-.068.205 0 .137-.034.205-.103.205-.061 0-.102.061-.102.17 0 .096-.027.171-.068.171-.034 0-.068.062-.068.137 0 .075-.027.136-.068.136-.034 0-.069.062-.069.137 0 .075-.027.136-.068.136-.034 0-.068.096-.068.212 0 .184-.129.402-.239.402-.109 0-.238-.218-.238-.402 0-.117-.027-.212-.068-.212-.034 0-.068-.061-.068-.136 0-.075-.028-.137-.069-.137-.034 0-.068-.11-.068-.239 0-.13-.027-.239-.068-.239-.034 0-.068-.061-.068-.136 0-.075-.027-.137-.068-.137-.034 0-.069-.109-.069-.238 0-.164-.034-.24-.102-.24-.068 0-.102-.067-.102-.204 0-.116-.027-.205-.068-.205-.034 0-.068-.061-.068-.136 0-.075-.028-.137-.069-.137-.034 0-.068-.136-.068-.307 0-.17-.027-.307-.068-.307-.034 0-.068-.075-.068-.17 0-.096-.027-.171-.068-.171-.034 0-.068-.123-.068-.273 0-.198-.028-.273-.103-.273s-.102-.082-.102-.307c0-.17-.027-.307-.068-.307-.034 0-.068-.11-.068-.239 0-.13-.028-.239-.069-.239-.034 0-.068-.17-.068-.375s-.027-.375-.068-.375c-.034 0-.068-.171-.068-.376 0-.204-.027-.375-.068-.375-.041 0-.068-.191-.068-.444 0-.348-.021-.443-.103-.443-.088 0-.102-.32-.102-2.457 0-2.136.014-2.456.102-2.456.082 0 .103-.096.103-.444 0-.252.027-.444.068-.444.041 0 .068-.136.068-.306 0-.171.034-.308.068-.308.041 0 .068-.136.068-.307 0-.17.034-.307.068-.307.041 0 .069-.095.069-.204 0-.116.034-.205.068-.205.041 0 .068-.11.068-.239 0-.164.034-.239.102-.239.055 0 .103-.061.103-.136 0-.075.034-.137.068-.137.041 0 .068-.061.068-.136 0-.075.034-.137.068-.137.041 0 .068-.075.068-.17 0-.096.034-.171.068-.171.041 0 .069-.061.069-.137 0-.075.034-.136.068-.136.041 0 .068-.075.068-.17 0-.11.041-.171.102-.171.055 0 .102-.062.102-.137 0-.109-.047-.136-.238-.136-.13 0-.239-.034-.239-.068 0-.103-.545-.082-.654.027a.35.35 0 0 0-.096.205c0 .061-.027.109-.068.109-.034 0-.068.075-.068.17 0 .096-.027.171-.068.171-.034 0-.068.061-.068.136 0 .076-.048.137-.103.137-.061 0-.102.061-.102.17 0 .096-.027.171-.068.171-.034 0-.068.062-.068.137 0 .075-.028.136-.068.136-.035 0-.069.11-.069.239 0 .13-.027.239-.068.239-.034 0-.068.088-.068.205 0 .109-.027.204-.068.204-.034 0-.068.11-.068.24 0 .129-.028.238-.069.238-.034 0-.068.123-.068.273 0 .198-.027.273-.102.273-.082 0-.102.095-.102.478 0 .273-.028.477-.068.477-.041 0-.069.239-.069.58 0 .341-.027.58-.068.58-.041 0-.068.567-.068 1.57 0 1.003.027 1.57.068 1.57.041 0 .068.252.068.613 0 .362.028.615.069.615.04 0 .068.218.068.511 0 .41.02.512.102.512.082 0 .102.089.102.376 0 .204.034.375.068.375.041 0 .069.136.069.307 0 .17.034.307.068.307.041 0 .068.123.068.273 0 .15.034.273.068.273.041 0 .068.11.068.239 0 .13.034.239.069.239.04 0 .068.088.068.204 0 .11.034.205.068.205.041 0 .068.136.068.307 0 .225.027.307.102.307.062 0 .103.062.103.17 0 .096.034.171.068.171.041 0 .068.089.068.205 0 .11.034.205.068.205.041 0 .068.109.068.239s.034.238.068.238c.041 0 .069.062.069.137 0 .075.034.136.068.136.041 0 .068.11.068.24 0 .163.034.238.102.238.055 0 .103.062.103.137 0 .075-.048.136-.103.136-.054 0-.102.062-.102.137 0 .075-.027.136-.068.136-.034 0-.068.068-.068.157a.363.363 0 0 1-.137.252c-.075.055-.136.15-.136.219 0 .068-.027.123-.068.123-.034 0-.068.075-.068.17 0 .096-.035.17-.075.17-.11 0-.266.178-.266.301 0 .061-.028.11-.068.11-.035 0-.069.067-.069.156a.362.362 0 0 1-.136.253c-.075.054-.136.15-.136.218s-.028.123-.069.123c-.034 0-.068.075-.068.17 0 .164.014.171.512.171.293 0 .511.027.511.068 0 .041.566.069 1.568.069 1.002 0 1.568-.028 1.568-.069 0-.04.239-.068.58-.068.47 0 .579-.02.579-.102 0-.082.089-.103.375-.103.205 0 .375-.034.375-.068 0-.04.136-.068.307-.068.17 0 .307-.034.307-.068 0-.041.109-.069.238-.069.13 0 .239-.034.239-.068 0-.04.123-.068.273-.068.149 0 .272-.034.272-.068 0-.041.075-.069.171-.069.109 0 .17-.04.17-.102 0-.068.068-.102.205-.102.116 0 .204-.034.204-.069 0-.04.109-.068.239-.068.129 0 .238-.034.238-.068 0-.04.062-.068.137-.068.075 0 .136-.034.136-.069 0-.04.075-.068.171-.068.095 0 .17-.034.17-.068 0-.04.061-.068.136-.068.075 0 .137-.048.137-.102 0-.055.061-.103.136-.103.075 0 .136-.034.136-.068 0-.041.069-.068.157-.068a.36.36 0 0 0 .252-.137c.055-.075.15-.136.219-.136.068 0 .122-.035.122-.069 0-.04.062-.068.144-.068.149 0 .334-.15.334-.266 0-.04.054-.075.122-.075s.164-.061.218-.136c.055-.075.157-.137.225-.137.13 0 .457-.287.457-.41 0-.033.062-.068.137-.068.075 0 .136-.034.136-.068 0-.04.034-.068.068-.068.075 0 .546-.444.546-.512 0-.054.184-.239.238-.239.068 0 .648-.607.648-.682 0-.034.034-.068.068-.068.095 0 .682-.587.682-.683 0-.034.047-.068.102-.068.055 0 .102-.048.102-.11 0-.06.096-.197.205-.3.116-.102.204-.245.204-.32 0-.068.062-.17.137-.225.075-.055.136-.15.136-.219 0-.068.034-.123.075-.123.116 0 .266-.184.266-.32 0-.069.061-.17.136-.226.075-.054.137-.15.137-.218s.034-.123.068-.123c.041 0 .068-.075.068-.17 0-.11.041-.17.102-.17.055 0 .103-.062.103-.137 0-.075.034-.137.068-.137.041 0 .068-.075.068-.17 0-.096.034-.171.068-.171.041 0 .068-.061.068-.137 0-.075.034-.136.068-.136.041 0 .069-.061.069-.137 0-.075.034-.136.068-.136.041 0 .068-.11.068-.239 0-.164.034-.239.102-.239.055 0 .102-.061.102-.136 0-.075.035-.137.069-.137.041 0 .068-.109.068-.238 0-.13.034-.24.068-.24.041 0 .068-.095.068-.204 0-.116.034-.205.068-.205.041 0 .069-.109.069-.238 0-.13.034-.24.068-.24.041 0 .068-.136.068-.306 0-.171.034-.308.068-.308.041 0 .068-.17.068-.375 0-.286.021-.375.102-.375.082 0 .103-.103.103-.512 0-.293.027-.512.068-.512.041 0 .068-.239.068-.58 0-.341.027-.58.068-.58.041 0 .068-.048.068-.102 0-.055-.027-.102-.068-.102-.041 0-.068-.26-.068-.649s.027-.648.068-.648c.041 0 .068-.048.068-.102 0-.055-.027-.103-.068-.103-.041 0-.068-.26-.068-.648 0-.389-.027-.648-.068-.648-.041 0-.068-.191-.068-.444 0-.348-.021-.443-.103-.443-.081 0-.102-.09-.102-.376 0-.204-.027-.375-.068-.375-.034 0-.068-.11-.068-.239 0-.13-.027-.239-.068-.239-.034 0-.068-.136-.068-.307 0-.17-.028-.307-.069-.307-.034 0-.068-.095-.068-.205 0-.116-.027-.204-.068-.204-.034 0-.068-.11-.068-.24 0-.129-.027-.238-.068-.238-.034 0-.069-.096-.069-.205 0-.136-.034-.204-.102-.204-.061 0-.102-.062-.102-.171 0-.096-.027-.17-.068-.17-.034 0-.068-.062-.068-.137 0-.075-.028-.137-.069-.137-.034 0-.068-.061-.068-.136 0-.075-.027-.136-.068-.136-.034 0-.068-.076-.068-.171 0-.096-.027-.17-.068-.17-.034 0-.068-.062-.068-.137 0-.075-.048-.137-.103-.137-.061 0-.102-.061-.102-.17 0-.096-.027-.17-.068-.17-.034 0-.068-.055-.068-.124 0-.068-.062-.164-.137-.218-.075-.055-.136-.15-.136-.219 0-.068-.027-.122-.068-.122-.034 0-.068-.048-.068-.103a.105.105 0 0 0-.103-.102c-.054 0-.102-.055-.102-.123s-.061-.164-.136-.218c-.075-.055-.137-.157-.137-.225 0-.075-.088-.219-.204-.321-.109-.103-.205-.239-.205-.3 0-.062-.047-.11-.102-.11-.055 0-.102-.034-.102-.068 0-.075-.58-.682-.648-.682-.054 0-.239-.184-.239-.239 0-.055-.456-.512-.511-.512-.054 0-.238-.184-.238-.239 0-.088-.478-.511-.58-.511-.109 0-.307-.157-.307-.24 0-.095-.341-.375-.457-.375-.068 0-.17-.061-.225-.136-.054-.075-.136-.137-.19-.137-.11 0-.287-.163-.287-.266 0-.04-.075-.075-.17-.075-.096 0-.171-.034-.171-.068 0-.04-.054-.068-.122-.068-.069 0-.164-.062-.219-.137a.36.36 0 0 0-.252-.136c-.088 0-.157-.034-.157-.068 0-.041-.061-.069-.136-.069-.075 0-.136-.047-.136-.102 0-.055-.062-.102-.137-.102-.075 0-.136-.035-.136-.069 0-.04-.075-.068-.17-.068-.096 0-.171-.034-.171-.068 0-.041-.061-.068-.136-.068-.075 0-.137-.034-.137-.069 0-.04-.109-.068-.238-.068-.13 0-.239-.034-.239-.068 0-.041-.088-.068-.204-.068-.137 0-.205-.034-.205-.103 0-.061-.061-.102-.17-.102-.096 0-.171-.034-.171-.068 0-.041-.123-.069-.272-.069-.15 0-.273-.034-.273-.068 0-.04-.109-.068-.239-.068-.129 0-.238-.034-.238-.068 0-.041-.137-.068-.307-.068-.171 0-.307-.035-.307-.069 0-.04-.191-.068-.443-.068s-.443-.027-.443-.068c0-.041-.191-.068-.443-.068-.348 0-.444-.02-.444-.103 0-.088-.231-.102-1.704-.102-1.473 0-1.704.014-1.704.102Z" fill="#050505"/><path d="M201.395 8.842c0 .062-.062.103-.143.103-.164 0-.334.15-.334.3 0 .061-.028.11-.069.11-.034 0-.068.095-.068.204 0 .15.068.28.239.443.313.321.641.328.92.034.103-.116.225-.204.266-.204.041 0 .075-.11.075-.24 0-.163-.034-.238-.102-.238-.055 0-.102-.048-.102-.11 0-.136-.164-.3-.3-.3a.106.106 0 0 1-.109-.102c0-.054-.062-.102-.137-.102-.075 0-.136.048-.136.102ZM10.158 9.423c0 .041-.19.068-.443.068-.348 0-.443.02-.443.103 0 .075-.082.102-.307.102-.17 0-.307.027-.307.068 0 .034-.136.069-.306.069-.17 0-.307.027-.307.068 0 .034-.089.068-.205.068-.109 0-.204.027-.204.068 0 .034-.075.069-.17.069-.096 0-.171.027-.171.068 0 .034-.089.068-.205.068-.109 0-.204.027-.204.068 0 .034-.075.069-.17.069-.11 0-.171.04-.171.102 0 .055-.061.102-.136.102-.075 0-.137.027-.137.069 0 .034-.061.068-.136.068-.075 0-.136.027-.136.068 0 .034-.075.068-.17.068-.096 0-.171.027-.171.068 0 .035-.048.069-.11.069-.122 0-.3.157-.3.266 0 .04-.068.075-.156.075a.362.362 0 0 0-.252.136c-.055.075-.15.137-.219.137-.068 0-.122.027-.122.068 0 .034-.034.068-.075.068-.075 0-.266.17-.266.24 0 .081-.341.374-.443.374-.055 0-.103.028-.103.069a.073.073 0 0 1-.068.068c-.088 0-.409.307-.409.389 0 .034-.061.102-.136.157-.075.054-.137.15-.137.218 0 .069-.034.123-.075.123-.081 0-.265.17-.265.252 0 .035-.062.103-.137.158-.075.054-.136.136-.136.19 0 .11-.164.287-.266.287-.041 0-.075.068-.075.157a.362.362 0 0 1-.136.253c-.075.054-.137.15-.137.218s-.027.123-.068.123c-.034 0-.068.075-.068.17 0 .096-.027.171-.068.171-.034 0-.068.061-.068.136 0 .075-.028.137-.069.137-.034 0-.068.061-.068.136 0 .075-.048.137-.102.137-.061 0-.102.061-.102.17 0 .096-.028.171-.069.171-.034 0-.068.061-.068.137 0 .075-.027.136-.068.136-.034 0-.068.11-.068.239 0 .13-.027.239-.068.239-.034 0-.068.088-.068.204 0 .11-.028.205-.069.205-.034 0-.068.137-.068.307 0 .225-.027.307-.102.307-.082 0-.102.089-.102.376 0 .204-.028.375-.068.375-.041 0-.069.191-.069.444 0 .252-.027.443-.068.443-.04 0-.068.444-.068 1.194s.027 1.194.068 1.194c.041 0 .068.191.068.444s.028.444.069.444c.04 0 .068.19.068.443 0 .348.02.444.102.444.068 0 .102.075.102.239 0 .13.034.238.068.238.041 0 .069.089.069.205 0 .11.034.205.068.205.04 0 .068.109.068.239s.034.238.068.238c.041 0 .068.11.068.24 0 .129.034.238.068.238.041 0 .069.061.069.137 0 .075.047.136.102.136.054 0 .102.061.102.137 0 .075.034.136.068.136.041 0 .069.075.069.17 0 .096.034.171.068.171.04 0 .068.055.068.123s.061.164.136.218c.075.055.137.157.137.226 0 .136.15.32.265.32.041 0 .075.055.075.123s.062.164.137.218c.075.055.136.137.136.185 0 .048.034.088.068.088.041 0 .069.048.069.11 0 .102.156.3.238.3.055 0 .239.184.239.239 0 .054.457.512.511.512.055 0 .239.184.239.238 0 .082.34.376.443.376.054 0 .102.027.102.068 0 .034.041.068.089.068.047 0 .13.062.184.137.054.075.15.136.218.136s.123.034.123.075c0 .116.184.266.32.266.068 0 .17.062.225.137.055.075.15.136.218.136s.123.028.123.069c0 .034.075.068.17.068.11 0 .17.04.17.102 0 .055.062.103.137.103.075 0 .137.027.137.068 0 .034.061.068.136.068.075 0 .136.027.136.068 0 .034.11.069.239.069.13 0 .239.027.239.068 0 .034.06.068.136.068.075 0 .136.027.136.068 0 .034.137.068.307.068.225 0 .307.028.307.103s.082.102.307.102c.17 0 .306.027.306.068 0 .035.137.069.307.069.17 0 .307.027.307.068 0 .04.26.068.648.068s.647.027.647.068c0 .041.355.069.92.069.567 0 .921-.028.921-.069 0-.04.26-.068.648-.068s.648-.027.648-.068c0-.041.136-.068.306-.068.17 0 .307-.035.307-.069 0-.04.136-.068.307-.068.225 0 .307-.027.307-.102 0-.069.068-.103.204-.103.116 0 .205-.034.205-.068 0-.04.075-.068.17-.068.096 0 .17-.034.17-.068 0-.041.096-.069.205-.069.116 0 .205-.034.205-.068 0-.04.075-.068.17-.068.095 0 .17-.034.17-.068 0-.041.062-.069.137-.069.075 0 .136-.047.136-.102 0-.054.062-.102.137-.102.075 0 .136-.034.136-.068 0-.041.068-.069.157-.069a.361.361 0 0 0 .252-.136c.055-.075.15-.137.218-.137s.123-.034.123-.068c0-.04.075-.068.17-.068.096 0 .17-.034.17-.068 0-.116.321-.41.444-.41.054 0 .102-.034.102-.068 0-.041.034-.068.068-.068.075 0 .41-.307.41-.376 0-.054.32-.375.374-.375.055 0 .375-.32.375-.375 0-.069.334-.376.41-.376.034 0 .068-.061.068-.136 0-.075.034-.137.068-.137.04 0 .068-.04.068-.088 0-.048.061-.13.136-.184.075-.055.137-.144.137-.205 0-.062.061-.15.136-.205a.362.362 0 0 0 .136-.252c0-.096.041-.157.103-.157.054 0 .102-.062.102-.137 0-.075.034-.136.068-.136.041 0 .068-.062.068-.137 0-.075.034-.136.068-.136.041 0 .069-.075.069-.17 0-.096.034-.171.068-.171.04 0 .068-.062.068-.137 0-.075.034-.136.068-.136.041 0 .068-.075.068-.171 0-.11.041-.17.103-.17.068 0 .102-.069.102-.205 0-.116.034-.205.068-.205.04 0 .068-.11.068-.239 0-.13.034-.239.068-.239.041 0 .069-.095.069-.204v-.205H16.15l-.164.17c-.095.09-.17.212-.17.273 0 .055-.027.103-.068.103-.034 0-.068.034-.068.075 0 .075-.17.266-.239.266-.055 0-.511.457-.511.512 0 .061-.184.239-.253.239-.034 0-.102.061-.156.136-.055.075-.15.137-.219.137-.068 0-.122.027-.122.068 0 .034-.075.068-.17.068-.11 0-.171.041-.171.102 0 .055-.062.103-.136.103-.075 0-.137.027-.137.068 0 .034-.088.068-.204.068-.11 0-.205.027-.205.069 0 .034-.109.068-.239.068s-.238.027-.238.068c0 .04-.443.068-1.193.068s-1.193-.027-1.193-.068c0-.041-.137-.068-.307-.068-.17 0-.307-.034-.307-.069 0-.04-.089-.068-.204-.068-.11 0-.205-.034-.205-.068 0-.041-.075-.068-.17-.068-.096 0-.17-.034-.17-.075 0-.103-.178-.266-.287-.266-.055 0-.137-.062-.191-.137-.055-.075-.157-.136-.225-.136-.123 0-.32-.15-.32-.24 0-.054-.32-.375-.375-.375-.069 0-.375-.334-.375-.409a.068.068 0 0 0-.069-.068c-.034 0-.068-.048-.068-.11 0-.122-.157-.3-.266-.3-.04 0-.075-.061-.075-.136 0-.075-.027-.137-.068-.137-.034 0-.068-.075-.068-.17 0-.096-.027-.17-.068-.17-.034 0-.068-.062-.068-.137 0-.075-.028-.137-.069-.137-.034 0-.068-.075-.068-.17 0-.096-.027-.171-.068-.171-.034 0-.068-.123-.068-.273 0-.15-.027-.273-.068-.273-.034 0-.068-.17-.068-.375 0-.287-.02-.375-.103-.375-.088 0-.102-.15-.102-.922 0-.77.014-.921.102-.921.082 0 .103-.095.103-.444 0-.252.027-.443.068-.443.04 0 .068-.096.068-.205 0-.116.034-.204.068-.204.041 0 .068-.076.068-.171 0-.096.034-.17.068-.17.041 0 .069-.09.069-.192 0-.109.054-.232.136-.286a.362.362 0 0 0 .136-.253c0-.095.041-.157.103-.157.054 0 .102-.048.102-.109s.095-.198.204-.3c.116-.103.205-.212.205-.24 0-.054.177-.238.239-.238.054 0 .51-.457.51-.512 0-.088.199-.239.321-.239.068 0 .17-.061.225-.136.055-.075.15-.136.218-.136.069 0 .123-.035.123-.069 0-.04.075-.068.17-.068.11 0 .171-.041.171-.102 0-.055.061-.103.136-.103.075 0 .137-.034.137-.068 0-.04.136-.068.307-.068.17 0 .306-.034.306-.068 0-.041.17-.069.375-.069s.375-.034.375-.068c0-.04.239-.068.58-.068.34 0 .58.027.58.068 0 .034.17.068.374.068.205 0 .375.028.375.069 0 .034.11.068.239.068.13 0 .238.027.238.068 0 .034.096.068.205.068.136 0 .204.034.204.103 0 .061.062.102.157.102.082 0 .198.061.253.136.054.075.143.137.204.137s.15.061.205.136c.054.075.17.137.252.137.089 0 .157.034.157.068 0 .075.443.546.511.546.089 0 .239.198.239.32 0 .069.061.171.136.226.075.055.136.143.136.205 0 .061.062.15.137.204.075.055.136.171.136.253v.157h6.136v-.239c0-.13-.027-.239-.068-.239-.034 0-.069-.095-.069-.205 0-.116-.027-.204-.068-.204-.034 0-.068-.11-.068-.24 0-.129-.027-.238-.068-.238-.034 0-.068-.096-.068-.205 0-.136-.034-.204-.102-.204-.062 0-.103-.062-.103-.171 0-.095-.027-.17-.068-.17-.034 0-.068-.062-.068-.137 0-.075-.027-.136-.068-.136-.034 0-.068-.076-.068-.171 0-.096-.028-.17-.069-.17-.034 0-.068-.062-.068-.137 0-.075-.027-.137-.068-.137-.034 0-.068-.061-.068-.136 0-.075-.048-.137-.102-.137-.062 0-.103-.061-.103-.157a.362.362 0 0 0-.136-.252c-.075-.055-.136-.143-.136-.205 0-.061-.062-.15-.137-.204-.075-.055-.136-.137-.136-.185 0-.047-.027-.088-.068-.088-.034 0-.068-.062-.068-.137 0-.075-.035-.136-.069-.136-.075 0-.409-.307-.409-.376 0-.054-.32-.375-.375-.375-.054 0-.51-.464-.51-.512 0-.089-.199-.239-.308-.239-.061 0-.204-.095-.306-.204-.103-.116-.24-.205-.3-.205-.062 0-.11-.048-.11-.102a.105.105 0 0 0-.102-.103c-.054 0-.102-.034-.102-.068 0-.041-.055-.068-.123-.068s-.163-.062-.218-.137a.361.361 0 0 0-.252-.136c-.089 0-.157-.034-.157-.069 0-.04-.061-.068-.136-.068-.075 0-.137-.047-.137-.102 0-.055-.061-.102-.136-.102-.075 0-.137-.035-.137-.069 0-.04-.108-.068-.238-.068s-.239-.034-.239-.068c0-.041-.061-.068-.136-.068-.075 0-.136-.035-.136-.069 0-.04-.11-.068-.239-.068-.13 0-.239-.034-.239-.068 0-.041-.136-.068-.306-.068-.17 0-.307-.035-.307-.069 0-.04-.123-.068-.273-.068-.198 0-.273-.027-.273-.102 0-.082-.109-.103-.545-.103-.32 0-.546-.027-.546-.068 0-.04-.51-.068-1.397-.068-.886 0-1.398.027-1.398.068ZM33.886 9.423c0 .041-.191.068-.444.068-.347 0-.443.02-.443.103 0 .068-.075.102-.238.102-.13 0-.239.027-.239.068 0 .034-.136.069-.307.069-.17 0-.307.027-.307.068 0 .034-.088.068-.204.068-.11 0-.204.027-.204.068 0 .034-.076.069-.171.069-.095 0-.17.027-.17.068 0 .034-.062.068-.137.068-.075 0-.136.027-.136.068 0 .034-.061.069-.136.069-.076 0-.137.047-.137.102 0 .061-.061.102-.17.102-.096 0-.17.027-.17.069 0 .034-.062.068-.137.068-.075 0-.136.027-.136.068 0 .034-.062.068-.137.068-.15 0-.477.28-.477.41 0 .034-.061.068-.136.068-.075 0-.137.027-.137.068 0 .034-.04.068-.088.068-.048 0-.13.062-.184.137-.055.075-.137.136-.191.136-.11 0-.287.164-.287.266 0 .041-.034.075-.068.075-.13 0-.818.744-.818.888 0 .075-.034.136-.068.136-.116 0-.41.32-.41.444 0 .123-.292.443-.408.443-.034 0-.068.062-.068.137 0 .075-.028.136-.069.136-.034 0-.068.075-.068.17 0 .096-.027.171-.068.171-.034 0-.068.062-.068.137 0 .075-.027.136-.068.136-.034 0-.069.062-.069.137 0 .075-.027.136-.068.136-.034 0-.068.075-.068.17 0 .11-.04.171-.102.171-.055 0-.102.062-.102.137 0 .075-.028.136-.069.136-.034 0-.068.075-.068.171 0 .096-.027.17-.068.17-.034 0-.068.09-.068.205 0 .11-.027.205-.068.205-.034 0-.068.11-.068.239 0 .13-.028.239-.069.239-.034 0-.068.123-.068.273 0 .15-.027.273-.068.273-.034 0-.068.136-.068.307 0 .225-.027.307-.102.307-.082 0-.103.095-.103.443 0 .253-.027.444-.068.444-.04 0-.068.628-.068 1.74s.027 1.74.068 1.74c.041 0 .068.219.068.512 0 .41.02.512.103.512.075 0 .102.082.102.307 0 .17.034.307.068.307.041 0 .068.089.068.205 0 .109.034.204.068.204.041 0 .069.137.069.307 0 .171.034.307.068.307.04 0 .068.11.068.24 0 .129.034.238.068.238.041 0 .068.061.068.137 0 .075.034.136.069.136.04 0 .068.061.068.137 0 .075.047.136.102.136.061 0 .102.061.102.17 0 .096.034.171.068.171.041 0 .068.062.068.137 0 .075.035.136.069.136.04 0 .068.075.068.17 0 .096.034.171.068.171.041 0 .068.048.068.11 0 .122.157.3.266.3.041 0 .075.061.075.136 0 .075.034.137.068.137.041 0 .068.04.068.088 0 .048.062.13.137.185.075.054.136.136.136.19 0 .11.164.287.266.287.041 0 .075.035.075.076 0 .04.157.218.34.402.192.184.342.362.342.403 0 .04.034.075.075.075.04 0 .218.15.402.34.184.192.396.342.47.342.082 0 .144.034.144.068 0 .13.327.41.477.41.075 0 .136.027.136.068 0 .034.048.068.11.068.122 0 .3.157.3.266 0 .041.074.076.17.076.095 0 .17.027.17.068 0 .034.061.068.137.068.075 0 .136.027.136.068 0 .034.095.069.204.069.116 0 .205.027.205.068 0 .034.075.068.17.068.096 0 .17.027.17.068 0 .034.096.068.205.068.137 0 .205.035.205.103 0 .068.075.102.238.102.13 0 .24.027.24.068 0 .035.135.069.306.069.17 0 .307.027.307.068 0 .04.259.068.647.068.389 0 .648.027.648.068 0 .041.32.069.818.069.498 0 .818-.028.818-.069 0-.04.225-.068.546-.068.32 0 .545-.027.545-.068 0-.041.136-.068.307-.068.17 0 .307-.035.307-.069 0-.04.095-.068.204-.068.137 0 .205-.034.205-.102 0-.055.061-.103.136-.103.075 0 .136-.034.136-.068 0-.04.103-.068.225-.068.144 0 .26-.048.32-.136a.361.361 0 0 1 .253-.137c.089 0 .157-.034.157-.068 0-.041.061-.069.136-.069.075 0 .137-.034.137-.068 0-.116.32-.41.443-.41.102 0 .443-.286.443-.375 0-.02.075-.116.17-.204.13-.137.232-.17.512-.17.293 0 .34.02.34.136 0 .075.048.136.103.136.068 0 .102.075.102.239 0 .13.034.239.068.239.041 0 .069.136.069.307 0 .17.034.307.068.307.04 0 .068.089.068.205 0 .109.034.204.068.204.04 0 .068.076.068.171v.17h4.5v-11.19c0-7.418-.02-11.192-.068-11.192-.034 0-.069-.048-.069-.102 0-.089-.354-.103-2.76-.103h-2.762v1.058c0 1.017-.007 1.058-.136 1.058-.13 0-.477-.273-.477-.375 0-.069-.334-.376-.41-.376-.034 0-.068-.034-.068-.068 0-.041-.047-.068-.109-.068-.122 0-.3-.157-.3-.266 0-.041-.075-.075-.17-.075-.096 0-.17-.035-.17-.069 0-.04-.062-.068-.137-.068-.075 0-.136-.034-.136-.068 0-.041-.062-.068-.137-.068-.075 0-.136-.035-.136-.069 0-.04-.075-.068-.17-.068-.096 0-.17-.034-.17-.068 0-.041-.09-.068-.205-.068-.11 0-.205-.035-.205-.069 0-.04-.136-.068-.307-.068-.225 0-.306-.027-.306-.102 0-.082-.096-.103-.444-.103-.252 0-.443-.027-.443-.068 0-.04-.463-.068-1.261-.068-.798 0-1.261.027-1.261.068Zm3.136 5.528c0 .034.123.068.273.068.15 0 .272.027.272.068 0 .034.11.068.239.068.163 0 .238.034.238.103 0 .054.062.102.137.102.075 0 .136.027.136.068 0 .034.068.068.157.068.082 0 .198.062.252.137.055.075.136.136.191.136.11 0 .286.164.286.267 0 .04.034.075.069.075.116 0 .545.464.545.58 0 .13.157.307.266.307.04 0 .075.061.075.136 0 .075.034.137.068.137.041 0 .068.061.068.136 0 .075.034.137.068.137.041 0 .069.075.069.17 0 .096.034.17.068.17.04 0 .068.09.068.206 0 .109.034.204.068.204.041 0 .068.11.068.24 0 .129.034.238.069.238.04 0 .068.191.068.444 0 .348.02.443.102.443.089 0 .102.178.102 1.194 0 1.017-.013 1.194-.102 1.194-.082 0-.102.096-.102.444 0 .253-.028.444-.069.444-.034 0-.068.109-.068.238 0 .13-.027.24-.068.24-.034 0-.068.088-.068.204 0 .11-.027.205-.068.205-.034 0-.068.075-.068.17 0 .096-.028.17-.069.17-.034 0-.068.049-.068.11 0 .123-.157.3-.266.3-.04 0-.075.062-.075.137 0 .143-.552.75-.681.75a.073.073 0 0 0-.069.069c0 .13-.47.546-.613.546-.075 0-.137.027-.137.068 0 .034-.06.068-.136.068-.075 0-.136.048-.136.102 0 .055-.062.103-.137.103-.075 0-.136.027-.136.068 0 .034-.109.068-.239.068s-.238.027-.238.069c0 .034-.136.068-.307.068-.17 0-.307.027-.307.068 0 .04-.286.068-.716.068s-.715-.027-.715-.068c0-.041-.17-.068-.375-.068s-.375-.034-.375-.069c0-.04-.11-.068-.239-.068-.13 0-.239-.034-.239-.068 0-.041-.061-.068-.136-.068-.075 0-.136-.048-.136-.103 0-.068-.069-.102-.225-.102-.144 0-.26-.048-.32-.136-.055-.076-.15-.137-.219-.137-.068 0-.123-.034-.123-.068 0-.041-.034-.068-.075-.068-.095 0-.266-.171-.266-.266 0-.041-.054-.076-.122-.076s-.164-.061-.218-.136c-.055-.075-.123-.137-.157-.137-.096 0-.253-.19-.253-.307 0-.061-.088-.204-.204-.307-.11-.102-.204-.239-.204-.3s-.048-.11-.103-.11c-.061 0-.102-.06-.102-.17 0-.095-.027-.17-.068-.17-.034 0-.068-.062-.068-.137 0-.075-.028-.136-.069-.136-.034 0-.068-.062-.068-.137 0-.075-.027-.136-.068-.136-.034 0-.068-.137-.068-.307 0-.17-.027-.307-.068-.307-.034 0-.069-.171-.069-.376 0-.204-.027-.375-.068-.375-.04 0-.068-.423-.068-1.126 0-.703.027-1.126.068-1.126.041 0 .069-.17.069-.375s.034-.376.068-.376c.04 0 .068-.095.068-.204 0-.116.034-.205.068-.205.041 0 .068-.075.068-.17 0-.096.034-.171.068-.171.041 0 .069-.062.069-.137 0-.075.034-.136.068-.136.04 0 .068-.075.068-.17 0-.11.04-.171.102-.171.055 0 .103-.055.103-.123s.06-.164.136-.219c.075-.054.136-.15.136-.218s.034-.123.068-.123c.041 0 .069-.034.069-.075 0-.082.17-.266.238-.266.027 0 .136-.096.239-.205.102-.116.238-.204.3-.204.061 0 .109-.048.109-.103 0-.054.04-.102.088-.102.048 0 .13-.062.184-.137.055-.075.15-.136.219-.136.068 0 .122-.034.122-.068 0-.041.062-.069.137-.069.075 0 .136-.034.136-.068 0-.04.075-.068.17-.068.11 0 .171-.041.171-.102 0-.069.068-.103.205-.103.115 0 .204-.034.204-.068 0-.04.17-.068.375-.068s.375-.034.375-.068c0-.041.355-.069.92-.069.566 0 .92.028.92.069ZM90.54 9.421c0 .041-.19.069-.442.069-.348 0-.443.02-.443.102 0 .068-.075.102-.239.102-.13 0-.239.028-.239.069 0 .034-.088.068-.204.068-.11 0-.205.027-.205.068 0 .034-.109.068-.238.068-.13 0-.239.028-.239.069 0 .034-.061.068-.136.068-.075 0-.137.027-.137.068 0 .034-.075.068-.17.068-.096 0-.17.027-.17.068 0 .035-.062.069-.137.069-.075 0-.136.047-.136.102 0 .055-.062.102-.137.102-.075 0-.136.028-.136.069 0 .034-.068.068-.157.068a.361.361 0 0 0-.252.136c-.055.075-.136.137-.19.137-.11 0-.287.164-.287.266 0 .04-.048.075-.102.075-.055 0-.103.027-.103.068 0 .034-.047.069-.109.069-.061 0-.198.088-.3.204-.102.11-.225.205-.266.205-.04 0-.075.034-.075.068 0 .075-.58.683-.647.683-.062 0-.239.184-.239.252 0 .034-.061.102-.136.157-.075.055-.137.143-.137.205 0 .061-.061.15-.136.204a.362.362 0 0 0-.136.253c0 .089-.034.157-.075.157-.11 0-.266.177-.266.3 0 .062-.028.11-.069.11-.034 0-.068.047-.068.102 0 .054-.027.102-.068.102-.034 0-.068.062-.068.136 0 .076-.027.137-.068.137-.034 0-.068.061-.068.136 0 .075-.048.137-.103.137-.061 0-.102.061-.102.17 0 .096-.027.171-.068.171-.034 0-.068.062-.068.137 0 .075-.028.136-.068.136-.034 0-.069.11-.069.239 0 .13-.027.239-.068.239-.034 0-.068.061-.068.136 0 .075-.027.137-.068.137-.034 0-.068.109-.068.239 0 .163-.034.238-.103.238-.075 0-.102.075-.102.273 0 .15-.027.273-.068.273-.034 0-.068.137-.068.307 0 .171-.028.308-.068.308-.041 0-.069.218-.069.511 0 .294-.027.512-.068.512-.04 0-.068.628-.068 1.74s.027 1.74.068 1.74c.041 0 .068.219.068.512 0 .293.028.512.069.512.04 0 .068.136.068.307 0 .17.034.307.068.307.04 0 .068.123.068.273 0 .198.027.273.102.273.069 0 .103.075.103.239 0 .13.034.239.068.239.04 0 .068.061.068.136 0 .075.034.137.068.137.041 0 .068.109.068.238 0 .13.034.24.069.24.04 0 .068.06.068.136 0 .075.034.136.068.136.04 0 .068.075.068.17 0 .11.041.171.102.171.055 0 .103.062.103.137 0 .075.034.136.068.136.04 0 .068.069.068.157 0 .082.061.198.136.253.075.054.137.15.137.218s.034.123.068.123c.04 0 .068.061.068.136 0 .076.048.137.102.137.055 0 .103.04.103.089 0 .047.06.13.136.184.075.055.136.143.136.205 0 .061.062.15.137.204.075.055.136.123.136.157 0 .069.177.253.239.253.054 0 .51.457.51.512 0 .061.185.238.24.238.027 0 .136.09.238.205.102.11.239.205.3.205s.11.027.11.068c0 .034.047.068.102.068.054 0 .102.034.102.075 0 .103.177.267.286.267.055 0 .136.06.191.136.055.075.17.137.252.137.089 0 .157.027.157.068 0 .034.061.068.136.068.075 0 .137.048.137.102 0 .055.061.103.136.103.075 0 .136.027.136.068 0 .034.075.068.17.068.096 0 .171.027.171.068 0 .035.062.069.137.069.075 0 .136.027.136.068 0 .034.11.068.239.068.13 0 .238.027.238.068 0 .034.096.069.205.069.136 0 .204.034.204.102 0 .075.082.102.307.102.17 0 .307.028.307.068 0 .035.136.069.307.069.17 0 .306.027.306.068 0 .04.614.068 1.705.068 1.09 0 1.704-.027 1.704-.068 0-.04.137-.068.307-.068.17 0 .307-.034.307-.069 0-.04.136-.068.307-.068.225 0 .306-.027.306-.102 0-.055.062-.102.137-.102.075 0 .136-.035.136-.069 0-.04.11-.068.239-.068.13 0 .238-.034.238-.068 0-.041.062-.068.137-.068.075 0 .136-.035.136-.069 0-.04.061-.068.136-.068.076 0 .137-.034.137-.068 0-.041.048-.068.102-.068a.105.105 0 0 0 .102-.103c0-.054.048-.102.11-.102.06 0 .197-.096.3-.205.102-.116.245-.204.306-.204.11 0 .307-.15.307-.24 0-.047.32-.375.375-.375.02 0 .034.396.034.888 0 .545-.027.887-.068.887-.034 0-.068.17-.068.375s-.028.375-.068.375c-.034 0-.069.11-.069.239 0 .13-.027.239-.068.239-.034 0-.068.089-.068.205 0 .109-.027.204-.068.204-.034 0-.068.075-.068.17 0 .11-.041.172-.103.172-.054 0-.102.054-.102.122 0 .069-.061.164-.136.219-.075.054-.136.123-.136.157 0 .068-.457.525-.526.525-.034 0-.102.062-.156.137-.055.075-.15.136-.219.136-.068 0-.122.034-.122.075 0 .116-.184.266-.334.266-.082 0-.143.028-.143.069 0 .034-.09.068-.205.068-.109 0-.205.027-.205.068 0 .034-.109.068-.238.068-.13 0-.239.028-.239.068 0 .035-.17.069-.375.069-.286 0-.375.02-.375.102 0 .089-.177.102-1.193.102s-1.193-.013-1.193-.102c0-.082-.089-.102-.375-.102-.204 0-.375-.034-.375-.069 0-.04-.136-.068-.307-.068-.17 0-.306-.034-.306-.068 0-.041-.062-.068-.137-.068-.075 0-.136-.034-.136-.069 0-.04-.061-.068-.136-.068-.075 0-.137-.034-.137-.068 0-.04-.075-.068-.17-.068-.11 0-.17-.041-.17-.103 0-.054-.048-.102-.11-.102-.061 0-.197-.096-.3-.205-.102-.116-.238-.204-.3-.204-.15 0-.45-.3-.45-.444 0-.11-.156-.307-.238-.307-.096 0-.239-.205-.239-.334 0-.082-.027-.144-.068-.144-.034 0-.068-.047-.068-.109 0-.293-.055-.3-2.925-.3h-2.734v.58c0 .341.027.58.068.58.041 0 .068.136.068.307 0 .17.034.307.069.307.04 0 .068.11.068.239 0 .13.034.239.068.239.04 0 .068.061.068.136 0 .075.048.137.102.137.055 0 .103.061.103.136 0 .075.034.137.068.137.04 0 .068.075.068.17 0 .096.034.17.068.17.041 0 .068.056.068.124s.062.163.137.218c.075.055.136.17.136.253 0 .088.034.156.068.156.116 0 .41.321.41.444 0 .055.033.102.068.102.04 0 .068.035.068.075 0 .076.17.267.238.267.048 0 .512.457.512.511 0 .09.34.376.443.376.123 0 .443.293.443.41 0 .033.061.067.143.067.082 0 .232.09.334.205.102.11.239.205.3.205s.11.027.11.068c0 .034.074.068.17.068.095 0 .17.028.17.069 0 .034.061.068.136.068.075 0 .137.048.137.102 0 .055.061.102.136.102.075 0 .136.028.136.069 0 .034.075.068.171.068.095 0 .17.027.17.068 0 .034.062.069.137.069.075 0 .136.027.136.068 0 .034.11.068.239.068.13 0 .238.027.238.068 0 .034.096.068.205.068.136 0 .204.035.204.103 0 .068.075.102.239.102.13 0 .239.027.239.068 0 .035.136.069.306.069.17 0 .307.027.307.068 0 .04.191.068.443.068.253 0 .444.027.444.068 0 .041.19.069.443.069.252 0 .443.027.443.068 0 .04.545.068 1.5.068.954 0 1.5-.027 1.5-.068 0-.041.19-.068.443-.068.252 0 .443-.028.443-.069 0-.04.17-.068.375-.068.204 0 .375-.034.375-.068 0-.041.136-.068.307-.068.17 0 .306-.035.306-.069 0-.04.096-.068.205-.068.136 0 .204-.034.204-.102 0-.068.076-.103.24-.103.129 0 .238-.034.238-.068 0-.04.095-.068.204-.068.116 0 .205-.034.205-.068 0-.041.075-.069.17-.069.096 0 .17-.034.17-.068 0-.04.062-.068.137-.068.075 0 .136-.034.136-.068 0-.041.062-.069.137-.069.075 0 .136-.047.136-.102 0-.054.048-.102.102-.102.055 0 .103-.034.103-.068 0-.041.047-.069.109-.069.061 0 .197-.095.3-.204.102-.116.245-.205.306-.205.11 0 .307-.15.307-.239 0-.054.457-.512.512-.512.054 0 .238-.184.238-.239 0-.068.471-.511.546-.511.034 0 .068-.062.068-.144 0-.082.095-.232.204-.334.116-.102.205-.232.205-.287 0-.047.061-.136.136-.19a.363.363 0 0 0 .137-.253c0-.096.04-.157.102-.157.054 0 .102-.062.102-.137 0-.075.034-.136.068-.136.041 0 .068-.075.068-.17 0-.096.034-.171.069-.171.04 0 .068-.062.068-.137 0-.075.034-.136.068-.136.041 0 .068-.11.068-.24 0-.129.034-.238.068-.238.041 0 .068-.096.068-.205 0-.136.035-.204.103-.204.054 0 .102-.062.102-.137 0-.075.034-.136.068-.136.041 0 .068-.137.068-.307 0-.171.034-.307.069-.307.04 0 .068-.137.068-.308 0-.17.034-.307.068-.307.041 0 .068-.19.068-.443s.027-.444.068-.444c.041 0 .068-.341.068-.887 0-.744.014-.887.103-.887a.105.105 0 0 0 .102-.102.105.105 0 0 0-.102-.103c-.089 0-.103-1.18-.103-10.202 0-9.02.014-10.201.103-10.201.054 0 .102-.034.102-.068 0-.041-.048-.069-.102-.069a.105.105 0 0 1-.103-.102c0-.089-.286-.102-2.147-.102h-2.148v.17c0 .096-.027.17-.068.17-.034 0-.068.124-.068.274 0 .15-.027.273-.068.273-.034 0-.068.109-.068.239 0 .163-.035.238-.103.238-.068 0-.102.075-.102.24 0 .129-.027.238-.068.238-.034 0-.068.089-.068.205 0 .198-.014.204-.307.204-.17 0-.307-.034-.307-.068 0-.04-.048-.068-.102-.068-.123 0-.443-.293-.443-.41 0-.034-.034-.068-.075-.068-.041 0-.164-.095-.266-.204-.102-.116-.225-.205-.273-.205-.095 0-.273-.17-.273-.266 0-.041-.068-.075-.156-.075a.362.362 0 0 1-.253-.137c-.054-.075-.15-.136-.218-.136s-.123-.034-.123-.068c0-.041-.109-.069-.238-.069-.13 0-.239-.034-.239-.068 0-.04-.061-.068-.136-.068-.075 0-.137-.034-.137-.068 0-.041-.109-.069-.238-.069-.164 0-.239-.034-.239-.102 0-.082-.088-.102-.375-.102-.204 0-.375-.035-.375-.069 0-.04-.593-.068-1.636-.068s-1.636.027-1.636.068Zm2.66 5.391c0 .041.225.069.545.069.32 0 .546.027.546.068 0 .034.095.068.204.068.116 0 .205.027.205.068 0 .034.109.068.238.068.164 0 .239.034.239.103 0 .054.054.102.123.102.068 0 .163.062.218.137.054.075.157.136.225.136.116 0 .457.28.457.375 0 .055.184.24.238.24.096 0 .375.34.375.457 0 .068.061.17.136.225.076.054.137.15.137.218s.034.123.068.123c.04 0 .068.061.068.136 0 .075.048.137.102.137.062 0 .103.061.103.17 0 .096.034.171.068.171.04 0 .068.089.068.205 0 .109.034.204.068.204.041 0 .068.11.068.24 0 .129.035.238.069.238.04 0 .068.191.068.444 0 .252.027.443.068.443.04 0 .068.423.068 1.126 0 .703-.027 1.126-.068 1.126-.041 0-.068.191-.068.444 0 .252-.028.443-.068.443-.034 0-.069.11-.069.24 0 .129-.027.238-.068.238-.034 0-.068.089-.068.205 0 .109-.027.204-.068.204-.034 0-.068.075-.068.17 0 .11-.041.171-.103.171-.054 0-.102.062-.102.137 0 .075-.027.136-.068.136-.034 0-.068.055-.068.123 0 .069-.061.164-.136.219-.076.054-.137.157-.137.225 0 .116-.28.457-.375.457-.054 0-.239.184-.239.239 0 .095-.34.375-.456.375-.068 0-.17.062-.225.137-.055.075-.15.136-.218.136-.069 0-.123.048-.123.103 0 .068-.075.102-.239.102-.13 0-.238.027-.238.068 0 .034-.089.068-.205.068-.109 0-.204.028-.204.069 0 .04-.444.068-1.194.068s-1.193-.027-1.193-.068c0-.041-.136-.069-.306-.069-.17 0-.307-.034-.307-.068 0-.04-.11-.068-.239-.068-.163 0-.238-.034-.238-.102 0-.055-.062-.103-.137-.103-.075 0-.136-.034-.136-.068 0-.041-.061-.068-.136-.068-.076 0-.137-.034-.137-.069 0-.04-.048-.068-.102-.068-.055 0-.102-.034-.102-.068 0-.041-.048-.068-.11-.068-.102 0-.3-.157-.3-.24 0-.054-.183-.238-.238-.238-.061 0-.511-.464-.511-.525 0-.034-.062-.103-.137-.157-.075-.055-.136-.15-.136-.219 0-.068-.034-.123-.075-.123-.116 0-.266-.184-.266-.334 0-.082-.027-.143-.068-.143-.034 0-.068-.062-.068-.137 0-.075-.028-.136-.069-.136-.034 0-.068-.11-.068-.239 0-.13-.027-.239-.068-.239-.034 0-.068-.095-.068-.204 0-.137-.034-.205-.102-.205-.075 0-.103-.082-.103-.307 0-.17-.027-.307-.068-.307-.04 0-.068-.464-.068-1.263 0-.798.027-1.262.068-1.262.041 0 .069-.137.069-.307 0-.226.027-.307.102-.307s.102-.082.102-.308c0-.17.034-.307.068-.307.041 0 .068-.061.068-.136 0-.075.034-.136.069-.136.04 0 .068-.062.068-.137 0-.075.034-.136.068-.136.04 0 .068-.062.068-.144 0-.15.15-.334.266-.334.04 0 .075-.055.075-.123s.061-.164.136-.218c.075-.055.137-.123.137-.157 0-.062.45-.526.511-.526.055 0 .239-.184.239-.239 0-.082.197-.238.3-.238.06 0 .109-.035.109-.069 0-.04.047-.068.102-.068.054 0 .102-.034.102-.068 0-.041.061-.068.136-.068.076 0 .137-.034.137-.069 0-.04.061-.068.136-.068.075 0 .137-.048.137-.102 0-.069.075-.103.238-.103.13 0 .239-.034.239-.068 0-.04.136-.068.307-.068.17 0 .306-.034.306-.068 0-.041.191-.069.444-.069.252 0 .443-.027.443-.068 0-.04.095-.068.204-.068.116 0 .205.027.205.068ZM115.631 9.419c0 .034-.17.068-.375.068-.286 0-.375.02-.375.103 0 .068-.075.102-.238.102-.13 0-.239.027-.239.068 0 .034-.109.068-.239.068-.129 0-.238.028-.238.069 0 .034-.089.068-.205.068-.109 0-.204.027-.204.068 0 .034-.062.068-.137.068-.075 0-.136.028-.136.069 0 .034-.075.068-.171.068-.095 0-.17.027-.17.068 0 .034-.061.068-.136.068-.075 0-.137.048-.137.103 0 .061-.061.102-.17.102-.096 0-.171.027-.171.068 0 .034-.054.069-.122.069s-.164.061-.218.136c-.055.075-.157.136-.225.136-.137 0-.321.15-.321.267 0 .04-.048.075-.109.075s-.198.088-.3.204c-.102.11-.211.205-.239.205-.054 0-.238.178-.238.239 0 .048-.457.512-.511.512-.055 0-.375.32-.375.375 0 .068-.335.375-.41.375-.034 0-.068.062-.068.137 0 .075-.027.136-.068.136-.034 0-.068.048-.068.103 0 .054-.027.102-.068.102-.034 0-.068.055-.068.123s-.062.164-.137.218a.362.362 0 0 0-.136.253c0 .088-.027.157-.068.157-.034 0-.068.061-.068.136 0 .075-.035.137-.075.137-.11 0-.266.177-.266.3 0 .061-.028.11-.069.11-.034 0-.068.108-.068.238s-.027.239-.068.239c-.034 0-.068.061-.068.136 0 .075-.027.137-.068.137-.034 0-.068.109-.068.239 0 .163-.034.238-.103.238-.054 0-.102.062-.102.137 0 .075-.027.136-.068.136-.034 0-.068.137-.068.307 0 .171-.028.308-.068.308-.035 0-.069.136-.069.307 0 .17-.027.307-.068.307-.034 0-.068.17-.068.375s-.027.375-.068.375c-.041 0-.068.765-.068 2.15 0 1.385.027 2.15.068 2.15.041 0 .068.17.068.375 0 .204.034.375.068.375.041 0 .068.136.068.307 0 .17.034.307.069.307.04 0 .068.137.068.307 0 .17.034.307.068.307.041 0 .068.089.068.205 0 .136.034.205.102.205.062 0 .103.061.103.17 0 .096.034.171.068.171.041 0 .068.089.068.205 0 .109.034.204.068.204.041 0 .068.076.068.171 0 .096.034.17.068.17.041 0 .069.048.069.11 0 .123.156.3.266.3.04 0 .075.075.075.17 0 .096.034.171.068.171.041 0 .068.062.068.137 0 .075.034.136.068.136.041 0 .068.055.068.123s.062.164.137.218c.075.055.136.137.136.185 0 .047.034.088.068.088.041 0 .068.062.068.137 0 .075.034.136.068.136.089 0 .41.307.41.39 0 .033.061.102.136.156.075.055.136.15.136.219 0 .068.034.122.075.122.096 0 .266.171.266.267 0 .04.055.075.123.075s.163.061.218.136c.055.075.123.137.157.137s.15.088.252.204c.102.11.239.205.3.205s.109.034.109.075c0 .116.184.266.321.266.068 0 .17.062.225.137.054.075.15.136.218.136s.122.027.122.068c0 .034.075.069.171.069.109 0 .17.04.17.102 0 .055.062.102.137.102.075 0 .136.028.136.069 0 .034.075.068.17.068.096 0 .171.027.171.068 0 .034.061.068.136.068.075 0 .137.028.137.069 0 .034.095.068.204.068.116 0 .205.027.205.068 0 .034.109.068.238.068.164 0 .239.034.239.103 0 .075.082.102.307.102.17 0 .306.027.306.068 0 .034.137.069.307.069.171 0 .307.027.307.068 0 .04.614.068 1.704.068 1.091 0 1.705-.027 1.705-.068 0-.041.136-.069.307-.069.17 0 .306-.034.306-.068 0-.04.096-.068.205-.068.136 0 .205-.034.205-.102 0-.069.075-.103.238-.103.13 0 .239-.034.239-.068 0-.04.061-.068.136-.068.075 0 .136-.034.136-.069 0-.04.062-.068.137-.068.075 0 .136-.034.136-.068 0-.04.075-.068.171-.068.095 0 .17-.034.17-.068 0-.041.061-.069.136-.069.075 0 .137-.034.137-.075 0-.109.177-.266.307-.266.115 0 .579-.43.579-.546 0-.034.034-.068.075-.068.041 0 .164-.095.266-.205.143-.157.252-.204.443-.204.3 0 .443.13.443.402 0 .116.034.212.068.212.041 0 .069.088.069.204 0 .11.034.205.068.205.041 0 .068.137.068.307 0 .17.034.307.068.307.041 0 .068.11.068.24 0 .163.034.238.103.238.054 0 .102.027.102.068 0 .041.763.069 2.147.069h2.148V9.486h-5.522v1.058c0 .969-.014 1.058-.123 1.058-.068 0-.164-.062-.218-.137-.055-.075-.137-.136-.184-.136-.048 0-.089-.034-.089-.069 0-.13-.607-.682-.75-.682-.075 0-.136-.048-.136-.102 0-.055-.062-.103-.137-.103-.075 0-.136-.034-.136-.068 0-.04-.075-.068-.17-.068-.096 0-.171-.034-.171-.068 0-.041-.061-.069-.136-.069-.075 0-.137-.034-.137-.068 0-.04-.061-.068-.136-.068-.075 0-.136-.034-.136-.068 0-.041-.109-.069-.239-.069-.129 0-.238-.034-.238-.068 0-.04-.089-.068-.205-.068-.136 0-.205-.034-.205-.102 0-.082-.088-.103-.374-.103-.205 0-.375-.034-.375-.068 0-.04-.594-.068-1.637-.068-1.043 0-1.636.027-1.636.068Zm2.795 5.39c0 .042.191.07.443.07.253 0 .444.027.444.067 0 .034.136.069.306.069.171 0 .307.027.307.068 0 .034.062.068.137.068.075 0 .136.048.136.103 0 .06.061.102.17.102.096 0 .171.027.171.068 0 .034.054.068.123.068.068 0 .163.062.218.137.054.075.156.136.225.136.122 0 .32.15.32.24 0 .026.096.136.205.238.116.102.204.239.204.3 0 .062.048.11.102.11.055 0 .103.047.103.102 0 .054.034.102.068.102.041 0 .068.055.068.123s.061.164.136.218c.075.055.137.15.137.219 0 .068.034.122.068.122.041 0 .068.11.068.24 0 .163.034.238.102.238.069 0 .103.075.103.239 0 .13.034.239.068.239.041 0 .068.123.068.273 0 .15.034.273.068.273.041 0 .068.19.068.443s.028.444.068.444c.041 0 .069.327.069.853 0 .525-.028.853-.069.853-.04 0-.068.19-.068.443s-.027.444-.068.444c-.034 0-.068.17-.068.375s-.027.376-.068.376c-.034 0-.068.061-.068.136 0 .075-.048.137-.103.137-.068 0-.102.075-.102.238 0 .13-.027.24-.068.24-.034 0-.068.054-.068.122s-.062.164-.137.218c-.075.055-.136.15-.136.219 0 .068-.027.123-.068.123-.034 0-.068.047-.068.102a.105.105 0 0 1-.103.102c-.054 0-.102.048-.102.11 0 .06-.088.197-.204.3-.109.102-.205.211-.205.239 0 .088-.198.238-.32.238-.069 0-.171.062-.225.137-.055.075-.15.136-.218.136-.069 0-.123.028-.123.069 0 .034-.075.068-.171.068-.109 0-.17.04-.17.102 0 .055-.061.103-.136.103-.075 0-.137.027-.137.068 0 .034-.136.068-.307.068-.17 0-.306.027-.306.068 0 .041-.444.069-1.193.069-.75 0-1.194-.028-1.194-.069 0-.04-.136-.068-.306-.068-.171 0-.307-.034-.307-.068 0-.041-.062-.068-.137-.068-.075 0-.136-.048-.136-.103 0-.054-.061-.102-.136-.102-.075 0-.137-.034-.137-.068 0-.041-.075-.069-.17-.069-.095 0-.17-.034-.17-.068 0-.04-.048-.068-.103-.068-.122 0-.443-.293-.443-.41 0-.034-.061-.068-.143-.068-.075 0-.259-.123-.402-.273-.143-.15-.293-.273-.334-.273-.041 0-.075-.068-.075-.157a.363.363 0 0 0-.137-.252c-.075-.055-.136-.143-.136-.205 0-.061-.061-.15-.136-.205a.363.363 0 0 1-.137-.252c0-.089-.027-.157-.068-.157-.034 0-.068-.096-.068-.205 0-.136-.034-.204-.102-.204-.069 0-.103-.075-.103-.24 0-.129-.027-.238-.068-.238-.034 0-.068-.11-.068-.239 0-.13-.027-.239-.068-.239-.041 0-.068-.26-.068-.648 0-.389-.028-.648-.069-.648-.034 0-.068-.11-.068-.24 0-.129.034-.238.068-.238.041 0 .069-.239.069-.58 0-.341.027-.58.068-.58.041 0 .068-.137.068-.307 0-.17.034-.307.068-.307.041 0 .068-.11.068-.239 0-.164.034-.239.103-.239.068 0 .102-.068.102-.205 0-.116.034-.204.068-.204.041 0 .068-.069.068-.157 0-.082.062-.198.137-.253.075-.054.136-.136.136-.19 0-.103.307-.424.409-.424.034 0 .068-.061.068-.136 0-.185.43-.614.614-.614.075 0 .136-.035.136-.069 0-.116.321-.41.443-.41.055 0 .103-.033.103-.067 0-.041.075-.069.17-.069.095 0 .17-.034.17-.068 0-.04.062-.068.137-.068.075 0 .136-.048.136-.102 0-.069.075-.103.239-.103.129 0 .238-.034.238-.068 0-.041.096-.068.205-.068.116 0 .204-.035.204-.069 0-.04.225-.068.546-.068.32 0 .545-.027.545-.068 0-.041.096-.068.205-.068.116 0 .204.027.204.068ZM143.923 9.423c0 .034-.171.068-.375.068-.287 0-.375.02-.375.102 0 .075-.075.103-.273.103-.15 0-.273.027-.273.068 0 .034-.109.068-.238.068-.13 0-.239.027-.239.068 0 .034-.109.069-.238.069-.13 0-.239.027-.239.068 0 .034-.061.068-.136.068-.075 0-.137.027-.137.068 0 .034-.061.069-.136.069-.075 0-.136.027-.136.068 0 .034-.075.068-.171.068-.109 0-.17.041-.17.102 0 .055-.055.103-.123.103s-.164.061-.218.136c-.055.075-.164.137-.239.137-.075 0-.184.061-.238.136-.055.075-.15.137-.219.137-.068 0-.122.034-.122.075 0 .082-.171.266-.239.266-.027 0-.136.089-.239.205-.102.109-.238.204-.3.204-.061 0-.109.048-.109.103 0 .075-.081.102-.306.102-.225 0-.307-.027-.307-.102 0-.055-.028-.103-.068-.103-.034 0-.069-.095-.069-.204 0-.116-.027-.205-.068-.205-.034 0-.068-.11-.068-.239 0-.164-.034-.239-.102-.239-.068 0-.102-.068-.102-.205 0-.116-.028-.204-.069-.204-.034 0-.068-.11-.068-.24 0-.129-.027-.238-.068-.238-.034 0-.068-.096-.068-.205 0-.116-.027-.204-.068-.204-.034 0-.069-.048-.069-.103 0-.088-.3-.102-2.318-.102-2.018 0-2.318.014-2.318.102 0 .055.035.103.069.103.047 0 .068 3.753.068 11.123 0 7.37-.021 11.123-.068 11.123a.07.07 0 0 0-.069.068c0 .048 1.037.068 2.966.068h2.966v-5.834c0-5.139.013-5.835.102-5.835.082 0 .102-.109.102-.58 0-.341.028-.58.069-.58.04 0 .068-.109.068-.239s.034-.239.068-.239c.041 0 .068-.109.068-.238 0-.13.034-.24.068-.24.041 0 .068-.081.068-.177 0-.177.137-.368.266-.368.041 0 .075-.068.075-.157 0-.082.062-.198.137-.253.075-.054.136-.143.136-.204 0-.062.061-.15.136-.205.075-.055.137-.136.137-.184a.09.09 0 0 1 .088-.089c.048 0 .13-.061.184-.136.055-.075.137-.137.191-.137.103 0 .423-.307.423-.41 0-.034.075-.068.17-.068.096 0 .171-.034.171-.068 0-.04.061-.068.136-.068.075 0 .137-.034.137-.068 0-.041.075-.069.17-.069.095 0 .17-.034.17-.068 0-.04.062-.068.137-.068.075 0 .136-.034.136-.068 0-.041.109-.069.239-.069.163 0 .238-.034.238-.102 0-.068.069-.102.205-.102.116 0 .204-.034.204-.069 0-.04.191-.068.444-.068.252 0 .443-.027.443-.068 0-.04.463-.068 1.261-.068.798 0 1.261.027 1.261.068 0 .034.137.068.307.068h.307V9.354h-1.568c-1.002 0-1.568.028-1.568.069ZM166.145 9.419c0 .041-.191.068-.444.068-.347 0-.443.02-.443.103 0 .068-.068.102-.204.102-.109 0-.205.027-.205.068 0 .034-.136.068-.307.068-.17 0-.306.028-.306.069 0 .034-.075.068-.171.068-.095 0-.17.027-.17.068 0 .034-.089.068-.205.068-.109 0-.204.028-.204.069 0 .034-.075.068-.171.068-.095 0-.17.027-.17.068 0 .034-.062.068-.137.068-.075 0-.136.048-.136.103 0 .054-.061.102-.136.102-.075 0-.137.027-.137.068 0 .034-.061.069-.143.069-.082 0-.232.088-.334.204-.102.11-.239.205-.3.205s-.109.048-.109.102c0 .055-.034.103-.068.103-.096 0-.682.587-.682.682 0 .034-.034.068-.068.068-.102 0-.409.321-.409.423 0 .055-.061.137-.136.191a.363.363 0 0 0-.137.253c0 .089-.027.157-.068.157-.034 0-.068.061-.068.136 0 .075-.048.137-.102.137-.062 0-.103.061-.103.17 0 .096-.027.171-.068.171-.034 0-.068.089-.068.205 0 .109-.027.204-.068.204-.034 0-.068.137-.068.308 0 .17-.028.307-.069.307-.04 0-.068.443-.068 1.194 0 .75.028 1.194.068 1.194.041 0 .069.137.069.307 0 .17.034.307.068.307.041 0 .068.089.068.205 0 .11.034.205.068.205.041 0 .068.075.068.17 0 .11.041.17.103.17.054 0 .102.055.102.124 0 .068.061.164.136.218.075.055.137.157.137.225 0 .075.095.219.204.321.116.102.205.239.205.3 0 .062.034.11.075.11.095 0 .265.17.265.265 0 .042.055.076.123.076s.164.061.218.136c.055.075.137.137.184.137.048 0 .089.027.089.068 0 .034.048.068.109.068.123 0 .3.157.3.266 0 .041.068.075.157.075a.36.36 0 0 1 .252.137c.055.075.15.136.218.136.069 0 .123.027.123.068 0 .035.061.069.136.069.075 0 .137.027.137.068 0 .034.075.068.17.068.109 0 .171.041.171.103 0 .068.068.102.204.102.116 0 .205.027.205.068 0 .034.075.068.17.068.096 0 .171.028.171.069 0 .034.095.068.204.068.116 0 .205.027.205.068 0 .034.109.068.238.068.13 0 .239.028.239.069 0 .034.136.068.307.068.17 0 .306.027.306.068 0 .034.123.068.273.068.198 0 .273.027.273.103 0 .075.082.102.307.102.17 0 .306.027.306.068 0 .034.171.068.375.068.205 0 .375.028.375.069 0 .034.137.068.307.068.171 0 .307.027.307.068 0 .034.095.068.205.068.115 0 .204.028.204.069 0 .034.109.068.239.068.163 0 .238.034.238.102 0 .069.068.103.225.103.143 0 .259.047.321.136.054.075.136.137.191.137.102 0 .422.307.422.409 0 .034.034.068.075.068.109 0 .266.178.266.3 0 .062.034.11.068.11.041 0 .069.061.069.136 0 .075.034.137.068.137.041 0 .068.225.068.546 0 .32-.027.545-.068.545-.034 0-.068.09-.068.205 0 .11-.028.205-.069.205-.034 0-.068.048-.068.102 0 .055-.027.103-.068.103-.034 0-.068.061-.068.136 0 .075-.041.137-.089.137-.048 0-.129.061-.184.136-.054.075-.15.136-.218.136s-.123.048-.123.103c0 .054-.061.102-.136.102-.075 0-.136.027-.136.069 0 .034-.11.068-.239.068-.13 0-.239.027-.239.068 0 .04-.422.068-1.125.068-.702 0-1.125-.027-1.125-.068 0-.041-.088-.068-.204-.068-.109 0-.205-.034-.205-.068 0-.041-.109-.069-.238-.069-.13 0-.239-.034-.239-.075 0-.109-.177-.266-.307-.266-.109 0-.579-.43-.579-.525 0-.035-.061-.103-.136-.157-.075-.055-.137-.15-.137-.219 0-.068-.048-.123-.102-.123-.061 0-.102-.061-.102-.17 0-.096-.028-.17-.069-.17-.034 0-.068-.062-.068-.137 0-.075-.027-.137-.068-.137-.034 0-.068-.157-.068-.348 0-.204-.041-.382-.096-.443-.149-.144-5.317-.144-5.467 0-.109.116-.13.314-.028.314.041 0 .069.204.069.477s.027.478.068.478c.041 0 .068.123.068.273 0 .15.034.273.068.273.041 0 .068.11.068.239 0 .163.034.239.103.239.068 0 .102.075.102.238 0 .13.034.24.068.24.041 0 .068.06.068.136 0 .075.034.136.068.136.041 0 .069.062.069.137 0 .075.034.136.068.136.041 0 .068.062.068.143 0 .15.15.335.266.335.041 0 .075.054.075.123 0 .068.061.163.136.218.075.055.137.157.137.225 0 .13.422.594.545.594.034 0 .068.034.068.068 0 .096.586.683.682.683.034 0 .068.027.068.068 0 .034.061.068.136.068.075 0 .137.034.137.075 0 .116.184.266.32.266.068 0 .171.062.225.137.055.075.137.136.191.136.109 0 .286.164.286.266 0 .041.075.075.171.075.095 0 .17.028.17.069 0 .034.096.068.205.068.116 0 .204.027.204.068 0 .034.075.068.171.068.095 0 .17.028.17.069 0 .034.096.068.205.068.116 0 .204.027.204.068 0 .034.109.068.239.068.164 0 .239.034.239.103 0 .075.075.102.272.102.15 0 .273.027.273.068 0 .034.17.069.375.069.204 0 .375.027.375.068 0 .04.668.068 1.875.068 1.206 0 1.875-.027 1.875-.068 0-.041.17-.069.375-.069.204 0 .375-.034.375-.068 0-.04.136-.068.306-.068.225 0 .307-.027.307-.102 0-.069.068-.103.205-.103.116 0 .204-.034.204-.068 0-.04.109-.068.239-.068.129 0 .238-.034.238-.069 0-.04.062-.068.137-.068.075 0 .136-.034.136-.068 0-.04.075-.068.171-.068.095 0 .17-.034.17-.068 0-.041.061-.069.136-.069.075 0 .137-.047.137-.102 0-.055.061-.102.136-.102.075 0 .136-.035.136-.069 0-.04.048-.068.103-.068.054 0 .102-.034.102-.068 0-.041.048-.068.102-.068.123 0 .443-.294.443-.41 0-.034.062-.068.137-.068.184 0 .75-.566.75-.75 0-.076.034-.137.068-.137.116 0 .409-.32.409-.444 0-.054.034-.102.068-.102.041 0 .068-.048.068-.102 0-.055.034-.103.068-.103.041 0 .069-.061.069-.136 0-.075.047-.137.102-.137.054 0 .102-.061.102-.136 0-.075.034-.137.068-.137.041 0 .068-.109.068-.238 0-.13.035-.24.069-.24.041 0 .068-.095.068-.204 0-.116.034-.205.068-.205.041 0 .068-.136.068-.307 0-.17.034-.307.068-.307.041 0 .069-.525.069-1.433s-.028-1.433-.069-1.433c-.034 0-.068-.136-.068-.307 0-.17-.027-.307-.068-.307-.034 0-.068-.096-.068-.205 0-.116-.027-.205-.068-.205-.034 0-.069-.075-.069-.17 0-.096-.027-.17-.068-.17-.034 0-.068-.062-.068-.137 0-.075-.048-.137-.102-.137-.055 0-.102-.054-.102-.122 0-.069-.062-.164-.137-.219-.075-.055-.136-.136-.136-.184 0-.048-.027-.089-.068-.089-.034 0-.068-.048-.068-.109 0-.102-.157-.3-.239-.3-.055 0-.239-.184-.239-.24 0-.081-.191-.238-.286-.238-.055 0-.136-.061-.191-.137-.054-.075-.136-.136-.184-.136-.048 0-.089-.034-.089-.068 0-.041-.061-.068-.136-.068-.075 0-.136-.048-.136-.103 0-.054-.062-.102-.137-.102-.075 0-.136-.034-.136-.068 0-.041-.048-.069-.102-.069-.055 0-.103-.034-.103-.068 0-.04-.061-.068-.136-.068-.075 0-.136-.034-.136-.068 0-.041-.109-.069-.239-.069-.129 0-.239-.034-.239-.068 0-.04-.061-.068-.136-.068-.075 0-.136-.034-.136-.068 0-.041-.089-.069-.205-.069-.136 0-.204-.034-.204-.102 0-.061-.062-.102-.171-.102-.095 0-.17-.034-.17-.069 0-.04-.137-.068-.307-.068-.17 0-.307-.034-.307-.068 0-.04-.088-.068-.204-.068-.109 0-.205-.034-.205-.068 0-.041-.136-.069-.307-.069-.17 0-.306-.034-.306-.068 0-.04-.137-.068-.307-.068-.225 0-.307-.027-.307-.103 0-.081-.089-.102-.375-.102-.204 0-.375-.034-.375-.068 0-.041-.17-.068-.375-.068-.204 0-.375-.035-.375-.069 0-.04-.089-.068-.204-.068-.109 0-.205-.034-.205-.068 0-.041-.136-.068-.307-.068-.17 0-.307-.034-.307-.069 0-.04-.061-.068-.136-.068-.075 0-.136-.048-.136-.102 0-.062-.062-.102-.171-.102-.095 0-.17-.035-.17-.069 0-.04-.048-.068-.109-.068-.062 0-.198-.095-.3-.205-.102-.116-.212-.204-.239-.204-.095 0-.238-.198-.238-.335 0-.082-.028-.143-.069-.143-.04 0-.068-.239-.068-.58 0-.341.028-.58.068-.58.041 0 .069-.062.069-.143 0-.137.143-.335.238-.335.027 0 .137-.095.239-.205.102-.116.238-.204.3-.204.061 0 .109-.048.109-.103 0-.068.075-.102.239-.102.129 0 .238-.034.238-.068 0-.041.171-.069.375-.069.205 0 .375-.034.375-.068 0-.04.191-.068.443-.068s.443.027.443.068c0 .034.171.069.375.069.205 0 .375.027.375.068 0 .034.109.068.239.068.164 0 .239.034.239.102 0 .055.061.103.136.103.075 0 .136.027.136.068 0 .034.055.068.123.068s.164.062.218.137c.055.075.123.136.157.136.109 0 .389.341.389.478 0 .075.034.136.068.136.041 0 .068.062.068.137 0 .075.034.136.068.136.041 0 .068.075.068.17v.171h5.523v-.477c0-.273-.028-.478-.069-.478-.034 0-.068-.123-.068-.273 0-.15-.027-.273-.068-.273-.034 0-.068-.109-.068-.239s-.027-.239-.068-.239c-.034 0-.069-.06-.069-.136 0-.075-.027-.136-.068-.136-.034 0-.068-.075-.068-.171 0-.11-.041-.17-.102-.17-.055 0-.102-.062-.102-.137 0-.075-.028-.137-.069-.137-.034 0-.068-.061-.068-.136 0-.075-.027-.136-.068-.136-.034 0-.068-.048-.068-.103 0-.055-.027-.102-.068-.102-.034 0-.068-.048-.068-.11 0-.102-.157-.3-.239-.3-.055 0-.375-.32-.375-.375 0-.055-.464-.512-.511-.512-.055 0-.239-.184-.239-.239 0-.082-.198-.239-.3-.239-.061 0-.109-.034-.109-.068 0-.04-.048-.068-.102-.068-.055 0-.103-.034-.103-.068 0-.041-.047-.068-.109-.068-.122 0-.3-.157-.3-.267 0-.04-.075-.075-.17-.075-.096 0-.171-.034-.171-.068 0-.04-.061-.068-.136-.068-.075 0-.136-.034-.136-.068 0-.041-.089-.069-.205-.069-.109 0-.204-.034-.204-.068 0-.04-.075-.068-.171-.068-.095 0-.17-.034-.17-.068 0-.041-.137-.069-.307-.069-.17 0-.307-.034-.307-.068 0-.04-.088-.068-.204-.068-.137 0-.205-.034-.205-.102 0-.082-.095-.103-.443-.103-.252 0-.443-.027-.443-.068 0-.04-.648-.068-1.807-.068-1.159 0-1.806.027-1.806.068ZM72.473 20.785v11.293H78.132V9.491h-5.66v11.294ZM150.328 20.785v11.293H155.987V9.491H150.328v11.294Z" fill="#050505"/></svg>